<svg xmlns="http://www.w3.org/2000/svg" xmlns:xlink="http://www.w3.org/1999/xlink" width="255" height="53" viewBox="0 0 255 53">
  <defs>
    <clipPath id="clip-path">
      <rect id="사각형_3310" data-name="사각형 3310" width="65.36" height="20.232" fill="none"/>
    </clipPath>
  </defs>
  <g id="그룹_1741" data-name="그룹 1741" transform="translate(-86 -2470)">
    <rect id="사각형_38" data-name="사각형 38" width="255" height="53" rx="26.5" transform="translate(86 2470)" fill="#e64275"/>
    <g id="그룹_1740" data-name="그룹 1740">
      <path id="패스_7763" data-name="패스 7763" d="M-19.72-2.363a8.043,8.043,0,0,1-3.723-7.174v-2.346h-2.193v2.465a8.45,8.45,0,0,1-4,7.429l1.292,1.547A8.777,8.777,0,0,0-24.5-5.219,9.643,9.643,0,0,0-20.944-.782Zm3.332,5.236V-13.243h-2.125V2.873ZM.136-7.684V-9.418h-2.3v-3.825H-4.284v9.384h2.125V-7.684ZM-12.733-3.043V-1.36h8.466V2.89h2.125V-3.043Zm-1.819-7.446h3.23A5.433,5.433,0,0,1-15.2-5.61l1.258,1.649a6.313,6.313,0,0,0,3.723-3.621A6.924,6.924,0,0,0-6.715-4.4l1.156-1.666a5.055,5.055,0,0,1-3.587-4.42h3.077v-1.717h-8.483Zm17.544,6.8A1.709,1.709,0,0,1,4.811-5.457,1.723,1.723,0,0,1,6.647-3.689,1.658,1.658,0,0,1,4.811-1.938,1.7,1.7,0,0,1,2.992-3.689Zm-2.074,0C.918-1.649,2.5-.221,4.811-.221S8.7-1.717,8.7-3.689c0-2.023-1.581-3.468-3.893-3.468S.918-5.661.918-3.689ZM12.8-13.243H10.676V2.873H12.8V-4.964h2.244V-6.715H12.8ZM2.4-10.523H7.361v-1.666H2.4ZM9.486-7.718V-9.4H.136v1.683Zm6.528-3.842v1.751H21.25a10.527,10.527,0,0,1-6.222,8.177l1.309,1.6C21.25-2.72,23.409-6.7,23.528-11.56ZM28.492,2.873V-13.243H26.367V2.873Z" transform="translate(280.361 2500.082)" fill="#fff"/>
      <path id="패스_7762" data-name="패스 7762" d="M-14.272.56V-1.024H-19.28V-5.648h-1.984v4.624H-22.9V-5.648h-2.016v4.624h-3.056V.56ZM-26.384-10.9v1.6h8.608a26.794,26.794,0,0,1-.576,6.336l1.92.272A35.221,35.221,0,0,0-15.76-10.9ZM-3.808-5.3h-6.448v-2.24h6.448ZM-.192.816V-.768H-6.08V-3.712h4.256v-7.744H-3.808v2.384h-6.448v-2.352H-12.24v7.712h4.176V-.768h-5.824V.816ZM11.184-.352C11.184.56,9.92,1.1,7.92,1.1,5.952,1.1,4.7.56,4.7-.352S5.952-1.824,7.92-1.824C9.92-1.824,11.184-1.264,11.184-.352ZM7.808-5.728a4.735,4.735,0,0,1-2.832-4.336V-11.5H3.056v1.488A5.441,5.441,0,0,1,.048-5.168l1.1,1.408A6.085,6.085,0,0,0,4.08-6.88,6.076,6.076,0,0,0,6.816-4.24Zm5.28,2.368v-9.1H11.2V-8.72H9.968v-3.472H8.128v8.24h1.84V-7.12H11.2v3.76Zm.128,3.008c0-1.872-2-3.072-5.3-3.072-3.28,0-5.28,1.2-5.28,3.072C2.64,1.5,4.64,2.7,7.92,2.7,11.216,2.7,13.216,1.5,13.216-.352Zm8.48-1.5c2.016,0,3.168.576,3.168,1.5,0,.9-1.152,1.456-3.168,1.456-1.952,0-3.136-.56-3.136-1.456C18.56-1.28,19.744-1.856,21.7-1.856Zm5.216,1.5c0-1.9-1.9-3.088-5.216-3.088-3.264,0-5.168,1.184-5.168,3.088,0,1.856,1.9,3.056,5.168,3.056C25.008,2.7,26.912,1.5,26.912-.352ZM19.936-6.064H16.848V-9.84h3.088ZM21.9-4.528v-6.848H14.88v6.848Zm2.912-4.16V-7.12h-2.08v1.568h2.08v1.92H26.8v-8.832H24.816v2.224H22.752v1.552Z" transform="translate(142.718 2501.157)" fill="#fff"/>
      <g id="그룹_1563" data-name="그룹 1563" transform="translate(179.403 2486.082)">
        <rect id="사각형_3309" data-name="사각형 3309" width="2.689" height="12.439" transform="translate(37.126 3.891)" fill="#fff"/>
        <path id="패스_7040" data-name="패스 7040" d="M2.1,0,.1,1.982l2.685,2.76L4.762,2.759Z" transform="translate(-0.08 0)" fill="#fff"/>
        <g id="그룹_1191" data-name="그룹 1191">
          <g id="그룹_1190" data-name="그룹 1190" clip-path="url(#clip-path)">
            <path id="패스_7041" data-name="패스 7041" d="M328.482,16.43h2.7V9.714a2.983,2.983,0,1,1,5.966,0V16.43h2.689v-6.7a5.684,5.684,0,0,0-5.672-5.748h0a5.721,5.721,0,0,0-2.994.841V.119h-2.691Z" transform="translate(-274.48 -0.099)" fill="#fff"/>
            <path id="패스_7042" data-name="패스 7042" d="M172.688,23.667a6.22,6.22,0,1,0,6.224,6.22,6.222,6.222,0,0,0-6.224-6.22m0,9.752a3.532,3.532,0,1,1,3.535-3.532,3.534,3.534,0,0,1-3.535,3.532" transform="translate(-139.098 -19.776)" fill="#fff"/>
            <path id="패스_7043" data-name="패스 7043" d="M11.077,19.554a6.581,6.581,0,0,0-5.042-2.836v2.719H5.647A5.591,5.591,0,0,0,.012,24.422a5.153,5.153,0,0,0,0,.749V34.2H2.7V29.449a5.78,5.78,0,0,0,1.462.619,7.208,7.208,0,0,0,1.871.25,6.348,6.348,0,0,0,6.137-4.369,7.169,7.169,0,0,0-1.1-6.4M9.664,24.806c-.024.1-.051.2-.083.3a3.529,3.529,0,0,1-2.377,2.321,3.747,3.747,0,0,1-3.922-1.016,2.557,2.557,0,0,1-.552-1.784,2.9,2.9,0,0,1,2.984-2.461v0h.319V19.447A3.922,3.922,0,0,1,8.87,21.156a4.736,4.736,0,0,1,.841,1.972,3.769,3.769,0,0,1-.047,1.679" transform="translate(0 -13.97)" fill="#fff"/>
            <path id="패스_7044" data-name="패스 7044" d="M259.838,32.211a3.533,3.533,0,1,1,.011-4.634l1.886-1.917a6.22,6.22,0,1,0-.012,8.467Z" transform="translate(-209.698 -19.777)" fill="#fff"/>
            <path id="패스_7045" data-name="패스 7045" d="M94.035,32.013a4.14,4.14,0,0,1-3.227,1.533A3.307,3.307,0,0,1,87.365,31.2l-.082-.288h9.308l.012-.18c.023-.352.045-.677.045-.98a5.793,5.793,0,0,0-5.94-6.164,5.95,5.95,0,0,0-6.114,6.189,5.987,5.987,0,0,0,6.114,6.264,6.132,6.132,0,0,0,5.057-2.455L94.128,31.9Zm-6.67-3.586a3.155,3.155,0,0,1,3.313-2.349,3.077,3.077,0,0,1,3.205,2.356l.07.281h-6.67Z" transform="translate(-70.687 -19.708)" fill="#fff"/>
            <path id="패스_7046" data-name="패스 7046" d="M328.482,96.611v.448h.448a.448.448,0,0,1-.448-.448" transform="translate(-274.48 -80.728)" fill="#fff"/>
            <path id="패스_7047" data-name="패스 7047" d="M342.117,97.058h.448V96.61a.448.448,0,0,1-.448.448" transform="translate(-285.873 -80.727)" fill="#fff"/>
            <path id="패스_7048" data-name="패스 7048" d="M328.93,23.667h-.448v.448a.448.448,0,0,1,.448-.448" transform="translate(-274.48 -19.776)" fill="#fff"/>
            <path id="패스_7049" data-name="패스 7049" d="M342.565,24.115v-.448h-.448a.448.448,0,0,1,.448.448" transform="translate(-285.873 -19.776)" fill="#fff"/>
          </g>
        </g>
      </g>
    </g>
  </g>
</svg>
