<svg xmlns="http://www.w3.org/2000/svg" width="327.376" height="396.97" viewBox="0 0 327.376 396.97">
  <g id="그룹_1731" data-name="그룹 1731" transform="translate(-41.61 -2684.438)">
    <path id="패스_7750" data-name="패스 7750" d="M7.36-10.352c2.272,0,3.7.816,3.7,1.968,0,1.168-1.424,1.968-3.7,1.968-2.288,0-3.712-.8-3.712-1.968C3.648-9.536,5.072-10.352,7.36-10.352ZM5.52,2.56V-2.624H9.152V2.56h1.5V-2.624H14.08V-3.856H.64v1.232H4.016V2.56Zm7.1-10.944c0-1.92-2.016-3.248-5.264-3.248C4.1-11.632,2.1-10.3,2.1-8.384S4.1-5.12,7.36-5.12C10.608-5.12,12.624-6.464,12.624-8.384Zm10.464.752c0-2.128-1.7-3.5-3.9-3.5a3.608,3.608,0,0,0-3.872,3.5c0,2.016,1.68,3.392,3.872,3.392C21.36-4.24,23.088-5.568,23.088-7.632Zm2.144-4.688V2.56H26.72V-12.32ZM21.6-7.648A2.243,2.243,0,0,1,19.184-5.5,2.215,2.215,0,0,1,16.8-7.648a2.278,2.278,0,0,1,2.384-2.224A2.239,2.239,0,0,1,21.6-7.648ZM24.272-2.4c-1.184.144-2.944.256-5.04.336-1.76.1-3.5.112-4.928.112l.24,1.28C15.728-.688,17.3-.72,18.992-.8c1.888-.1,4.08-.24,5.44-.416Zm9.584-7.568V-11.2h-4v1.232Zm1.712,2.544V-8.656h-7.36v1.232Zm-1.744,3.6A1.732,1.732,0,0,1,32-2.112a1.709,1.709,0,0,1-1.84-1.712A1.715,1.715,0,0,1,32-5.52,1.71,1.71,0,0,1,33.824-3.824Zm1.44,0c0-1.776-1.328-2.912-3.264-2.912s-3.3,1.12-3.3,2.912A3.011,3.011,0,0,0,32-.9C33.936-.9,35.264-2.032,35.264-3.824ZM40.736,2.56V-12.32H39.28v6.144H37.744V-12H36.3V1.824h1.44V-4.944H39.28v7.5Zm12.144,0V-2.656h6V-3.888H45.44v1.232h5.936V2.56Zm5.408-9.04c-2.24-.24-5.088-1.648-5.312-3.552h4.688v-1.232H46.688v1.232h4.688c-.224,1.888-2.96,3.36-5.312,3.616l.7,1.184C49.136-5.6,51.5-7.008,52.16-8.416c.72,1.36,3.184,2.784,5.44,3.136Zm8.32,4.272a7.237,7.237,0,0,1-3.056-6.176v-2.528H62.1v2.544a7.793,7.793,0,0,1-3.264,6.544l.944,1.056a7.8,7.8,0,0,0,3.056-4.416A8.052,8.052,0,0,0,65.7-1.152Zm2.224,4.032V-11.984h-1.44V-7.04H65.04v1.232h2.352V1.824Zm2.944.736V-12.32H70.32V2.56ZM86.4.672V-.56H83.136V-3.2l-1.5-.048V-.56H77.7V-3.248l-1.5.048V-.56H72.96V.672ZM83.68-7.472c0,1.552-1.6,2.608-4,2.608S75.7-5.92,75.7-7.472C75.7-9.04,77.28-10.1,79.68-10.1,82.1-10.1,83.68-9.04,83.68-7.472Zm1.536,0c0-2.32-2.192-3.856-5.536-3.856-3.328,0-5.536,1.536-5.536,3.856s2.208,3.84,5.536,3.84S85.216-5.152,85.216-7.472ZM87.568.944h1.648V-.72H87.568Zm.16-3.008h1.28l.192-9.28H87.552Z" transform="translate(42 2696.758)" fill="#4d4d4d"/>
    <path id="패스_7751" data-name="패스 7751" d="M1.61-3.92H2.828V-5.152H1.61Zm17.5.1H12.166V-6.65H19.11Zm.812.7V-9.744H19.11V-7.35H12.166V-9.744h-.812v6.622h3.864V-.154H9.758v.7h11.76v-.7H16.03V-3.122Zm7.49-1.932c0,.882-.924,1.4-2.086,1.4-1.134,0-2.058-.518-2.058-1.4,0-.84.91-1.386,2.058-1.386S27.412-5.894,27.412-5.054Zm.812,0c0-1.288-1.232-2.086-2.9-2.086s-2.87.8-2.87,2.086,1.232,2.1,2.87,2.1C26.992-2.954,28.224-3.794,28.224-5.054Zm.854-2.828v-.7H21.672v.7ZM27.216-9.674v-.7H23.534v.7Zm4.956,6.818V-10.78H31.36v4.2H28.8v.7H31.36v3.024Zm-.8,4.186h-6.72V-1.4h6.72Zm.812.7V-2.1H23.842V2.03Zm5.516-5h3.346V-.154H37.7Zm6.244,0v-.714H35.812V-6.02H43.6V-9.73H35.014v.714h7.77v2.282H35v3.766h1.89V-.154H33.418v.7h11.76v-.7H41.86V-2.968ZM55.706-6.16a37.05,37.05,0,0,1-6.244.6v-4.536H48.65V-4.83c.336,0,.7,0,1.05-.014a44.023,44.023,0,0,0,6.132-.574Zm1.512,7.518H50.792V-.588h6.426Zm.812.686V-3.234h-.812v1.946H50.792v-1.9H49.98V2.044ZM60.088-7v-.7H58.03v-3.08h-.812v6.734h.812V-7ZM66.22,2.254V-2.268h5.488v-.714H59.948v.714h5.46V2.254ZM69.314-5.4H62.356V-7.546h6.958Zm.812.7V-10.22h-.812v1.974H62.356V-10.22h-.812V-4.7Zm7.7,2.226a22.15,22.15,0,0,1-4.452.448v-7.1h-.812v7.854c.462,0,.882,0,1.316-.028a22.967,22.967,0,0,0,4.1-.448ZM82.712,2.24V-10.78h-.826v5.432H79.73V-10.43h-.812V1.526h.812V-4.648h2.156V2.24ZM87.08-9.324a2.246,2.246,0,0,1,2.408,2.31,2.251,2.251,0,0,1-2.408,2.3,2.321,2.321,0,0,1-2.422-2.31A2.31,2.31,0,0,1,87.08-9.324Zm0-.714a3.02,3.02,0,0,0-3.234,3.024A3.039,3.039,0,0,0,87.08-3.976,3.046,3.046,0,0,0,90.3-7.028,3.013,3.013,0,0,0,87.08-10.038ZM85.6-2.366v.714H93.38V2.254h.812v-4.62Zm5.082-5.908h2.7V-5.88h-2.7v.672h2.7V-3.08h.812v-7.7H93.38v1.834h-2.7Zm14.35,1.89c0,1.428-1.456,2.52-3.724,2.52s-3.71-1.092-3.71-2.52S99.036-8.89,101.3-8.89,105.028-7.8,105.028-6.384Zm.854,0c0-1.946-1.806-3.234-4.578-3.234-2.744,0-4.564,1.288-4.564,3.234S98.56-3.15,101.3-3.15,105.882-4.424,105.882-6.384ZM107.2.392v-.7H95.438v.7Zm11.83.154v-.7H113.54V-2.716H117.8v-.7h-8.134V-5.978H117.4V-9.73h-8.54v.714h7.728v2.338H108.85v3.962h3.878V-.154h-5.46v.7ZM129.556-4.1a5.1,5.1,0,0,1-3.276-4.382v-1.54h-.826V-8.47a5.5,5.5,0,0,1-3.332,4.76l.546.63a6.837,6.837,0,0,0,3.248-3.71,6.4,6.4,0,0,0,3.136,3.332Zm3.276,5.908V1.092H125.1V-2.1h-.8V1.806Zm-.28-3.136v-9.45h-.812v9.45Zm7.126-4.424a11.032,11.032,0,0,0,1.9-.154V-3.92h-3.836v-2A9.825,9.825,0,0,0,139.678-5.754ZM143.332-.1c0,.98-1.414,1.568-3.654,1.568S136.052.882,136.052-.1s1.386-1.582,3.626-1.582S143.332-1.078,143.332-.1Zm-.042-8.008c0,1.036-1.372,1.652-3.612,1.652s-3.584-.616-3.584-1.652,1.344-1.666,3.584-1.666S143.29-9.142,143.29-8.106ZM144.158-.1c0-1.414-1.61-2.3-4.48-2.3s-4.466.882-4.466,2.3,1.6,2.282,4.466,2.282S144.158,1.316,144.158-.1Zm-.042-8.008c0-1.47-1.568-2.366-4.438-2.366s-4.424.9-4.424,2.366c0,.91.574,1.582,1.694,1.974V-3.92H133.8v.714h11.76V-3.92h-3.164V-6.132C143.514-6.524,144.116-7.2,144.116-8.106Zm12.1,4.97V-10.78H155.4v3.472h-2.716v.7H155.4v3.472ZM146.09-9h3.01v.854c0,1.778-1.806,3.654-3.444,4.312l.448.6a6.641,6.641,0,0,0,3.346-3.388,6.593,6.593,0,0,0,3.22,3.052l.462-.686c-1.61-.518-3.248-2.142-3.248-3.878V-9h3.038v-.7H146.09ZM155.414,1.33h-6.552V-1.722h6.552Zm.812.7V-2.422H148.05V2.03ZM168.532-5.7c-2.17-.224-4.788-2.24-4.788-3.892v-.546h-.826v.546c0,1.666-2.268,3.556-4.788,3.934l.448.728c2-.434,4.116-1.876,4.76-3.36A7.7,7.7,0,0,0,168.1-4.97Zm-4.8,7.952V-2.6h5.488v-.714h-11.76V-2.6h5.46V2.254ZM181.65-8.232c0,.952-1.372,1.554-3.612,1.554s-3.584-.6-3.584-1.554S175.8-9.8,178.038-9.8,181.65-9.184,181.65-8.232Zm1.246,10.3v-.7h-8.4V-.154h7.882V-2.87h-8.722v.7h7.924V-.854h-7.9V2.072Zm-.42-10.3c0-1.414-1.568-2.268-4.438-2.268s-4.424.854-4.424,2.268c0,1.344,1.4,2.17,4,2.254V-4.9h-5.46v.714h11.76V-4.9H178.43V-5.978C181.048-6.062,182.476-6.874,182.476-8.232Zm9.94,6.818c-.028-.238-.056-.462-.1-.714a34.833,34.833,0,0,1-6.16.448h-.574V-5.054h5.068v-4.48h-5.936v.7h5.138v3.08h-5.082V-.966c.644,0,1.218,0,1.736-.028A39.836,39.836,0,0,0,192.416-1.414Zm1.33-9.366V2.24h.8V-10.78ZM196.6-9.352v.7h5.054c-.238,3.08-2.24,5.824-5.642,7.56l.49.644c3.094-1.61,5.964-4.522,6.02-8.9ZM206.388,2.24V-10.78h-.812V2.24Zm11.97-3.99a6.69,6.69,0,0,1-3.542-5.39V-9.6h-.826v2.478a7.652,7.652,0,0,1-3.556,5.754l.6.672a9.106,9.106,0,0,0,3.36-4.578,9.336,9.336,0,0,0,3.388,4.2ZM221.1,2.24V-10.78h-.812v4.788h-3.22v.686h3.22V2.24Zm7.294-4h-4.452v-3.78H228.4Zm.812.7V-9.646H228.4v3.4h-4.452v-3.4h-.812v8.582Zm3.71,3.3V-10.78h-.812V2.24ZM245.938.392v-.7h-11.76v.7Zm-.56-4.424c-2.03-.5-4.914-2.66-4.914-4.69v-.9h-.826v.9c0,2.03-2.744,4.2-4.872,4.676l.42.644c2.576-.77,4.522-2.8,4.858-3.906.406,1.12,2.45,3.136,4.872,3.948Zm10.976-1.876v-.7h-7.868v-3.724h-.812v4.424ZM256.4,1.9V1.2h-7.91V-1.862h-.812V1.9Zm1.372-5.1v-.714h-11.76v.714ZM18.732,12.5c0,1.54-1.442,2.716-3.7,2.716s-3.7-1.176-3.7-2.716,1.428-2.716,3.7-2.716S18.732,10.978,18.732,12.5Zm.854,0c0-2.044-1.806-3.388-4.55-3.388s-4.55,1.344-4.55,3.388c0,1.96,1.638,3.262,4.144,3.388v2.884H9.17v.7H20.93v-.7H15.442V15.892C17.934,15.766,19.586,14.464,19.586,12.5Zm12,3.528V8.22h-.812v7.812Zm-8.61.714v.7h7.8v3.78h.8v-4.48Zm-1.4-6.762h3.052V10.8c0,1.778-1.806,3.654-3.444,4.312l.448.6a6.641,6.641,0,0,0,3.346-3.388,6.593,6.593,0,0,0,3.22,3.052l.462-.686c-1.61-.518-3.248-2.142-3.248-3.878V9.984h3.136v-.7H21.574Zm24.178-.042h-8.68v.7h7.84v1.344a21.713,21.713,0,0,1-.448,4.718l.784.154a25.349,25.349,0,0,0,.5-5.208Zm1.708,9.31v-.7H42.84V14.17h-.8v4.382H39.634V14.17h-.8v4.382H35.7v.7Zm9.422-4.074H49.938V12.35h6.944Zm.812.7V9.256h-.812V11.65H49.938V9.256h-.812v6.622H52.99v2.968H47.53v.7H59.29v-.7H53.8V15.878Zm8.162-1.316a4.541,4.541,0,0,1-2.772-3.794V9.1h-.812v1.68a5.049,5.049,0,0,1-2.814,4.144L60,15.57a6.113,6.113,0,0,0,2.674-3.248,6.735,6.735,0,0,0,2.674,2.884Zm4.424,1.96V8.22h-.812v3.6h-2V8.458h-.812v7.434h.812V12.518h2v4.018Zm-4.284.7c2.38,0,3.64.756,3.64,1.624s-1.26,1.638-3.64,1.638-3.612-.756-3.612-1.638S63.63,17.222,66,17.222Zm4.494,1.624c0-1.372-1.652-2.324-4.494-2.324s-4.466.952-4.466,2.324S63.154,21.184,66,21.184,70.49,20.232,70.49,18.846ZM77.5,17.1c2.156,0,3.542.658,3.542,1.722S79.66,20.526,77.5,20.526s-3.514-.658-3.514-1.708S75.348,17.1,77.5,17.1Zm4.4,1.722c0-1.512-1.666-2.436-4.4-2.436s-4.368.924-4.368,2.436,1.638,2.436,4.368,2.436S81.9,20.316,81.9,18.818ZM76.846,14.38H72.688V10.04h4.158Zm.8.714V9.312H71.876v5.782Zm.56-3.92h2.758V13.19H78.2v.7h2.758v2.422h.812V8.22h-.812v2.254H78.2Zm19.838,3.108v-.7H95.8V8.22H94.99V21.24H95.8V14.282Zm-6.566,2.884h-4.2V10.334h4.2Zm.812.7V9.634H86.464v8.232Zm11.55-4.046c0,2.17-.91,3.822-2.31,3.822s-2.31-1.652-2.31-3.822c0-2.2.91-3.836,2.31-3.836S103.838,11.636,103.838,13.82Zm-5.46-.014c0,2.772,1.26,4.564,3.15,4.564s3.15-1.792,3.15-4.55c0-2.786-1.26-4.564-3.15-4.564S98.378,11.034,98.378,13.806Zm9.912,7.434V8.22h-.812V21.24Zm2.66-4.074V10.614h4.032v-.7h-4.844V17.88h1.3a22.911,22.911,0,0,0,4.382-.378l-.1-.7a20.651,20.651,0,0,1-4.116.364Zm6.146-3.108v6.468h.812V8.57H117.1v4.788h-2.884v.7Zm3.388,7.182V8.22h-.812V21.24Zm7.014-7.42c0,2.17-.91,3.822-2.31,3.822s-2.31-1.652-2.31-3.822c0-2.2.91-3.836,2.31-3.836S127.5,11.636,127.5,13.82Zm-5.46-.014c0,2.772,1.26,4.564,3.15,4.564s3.15-1.792,3.15-4.55c0-2.786-1.26-4.564-3.15-4.564S122.038,11.034,122.038,13.806Zm9.912,7.434V8.22h-.812V21.24Zm2.688-7.406h4.606v-.7h-4.606V10.208h5.11v-.7h-5.922v8.456c.378,0,.77,0,1.148-.014a37.685,37.685,0,0,0,5.726-.42l-.112-.728a32.584,32.584,0,0,1-5.95.406Zm9.128,7.406V8.22h-.812v5.166h-3v.7h3V21.24Zm7.378-2.2A3.614,3.614,0,0,1,149.2,18.5V13.442a3.964,3.964,0,0,1,2.184-.644c1.456,0,2.338.672,2.338,3.01v.224C153.72,18.174,152.74,19.042,151.144,19.042ZM148.428,21.8h.77V19.168a3.9,3.9,0,0,0,2,.518c2.044,0,3.332-1.134,3.332-3.752V15.78c0-2.8-1.316-3.668-2.968-3.668a3.913,3.913,0,0,0-2.352.756h-.042v-.616h-.742Zm9.408-9.044c1.428,0,2.114.868,2.114,2.59H155.5C155.624,13.484,156.688,12.756,157.836,12.756Zm.308,6.93a4.546,4.546,0,0,0,2.38-.6v-.6a4.846,4.846,0,0,1-2.268.518c-1.848,0-2.772-.91-2.772-3.024h5.278v-.448c0-2.184-.91-3.416-2.9-3.416-1.708,0-3.164,1.176-3.164,3.71v.168C154.7,18.342,155.848,19.686,158.144,19.686Zm5.18-.616c-1.008,0-1.652-.5-1.652-1.414,0-.938.5-1.386,1.61-1.5l1.946-.224v2.478A2.889,2.889,0,0,1,163.324,19.07Zm-.2.616a2.842,2.842,0,0,0,2.114-.77h.042l.07.644H166V14.226c0-1.484-.84-2.114-2.366-2.114a5.6,5.6,0,0,0-2.128.392v.574a6.339,6.339,0,0,1,1.848-.28c1.316,0,1.876.364,1.876,1.6v.952l-2.156.238c-1.428.168-2.2.84-2.2,2.1A1.993,1.993,0,0,0,163.128,19.686Zm6.762,0a3.782,3.782,0,0,0,2.156-.588v-.644a3.893,3.893,0,0,1-2.072.546c-1.75,0-2.576-1.05-2.576-3.01v-.28c0-2,1.05-2.912,2.478-2.912a4.051,4.051,0,0,1,2.072.476V12.6a3.511,3.511,0,0,0-2.016-.49c-1.876,0-3.332,1.12-3.332,3.71V16C166.6,18.356,167.762,19.686,169.89,19.686Zm2.7-.126h.784V13.47a5.218,5.218,0,0,1,2.38-.672c1.2,0,1.652.406,1.652,1.442v5.32h.784V14.086c0-1.4-.728-1.96-2.128-1.96a4.918,4.918,0,0,0-2.632.784h-.056v-4h-.784Zm17.094,1.68V8.22h-.826V21.24Zm-6.048-7.462c0,2.3-.756,3.626-1.89,3.626s-1.9-1.33-1.9-3.626.756-3.626,1.9-3.626S183.638,11.482,183.638,13.778Zm-1.89-4.326c-1.722,0-2.73,1.582-2.73,4.326s1.008,4.326,2.73,4.326c1.624,0,2.618-1.442,2.7-3.962h1.89v6.44h.84V8.472h-.84v4.97h-1.89C184.38,10.908,183.386,9.452,181.748,9.452Zm16.66,7.8a6.69,6.69,0,0,1-3.542-5.39V9.4h-.826v2.478a7.652,7.652,0,0,1-3.556,5.754l.6.672a9.106,9.106,0,0,0,3.36-4.578,9.336,9.336,0,0,0,3.388,4.2Zm2.744,3.99V8.22h-.812v4.788h-3.22v.686h3.22V21.24Zm11.76-.476V20.05h-7.77V16.83h-.812v3.934Zm1.456-7.9v-.686H212.31V8.22H211.5v9.45h.812v-4.8Zm-6.314,1.764H203.77V10.208h4.284Zm.812.7V9.494h-5.908v5.838Zm8.848-5.684v.7h5.026a9.232,9.232,0,0,1-5.446,7.56l.49.644a10.039,10.039,0,0,0,5.824-8.9Zm9.3-1.428H226.2V21.24h.812V14.492h2.24v-.7h-2.24Zm11.41,10.64c0,.98-1.4,1.61-3.612,1.61s-3.584-.63-3.584-1.61,1.372-1.624,3.584-1.624S238.42,17.88,238.42,18.86Zm.868,0c0-1.414-1.61-2.338-4.48-2.338s-4.466.924-4.466,2.338,1.6,2.324,4.466,2.324S239.288,20.274,239.288,18.86Zm-.014-6.244v-.7h-7.868V8.6h-.812v4.018Zm1.414,2.464v-.714h-11.76v.714Zm5.782-1.372c0,.882-.924,1.372-2.086,1.372-1.134,0-2.058-.49-2.058-1.372,0-.84.91-1.358,2.058-1.358S246.47,12.868,246.47,13.708Zm.812,0c0-1.288-1.232-2.058-2.9-2.058s-2.87.77-2.87,2.058,1.232,2.072,2.87,2.072C246.05,15.78,247.282,14.968,247.282,13.708Zm.854-2.7v-.7H240.73v.7Zm-1.862-1.764v-.7h-3.682v.7Zm3.584,11.088h-6.426V18.58h6.426Zm.812.714v-4.62h-.812v1.442h-6.426V16.41h-.812v4.634Zm2.058-8.246v-.7H250.67V8.22h-.812v7.56h.812V12.8Zm7.924,3.626a31.611,31.611,0,0,1-6.37.644V9.662h-.812v8.12c.364,0,.8,0,1.218-.014a37.612,37.612,0,0,0,6.062-.616ZM263,8.22h-.812V21.24H263Zm2.842,8.96V10.264h5.1v-.7h-5.908v8.33h1.582a37.1,37.1,0,0,0,5.628-.462l-.1-.686a32.087,32.087,0,0,1-5.432.434Zm8.484-8.96h-.812V21.24h.812V14.226h2.226v-.7H274.33Zm2.058,11.48h.966v-.924h-.966Z" transform="translate(40 2741)" fill="rgba(38,38,38,0.65)"/>
    <path id="패스_7752" data-name="패스 7752" d="M1.61-3.92H2.828V-5.152H1.61Zm17.5.1H12.166V-6.65H19.11Zm.812.7V-9.744H19.11V-7.35H12.166V-9.744h-.812v6.622h3.864V-.154H9.758v.7h11.76v-.7H16.03V-3.122Zm7.49-1.932c0,.882-.924,1.4-2.086,1.4-1.134,0-2.058-.518-2.058-1.4,0-.84.91-1.386,2.058-1.386S27.412-5.894,27.412-5.054Zm.812,0c0-1.288-1.232-2.086-2.9-2.086s-2.87.8-2.87,2.086,1.232,2.1,2.87,2.1C26.992-2.954,28.224-3.794,28.224-5.054Zm.854-2.828v-.7H21.672v.7ZM27.216-9.674v-.7H23.534v.7Zm4.956,6.818V-10.78H31.36v4.2H28.8v.7H31.36v3.024Zm-.8,4.186h-6.72V-1.4h6.72Zm.812.7V-2.1H23.842V2.03Zm5.516-5h3.346V-.154H37.7Zm6.244,0v-.714H35.812V-6.02H43.6V-9.73H35.014v.714h7.77v2.282H35v3.766h1.89V-.154H33.418v.7h11.76v-.7H41.86V-2.968ZM55.706-6.16a37.05,37.05,0,0,1-6.244.6v-4.536H48.65V-4.83c.336,0,.7,0,1.05-.014a44.023,44.023,0,0,0,6.132-.574Zm1.512,7.518H50.792V-.588h6.426Zm.812.686V-3.234h-.812v1.946H50.792v-1.9H49.98V2.044ZM60.088-7v-.7H58.03v-3.08h-.812v6.734h.812V-7ZM66.22,2.254V-2.268h5.488v-.714H59.948v.714h5.46V2.254ZM69.314-5.4H62.356V-7.546h6.958Zm.812.7V-10.22h-.812v1.974H62.356V-10.22h-.812V-4.7Zm7.7,2.226a22.15,22.15,0,0,1-4.452.448v-7.1h-.812v7.854c.462,0,.882,0,1.316-.028a22.967,22.967,0,0,0,4.1-.448ZM82.712,2.24V-10.78h-.826v5.432H79.73V-10.43h-.812V1.526h.812V-4.648h2.156V2.24ZM87.08-9.324a2.246,2.246,0,0,1,2.408,2.31,2.251,2.251,0,0,1-2.408,2.3,2.321,2.321,0,0,1-2.422-2.31A2.31,2.31,0,0,1,87.08-9.324Zm0-.714a3.02,3.02,0,0,0-3.234,3.024A3.039,3.039,0,0,0,87.08-3.976,3.046,3.046,0,0,0,90.3-7.028,3.013,3.013,0,0,0,87.08-10.038ZM85.6-2.366v.714H93.38V2.254h.812v-4.62Zm5.082-5.908h2.7V-5.88h-2.7v.672h2.7V-3.08h.812v-7.7H93.38v1.834h-2.7Zm14.35,1.89c0,1.428-1.456,2.52-3.724,2.52s-3.71-1.092-3.71-2.52S99.036-8.89,101.3-8.89,105.028-7.8,105.028-6.384Zm.854,0c0-1.946-1.806-3.234-4.578-3.234-2.744,0-4.564,1.288-4.564,3.234S98.56-3.15,101.3-3.15,105.882-4.424,105.882-6.384ZM107.2.392v-.7H95.438v.7Zm11.83.154v-.7H113.54V-2.716H117.8v-.7h-8.134V-5.978H117.4V-9.73h-8.54v.714h7.728v2.338H108.85v3.962h3.878V-.154h-5.46v.7ZM129.556-4.1a5.1,5.1,0,0,1-3.276-4.382v-1.54h-.826V-8.47a5.5,5.5,0,0,1-3.332,4.76l.546.63a6.837,6.837,0,0,0,3.248-3.71,6.4,6.4,0,0,0,3.136,3.332Zm3.276,5.908V1.092H125.1V-2.1h-.8V1.806Zm-.28-3.136v-9.45h-.812v9.45Zm7.126-4.424a11.032,11.032,0,0,0,1.9-.154V-3.92h-3.836v-2A9.825,9.825,0,0,0,139.678-5.754ZM143.332-.1c0,.98-1.414,1.568-3.654,1.568S136.052.882,136.052-.1s1.386-1.582,3.626-1.582S143.332-1.078,143.332-.1Zm-.042-8.008c0,1.036-1.372,1.652-3.612,1.652s-3.584-.616-3.584-1.652,1.344-1.666,3.584-1.666S143.29-9.142,143.29-8.106ZM144.158-.1c0-1.414-1.61-2.3-4.48-2.3s-4.466.882-4.466,2.3,1.6,2.282,4.466,2.282S144.158,1.316,144.158-.1Zm-.042-8.008c0-1.47-1.568-2.366-4.438-2.366s-4.424.9-4.424,2.366c0,.91.574,1.582,1.694,1.974V-3.92H133.8v.714h11.76V-3.92h-3.164V-6.132C143.514-6.524,144.116-7.2,144.116-8.106Zm12.1,4.97V-10.78H155.4v3.472h-2.716v.7H155.4v3.472ZM146.09-9h3.01v.854c0,1.778-1.806,3.654-3.444,4.312l.448.6a6.641,6.641,0,0,0,3.346-3.388,6.593,6.593,0,0,0,3.22,3.052l.462-.686c-1.61-.518-3.248-2.142-3.248-3.878V-9h3.038v-.7H146.09ZM155.414,1.33h-6.552V-1.722h6.552Zm.812.7V-2.422H148.05V2.03ZM168.532-5.7c-2.17-.224-4.788-2.24-4.788-3.892v-.546h-.826v.546c0,1.666-2.268,3.556-4.788,3.934l.448.728c2-.434,4.116-1.876,4.76-3.36A7.7,7.7,0,0,0,168.1-4.97Zm-4.8,7.952V-2.6h5.488v-.714h-11.76V-2.6h5.46V2.254ZM181.65-8.232c0,.952-1.372,1.554-3.612,1.554s-3.584-.6-3.584-1.554S175.8-9.8,178.038-9.8,181.65-9.184,181.65-8.232Zm1.246,10.3v-.7h-8.4V-.154h7.882V-2.87h-8.722v.7h7.924V-.854h-7.9V2.072Zm-.42-10.3c0-1.414-1.568-2.268-4.438-2.268s-4.424.854-4.424,2.268c0,1.344,1.4,2.17,4,2.254V-4.9h-5.46v.714h11.76V-4.9H178.43V-5.978C181.048-6.062,182.476-6.874,182.476-8.232Zm9.94,6.818c-.028-.238-.056-.462-.1-.714a34.833,34.833,0,0,1-6.16.448h-.574V-5.054h5.068v-4.48h-5.936v.7h5.138v3.08h-5.082V-.966c.644,0,1.218,0,1.736-.028A39.836,39.836,0,0,0,192.416-1.414Zm1.33-9.366V2.24h.8V-10.78ZM196.6-9.352v.7h5.054c-.238,3.08-2.24,5.824-5.642,7.56l.49.644c3.094-1.61,5.964-4.522,6.02-8.9ZM206.388,2.24V-10.78h-.812V2.24Zm11.97-3.99a6.69,6.69,0,0,1-3.542-5.39V-9.6h-.826v2.478a7.652,7.652,0,0,1-3.556,5.754l.6.672a9.106,9.106,0,0,0,3.36-4.578,9.336,9.336,0,0,0,3.388,4.2ZM221.1,2.24V-10.78h-.812v4.788h-3.22v.686h3.22V2.24Zm7.294-4h-4.452v-3.78H228.4Zm.812.7V-9.646H228.4v3.4h-4.452v-3.4h-.812v8.582Zm3.71,3.3V-10.78h-.812V2.24ZM245.938.392v-.7h-11.76v.7Zm-.56-4.424c-2.03-.5-4.914-2.66-4.914-4.69v-.9h-.826v.9c0,2.03-2.744,4.2-4.872,4.676l.42.644c2.576-.77,4.522-2.8,4.858-3.906.406,1.12,2.45,3.136,4.872,3.948Zm10.976-1.876v-.7h-7.868v-3.724h-.812v4.424ZM256.4,1.9V1.2h-7.91V-1.862h-.812V1.9Zm1.372-5.1v-.714h-11.76v.714ZM16.758,14.9a5.1,5.1,0,0,1-3.276-4.382V8.976h-.826V10.53a5.5,5.5,0,0,1-3.332,4.76l.546.63a6.837,6.837,0,0,0,3.248-3.71,6.4,6.4,0,0,0,3.136,3.332Zm3.276,5.908v-.714H12.306V16.9h-.8v3.906Zm-.28-3.136V8.22h-.812v9.45Zm7.126-4.424a11.032,11.032,0,0,0,1.9-.154V15.08H24.948v-2A9.825,9.825,0,0,0,26.88,13.246ZM30.534,18.9c0,.98-1.414,1.568-3.654,1.568s-3.626-.588-3.626-1.568S24.64,17.32,26.88,17.32,30.534,17.922,30.534,18.9Zm-.042-8.008c0,1.036-1.372,1.652-3.612,1.652S23.3,11.93,23.3,10.894,24.64,9.228,26.88,9.228,30.492,9.858,30.492,10.894ZM31.36,18.9c0-1.414-1.61-2.3-4.48-2.3s-4.466.882-4.466,2.3,1.6,2.282,4.466,2.282S31.36,20.316,31.36,18.9Zm-.042-8.008c0-1.47-1.568-2.366-4.438-2.366s-4.424.9-4.424,2.366c0,.91.574,1.582,1.694,1.974V15.08H21v.714H32.76V15.08H29.6V12.868C30.716,12.476,31.318,11.8,31.318,10.894Zm14.966,4.97V8.22h-.812v3.472H42.756v.7h2.716v3.472ZM36.162,10h3.01v.854c0,1.778-1.806,3.654-3.444,4.312l.448.6a6.641,6.641,0,0,0,3.346-3.388,6.593,6.593,0,0,0,3.22,3.052l.462-.686c-1.61-.518-3.248-2.142-3.248-3.878V10h3.038V9.3H36.162ZM45.486,20.33H38.934V17.278h6.552Zm.812.7V16.578H38.122V21.03ZM58.6,13.3c-2.17-.224-4.788-2.24-4.788-3.892V8.864H52.99V9.41c0,1.666-2.268,3.556-4.788,3.934l.448.728c2-.434,4.116-1.876,4.76-3.36a7.7,7.7,0,0,0,4.76,3.318Zm-4.8,7.952V16.4H59.29v-.714H47.53V16.4h5.46v4.858ZM62.846,9.648v.7h5.026a9.232,9.232,0,0,1-5.446,7.56l.49.644a10.039,10.039,0,0,0,5.824-8.9Zm9.3-1.428H71.33V21.24h.812V14.492h2.24v-.7h-2.24Zm12.5,7.644V8.22h-.812v3.472H81.116v.7h2.716v3.472ZM74.522,10h3.01v.854c0,1.778-1.806,3.654-3.444,4.312l.448.6a6.641,6.641,0,0,0,3.346-3.388A6.593,6.593,0,0,0,81.1,15.43l.462-.686c-1.61-.518-3.248-2.142-3.248-3.878V10h3.038V9.3H74.522ZM83.846,20.33H77.294V17.278h6.552Zm.812.7V16.578H76.482V21.03ZM95.942,10.082V9.41H89.278v.672Zm3.4,6.2V8.22h-.812V10.7H96.208v.7h2.324v1.666H96.208v.7h2.324v2.52Zm-3.192-1.876c-.434.084-1.092.126-1.862.182.154-1.19.308-2.534.448-3.7l-.826-.112c-.14,1.218-.238,2.618-.378,3.85-.168,0-.336.014-.5.014-.518.028-1.008.042-1.5.056-.126-1.232-.266-2.632-.378-3.864-.266.028-.532.07-.812.112.154,1.176.294,2.562.448,3.766-.588.014-1.176.014-1.806.014.056.252.084.518.14.784,1.078-.028,2.114-.07,3.5-.14,1.33-.07,2.618-.168,3.612-.308Zm-1.078,2.744c2.226,0,3.514.658,3.514,1.68s-1.288,1.68-3.514,1.68-3.528-.658-3.528-1.68S92.848,17.152,95.074,17.152Zm4.382,1.68c0-1.456-1.54-2.394-4.382-2.394s-4.4.938-4.4,2.394,1.54,2.394,4.4,2.394S99.456,20.288,99.456,18.832Zm1.75-9.184v.7h5.026a9.232,9.232,0,0,1-5.446,7.56l.49.644a10.039,10.039,0,0,0,5.824-8.9Zm9.3-1.428h-.812V21.24h.812V14.492h2.24v-.7H110.5Zm16.954,6.118v-.7H125.2V8.22h-.812V21.24h.812v-6.9Zm-4.606,3.094a6.79,6.79,0,0,1-3.444-5.376V10.334H122.5v-.7h-6.93v.7h3.01V12.07c0,2.128-1.736,4.606-3.514,5.712l.588.672a9.56,9.56,0,0,0,3.332-4.508,9.127,9.127,0,0,0,3.318,4.172Zm8.554-1.4h3.346v2.814H131.4Zm6.244,0v-.714h-8.134V12.98H137.3V9.27h-8.582v.714h7.77v2.282H128.7v3.766h1.89v2.814H127.12v.7h11.76v-.7h-3.318V16.032Zm13.062,3.514v-.7h-5.488V16.284h4.256v-.7h-8.134V13.022h7.742V9.27h-8.54v.714h7.728v2.338h-7.742v3.962h3.878v2.562h-5.46v.7Zm10.584,1.218V20.05h-7.77V16.83h-.812v3.934Zm1.456-7.9v-.686h-2.058V8.22h-.812v9.45h.812v-4.8Zm-6.314,1.764h-4.284V10.208h4.284Zm.812.7V9.494H151.34v5.838Zm13.9-6.146v-.7h-3.528v.7Zm1.96,1.484v-.7h-7.364v.7Zm-1.526,2.058c0,.5-.742.98-2.226.98-1.456,0-2.17-.462-2.17-.98s.7-.966,2.17-.966S171.584,12.224,171.584,12.728Zm5.852.224v-.686h-2.072V8.22h-.812v7.7h.812V12.952Zm-1.554,8.162v-.7H167.93V19.07h7.434V16.62H167.1v.7h7.448v1.05h-7.434v2.744Zm-3.472-8.386c0-1.036-1.246-1.652-3.052-1.652-1.778,0-3,.63-3,1.666,0,.966,1.05,1.568,2.646,1.652v.658c-1.5.07-2.786.084-3.64.084l.14.756c.952,0,2.534-.028,4-.14,1.638-.112,3.262-.294,4.214-.406l-.056-.686c-.826.112-2.268.238-3.85.336V14.38C171.374,14.282,172.41,13.68,172.41,12.728Zm10.78.518a11.032,11.032,0,0,0,1.9-.154V15.08h-3.836v-2A9.825,9.825,0,0,0,183.19,13.246Zm3.654,5.656c0,.98-1.414,1.568-3.654,1.568s-3.626-.588-3.626-1.568,1.386-1.582,3.626-1.582S186.844,17.922,186.844,18.9Zm-.042-8.008c0,1.036-1.372,1.652-3.612,1.652s-3.584-.616-3.584-1.652,1.344-1.666,3.584-1.666S186.8,9.858,186.8,10.894Zm.868,8.008c0-1.414-1.61-2.3-4.48-2.3s-4.466.882-4.466,2.3,1.6,2.282,4.466,2.282S187.67,20.316,187.67,18.9Zm-.042-8.008c0-1.47-1.568-2.366-4.438-2.366s-4.424.9-4.424,2.366c0,.91.574,1.582,1.694,1.974V15.08h-3.15v.714h11.76V15.08h-3.164V12.868C187.026,12.476,187.628,11.8,187.628,10.894Zm12.082,5.264V8.22H198.9v7.938Zm-.784,4.186H192.22V17.572h6.706Zm-2.212-7.35v-.7H191.2V9.676h5.446V8.962H190.4v4.032h2.73v1.792c-1.568.056-3.024.056-3.906.056l.14.784c.756,0,2.716-.042,4.214-.126,1.582-.084,3.29-.224,4.186-.336l-.07-.7c-.714.112-2.254.224-3.752.294V12.994Zm3.01,8.05V16.872h-8.3v4.172Zm12.194.2V8.22h-.826V21.24Zm-6.048-7.462c0,2.3-.756,3.626-1.89,3.626s-1.9-1.33-1.9-3.626.756-3.626,1.9-3.626S205.87,11.482,205.87,13.778Zm-1.89-4.326c-1.722,0-2.73,1.582-2.73,4.326s1.008,4.326,2.73,4.326c1.624,0,2.618-1.442,2.7-3.962h1.89v6.44h.84V8.472h-.84v4.97h-1.89C206.612,10.908,205.618,9.452,203.98,9.452Zm23.814,4.76v-.7h-2.016V8.22h-.812V21.24h.812V14.212Zm-3.6,2.38a14.725,14.725,0,0,1-3.178.322V10.32h2.534v-.7h-3.346v8.064a18.024,18.024,0,0,0,4.088-.378Zm-4.55-.014a9.882,9.882,0,0,1-2.66.336V10.32h2.352v-.7h-3.164v8.064a14.206,14.206,0,0,0,3.6-.392ZM237.412,8.22H236.6V21.24h.812V14.282h2.226V13.6h-2.226ZM235.284,16.8a50.308,50.308,0,0,1-6.44.518V13.946h4.914V9.466h-5.712v.7h4.9v3.08h-4.914v4.8c.868,0,1.708-.014,2.52-.056,1.82-.1,3.416-.252,4.83-.462ZM9.758,28.186v.7H14.6c-.294,2.254-2.646,4.354-5.488,5.04l.42.728c3.374-1.05,5.712-3.178,5.978-6.468ZM18.284,39.33H11.858V36.1h6.426Zm.812.714V35.382h-8.05v4.662Zm2.044-8.638v-.7H19.082V27.22H18.27v7.462h.812V31.406Zm10.444,3.458V27.22h-.812v3.472H28.056v.7h2.716v3.472ZM21.462,29h3.01v.854c0,1.778-1.806,3.654-3.444,4.312l.448.6a6.641,6.641,0,0,0,3.346-3.388,6.593,6.593,0,0,0,3.22,3.052l.462-.686c-1.61-.518-3.248-2.142-3.248-3.878V29h3.038v-.7H21.462ZM30.786,39.33H24.234V36.278h6.552Zm.812.7V35.578H23.422V40.03Zm7.35-7.21c0,2.17-.91,3.822-2.31,3.822s-2.31-1.652-2.31-3.822c0-2.2.91-3.836,2.31-3.836S38.948,30.636,38.948,32.82Zm-5.46-.014c0,2.772,1.26,4.564,3.15,4.564s3.15-1.792,3.15-4.55c0-2.786-1.26-4.564-3.15-4.564S33.488,30.034,33.488,32.806ZM43.4,40.24V27.22h-.812V40.24ZM54.572,27.22H53.76V40.24h.812V33.212h2.212v-.7H54.572Zm-2.226,8.2a30.72,30.72,0,0,1-6.272.644V28.662h-.812v8.12c.364,0,.8,0,1.218-.014a36.832,36.832,0,0,0,6.006-.616Zm16.38-4.1H61.768v-1.47h6.958Zm.812.7V27.654h-.812v1.5H61.768v-1.5h-.812v4.368Zm.56,8.008v-.7H61.712v-1.4H69.58V35.27H65.632V33.842H71.12v-.728H59.36v.728h5.46V35.27H60.83v.7h7.952v1.26H60.9v2.8Zm7.21-7.21c0,2.17-.91,3.822-2.31,3.822s-2.31-1.652-2.31-3.822c0-2.2.91-3.836,2.31-3.836S77.308,30.636,77.308,32.82Zm-5.46-.014c0,2.772,1.26,4.564,3.15,4.564s3.15-1.792,3.15-4.55c0-2.786-1.26-4.564-3.15-4.564S71.848,30.034,71.848,32.806ZM81.76,40.24V27.22h-.812V40.24Zm4.9-11.564a2.307,2.307,0,1,1,0,4.606,2.307,2.307,0,1,1,0-4.606Zm0-.714a3.038,3.038,0,1,0,3.248,3.01A3.043,3.043,0,0,0,86.66,27.962ZM93.618,40.24V35.592H85.05v.7h7.742V40.24ZM93.6,34.892V27.22h-.812v7.672Zm10.738-4.662c0,1.064-1.372,1.736-3.612,1.736s-3.584-.672-3.584-1.736,1.344-1.75,3.584-1.75S104.342,29.166,104.342,30.23Zm.826,0c0-1.512-1.568-2.464-4.438-2.464s-4.424.952-4.424,2.464,1.554,2.45,4.424,2.45S105.168,31.742,105.168,30.23Zm0,9.59v-.714H97.244v-2.87h-.812V39.82Zm1.442-5.04v-.7H94.85v.7Zm7.868,4.606h-2.716V37.468h2.716Zm.812.672V35.046h-.812V36.81h-2.716V35.046h-.8v5.012Zm5.922-.448a4.312,4.312,0,0,1-2.38-3.556V34.892h-.784v1.162a4.276,4.276,0,0,1-2.45,3.528l.49.616a5.115,5.115,0,0,0,2.338-2.66,5.92,5.92,0,0,0,2.3,2.646Zm-8.19-10.99a2.233,2.233,0,1,1,0,4.452,2.234,2.234,0,1,1,0-4.452Zm0-.714a2.966,2.966,0,1,0,0,5.908,3.024,3.024,0,0,0,3.22-2.982A2.981,2.981,0,0,0,113.022,27.906Zm7.112,6.412v-7.1h-.812v3.206h-2.464v.714h2.464v3.178Zm12.376-2.954c-2.044-.252-4.83-1.806-4.83-3.57v-.462h-.826v.462c0,1.75-2.6,3.36-4.788,3.6l.42.686c2.436-.448,4.326-1.918,4.774-3.052a7.353,7.353,0,0,0,4.844,3.038Zm-1.778,7.98H123.8V37.538h6.93Zm.812.714V35.144h-.812v1.68H123.8V35.13h-.812v4.928Zm1.6-6.1v-.7H121.38v.7Zm8.134,1.47a31.611,31.611,0,0,1-6.37.644V28.662h-.812v8.12c.364,0,.8,0,1.218-.014a37.613,37.613,0,0,0,6.062-.616Zm2.352-8.2h-.812V40.24h.812Zm2.842,8.96V29.264h5.1v-.7h-5.908v8.33h1.582a37.1,37.1,0,0,0,5.628-.462l-.1-.686a32.087,32.087,0,0,1-5.432.434Zm8.484-8.96h-.812V40.24h.812V33.226h2.226v-.7h-2.226ZM157.01,38.7h.966v-.924h-.966Z" transform="translate(40 2789)" fill="rgba(38,38,38,0.65)"/>
    <path id="패스_7753" data-name="패스 7753" d="M1.61-3.92H2.828V-5.152H1.61ZM17.346-4.1A5.1,5.1,0,0,1,14.07-8.484v-1.54h-.826V-8.47A5.5,5.5,0,0,1,9.912-3.71l.546.63a6.837,6.837,0,0,0,3.248-3.71,6.4,6.4,0,0,0,3.136,3.332Zm3.276,5.908V1.092H12.894V-2.1h-.8V1.806Zm-.28-3.136v-9.45H19.53v9.45Zm7.126-4.424a11.032,11.032,0,0,0,1.9-.154V-3.92H25.536v-2A9.825,9.825,0,0,0,27.468-5.754ZM31.122-.1c0,.98-1.414,1.568-3.654,1.568S23.842.882,23.842-.1,25.228-1.68,27.468-1.68,31.122-1.078,31.122-.1ZM31.08-8.106c0,1.036-1.372,1.652-3.612,1.652s-3.584-.616-3.584-1.652,1.344-1.666,3.584-1.666S31.08-9.142,31.08-8.106ZM31.948-.1c0-1.414-1.61-2.3-4.48-2.3S23-1.512,23-.1s1.6,2.282,4.466,2.282S31.948,1.316,31.948-.1Zm-.042-8.008c0-1.47-1.568-2.366-4.438-2.366s-4.424.9-4.424,2.366c0,.91.574,1.582,1.694,1.974V-3.92h-3.15v.714h11.76V-3.92H30.184V-6.132C31.3-6.524,31.906-7.2,31.906-8.106ZM44-3.136V-10.78H43.19v3.472H40.474v.7H43.19v3.472ZM33.88-9h3.01v.854c0,1.778-1.806,3.654-3.444,4.312l.448.6A6.641,6.641,0,0,0,37.24-6.622,6.593,6.593,0,0,0,40.46-3.57l.462-.686c-1.61-.518-3.248-2.142-3.248-3.878V-9h3.038v-.7H33.88ZM43.2,1.33H36.652V-1.722H43.2Zm.812.7V-2.422H35.84V2.03ZM56.322-5.7c-2.17-.224-4.788-2.24-4.788-3.892v-.546h-.826v.546c0,1.666-2.268,3.556-4.788,3.934l.448.728c2-.434,4.116-1.876,4.76-3.36a7.7,7.7,0,0,0,4.76,3.318Zm-4.8,7.952V-2.6h5.488v-.714H45.248V-2.6h5.46V2.254Zm15.9-8.162v-.7H59.556v-3.724h-.812v4.424ZM67.466,1.9V1.2h-7.91V-1.862h-.812V1.9Zm1.372-5.1v-.714H57.078v.714ZM82.726,2.24V-10.78h-.812v5.446H79.842v-5.1H79.03V1.54h.812V-4.634h2.072V2.24ZM72.352-9.1v.7h4.074a8.956,8.956,0,0,1-4.69,7.042L72.31-.7a9.991,9.991,0,0,0,4.984-8.4ZM87.29-9.212a2.412,2.412,0,0,1,2.548,2.464A2.417,2.417,0,0,1,87.29-4.3a2.49,2.49,0,0,1-2.562-2.464A2.478,2.478,0,0,1,87.29-9.212Zm0-.714a3.171,3.171,0,0,0-3.346,3.178A3.179,3.179,0,0,0,87.29-3.57a3.187,3.187,0,0,0,3.332-3.192A3.164,3.164,0,0,0,87.29-9.926ZM94.542,1.75v-.7H86.6V-2.17h-.812V1.75Zm-.35-3.08v-9.45H93.38v9.45Zm6.748-3.724H96.95v-2.3h3.99Zm.812.7v-5.782h-.812V-8.05H96.95v-2.086h-.812v5.782Zm4.27-6.426h-.812v1.96h-2.688v.7h2.688v1.778h-2.688v.7h2.688v1.834h.812Zm.546,12.922v-.7H98.6V-.294h7.434V-3.108H97.748v.7h7.49V-.994H97.8V2.142ZM117.726-4.1a5.1,5.1,0,0,1-3.276-4.382v-1.54h-.826V-8.47a5.5,5.5,0,0,1-3.332,4.76l.546.63a6.837,6.837,0,0,0,3.248-3.71,6.4,6.4,0,0,0,3.136,3.332ZM121,1.806V1.092h-7.728V-2.1h-.8V1.806Zm-.28-3.136v-9.45h-.812v9.45Zm7.126-4.424a11.032,11.032,0,0,0,1.9-.154V-3.92h-3.836v-2A9.825,9.825,0,0,0,127.848-5.754ZM131.5-.1c0,.98-1.414,1.568-3.654,1.568S124.222.882,124.222-.1s1.386-1.582,3.626-1.582S131.5-1.078,131.5-.1Zm-.042-8.008c0,1.036-1.372,1.652-3.612,1.652s-3.584-.616-3.584-1.652,1.344-1.666,3.584-1.666S131.46-9.142,131.46-8.106ZM132.328-.1c0-1.414-1.61-2.3-4.48-2.3s-4.466.882-4.466,2.3,1.6,2.282,4.466,2.282S132.328,1.316,132.328-.1Zm-.042-8.008c0-1.47-1.568-2.366-4.438-2.366s-4.424.9-4.424,2.366c0,.91.574,1.582,1.694,1.974V-3.92h-3.15v.714h11.76V-3.92h-3.164V-6.132C131.684-6.524,132.286-7.2,132.286-8.106Zm7.322,6.118c2.114,0,3.458.658,3.458,1.75S141.722,1.5,139.608,1.5s-3.43-.658-3.43-1.736S137.494-1.988,139.608-1.988Zm4.312,1.75c0-1.526-1.638-2.464-4.312-2.464s-4.284.938-4.284,2.464,1.61,2.464,4.284,2.464S143.92,1.274,143.92-.238Zm-2.884-4.326a4.981,4.981,0,0,1-3.276-4.3V-10.08h-.826v1.232A5.383,5.383,0,0,1,133.6-4.172l.546.63a6.713,6.713,0,0,0,3.248-3.64,6.258,6.258,0,0,0,3.136,3.262Zm4.732-1.792v-.7H143.71V-10.78H142.9V-2.8h.812V-6.356Zm1.288,4.48V-5.04h3.962v-.7h-3.962v-2.7h4.116v-.7h-4.928v7.994h.686a23.119,23.119,0,0,0,4.97-.392l-.1-.7a20.313,20.313,0,0,1-4.116.364Zm9.506,4.116V-10.78h-.812v5.362h-2.072V-10.43h-.812V1.526h.812V-4.7h2.072V2.24Zm11.844,0V-10.78h-.826V2.24Zm-6.048-7.462c0,2.3-.756,3.626-1.89,3.626s-1.9-1.33-1.9-3.626.756-3.626,1.9-3.626S162.358-7.518,162.358-5.222Zm-1.89-4.326c-1.722,0-2.73,1.582-2.73,4.326S158.746-.9,160.468-.9c1.624,0,2.618-1.442,2.7-3.962h1.89v6.44h.84v-12.11h-.84v4.97h-1.89C163.1-8.092,162.106-9.548,160.468-9.548Zm23.814,4.76v-.7h-2.016V-10.78h-.812V2.24h.812V-4.788Zm-3.6,2.38a14.725,14.725,0,0,1-3.178.322V-8.68h2.534v-.7h-3.346v8.064a18.024,18.024,0,0,0,4.088-.378Zm-4.55-.014a9.882,9.882,0,0,1-2.66.336V-8.68h2.352v-.7h-3.164v8.064a14.206,14.206,0,0,0,3.6-.392ZM193.9-10.78h-.812V2.24h.812V-4.718h2.226V-5.4H193.9ZM191.772-2.2a50.308,50.308,0,0,1-6.44.518V-5.054h4.914v-4.48h-5.712v.7h4.9v3.08H184.52v4.8c.868,0,1.708-.014,2.52-.056,1.82-.1,3.416-.252,4.83-.462Zm8.344.378V-8.736h5.1v-.7H199.3v8.33h1.582a37.1,37.1,0,0,0,5.628-.462l-.1-.686a32.087,32.087,0,0,1-5.432.434Zm8.484-8.96h-.812V2.24h.812V-4.774h2.226v-.7H208.6Zm12.32,4.97v-.7H212.9V-7.7h7.8v-2.576h-8.638v.7h7.826V-8.4h-7.8v2.59Zm.308,7.728v-.7H212.8V-.126h7.952V-2.688h-8.778v.7h7.966V-.826H212V1.918Zm1.05-5.824v-.658h-11.76v.658ZM236.292-5.7c-2.17-.224-4.788-2.24-4.788-3.892v-.546h-.826v.546c0,1.666-2.268,3.556-4.788,3.934l.448.728c2-.434,4.116-1.876,4.76-3.36a7.7,7.7,0,0,0,4.76,3.318Zm-4.8,7.952V-2.6h5.488v-.714h-11.76V-2.6h5.46V2.254ZM246.162.868a2.989,2.989,0,0,1-2-2.856V-2.73h-.812v.854a4.352,4.352,0,0,1-2.744,3.57l.5.574A5.158,5.158,0,0,0,243.754-.56a3.918,3.918,0,0,0,1.876,1.988Zm5.516.812a4.119,4.119,0,0,1-2.646-3.458v-.98h-.812v.994a4.45,4.45,0,0,1-2.688,3.626l.518.546a5.5,5.5,0,0,0,2.576-2.772,5.937,5.937,0,0,0,2.534,2.618Zm-8.12-11a2.27,2.27,0,0,1,2.436,2.31,2.274,2.274,0,0,1-2.436,2.3,2.345,2.345,0,0,1-2.45-2.31A2.334,2.334,0,0,1,243.558-9.324Zm0-.714A3.043,3.043,0,0,0,240.3-7.014a3.063,3.063,0,0,0,3.262,3.038,3.07,3.07,0,0,0,3.248-3.052A3.037,3.037,0,0,0,243.558-10.038Zm6.944,6.8V-10.78h-.812v7.546Zm12.376-3.4c-2.044-.252-4.83-1.806-4.83-3.57v-.462h-.826v.462c0,1.75-2.6,3.36-4.788,3.6l.42.686c2.436-.448,4.326-1.918,4.774-3.052a7.353,7.353,0,0,0,4.844,3.038ZM261.1,1.344h-6.93V-.462h6.93Zm.812.714V-2.856H261.1v1.68h-6.93V-2.87h-.812V2.058Zm1.6-6.1v-.7h-11.76v.7Zm8.134,1.47a31.611,31.611,0,0,1-6.37.644V-9.338h-.812v8.12c.364,0,.8,0,1.218-.014a37.612,37.612,0,0,0,6.062-.616Zm2.352-8.2h-.812V2.24h.812Zm2.842,8.96V-8.736h5.1v-.7h-5.908v8.33h1.582a37.1,37.1,0,0,0,5.628-.462l-.1-.686a32.087,32.087,0,0,1-5.432.434Zm8.484-8.96h-.812V2.24h.812V-4.774h2.226v-.7H285.32ZM287.378.7h.966V-.224h-.966Z" transform="translate(40 2857)" fill="rgba(38,38,38,0.65)"/>
    <path id="패스_7754" data-name="패스 7754" d="M1.61-3.92H2.828V-5.152H1.61Zm17.5.1H12.166V-6.65H19.11Zm.812.7V-9.744H19.11V-7.35H12.166V-9.744h-.812v6.622h3.864V-.154H9.758v.7h11.76v-.7H16.03V-3.122Zm7.49-1.932c0,.882-.924,1.4-2.086,1.4-1.134,0-2.058-.518-2.058-1.4,0-.84.91-1.386,2.058-1.386S27.412-5.894,27.412-5.054Zm.812,0c0-1.288-1.232-2.086-2.9-2.086s-2.87.8-2.87,2.086,1.232,2.1,2.87,2.1C26.992-2.954,28.224-3.794,28.224-5.054Zm.854-2.828v-.7H21.672v.7ZM27.216-9.674v-.7H23.534v.7Zm4.956,6.818V-10.78H31.36v4.2H28.8v.7H31.36v3.024Zm-.8,4.186h-6.72V-1.4h6.72Zm.812.7V-2.1H23.842V2.03ZM46.872-3.136V-10.78H46.06v3.472H43.344v.7H46.06v3.472ZM36.75-9h3.01v.854c0,1.778-1.806,3.654-3.444,4.312l.448.6A6.641,6.641,0,0,0,40.11-6.622,6.593,6.593,0,0,0,43.33-3.57l.462-.686c-1.61-.518-3.248-2.142-3.248-3.878V-9h3.038v-.7H36.75ZM46.074,1.33H39.522V-1.722h6.552Zm.812.7V-2.422H38.71V2.03ZM59.192-5.7C57.022-5.922,54.4-7.938,54.4-9.59v-.546h-.826v.546c0,1.666-2.268,3.556-4.788,3.934l.448.728c2-.434,4.116-1.876,4.76-3.36a7.7,7.7,0,0,0,4.76,3.318Zm-4.8,7.952V-2.6h5.488v-.714H48.118V-2.6h5.46V2.254ZM70.406-6.16a37.05,37.05,0,0,1-6.244.6v-4.536H63.35V-4.83c.336,0,.7,0,1.05-.014a44.023,44.023,0,0,0,6.132-.574Zm1.512,7.518H65.492V-.588h6.426Zm.812.686V-3.234h-.812v1.946H65.492v-1.9H64.68V2.044ZM74.788-7v-.7H72.73v-3.08h-.812v6.734h.812V-7ZM80.92,2.254V-2.268h5.488v-.714H74.648v.714h5.46V2.254ZM84.014-5.4H77.056V-7.546h6.958Zm.812.7V-10.22h-.812v1.974H77.056V-10.22h-.812V-4.7Zm7.7,2.226a22.15,22.15,0,0,1-4.452.448v-7.1h-.812v7.854c.462,0,.882,0,1.316-.028a22.967,22.967,0,0,0,4.1-.448ZM97.412,2.24V-10.78h-.826v5.432H94.43V-10.43h-.812V1.526h.812V-4.648h2.156V2.24ZM101.78-9.324a2.246,2.246,0,0,1,2.408,2.31,2.251,2.251,0,0,1-2.408,2.3,2.321,2.321,0,0,1-2.422-2.31A2.31,2.31,0,0,1,101.78-9.324Zm0-.714a3.02,3.02,0,0,0-3.234,3.024,3.039,3.039,0,0,0,3.234,3.038A3.046,3.046,0,0,0,105-7.028,3.013,3.013,0,0,0,101.78-10.038ZM100.3-2.366v.714h7.784V2.254h.812v-4.62Zm5.082-5.908h2.7V-5.88h-2.7v.672h2.7V-3.08h.812v-7.7h-.812v1.834h-2.7Zm14.252.5c0,1.064-1.372,1.736-3.612,1.736s-3.584-.672-3.584-1.736,1.344-1.75,3.584-1.75S119.63-8.834,119.63-7.77Zm.826,0c0-1.512-1.568-2.464-4.438-2.464s-4.424.952-4.424,2.464,1.554,2.45,4.424,2.45S120.456-6.258,120.456-7.77Zm0,9.59V1.106h-7.924v-2.87h-.812V1.82ZM121.9-3.22v-.7h-11.76v.7Zm8.974-.028a2,2,0,0,1-2.156,1.918,1.992,1.992,0,0,1-2.156-1.918,2,2,0,0,1,2.156-1.932A2,2,0,0,1,130.872-3.248Zm.812,0a2.713,2.713,0,0,0-2.968-2.632,2.718,2.718,0,0,0-2.982,2.632A2.724,2.724,0,0,0,128.716-.63,2.7,2.7,0,0,0,131.684-3.248ZM132.44-6.9v-.7h-7.63v.7Zm-2.03-2.17v-.714H126.7v.714Zm6.552,4.578V-5.18H134.75v-5.6h-.812V2.24h.812V-4.494Zm5.978,6.552V-2.254h5.488v-.7h-11.76v.7h5.46V2.058Zm4.326-6.622v-.714h-8.274V-7.1h7.924v-3.08h-8.778v.714H146.1v1.652H138.18v3.248Zm12.18,6.8V-10.78h-.826V2.24ZM153.4-5.222c0,2.3-.756,3.626-1.89,3.626s-1.9-1.33-1.9-3.626.756-3.626,1.9-3.626S153.4-7.518,153.4-5.222Zm-1.89-4.326c-1.722,0-2.73,1.582-2.73,4.326S149.786-.9,151.508-.9c1.624,0,2.618-1.442,2.7-3.962h1.89v6.44h.84v-12.11h-.84v4.97h-1.89C154.14-8.092,153.146-9.548,151.508-9.548Zm17.444,5.04c0,.98-.966,1.554-2.128,1.554-1.134,0-2.1-.574-2.1-1.554,0-.938.952-1.54,2.1-1.54S168.952-5.446,168.952-4.508Zm.812,0c0-1.386-1.274-2.24-2.94-2.24s-2.912.854-2.912,2.24,1.274,2.254,2.912,2.254C168.49-2.254,169.764-3.15,169.764-4.508Zm.812-3.01v-.7H163.17v.7Zm-1.862-1.876v-.7h-3.682v.7Zm5,11.144V1.036h-7.77V-1.456h-.812V1.75Zm1.456-7.14v-.7H173.11v-4.69H172.3v9.492h.812v-4.1Zm8.26,1.232h-4.046V-6.734h4.046Zm.812.7V-9.842h-.812v2.408h-4.046V-9.842h-.812v6.384Zm4.592,5.208v-.7h-7.854V-2.128h-.8V1.75ZM187.67-6.2v4.928h.812V-10.78h-.812V-6.9h-2.646v.7Zm12.572,7.966V1.05h-7.77V-2.17h-.812V1.764Zm1.456-7.9v-.686H199.64V-10.78h-.812v9.45h.812v-4.8Zm-6.314,1.764H191.1V-8.792h4.284Zm.812.7V-9.506h-5.908v5.838Zm19.18,5.908V-10.78h-.812V2.24Zm-2.576-.7V-10.444h-.812v4.48h-2.226v.7h2.226v6.8Zm-1.806-3.01a6.213,6.213,0,0,1-2.842-5.11V-8.456H210.7v-.7h-6.034v.7h2.66v1.918a6.669,6.669,0,0,1-3.024,5.39l.588.6a7.22,7.22,0,0,0,2.856-4.13,7.046,7.046,0,0,0,2.688,3.808Zm13.188-8.4v-.7h-4.074v.7ZM227.3-5.978c-1.862-.238-4.214-.91-4.676-2.212h4.06v-.7h-9.114v.7h4.088c-.42,1.3-2.562,1.988-4.62,2.24l.378.672c1.974-.294,4.1-.98,4.718-2.254.644,1.218,2.926,1.946,4.788,2.226Zm-.322,8.05v-.7H218.6V-.084h7.84v-2.59H222.53v-1.26h5.488v-.7h-11.76v.7h5.46v1.26h-3.976v.7h7.9v1.19h-7.854V2.072Zm6.9-7.6c0,.77-.924,1.274-2.114,1.274-1.162,0-2.086-.5-2.086-1.274,0-.728.91-1.26,2.086-1.26S233.884-6.258,233.884-5.53Zm.84,0c0-1.19-1.26-1.932-2.954-1.932s-2.926.742-2.926,1.932,1.26,1.946,2.926,1.946C233.464-3.584,234.724-4.368,234.724-5.53Zm.77-2.534v-.7h-7.406v.7ZM233.6-9.786v-.7h-3.682v.7Zm4.942,11.914v-.7H230.79V.028h7.224V-2.66H229.95v.7h7.266V-.672h-7.238v2.8Zm1.512-8.484v-.7h-2.044V-10.78H237.2v7.406h.812V-6.356Zm13.8.658c-2.17-.224-4.788-2.24-4.788-3.892v-.546h-.826v.546c0,1.666-2.268,3.556-4.788,3.934l.448.728c2-.434,4.116-1.876,4.76-3.36a7.7,7.7,0,0,0,4.76,3.318Zm-4.8,7.952V-2.6h5.488v-.714h-11.76V-2.6h5.46V2.254ZM263.732.868a2.989,2.989,0,0,1-2-2.856V-2.73h-.812v.854a4.352,4.352,0,0,1-2.744,3.57l.5.574A5.158,5.158,0,0,0,261.324-.56,3.918,3.918,0,0,0,263.2,1.428Zm5.516.812A4.119,4.119,0,0,1,266.6-1.778v-.98h-.812v.994A4.45,4.45,0,0,1,263.1,1.862l.518.546A5.5,5.5,0,0,0,266.2-.364a5.937,5.937,0,0,0,2.534,2.618Zm-8.12-11a2.27,2.27,0,0,1,2.436,2.31,2.274,2.274,0,0,1-2.436,2.3,2.345,2.345,0,0,1-2.45-2.31A2.334,2.334,0,0,1,261.128-9.324Zm0-.714a3.043,3.043,0,0,0-3.262,3.024,3.063,3.063,0,0,0,3.262,3.038,3.07,3.07,0,0,0,3.248-3.052A3.037,3.037,0,0,0,261.128-10.038Zm6.944,6.8V-10.78h-.812v7.546Zm12.376-3.4c-2.044-.252-4.83-1.806-4.83-3.57v-.462h-.826v.462c0,1.75-2.6,3.36-4.788,3.6l.42.686c2.436-.448,4.326-1.918,4.774-3.052a7.353,7.353,0,0,0,4.844,3.038Zm-1.778,7.98h-6.93V-.462h6.93Zm.812.714V-2.856h-.812v1.68h-6.93V-2.87h-.812V2.058Zm1.6-6.1v-.7h-11.76v.7Zm8.134,1.47a31.611,31.611,0,0,1-6.37.644V-9.338h-.812v8.12c.364,0,.8,0,1.218-.014a37.612,37.612,0,0,0,6.062-.616Zm2.352-8.2h-.812V2.24h.812Zm2.842,8.96V-8.736h5.1v-.7h-5.908v8.33h1.582a37.1,37.1,0,0,0,5.628-.462l-.1-.686a32.087,32.087,0,0,1-5.432.434Zm8.484-8.96h-.812V2.24h.812V-4.774h2.226v-.7H302.89ZM304.948.7h.966V-.224h-.966Z" transform="translate(40 2886)" fill="rgba(38,38,38,0.65)"/>
    <path id="패스_7756" data-name="패스 7756" d="M1.61-3.92H2.828V-5.152H1.61Zm20.314-.742v-.7H19.67V-10.78h-.812V2.24h.812v-6.9ZM17.318-1.568a6.79,6.79,0,0,1-3.444-5.376V-8.666h3.094v-.7h-6.93v.7h3.01V-6.93c0,2.128-1.736,4.606-3.514,5.712l.588.672a9.56,9.56,0,0,0,3.332-4.508A9.127,9.127,0,0,0,16.772-.882ZM31.08,0c0,.98-1.4,1.526-3.612,1.526S23.884.98,23.884,0s1.372-1.526,3.584-1.526S31.08-.98,31.08,0Zm.77-5.978v-.7H23.94V-9.464h7.826v-.7H23.128v4.186h3.948v1.834H21.588v.714h11.76v-.714H27.874V-5.978ZM31.948,0c0-1.414-1.61-2.24-4.48-2.24S23-1.414,23,0s1.6,2.24,4.466,2.24S31.948,1.414,31.948,0ZM39.1-9.016v-.742H35.266v.742Zm6.44,4.536v-.7H43.33v-5.558h-.812V2.282h.812V-4.48ZM40.866-1.148a5.49,5.49,0,0,1-3.374-4.578v-1.05h3.164v-.7H33.768v.7H36.68v1.064A5.98,5.98,0,0,1,33.292-.756l.56.63A7.255,7.255,0,0,0,37.1-4.06,7.2,7.2,0,0,0,40.334-.434Zm16.6-2.674H50.526V-6.65H57.47Zm.812.7V-9.744H57.47V-7.35H50.526V-9.744h-.812v6.622h3.864V-.154h-5.46v.7h11.76v-.7H54.39V-3.122Zm7.49-1.932c0,.882-.924,1.4-2.086,1.4-1.134,0-2.058-.518-2.058-1.4,0-.84.91-1.386,2.058-1.386S65.772-5.894,65.772-5.054Zm.812,0c0-1.288-1.232-2.086-2.9-2.086s-2.87.8-2.87,2.086,1.232,2.1,2.87,2.1C65.352-2.954,66.584-3.794,66.584-5.054Zm.854-2.828v-.7H60.032v.7ZM65.576-9.674v-.7H61.894v.7Zm4.956,6.818V-10.78H69.72v4.2H67.158v.7H69.72v3.024Zm-.8,4.186h-6.72V-1.4h6.72Zm.812.7V-2.1H62.2V2.03ZM84.14-.1c0,.98-1.4,1.582-3.612,1.582S76.944.882,76.944-.1s1.372-1.61,3.584-1.61S84.14-1.078,84.14-.1Zm.868,0c0-1.414-1.61-2.324-4.48-2.324s-4.466.91-4.466,2.324,1.6,2.3,4.466,2.3S85.008,1.316,85.008-.1Zm-.1-5.824v-.7H77V-9.464h7.826v-.7H76.188v4.242Zm1.5,2.282v-.714H74.648v.714Zm14.07,5.782v-.7H92.512V-.364h7.434V-3.332h-8.3v.7h7.5v1.568H91.714V2.142Zm-7.434-11.7a2.172,2.172,0,0,1,2.408,2.128A2.178,2.178,0,0,1,93.044-5.32a2.249,2.249,0,0,1-2.422-2.128A2.238,2.238,0,0,1,93.044-9.562Zm0-.714A2.947,2.947,0,0,0,89.81-7.434a2.965,2.965,0,0,0,3.234,2.856,2.972,2.972,0,0,0,3.22-2.87A2.94,2.94,0,0,0,93.044-10.276Zm6.888,6.258V-10.78H99.12v6.762Zm7.518,6.272V-2.268h5.488v-.714h-11.76v.714h5.46V2.254ZM110.544-5.4h-6.958V-7.546h6.958Zm.812.7V-10.22h-.812v1.974h-6.958V-10.22h-.812V-4.7Zm13.874.882h-6.944V-6.65h6.944Zm.812.7V-9.744h-.812V-7.35h-6.944V-9.744h-.812v6.622h3.864V-.154h-5.46v.7h11.76v-.7H122.15V-3.122Zm7.49-1.932c0,.882-.924,1.4-2.086,1.4-1.134,0-2.058-.518-2.058-1.4,0-.84.91-1.386,2.058-1.386S133.532-5.894,133.532-5.054Zm.812,0c0-1.288-1.232-2.086-2.9-2.086s-2.87.8-2.87,2.086,1.232,2.1,2.87,2.1C133.112-2.954,134.344-3.794,134.344-5.054Zm.854-2.828v-.7h-7.406v.7Zm-1.862-1.792v-.7h-3.682v.7Zm4.956,6.818V-10.78h-.812v4.2h-2.562v.7h2.562v3.024Zm-.8,4.186h-6.72V-1.4h6.72Zm.812.7V-2.1h-8.344V2.03Zm9.912-4.018c2.114,0,3.458.658,3.458,1.75S150.332,1.5,148.218,1.5s-3.43-.658-3.43-1.736S146.1-1.988,148.218-1.988Zm4.312,1.75c0-1.526-1.638-2.464-4.312-2.464s-4.284.938-4.284,2.464,1.61,2.464,4.284,2.464S152.53,1.274,152.53-.238Zm-2.884-4.326a4.981,4.981,0,0,1-3.276-4.3V-10.08h-.826v1.232a5.383,5.383,0,0,1-3.332,4.676l.546.63a6.713,6.713,0,0,0,3.248-3.64,6.258,6.258,0,0,0,3.136,3.262Zm4.732-1.792v-.7H152.32V-10.78h-.812V-2.8h.812V-6.356Zm10.4-3.15v-.7H155.4v.7Zm0,3.808v-.714h-2.226l.42-2.45-.9-.07-.322,2.52H158.4L158.1-8.9l-.9.1.42,2.394H155.4V-5.7Zm-1.12,7.042h-7.084V-1.3h7.084Zm.812.7V-2H160.51V-3.71H166v-.7h-11.76v.7h5.46V-2h-3.934V2.044ZM175.56-7.77c0,1.064-1.372,1.736-3.612,1.736s-3.584-.672-3.584-1.736,1.344-1.75,3.584-1.75S175.56-8.834,175.56-7.77Zm.826,0c0-1.512-1.568-2.464-4.438-2.464s-4.424.952-4.424,2.464,1.554,2.45,4.424,2.45S176.386-6.258,176.386-7.77Zm0,9.59V1.106h-7.924v-2.87h-.812V1.82Zm1.442-5.04v-.7h-11.76v.7ZM188.356-4.1a5.1,5.1,0,0,1-3.276-4.382v-1.54h-.826V-8.47a5.5,5.5,0,0,1-3.332,4.76l.546.63a6.837,6.837,0,0,0,3.248-3.71,6.4,6.4,0,0,0,3.136,3.332Zm3.276,5.908V1.092H183.9V-2.1h-.8V1.806Zm-.28-3.136v-9.45h-.812v9.45Zm7.126-4.424a11.032,11.032,0,0,0,1.9-.154V-3.92h-3.836v-2A9.825,9.825,0,0,0,198.478-5.754ZM202.132-.1c0,.98-1.414,1.568-3.654,1.568S194.852.882,194.852-.1s1.386-1.582,3.626-1.582S202.132-1.078,202.132-.1Zm-.042-8.008c0,1.036-1.372,1.652-3.612,1.652s-3.584-.616-3.584-1.652,1.344-1.666,3.584-1.666S202.09-9.142,202.09-8.106ZM202.958-.1c0-1.414-1.61-2.3-4.48-2.3s-4.466.882-4.466,2.3,1.6,2.282,4.466,2.282S202.958,1.316,202.958-.1Zm-.042-8.008c0-1.47-1.568-2.366-4.438-2.366s-4.424.9-4.424,2.366c0,.91.574,1.582,1.694,1.974V-3.92H192.6v.714h11.76V-3.92h-3.164V-6.132C202.314-6.524,202.916-7.2,202.916-8.106Zm14.966,4.97V-10.78h-.812v3.472h-2.716v.7h2.716v3.472ZM207.76-9h3.01v.854c0,1.778-1.806,3.654-3.444,4.312l.448.6a6.641,6.641,0,0,0,3.346-3.388,6.593,6.593,0,0,0,3.22,3.052l.462-.686c-1.61-.518-3.248-2.142-3.248-3.878V-9h3.038v-.7H207.76ZM217.084,1.33h-6.552V-1.722h6.552Zm.812.7V-2.422H209.72V2.03ZM230.2-5.7c-2.17-.224-4.788-2.24-4.788-3.892v-.546h-.826v.546c0,1.666-2.268,3.556-4.788,3.934l.448.728c2-.434,4.116-1.876,4.76-3.36a7.7,7.7,0,0,0,4.76,3.318Zm-4.8,7.952V-2.6h5.488v-.714h-11.76V-2.6h5.46V2.254Zm16.506-.014V-10.78h-.826V2.24Zm-6.048-7.462c0,2.3-.756,3.626-1.89,3.626s-1.9-1.33-1.9-3.626.756-3.626,1.9-3.626S235.858-7.518,235.858-5.222Zm-1.89-4.326c-1.722,0-2.73,1.582-2.73,4.326S232.246-.9,233.968-.9c1.624,0,2.618-1.442,2.7-3.962h1.89v6.44h.84v-12.11h-.84v4.97h-1.89C236.6-8.092,235.606-9.548,233.968-9.548ZM17.612,14.9H13.44V12.266h4.172Zm.812.7V9.158h-.812v2.408H13.44V9.158h-.812V15.6Zm4.144,5.166V20.05H14.7V16.83h-.812v3.934Zm1.442-7.826v-.686H21.952V8.22H21.14v9.464h.812V12.938Zm6.132,4.214c2.226,0,3.542.658,3.542,1.68s-1.316,1.68-3.542,1.68-3.556-.658-3.556-1.68S27.916,17.152,30.142,17.152Zm4.41,1.68c0-1.456-1.568-2.394-4.41-2.394s-4.424.938-4.424,2.394,1.568,2.394,4.424,2.394S34.552,20.288,34.552,18.832Zm-7.21-9.156a2.246,2.246,0,0,1,2.408,2.31,2.251,2.251,0,0,1-2.408,2.3,2.306,2.306,0,1,1,0-4.606Zm0-.714a3.037,3.037,0,1,0,0,6.062,3.046,3.046,0,0,0,3.22-3.052A3.013,3.013,0,0,0,27.342,8.962Zm3.6,4.914h2.7v2.45h.812V8.22h-.812v1.82h-2.7v.686h2.7V13.19h-2.7ZM46.228,21.24V8.22h-.812V21.24ZM43.4,14.6v-.7H37.632v-3.64h5.656v-.7H36.82V14.6h2.716v3.08c-1.526.042-2.926.042-3.766.042l.14.784c.742,0,2.716-.042,4.214-.126,1.582-.084,3.29-.238,4.186-.336l-.056-.7c-.742.1-2.366.238-3.906.308V14.6ZM57.3,8.22V21.24h.812V8.22Zm-1.82,9.142a6.771,6.771,0,0,1-3.472-5.348V10.348h3.178v-.7h-7.2v.7h3.192v1.694a7.655,7.655,0,0,1-3.5,5.7l.588.672a9.669,9.669,0,0,0,3.318-4.564,9.258,9.258,0,0,0,3.346,4.2Zm10.22-8.4a2.984,2.984,0,1,0,3.22,2.954A3,3,0,0,0,65.7,8.962Zm0,.742a2.224,2.224,0,1,1,0,4.438,2.225,2.225,0,1,1,0-4.438Zm7.028,9.9c0-1.022-1.092-1.638-2.45-1.638s-2.436.616-2.436,1.638,1.092,1.652,2.436,1.652S72.73,20.61,72.73,19.6ZM74.2,12.07v-.7H72.142V8.22H71.33v6.342h.812V12.07Zm-7.07,7.392a8.422,8.422,0,0,1-2.87.49V16.228h-.8v4.48a11.412,11.412,0,0,0,3.794-.518Zm4.788.14c0,.616-.77.98-1.638.98-.84,0-1.624-.364-1.624-.98s.784-.952,1.624-.952C71.148,18.65,71.918,18.986,71.918,19.6Zm1.68-2.2v-.7H67v.7ZM71.876,15.92v-.7H68.824v.7Zm11.676-5.11c0,.952-1.372,1.526-3.612,1.526s-3.584-.574-3.584-1.526S77.7,9.27,79.94,9.27,83.552,9.858,83.552,10.81Zm.826,0c0-1.414-1.568-2.24-4.438-2.24s-4.424.826-4.424,2.24,1.554,2.226,4.424,2.226S84.378,12.224,84.378,10.81Zm.35,10.262v-.7h-8.4V18.86H84.21v-2.8H75.488v.7h7.924v1.4h-7.9v2.912Zm1.092-6.384v-.672H74.06v.672ZM99.834,13.3c-2.17-.224-4.788-2.24-4.788-3.892V8.864H94.22V9.41c0,1.666-2.268,3.556-4.788,3.934l.448.728c2-.434,4.116-1.876,4.76-3.36A7.7,7.7,0,0,0,99.4,14.03Zm-4.8,7.952V16.4h5.488v-.714H88.76V16.4h5.46v4.858ZM109.7,19.868a2.989,2.989,0,0,1-2-2.856V16.27h-.812v.854a4.352,4.352,0,0,1-2.744,3.57l.5.574A5.158,5.158,0,0,0,107.3,18.44a3.918,3.918,0,0,0,1.876,1.988Zm5.516.812a4.119,4.119,0,0,1-2.646-3.458v-.98h-.812v.994a4.45,4.45,0,0,1-2.688,3.626l.518.546a5.5,5.5,0,0,0,2.576-2.772,5.937,5.937,0,0,0,2.534,2.618Zm-8.12-11a2.307,2.307,0,1,1,0,4.606,2.307,2.307,0,1,1,0-4.606Zm0-.714a3.038,3.038,0,1,0,3.248,3.01A3.043,3.043,0,0,0,107.1,8.962Zm6.944,6.8V8.22h-.812v7.546Zm12.376-3.4c-2.044-.252-4.83-1.806-4.83-3.57V8.332h-.826v.462c0,1.75-2.6,3.36-4.788,3.6l.42.686c2.436-.448,4.326-1.918,4.774-3.052a7.353,7.353,0,0,0,4.844,3.038Zm-1.778,7.98h-6.93V18.538h6.93Zm.812.714V16.144h-.812v1.68h-6.93V16.13H116.9v4.928Zm1.6-6.1v-.7H115.29v.7Zm8.134,1.47a31.611,31.611,0,0,1-6.37.644V9.662H128v8.12c.364,0,.8,0,1.218-.014a37.612,37.612,0,0,0,6.062-.616Zm2.352-8.2h-.812V21.24h.812Zm2.842,8.96V10.264h5.1v-.7h-5.908v8.33h1.582a37.1,37.1,0,0,0,5.628-.462l-.1-.686a32.087,32.087,0,0,1-5.432.434Zm8.484-8.96h-.812V21.24h.812V14.226h2.226v-.7h-2.226ZM150.92,19.7h.966v-.924h-.966Z" transform="translate(40 2963)" fill="rgba(38,38,38,0.65)"/>
    <path id="패스_7757" data-name="패스 7757" d="M1.61-3.92H2.828V-5.152H1.61ZM20.888,2.142v-.7H12.922V-.364h7.434V-3.332h-8.3v.7h7.5v1.568H12.124V2.142Zm-7.434-11.7a2.172,2.172,0,0,1,2.408,2.128A2.178,2.178,0,0,1,13.454-5.32a2.249,2.249,0,0,1-2.422-2.128A2.238,2.238,0,0,1,13.454-9.562Zm0-.714A2.947,2.947,0,0,0,10.22-7.434a2.966,2.966,0,0,0,3.234,2.856,2.972,2.972,0,0,0,3.22-2.87A2.94,2.94,0,0,0,13.454-10.276Zm6.888,6.258V-10.78H19.53v6.762ZM27.16-4.1H22.988V-6.734H27.16Zm.812.7v-6.44H27.16v2.408H22.988V-9.842h-.812V-3.4Zm4.144,5.166V1.05H24.248V-2.17h-.812V1.764Zm1.442-7.826v-.686H31.5V-10.78h-.812v9.464H31.5V-6.062Zm10.318-.1a37.05,37.05,0,0,1-6.244.6v-4.536H36.82V-4.83c.336,0,.7,0,1.05-.014A44.023,44.023,0,0,0,44-5.418Zm1.512,7.518H38.962V-.588h6.426Zm.812.686V-3.234h-.812v1.946H38.962v-1.9H38.15V2.044ZM48.258-7v-.7H46.2v-3.08h-.812v6.734H46.2V-7ZM54.39,2.254V-2.268h5.488v-.714H48.118v.714h5.46V2.254ZM57.484-5.4H50.526V-7.546h6.958Zm.812.7V-10.22h-.812v1.974H50.526V-10.22h-.812V-4.7ZM66-2.478a22.15,22.15,0,0,1-4.452.448v-7.1h-.812v7.854c.462,0,.882,0,1.316-.028a22.967,22.967,0,0,0,4.1-.448ZM70.882,2.24V-10.78h-.826v5.432H67.9V-10.43h-.812V1.526H67.9V-4.648h2.156V2.24ZM75.25-9.324a2.246,2.246,0,0,1,2.408,2.31,2.251,2.251,0,0,1-2.408,2.3,2.321,2.321,0,0,1-2.422-2.31A2.31,2.31,0,0,1,75.25-9.324Zm0-.714a3.02,3.02,0,0,0-3.234,3.024A3.039,3.039,0,0,0,75.25-3.976a3.046,3.046,0,0,0,3.22-3.052A3.013,3.013,0,0,0,75.25-10.038ZM73.766-2.366v.714H81.55V2.254h.812v-4.62Zm5.082-5.908h2.7V-5.88h-2.7v.672h2.7V-3.08h.812v-7.7H81.55v1.834h-2.7Zm18.2-1.134v-.7H87.626v.7h4.312c-.084,1.75-2.66,2.982-4.774,3.234l.392.7c2.422-.434,4.34-1.638,4.8-2.772.574,1.148,2.492,2.352,4.858,2.8l.392-.728c-1.974-.238-4.732-1.47-4.83-3.234ZM96.012-.1c0,.98-1.414,1.568-3.654,1.568S88.732.882,88.732-.1,90.118-1.68,92.358-1.68,96.012-1.078,96.012-.1Zm.826,0c0-1.344-1.47-2.212-4.088-2.282v-1.4h5.488v-.714H86.478v.714h5.46v1.4c-2.6.084-4.046.938-4.046,2.282,0,1.414,1.6,2.282,4.466,2.282S96.838,1.316,96.838-.1Zm5.81-8.666h-.63a1.288,1.288,0,0,1,.84-1.372v-.5A1.82,1.82,0,0,0,101.5-8.806v1.218h1.148Zm1.68,6.8v.714h7.952v3.6h.812V-1.96h-3.878V-4.718h5.474v-.714h-2.03a21.591,21.591,0,0,0,.42-4.634h-8.554v.7h7.7a20.374,20.374,0,0,1-.392,3.934h-8.9v.714H108.4V-1.96Zm16.982.252a6.867,6.867,0,0,1-2.87-5.39V-9.422h-.826V-7.07a6.9,6.9,0,0,1-2.968,5.656l.588.658a7.5,7.5,0,0,0,2.814-4.34,8.223,8.223,0,0,0,2.716,4.018Zm1.82,3.248V-10.444h-.812V-5.95H119.91v.7h2.408V1.54Zm2.576.7V-10.78h-.812V2.24Zm6.51-11.872v-.714h-3.5v.714Zm4.956-1.148h-.812v4.242H133.7v.714h2.66v3.136h.812Zm-3.01,6.762c-1.526-.336-3.29-1.9-3.29-3.332v-.21h2.954v-.7h-6.748v.7h2.982v.21c0,1.484-1.554,3.108-3.4,3.71l.462.658a5.764,5.764,0,0,0,3.346-3.108,6,6,0,0,0,3.22,2.744Zm-1.288,2.2c2.226,0,3.542.644,3.542,1.666s-1.316,1.666-3.542,1.666-3.556-.644-3.556-1.666S130.648-1.82,132.874-1.82Zm4.41,1.666c0-1.456-1.568-2.38-4.41-2.38s-4.424.924-4.424,2.38,1.568,2.38,4.424,2.38S137.284,1.3,137.284-.154Zm15.764.7v-.7H147.56V-3.528h-.812V-.154h-5.46v.7Zm-.532-4.83c-2.03-.5-4.942-2.66-4.942-4.7v-.756h-.826v.756c0,2.03-2.772,4.214-4.9,4.69l.462.644c2.562-.77,4.508-2.786,4.844-3.906.406,1.134,2.464,3.136,4.872,3.948ZM163.38-6.048v-.7h-7.91V-9.506H163.3v-.7h-8.638v4.158Zm1.5,2.436v-.7h-11.76v.7Zm-10.444,1.75v.7h8.12V2.352h.812V-1.862ZM178.08,2.044V-2.548h-8.75V2.044Zm-.812-.714h-7.126V-1.834h7.126Zm-7.854-11.41v.714h7.7a23.242,23.242,0,0,1-.406,4.284h-8.89v.714h11.76v-.714h-2.044a25.367,25.367,0,0,0,.434-5ZM190.6,2.24V-2.408h-8.652v.714h7.826V2.24Zm-.028-5.348V-10.78h-.812v3.444h-1.918v-3.206h-.812v7.336h.812v-3.43h1.918v3.528Zm-5.614-3.948a2.1,2.1,0,0,1-2.128,2.268,2.123,2.123,0,0,1-2.142-2.3,2.088,2.088,0,0,1,2.142-2.226A2.085,2.085,0,0,1,184.954-7.056Zm.812-.028a2.815,2.815,0,0,0-2.94-2.94,2.826,2.826,0,0,0-2.954,2.94,2.883,2.883,0,0,0,2.954,3.01A2.872,2.872,0,0,0,185.766-7.084Zm20.342,3.472v-.714h-11.76v.714Zm-1.19-5.754v-.7H195.5v.7h4.312c-.14,1.708-2.688,2.926-4.774,3.178l.392.7c2.422-.448,4.34-1.652,4.8-2.772.574,1.134,2.492,2.324,4.858,2.8l.392-.728c-1.946-.238-4.676-1.442-4.83-3.178Zm-1.036,9.31c0,.98-1.414,1.568-3.654,1.568S196.6.924,196.6-.056s1.386-1.582,3.626-1.582S203.882-1.036,203.882-.056Zm.826,0c0-1.414-1.61-2.3-4.48-2.3s-4.466.882-4.466,2.3,1.6,2.282,4.466,2.282S204.708,1.358,204.708-.056ZM212.492-1.9c2.156,0,3.542.658,3.542,1.722s-1.386,1.708-3.542,1.708-3.514-.658-3.514-1.708S210.336-1.9,212.492-1.9Zm4.4,1.722c0-1.512-1.666-2.436-4.4-2.436s-4.368.924-4.368,2.436,1.638,2.436,4.368,2.436S216.888,1.316,216.888-.182ZM211.834-4.62h-4.158V-8.96h4.158Zm.8.714V-9.688h-5.768v5.782Zm.56-3.92h2.758V-5.81h-2.758v.7h2.758v2.422h.812V-10.78h-.812v2.254h-2.758ZM225.848-1.75a6.69,6.69,0,0,1-3.542-5.39V-9.6h-.826v2.478a7.652,7.652,0,0,1-3.556,5.754l.6.672a9.106,9.106,0,0,0,3.36-4.578,9.336,9.336,0,0,0,3.388,4.2Zm2.744,3.99V-10.78h-.812v4.788h-3.22v.686h3.22V2.24ZM229.81-8.876h.63a1.281,1.281,0,0,1-.84,1.358v.5a1.8,1.8,0,0,0,1.358-1.82v-1.232H229.81Zm12.124,2.968v-.7h-7.868v-3.724h-.812v4.424Zm.042,7.812V1.2h-7.91V-1.862h-.812V1.9Zm1.372-5.1v-.714h-11.76v.714ZM18.732,12.5c0,1.54-1.442,2.716-3.7,2.716s-3.7-1.176-3.7-2.716,1.428-2.716,3.7-2.716S18.732,10.978,18.732,12.5Zm.854,0c0-2.044-1.806-3.388-4.55-3.388s-4.55,1.344-4.55,3.388c0,1.96,1.638,3.262,4.144,3.388v2.884H9.17v.7H20.93v-.7H15.442V15.892C17.934,15.766,19.586,14.464,19.586,12.5ZM31.864,20.75v-.714h-7.77v-3.22h-.8V20.75Zm-.28-3V8.22h-.812v3.738H28.14v.714h2.632v5.082Zm-10.122-7.5h3.01v1.022c0,1.764-1.834,3.626-3.472,4.284l.448.616A6.714,6.714,0,0,0,24.836,12.8a6.371,6.371,0,0,0,3.22,3.024l.448-.672c-1.61-.532-3.234-2.142-3.234-3.864V10.25h3.024v-.7H21.462ZM39.48,14.03c-1.316-.392-2.24-1.036-2.24-2.156,0-1.036.826-1.624,2.016-1.624,1.33,0,2.016.686,2.016,1.652C41.272,12.938,40.544,13.526,39.48,14.03Zm-.126,4.956c-1.358,0-2.436-.742-2.436-1.932,0-1.218,1.078-1.932,2.1-2.324,1.848.63,2.716,1.036,2.716,2.394C41.734,18.23,40.642,18.986,39.354,18.986Zm-.028.77c2.044,0,3.3-1.246,3.3-2.758,0-1.54-1.274-2.254-2.506-2.66.98-.532,2.114-1.19,2.114-2.45,0-1.5-1.232-2.408-2.954-2.408-1.792,0-2.94,1.064-2.94,2.436a2.624,2.624,0,0,0,2.016,2.45c-1.106.434-2.31,1.344-2.31,2.646C36.05,18.664,37.408,19.756,39.326,19.756ZM50.89,17.32a6.69,6.69,0,0,1-3.542-5.39V9.466h-.826v2.478A7.652,7.652,0,0,1,42.966,17.7l.6.672a9.106,9.106,0,0,0,3.36-4.578,9.336,9.336,0,0,0,3.388,4.2Zm2.744,3.92V8.22h-.812V21.24Zm7.56-6.888a2.689,2.689,0,0,0-1.47-.742c-.854,0-1.554.462-1.89,1.862l.574.21c.238-.84.546-1.344,1.162-1.344a2.256,2.256,0,0,1,1.484.854,2.444,2.444,0,0,0,1.6.672,1.938,1.938,0,0,0,1.778-1.834c-.2-.056-.35-.126-.56-.182-.112.8-.546,1.3-1.162,1.3C62.118,15.15,61.754,14.814,61.194,14.352ZM76.9,12.5c0,1.54-1.442,2.716-3.7,2.716s-3.7-1.176-3.7-2.716,1.428-2.716,3.7-2.716S76.9,10.978,76.9,12.5Zm.854,0c0-2.044-1.806-3.388-4.55-3.388s-4.55,1.344-4.55,3.388c0,1.96,1.638,3.262,4.144,3.388v2.884H67.34v.7H79.1v-.7H73.612V15.892C76.1,15.766,77.756,14.464,77.756,12.5Zm9.422-3.318V8.472H82.936v.714ZM90.2,11.048v-.7H79.94v.7ZM85.456,21.254V17.292H90.93v-.7H79.17v.7h5.488v3.962Zm2.562-7.448c0,.8-1.344,1.288-2.954,1.288S82.1,14.6,82.1,13.806c0-.826,1.372-1.3,2.968-1.3S88.018,12.98,88.018,13.806Zm.84,0c0-1.274-1.568-2-3.794-2s-3.808.728-3.808,2,1.6,1.988,3.808,1.988S88.858,15.08,88.858,13.806ZM96.1,19.7h.8V9.494h-.476l-2.24,1.064v.49L96.1,10.53Zm6.5-.7c-1.638,0-2.59-1.218-2.59-3.794V13.932c0-2.576.924-3.71,2.6-3.71s2.562,1.19,2.562,3.752v1.3C105.168,17.936,104.258,19,102.592,19Zm0,.742c1.988,0,3.388-1.428,3.388-4.676V14.03c0-3.43-1.5-4.536-3.374-4.536s-3.458,1.106-3.458,4.592v.966C99.148,18.342,100.66,19.742,102.592,19.742Zm11.942-2.422a6.69,6.69,0,0,1-3.542-5.39V9.466h-.826v2.478A7.652,7.652,0,0,1,106.61,17.7l.6.672a9.106,9.106,0,0,0,3.36-4.578,9.336,9.336,0,0,0,3.388,4.2Zm2.744,3.92V8.22h-.812V21.24Zm10.234-7.42c0,2.17-.91,3.822-2.31,3.822s-2.31-1.652-2.31-3.822c0-2.2.91-3.836,2.31-3.836S127.512,11.636,127.512,13.82Zm-5.46-.014c0,2.772,1.26,4.564,3.15,4.564s3.15-1.792,3.15-4.55c0-2.786-1.26-4.564-3.15-4.564S122.052,11.034,122.052,13.806Zm9.912,7.434V8.22h-.812V21.24Zm7.308-4.718a22.15,22.15,0,0,1-4.452.448v-7.1h-.812v7.854c.462,0,.882,0,1.316-.028a22.967,22.967,0,0,0,4.1-.448Zm4.886,4.718V8.22h-.826v5.432h-2.156V8.57h-.812V20.526h.812V14.352h2.156V21.24Zm11.844,0V8.22h-.826V21.24Zm-6.048-7.462c0,2.3-.756,3.626-1.89,3.626s-1.9-1.33-1.9-3.626.756-3.626,1.9-3.626S149.954,11.482,149.954,13.778Zm-1.89-4.326c-1.722,0-2.73,1.582-2.73,4.326s1.008,4.326,2.73,4.326c1.624,0,2.618-1.442,2.7-3.962h1.89v6.44h.84V8.472h-.84v4.97h-1.89C150.7,10.908,149.7,9.452,148.064,9.452ZM167.4,20.764V20.05h-7.77V16.83h-.812v3.934Zm1.456-7.9v-.686H166.8V8.22h-.812v9.45h.812v-4.8Zm-6.314,1.764h-4.284V10.208h4.284Zm.812.7V9.494h-5.908v5.838ZM177.7,13.82c0,2.17-.91,3.822-2.31,3.822s-2.31-1.652-2.31-3.822c0-2.2.91-3.836,2.31-3.836S177.7,11.636,177.7,13.82Zm-5.46-.014c0,2.772,1.26,4.564,3.15,4.564s3.15-1.792,3.15-4.55c0-2.786-1.26-4.564-3.15-4.564S172.242,11.034,172.242,13.806Zm9.912,7.434V8.22h-.812V21.24Zm7.14-7.994a11.032,11.032,0,0,0,1.9-.154V15.08h-3.836v-2A9.825,9.825,0,0,0,189.294,13.246Zm3.654,5.656c0,.98-1.414,1.568-3.654,1.568s-3.626-.588-3.626-1.568,1.386-1.582,3.626-1.582S192.948,17.922,192.948,18.9Zm-.042-8.008c0,1.036-1.372,1.652-3.612,1.652s-3.584-.616-3.584-1.652,1.344-1.666,3.584-1.666S192.906,9.858,192.906,10.894Zm.868,8.008c0-1.414-1.61-2.3-4.48-2.3s-4.466.882-4.466,2.3,1.6,2.282,4.466,2.282S193.774,20.316,193.774,18.9Zm-.042-8.008c0-1.47-1.568-2.366-4.438-2.366s-4.424.9-4.424,2.366c0,.91.574,1.582,1.694,1.974V15.08h-3.15v.714h11.76V15.08H192.01V12.868C193.13,12.476,193.732,11.8,193.732,10.894Zm5-1.246v.7h5.026a9.232,9.232,0,0,1-5.446,7.56l.49.644a10.039,10.039,0,0,0,5.824-8.9Zm9.3-1.428h-.812V21.24h.812V14.492h2.24v-.7h-2.24Zm11.41,10.64c0,.98-1.4,1.61-3.612,1.61s-3.584-.63-3.584-1.61,1.372-1.624,3.584-1.624S219.436,17.88,219.436,18.86Zm.868,0c0-1.414-1.61-2.338-4.48-2.338s-4.466.924-4.466,2.338,1.6,2.324,4.466,2.324S220.3,20.274,220.3,18.86Zm-.014-6.244v-.7h-7.868V8.6h-.812v4.018ZM221.7,15.08v-.714h-11.76v.714Zm5.782-1.372c0,.882-.924,1.372-2.086,1.372-1.134,0-2.058-.49-2.058-1.372,0-.84.91-1.358,2.058-1.358S227.486,12.868,227.486,13.708Zm.812,0c0-1.288-1.232-2.058-2.9-2.058s-2.87.77-2.87,2.058,1.232,2.072,2.87,2.072C227.066,15.78,228.3,14.968,228.3,13.708Zm.854-2.7v-.7h-7.406v.7ZM227.29,9.242v-.7h-3.682v.7Zm3.584,11.088h-6.426V18.58h6.426Zm.812.714v-4.62h-.812v1.442h-6.426V16.41h-.812v4.634Zm2.058-8.246v-.7h-2.058V8.22h-.812v7.56h.812V12.8Zm7.924,3.626a31.611,31.611,0,0,1-6.37.644V9.662h-.812v8.12c.364,0,.8,0,1.218-.014a37.612,37.612,0,0,0,6.062-.616Zm2.352-8.2h-.812V21.24h.812Zm2.842,8.96V10.264h5.1v-.7H246.05v8.33h1.582a37.1,37.1,0,0,0,5.628-.462l-.1-.686a32.087,32.087,0,0,1-5.432.434Zm8.484-8.96h-.812V21.24h.812V14.226h2.226v-.7h-2.226ZM257.4,19.7h.966v-.924H257.4Z" transform="translate(40 3012)" fill="rgba(38,38,38,0.65)"/>
    <path id="패스_7758" data-name="패스 7758" d="M1.61-3.92H2.828V-5.152H1.61ZM12.334-9.3H15.82v-.714H12.334ZM18.55-1.372c-.756.084-2.52.21-4.116.294V-3.822h-.812V-1.05c-1.512.084-2.9.1-3.738.084l.154.77c1.148.014,2.352-.042,3.836-.126,1.61-.084,3.85-.252,4.746-.35ZM20.286,2.24V-10.78h-.812V2.24ZM10.472-7.308h3.136v.028c0,1.61-1.484,3.052-3.43,3.584l.392.672c1.708-.588,3.178-1.82,3.458-2.926a5.434,5.434,0,0,0,3.458,2.562l.392-.658C16.254-4.41,14.42-5.7,14.42-7.266v-.042h3.206v-.7H10.472Zm21.6,8.974V.952H23.968v-3.29h-.812v4ZM33.348-3.92v-.7h-2.1a30.027,30.027,0,0,0,.42-5.236h-8.5v.7h7.658A21.2,21.2,0,0,1,30.45-4.62H21.588v.7Zm4.368,2.1V-8.736h5.1v-.7H36.9v8.33h1.582a37.1,37.1,0,0,0,5.628-.462l-.1-.686a32.087,32.087,0,0,1-5.432.434ZM46.2-10.78h-.812V2.24H46.2V-4.774h2.226v-.7H46.2ZM58.548-4.606v-.7H50.512v-1.75h7.8v-3.08H49.672v.7H57.5v1.68H49.7v3.15ZM58.436,1.82v-.7H50.512V-1.512H49.7V1.82Zm1.442-4.312v-.7H48.118v.7Zm10.78.742a6.69,6.69,0,0,1-3.542-5.39V-9.6H66.29v2.478a7.652,7.652,0,0,1-3.556,5.754l.6.672A9.106,9.106,0,0,0,66.7-5.278a9.336,9.336,0,0,0,3.388,4.2ZM73.4,2.24V-10.78H72.59v4.788H69.37v.686h3.22V2.24Zm7.294-4H76.244v-3.78H80.7Zm.812.7V-9.646H80.7v3.4H76.244v-3.4h-.812v8.582Zm3.71,3.3V-10.78h-.812V2.24ZM98.238.392v-.7H86.478v.7Zm-.56-4.424c-2.03-.5-4.914-2.66-4.914-4.69v-.9h-.826v.9c0,2.03-2.744,4.2-4.872,4.676l.42.644c2.576-.77,4.522-2.8,4.858-3.906.406,1.12,2.45,3.136,4.872,3.948ZM108.71-5.81v-.7h-8.022V-7.7h7.8v-2.576H99.848v.7h7.826V-8.4h-7.8v2.59Zm.308,7.728v-.7H100.59V-.126h7.952V-2.688H99.764v.7h7.966V-.826H99.792V1.918Zm1.05-5.824v-.658H98.308v.658ZM122.542-.014c0,.924-1.414,1.512-3.654,1.512S115.262.91,115.262-.014s1.386-1.526,3.626-1.526S122.542-.938,122.542-.014Zm.826,0c0-1.386-1.61-2.24-4.48-2.24s-4.466.854-4.466,2.24,1.6,2.226,4.466,2.226S123.368,1.372,123.368-.014Zm-.168-5.25v-.7h-7.8v-1.4h7.336v-.7H115.4V-9.338h7.728v-.7h-8.54v4.774H118.5v1.512h-5.488v.714h11.76v-.714h-5.474V-5.264Zm6.692-3.7v-.714h-3.43v.714ZM131.376-6.9v-.7h-6.524v.7Zm-1.3,3.486A1.76,1.76,0,0,1,128.2-1.652a1.736,1.736,0,0,1-1.876-1.764A1.739,1.739,0,0,1,128.2-5.152,1.738,1.738,0,0,1,130.074-3.416Zm.784.014a2.427,2.427,0,0,0-2.66-2.45,2.434,2.434,0,0,0-2.66,2.45,2.473,2.473,0,0,0,2.66,2.45A2.419,2.419,0,0,0,130.858-3.4Zm4.928,5.642V-10.78h-.812v5.53h-1.946v-5.194h-.812V1.54h.812V-4.536h1.946V2.24ZM147.126-4.1a5.1,5.1,0,0,1-3.276-4.382v-1.54h-.826V-8.47a5.5,5.5,0,0,1-3.332,4.76l.546.63a6.837,6.837,0,0,0,3.248-3.71,6.4,6.4,0,0,0,3.136,3.332ZM150.4,1.806V1.092h-7.728V-2.1h-.8V1.806Zm-.28-3.136v-9.45h-.812v9.45Zm7.126-4.424a11.032,11.032,0,0,0,1.9-.154V-3.92h-3.836v-2A9.825,9.825,0,0,0,157.248-5.754ZM160.9-.1c0,.98-1.414,1.568-3.654,1.568S153.622.882,153.622-.1s1.386-1.582,3.626-1.582S160.9-1.078,160.9-.1Zm-.042-8.008c0,1.036-1.372,1.652-3.612,1.652s-3.584-.616-3.584-1.652,1.344-1.666,3.584-1.666S160.86-9.142,160.86-8.106ZM161.728-.1c0-1.414-1.61-2.3-4.48-2.3s-4.466.882-4.466,2.3,1.6,2.282,4.466,2.282S161.728,1.316,161.728-.1Zm-.042-8.008c0-1.47-1.568-2.366-4.438-2.366s-4.424.9-4.424,2.366c0,.91.574,1.582,1.694,1.974V-3.92h-3.15v.714h11.76V-3.92h-3.164V-6.132C161.084-6.524,161.686-7.2,161.686-8.106Zm12.1,4.97V-10.78h-.812v3.472h-2.716v.7h2.716v3.472ZM163.66-9h3.01v.854c0,1.778-1.806,3.654-3.444,4.312l.448.6a6.641,6.641,0,0,0,3.346-3.388,6.593,6.593,0,0,0,3.22,3.052l.462-.686c-1.61-.518-3.248-2.142-3.248-3.878V-9h3.038v-.7H163.66ZM172.984,1.33h-6.552V-1.722h6.552Zm.812.7V-2.422H165.62V2.03ZM186.1-5.7c-2.17-.224-4.788-2.24-4.788-3.892v-.546h-.826v.546c0,1.666-2.268,3.556-4.788,3.934l.448.728c2-.434,4.116-1.876,4.76-3.36a7.7,7.7,0,0,0,4.76,3.318Zm-4.8,7.952V-2.6h5.488v-.714h-11.76V-2.6h5.46V2.254ZM199.22-8.232c0,.952-1.372,1.554-3.612,1.554s-3.584-.6-3.584-1.554S193.368-9.8,195.608-9.8,199.22-9.184,199.22-8.232Zm1.246,10.3v-.7h-8.4V-.154h7.882V-2.87h-8.722v.7h7.924V-.854h-7.9V2.072Zm-.42-10.3c0-1.414-1.568-2.268-4.438-2.268s-4.424.854-4.424,2.268c0,1.344,1.4,2.17,4,2.254V-4.9h-5.46v.714h11.76V-4.9H196V-5.978C198.618-6.062,200.046-6.874,200.046-8.232Zm9.94,6.818c-.028-.238-.056-.462-.1-.714a34.833,34.833,0,0,1-6.16.448h-.574V-5.054h5.068v-4.48h-5.936v.7h5.138v3.08h-5.082V-.966c.644,0,1.218,0,1.736-.028A39.836,39.836,0,0,0,209.986-1.414Zm1.33-9.366V2.24h.8V-10.78Zm2.856,1.428v.7h5.054c-.238,3.08-2.24,5.824-5.642,7.56l.49.644c3.094-1.61,5.964-4.522,6.02-8.9ZM223.958,2.24V-10.78h-.812V2.24ZM235.62-5.81v-.7H227.6V-7.7h7.8v-2.576h-8.638v.7h7.826V-8.4h-7.8v2.59Zm.308,7.728v-.7H227.5V-.126h7.952V-2.688h-8.778v.7h7.966V-.826H226.7V1.918Zm1.05-5.824v-.658h-11.76v.658Zm8.694-.6c0,.98-.966,1.554-2.128,1.554-1.134,0-2.1-.574-2.1-1.554,0-.938.952-1.54,2.1-1.54S245.672-5.446,245.672-4.508Zm.812,0c0-1.386-1.274-2.24-2.94-2.24s-2.912.854-2.912,2.24,1.274,2.254,2.912,2.254C245.21-2.254,246.484-3.15,246.484-4.508Zm.812-3.01v-.7H239.89v.7Zm-1.862-1.876v-.7h-3.682v.7Zm5,11.144V1.036h-7.77V-1.456h-.812V1.75Zm1.456-7.14v-.7H249.83v-4.69h-.812v9.492h.812v-4.1ZM260.9-1.848c2.114,0,3.556.672,3.556,1.722S263.018,1.6,260.9,1.6,257.376.91,257.376-.126,258.79-1.848,260.9-1.848Zm4.41,1.722c0-1.5-1.736-2.436-4.41-2.436s-4.382.938-4.382,2.436S258.23,2.31,260.9,2.31,265.314,1.358,265.314-.126ZM255.556-9.7V-9H260.3c-.294,2.226-2.674,4.69-5.5,5.306l.476.714c3.234-1.008,5.656-3.4,5.964-6.72Zm5.712,5h3.122v2.282h.812V-10.78h-.812v2.66h-3.01v.714h3.01v1.988h-3.122ZM272.72,2.254V-2.492h5.488v-.7h-11.76v.7h5.46V2.254ZM272.314-9.38c2.254,0,3.6.84,3.6,2.058s-1.344,2.044-3.6,2.044c-2.226,0-3.584-.826-3.584-2.044S270.088-9.38,272.314-9.38Zm4.438,2.058c0-1.638-1.638-2.772-4.438-2.772S267.89-8.96,267.89-7.322s1.624,2.758,4.424,2.758S276.752-5.684,276.752-7.322Zm1.288,10.01h.476l1.092-2.912h-.994ZM15.288,13.82c0,2.17-.91,3.822-2.31,3.822s-2.31-1.652-2.31-3.822c0-2.2.91-3.836,2.31-3.836S15.288,11.636,15.288,13.82Zm-5.46-.014c0,2.772,1.26,4.564,3.15,4.564s3.15-1.792,3.15-4.55c0-2.786-1.26-4.564-3.15-4.564S9.828,11.034,9.828,13.806ZM19.74,21.24V8.22h-.812V21.24Zm7.126-4.074H22.6V10.334h4.27Zm.812.7V9.634H21.784v8.232Zm3.85,3.374V8.22h-.8V21.24ZM36.316,9.648v.7h5.026a9.232,9.232,0,0,1-5.446,7.56l.49.644a10.039,10.039,0,0,0,5.824-8.9Zm9.3-1.428H44.8V21.24h.812V14.492h2.24v-.7h-2.24Zm12.5,7.644V8.22H57.3v3.472H54.586v.7H57.3v3.472ZM47.992,10H51v.854c0,1.778-1.806,3.654-3.444,4.312l.448.6a6.641,6.641,0,0,0,3.346-3.388,6.593,6.593,0,0,0,3.22,3.052l.462-.686c-1.61-.518-3.248-2.142-3.248-3.878V10h3.038V9.3H47.992ZM57.316,20.33H50.764V17.278h6.552Zm.812.7V16.578H49.952V21.03Zm7.35-7.21c0,2.17-.91,3.822-2.31,3.822s-2.31-1.652-2.31-3.822c0-2.2.91-3.836,2.31-3.836S65.478,11.636,65.478,13.82Zm-5.46-.014c0,2.772,1.26,4.564,3.15,4.564s3.15-1.792,3.15-4.55c0-2.786-1.26-4.564-3.15-4.564S60.018,11.034,60.018,13.806ZM69.93,21.24V8.22h-.812V21.24Zm9.7-6.342H75.46V12.266h4.172Zm.812.7V9.158h-.812v2.408H75.46V9.158h-.812V15.6Zm4.144,5.166V20.05H76.72V16.83h-.812v3.934Zm1.442-7.826v-.686H83.972V8.22H83.16v9.464h.812V12.938Zm6.132,4.214c2.226,0,3.542.658,3.542,1.68s-1.316,1.68-3.542,1.68-3.556-.658-3.556-1.68S89.936,17.152,92.162,17.152Zm4.41,1.68c0-1.456-1.568-2.394-4.41-2.394s-4.424.938-4.424,2.394,1.568,2.394,4.424,2.394S96.572,20.288,96.572,18.832Zm-7.21-9.156a2.246,2.246,0,0,1,2.408,2.31,2.251,2.251,0,0,1-2.408,2.3,2.306,2.306,0,1,1,0-4.606Zm0-.714a3.037,3.037,0,1,0,3.22,3.01A3.02,3.02,0,0,0,89.362,8.962Zm3.6,4.914h2.7v2.45h.812V8.22h-.812v1.82h-2.7v.686h2.7V13.19h-2.7Zm18.158,7.364V8.22h-.812V21.24ZM108.29,14.6v-.7h-5.768v-3.64h5.656v-.7H101.71V14.6h2.716v3.08c-1.526.042-2.926.042-3.766.042l.14.784c.742,0,2.716-.042,4.214-.126,1.582-.084,3.29-.238,4.186-.336l-.056-.7c-.742.1-2.366.238-3.906.308V14.6Zm10.346,5.222a3,3,0,0,1-1.946-2.814V16.27h-.812v.854a4.316,4.316,0,0,1-2.73,3.556l.49.588a5.158,5.158,0,0,0,2.646-2.828,3.918,3.918,0,0,0,1.876,1.988Zm5.558.812a4.045,4.045,0,0,1-2.632-3.416v-.98h-.812v.994a4.378,4.378,0,0,1-2.66,3.6l.49.574a5.5,5.5,0,0,0,2.576-2.772,5.937,5.937,0,0,0,2.534,2.618Zm-8.3-10.962a2.246,2.246,0,0,1,2.408,2.31,2.251,2.251,0,0,1-2.408,2.3,2.306,2.306,0,1,1,0-4.606Zm0-.714a3.037,3.037,0,1,0,3.22,3.01A3.02,3.02,0,0,0,115.892,8.962Zm6.3,3.332v3.332H123V8.22h-.812v3.374h-2.464v.7Zm11.55-1.288c0,1.036-1.372,1.652-3.612,1.652s-3.584-.616-3.584-1.652S127.89,9.34,130.13,9.34,133.742,9.97,133.742,11.006Zm.826,0c0-1.47-1.568-2.366-4.438-2.366s-4.424.9-4.424,2.366,1.554,2.352,4.424,2.352,4.438-.882,4.438-2.044Zm-.882,9.324h-7.1V17.544h7.1Zm.812.714V16.83h-8.722v4.214Zm1.512-5.838v-.7H124.25v.7Zm9.66-2.59c0,1.428-1.456,2.52-3.724,2.52s-3.71-1.092-3.71-2.52,1.442-2.506,3.71-2.506S145.67,11.2,145.67,12.616Zm.854,0c0-1.946-1.806-3.234-4.578-3.234-2.744,0-4.564,1.288-4.564,3.234s1.82,3.234,4.564,3.234S146.524,14.576,146.524,12.616Zm1.316,6.776v-.7H136.08v.7Zm11.83.154v-.7h-5.488V16.284h4.256v-.7H150.3V13.022h7.742V9.27h-8.54v.714h7.728v2.338h-7.742v3.962h3.878v2.562h-5.46v.7Zm13.524-3.682V8.22h-.812v3.472h-2.716v.7h2.716v3.472ZM163.072,10h3.01v.854c0,1.778-1.806,3.654-3.444,4.312l.448.6a6.641,6.641,0,0,0,3.346-3.388,6.593,6.593,0,0,0,3.22,3.052l.462-.686c-1.61-.518-3.248-2.142-3.248-3.878V10H169.9V9.3h-6.832ZM172.4,20.33h-6.552V17.278H172.4Zm.812.7V16.578h-8.176V21.03ZM185.514,13.3c-2.17-.224-4.788-2.24-4.788-3.892V8.864H179.9V9.41c0,1.666-2.268,3.556-4.788,3.934l.448.728c2-.434,4.116-1.876,4.76-3.36a7.7,7.7,0,0,0,4.76,3.318Zm-4.8,7.952V16.4H186.2v-.714H174.44V16.4h5.46v4.858Zm6.174-11.606v.7h5.026a9.232,9.232,0,0,1-5.446,7.56l.49.644a10.039,10.039,0,0,0,5.824-8.9Zm9.3-1.428h-.812V21.24h.812V14.492h2.24v-.7h-2.24Zm14.35,4.284c0,1.54-1.442,2.716-3.7,2.716s-3.7-1.176-3.7-2.716,1.428-2.716,3.7-2.716S210.532,10.978,210.532,12.5Zm.854,0c0-2.044-1.806-3.388-4.55-3.388s-4.55,1.344-4.55,3.388c0,1.96,1.638,3.262,4.144,3.388v2.884h-5.46v.7h11.76v-.7h-5.488V15.892C209.734,15.766,211.386,14.464,211.386,12.5Zm11.942,3.682v-.7h-8.134V12.994h7.784V9.312H214.4v.714h7.77v2.268h-7.784v3.892Zm1.232,3.192v-.7H212.8v.7ZM234.4,8.22V21.24h.812V8.22Zm-1.82,9.142a6.771,6.771,0,0,1-3.472-5.348V10.348h3.178v-.7h-7.2v.7h3.192v1.694a7.655,7.655,0,0,1-3.5,5.7l.588.672a9.669,9.669,0,0,0,3.318-4.564,9.258,9.258,0,0,0,3.346,4.2Zm10.22-8.4a2.984,2.984,0,1,0,3.22,2.954A3,3,0,0,0,242.8,8.962Zm0,.742a2.224,2.224,0,1,1,0,4.438,2.225,2.225,0,1,1,0-4.438Zm7.028,9.9c0-1.022-1.092-1.638-2.45-1.638s-2.436.616-2.436,1.638,1.092,1.652,2.436,1.652S249.83,20.61,249.83,19.6Zm1.47-7.532v-.7h-2.058V8.22h-.812v6.342h.812V12.07Zm-7.07,7.392a8.422,8.422,0,0,1-2.87.49V16.228h-.8v4.48a11.412,11.412,0,0,0,3.794-.518Zm4.788.14c0,.616-.77.98-1.638.98-.84,0-1.624-.364-1.624-.98s.784-.952,1.624-.952C248.248,18.65,249.018,18.986,249.018,19.6Zm1.68-2.2v-.7H244.1v.7Zm-1.722-1.484v-.7h-3.052v.7Zm11.676-5.11c0,.952-1.372,1.526-3.612,1.526s-3.584-.574-3.584-1.526,1.344-1.54,3.584-1.54S260.652,9.858,260.652,10.81Zm.826,0c0-1.414-1.568-2.24-4.438-2.24s-4.424.826-4.424,2.24,1.554,2.226,4.424,2.226S261.478,12.224,261.478,10.81Zm.35,10.262v-.7h-8.4V18.86h7.882v-2.8h-8.722v.7h7.924v1.4h-7.9v2.912Zm1.092-6.384v-.672H251.16v.672ZM276.934,13.3c-2.17-.224-4.788-2.24-4.788-3.892V8.864h-.826V9.41c0,1.666-2.268,3.556-4.788,3.934l.448.728c2-.434,4.116-1.876,4.76-3.36a7.7,7.7,0,0,0,4.76,3.318Zm-4.8,7.952V16.4h5.488v-.714H265.86V16.4h5.46v4.858ZM286.8,19.868a2.989,2.989,0,0,1-2-2.856V16.27h-.812v.854a4.352,4.352,0,0,1-2.744,3.57l.5.574A5.158,5.158,0,0,0,284.4,18.44a3.918,3.918,0,0,0,1.876,1.988Zm5.516.812a4.119,4.119,0,0,1-2.646-3.458v-.98h-.812v.994a4.45,4.45,0,0,1-2.688,3.626l.518.546a5.5,5.5,0,0,0,2.576-2.772,5.937,5.937,0,0,0,2.534,2.618Zm-8.12-11a2.307,2.307,0,1,1,0,4.606,2.307,2.307,0,1,1,0-4.606Zm0-.714a3.038,3.038,0,1,0,3.248,3.01A3.043,3.043,0,0,0,284.2,8.962Zm6.944,6.8V8.22h-.812v7.546Zm12.376-3.4c-2.044-.252-4.83-1.806-4.83-3.57V8.332h-.826v.462c0,1.75-2.6,3.36-4.788,3.6l.42.686c2.436-.448,4.326-1.918,4.774-3.052a7.353,7.353,0,0,0,4.844,3.038Zm-1.778,7.98h-6.93V18.538h6.93Zm.812.714V16.144h-.812v1.68h-6.93V16.13H294v4.928Zm1.6-6.1v-.7H292.39v.7Zm8.134,1.47a31.611,31.611,0,0,1-6.37.644V9.662H305.1v8.12c.364,0,.8,0,1.218-.014a37.612,37.612,0,0,0,6.062-.616Zm2.352-8.2h-.812V21.24h.812Zm2.842,8.96V10.264h5.1v-.7h-5.908v8.33h1.582a37.1,37.1,0,0,0,5.628-.462l-.1-.686a32.087,32.087,0,0,1-5.432.434Zm8.484-8.96h-.812V21.24h.812V14.226h2.226v-.7h-2.226ZM328.02,19.7h.966v-.924h-.966Z" transform="translate(40 3060)" fill="rgba(38,38,38,0.65)"/>
    <path id="패스_7755" data-name="패스 7755" d="M1.61-3.92H2.828V-5.152H1.61Zm17.5.1H12.166V-6.65H19.11Zm.812.7V-9.744H19.11V-7.35H12.166V-9.744h-.812v6.622h3.864V-.154H9.758v.7h11.76v-.7H16.03V-3.122Zm7.49-1.932c0,.882-.924,1.4-2.086,1.4-1.134,0-2.058-.518-2.058-1.4,0-.84.91-1.386,2.058-1.386S27.412-5.894,27.412-5.054Zm.812,0c0-1.288-1.232-2.086-2.9-2.086s-2.87.8-2.87,2.086,1.232,2.1,2.87,2.1C26.992-2.954,28.224-3.794,28.224-5.054Zm.854-2.828v-.7H21.672v.7ZM27.216-9.674v-.7H23.534v.7Zm4.956,6.818V-10.78H31.36v4.2H28.8v.7H31.36v3.024Zm-.8,4.186h-6.72V-1.4h6.72Zm.812.7V-2.1H23.842V2.03Zm5.516-5h3.346V-.154H37.7Zm6.244,0v-.714H35.812V-6.02H43.6V-9.73H35.014v.714h7.77v2.282H35v3.766h1.89V-.154H33.418v.7h11.76v-.7H41.86V-2.968ZM55.706-6.16a37.05,37.05,0,0,1-6.244.6v-4.536H48.65V-4.83c.336,0,.7,0,1.05-.014a44.023,44.023,0,0,0,6.132-.574Zm1.512,7.518H50.792V-.588h6.426Zm.812.686V-3.234h-.812v1.946H50.792v-1.9H49.98V2.044ZM60.088-7v-.7H58.03v-3.08h-.812v6.734h.812V-7ZM66.22,2.254V-2.268h5.488v-.714H59.948v.714h5.46V2.254ZM69.314-5.4H62.356V-7.546h6.958Zm.812.7V-10.22h-.812v1.974H62.356V-10.22h-.812V-4.7Zm7.7,2.226a22.15,22.15,0,0,1-4.452.448v-7.1h-.812v7.854c.462,0,.882,0,1.316-.028a22.967,22.967,0,0,0,4.1-.448ZM82.712,2.24V-10.78h-.826v5.432H79.73V-10.43h-.812V1.526h.812V-4.648h2.156V2.24ZM87.08-9.324a2.246,2.246,0,0,1,2.408,2.31,2.251,2.251,0,0,1-2.408,2.3,2.321,2.321,0,0,1-2.422-2.31A2.31,2.31,0,0,1,87.08-9.324Zm0-.714a3.02,3.02,0,0,0-3.234,3.024A3.039,3.039,0,0,0,87.08-3.976,3.046,3.046,0,0,0,90.3-7.028,3.013,3.013,0,0,0,87.08-10.038ZM85.6-2.366v.714H93.38V2.254h.812v-4.62Zm5.082-5.908h2.7V-5.88h-2.7v.672h2.7V-3.08h.812v-7.7H93.38v1.834h-2.7Zm14.252.5c0,1.064-1.372,1.736-3.612,1.736s-3.584-.672-3.584-1.736,1.344-1.75,3.584-1.75S104.93-8.834,104.93-7.77Zm.826,0c0-1.512-1.568-2.464-4.438-2.464s-4.424.952-4.424,2.464,1.554,2.45,4.424,2.45S105.756-6.258,105.756-7.77Zm0,9.59V1.106H97.832v-2.87H97.02V1.82ZM107.2-3.22v-.7H95.438v.7ZM112.364.7h.8V-9.506h-.476l-2.24,1.064v.49l1.918-.518Zm2.842-.14h6.048V-.21H116.41l1.806-1.778c1.974-2.03,2.73-2.982,2.73-4.634a2.7,2.7,0,0,0-2.94-2.9,4.947,4.947,0,0,0-2.674.994l.378.686a3.863,3.863,0,0,1,2.31-.91c1.456,0,2.086.742,2.086,2.156,0,1.512-.868,2.478-2.282,3.948L115.206.07Zm17.388,1.68V-10.78h-.812v5.446H129.71v-5.1H128.9V1.54h.812V-4.634h2.072V2.24ZM122.22-9.1v.7h4.074a8.956,8.956,0,0,1-4.69,7.042l.574.658a9.991,9.991,0,0,0,4.984-8.4Zm15.764,6.02V-4.914c1.526-.1,3.178-.252,3.92-.322l-.07-.672c-1.344.14-2.59.224-4.06.28-1.414.056-2.716.1-4.3.1l.154.756c1.246-.014,2.366-.042,3.542-.1V-3.08Zm6.034,0v-7.7h-.812v6.37H140.28v.686h2.926v.644Zm-4.144-5.208c0,.854-.994,1.358-2.254,1.358s-2.254-.5-2.254-1.358.938-1.386,2.254-1.386C138.964-9.674,139.874-9.142,139.874-8.288Zm4.662,10.4v-.7h-8.162V.112h7.644V-2.52h-8.47v.7h7.672V-.574h-7.658V2.114Zm-3.864-10.4c0-1.246-1.246-2.072-3.052-2.072-1.848,0-3.052.826-3.052,2.086s1.2,2.03,3.052,2.03C139.426-6.244,140.672-7.014,140.672-8.288Zm10.542-.784v-.742h-3.738v.742ZM155.89,2.24V-10.78h-.812V2.24Zm-2.73-3.416a5.49,5.49,0,0,1-3.374-4.578V-6.762h3.122v-.7H145.88v.7h3.094V-5.74a5.98,5.98,0,0,1-3.388,4.956l.56.63a7.255,7.255,0,0,0,3.248-3.934,7.2,7.2,0,0,0,3.234,3.626Zm12.964-4c0,2.17-.91,3.822-2.31,3.822S161.5-3.01,161.5-5.18c0-2.2.91-3.836,2.31-3.836S166.124-7.364,166.124-5.18Zm-5.46-.014c0,2.772,1.26,4.564,3.15,4.564s3.15-1.792,3.15-4.55c0-2.786-1.26-4.564-3.15-4.564S160.664-7.966,160.664-5.194Zm9.912,7.434V-10.78h-.812V2.24Zm7.07-4.228c2.114,0,3.458.658,3.458,1.75S179.76,1.5,177.646,1.5s-3.43-.658-3.43-1.736S175.532-1.988,177.646-1.988Zm4.312,1.75c0-1.526-1.638-2.464-4.312-2.464s-4.284.938-4.284,2.464,1.61,2.464,4.284,2.464S181.958,1.274,181.958-.238Zm-2.884-4.326a4.981,4.981,0,0,1-3.276-4.3V-10.08h-.826v1.232a5.383,5.383,0,0,1-3.332,4.676l.546.63a6.713,6.713,0,0,0,3.248-3.64A6.258,6.258,0,0,0,178.57-3.92Zm4.732-1.792v-.7h-2.058V-10.78h-.812V-2.8h.812V-6.356ZM15.372,9.158v.7h3.3a19.22,19.22,0,0,1-.588,4.774H13.524a21.549,21.549,0,0,0,.7-5.474h-4.1v.7h3.234a19.842,19.842,0,0,1-.672,4.774H9.17v.714h5.488v5.908h.8V15.346H20.93v-.714h-2a24.3,24.3,0,0,0,.588-5.474Zm16.086,11.62v-.714H23.38v-3h-.8v3.71Zm-4.186-2.394V15.7H32.76v-.714H21V15.7h5.46v2.688Zm4.3-8.722v-.7H22.148v.7h4.326V9.8c0,1.778-2.632,3.066-4.788,3.318l.392.714c2.422-.448,4.34-1.68,4.8-2.8.574,1.134,2.492,2.338,4.858,2.8l.392-.7c-2-.252-4.83-1.54-4.83-3.332v-.14Zm7.644,6.09a2.169,2.169,0,1,1-2.156-1.932A2,2,0,0,1,39.214,15.752Zm.812,0a2.713,2.713,0,0,0-2.968-2.632,2.718,2.718,0,0,0-2.982,2.632,2.724,2.724,0,0,0,2.982,2.618A2.7,2.7,0,0,0,40.026,15.752Zm.756-3.654v-.7h-7.63v.7Zm-2.03-2.17V9.214h-3.71v.714ZM43.4,21.24V8.22h-.812V21.24Zm11.718-8.4a37.05,37.05,0,0,1-6.244.6V8.906h-.812V14.17c.336,0,.7,0,1.05-.014a44.023,44.023,0,0,0,6.132-.574Zm1.512,7.518H50.2V18.412H56.63Zm.812.686V15.766H56.63v1.946H50.2v-1.9h-.812v5.236ZM59.5,12v-.7H57.442V8.22H56.63v6.734h.812V12Zm6.132,9.254V16.732H71.12v-.714H59.36v.714h5.46v4.522ZM68.726,13.6H61.768V11.454h6.958Zm.812.7V8.78h-.812v1.974H61.768V8.78h-.812V14.3Zm7.406.2c0,.98-.966,1.554-2.128,1.554-1.134,0-2.1-.574-2.1-1.554,0-.938.952-1.54,2.1-1.54S76.944,13.554,76.944,14.492Zm.812,0c0-1.386-1.274-2.24-2.94-2.24s-2.912.854-2.912,2.24,1.274,2.254,2.912,2.254C76.482,16.746,77.756,15.85,77.756,14.492Zm.812-3.01v-.7H71.162v.7ZM76.706,9.606v-.7H73.024v.7Zm5,11.144v-.714h-7.77V17.544h-.812V20.75Zm1.456-7.14v-.7H81.1V8.22H80.29v9.492H81.1v-4.1Zm8.778,2.912a22.15,22.15,0,0,1-4.452.448v-7.1h-.812v7.854c.462,0,.882,0,1.316-.028a22.967,22.967,0,0,0,4.1-.448Zm4.886,4.718V8.22H96v5.432H93.842V8.57H93.03V20.526h.812V14.352H96V21.24Zm4.368-11.564a2.246,2.246,0,0,1,2.408,2.31,2.251,2.251,0,0,1-2.408,2.3,2.306,2.306,0,1,1,0-4.606Zm0-.714a3.037,3.037,0,1,0,3.22,3.01A3.02,3.02,0,0,0,101.192,8.962Zm-1.484,7.672v.714h7.784v3.906h.812v-4.62Zm5.082-5.908h2.7V13.12h-2.7v.672h2.7V15.92h.812V8.22h-.812v1.834h-2.7Zm10.878,3.094c0,2.17-.91,3.822-2.31,3.822s-2.31-1.652-2.31-3.822c0-2.2.91-3.836,2.31-3.836S115.668,11.636,115.668,13.82Zm-5.46-.014c0,2.772,1.26,4.564,3.15,4.564s3.15-1.792,3.15-4.55c0-2.786-1.26-4.564-3.15-4.564S110.208,11.034,110.208,13.806Zm9.912,7.434V8.22h-.812V21.24ZM131.726,9.816V9.13H124.88v.686Zm3.108,5.306V8.22h-.812v6.9Zm-2.324-1.708c-.518.084-1.372.154-2.394.224l.35-3.094-.826-.126c-.112,1.092-.182,2.17-.28,3.262h-.168c-.686.042-1.4.056-2.114.07-.084-1.092-.2-2.17-.266-3.276l-.826.112.336,3.178c-.6.014-1.2.014-1.764.014.056.266.1.5.14.77,1.092,0,2.59-.056,4.074-.154,1.428-.084,2.814-.168,3.822-.308Zm2.87,7.728v-.7h-7.966v-1.75h7.434V15.78h-8.3v.7h7.5v1.512h-7.434v3.15Zm12.46-1.6v-.7h-3.108V16.088l-.812-.014v2.772h-3.948V16.074l-.812.014v2.758h-3.08v.7Zm-2.2-7.056c0,1.54-1.47,2.618-3.7,2.618s-3.7-1.078-3.7-2.618,1.456-2.646,3.7-2.646S145.642,10.95,145.642,12.49Zm.84,0c0-2.016-1.82-3.332-4.536-3.332s-4.536,1.316-4.536,3.332,1.834,3.3,4.536,3.3S146.482,14.492,146.482,12.49Zm7.14,1.218c0,.882-.924,1.372-2.086,1.372-1.134,0-2.058-.49-2.058-1.372,0-.84.91-1.358,2.058-1.358S153.622,12.868,153.622,13.708Zm.812,0c0-1.288-1.232-2.058-2.9-2.058s-2.87.77-2.87,2.058,1.232,2.072,2.87,2.072C153.2,15.78,154.434,14.968,154.434,13.708Zm.854-2.7v-.7h-7.406v.7Zm-1.862-1.764v-.7h-3.682v.7ZM157.01,20.33h-6.426V18.58h6.426Zm.812.714v-4.62h-.812v1.442h-6.426V16.41h-.812v4.634ZM159.88,12.8v-.7h-2.058V8.22h-.812v7.56h.812V12.8Zm7.924,3.626a31.611,31.611,0,0,1-6.37.644V9.662h-.812v8.12c.364,0,.8,0,1.218-.014a37.612,37.612,0,0,0,6.062-.616Zm2.352-8.2h-.812V21.24h.812ZM173,17.18V10.264h5.1v-.7h-5.908v8.33h1.582a37.1,37.1,0,0,0,5.628-.462l-.1-.686a32.087,32.087,0,0,1-5.432.434Zm8.484-8.96h-.812V21.24h.812V14.226h2.226v-.7h-2.226ZM183.54,19.7h.966v-.924h-.966Z" transform="translate(40 2915)" fill="rgba(38,38,38,0.65)"/>
  </g>
</svg>
