<svg xmlns="http://www.w3.org/2000/svg" width="342.375" height="14.01" viewBox="0 0 342.375 14.01">
  <path id="패스_7750" data-name="패스 7750" d="M11.76,1.98V.825H3.51v-2.88H2.1V1.98ZM7.665-.645V-3.3H13.2V-4.455H.6V-3.3H6.255V-.645ZM12.6-6.5c-2.025-.15-4.71-1.35-4.935-3.12h4.35V-10.77H1.785v1.155h4.38c-.21,1.77-2.625,2.97-4.935,3.15l.615,1.11C4.23-5.67,6.3-6.84,6.9-8.16c.72,1.29,2.865,2.49,5.07,2.805ZM18.915-5.46h-3.66v-2.1h3.66ZM20.325-4.3V-10.77h-1.41V-8.7h-3.66v-2.055h-1.41V-4.3ZM23.31,1.08H17.16V-.54h6.15Zm1.425,1.14V-3.285H23.31V-1.65H17.16V-3.24H15.735V2.22ZM23.31-7.17v3.21h1.41v-7.59H23.31v3.195H21.045V-7.17Zm3.24-3.345V-9.33H31.3c-.39,2.4-2.9,4.32-5.475,4.83l.735,1.14c3.6-.975,6.135-3.435,6.3-7.155Zm8.775,11.6h-6.03V-1.7h6.03ZM36.735,2.2V-2.82h-8.85V2.2Zm2.07-9.045V-8.01H36.72v-3.54H35.31v8.025h1.41V-6.84ZM47.1-2.01a7.1,7.1,0,0,1-3.5-6v-2.31H42.15v2.37a7.659,7.659,0,0,1-3.585,6.315l.885,1.05A8.734,8.734,0,0,0,42.885-5.1,9.324,9.324,0,0,0,46.26-.96ZM50.175,2.4V-11.55h-1.41V2.4ZM55.35-9.405A2.134,2.134,0,0,1,57.585-7.14,2.114,2.114,0,0,1,55.35-4.92a2.15,2.15,0,0,1-2.235-2.235A2.163,2.163,0,0,1,55.35-9.405Zm0-1.2a3.5,3.5,0,0,0-3.72,3.48,3.437,3.437,0,0,0,3.72,3.39A3.44,3.44,0,0,0,59.07-7.14,3.494,3.494,0,0,0,55.35-10.605Zm7.725,12.57V.825H54.99v-3.21H53.58v4.35Zm-.33-3.39V-11.55h-1.41V-1.425Zm9.78-2.43c-.795.135-2.25.225-3.6.3v-.8c1.455-.15,2.535-.78,2.535-1.86,0-1.26-1.425-1.92-3.225-1.92-1.785,0-3.195.66-3.195,1.935,0,1.08,1.035,1.7,2.475,1.845v.87c-1.335.045-2.79.075-3.84.075l.21,1.17c.96,0,2.775-.075,4.365-.165s3.39-.24,4.41-.375ZM76.89-5.82V-6.99H74.82v-4.56H73.425v9.3H74.82V-5.82Zm-11.3,4.29V-.39h7.83V2.46H74.82V-1.53ZM72.21-8.49v-1.1H64.185v1.1ZM70.095-6.21c0,.54-.78.87-1.86.87-1.065,0-1.83-.33-1.83-.87s.765-.855,1.83-.855C69.315-7.065,70.095-6.765,70.095-6.21Zm.06-4.065v-1.11H66.27v1.11Zm10.545.87A2.134,2.134,0,0,1,82.935-7.14,2.114,2.114,0,0,1,80.7-4.92a2.15,2.15,0,0,1-2.235-2.235A2.163,2.163,0,0,1,80.7-9.405Zm0-1.2a3.5,3.5,0,0,0-3.72,3.48,3.437,3.437,0,0,0,3.72,3.39A3.44,3.44,0,0,0,84.42-7.14,3.494,3.494,0,0,0,80.7-10.605Zm7.725,12.57V.825H80.34v-3.21H78.93v4.35Zm-.33-3.39V-11.55h-1.41V-1.425Zm9.39-8.145V-10.7H89.88V-9.57Zm3.285,5.295V-11.55H99.36v7.275Zm-2.73-1.86c-.525.09-1.26.165-2.13.225l.33-2.85-1.365-.165-.21,3.075c-.165.015-.33.015-.5.015-.51.03-1.035.045-1.59.06L92.37-8.91l-1.395.165.345,3c-.615.015-1.245.015-1.86.015l.21,1.2c1.29,0,2.85-.06,4.335-.135,1.56-.09,3.165-.21,4.155-.375Zm3.225,8.43V1.14H93.18V-.165h7.59V-3.57H91.71v1.14h7.65v1.2H91.77V2.3Zm7.47-11.475c1.665,0,2.37,1.29,2.37,3.24v.3a3.105,3.105,0,0,1-2.31,1.29,2.067,2.067,0,0,1-2.205-2.34C106.59-8.145,107.385-9.18,108.735-9.18Zm-.015-1.125a3.461,3.461,0,0,0-3.51,3.735,3.191,3.191,0,0,0,3.27,3.36A3.5,3.5,0,0,0,111.1-4.35c-.12,2.955-1.14,3.975-2.865,3.975A4.849,4.849,0,0,1,106.05-.9L105.7.135a5.163,5.163,0,0,0,2.61.66c2.61,0,4.2-1.86,4.2-5.7V-5.6C112.515-8.655,111.15-10.305,108.72-10.305ZM113.1-3.96h5.25V-5.145H113.1ZM119.085.6h6.72V-.57H121.02l1.59-1.62c1.755-1.77,2.985-3.135,2.985-5.025,0-1.92-1.185-3.105-3.39-3.105a5.719,5.719,0,0,0-2.985.945l.345,1.095a4.434,4.434,0,0,1,2.37-.855c1.5,0,2.175.675,2.175,2.07,0,1.5-1.05,2.715-2.565,4.29l-2.46,2.55Zm7.38,0h6.72V-.57H128.4l1.59-1.62c1.755-1.77,2.985-3.135,2.985-5.025,0-1.92-1.185-3.105-3.39-3.105a5.719,5.719,0,0,0-2.985.945l.345,1.095a4.434,4.434,0,0,1,2.37-.855c1.5,0,2.175.675,2.175,2.07,0,1.5-1.05,2.715-2.565,4.29l-2.46,2.55ZM137.94-.345c-1.635,0-2.49-1.26-2.49-3.9V-5.37c0-2.64.885-3.795,2.505-3.795,1.6,0,2.445,1.215,2.445,3.9V-4.17C140.4-1.44,139.545-.345,137.94-.345Zm0,1.14c2.19,0,3.915-1.47,3.915-5.13v-.93c0-3.735-1.77-5.04-3.9-5.04S133.95-9,133.95-5.2v.855C133.95-.705,135.69.8,137.94.8Zm7.65-.03c2.4,0,3.915-1.29,3.915-3.2a2.609,2.609,0,0,0-2.415-2.7,2.572,2.572,0,0,0,2.025-2.505c0-1.7-1.3-2.67-3.255-2.67a6.044,6.044,0,0,0-2.85.8l.2,1.11a5.066,5.066,0,0,1,2.355-.735c1.275,0,2.1.45,2.1,1.725,0,1.155-.915,1.83-2.28,1.845h-.945V-4.41h1.05c1.575,0,2.58.63,2.58,1.95s-.96,2.07-2.67,2.07a5.218,5.218,0,0,1-2.475-.69L142.635,0A5.487,5.487,0,0,0,145.59.765Zm4.53-4.725h5.25V-5.145h-5.25ZM156.105.6h6.72V-.57H158.04l1.59-1.62c1.755-1.77,2.985-3.135,2.985-5.025,0-1.92-1.185-3.105-3.39-3.105a5.719,5.719,0,0,0-2.985.945l.345,1.095a4.434,4.434,0,0,1,2.37-.855c1.5,0,2.175.675,2.175,2.07,0,1.5-1.05,2.715-2.565,4.29l-2.46,2.55ZM177.2,2.2v-4.98h-9.39V2.2Zm-9.345-12.93v1.14H175.7a22.473,22.473,0,0,1-.39,3.99h-9.1v1.14h12.6V-5.6h-2.115a27.662,27.662,0,0,0,.45-5.13ZM175.785,1.08h-6.57V-1.65h6.57Zm7.605-5.19h3.555v1.5a12.573,12.573,0,0,0-1.755-.12,11,11,0,0,0-1.8.135Zm1.8,2.55c2.055,0,3.435.45,3.435,1.4s-1.365,1.41-3.435,1.41c-2.055,0-3.42-.465-3.42-1.41S183.135-1.56,185.19-1.56Zm3.345-7.02c0,.945-1.32,1.5-3.36,1.5-2.07,0-3.345-.555-3.345-1.5s1.275-1.485,3.345-1.485S188.535-9.51,188.535-8.58Zm1.44,0c0-1.59-1.755-2.6-4.8-2.6s-4.8,1.005-4.8,2.6,1.755,2.61,4.8,2.61S189.975-6.975,189.975-8.58Zm.12,8.4a2.277,2.277,0,0,0-1.74-2.07V-4.11h3.12V-5.265h-12.6V-4.11h3.1v1.875A2.261,2.261,0,0,0,180.3-.18c0,1.635,1.83,2.565,4.89,2.565S190.1,1.455,190.1-.18Zm14.46-4.665v-1.17H202.32V-11.55h-1.41V2.4h1.41V-4.845Zm-7.44,2.61h-3.7V-9h3.7Zm1.41,1.14v-9.06H192V-1.1Zm11.955-4.47c0,2.145-.735,3.705-2.16,3.705s-2.16-1.56-2.16-3.705c0-2.16.735-3.72,2.16-3.72S210.48-7.725,210.48-5.565Zm-5.76-.015c0,2.775,1.125,4.935,3.6,4.935s3.57-2.16,3.57-4.92c0-2.775-1.1-4.935-3.57-4.935S204.72-8.34,204.72-5.58ZM215.73,2.4V-11.55h-1.41V2.4Zm3.09-11.085h4v-1.14H217.41V-1.02h1.455a25.372,25.372,0,0,0,4.725-.435l-.15-1.125a23.584,23.584,0,0,1-4.62.4Zm5.73,3.57V1.71h1.35V-11.25h-1.35v4.98h-3.135v1.155ZM228.69,2.4V-11.55h-1.365V2.4Zm7.14-7.965c0,2.145-.735,3.705-2.16,3.705s-2.16-1.56-2.16-3.705c0-2.16.735-3.72,2.16-3.72S235.83-7.725,235.83-5.565Zm-5.76-.015c0,2.775,1.125,4.935,3.6,4.935s3.57-2.16,3.57-4.92c0-2.775-1.1-4.935-3.57-4.935S230.07-8.34,230.07-5.58ZM241.08,2.4V-11.55h-1.41V2.4Zm12.6,0V-11.55h-1.41v5.235h-2.7V-5.13h2.7V2.4Zm-9.57-4.44V-5.3h4.62v-1.14h-4.62V-9.12h5.25v-1.14h-6.645V-.87h1.41a38.276,38.276,0,0,0,6.36-.465l-.2-1.155a30.518,30.518,0,0,1-5.835.45Zm20.85,3.105h-6.255V-1.56h6.255Zm1.41-4.5V-11.55h-1.41v8.115Zm-2.925-2.07a34.446,34.446,0,0,1-5.88.39h-.525V-6.87h4.965V-8H257.04v-1.56h5.175V-10.71H255.63v6.75h1.32a37.569,37.569,0,0,0,6.66-.435ZM266.37,2.2v-4.89H257.3V2.2Zm5.505.03a10.32,10.32,0,0,1-2.61-6.5v-.42a9.76,9.76,0,0,1,2.61-6.36h-1.2a9.051,9.051,0,0,0-2.82,6.5v.27a9.115,9.115,0,0,0,2.82,6.51ZM271.905.6h6.72V-.57H273.84l1.59-1.62c1.755-1.77,2.985-3.135,2.985-5.025,0-1.92-1.185-3.105-3.39-3.105a5.719,5.719,0,0,0-2.985.945l.345,1.095a4.434,4.434,0,0,1,2.37-.855c1.5,0,2.175.675,2.175,2.07,0,1.5-1.05,2.715-2.565,4.29l-2.46,2.55ZM283.38-.345c-1.635,0-2.49-1.26-2.49-3.9V-5.37c0-2.64.885-3.795,2.505-3.795,1.6,0,2.445,1.215,2.445,3.9V-4.17C285.84-1.44,284.985-.345,283.38-.345Zm0,1.14c2.19,0,3.915-1.47,3.915-5.13v-.93c0-3.735-1.77-5.04-3.9-5.04S279.39-9,279.39-5.2v.855C279.39-.705,281.13.8,283.38.8Zm4.875-.2h6.72V-.57H290.19l1.59-1.62c1.755-1.77,2.985-3.135,2.985-5.025,0-1.92-1.185-3.105-3.39-3.105a5.719,5.719,0,0,0-2.985.945l.345,1.095a4.434,4.434,0,0,1,2.37-.855c1.5,0,2.175.675,2.175,2.07,0,1.5-1.05,2.715-2.565,4.29l-2.46,2.55Zm7.38,0h6.72V-.57H297.57l1.59-1.62c1.755-1.77,2.985-3.135,2.985-5.025,0-1.92-1.185-3.105-3.39-3.105a5.719,5.719,0,0,0-2.985.945l.345,1.095a4.434,4.434,0,0,1,2.37-.855c1.5,0,2.175.675,2.175,2.07,0,1.5-1.05,2.715-2.565,4.29l-2.46,2.55Zm7.125.375h1.545V-.585H302.76Zm7.125-1.32c-1.635,0-2.49-1.26-2.49-3.9V-5.37c0-2.64.885-3.795,2.505-3.795,1.6,0,2.445,1.215,2.445,3.9V-4.17C312.345-1.44,311.49-.345,309.885-.345Zm0,1.14c2.19,0,3.915-1.47,3.915-5.13v-.93c0-3.735-1.77-5.04-3.9-5.04S305.9-9,305.9-5.2v.855C305.9-.705,307.635.8,309.885.8Zm7.65-.03c2.4,0,3.915-1.29,3.915-3.2a2.609,2.609,0,0,0-2.415-2.7,2.572,2.572,0,0,0,2.025-2.505c0-1.7-1.305-2.67-3.255-2.67a6.044,6.044,0,0,0-2.85.8l.2,1.11a5.066,5.066,0,0,1,2.355-.735c1.275,0,2.1.45,2.1,1.725,0,1.155-.915,1.83-2.28,1.845h-.945V-4.41h1.05c1.575,0,2.58.63,2.58,1.95s-.96,2.07-2.67,2.07a5.218,5.218,0,0,1-2.475-.69L314.58,0A5.487,5.487,0,0,0,317.535.765Zm4.395.21h1.545V-.585H321.93ZM324.96.6h6.72V-.57H326.9l1.59-1.62c1.755-1.77,2.985-3.135,2.985-5.025,0-1.92-1.185-3.105-3.39-3.105a5.719,5.719,0,0,0-2.985.945l.345,1.095a4.434,4.434,0,0,1,2.37-.855c1.5,0,2.175.675,2.175,2.07,0,1.5-1.05,2.715-2.565,4.29l-2.46,2.55Zm7.38,0h6.72V-.57h-4.785l1.59-1.62c1.755-1.77,2.985-3.135,2.985-5.025,0-1.92-1.185-3.105-3.39-3.105a5.719,5.719,0,0,0-2.985.945l.345,1.095a4.434,4.434,0,0,1,2.37-.855c1.5,0,2.175.675,2.175,2.07,0,1.5-1.05,2.715-2.565,4.29l-2.46,2.55Zm7.815,1.635a9.087,9.087,0,0,0,2.82-6.51v-.27a9.079,9.079,0,0,0-2.82-6.5H338.94a10.232,10.232,0,0,1,2.61,6.48v.42a9.724,9.724,0,0,1-2.61,6.375Z" transform="translate(-0.6 11.55)" fill="#4d4d4d"/>
</svg>
