<?xml version="1.0" encoding="utf-8"?>
<!-- Generator: Adobe Illustrator 26.0.3, SVG Export Plug-In . SVG Version: 6.00 Build 0)  -->
<svg version="1.1" id="_xB7__xB9_ÀÌ_xBE_î_x5F_1"
	 xmlns="http://www.w3.org/2000/svg" xmlns:xlink="http://www.w3.org/1999/xlink" x="0px" y="0px" viewBox="0 0 366 113"
	 style="enable-background:new 0 0 366 113;" xml:space="preserve">
<style type="text/css">
	.st0{fill:#FFFFFF;}
	.st1{fill:#6DB328;}
</style>
<g>
	<g>
		<g>
			<g>
				<polygon class="st0" points="237.75,99.66 237.75,83.97 232.27,83.97 232.27,99.66 228.56,99.66 228.56,83.97 223.09,83.97 
					223.09,99.66 215.7,99.66 215.7,104.07 249.47,104.07 249.47,99.66 				"/>
				<path class="st0" d="M240.84,95.37h3.55c1.34-7.11,2.29-15.95,2.84-21.88c0.3-3.19,0.32-4.9-2.45-4.9h-25.41v4.44h21.47V95.37z"
					/>
			</g>
			<g>
				<polygon class="st0" points="274.76,99.66 274.76,92.1 268.65,92.1 268.65,99.66 254.73,99.66 254.73,104.07 288.48,104.07 
					288.48,99.66 				"/>
				<path class="st0" d="M280.36,89.69c2.52,0,3.39-1.43,3.39-3.49V68.23h-6.1v7.29h-12.09v-7.29h-6.09V86.2
					c0,2.06,0.85,3.49,3.38,3.49H280.36z M265.56,85.91v-5.97h12.09v5.97H265.56z"/>
			</g>
			<g>
				<path class="st0" d="M356.53,92.27c-2.22-1.51-5.06-2.15-8.08-2.15c-3.03,0-5.85,0.63-8.11,2.15c-2.44,1.65-3.57,3.89-3.57,6.36
					c0,2.46,1.13,4.72,3.57,6.36c2.26,1.49,5.08,2.13,8.11,2.13c3.02,0,5.86-0.63,8.08-2.13c2.46-1.64,3.58-3.89,3.58-6.36
					C360.11,96.16,358.99,93.92,356.53,92.27z M352.74,101.64c-1.11,0.96-2.65,1.39-4.29,1.39c-1.66,0-3.2-0.43-4.3-1.39
					c-1.02-0.85-1.31-1.9-1.31-3.01c0-1.14,0.29-2.17,1.31-3.03c1.11-0.96,2.64-1.37,4.3-1.37c1.64,0,3.18,0.41,4.29,1.37
					c1.02,0.86,1.33,1.89,1.33,3.03C354.06,99.74,353.76,100.79,352.74,101.64z"/>
				<polygon class="st0" points="354.11,66.87 354.11,71.62 349.52,71.62 349.52,76.06 354.11,76.06 354.11,79.05 349.52,79.05 
					349.52,83.48 354.11,83.48 354.11,89.12 360.22,89.12 360.22,66.87 				"/>
				<path class="st0" d="M344.18,87.21c2.52,0,3.39-1.44,3.39-3.51V68.59h-16.62v15.11c0,2.07,0.85,3.51,3.39,3.51H344.18z
					 M341.46,73.04v9.75h-4.44v-9.75H341.46z"/>
			</g>
			<g>
				<path class="st0" d="M305.38,88.21l2.74-2.13c-4.51-5.29-5.81-10.76-5.81-17.85h-5.68c0,7.09-1.29,12.56-5.82,17.85l2.75,2.13
					c2.74-2.44,4.44-5.03,5.92-8.22C300.95,83.18,302.64,85.77,305.38,88.21z"/>
				<path class="st0" d="M318.93,92.56c-2.24-1.47-5.05-2.09-8.1-2.09c-3.04,0-5.84,0.62-8.08,2.09c-2.48,1.62-3.6,3.79-3.6,6.24
					c0,2.42,1.12,4.64,3.6,6.23c2.24,1.48,5.04,2.09,8.08,2.09c3.05,0,5.86-0.61,8.1-2.09c2.45-1.58,3.59-3.81,3.59-6.23
					C322.51,96.35,321.38,94.18,318.93,92.56z M315.15,101.69c-1.13,0.91-2.65,1.34-4.32,1.34c-1.65,0-3.19-0.43-4.31-1.34
					c-1.03-0.83-1.3-1.81-1.3-2.89c0-1.09,0.27-2.07,1.3-2.9c1.12-0.93,2.66-1.31,4.31-1.31c1.67,0,3.19,0.38,4.32,1.31
					c1,0.83,1.31,1.81,1.31,2.9C316.46,99.88,316.15,100.86,315.15,101.69z"/>
				<polygon class="st0" points="317.15,66.87 317.15,75.09 314.87,75.09 314.87,66.87 309.41,66.87 309.41,88.8 314.87,88.8 
					314.87,79.54 317.15,79.54 317.15,88.8 322.61,88.8 322.61,66.87 				"/>
			</g>
		</g>
	</g>
	<g>
		<path class="st0" d="M95.21,67.42c-4.98,0-9.35,1.65-12.31,4.71c-3.39,3.4-5.25,8.7-5.25,15c0,6.28,1.86,11.61,5.25,14.98
			c2.96,3.08,7.33,4.76,12.31,4.76c4.96,0,9.38-1.68,12.34-4.76c3.33-3.38,5.2-8.71,5.2-14.98c0-6.3-1.86-11.61-5.2-15
			C104.59,69.07,100.16,67.42,95.21,67.42z M102.31,98v0.02c-1.61,2.1-4.18,3.32-7.11,3.32c-2.89,0-5.5-1.22-7.08-3.32
			c-1.8-2.28-2.77-6.08-2.77-10.89c0-4.8,0.97-8.55,2.77-10.91c1.58-2.08,4.19-3.23,7.08-3.23c2.92,0,5.49,1.15,7.11,3.23
			c1.83,2.36,2.75,6.11,2.75,10.91C105.06,91.93,104.14,95.73,102.31,98z"/>
		<path class="st0" d="M191.31,72.13c-2.96-3.06-7.38-4.71-12.34-4.71c-4.98,0-9.35,1.65-12.32,4.71c-3.36,3.4-5.2,8.7-5.2,15
			c0,6.28,1.84,11.61,5.2,14.98c2.98,3.08,7.34,4.76,12.32,4.76c4.96,0,9.38-1.68,12.34-4.76c3.35-3.38,5.2-8.71,5.2-14.98
			C196.51,80.83,194.66,75.52,191.31,72.13z M186.09,98v0.02c-1.63,2.1-4.2,3.32-7.12,3.32c-2.88,0-5.49-1.22-7.08-3.34
			c-1.8-2.26-2.76-6.06-2.76-10.87c0-4.8,0.96-8.55,2.76-10.91c1.59-2.08,4.2-3.23,7.08-3.23c2.94,0,5.49,1.16,7.12,3.23
			c1.81,2.36,2.75,6.11,2.75,10.91C188.84,91.93,187.9,95.73,186.09,98z"/>
		<path class="st0" d="M60.32,105.97c-0.43-0.39-0.94-1.29-0.94-2.62v-13.7l12.59-21.4h-8.62c0.62,0.65,0.67,1.65-0.08,2.84
			l-6.81,11.99c-5.72-10.52-5.72-10.83-6.78-12.74c-0.81-1.45-1.48-2.09-3.03-2.09h-6.78c0.54,0.53,1.09,1.26,2.26,3.23l10.05,18.08
			v13.79c0,1.34-0.52,2.24-0.97,2.62H60.32z"/>
		<path class="st0" d="M124.75,105.97c0.43-0.39,0.95-1.29,0.95-2.62V70.9c0-1.35-0.52-2.26-0.95-2.65h12.33
			c5.88,0,11.06,2.9,11.06,8.51c0,2.37-1.09,5.74-3.82,7.22c3.31,1.3,6.83,4.4,6.83,9.66c0,3.89-1.92,7.31-4.48,9.28
			c-2.37,1.83-5.12,3.05-9.6,3.05H124.75z M132.9,82.5c1.36,0.15,4.1-0.02,5.27-0.63c1.18-0.65,2.53-1.54,2.53-3.93
			c0-2.27-1.96-4.26-4.8-4.26c-1.06,0-1.95,0.05-3,0.37V82.5z M140.96,99.63c2.14-1.4,2.63-3.42,2.63-5.54
			c0-4.13-3.58-6.04-7.03-6.04c-0.75,0-2.53,0.02-3.67,0.21v12.1C135.27,101.03,139.08,100.87,140.96,99.63z"/>
		<path class="st0" d="M7.45,103.35c0,1.33-0.51,2.24-0.93,2.62h9.08c-0.42-0.39-0.94-1.29-0.94-2.62V88.59l10.55,15.3
			c0.99,1.46,1.73,2.08,3.27,2.08h7.28c-0.58-0.51-1.24-1.25-2.62-3.21L21.24,85.62l12.17-17.37h-8.95c0.47,0.62,0.52,1.39-0.35,2.9
			l-9.44,13.81V70.9c0-1.35,0.52-2.26,0.94-2.65H6.52c0.41,0.4,0.93,1.3,0.93,2.65V103.35z"/>
	</g>
	<path class="st1" d="M208.18,16.6c-3.4-3.5-9-2.88-12.32,0.66c-4.3,4.58-7.65,6.3-11.63,6.12c-5.57-0.25-8.31-4.61-11.17-10.12
		c-2.97-5.75-7.55-8.95-13.24-8.95c-8.95,0-14.3,7.35-14.3,15.56c0,12.6,8.73,20.15,14.79,23.33c5.02,2.66,10.62,3.77,15.61,3.9
		c-0.31,3.01-1.18,7-2.15,9.8h0.52h4.65h4.62h0.46c-1.01-2.81-1.9-7.12-2.17-10.13c14.98-1.98,22.11-8.9,26.02-15.48
		c1.75-2.89,2.69-5.87,2.66-8.58C210.54,20.35,209.78,18.2,208.18,16.6z M159.92,24.49c-2.92,0.18-5.41-2.05-5.59-4.97
		c-0.19-2.94,2-5.47,4.92-5.64c2.88-0.2,5.36,2.03,5.53,4.96C164.97,21.78,162.78,24.3,159.92,24.49z"/>
</g>
<g>
</g>
<g>
</g>
<g>
</g>
<g>
</g>
<g>
</g>
<g>
</g>
<g>
</g>
<g>
</g>
<g>
</g>
<g>
</g>
<g>
</g>
<g>
</g>
</svg>
