<?xml version="1.0" encoding="iso-8859-1"?>
<!-- Generator: Adobe Illustrator 26.0.2, SVG Export Plug-In . SVG Version: 6.00 Build 0)  -->
<svg class="peach" version="1.1" id="&#xB808;&#xC774;&#xC5B4;_1" xmlns="http://www.w3.org/2000/svg" xmlns:xlink="http://www.w3.org/1999/xlink"
	 x="0px" y="0px" viewBox="0 0 536.743 175.748" style="enable-background:new 0 0 536.743 175.748;" xml:space="preserve">
<rect x="309.032" y="38.805" style="fill:#FFFFFF;" width="21.156" height="97.864"/>
<polygon style="fill:#FFFFFF;" points="32.821,8.195 17.081,23.791 38.206,45.505 53.788,29.903 "/>
<path style="fill:#FFFFFF;" d="M441.803,136.669h21.174h0.09V83.833c0-12.96,10.507-23.467,23.467-23.467
	c12.96,0,23.467,10.507,23.467,23.467v52.836h21.157V83.922c0-24.975-19.647-45.222-44.623-45.222h-0.001
	c-8.631,0-16.695,2.421-23.556,6.616v-0.594V8.35h-21.174V136.669z"/>
<path style="fill:#FFFFFF;" d="M281.222,38.805c-27.043,0-48.966,21.908-48.966,48.932c0,27.024,21.923,48.932,48.966,48.932
	s48.966-21.908,48.966-48.932C330.188,60.713,308.265,38.805,281.222,38.805z M281.222,115.527c-15.359,0-27.81-12.442-27.81-27.79
	c0-15.349,12.451-27.791,27.81-27.791c15.359,0,27.81,12.442,27.81,27.791C309.032,103.085,296.581,115.527,281.222,115.527z"/>
<path style="fill:#FFFFFF;" d="M104.103,52.124c-9.91-13.648-24.282-21.687-39.667-22.308v21.394H62.57h-0.647
	c-0.181,0-0.361,0.01-0.542,0.013c-23.278,0.263-42.7,17.384-44.33,39.205c-0.149,1.986-0.109,3.949,0.028,5.894v71.041h21.159
	v-37.393c3.517,2.093,7.361,3.764,11.497,4.873c4.957,1.33,9.897,1.966,14.719,1.966c21.935,0,41.384-13.181,48.283-34.369
	C118.147,85.832,114.919,67.022,104.103,52.124z M92.99,93.448c-0.189,0.79-0.398,1.575-0.65,2.349
	c-2.992,9.186-9.959,15.63-18.697,18.257c-2.898,0.952-5.991,1.474-9.207,1.474c-2.92,0-5.739-0.431-8.403-1.221
	c-5.141-1.526-9.694-4.412-13.243-8.245c-3.103-3.943-4.733-8.846-4.345-14.033c0.798-10.678,11.331-19.363,23.478-19.363v-0.02
	h2.512V56.536v-4.447v-0.801c8.463,0.636,16.506,5.452,22.307,13.442c3.451,4.753,5.682,10.088,6.617,15.512
	c0.373,1.873,0.572,3.808,0.572,5.79C93.932,88.593,93.604,91.078,92.99,93.448z"/>
<path style="fill:#FFFFFF;" d="M411.426,106.018c-5.097,5.823-12.578,9.51-20.928,9.51c-15.359,0-27.81-12.442-27.81-27.79
	c0-15.349,12.451-27.791,27.81-27.791c8.401,0,15.921,3.733,21.019,9.618l14.84-15.083c-8.941-9.625-21.681-15.676-35.859-15.676
	c-27.043,0-48.966,21.908-48.966,48.932c0,27.024,21.923,48.932,48.966,48.932c14.127,0,26.826-6.008,35.762-15.573L411.426,106.018
	z"/>
<path style="fill:#FFFFFF;" d="M200.645,104.998c-6.577,7.468-14.72,12.062-25.39,12.062c-13.579,0-23.774-6.735-27.09-18.476
	l-0.64-2.268h2.861h70.368l0.094-1.412c0.184-2.772,0.353-5.322,0.353-7.707c0-28.554-19.216-48.496-46.729-48.496
	c-27.873,0-48.104,20.478-48.104,48.69c0,28.554,20.23,49.279,48.104,49.279c16.515,0,31.247-7.299,39.784-19.316L201.37,104.11
	L200.645,104.998z M148.168,76.79c3.393-11.917,12.649-18.481,26.063-18.481c12.905,0,22.332,6.93,25.216,18.537l0.548,2.21h-2.299
	h-47.794h-2.379L148.168,76.79z"/>
<path style="fill:#FFFFFF;" d="M441.803,133.147v3.521h3.521C443.38,136.669,441.803,135.092,441.803,133.147z"/>
<path style="fill:#FFFFFF;" d="M459.438,136.669h3.521v-3.521C462.959,135.092,461.383,136.669,459.438,136.669z"/>
<path style="fill:#FFFFFF;" d="M445.325,38.805h-3.521v3.521C441.803,40.381,443.38,38.805,445.325,38.805z"/>
<path style="fill:#FFFFFF;" d="M462.959,42.326v-3.521h-3.521C461.383,38.805,462.959,40.381,462.959,42.326z"/>
<g>
</g>
<g>
</g>
<g>
</g>
<g>
</g>
<g>
</g>
<g>
</g>
</svg>