<svg xmlns="http://www.w3.org/2000/svg" width="162.963" height="17.727" viewBox="0 0 162.963 17.727">
  <path id="패스_7750" data-name="패스 7750" d="M-66.538-8.74v7.277h1.14V-14.25h-1.14v4.408h-4.9v1.1ZM-81.282-3.99c2.413-.456,4.9-1.881,5.358-4.37.456,2.489,2.945,3.914,5.358,4.37v-1.2c-2.28-.437-4.788-2.09-4.788-5.358v-2.033h4.6v-1.1H-81.092v1.1h4.6v2.033c0,3.268-2.508,4.921-4.788,5.358Zm16.245,6.973v-1.1H-78.546V-2.6h-1.14V2.983Zm1.71-9.31c3.724-.114,7.068-2.242,7.866-4.579.8,2.337,4.161,4.465,7.866,4.579v-1.1c-3.629-.152-7.3-2.641-7.3-5.3v-1.121h-1.14v1.121c0,2.66-3.648,5.149-7.3,5.3Zm8.436,9.5V-2.85h8.018V-3.971H-64.049V-2.85h8.018V3.173Zm24.624-.19V-14.25h-1.14V2.983Zm-16.055-.931c2.375-1.026,5.358-3.9,5.985-6.935.646,3.04,3.629,5.909,6,6.935V.646c-2.033-1.026-5.434-4.123-5.434-8.379v-4.408h4.826v-1.1H-45.733v1.1h4.826v4.408c0,4.256-3.382,7.353-5.415,8.379Zm33.5-6.954V-14.25h-1.14V-4.9ZM-17.8-6.954V-8.132l-8.816.855v-6.65h-1.14v7.961Zm3.838,9.348v.589h1.14V-3.933H-26.961V2.983ZM-25.821-2.812h11.856V1.273l-11.856.532ZM1.5-7.543a3.12,3.12,0,0,0,3.192-3.249A3.12,3.12,0,0,0,1.5-14.041H-6.973a3.12,3.12,0,0,0-3.192,3.249A3.12,3.12,0,0,0-6.973-7.543ZM-6.84-8.664a2.054,2.054,0,0,1-2.185-2.147A2.034,2.034,0,0,1-6.84-12.92H1.368a2.034,2.034,0,0,1,2.185,2.109A2.054,2.054,0,0,1,1.368-8.664ZM5.852-4.028v-1.1H-11.324v1.1ZM4.788,2.983v-1.1H-8.835V-2.394h-1.14V2.983ZM25.745-6.745H20.634V-9.709a4.418,4.418,0,0,0-4.712-4.408A4.428,4.428,0,0,0,11.21-9.709V-2a4.428,4.428,0,0,0,4.712,4.408A4.418,4.418,0,0,0,20.634-2V-5.643h5.111V2.983h1.14V-14.25h-1.14ZM19.494-1.938a3.3,3.3,0,0,1-3.572,3.23,3.3,3.3,0,0,1-3.572-3.23V-9.766A3.316,3.316,0,0,1,15.922-13a3.316,3.316,0,0,1,3.572,3.23ZM43.377-9.88v5.054h1.14V-14.25h-1.14v3.268H39.216v1.1Zm-9.9,2.831V-8.17l-3.534.456v-5h3.534v-1.121H28.8v7.41Zm7.315.057V-8.113l-5.434.608v-5.206h4.484v-1.121H34.219v7.6Zm4.37,4.541v-1.1h-7.6V-5.4h-1.14v1.843H28.861v1.1ZM29.393.874a2.236,2.236,0,0,0,2.451,2.2H42.2A2.236,2.236,0,0,0,44.65.874,2.236,2.236,0,0,0,42.2-1.33H31.844A2.236,2.236,0,0,0,29.393.874Zm2.6,1.1c-.893,0-1.463-.456-1.463-1.1S31.1-.228,32-.228H42.047c.893,0,1.463.456,1.463,1.1s-.57,1.1-1.463,1.1Zm21.3-8.759a31.786,31.786,0,0,0,.475-5.738V-13.4H46.265v1.1H52.63C52.668-4.864,50.616-.361,46.17,1.14V2.318c3.325-.988,5.738-3.439,6.878-8H57.1V2.983h1.14V-14.25H57.1v7.467ZM61.1,2.983h1.14V-14.25H61.1ZM71.155-9.861c0,2.071-3.762,2.945-3.762,5.776v2.356h1.026l.019-2.337c.019-2.565,3.857-3.23,3.857-5.8v-1.064c0-2.375-1.786-3.629-4.313-3.629-2.679,0-4.389,1.254-4.389,3.629v1.5h1.14v-1.387c0-1.672,1.121-2.717,3.249-2.717,2,0,3.173,1.026,3.173,2.7ZM68.628,2.432V1.026H67.222V2.432ZM80.541-9.861c0,2.071-3.762,2.945-3.762,5.776v2.356h1.026l.019-2.337c.019-2.565,3.857-3.23,3.857-5.8v-1.064c0-2.375-1.786-3.629-4.313-3.629-2.679,0-4.389,1.254-4.389,3.629v1.5h1.14v-1.387c0-1.672,1.121-2.717,3.249-2.717,2,0,3.173,1.026,3.173,2.7ZM78.014,2.432V1.026H76.608V2.432Z" transform="translate(81.282 14.554)" fill="#fff"/>
</svg>
