<svg xmlns="http://www.w3.org/2000/svg" xmlns:xlink="http://www.w3.org/1999/xlink" width="211.236" height="92" viewBox="0 0 211.236 92">
  <defs>
    <clipPath id="clip-path">
      <rect id="사각형_3196" data-name="사각형 3196" width="63.729" height="19.727" fill="none"/>
    </clipPath>
    <filter id="사각형_3539" x="91" y="0" width="31" height="30" filterUnits="userSpaceOnUse">
      <feOffset dx="2" dy="2" input="SourceAlpha"/>
      <feGaussianBlur result="blur"/>
      <feFlood flood-color="#f96d98" flood-opacity="0.302"/>
      <feComposite operator="in" in2="blur"/>
      <feComposite in="SourceGraphic"/>
    </filter>
  </defs>
  <g id="그룹_1738" data-name="그룹 1738" transform="translate(-108 -2125)">
    <g id="그룹_1737" data-name="그룹 1737">
      <path id="패스_7759" data-name="패스 7759" d="M-63.72-1.53l.828-11.5h-13.9v1.062h12.762L-64.8-1.53ZM-61.7,2.286V1.224h-6.174V-6.084h-1.08V1.224H-72.72V-6.084H-73.8V1.224h-4.176V2.286Zm15.642-6.408v-9h-1.08v3.078H-58.7v-3.078h-1.08v9ZM-58.7-8.982h11.556v3.816H-58.7ZM-44.784,2.286V1.224h-7.6V-3.024h-1.08V1.224h-7.6V2.286Zm11.97-6.228V-8.514h3.294v4.572h1.08V-13.5h-1.08v3.942h-3.294V-13.5h-1.08v9.558ZM-43.938-4.7c1.692-.648,3.744-2.322,4.14-4.392.414,1.98,2.43,3.582,4.14,4.212V-6.084a5.712,5.712,0,0,1-3.6-5.076v-2.124h-1.08v2.124a5.892,5.892,0,0,1-3.6,5.256Zm1.026,4.536A3.215,3.215,0,0,0-39.4,2.916h7.65a3.215,3.215,0,0,0,3.51-3.078,3.215,3.215,0,0,0-3.51-3.078H-39.4A3.215,3.215,0,0,0-42.912-.162Zm3.564,2.034A2.218,2.218,0,0,1-41.832-.162c0-1.224,1.1-2.016,2.484-2.016h7.542c1.386,0,2.484.792,2.484,2.016a2.218,2.218,0,0,1-2.484,2.034ZM-12.78-6.984V-3.87h1.08V-13.5h-1.08v2.106h-4.878V-13.1h-8.766v8.19h8.766v-2.07ZM-25.344-5.958v-6.084h6.606v6.084Zm12.564-2.07h-4.878V-10.35h4.878Zm-9.7,4.788a3.215,3.215,0,0,0-3.51,3.078,3.215,3.215,0,0,0,3.51,3.078h7.614a3.215,3.215,0,0,0,3.51-3.078,3.215,3.215,0,0,0-3.51-3.078Zm.054,5.112A2.218,2.218,0,0,1-24.912-.162c0-1.224,1.1-2.016,2.484-2.016h7.506c1.386,0,2.484.792,2.484,2.016a2.218,2.218,0,0,1-2.484,2.034Zm31.14.954V-5.58H11.3V-6.624H8.712V-13.5H7.632V2.826ZM2.5,1.1v.918h1.08V-12.69h-8.91V2.016Zm-6.75-12.744H2.5V.036L-4.248.81ZM26.442,2.826V-13.5h-1.08V2.826Zm-10.188-.54c2.628,0,4.662-1.692,4.662-4.176V-9.2c0-2.484-2.034-4.176-4.662-4.176S11.592-11.682,11.592-9.2V-1.89C11.592.594,13.626,2.286,16.254,2.286Zm0-1.062c-2.016,0-3.582-1.242-3.582-3.06V-9.252c0-1.8,1.566-3.06,3.582-3.06s3.582,1.26,3.582,3.06v7.416C19.836-.018,18.27,1.224,16.254,1.224Zm23.22,1.6V-13.5h-1.08v7.056H34.182V-5.4h4.212V2.826Zm4.086,0V-13.5H42.48V2.826Zm-7.308-1.6V.162L29.736.846V-11.646h5.922V-12.69h-7V2.016Zm24.03,1.6V-13.5H59.2V2.826Zm-10.188-.54c2.628,0,4.662-1.692,4.662-4.176V-9.2c0-2.484-2.034-4.176-4.662-4.176S45.432-11.682,45.432-9.2V-1.89C45.432.594,47.466,2.286,50.094,2.286Zm0-1.062c-2.016,0-3.582-1.242-3.582-3.06V-9.252c0-1.8,1.566-3.06,3.582-3.06s3.582,1.26,3.582,3.06v7.416C53.676-.018,52.11,1.224,50.094,1.224ZM77.2,2.826V-13.5h-1.08v8.766H70.884V-3.69h5.238V2.826ZM71.37-11.646V-12.69H62.5v1.044ZM72.594,1.062V.018L63.576.846V-7.326h7.578V-8.388H62.5v10.4Zm-105.246,17.7c2.088,0,3.8-1.134,3.8-3.33V13.794c0-2.178-1.71-3.33-3.8-3.33-2.106,0-3.816,1.152-3.816,3.33v1.638C-36.468,17.628-34.74,18.762-32.652,18.762Zm6.984.414V15.27H-22.5v3.906h1.08V10.5H-22.5v3.726h-3.168V10.5h-1.08v8.676Zm-6.984-1.458c-1.548,0-2.736-.81-2.736-2.322v-1.53c0-1.512,1.17-2.34,2.736-2.34,1.548,0,2.718.828,2.718,2.34V15.4C-29.934,16.908-31.1,17.718-32.652,17.718ZM-22.5,26.25v.576h1.08V20H-22.5v2.07H-34.632V20h-1.08v6.822Zm-12.132-3.114H-22.5v2.052l-12.132.54Zm26.676-7.362a2.676,2.676,0,0,0,2.934-2.538A2.676,2.676,0,0,0-7.956,10.7h-8.208A2.676,2.676,0,0,0-19.1,13.236a2.676,2.676,0,0,0,2.934,2.538Zm-8.082-1.062c-1.116,0-1.98-.558-1.98-1.494,0-.918.864-1.458,1.98-1.458h7.956c1.116,0,1.98.54,1.98,1.458,0,.936-.864,1.494-1.98,1.494Zm12.114,3.852V17.5H-20.2v1.062Zm-1.008,8.262V25.782H-17.838V24.018H-5.2V20.292H-18.918v1.044H-6.282V23.01H-18.918v3.816Zm20.268-12.51v4.572h1.08V10.5h-1.08v2.754h-4.7v1.062ZM1.368,18.33c2.16-.594,4.572-2.178,5.04-4.014.468,1.836,2.844,3.42,5.04,4.014V17.178c-2.106-.648-4.5-2.394-4.5-4.68V10.716H5.868V12.5c0,2.286-2.376,4.032-4.5,4.68Zm15.444,8.5V25.782h-13V23.73H16.47V19.7H2.736V20.76H15.39v1.962H2.736v4.1Zm1.3-.882c2.25-.972,5.094-3.69,5.706-6.57.594,2.88,3.438,5.6,5.706,6.57V24.612c-1.944-.972-5.166-3.906-5.166-7.938V13.956h4.968V12.894H24.354V10.23h-1.08v2.664H18.288v1.062h4.986v2.718c0,4.032-3.24,6.966-5.166,7.938Zm15.21.882V10.5h-1.1V26.826Zm9.936-12.69V13.092H39.78V10.23H38.7v2.862H35.208v1.044Zm3.15,12.69V18.6h3.1v8.226h1.08V10.5H49.5v7.038H46.4V10.5h-1.08V26.826Zm-10.872-4a3.465,3.465,0,0,0,3.708,3.456,3.465,3.465,0,0,0,3.708-3.456V19.212a3.465,3.465,0,0,0-3.708-3.456,3.465,3.465,0,0,0-3.708,3.456Zm3.708,2.394a2.462,2.462,0,0,1-2.628-2.448v-3.51a2.635,2.635,0,0,1,5.256,0v3.51A2.452,2.452,0,0,1,39.24,25.224ZM56.916,18.33c3.456-.126,6.624-2.25,7.344-4.68.72,2.43,3.906,4.554,7.344,4.68V17.286c-3.42-.144-6.678-2.754-6.75-5.022v-.108h6.57V11.112H57.1v1.044h6.57v.108c-.054,2.268-3.33,4.878-6.75,5.022ZM64.8,27.006V21.372h7.6V20.328H56.124v1.044h7.6v5.634Zm19.17-9.18v9h1.08V10.5H83.97v6.282H80.388v1.044Zm4.77,9V10.5H87.66V26.826Zm-15.516-.882a10.075,10.075,0,0,0,4.068-6.462,10.075,10.075,0,0,0,4.068,6.462v-1.4a10.723,10.723,0,0,1-3.528-7.92V10.986h-1.08V16.62a10.658,10.658,0,0,1-3.528,7.92Zm27.612-6.03a4.374,4.374,0,0,0,4.518-4.5,4.393,4.393,0,0,0-4.518-4.536H95.364a4.393,4.393,0,0,0-4.518,4.536,4.374,4.374,0,0,0,4.518,4.5ZM95.472,18.87a3.381,3.381,0,0,1-3.546-3.456,3.385,3.385,0,0,1,3.546-3.474h5.274a3.37,3.37,0,0,1,3.528,3.474,3.366,3.366,0,0,1-3.528,3.456Zm10.764,7.416V25.224h-4.284V20.8h-1.08v4.428H95.526V20.8h-1.08v4.428H89.964v1.062Z" transform="translate(213 2185)" fill="#525252"/>
      <g id="LOGO-Peach" transform="translate(108.293 2193.94)">
        <rect id="사각형_3194" data-name="사각형 3194" width="67" height="23" transform="translate(-0.293 0.06)" fill="rgba(255,221,75,0)"/>
        <g id="그룹_946" data-name="그룹 946" transform="translate(0.814 1.243)">
          <rect id="사각형_3195" data-name="사각형 3195" width="2.622" height="12.129" transform="translate(36.2 3.794)" fill="#ff415f"/>
          <path id="패스_6756" data-name="패스 6756" d="M2.047,0,.1,1.933,2.714,4.624,4.646,2.691Z" transform="translate(-0.081 0)" fill="#ff415f"/>
          <g id="그룹_945" data-name="그룹 945">
            <g id="그룹_944" data-name="그룹 944" clip-path="url(#clip-path)">
              <path id="패스_6757" data-name="패스 6757" d="M328.482,16.023h2.635V9.474a2.908,2.908,0,1,1,5.817,0v6.549h2.622V9.485a5.542,5.542,0,0,0-5.53-5.6h0a5.578,5.578,0,0,0-2.92.82V.119h-2.624Z" transform="translate(-275.827 -0.1)" fill="#05054b"/>
              <path id="패스_6758" data-name="패스 6758" d="M172.533,23.667a6.065,6.065,0,1,0,6.069,6.065,6.067,6.067,0,0,0-6.069-6.065m0,9.509a3.444,3.444,0,1,1,3.447-3.444,3.446,3.446,0,0,1-3.447,3.444" transform="translate(-139.78 -19.873)" fill="#05054b"/>
              <path id="패스_6759" data-name="패스 6759" d="M10.8,19.483a6.417,6.417,0,0,0-4.916-2.765V19.37H5.506A5.452,5.452,0,0,0,.012,24.23a5.024,5.024,0,0,0,0,.73v8.8H2.638V29.131a5.636,5.636,0,0,0,1.425.6,7.028,7.028,0,0,0,1.824.244,6.189,6.189,0,0,0,5.984-4.26,6.99,6.99,0,0,0-1.07-6.236M9.423,24.6c-.023.1-.049.2-.081.291a3.441,3.441,0,0,1-2.317,2.263A3.653,3.653,0,0,1,3.2,26.168a2.494,2.494,0,0,1-.538-1.739,2.83,2.83,0,0,1,2.91-2.4v0h.311V19.379a3.824,3.824,0,0,1,2.765,1.666,4.618,4.618,0,0,1,.82,1.922A3.675,3.675,0,0,1,9.423,24.6" transform="translate(0 -14.038)" fill="#05054b"/>
              <path id="패스_6760" data-name="패스 6760" d="M259.617,32a3.445,3.445,0,1,1,.011-4.518l1.839-1.869a6.065,6.065,0,1,0-.012,8.256Z" transform="translate(-210.727 -19.874)" fill="#05054b"/>
              <path id="패스_6761" data-name="패스 6761" d="M93.8,31.8A4.036,4.036,0,0,1,90.653,33.3a3.225,3.225,0,0,1-3.357-2.29l-.08-.281h9.076l.012-.175c.023-.344.044-.66.044-.955a5.649,5.649,0,0,0-5.792-6.011,5.8,5.8,0,0,0-5.962,6.035,5.838,5.838,0,0,0,5.962,6.108,5.979,5.979,0,0,0,4.931-2.394l-1.6-1.641Zm-6.5-3.5a3.076,3.076,0,0,1,3.23-2.291,3,3,0,0,1,3.125,2.3l.068.274h-6.5Z" transform="translate(-71.034 -19.805)" fill="#05054b"/>
            </g>
          </g>
        </g>
      </g>
    </g>
    <g id="그룹_1679" data-name="그룹 1679" transform="translate(199 2125)">
      <g transform="matrix(1, 0, 0, 1, -91, 0)" filter="url(#사각형_3539)">
        <rect id="사각형_3539-2" data-name="사각형 3539" width="29" height="28" rx="14" transform="translate(91)" fill="#f96d98"/>
      </g>
      <text id="_1" data-name="1" transform="translate(15 19)" fill="#fff" font-size="16" font-family="SDGothicNeoa-gBd, 'Sandoll GothicNeo1 \30 7 Bd'" letter-spacing="-0.06em"><tspan x="-3.392" y="0">1</tspan></text>
    </g>
  </g>
</svg>
