<svg xmlns="http://www.w3.org/2000/svg" width="281.645" height="76.495" viewBox="0 0 281.645 76.495">
  <path id="패스_7758" data-name="패스 7758" d="M-33.967-7.315V-26.25h-6.65v4.2H-56.472v-4.2h-6.685V-7.315ZM-56.472-17.08h15.855v4.515H-56.472ZM-32.5,5.18V-.525H-45.2V-6.09h-6.72V-.525h-12.67V5.18Zm19.845-25.41v-4.41h-6.37v-2.73h-6.51v2.73h-6.335v4.41Zm5.32,5.67v7h6.65V-26.635h-6.65v6.93h-4.76v5.145Zm-24.08.91a5.228,5.228,0,0,0,4.935,5.495h8.47a5.228,5.228,0,0,0,4.935-5.495c0-3.115-2.205-5.565-4.935-5.565h-8.47C-29.208-19.215-31.413-16.765-31.413-13.65Zm6.755,1.19a1.239,1.239,0,0,1-1.33-1.19,1.232,1.232,0,0,1,1.33-1.26h4.935a1.232,1.232,0,0,1,1.33,1.26,1.239,1.239,0,0,1-1.33,1.19ZM-7.332,4.83v.945h6.65V-6.545H-29.907V5.775ZM-23.257-2H-7.332V.245l-15.925.56ZM22.383-7.42c5.18,0,8.82-4.2,8.82-9.38,0-5.25-3.64-9.45-8.82-9.45H9.958c-5.145,0-8.785,4.2-8.785,9.45,0,5.18,3.64,9.38,8.785,9.38ZM11.778-12.88A3.723,3.723,0,0,1,7.963-16.8a3.743,3.743,0,0,1,3.815-3.92h8.855a3.743,3.743,0,0,1,3.815,3.92,3.723,3.723,0,0,1-3.815,3.92ZM32.253,5.18V-.63H.158V5.18ZM63.507-6.93v-5.075H40.618v-2.31h22.54v-11.76H33.967v4.9H56.543v2.17H33.967V-6.93Zm1.12,12.11V-.455H51.958V-5.74h-6.79V-.455H32.533V5.18ZM-110.04,39.955V16.365h-6.755v23.59Zm-31.045-4.025c4.795-1.12,8.575-3.6,10.64-7.21,2.065,3.605,5.88,6.09,10.675,7.21V30.05a10.1,10.1,0,0,1-7.315-9.975v-3.5h-6.685v3.5a10.1,10.1,0,0,1-7.315,9.975Zm31.605,12.845v-5.25H-132.2v-5.81h-6.86v11.06ZM-83.265,28.23a5.95,5.95,0,0,0,5.11-5.95,5.969,5.969,0,0,0-5.88-6.02h-18.1a5.946,5.946,0,0,0-5.88,6.02,5.885,5.885,0,0,0,5.285,5.95v2.485h-6.37v4.83H-77v-4.83h-6.265Zm-2.52-7.175a1.271,1.271,0,0,1,1.33,1.26,1.271,1.271,0,0,1-1.33,1.26h-14.49a1.242,1.242,0,0,1-1.295-1.26,1.242,1.242,0,0,1,1.295-1.26Zm-10.99,7.21h7.56v2.45h-7.56Zm-5.565,8.96a5.833,5.833,0,0,0-5.845,5.845,5.789,5.789,0,0,0,5.845,5.845h18.515a5.819,5.819,0,0,0,5.88-5.845,5.863,5.863,0,0,0-5.88-5.845Zm1.645,7A1.266,1.266,0,0,1-102.025,43a1.239,1.239,0,0,1,1.33-1.19h15.12A1.239,1.239,0,0,1-84.245,43a1.266,1.266,0,0,1-1.33,1.225Zm48.755-16.2v6.965h6.685V16.365H-51.94V23.19h-5.6v4.83Zm-24.395,6.65c4.515-.21,8.26-1.785,10.325-5.11,2,3.325,5.775,4.9,10.325,5.11V29.42c-4.06-.35-7.21-2.66-7.28-7.105v-.28h6.93V16.96h-19.95v5.075h6.93v.315c-.105,4.445-3.22,6.72-7.28,7.07ZM-51.94,47.83v.945h6.685V36H-74.34V48.775Zm-15.715-7.175H-51.94V43.21l-15.715.56ZM-43.12,31.59c7.56-.035,12.355-3.01,14.805-6.405,2.415,3.395,7.35,6.37,14.84,6.405V26.025C-20.72,25.99-24.92,21.4-24.92,17.8V16.75h-6.755V17.8c0,3.6-4.2,8.19-11.445,8.225Zm18.2,17.535V39.78h12.67v-5.6h-32.1v5.6H-31.71v9.345ZM15.12,27.18H21a5.652,5.652,0,0,0,5.88-5.425A5.685,5.685,0,0,0,21,16.26H2.87a5.663,5.663,0,0,0-5.88,5.495A5.63,5.63,0,0,0,2.87,27.18H8.715v1.785H-4.1v4.69H28v-4.69H15.12ZM3.43,21.79a1.2,1.2,0,0,1,1.3-1.12H19.25a1.137,1.137,0,1,1,0,2.24H4.725A1.2,1.2,0,0,1,3.43,21.79Zm23.1,21.77V35.055H-2.66v3.71H19.985v1.3H-2.66v8.715H27.055v-3.85H3.85V43.56Zm33.25,5.215V16.365H52.99v32.41Zm-8.715-2.94v-5.67L35.77,41.39V34.46H48.44V17.485H29.12v5.53H41.86V29.07H29.12V47.655Zm40.39-17.71V23.3H68.635v-7.07H62.09v11.9ZM92.75,36.07V30.82h-32.1v5.25Zm-.945,12.705v-5.11H68.74V37.89H62.09V48.775Zm33.95-26.53h-5.6v-5.5h-6.3v3.535H108.15V16.75h-6.4V33.515h18.41V27.67h5.6v6.825h6.685V16.365h-6.685ZM108.15,28.86V24.94h5.705v3.92Zm1.715,8.365v-1.89h-6.65v13.44l22.54-.945v.945h6.685V35.335h-6.685v1.89Zm0,6.755V41.6h15.89v1.82Zm24.675-4.235h5.705l.315-9.8V16.3h-6.37v13.65Zm5.775,8.82V42.72h-5.88v5.845Z" transform="translate(141.085 27.37)" fill="#f96d98"/>
</svg>
