<svg xmlns="http://www.w3.org/2000/svg" width="258.684" height="43.028" viewBox="0 0 258.684 43.028">
  <path id="패스_7761" data-name="패스 7761" d="M-55.968-1.056v-7.92h-.48v7.92ZM-65.9-2.7c1.38-.468,3.12-1.764,3.384-3.228.264,1.464,1.98,2.76,3.372,3.228v-.516c-1.332-.492-3.132-1.848-3.132-3.612V-8.82h-.48v1.992c0,1.764-1.8,3.12-3.144,3.612Zm10.176,4.572V1.4h-8.64v-3.12h-.48V1.872Zm8.688-7.164h.216a1.833,1.833,0,0,0,2.016-1.752,1.835,1.835,0,0,0-2.016-1.764h-5.22A1.835,1.835,0,0,0-54.06-7.044a1.833,1.833,0,0,0,2.016,1.752h.216v1.68h-3.024v.468h10.824v-.468H-47.04Zm-6.54-1.764c0-.8.684-1.284,1.572-1.284h5.136c.9,0,1.584.48,1.584,1.284s-.684,1.3-1.584,1.3h-5.136C-52.9-5.76-53.58-6.24-53.58-7.056Zm2.232,1.764h3.828v1.68h-3.828Zm-.852,3.54A1.773,1.773,0,0,0-54.12.06,1.773,1.773,0,0,0-52.2,1.872h5.532A1.78,1.78,0,0,0-44.748.06a1.78,1.78,0,0,0-1.92-1.812Zm.012,3.156A1.348,1.348,0,0,1-53.64.06a1.348,1.348,0,0,1,1.452-1.344h5.5A1.352,1.352,0,0,1-45.228.06,1.352,1.352,0,0,1-46.692,1.4Zm21.18-7.272V-2.76h.48V-8.976h-.48v2.64h-2.9v.468Zm-9.456,2.544c1.524-.324,3.132-1.32,3.36-2.976.24,1.656,1.848,2.652,3.36,2.976V-3.84a3.621,3.621,0,0,1-3.12-3.528v-.756h3v-.468h-6.48v.468h3v.756a3.621,3.621,0,0,1-3.12,3.528Zm9.456,4.812v.384h.48v-3.96h-8.988v3.96ZM-39.036-1.62h8.028V1.008l-8.028.372Zm10.092-2.388c2.3-.1,4.5-1.488,4.944-3.024.456,1.536,2.652,2.928,4.956,3.024v-.468c-2.268-.108-4.716-1.692-4.716-3.456V-8.7h-.48v.768c0,1.764-2.436,3.348-4.7,3.456Zm5.184,6V-1.932h5.172v-.48H-29.412v.48h5.172V1.992ZM-9.6-5.544h2.46A1.74,1.74,0,0,0-5.208-7.176,1.733,1.733,0,0,0-7.14-8.808h-5.4a1.729,1.729,0,0,0-1.92,1.632,1.736,1.736,0,0,0,1.92,1.632h2.46V-4.08h-5.172v.468H-4.428V-4.08H-9.6Zm-4.38-1.644c0-.72.648-1.152,1.488-1.152h5.316c.84,0,1.488.432,1.488,1.152s-.648,1.164-1.488,1.164h-5.316C-13.332-6.024-13.98-6.456-13.98-7.188ZM-5.328-.06V-2.388H-14.34v.468h8.532v1.4H-14.34V1.872h9.192V1.4H-13.86V-.06ZM6.288,1.872V-8.976h-.48V1.872ZM3.348.636V.168L-2.928.78v-4.4H2.4V-8.412H-3.408v.468H1.92v3.852H-3.408V1.3ZM17.46,1.872V-8.976h-.48V1.872ZM7.644,1.416c3.912-.816,6.228-3.8,6.228-9.4v-.432H7.7v.468h5.688C13.416-2.724,11.3.084,7.644.924Zm23.5-5.688V1.872h.48V-8.976h-.48V-4.74H28.02v.468Zm-9.576,5.52A7.691,7.691,0,0,0,25.3-3.516a7.652,7.652,0,0,0,3.732,4.764V.672c-1.284-.732-3.492-2.88-3.492-5.424V-8.64h-.48v3.888c0,2.544-2.22,4.692-3.492,5.424ZM42.9,1.872V-8.976h-.48V1.872ZM38.748.66V1.3h.48V-8.472h-.48v3.528H33.792V-8.472h-.48V1.3ZM33.792-4.476h4.956V.18L33.792.756ZM44.484-2.952c2.292-.108,4.5-1.62,4.956-3.3.456,1.68,2.676,3.192,4.968,3.3V-3.42c-2.268-.144-4.728-1.9-4.728-3.744v-1.6H49.2v1.6c0,1.848-2.448,3.6-4.716,3.744ZM54.852,1.476V1.008H44.028v.468Zm10.44-6.684v-.468H56.7V-8.928h-.48v3.72Zm.84,2.292v-.468H55.308v.468Zm-.72,4.788V1.4H56.7v-3h-.48V1.872ZM-124.7,11.824V7.588h-4.752V17.3l4.272-.612V17.3h.48v-5h2.34v5.58h.48V7.024h-.48v4.8Zm4.7,6.048h.48V7.024h-.48Zm-8.976-1.128V8.056h3.792V16.2Zm20.388-5.088v-.468h-8.652V7.3h-.48v4.356Zm-6.828,2.292-.948,3.984h.5l.936-3.984h3.84v3.984h.48V13.948h2.8V13.48h-10.824v.468Zm18.3-2.244-7.128-4.032v.492l6.708,3.8-6.708,3.552v.492l7.128-3.792Zm4.128-.684c2.112-.1,4.284-1.164,4.728-2.412.456,1.248,2.628,2.316,4.74,2.412v-.468c-2.052-.108-4.5-1.236-4.5-2.784V7.012h-.48v.756c0,1.548-2.436,2.676-4.488,2.784Zm10.14,2.472v-.468h-5.172V10.9h-.48v2.124h-5.172v.468Zm-.72,4.38V17.4h-8.712V14.632h-.48v3.24Zm4.512-4.536c1.644,0,2.988-.876,2.988-2.568v-1.2C-76.062,7.876-77.406,7-79.05,7s-2.988.876-2.988,2.568v1.2C-82.038,12.46-80.694,13.336-79.05,13.336Zm6.468,1.5V10.78h1.68V10.3h-1.68V7.024h-.48v7.812Zm-6.456-1.968c-1.44,0-2.52-.756-2.52-2.124V9.592c0-1.368,1.08-2.124,2.52-2.124s2.5.756,2.5,2.124v1.152C-76.542,12.112-77.61,12.868-79.038,12.868Zm6.7,5V17.4h-8.5v-3.12h-.48v3.588Zm11.4,0V7.024h-.48V17.872Zm-6.048-4.116c1.776,0,3.24-.972,3.24-2.736V9.892c0-1.764-1.464-2.736-3.24-2.736s-3.24.972-3.24,2.736V11.02C-70.23,12.784-68.766,13.756-66.99,13.756Zm0-.468c-1.572,0-2.76-.852-2.76-2.268V9.9c0-1.428,1.188-2.28,2.76-2.28s2.76.852,2.76,2.28V11.02C-64.23,12.436-65.406,13.288-66.99,13.288Zm4.572,3.264v-.468l-8.472.576v.468ZM-47.5,7.708l-.384,2.88h.492l.432-3.348h-9.024v.468Zm1.38,4.488v-.468H-56.946V12.2Zm-1.38,5.292v.384h.48V13.924h-9.012v3.948Zm-8.052-3.1H-47.5V17.02l-8.052.36Zm17.916-3.684a1.833,1.833,0,0,0,2.016-1.752,1.835,1.835,0,0,0-2.016-1.764h-5.22a1.835,1.835,0,0,0-2.016,1.764,1.833,1.833,0,0,0,2.016,1.752Zm-.048-3.048c.9,0,1.584.48,1.584,1.284s-.684,1.3-1.584,1.3h-5.136c-.888,0-1.572-.48-1.572-1.3s.684-1.284,1.572-1.284Zm2.844,4.284H-45.666v.468h3.144l-.432,1.836h-.06a1.773,1.773,0,0,0-1.92,1.812,1.773,1.773,0,0,0,1.92,1.812h5.532a1.78,1.78,0,0,0,1.92-1.812,1.78,1.78,0,0,0-1.92-1.812h-.156V12.412h2.8Zm-7.176.468h3.9v1.836H-42.45Zm5.976,3.648A1.352,1.352,0,0,1-37.506,17.4H-43a1.348,1.348,0,0,1-1.452-1.344A1.348,1.348,0,0,1-43,14.716h5.5A1.352,1.352,0,0,1-36.042,16.06Zm14.688,1.812V7.024h-.48V17.872Zm-4.152-1.212V17.3h.48V7.528h-.48v3.528h-4.956V7.528h-.48V17.3Zm-4.956-5.136h4.956V16.18l-4.956.576Zm19.908.2v6.144h.48V7.024h-.48V11.26h-3.12v.468Zm-9.576,5.52A7.691,7.691,0,0,0-16.4,12.484a7.652,7.652,0,0,0,3.732,4.764v-.576c-1.284-.732-3.492-2.88-3.492-5.424V7.36h-.48v3.888c0,2.544-2.22,4.692-3.492,5.424ZM1.29,11.7-5.838,7.672v.492l6.708,3.8L-5.838,15.52v.492L1.29,12.22ZM14.9,14.944V7.024h-.48v7.92ZM4.962,13.3c1.38-.468,3.12-1.764,3.384-3.228.264,1.464,1.98,2.76,3.372,3.228v-.516c-1.332-.492-3.132-1.848-3.132-3.612V7.18h-.48V9.172c0,1.764-1.8,3.12-3.144,3.612Zm10.176,4.572V17.4H6.5v-3.12h-.48v3.588Zm8.688-7.164h.216a1.833,1.833,0,0,0,2.016-1.752,1.835,1.835,0,0,0-2.016-1.764h-5.22a1.835,1.835,0,0,0-2.016,1.764,1.833,1.833,0,0,0,2.016,1.752h.216v1.68H16.014v.468H26.838v-.468H23.826Zm-6.54-1.764c0-.8.684-1.284,1.572-1.284h5.136c.9,0,1.584.48,1.584,1.284s-.684,1.3-1.584,1.3H18.858C17.97,10.24,17.286,9.76,17.286,8.944Zm2.232,1.764h3.828v1.68H19.518Zm-.852,3.54a1.815,1.815,0,1,0,0,3.624H24.2a1.815,1.815,0,1,0,0-3.624Zm.012,3.156a1.348,1.348,0,1,1,0-2.688h5.5a1.349,1.349,0,1,1,0,2.688Zm18.3-7.272V13.24h.48V7.024h-.48v2.64h-2.9v.468Zm-9.456,2.544c1.524-.324,3.132-1.32,3.36-2.976.24,1.656,1.848,2.652,3.36,2.976V12.16a3.621,3.621,0,0,1-3.12-3.528V7.876h3V7.408h-6.48v.468h3v.756a3.621,3.621,0,0,1-3.12,3.528Zm9.456,4.812v.384h.48v-3.96H28.47v3.96ZM28.95,14.38h8.028v2.628l-8.028.372Zm10.092-2.388c2.3-.1,4.5-1.488,4.944-3.024.456,1.536,2.652,2.928,4.956,3.024v-.468c-2.268-.108-4.716-1.692-4.716-3.456V7.3h-.48v.768c0,1.764-2.436,3.348-4.7,3.456Zm5.184,6V14.068H49.4v-.48H38.574v.48h5.172v3.924ZM53.3,13.3c2.244-.12,4.416-1.608,4.848-3.264.444,1.656,2.6,3.144,4.86,3.264v-.48c-2.172-.108-4.608-1.8-4.608-3.672V7.936h4.488V7.468H53.418v.468h4.488V9.148c0,1.872-2.436,3.564-4.608,3.672Zm10.26,4.176v-.468H58.386V13.564h-.48v3.444H52.734v.468ZM71.814,8.7V8.236H68.466V6.712h-.48V8.236h-3.36V8.7Zm2.364,9.168V7.024H73.7V17.872Zm-9.276-6.1a1.9,1.9,0,0,0,1.728,2h3.2a1.9,1.9,0,0,0,1.728-2,1.9,1.9,0,0,0-1.728-2h-3.2A1.9,1.9,0,0,0,64.9,11.776ZM66.774,13.3a1.461,1.461,0,0,1-1.392-1.524,1.465,1.465,0,0,1,1.392-1.536H69.69a1.464,1.464,0,0,1,1.392,1.536A1.461,1.461,0,0,1,69.69,13.3ZM72.7,16.888V16.42l-4.236.288V14.4h-.48v2.34L64.23,17v.468Zm5.652,1.1h.48L81.726,6.844h-.48Zm16.692-2.52V11.08h1.68v-.468h-1.68V7.024h-.48v8.448Zm-3.336-4.02.408-4.188H85.842v.468H91.6l-.372,3.72Zm1.86,1.476V12.46l-4.8.264V9.808h-.48v2.94l-3.048.168v.468Zm1.716,4.944V17.4h-8.28v-2.82h-.48v3.288Zm11.5,0V7.024h-.48V17.872Zm-2.94-1.236v-.468l-6.276.612v-4.4h5.328V7.588H97.086v.468h5.328v3.852H97.086V17.3Zm9.216-4.812V9.472a2.4,2.4,0,0,0-4.8,0V15.1a2.4,2.4,0,0,0,4.8,0V12.292h2.292v5.58h.48V7.024h-.48v4.8Zm4.656,6.048h.48V7.024h-.48ZM112.578,15.1a1.92,1.92,0,0,1-3.84,0V9.472a1.92,1.92,0,0,1,3.84,0Zm16.176-3.372v6.144h.48V7.024h-.48V11.26h-3.12v.468Zm-9.576,5.52a7.691,7.691,0,0,0,3.732-4.764,7.652,7.652,0,0,0,3.732,4.764v-.576c-1.284-.732-3.492-2.88-3.492-5.424V7.36h-.48v3.888c0,2.544-2.22,4.692-3.492,5.424ZM-49.056,28.856V27.32h.876A1.647,1.647,0,0,0-46.4,25.628a1.655,1.655,0,0,0-.708-1.344h1.3v-.468h-3.3v-1.1h-.48v1.1h-3.3v.468h1.308a1.6,1.6,0,0,0-.708,1.344,1.609,1.609,0,0,0,1.728,1.692h1.032v1.56l-3.876.24v.468l8.328-.516V28.6Zm5.448-5.832h-.48v7.212h.48V26.648h1.68V26.18h-1.68Zm-8.2,2.592a1.289,1.289,0,0,1,1.26-1.332h2.4a1.289,1.289,0,0,1,1.26,1.332,1.191,1.191,0,0,1-1.344,1.236H-50.5A1.18,1.18,0,0,1-51.8,25.616Zm7.716,5.664v2.712h.48V30.8h-8.856v.48Zm5.532-1.944c1.716,0,3.108-.876,3.108-2.568v-1.2c0-1.692-1.392-2.568-3.108-2.568s-3.12.876-3.12,2.568v1.2C-41.676,28.46-40.272,29.336-38.556,29.336Zm6.7,1.5V23.024h-.48v7.812Zm-6.7-1.968c-1.512,0-2.64-.756-2.64-2.124V25.592c0-1.368,1.128-2.124,2.64-2.124s2.628.756,2.628,2.124v1.152C-35.928,28.112-37.044,28.868-38.556,28.868Zm6.936,5V33.4h-8.856v-3.12h-.48v3.588Zm7.356-8.592v-.468H-27.2v-1.98h-.48v1.98h-2.94v.468Zm3.108,8.592V28.256h1.788v-.468h-1.788V23.024h-.48V33.872Zm-6.288-.4a2.672,2.672,0,0,0,2.952-2.628V29.192a2.672,2.672,0,0,0-2.952-2.628A2.678,2.678,0,0,0-30.4,29.192v1.656A2.678,2.678,0,0,0-27.444,33.476Zm0-.468a2.239,2.239,0,0,1-2.472-2.184V29.216a2.23,2.23,0,0,1,2.472-2.172,2.224,2.224,0,0,1,2.472,2.172v1.608A2.233,2.233,0,0,1-27.444,33.008Zm18.036-4.5V23.024h-.48v5.484Zm-9.936-.42c1.4-.4,3.12-1.524,3.384-2.8.264,1.272,1.956,2.4,3.372,2.8v-.5c-1.368-.432-3.132-1.632-3.132-3.168V23.18h-.48v1.236c0,1.536-1.776,2.736-3.144,3.168ZM-9.18,33.872V33.4h-8.736V31.736h8.508V29.18H-18.4v.468h8.508v1.608H-18.4v2.616Zm4.236-5.88c2.3-.1,4.5-1.488,4.944-3.024C.456,26.5,2.652,27.9,4.956,27.992v-.468C2.688,27.416.24,25.832.24,24.068V23.3H-.24v.768c0,1.764-2.436,3.348-4.7,3.456Zm5.184,6V30.068H5.412v-.48H-5.412v.48H-.24v3.924ZM12.324,28.52c1.716,0,3.108-.8,3.108-2.364v-.792c0-1.548-1.392-2.364-3.108-2.364s-3.12.816-3.12,2.364v.792C9.2,27.716,10.608,28.52,12.324,28.52Zm6.7.348V23.024h-.48v5.844Zm-6.7-.816c-1.512,0-2.64-.672-2.64-1.92v-.744c0-1.248,1.128-1.92,2.64-1.92s2.628.672,2.628,1.92v.744C14.952,27.38,13.836,28.052,12.324,28.052Zm2.208,6a3.61,3.61,0,0,0,2.556-2.316,3.327,3.327,0,0,0,2.724,2.136V33.4a2.814,2.814,0,0,1-2.484-2.568V29.528h-.48v1.308a3.178,3.178,0,0,1-2.316,2.736,3.164,3.164,0,0,1-2.3-2.724v-1.2h-.48v1.2A2.826,2.826,0,0,1,9.24,33.4v.468a3.33,3.33,0,0,0,2.748-2.136A3.637,3.637,0,0,0,14.532,34.052Zm6.18-7.572c2.172-.084,4.308-1.044,4.728-2.124.42,1.08,2.556,2.04,4.74,2.124v-.468c-2.052-.084-4.5-1.044-4.5-2.424v-.576H25.2v.576c0,1.38-2.436,2.34-4.488,2.424Zm10.14,1.932v-.468H20.028v.468Zm-1.38,5.148v.312h.48v-4.4h-.48v1.524H21.42V29.468h-.48v4.4Zm-8.052-2.1h8.052v1.632l-8.052.288Zm19.932,2.412V23.024h-.48V33.872Zm-2.88-1.26v-.48l-5.688.624V23.528H32.3V33.3Zm13.464,1.26V28.16h2.136v-.48H51.936V23.024h-.48V33.872Zm-2.448-1.26v-.468l-5.64.636V24.056h5.1v-.468h-5.58V33.3Z" transform="translate(129.45 8.976)" fill="#525252"/>
</svg>
