<svg xmlns="http://www.w3.org/2000/svg" xmlns:xlink="http://www.w3.org/1999/xlink" width="253.188" height="87.006" viewBox="0 0 253.188 87.006">
  <defs>
    <filter id="사각형_3539" x="112.432" y="0" width="31" height="30" filterUnits="userSpaceOnUse">
      <feOffset dx="2" dy="2" input="SourceAlpha"/>
      <feGaussianBlur result="blur"/>
      <feFlood flood-color="#f96d98" flood-opacity="0.302"/>
      <feComposite operator="in" in2="blur"/>
      <feComposite in="SourceGraphic"/>
    </filter>
  </defs>
  <g id="그룹_1739" data-name="그룹 1739" transform="translate(-86.568 -2263)">
    <path id="패스_7760" data-name="패스 7760" d="M-52.362-4.122v-9h-1.08v3.078H-65v-3.078h-1.08v9ZM-65-8.982h11.556v3.816H-65ZM-51.084,2.286V1.224h-7.6V-3.024h-1.08V1.224h-7.6V2.286Zm10.746-13.14v-1.062h-4.41V-13.95h-1.08v2.034h-4.428v1.062ZM-36-8.082v4.176h1.08V-13.5H-36v4.356h-3.762v1.062ZM-49.788-7.02a2.548,2.548,0,0,0,2.664,2.61h3.672a2.543,2.543,0,0,0,2.646-2.61,2.548,2.548,0,0,0-2.646-2.628h-3.672A2.552,2.552,0,0,0-49.788-7.02Zm2.952,1.566A1.659,1.659,0,0,1-48.708-7.02c0-.882.7-1.566,1.872-1.566h3.078c1.188,0,1.872.684,1.872,1.566,0,.864-.684,1.566-1.872,1.566ZM-36,2.268v.558h1.08v-5.8H-48.888v5.8ZM-47.808-1.908H-36V1.206l-11.808.522Zm33.3,4.734V-5.562h2.592V-6.624h-2.592V-13.5h-1.08V2.826Zm-14.544-.882c2.2-.972,4.968-3.69,5.562-6.57.594,2.88,3.366,5.6,5.58,6.57V.612c-1.89-.972-5.04-3.906-5.04-7.938V-11.5h4.464v-1.044H-28.494V-11.5h4.464v4.176c0,4.032-3.15,6.966-5.022,7.938ZM2.556-1.584V-7.632H5V-8.694H2.556V-13.5H1.476V-1.584Zm-14.508-2.3c2.16-.684,4.734-2.484,5.22-4.572.486,2.088,3.042,3.888,5.22,4.572V-5.04c-2.106-.72-4.68-2.7-4.68-5.292v-2.952h-1.08v2.952c0,2.592-2.574,4.572-4.68,5.292ZM2.916,2.826V1.782H-9.5V-2.592h-1.08V2.826ZM23.4-6.1V-1.71h1.08V-13.5H23.4v2.214H18.324a4.376,4.376,0,0,0-4.194-2.25c-2.484,0-4.518,1.332-4.518,3.87v1.854c0,2.556,2.034,3.87,4.518,3.87A4.359,4.359,0,0,0,18.27-6.1ZM10.692-9.594c0-1.872,1.476-2.88,3.456-2.88,1.944,0,3.42,1.008,3.42,2.88v1.728C17.568-5.994,16.092-5,14.148-5c-1.98,0-3.456-.99-3.456-2.862ZM23.4-7.146H18.594a3.992,3.992,0,0,0,.054-.666V-9.666a5.451,5.451,0,0,0-.036-.558H23.4ZM11.736-2.592h-1.08V2.826H24.822V1.782H11.736ZM40.032-7.2v1.926h1.08V-13.5h-1.08v1.872H35.748v1.044h4.284v2.34H35.208V-7.2ZM26.442-5.616c4.968-.126,8.64-1.62,8.64-6.75V-13.1h-8.55v1.062h7.452c0,3.942-2.934,5.256-7.542,5.364ZM41.454,2.826V1.782H28.512V-.288h12.6v-4.05H27.432v1.044h12.6v2h-12.6V2.826Zm21.222-13.68V-11.9H55.8V-13.95H54.72V-11.9H47.826v1.044ZM48.312-6.894A2.765,2.765,0,0,0,51.3-4.176h7.92a2.755,2.755,0,0,0,2.988-2.718,2.742,2.742,0,0,0-2.988-2.7H51.3A2.752,2.752,0,0,0,48.312-6.894Zm3.1,1.656a1.813,1.813,0,0,1-2.016-1.656A1.813,1.813,0,0,1,51.408-8.55h7.7a1.8,1.8,0,0,1,2.016,1.656,1.8,1.8,0,0,1-2.016,1.656ZM54.72-1.71V3.006H55.8V-1.71h7.6V-2.754H47.124V-1.71ZM64.836,3.6,65.682.756H64.224L63.882,3.6Zm-176.22,18.816V10.5h-1.08V22.416ZM-126.432,20c2.124-.684,4.662-2.484,5.13-4.572.486,2.088,2.988,3.888,5.13,4.572V18.852c-2.07-.72-4.59-2.7-4.59-5.292V10.716h-1.08V13.56c0,2.592-2.52,4.572-4.59,5.292Zm15.39,6.822V25.782h-12.8V21.408h-1.08v5.418Zm13.1-10.638h.252a2.809,2.809,0,0,0,3.024-2.736A2.812,2.812,0,0,0-97.686,10.7h-8.028a2.812,2.812,0,0,0-3.024,2.754,2.809,2.809,0,0,0,3.024,2.736h.27V18.42h-4.392v1.044h16.272V18.42h-4.374Zm-9.72-2.754c0-1.044.9-1.674,2.07-1.674h7.776c1.17,0,2.07.63,2.07,1.674,0,1.062-.9,1.71-2.07,1.71h-7.776C-106.758,15.144-107.658,14.5-107.658,13.434Zm3.294,2.754h5.346V18.42h-5.346Zm-1.566,5.076a2.721,2.721,0,0,0-2.9,2.79,2.721,2.721,0,0,0,2.9,2.79h8.46a2.721,2.721,0,0,0,2.9-2.79,2.721,2.721,0,0,0-2.9-2.79Zm.126,4.536a1.793,1.793,0,0,1-1.944-1.764,1.787,1.787,0,0,1,1.944-1.728h8.19a1.793,1.793,0,0,1,1.962,1.728A1.8,1.8,0,0,1-97.614,25.8Zm31.5-10.386V19.86h1.08V10.5H-74.3v3.852h-4.158v1.062Zm-13.968,3.78c2.286-.45,4.644-1.8,5.076-4.14.432,2.34,2.79,3.69,5.076,4.14V18.042a5.166,5.166,0,0,1-4.536-5.058v-.9H-78.3V11.04h-9.792v1.044h4.356v.9a5.166,5.166,0,0,1-4.536,5.058ZM-74.3,26.268v.558h1.08V20.8H-86.9v6.03Zm-11.52-4.428H-74.3v3.366l-11.52.522Zm14.832-3.834c3.528-.108,6.7-2.124,7.452-4.338.756,2.214,3.942,4.23,7.452,4.338V16.962C-59.526,16.818-63,14.46-63,11.94V10.878h-1.08V11.94c0,2.52-3.456,4.878-6.912,5.022Zm7.992,9V21.3h7.6V20.238H-71.676V21.3h7.6v5.706Zm21.24-11.232H-38.2a2.676,2.676,0,0,0,2.934-2.538A2.676,2.676,0,0,0-38.2,10.7H-46.4a2.676,2.676,0,0,0-2.934,2.538A2.676,2.676,0,0,0-46.4,15.774h3.564v1.89h-7.6v1.044h16.272V17.664h-7.6Zm-6.5-2.556c0-.918.864-1.458,1.98-1.458h7.956c1.116,0,1.98.54,1.98,1.458,0,.936-.864,1.494-1.98,1.494h-7.956C-47.394,14.712-48.258,14.154-48.258,13.218Zm12.816,10.8V20.292H-49.158v1.044h12.636V23.01H-49.158v3.816h13.986V25.782H-48.078V24.018Zm17.424,2.808V10.5H-19.1V26.826Zm-4.428-1.8V23.982l-9.2.864v-6.1h7.794V11.31h-8.874v1.044h7.794V17.7h-7.794v8.316Zm21.2,1.8V10.5h-1.08V26.826Zm-14.886-.63c5.9-1.206,9.486-5.652,9.486-13.968V11.31h-9.4v1.044h8.316c.036,7.47-3.06,11.5-8.406,12.726Zm31.536-9.522V15.612H2.682V14.19H15.318v-3.4H1.6v1.044H14.238v1.35H1.6v3.492Zm1.188,2.52V18.15H.324v1.044Zm-1.008,7.632V25.782H2.682V24.234H15.318V20.706H1.6v1.062H14.238v1.458H1.6v3.6Zm21.348-8.1V10.5h-1.08v8.226Zm-15.048-.45c2.214-.594,4.662-2.178,5.13-4.014.486,1.836,2.9,3.42,5.13,4.014V17.124c-2.16-.648-4.59-2.394-4.59-4.68V10.716h-1.08v1.728c0,2.286-2.43,4.032-4.59,4.68Zm15.372,8.55V25.782H24.336V23.73h12.6V19.662H23.256v1.044h12.6v1.962h-12.6v4.158Zm10.1-13.68V12.084H43.542V10.05h-1.08v2.034h-3.8v1.062Zm2.682,7.29V15.828H53.1v4.608h1.08V10.5H53.1v4.284H50.04V10.5H48.96v9.936ZM38.988,16.98a2.542,2.542,0,0,0,2.664,2.628H44.37a2.537,2.537,0,0,0,2.646-2.628,2.548,2.548,0,0,0-2.646-2.628H41.652A2.552,2.552,0,0,0,38.988,16.98ZM41.9,18.564a1.594,1.594,0,1,1,0-3.15h2.214a1.591,1.591,0,1,1,0,3.15Zm-2.34,5.454a3.046,3.046,0,0,0,3.33,2.9H51.03c1.872,0,3.348-1.17,3.348-2.9s-1.476-2.9-3.348-2.9H42.894A3.046,3.046,0,0,0,39.564,24.018Zm3.384,1.854c-1.278,0-2.3-.738-2.3-1.854s1.026-1.836,2.3-1.836h8.028c1.3,0,2.322.72,2.322,1.836s-1.026,1.854-2.322,1.854ZM63.774,14.136V13.092H60.3V10.23H59.22v2.862H55.728v1.044Zm3.15,12.69V18.6h3.1v8.226H71.1V10.5H70.02v7.038h-3.1V10.5h-1.08V26.826Zm-10.872-4a3.717,3.717,0,0,0,7.416,0V19.212a3.717,3.717,0,0,0-7.416,0Zm3.708,2.394a2.462,2.462,0,0,1-2.628-2.448v-3.51a2.635,2.635,0,0,1,5.256,0v3.51A2.452,2.452,0,0,1,59.76,25.224ZM77.436,18.33c3.456-.126,6.624-2.25,7.344-4.68.72,2.43,3.906,4.554,7.344,4.68V17.286c-3.42-.144-6.678-2.754-6.75-5.022v-.108h6.57V11.112H77.616v1.044h6.57v.108c-.054,2.268-3.33,4.878-6.75,5.022Zm7.884,8.676V21.372h7.6V20.328H76.644v1.044h7.6v5.634Zm19.17-9.18v9h1.08V10.5h-1.08v6.282h-3.582v1.044Zm4.77,9V10.5h-1.08V26.826Zm-15.516-.882a10.075,10.075,0,0,0,4.068-6.462,10.075,10.075,0,0,0,4.068,6.462v-1.4a10.723,10.723,0,0,1-3.528-7.92V10.986h-1.08V16.62a10.658,10.658,0,0,1-3.528,7.92Zm27.612-6.03a4.374,4.374,0,0,0,4.518-4.5,4.393,4.393,0,0,0-4.518-4.536h-5.472a4.393,4.393,0,0,0-4.518,4.536,4.374,4.374,0,0,0,4.518,4.5Zm-5.364-1.044a3.381,3.381,0,0,1-3.546-3.456,3.385,3.385,0,0,1,3.546-3.474h5.274a3.37,3.37,0,0,1,3.528,3.474,3.366,3.366,0,0,1-3.528,3.456Zm10.764,7.416V25.224h-4.284V20.8h-1.08v4.428h-5.346V20.8h-1.08v4.428h-4.482v1.062Z" transform="translate(213 2323)" fill="#525252"/>
    <g id="그룹_1720" data-name="그룹 1720" transform="translate(199 2263)">
      <g transform="matrix(1, 0, 0, 1, -112.43, 0)" filter="url(#사각형_3539)">
        <rect id="사각형_3539-2" data-name="사각형 3539" width="29" height="28" rx="14" transform="translate(112.43)" fill="#f96d98"/>
      </g>
      <text id="_2" data-name="2" transform="translate(15 19)" fill="#fff" font-size="16" font-family="SDGothicNeoa-gBd, 'Sandoll GothicNeo1 \30 7 Bd'" letter-spacing="-0.06em"><tspan x="-4.552" y="0">2</tspan></text>
    </g>
  </g>
</svg>
