<svg xmlns="http://www.w3.org/2000/svg" width="263.568" height="135.128" viewBox="0 0 263.568 135.128">
  <g id="그룹_1734" data-name="그룹 1734" transform="translate(-82.524 -282)">
    <path id="패스_7751" data-name="패스 7751" d="M21.648-2.112V-18h-1.44V-2.112ZM1.584-5.328c2.832-.912,6.216-3.312,6.84-6.1.648,2.784,3.984,5.184,6.84,6.1V-6.864c-2.76-.96-6.12-3.6-6.12-7.056v-3.792H7.7v3.792c0,3.456-3.36,6.1-6.12,7.056Zm20.52,9.1V2.376H5.04V-3.456H3.6V3.768ZM39.216-10.416h.336a3.745,3.745,0,0,0,4.032-3.648,3.749,3.749,0,0,0-4.032-3.672h-10.7a3.749,3.749,0,0,0-4.032,3.672,3.745,3.745,0,0,0,4.032,3.648h.36V-7.44H23.352v1.392h21.7V-7.44H39.216Zm-12.96-3.672c0-1.392,1.2-2.232,2.76-2.232H39.384c1.56,0,2.76.84,2.76,2.232,0,1.416-1.2,2.28-2.76,2.28H29.016C27.456-11.808,26.256-12.672,26.256-14.088Zm4.392,3.672h7.128V-7.44H30.648ZM28.56-3.648A3.628,3.628,0,0,0,24.7.072a3.628,3.628,0,0,0,3.864,3.72H39.84A3.628,3.628,0,0,0,43.7.072a3.628,3.628,0,0,0-3.864-3.72ZM28.728,2.4A2.39,2.39,0,0,1,26.136.048a2.383,2.383,0,0,1,2.592-2.3h10.92a2.391,2.391,0,0,1,2.616,2.3A2.4,2.4,0,0,1,39.648,2.4Zm35.88-13.848V-5.52h1.44V-18h-1.44v5.136H59.064v1.416ZM45.984-6.408c3.048-.6,6.192-2.4,6.768-5.52.576,3.12,3.72,4.92,6.768,5.52V-7.944c-2.88-.552-6.048-2.64-6.048-6.744v-1.2H59.28V-17.28H46.224v1.392h5.808v1.2c0,4.1-3.168,6.192-6.048,6.744ZM64.608,3.024v.744h1.44v-8.04H47.808v8.04Zm-15.36-5.9h15.36V1.608l-15.36.7ZM68.664-7.992c4.7-.144,8.928-2.832,9.936-5.784,1.008,2.952,5.256,5.64,9.936,5.784V-9.384c-4.584-.192-9.216-3.336-9.216-6.7V-17.5H77.88v1.416c0,3.36-4.608,6.5-9.216,6.7Zm10.656,12V-3.6H89.448V-5.016h-21.7V-3.6H77.88V4.008ZM110.064-9.768v-1.416H93.1v-1.9h16.848v-4.536H91.656v1.392H108.5v1.8H91.656v4.656Zm1.584,3.36V-7.8h-21.7v1.392ZM110.3,3.768V2.376H93.1V.312h16.848v-4.7H91.656v1.416H108.5v1.944H91.656v4.8Z" transform="translate(150 300)" fill="#fff"/>
    <path id="패스_7752" data-name="패스 7752" d="M16.524-6.664V.68h24v9.792h8.364V.68h5.44V-6.664h-5.44v-44.4H36.176Zm8.636,0L40.528-41.276V-6.664ZM53.652-2.176c0,8.976,7.276,14.008,16.388,14.008S86.428,6.8,86.428-2.176V-38.352c0-8.976-7.276-14.008-16.388-14.008S53.652-47.328,53.652-38.352Zm8.7-36.176c0-4.08,3.2-6.868,7.684-6.868s7.684,2.788,7.684,6.868V-2.176c0,4.08-3.2,6.868-7.684,6.868S62.356,1.9,62.356-2.176Zm76.3,8.092v14.62h9.52V-51.476h-9.52v13.668H125.868v7.548Zm-49.5,13.532c8.7-.952,16.66-4.692,19.72-12.036,2.992,7.344,10.948,11.084,19.72,12.036v-8.16c-7.956-1.02-15.164-6.188-15.232-15.98v-1.36h14.552V-49.98H89.828v7.752H104.38V-40.8c-.136,9.792-7.276,14.892-15.232,15.912Zm49.5,25.772v1.972h9.52V-13.056H93.5V11.016ZM103.088-5.712h35.564v7.48L103.088,3.2ZM211.276,11.016V-51.476H201.62V11.016Zm-39.848-1.5c10.4,0,18.428-6.6,18.428-16.32V-34.408c0-9.724-8.024-16.32-18.428-16.32S153-44.132,153-34.408V-6.8C153,2.924,161.024,9.52,171.428,9.52ZM171.5,1.5c-5.372,0-9.112-3.264-9.112-7.82v-28.56c0-4.42,3.74-7.82,9.112-7.82s9.112,3.4,9.112,7.82v28.56C180.608-1.768,176.868,1.5,171.5,1.5Zm98.532,9.52V-18.428h10.064v-8.636H270.028V-51.476h-9.52V11.016ZM255.544,5.168V-3.468L226.236-.952V-49.3h-9.52V8.5Z" transform="translate(66 368)" fill="#fff"/>
    <path id="패스_7753" data-name="패스 7753" d="M18.12-10.968h4.752c2.184,0,3.912-1.368,3.912-3.384s-1.728-3.384-3.912-3.384H11.928c-2.184,0-3.912,1.368-3.912,3.384s1.728,3.384,3.912,3.384H16.68v2.52H6.552v1.392h21.7V-8.448H18.12ZM9.456-14.376c0-1.224,1.152-1.944,2.64-1.944H22.7c1.488,0,2.64.72,2.64,1.944,0,1.248-1.152,1.992-2.64,1.992H12.1C10.608-12.384,9.456-13.128,9.456-14.376ZM26.544.024V-4.944H8.256v1.392H25.1V-1.32H8.256V3.768H26.9V2.376H9.7V.024Zm22.9-4.992V-18H48v2.4H42.288v1.392H48v2.688H42.288V-10.1H48v5.136ZM43.272-6.576V-7.968L31.248-7.56v-3.7H39.84l.744-6.216H29.808v1.416h9.168l-.432,3.408H29.808V-6.12Zm-3.144,10.7c2.52-.768,4.7-2.52,5.16-4.536.5,2.16,2.952,3.768,5.448,4.176v-1.3C47.976,1.9,45.912-.1,45.912-2.592v-1.56h-1.32v1.56c0,2.592-2.112,4.512-4.464,5.328-2.328-.816-4.44-2.688-4.44-5.28V-3.912h-1.32v1.368c0,2.52-2.064,4.416-4.848,5.016v1.3c2.544-.432,4.992-2.04,5.52-4.128C35.5,1.608,37.656,3.36,40.128,4.128Zm27.144-15.1c2.184,0,3.912-1.368,3.912-3.384s-1.728-3.384-3.912-3.384H56.328c-2.184,0-3.912,1.368-3.912,3.384s1.728,3.384,3.912,3.384ZM56.5-12.384c-1.488,0-2.64-.744-2.64-1.992,0-1.224,1.152-1.944,2.64-1.944H67.1c1.488,0,2.64.72,2.64,1.944,0,1.248-1.152,1.992-2.64,1.992ZM72.648-7.248V-8.664h-21.7v1.416ZM71.3,3.768V2.376H54.1V.024H70.944V-4.944H52.656v1.392H69.5V-1.32H52.656V3.768Zm21.48,0V-7.416h3.408V-8.832H92.784V-18h-1.44V3.768Zm-19.32-1.8c5.9-3.144,6.984-7.752,6.984-17.592v-1.3H73.7v1.392h5.3c0,8.52-.84,13.032-5.544,15.7Zm7.08,1.2c5.256-3.216,7.3-7.128,7.3-18.792v-1.3H81.624v1.392H86.4c0,10.536-1.7,14.064-5.856,16.9Zm29.3-8.616a5.833,5.833,0,0,0,6.024-6,5.858,5.858,0,0,0-6.024-6.048h-7.3a5.858,5.858,0,0,0-6.024,6.048,5.833,5.833,0,0,0,6.024,6ZM102.7-6.84a4.508,4.508,0,0,1-4.728-4.608A4.513,4.513,0,0,1,102.7-16.08h7.032a4.493,4.493,0,0,1,4.7,4.632,4.488,4.488,0,0,1-4.7,4.608Zm14.352,9.888V1.632h-5.712v-5.9H109.9v5.9h-7.128v-5.9h-1.44v5.9H95.352V3.048Zm10.488-15.5c0,2.616-4.752,3.72-4.752,7.3v2.976h1.3l.024-2.952c.024-3.24,4.872-4.08,4.872-7.32V-13.8c0-3-2.256-4.584-5.448-4.584-3.384,0-5.544,1.584-5.544,4.584v1.9h1.44v-1.752c0-2.112,1.416-3.432,4.1-3.432,2.52,0,4.008,1.3,4.008,3.408ZM124.344,3.072V1.3h-1.776V3.072Z" transform="translate(140 413)" fill="#fff"/>
  </g>
</svg>
