<svg xmlns="http://www.w3.org/2000/svg" width="248.976" height="102.128" viewBox="0 0 248.976 102.128">
  <g id="그룹_1735" data-name="그룹 1735" transform="translate(-89.224 -1029)">
    <path id="패스_7754" data-name="패스 7754" d="M-58.944-2.088l1.488-15.288H-75.984v1.416h16.968L-60.384-2.088Zm3.072,5.136V1.632h-21.7V3.048Zm28.056.72V-18h-1.44V3.768Zm-8.832-2.3V2.688h1.44v-19.7h-1.44v6.744h-9.144v-6.744h-1.44v19.7Zm-9.144-10.32h9.144v8.9L-45.792,1.08Zm41.04,1.824V-18h-1.44V-7.032ZM-12.168-8.16v-9.312H-24.192V-8.16Zm-10.584-7.9h9.144v6.48h-9.144ZM-4.3,3.768V2.376H-21.744V-.408H-4.752V-5.784H-23.184v1.392H-6.192v2.64H-23.184v5.52Zm18.288-13.3a3.941,3.941,0,0,0,4.032-4.1,3.941,3.941,0,0,0-4.032-4.1H3.288a3.941,3.941,0,0,0-4.032,4.1,3.941,3.941,0,0,0,4.032,4.1ZM3.456-10.944A2.594,2.594,0,0,1,.7-13.656a2.569,2.569,0,0,1,2.76-2.664H13.824a2.569,2.569,0,0,1,2.76,2.664,2.594,2.594,0,0,1-2.76,2.712ZM19.488-5.088V-6.48h-21.7v1.392ZM18.144,3.768V2.376H.936v-5.4H-.5V3.768Zm28.512,0V-7.416h3.456V-8.832H46.656V-18h-1.44V3.768Zm-8.28-2.3V2.688h1.44V-17.064h-1.44v6.792h-9v-6.792h-1.44V2.688Zm-9-10.344h9V.048l-9,1.032ZM70.344-5.064V-6.48H53.256v-4.1H70.1v-6.792H51.816v1.416H68.664v3.984H51.816v6.912Zm1.464,8.112V1.632H61.68V-3.624H60.24V1.632H50.112V3.048Zm2.4,1.752,1.128-3.792H73.392L72.936,4.8Z" transform="translate(214 1047)" fill="#fff"/>
    <path id="패스_7756" data-name="패스 7756" d="M-38.256-6.888c3.48,0,6.288-1.632,6.288-4.824v-1.512c0-3.168-2.808-4.824-6.288-4.824-3.456,0-6.288,1.656-6.288,4.824v1.512C-44.544-8.52-41.712-6.888-38.256-6.888Zm13.536.648V-18h-1.44V-6.24ZM-38.232-8.3c-2.784,0-4.872-1.2-4.872-3.48v-1.344c0-2.3,2.088-3.5,4.872-3.5,2.76,0,4.824,1.2,4.824,3.5v1.344C-33.408-9.5-35.472-8.3-38.232-8.3Zm4.416,12.432c2.472-.744,4.632-2.4,5.088-4.32.528,2.016,2.928,3.528,5.5,3.96V2.376c-2.808-.576-4.776-2.448-4.776-4.92V-4.968h-1.44v2.424c0,2.472-2.088,4.44-4.368,5.256C-36.1,1.9-38.16-.072-38.16-2.5V-4.728H-39.6V-2.5c0,2.424-2.016,4.3-4.848,4.872V3.768c2.616-.432,5.064-1.944,5.568-3.96C-38.424,1.68-36.288,3.36-33.816,4.128ZM-21.1-10.9c4.608-.144,8.688-1.968,9.576-4.008.888,2.04,4.968,3.864,9.576,4.008v-1.416c-4.2-.144-8.856-1.872-8.856-4.584v-1.152h-1.44V-16.9c0,2.712-4.632,4.44-8.856,4.584ZM-.672-6.984V-8.376h-21.7v1.392ZM-3.816,3.144v.624h1.44v-8.9h-1.44V-2.4H-19.224V-5.136h-1.44v8.9ZM-19.224-1.008H-3.816v2.76L-19.224,2.3ZM20.952,3.768V-18h-1.44V3.768Zm-5.784-2.4V-.1L3.936,1.056v-18.1H2.5V2.688Zm27.456,2.4V-7.416h4.128V-8.832H42.624V-18h-1.44V3.768Zm-5.016-2.4V-.024L26.592,1.128V-15.528h9.936V-16.92H25.152V2.688Z" transform="translate(214 1127)" fill="#fff"/>
    <path id="패스_7755" data-name="패스 7755" d="M-93.852-7.812v-18.9h-5.04v4.968h-18.936v-4.968h-5.04v18.9Zm-23.976-9.864h18.936v5.688h-18.936ZM-91.944,5.04V.612h-13.9v-6.8h-5.04v6.8h-13.9V5.04Zm22.1-26.028v-3.78h-7.524v-3.276h-4.968v3.276h-7.524v3.78Zm6.48,5.76v7.416h5.04v-19.44h-5.04v7.92h-5.688v4.1ZM-89.208-14A5.3,5.3,0,0,0-84.024-8.46h8.388A5.3,5.3,0,0,0-70.452-14a5.307,5.307,0,0,0-5.184-5.58h-8.388A5.307,5.307,0,0,0-89.208-14Zm6.7,1.836c-1.44,0-2.2-.828-2.2-1.836,0-1.044.756-1.872,2.2-1.872h5.4c1.44,0,2.232.828,2.232,1.872,0,1.008-.792,1.836-2.232,1.836ZM-63.36,4.788V5.832h5.04V-6.444H-87.552V5.832Zm-19.152-7.38H-63.36V.936l-19.152.756Zm57.24-7.7V-16.7h4.608v-4.32h-4.608v-6.228h-5.04V-10.3Zm-8.676-2.412V-17.1L-49.32-15.876V-26.748h-5.04v15.7Zm3.636,17.532V5.832h5.04V-9.108h-5.04V-5.94h-17.5V-9.108h-5.04V5.832Zm-17.5-6.912h17.5V.9l-17.5.72Zm57.636-8.28V-26.712H4.788v3.852H-14.148v-3.852h-5.04v16.344Zm-23.976-8.5H4.788v4.428H-14.148ZM-2.124,6.192V-2.88h13.86V-7.164H-21.1V-2.88h13.86V6.192Zm48.168-.36V-9.684h4.392V5.832H55.08V-27.252H50.436v13.14H46.044v-13.14H41.508V5.832ZM39.708,2.7V-1.872L28.8-.612V-26.1H23.976V4.5ZM84.24-23.868H75.708c-1.656-2.268-4.608-3.42-7.992-3.42-5.112,0-9.324,2.664-9.324,7.812v2.664c0,5.148,4.212,7.776,9.324,7.776,3.276,0,6.192-1.08,7.848-3.2H84.24v4.428h5.04v-19.44H84.24Zm-11.952,7.2c0,2.448-1.98,3.744-4.536,3.744-2.592,0-4.536-1.3-4.536-3.744V-19.62c0-2.448,1.944-3.78,4.536-3.78,2.556,0,4.536,1.332,4.536,3.78Zm4.716.5a3.912,3.912,0,0,0,.036-.648v-3.132h7.2v3.78Zm7.128,13.9v8.46H89.28V-6.444H59.832v4.176Zm23.832-11.664v-5.724a7.156,7.156,0,0,0-7.488-7.2c-4.212,0-7.524,2.952-7.524,7.2v17.5c0,4.248,3.312,7.2,7.524,7.2a7.156,7.156,0,0,0,7.488-7.2V-9.54h4.428V5.832h4.5V-27.252h-4.5v13.32Zm11.7,19.764H124.2V-27.252h-4.536ZM103.536-2.232A2.911,2.911,0,0,1,100.512.792a2.911,2.911,0,0,1-3.024-3.024V-19.584a2.932,2.932,0,0,1,3.024-3.024,2.932,2.932,0,0,1,3.024,3.024Z" transform="translate(214 1090)" fill="#fff"/>
  </g>
</svg>
