<svg xmlns="http://www.w3.org/2000/svg" xmlns:xlink="http://www.w3.org/1999/xlink" width="230.4" height="91.794" viewBox="0 0 230.4 91.794">
  <defs>
    <clipPath id="clip-path">
      <rect id="사각형_3196" data-name="사각형 3196" width="63.62" height="19.693" fill="#fff"/>
    </clipPath>
  </defs>
  <g id="그룹_1722" data-name="그룹 1722" transform="translate(-98.304 -1209.433)">
    <path id="패스_7757" data-name="패스 7757" d="M-62.982-4.122v-9h-1.08v3.078H-75.618v-3.078H-76.7v9Zm-12.636-4.86h11.556v3.816H-75.618ZM-61.7,2.286V1.224h-7.6V-3.024h-1.08V1.224h-7.6V2.286Zm10.746-13.14v-1.062h-4.41V-13.95h-1.08v2.034h-4.428v1.062Zm4.338,2.772v4.176h1.08V-13.5h-1.08v4.356h-3.762v1.062ZM-60.408-7.02a2.548,2.548,0,0,0,2.664,2.61h3.672a2.543,2.543,0,0,0,2.646-2.61,2.548,2.548,0,0,0-2.646-2.628h-3.672A2.552,2.552,0,0,0-60.408-7.02Zm2.952,1.566A1.659,1.659,0,0,1-59.328-7.02c0-.882.7-1.566,1.872-1.566h3.078c1.188,0,1.872.684,1.872,1.566,0,.864-.684,1.566-1.872,1.566ZM-46.62,2.268v.558h1.08v-5.8H-59.508v5.8ZM-58.428-1.908H-46.62V1.206l-11.808.522Zm29.466-2.07V-5.04H-41.778V-8.028h12.636v-5H-42.858v1.062h12.636v2.9H-42.858v5.094Zm1.1,6.264V1.224h-4.374V-2.9h-1.08V1.224h-5.346V-2.9h-1.08V1.224h-4.392V2.286Zm19.512-7.47V-8.91h2.736V-9.972H-8.352V-13.5h-1.08v8.316Zm-4.266-1.458V-7.758l-8.262.72v-6.156h-1.08v7.362Zm3.186,8.928v.54h1.08V-4.338h-1.08v2.232H-20.124V-4.338H-21.2V2.826Zm-10.692-3.33H-9.432V1.242l-10.692.468ZM9.018-5.436v-7.686H7.938v2.448H-3.618v-2.448H-4.7v7.686ZM-3.618-9.612H7.938V-6.48H-3.618ZM2.7,3.006V-2.232h7.6V-3.294H-5.976v1.062h7.6V3.006Zm19.116-.18V-5.4H25.56V2.826h1.08V-13.5H25.56v7.038H21.816V-13.5h-1.08V2.826Zm-2.574-1.71V0L12.816.774V-12.78h-1.08v14.8ZM42.3-11.448H37.17a4.377,4.377,0,0,0-4.14-2.088c-2.484,0-4.518,1.278-4.518,3.744v1.386c0,2.484,2.034,3.744,4.518,3.744A4.417,4.417,0,0,0,37.152-6.7H42.3v2.79h1.08V-13.5H42.3ZM36.468-8.46c0,1.782-1.476,2.736-3.42,2.736-1.98,0-3.456-.954-3.456-2.736V-9.72c0-1.782,1.476-2.754,3.456-2.754,1.944,0,3.42.972,3.42,2.754Zm1.026.7a3.629,3.629,0,0,0,.054-.648V-9.792c0-.216-.018-.414-.036-.612H42.3v2.646ZM42.3-1.926V3.006h1.08V-2.97h-14v1.044ZM55.656-3.942a4.427,4.427,0,0,0,4.518-4.59,4.417,4.417,0,0,0-4.518-4.59H50.184a4.417,4.417,0,0,0-4.518,4.59,4.427,4.427,0,0,0,4.518,4.59ZM50.292-5a3.418,3.418,0,0,1-3.546-3.528,3.418,3.418,0,0,1,3.546-3.528h5.274a3.4,3.4,0,0,1,3.528,3.528A3.4,3.4,0,0,1,55.566-5Zm10.764,7.29V1.224H44.784V2.286ZM76.878-3.8V-4.86H64.062V-7.938H76.7v-5.094H62.982v1.062H75.618v2.988H62.982V-3.8Zm1.1,6.084V1.224h-7.6V-2.718H69.3V1.224H61.7V2.286Zm-159.66,21.13V11.5h-1.08V23.416ZM-96.732,21c2.124-.684,4.662-2.484,5.13-4.572.486,2.088,2.988,3.888,5.13,4.572V19.852c-2.07-.72-4.59-2.7-4.59-5.292V11.716h-1.08V14.56c0,2.592-2.52,4.572-4.59,5.292Zm15.39,6.822V26.782h-12.8V22.408h-1.08v5.418Zm13.1-10.638h.252a2.809,2.809,0,0,0,3.024-2.736A2.812,2.812,0,0,0-67.986,11.7h-8.028a2.812,2.812,0,0,0-3.024,2.754,2.809,2.809,0,0,0,3.024,2.736h.27V19.42h-4.392v1.044h16.272V19.42h-4.374Zm-9.72-2.754c0-1.044.9-1.674,2.07-1.674h7.776c1.17,0,2.07.63,2.07,1.674,0,1.062-.9,1.71-2.07,1.71h-7.776C-77.058,16.144-77.958,15.5-77.958,14.434Zm3.294,2.754h5.346V19.42h-5.346Zm-1.566,5.076a2.721,2.721,0,0,0-2.9,2.79,2.721,2.721,0,0,0,2.9,2.79h8.46a2.721,2.721,0,0,0,2.9-2.79,2.721,2.721,0,0,0-2.9-2.79ZM-76.1,26.8a1.793,1.793,0,0,1-1.944-1.764A1.787,1.787,0,0,1-76.1,23.308h8.19a1.793,1.793,0,0,1,1.962,1.728A1.8,1.8,0,0,1-67.914,26.8Zm27.18-10.386V20.86h1.08V11.5h-1.08v3.852h-4.158v1.062Zm-13.968,3.78c2.286-.45,4.644-1.8,5.076-4.14.432,2.34,2.79,3.69,5.076,4.14V19.042a5.166,5.166,0,0,1-4.536-5.058v-.9h4.356V12.04h-9.792v1.044h4.356v.9a5.166,5.166,0,0,1-4.536,5.058Zm13.968,7.074v.558h1.08V21.8h-13.68v6.03Zm-11.52-4.428h11.52v3.366l-11.52.522Zm14.832-3.834c3.528-.108,6.7-2.124,7.452-4.338.756,2.214,3.942,4.23,7.452,4.338V17.962c-3.438-.144-6.912-2.5-6.912-5.022V11.878H-38.7V12.94c0,2.52-3.456,4.878-6.912,5.022Zm7.992,9V22.3h7.6V21.238H-46.3V22.3h7.6v5.706Zm21.24-11.232h3.564a2.676,2.676,0,0,0,2.934-2.538A2.676,2.676,0,0,0-12.816,11.7h-8.208a2.676,2.676,0,0,0-2.934,2.538,2.676,2.676,0,0,0,2.934,2.538h3.564v1.89h-7.6v1.044H-8.784V18.664h-7.6Zm-6.5-2.556c0-.918.864-1.458,1.98-1.458h7.956c1.116,0,1.98.54,1.98,1.458,0,.936-.864,1.494-1.98,1.494H-20.9C-22.014,15.712-22.878,15.154-22.878,14.218Zm12.816,10.8V21.292H-23.778v1.044h12.636V24.01H-23.778v3.816H-9.792V26.782H-22.7V25.018ZM7.362,27.826V11.5H6.282V27.826Zm-4.428-1.8V24.982l-9.2.864v-6.1H1.53V12.31H-7.344v1.044H.45V18.7H-7.344v8.316Zm21.2,1.8V11.5h-1.08V27.826ZM9.252,27.2c5.9-1.206,9.486-5.652,9.486-13.968V12.31h-9.4v1.044h8.316c.036,7.47-3.06,11.5-8.406,12.726ZM44.3,18.79v9.036h1.08V11.5H44.3v6.246H39.762V18.79Zm-14.13,8.154c2.214-1.134,5-3.96,5.58-6.858.576,2.9,3.366,5.724,5.58,6.858V25.612c-1.908-1.116-5.04-4.14-5.04-8.154V11.986h-1.08v5.472c0,4.014-3.132,7.038-5.04,8.154Zm32.13.882V11.5h-1.08V27.826ZM55.674,26.1v.918h1.08V12.238h-1.08V17.3H48.816V12.238h-1.08V27.016Zm-6.858-7.74h6.858v6.678l-6.858.774Zm15.7,2.286C68,20.5,71.226,18.322,72,15.892c.774,2.43,4.014,4.608,7.488,4.752V19.6c-3.438-.216-6.948-2.862-6.948-5.526V11.788H71.46v2.286c0,2.664-3.492,5.31-6.948,5.526Zm15.624,6.642V26.224H63.864v1.062ZM95.868,17.278V16.234H83.142v-4.68h-1.08v5.724Zm1.188,3.51V19.726H80.784v1.062Zm-1.008,7.038V26.782H83.142V22.516h-1.08v5.31ZM-103.824,45.914a4.374,4.374,0,0,0,4.518-4.5,4.393,4.393,0,0,0-4.518-4.536H-109.3a4.393,4.393,0,0,0-4.518,4.536,4.374,4.374,0,0,0,4.518,4.5Zm-5.364-1.044a3.381,3.381,0,0,1-3.546-3.456,3.385,3.385,0,0,1,3.546-3.474h5.274a3.37,3.37,0,0,1,3.528,3.474,3.366,3.366,0,0,1-3.528,3.456Zm10.764,7.416V51.224h-7.6V46.76h-1.08v4.464h-7.6v1.062Zm16.02-5.994V36.5h-1.08v9.792Zm-15.048-.9c2.3-.432,4.68-1.8,5.13-4.14.45,2.34,2.826,3.708,5.13,4.14V44.24c-2.178-.414-4.59-1.98-4.59-5.058v-1.1h4.41V37.04h-9.9v1.044h4.41v1.1c0,3.078-2.394,4.644-4.59,5.058Zm13.968,2.88v4.734h1.08V47.228h-13.86v1.044Zm21.2.2.828-11.5h-13.9V38.03h12.762l-.774,10.44Zm2.016,3.816V51.224h-6.174V43.916h-1.08v7.308H-71.28V43.916h-1.08v7.308h-4.176v1.062Zm15.642-6.408v-9H-45.7v3.078H-57.258V36.878h-1.08v9Zm-12.636-4.86H-45.7v3.816H-57.258Zm13.914,11.268V51.224h-7.6V46.976h-1.08v4.248h-7.6v1.062Zm11.97-6.228V41.486h3.294v4.572H-27V36.5h-1.08v3.942h-3.294V36.5h-1.08v9.558ZM-42.5,45.3c1.692-.648,3.744-2.322,4.14-4.392.414,1.98,2.43,3.582,4.14,4.212V43.916a5.712,5.712,0,0,1-3.6-5.076V36.716H-38.9V38.84A5.892,5.892,0,0,1-42.5,44.1Zm1.026,4.536a3.215,3.215,0,0,0,3.51,3.078h7.65a3.215,3.215,0,0,0,3.51-3.078,3.215,3.215,0,0,0-3.51-3.078h-7.65A3.215,3.215,0,0,0-41.472,49.838Zm3.564,2.034a2.218,2.218,0,0,1-2.484-2.034c0-1.224,1.1-2.016,2.484-2.016h7.542c1.386,0,2.484.792,2.484,2.016a2.218,2.218,0,0,1-2.484,2.034Zm26.568-8.856V46.13h1.08V36.5h-1.08v2.106h-4.878V36.9h-8.766v8.19h8.766v-2.07ZM-23.9,44.042V37.958H-17.3v6.084Zm12.564-2.07h-4.878V39.65h4.878Zm-9.7,4.788a3.215,3.215,0,0,0-3.51,3.078,3.215,3.215,0,0,0,3.51,3.078h7.614a3.215,3.215,0,0,0,3.51-3.078,3.215,3.215,0,0,0-3.51-3.078Zm.054,5.112a2.218,2.218,0,0,1-2.484-2.034c0-1.224,1.1-2.016,2.484-2.016h7.506c1.386,0,2.484.792,2.484,2.016a2.218,2.218,0,0,1-2.484,2.034Zm93.474-8.3V40.208a3.627,3.627,0,0,0-7.254,0v8.5a3.627,3.627,0,0,0,7.254,0V44.618h3.168v8.208h1.08V36.5h-1.08v7.074ZM79.2,52.826h1.08V36.5H79.2ZM71.406,48.7a2.547,2.547,0,0,1-5.094,0v-8.5a2.547,2.547,0,0,1,5.094,0ZM95.778,43.79v9.036h1.08V36.5h-1.08v6.246H91.242V43.79Zm-14.13,8.154c2.214-1.134,5-3.96,5.58-6.858.576,2.9,3.366,5.724,5.58,6.858V50.612c-1.908-1.116-5.04-4.14-5.04-8.154V36.986h-1.08v5.472c0,4.014-3.132,7.038-5.04,8.154Zm31.608-3.492V42.368H115.7V41.306h-2.448V36.5h-1.08V48.452Zm-5.418-3.384V36.9H99.072v8.172Zm-7.686-7.11h6.606v6.048h-6.606Zm13.464,14.868V51.782H101.052V47.174h-1.08v5.652Zm-141.12,25V69.438H-24.7V68.376H-27.5V61.5h-1.08V77.826Zm-13.914-.63c5.724-1.206,9.036-5.652,9.036-13.968V62.31h-8.946v1.044h7.866c.036,7.47-2.808,11.484-7.956,12.726Zm31.446-10.44V65.712H-22.7V61.554h-1.08v5.2Zm1.188,3.258V68.97H-25.056v1.044Zm-15.264,4.932a2.765,2.765,0,0,0,2.9,2.9h8.46a2.765,2.765,0,0,0,2.9-2.9,2.775,2.775,0,0,0-2.9-2.9h-8.46A2.775,2.775,0,0,0-24.048,74.946Zm3.024,1.854a1.845,1.845,0,0,1-1.944-1.872,1.827,1.827,0,0,1,1.944-1.836h8.19a1.832,1.832,0,0,1,1.962,1.836A1.85,1.85,0,0,1-12.834,76.8ZM2.664,64.146V63.084h-4.77V61.05h-1.08v2.034h-4.77v1.062ZM6.7,70.716V66.288H9.144V65.244H6.7V61.5H5.616v9.216ZM-7.488,67.89a2.508,2.508,0,0,0,2.664,2.52H-.45A2.5,2.5,0,0,0,2.2,67.89,2.506,2.506,0,0,0-.45,65.352H-4.824A2.511,2.511,0,0,0-7.488,67.89Zm2.952,1.476c-1.17,0-1.872-.666-1.872-1.476,0-.828.7-1.476,1.872-1.476h3.78c1.188,0,1.872.648,1.872,1.476,0,.81-.684,1.476-1.872,1.476Zm10.152,7.92v.54H6.7V71.544H5.616V73.4H-5.652V71.544h-1.08v6.282ZM-5.652,74.442H5.616v1.8l-11.268.468Zm29.646,3.384V61.5h-1.08V77.826Zm-4.338-1.8v-1.1l-8.424.864V62.22h-1.08v14.8Zm20.232,1.8V69.438h3.1V68.376h-3.1V61.5h-1.08V77.826Zm-3.762-1.8V74.982l-8.262.864V63.354h7.452V62.31H26.784V77.016Z" transform="translate(213 1223.383)" fill="#fff"/>
    <g id="그룹_1717" data-name="그룹 1717" transform="translate(210.38 1259.701)">
      <rect id="사각형_3195" data-name="사각형 3195" width="2.617" height="12.108" transform="translate(36.137 3.787)" fill="#fff"/>
      <path id="패스_6756" data-name="패스 6756" d="M2.044,0,.1,1.93,2.71,4.616l1.928-1.93Z" transform="translate(-0.081 0)" fill="#fff"/>
      <g id="그룹_945" data-name="그룹 945">
        <g id="그룹_944" data-name="그룹 944" clip-path="url(#clip-path)">
          <path id="패스_6757" data-name="패스 6757" d="M328.482,16h2.631V9.458a2.9,2.9,0,1,1,5.807,0V16h2.618V9.469a5.532,5.532,0,0,0-5.521-5.6h0a5.568,5.568,0,0,0-2.914.819V.119h-2.62Z" transform="translate(-275.917 -0.1)" fill="#fff"/>
          <path id="패스_6758" data-name="패스 6758" d="M172.522,23.667a6.054,6.054,0,1,0,6.058,6.054,6.056,6.056,0,0,0-6.058-6.054m0,9.493a3.438,3.438,0,1,1,3.441-3.438,3.44,3.44,0,0,1-3.441,3.438" transform="translate(-139.826 -19.88)" fill="#fff"/>
          <path id="패스_6759" data-name="패스 6759" d="M10.782,19.478a6.406,6.406,0,0,0-4.908-2.76v2.647H5.5A5.442,5.442,0,0,0,.012,24.217a5.015,5.015,0,0,0,0,.729v8.79H2.633V29.11a5.626,5.626,0,0,0,1.423.6,7.016,7.016,0,0,0,1.821.243A6.179,6.179,0,0,0,11.851,25.7a6.978,6.978,0,0,0-1.068-6.225M9.407,24.591c-.023.1-.049.195-.08.291A3.435,3.435,0,0,1,7.013,27.14,3.647,3.647,0,0,1,3.2,26.151a2.489,2.489,0,0,1-.538-1.736,2.825,2.825,0,0,1,2.9-2.4v0h.311V19.375a3.817,3.817,0,0,1,2.76,1.663,4.61,4.61,0,0,1,.819,1.919,3.668,3.668,0,0,1-.046,1.634" transform="translate(0 -14.043)" fill="#fff"/>
          <path id="패스_6760" data-name="패스 6760" d="M259.6,31.984a3.439,3.439,0,1,1,.011-4.51l1.836-1.866a6.054,6.054,0,1,0-.012,8.242Z" transform="translate(-210.796 -19.881)" fill="#fff"/>
          <path id="패스_6761" data-name="패스 6761" d="M93.784,31.789a4.029,4.029,0,0,1-3.141,1.492A3.219,3.219,0,0,1,87.291,31l-.079-.281h9.06l.012-.175c.023-.343.044-.658.044-.954a5.639,5.639,0,0,0-5.782-6,5.792,5.792,0,0,0-5.952,6.024,5.828,5.828,0,0,0,5.952,6.1,5.969,5.969,0,0,0,4.922-2.39l-1.594-1.638ZM87.291,28.3a3.071,3.071,0,0,1,3.225-2.287,3,3,0,0,1,3.12,2.294l.068.273H87.211Z" transform="translate(-71.057 -19.812)" fill="#fff"/>
        </g>
      </g>
    </g>
  </g>
</svg>
