<svg xmlns="http://www.w3.org/2000/svg" width="235.95" height="9.37" viewBox="0 0 235.95 9.37">
  <g id="그룹_1679" data-name="그룹 1679" transform="translate(-63.4 -8245.3)">
    <path id="패스_7740" data-name="패스 7740" d="M7.86,1.28V.7H2.2V-1.38H1.52V1.28ZM4.93-.44V-2.33H8.8v-.58H.4v.58H4.25V-.44ZM8.34-4.25C6.92-4.41,4.97-5.31,4.96-6.59H7.97v-.58H1.21v.58H4.26C4.25-5.31,2.42-4.41.87-4.24l.32.55C2.88-3.97,4.25-4.83,4.6-5.65A5.007,5.007,0,0,0,8.02-3.68Zm4.67.7H10.25V-5.1h2.76Zm.68.58V-7.2h-.68v1.52H10.25V-7.2H9.57v4.23ZM16,.9H11.5V-.37H16Zm.69.57V-2.18H16V-.93H11.5V-2.15h-.69V1.47ZM16-4.8v2.12h.68V-7.7H16v2.32H14.24v.58Zm2.17-2.23v.58h3.48a4.866,4.866,0,0,1-3.9,3.6l.36.58c2.34-.72,4.11-2.18,4.31-4.76ZM24.24.88H19.81v-2.2h4.43Zm.68.58V-1.9H19.13V1.46Zm1.44-6.14v-.58H24.91V-7.7h-.68v5.31h.68V-4.68Zm5.76,3.46a4.777,4.777,0,0,1-2.48-3.87V-6.83h-.7v1.76a5.312,5.312,0,0,1-2.5,4.1l.47.53a6.558,6.558,0,0,0,2.38-3.18A6.638,6.638,0,0,0,31.67-.68Zm2,2.82V-7.7h-.68V1.6Zm3.72-8.05a1.581,1.581,0,0,1,1.7,1.64,1.573,1.573,0,0,1-1.7,1.63,1.621,1.621,0,0,1-1.7-1.65A1.6,1.6,0,0,1,37.84-6.45Zm0-.6a2.262,2.262,0,0,0-2.4,2.24,2.26,2.26,0,0,0,2.4,2.23,2.27,2.27,0,0,0,2.4-2.25A2.253,2.253,0,0,0,37.84-7.05Zm5.18,8.32V.69H37.43V-1.56h-.68V1.27ZM42.78-.95V-7.7H42.1V-.95Zm6.89-1.63c-.58.08-1.59.16-2.66.22V-3c.98-.06,1.77-.43,1.77-1.22,0-.87-.97-1.23-2.1-1.23s-2.08.37-2.08,1.24c0,.78.76,1.14,1.73,1.21v.68c-.99.05-1.92.07-2.56.07l.12.6c.67,0,1.83-.05,2.88-.12,1.14-.07,2.27-.18,2.95-.26Zm2.79-1.38v-.58H51.01V-7.7h-.68v6.17h.68V-3.96ZM44.99-1.05v.58h5.34V1.67h.68V-1.05Zm3.15-3.17c0,.48-.68.68-1.46.68s-1.43-.19-1.43-.68.65-.67,1.43-.67S48.14-4.7,48.14-4.22Zm1.21-1.56v-.58H44.09v.58ZM47.97-6.96v-.6H45.43v.6Zm7.27.51a1.581,1.581,0,0,1,1.7,1.64,1.573,1.573,0,0,1-1.7,1.63,1.621,1.621,0,0,1-1.7-1.65A1.6,1.6,0,0,1,55.24-6.45Zm0-.6a2.262,2.262,0,0,0-2.4,2.24,2.26,2.26,0,0,0,2.4,2.23,2.27,2.27,0,0,0,2.4-2.25A2.253,2.253,0,0,0,55.24-7.05Zm5.18,8.32V.69H54.83V-1.56h-.68V1.27ZM60.18-.95V-7.7H59.5V-.95Zm9.07,2.48V.95h-5.6V-.2h5.24V-2.32H62.96v.58h5.25v1H62.97V1.53ZM67.18-4.02c-.36.06-.94.11-1.63.15l.24-2.12-.68-.09-.19,2.24c-.49.03-1.02.04-1.56.06l-.17-2.27-.69.09.24,2.19c-.42.01-.85.01-1.25.01l.11.62a55.252,55.252,0,0,0,5.64-.33Zm1.7,1.25V-7.7H68.2v4.93ZM66.67-6.51v-.57H61.73v.57Zm8.05.33c1.17,0,1.66.88,1.66,2.24v.2a2.155,2.155,0,0,1-1.64.94,1.451,1.451,0,0,1-1.55-1.64A1.548,1.548,0,0,1,74.72-6.18Zm-.01-.65a2.312,2.312,0,0,0-2.28,2.47,2.133,2.133,0,0,0,2.18,2.22,2.252,2.252,0,0,0,1.77-.82C76.3-.93,75.64-.11,74.45-.11a3.165,3.165,0,0,1-1.46-.35l-.23.55a3.359,3.359,0,0,0,1.72.44c1.72,0,2.66-1.38,2.66-3.8v-.46C77.14-5.75,76.27-6.83,74.71-6.83ZM77.8-3.34v.59h3.5v-.59ZM82.03.4h4.4V-.26H83.1l1.18-1.18c1.29-1.32,1.97-2.11,1.97-3.33a1.95,1.95,0,0,0-2.18-2.07,3.668,3.668,0,0,0-1.95.67l.25.61a2.85,2.85,0,0,1,1.62-.61,1.281,1.281,0,0,1,1.47,1.46c0,1.04-.66,1.79-1.67,2.84L82.03-.05ZM87.2.4h4.4V-.26H88.27l1.18-1.18c1.29-1.32,1.97-2.11,1.97-3.33a1.95,1.95,0,0,0-2.18-2.07,3.668,3.668,0,0,0-1.95.67l.25.61a2.85,2.85,0,0,1,1.62-.61,1.281,1.281,0,0,1,1.47,1.46c0,1.04-.66,1.79-1.67,2.84L87.2-.05Zm7.84-.51c-1.13,0-1.76-.86-1.76-2.66V-3.6c0-1.8.63-2.59,1.77-2.59s1.73.83,1.73,2.64v.83C96.78-.86,96.17-.11,95.04-.11Zm0,.64c1.44,0,2.51-1,2.51-3.38v-.68c0-2.47-1.12-3.3-2.5-3.3S92.48-6,92.48-3.49v.63C92.48-.47,93.6.53,95.04.53ZM98.54.4h4.4V-.26H99.61l1.18-1.18c1.29-1.32,1.97-2.11,1.97-3.33a1.95,1.95,0,0,0-2.18-2.07,3.668,3.668,0,0,0-1.95.67l.25.61a2.85,2.85,0,0,1,1.62-.61,1.281,1.281,0,0,1,1.47,1.46c0,1.04-.66,1.79-1.67,2.84L98.54-.05Zm5.05-3.74v.59h3.5v-.59ZM107.82.4h4.4V-.26h-3.33l1.18-1.18c1.29-1.32,1.97-2.11,1.97-3.33a1.95,1.95,0,0,0-2.18-2.07,3.668,3.668,0,0,0-1.95.67l.25.61a2.85,2.85,0,0,1,1.62-.61,1.281,1.281,0,0,1,1.47,1.46c0,1.04-.66,1.79-1.67,2.84L107.82-.05Zm14.52,1.06V-1.81h-6.25V1.46Zm-6.2-8.61v.58h5.42a17.31,17.31,0,0,1-.27,2.95h-6.28v.58h8.4v-.58h-1.44a18.512,18.512,0,0,0,.3-3.53ZM121.66.88h-4.89V-1.23h4.89Zm6.25-2.53a8.284,8.284,0,0,0-1.3.1V-2.84h2.59v1.28A8.33,8.33,0,0,0,127.91-1.65Zm2.47-4.11c0,.78-.99,1.12-2.47,1.12s-2.46-.34-2.46-1.12.98-1.11,2.46-1.11S130.38-6.53,130.38-5.76Zm-2.47,4.69c1.63,0,2.6.38,2.6,1.07,0,.71-.97,1.07-2.6,1.07S125.32.71,125.32,0C125.32-.69,126.29-1.07,127.91-1.07Zm3.16-4.69c0-1.1-1.19-1.68-3.16-1.68s-3.17.58-3.17,1.68,1.2,1.69,3.17,1.69S131.07-4.65,131.07-5.76ZM131.19,0c0-.67-.46-1.14-1.31-1.41V-2.84h2.23v-.58h-8.4v.58h2.22v1.45c-.84.28-1.29.76-1.29,1.39,0,1.04,1.18,1.65,3.27,1.65S131.19,1.06,131.19,0Zm9.9-3.33v-.58h-1.57V-7.7h-.68V1.6h.68V-3.33Zm-4.78,1.94h-2.84V-6.13h2.84Zm.68.58v-5.9h-4.2v5.9Zm8.44-2.89c0,1.54-.64,2.65-1.61,2.65s-1.6-1.11-1.6-2.65.63-2.66,1.6-2.66S145.43-5.25,145.43-3.7Zm-3.88-.01c0,1.98.81,3.27,2.27,3.27s2.27-1.29,2.27-3.26-.81-3.27-2.27-3.27S141.55-5.68,141.55-3.71Zm7.13,5.31V-7.7H148V1.6Zm5.51-3.27a17.987,17.987,0,0,1-3.3.3V-5.93h2.87v-.58h-3.55V-.76a21.837,21.837,0,0,0,4.08-.3Zm.93-1.81V1.11h.67V-7.47h-.67v3.41h-2.17v.58Zm2.52,5.08V-7.7h-.68V1.6Zm5.19-5.3c0,1.54-.64,2.65-1.61,2.65s-1.6-1.11-1.6-2.65.63-2.66,1.6-2.66S162.83-5.25,162.83-3.7Zm-3.88-.01c0,1.98.81,3.27,2.27,3.27s2.27-1.29,2.27-3.26-.81-3.27-2.27-3.27S158.95-5.68,158.95-3.71Zm7.13,5.31V-7.7h-.68V1.6Zm8.7,0V-7.7h-.68v3.63h-2.05v.58h2.05V1.6Zm-3.27-5.85h-3.19V-6.22h3.56V-6.8h-4.24V-.68a30.922,30.922,0,0,0,4.99-.33l-.09-.59a21.374,21.374,0,0,1-4.22.31v-2.4h3.19ZM183.5,1.46V-1.86h-6.01V1.46Zm-.68-.58h-4.65V-1.28h4.65Zm-1.16-4.44a27.473,27.473,0,0,1-4.54.25V-4.67h3.53v-.56h-3.53V-6.49h3.64v-.58h-4.32v4.34a32.924,32.924,0,0,0,5.31-.26Zm1.83-4.14h-.68v5.35h.68Zm3.69,9.19a6.851,6.851,0,0,1-1.66-4.32V-3.1a6.576,6.576,0,0,1,1.66-4.26h-.6a6.246,6.246,0,0,0-1.75,4.33v.19a6.266,6.266,0,0,0,1.75,4.33Zm.4-1.09h4.4V-.26h-3.33l1.18-1.18c1.29-1.32,1.97-2.11,1.97-3.33a1.95,1.95,0,0,0-2.18-2.07,3.668,3.668,0,0,0-1.95.67l.25.61a2.85,2.85,0,0,1,1.62-.61,1.281,1.281,0,0,1,1.47,1.46c0,1.04-.66,1.79-1.67,2.84L187.58-.05Zm7.84-.51c-1.13,0-1.76-.86-1.76-2.66V-3.6c0-1.8.63-2.59,1.77-2.59s1.73.83,1.73,2.64v.83C197.16-.86,196.55-.11,195.42-.11Zm0,.64c1.44,0,2.51-1,2.51-3.38v-.68c0-2.47-1.12-3.3-2.5-3.3s-2.57.83-2.57,3.34v.63C192.86-.47,193.98.53,195.42.53Zm3.5-.13h4.4V-.26h-3.33l1.18-1.18c1.29-1.32,1.97-2.11,1.97-3.33a1.95,1.95,0,0,0-2.18-2.07,3.668,3.668,0,0,0-1.95.67l.25.61a2.85,2.85,0,0,1,1.62-.61,1.281,1.281,0,0,1,1.47,1.46c0,1.04-.66,1.79-1.67,2.84L198.92-.05Zm5.17,0h4.4V-.26h-3.33l1.18-1.18c1.29-1.32,1.97-2.11,1.97-3.33a1.95,1.95,0,0,0-2.18-2.07,3.668,3.668,0,0,0-1.95.67l.25.61a2.85,2.85,0,0,1,1.62-.61,1.281,1.281,0,0,1,1.47,1.46c0,1.04-.66,1.79-1.67,2.84L204.09-.05Zm4.95.22h.88v-.9h-.88Zm4.65-.73c-1.13,0-1.76-.86-1.76-2.66V-3.6c0-1.8.63-2.59,1.77-2.59s1.73.83,1.73,2.64v.83C215.43-.86,214.82-.11,213.69-.11Zm0,.64c1.44,0,2.51-1,2.51-3.38v-.68c0-2.47-1.12-3.3-2.5-3.3s-2.57.83-2.57,3.34v.63C211.13-.47,212.25.53,213.69.53Zm3.5-.13h4.4V-.26h-3.33l1.18-1.18c1.29-1.32,1.97-2.11,1.97-3.33a1.95,1.95,0,0,0-2.18-2.07,3.668,3.668,0,0,0-1.95.67l.25.61a2.85,2.85,0,0,1,1.62-.61,1.281,1.281,0,0,1,1.47,1.46c0,1.04-.66,1.79-1.67,2.84L217.19-.05Zm4.95.22h.88v-.9h-.88ZM224.12.4h4.4V-.26h-3.33l1.18-1.18c1.29-1.32,1.97-2.11,1.97-3.33a1.95,1.95,0,0,0-2.18-2.07,3.668,3.668,0,0,0-1.95.67l.25.61a2.85,2.85,0,0,1,1.62-.61,1.281,1.281,0,0,1,1.47,1.46c0,1.04-.66,1.79-1.67,2.84L224.12-.05Zm5.17,0h4.4V-.26h-3.33l1.18-1.18c1.29-1.32,1.97-2.11,1.97-3.33a1.95,1.95,0,0,0-2.18-2.07,3.668,3.668,0,0,0-1.95.67l.25.61a2.85,2.85,0,0,1,1.62-.61,1.281,1.281,0,0,1,1.47,1.46c0,1.04-.66,1.79-1.67,2.84L229.29-.05Zm5.31,1.09a6.247,6.247,0,0,0,1.75-4.33v-.19a6.266,6.266,0,0,0-1.75-4.33H234a6.844,6.844,0,0,1,1.65,4.32v.27A6.569,6.569,0,0,1,234,1.49Z" transform="translate(63 8253)" opacity="0.7"/>
  </g>
</svg>
