<svg xmlns="http://www.w3.org/2000/svg" xmlns:xlink="http://www.w3.org/1999/xlink" width="63.667" height="20.035" viewBox="0 0 63.667 20.035">
  <defs>
    <clipPath id="clip-path">
      <rect id="사각형_3308" data-name="사각형 3308" width="63.667" height="20.035" fill="none"/>
    </clipPath>
  </defs>
  <g id="그룹_1650" data-name="그룹 1650" transform="translate(0 0)">
    <path id="패스_7024" data-name="패스 7024" d="M174.467,71.577V69.166H173.6v2.411h-.592V69.166h-.868v2.411h-1.173v.68h5.36v-.68Z" transform="translate(-130.241 -52.69)" fill="#002865"/>
    <g id="그룹_1188" data-name="그룹 1188" transform="translate(0 0)">
      <g id="그룹_1187" data-name="그룹 1187" clip-path="url(#clip-path)">
        <path id="패스_7025" data-name="패스 7025" d="M176.809,63.375h.566c.212-1.089.362-2.448.451-3.36.049-.492.051-.749-.392-.749H173.4v.68h3.408Z" transform="translate(-132.096 -45.149)" fill="#002865"/>
        <path id="패스_7026" data-name="패스 7026" d="M200.151,75.575V74.414h-.967v1.161h-2.213v.68h5.361v-.68Z" transform="translate(-150.052 -56.688)" fill="#002865"/>
        <path id="패스_7027" data-name="패스 7027" d="M203.451,62.322a.475.475,0,0,0,.537-.54V59.021h-.968v1.118H201.1V59.021h-.967v2.761a.475.475,0,0,0,.537.54Zm-2.349-1.5h1.919v.92H201.1Z" transform="translate(-152.461 -44.962)" fill="#002865"/>
        <path id="패스_7028" data-name="패스 7028" d="M254.786,73.471a2.666,2.666,0,0,0-2.567,0,1.122,1.122,0,0,0,0,1.954,2.669,2.669,0,0,0,2.567,0,1.122,1.122,0,0,0,0-1.954m-.6,1.44a1.207,1.207,0,0,1-1.367,0,.619.619,0,0,1,0-.927,1.217,1.217,0,0,1,1.367,0,.618.618,0,0,1,0,.927" transform="translate(-191.704 -55.719)" fill="#002865"/>
        <path id="패스_7029" data-name="패스 7029" d="M260.883,58.137v.735h-.73v.679h.73v.461h-.73v.68h.73v.868h.968V58.137Z" transform="translate(-198.183 -44.288)" fill="#002865"/>
        <path id="패스_7030" data-name="패스 7030" d="M249.867,62.124a.476.476,0,0,0,.538-.54V59.265h-2.641v2.319a.475.475,0,0,0,.537.54Zm-.43-.68h-.705v-1.5h.705Z" transform="translate(-188.746 -45.148)" fill="#002865"/>
        <path id="패스_7031" data-name="패스 7031" d="M223.348,62.092l.436-.328a3.788,3.788,0,0,1-.923-2.744h-.9a3.788,3.788,0,0,1-.923,2.744l.437.328a3.666,3.666,0,0,0,.935-1.264,3.664,3.664,0,0,0,.936,1.264" transform="translate(-168.387 -44.962)" fill="#002865"/>
        <path id="패스_7032" data-name="패스 7032" d="M229.723,73.687a2.717,2.717,0,0,0-2.569,0,1.09,1.09,0,0,0,0,1.915,2.722,2.722,0,0,0,2.569,0,1.09,1.09,0,0,0,0-1.915m-.6,1.4a1.249,1.249,0,0,1-1.367,0,.58.58,0,0,1,0-.89,1.253,1.253,0,0,1,1.367,0,.578.578,0,0,1,0,.89" transform="translate(-172.612 -55.889)" fill="#002865"/>
        <path id="패스_7033" data-name="패스 7033" d="M234.651,58.137v1.269h-.359V58.137h-.867v3.371h.867V60.084h.359v1.424h.868V58.137Z" transform="translate(-177.822 -44.288)" fill="#002865"/>
        <path id="패스_7034" data-name="패스 7034" d="M62.655,51.75a3.35,3.35,0,0,0-2.437.919,4.652,4.652,0,0,0,0,5.86,3.679,3.679,0,0,0,4.886,0,4.692,4.692,0,0,0,0-5.86,3.378,3.378,0,0,0-2.449-.919m1.411,5.976h0a1.757,1.757,0,0,1-1.411.644,1.734,1.734,0,0,1-1.4-.644,4.389,4.389,0,0,1,0-4.255,1.724,1.724,0,0,1,1.4-.633,1.747,1.747,0,0,1,1.411.633,4.416,4.416,0,0,1,0,4.254" transform="translate(-45.082 -39.423)" fill="#002865"/>
        <path id="패스_7035" data-name="패스 7035" d="M134.773,52.669a3.714,3.714,0,0,0-4.89,0,4.679,4.679,0,0,0,0,5.86,3.685,3.685,0,0,0,4.89,0,4.692,4.692,0,0,0,0-5.86m-1.037,5.057h0a1.857,1.857,0,0,1-2.813,0,4.408,4.408,0,0,1,0-4.254,1.879,1.879,0,0,1,2.813,0,4.431,4.431,0,0,1,0,4.255" transform="translate(-98.159 -39.423)" fill="#002865"/>
        <path id="패스_7036" data-name="패스 7036" d="M31.8,59.8a.7.7,0,0,1-.187-.515V56.61l2.494-4.179H32.4c.123.123.136.32-.015.555l-1.35,2.339C29.9,53.269,29.9,53.211,29.7,52.837c-.161-.282-.3-.406-.6-.406H27.75a2.905,2.905,0,0,1,.447.631l1.989,3.53v2.692A.7.7,0,0,1,30,59.8Z" transform="translate(-21.14 -39.942)" fill="#002865"/>
        <path id="패스_7037" data-name="패스 7037" d="M98.351,59.8a.7.7,0,0,0,.187-.515V52.946a.7.7,0,0,0-.187-.515h2.44c1.171,0,2.191.565,2.191,1.661a1.628,1.628,0,0,1-.753,1.412,1.994,1.994,0,0,1,1.351,1.885,2.293,2.293,0,0,1-.886,1.814,2.908,2.908,0,0,1-1.9.6Zm1.616-4.586a2.4,2.4,0,0,0,1.042-.126.789.789,0,0,0,.5-.764.885.885,0,0,0-.951-.832,1.852,1.852,0,0,0-.592.075Zm1.6,3.345a1.167,1.167,0,0,0,.52-1.081,1.249,1.249,0,0,0-1.395-1.18,5.269,5.269,0,0,0-.723.043V58.7a2.329,2.329,0,0,0,1.6-.143" transform="translate(-74.923 -39.942)" fill="#002865"/>
        <path id="패스_7038" data-name="패스 7038" d="M.187,59.284A.7.7,0,0,1,0,59.8H1.8a.7.7,0,0,1-.187-.515V56.406l2.093,2.987a.708.708,0,0,0,.647.406H5.8a3.459,3.459,0,0,1-.52-.63L2.919,55.823l2.414-3.392H3.557c.092.121.1.271-.069.561l-1.872,2.7V52.946a.7.7,0,0,1,.187-.515H0a.7.7,0,0,1,.187.515Z" transform="translate(0 -39.942)" fill="#002865"/>
        <path id="패스_7039" data-name="패스 7039" d="M128.03,2.4a1.705,1.705,0,0,0-2.44.132,2.92,2.92,0,0,1-2.3,1.195c-1.1-.048-1.647-.9-2.213-1.975A2.907,2.907,0,0,0,118.453,0a2.857,2.857,0,0,0-2.836,3.037,5.193,5.193,0,0,0,2.93,4.559,7.168,7.168,0,0,0,3.091.759,9.253,9.253,0,0,1-.424,1.917h2.029a9.077,9.077,0,0,1-.43-1.981c2.971-.386,4.382-1.736,5.156-3.021a3.247,3.247,0,0,0,.529-1.674,1.645,1.645,0,0,0-.469-1.2M118.467,3.94a1.038,1.038,0,1,1,.966-1.1,1.038,1.038,0,0,1-.966,1.1" transform="translate(-88.077 0)" fill="#4ca223"/>
      </g>
    </g>
  </g>
</svg>
