<svg xmlns="http://www.w3.org/2000/svg" width="43.401" height="40.369" viewBox="0 0 43.401 40.369">
  <g id="그룹_1671" data-name="그룹 1671" transform="translate(-7391.559 -1691.631)">
    <g id="화살표" transform="translate(6460.221 716.441)">
      <path id="패스_7665" data-name="패스 7665" d="M0,0V6.073H6.073" transform="translate(948.485 1002.679) rotate(-45)" fill="none" stroke="#e72c4e" stroke-linecap="round" stroke-linejoin="round" stroke-width="1.5"/>
    </g>
    <g id="그룹_1669" data-name="그룹 1669">
      <path id="SCROLL" d="M6.4-2.272a1.5,1.5,0,0,0-.54-1.216,5.7,5.7,0,0,0-1.974-.851A6.919,6.919,0,0,1,1.79-5.218,2.075,2.075,0,0,1,.851-6.982a2.068,2.068,0,0,1,.873-1.723,3.584,3.584,0,0,1,2.231-.663A3.7,3.7,0,0,1,5.6-9.014a2.7,2.7,0,0,1,1.127.99,2.6,2.6,0,0,1,.4,1.416H6.341a1.942,1.942,0,0,0-.647-1.525,2.52,2.52,0,0,0-1.739-.576,2.74,2.74,0,0,0-1.688.474A1.478,1.478,0,0,0,1.638-7,1.4,1.4,0,0,0,2.2-5.848a5.237,5.237,0,0,0,1.809.785A8.5,8.5,0,0,1,5.9-4.358a2.687,2.687,0,0,1,.965.873,2.184,2.184,0,0,1,.324,1.2A2.089,2.089,0,0,1,6.313-.533a3.717,3.717,0,0,1-2.3.66A4.51,4.51,0,0,1,2.219-.222,2.739,2.739,0,0,1,.981-1.2,2.524,2.524,0,0,1,.559-2.641h.781A1.845,1.845,0,0,0,2.069-1.1a3.09,3.09,0,0,0,1.942.565,2.879,2.879,0,0,0,1.733-.476A1.488,1.488,0,0,0,6.4-2.272Zm8.494-.609A3.312,3.312,0,0,1,13.848-.647,3.454,3.454,0,0,1,11.49.127,3.26,3.26,0,0,1,9.671-.387,3.353,3.353,0,0,1,8.449-1.844,5.19,5.19,0,0,1,8.011-4V-5.2a5.237,5.237,0,0,1,.432-2.184A3.32,3.32,0,0,1,9.684-8.852a3.384,3.384,0,0,1,1.863-.517,3.309,3.309,0,0,1,2.345.8,3.351,3.351,0,0,1,1,2.215H14.1a2.352,2.352,0,0,0-2.558-2.355,2.424,2.424,0,0,0-2,.94,4.077,4.077,0,0,0-.746,2.6V-4.04a4.107,4.107,0,0,0,.727,2.554,2.341,2.341,0,0,0,1.965.953,2.6,2.6,0,0,0,1.847-.587A2.814,2.814,0,0,0,14.1-2.882Zm4.831-.971H17.038V0h-.787V-9.242h3a3.427,3.427,0,0,1,2.311.716,2.5,2.5,0,0,1,.832,2,2.5,2.5,0,0,1-.521,1.566,2.662,2.662,0,0,1-1.4.938L22.789-.083V0h-.832Zm-2.685-.66h2.393a2.217,2.217,0,0,0,1.581-.559,1.9,1.9,0,0,0,.6-1.45,1.905,1.905,0,0,0-.622-1.519,2.578,2.578,0,0,0-1.746-.54h-2.2Zm13.794.394a5.34,5.34,0,0,1-.441,2.241,3.367,3.367,0,0,1-1.26,1.485,3.45,3.45,0,0,1-1.892.521,3.283,3.283,0,0,1-2.615-1.158,4.632,4.632,0,0,1-1-3.126V-5.11a5.307,5.307,0,0,1,.448-2.238,3.418,3.418,0,0,1,1.266-1.5,3.423,3.423,0,0,1,1.885-.524,3.454,3.454,0,0,1,1.882.514A3.378,3.378,0,0,1,30.369-7.4a5.232,5.232,0,0,1,.463,2.177Zm-.781-1A4.085,4.085,0,0,0,29.3-7.738a2.5,2.5,0,0,0-2.069-.946,2.5,2.5,0,0,0-2.053.949,4.117,4.117,0,0,0-.765,2.65v.965a4.085,4.085,0,0,0,.762,2.606,2.5,2.5,0,0,0,2.069.962A2.479,2.479,0,0,0,29.309-1.5a4.193,4.193,0,0,0,.743-2.644ZM33.067-.66h4.564V0H32.28V-9.242h.787Zm6.329,0H43.96V0H38.609V-9.242H39.4Z" transform="translate(7391 1701)" fill="#e72c4e"/>
      <g id="타원_16" data-name="타원 16" transform="translate(7402 1710)" fill="none" stroke="#e72c4e" stroke-width="1.5">
        <circle cx="11" cy="11" r="11" stroke="none"/>
        <circle cx="11" cy="11" r="10.25" fill="none"/>
      </g>
    </g>
  </g>
</svg>
