<svg xmlns="http://www.w3.org/2000/svg" xmlns:xlink="http://www.w3.org/1999/xlink" width="180" height="48.002" viewBox="0 0 180 48.002">
  <defs>
    <clipPath id="clip-path">
      <rect id="사각형_3241" data-name="사각형 3241" width="60.235" height="18.645" fill="none"/>
    </clipPath>
  </defs>
  <g id="그룹_1664" data-name="그룹 1664" transform="translate(-180 -618.999)">
    <path id="교차_1" data-name="교차 1" d="M-7613-11807a24,24,0,0,1-24-24,24,24,0,0,1,24-24h156v48Z" transform="translate(7817 12474)" fill="#e64275"/>
    <path id="패스_7672" data-name="패스 7672" d="M-18.3-2.56c-2.384-1.328-3.632-3.472-3.632-6.64v-2.016h-2.352v2.1c0,3.184-1.088,5.44-3.712,6.992l1.408,1.744a7.846,7.846,0,0,0,3.5-4.208,8.038,8.038,0,0,0,3.472,3.84ZM-15.36,2.7V-12.464h-2.288V2.7ZM.144-7.088v-1.84H-1.968v-3.536h-2.24v8.9h2.24v-3.52Zm-12.112,4.16v1.792h7.776V2.72h2.256V-2.928ZM-13.68-9.84h2.912A4.8,4.8,0,0,1-14.32-5.392l1.2,1.808A6,6,0,0,0-9.584-6.96,6.353,6.353,0,0,0-6.24-3.984l1.2-1.76a4.673,4.673,0,0,1-3.408-4.1H-5.68v-1.824h-8ZM2.864-3.312a1.631,1.631,0,0,1,1.7-1.664A1.648,1.648,0,0,1,6.288-3.312,1.654,1.654,0,0,1,4.56-1.664,1.618,1.618,0,0,1,2.864-3.312Zm-2,0c0,1.952,1.6,3.264,3.7,3.264,2.08,0,3.728-1.3,3.728-3.264S6.64-6.576,4.56-6.576C2.464-6.576.864-5.3.864-3.312Zm11.248-9.152H9.856V2.7h2.256V-4.464H14.16V-6.3H12.112ZM2.256-9.744H6.928v-1.792H2.256ZM8.9-7.088v-1.76H.08v1.76ZM15.1-10.9v1.84H19.92A9.65,9.65,0,0,1,14.176-1.68L15.44.08c4.928-2.7,6.736-6.544,6.864-10.976ZM26.88,2.7V-12.464H24.624V2.7Z" transform="translate(299 647)" fill="#fff"/>
    <g id="그룹_1011" data-name="그룹 1011" transform="translate(205.828 633.744)">
      <g id="그룹_1010" data-name="그룹 1010" clip-path="url(#clip-path)">
        <path id="패스_6866" data-name="패스 6866" d="M328.482,15.151h2.491V8.961a2.749,2.749,0,0,1,5.5,0v6.189h2.478V8.972a5.238,5.238,0,0,0-5.227-5.3h0a5.272,5.272,0,0,0-2.759.775V.119h-2.48Z" transform="translate(-278.714 -0.101)" fill="#fff"/>
        <path id="패스_6867" data-name="패스 6867" d="M172.2,23.667a5.732,5.732,0,1,0,5.736,5.732,5.734,5.734,0,0,0-5.736-5.732m0,8.987a3.255,3.255,0,1,1,3.258-3.255,3.257,3.257,0,0,1-3.258,3.255" transform="translate(-141.243 -20.081)" fill="#fff"/>
        <path id="패스_6868" data-name="패스 6868" d="M10.208,19.331a6.065,6.065,0,0,0-4.647-2.613v2.506H5.2A5.153,5.153,0,0,0,.011,23.818a4.749,4.749,0,0,0,0,.69v8.322H2.493V28.45a5.327,5.327,0,0,0,1.347.571,6.643,6.643,0,0,0,1.724.23,5.85,5.85,0,0,0,5.656-4.026,6.607,6.607,0,0,0-1.012-5.894m-1.3,4.841c-.022.093-.047.185-.076.275a3.253,3.253,0,0,1-2.19,2.139,3.453,3.453,0,0,1-3.614-.936,2.357,2.357,0,0,1-.509-1.644,2.675,2.675,0,0,1,2.75-2.268v0h.294v-2.5a3.614,3.614,0,0,1,2.613,1.575,4.364,4.364,0,0,1,.775,1.817,3.473,3.473,0,0,1-.043,1.547" transform="translate(0 -14.185)" fill="#fff"/>
        <path id="패스_6869" data-name="패스 6869" d="M259.142,31.541a3.256,3.256,0,1,1,.011-4.27l1.738-1.767a5.732,5.732,0,1,0-.011,7.8Z" transform="translate(-212.932 -20.082)" fill="#fff"/>
        <path id="패스_6870" data-name="패스 6870" d="M93.295,31.352a3.815,3.815,0,0,1-2.974,1.413A3.048,3.048,0,0,1,87.147,30.6l-.075-.266h8.578l.011-.165c.022-.325.042-.623.042-.9a5.339,5.339,0,0,0-5.474-5.681,5.484,5.484,0,0,0-5.635,5.7,5.518,5.518,0,0,0,5.635,5.773,5.651,5.651,0,0,0,4.66-2.263L93.38,31.248Zm-6.147-3.3A2.908,2.908,0,0,1,90.2,25.883a2.836,2.836,0,0,1,2.954,2.172l.064.259H87.072Z" transform="translate(-71.777 -20.013)" fill="#fff"/>
        <path id="패스_6871" data-name="패스 6871" d="M328.482,96.611v.413h.413a.413.413,0,0,1-.413-.413" transform="translate(-278.714 -81.974)" fill="#fff"/>
        <path id="패스_6872" data-name="패스 6872" d="M342.117,97.023h.413V96.61a.412.412,0,0,1-.413.413" transform="translate(-290.284 -81.973)" fill="#fff"/>
        <path id="패스_6873" data-name="패스 6873" d="M328.895,23.667h-.413v.413a.413.413,0,0,1,.413-.413" transform="translate(-278.714 -20.081)" fill="#fff"/>
        <path id="패스_6874" data-name="패스 6874" d="M342.53,24.08v-.413h-.413a.412.412,0,0,1,.413.413" transform="translate(-290.284 -20.081)" fill="#fff"/>
      </g>
      <rect id="사각형_3240" data-name="사각형 3240" width="2.478" height="11.464" transform="translate(34.215 3.586)" fill="#fff"/>
      <path id="패스_6865" data-name="패스 6865" d="M1.94,0,.1,1.827,2.571,4.371,4.4,2.543Z" transform="translate(-0.081)" fill="#fff"/>
    </g>
    <g id="화살표" transform="translate(-664.679 1596.078) rotate(-90)">
      <path id="패스_7665" data-name="패스 7665" d="M0,0V7.545H7.545" transform="translate(948.485 1003.72) rotate(-45)" fill="none" stroke="#fff" stroke-linecap="round" stroke-linejoin="round" stroke-width="2"/>
    </g>
  </g>
</svg>
