<svg xmlns="http://www.w3.org/2000/svg" xmlns:xlink="http://www.w3.org/1999/xlink" width="115.178" height="76.65" viewBox="0 0 115.178 76.65">
  <defs>
    <clipPath id="clip-path">
      <rect id="사각형_3435" data-name="사각형 3435" width="60" height="18.573" fill="none"/>
    </clipPath>
  </defs>
  <g id="그룹_1669" data-name="그룹 1669" transform="translate(-50.015 -3530.651)">
    <path id="패스_7723" data-name="패스 7723" d="M10.491-.273c0-1.4-1.482-2.288-4.108-2.288S2.275-1.677,2.275-.273,3.744,2.015,6.383,2.015,10.491,1.131,10.491-.273Zm-4.108-1.4c1.911,0,3.029.52,3.029,1.4S8.294,1.144,6.383,1.144,3.354.624,3.354-.273,4.485-1.677,6.383-1.677Zm-5.2-7.4v.9H5.564C5.2-6.123,3.159-4.121.663-3.432l.52.9c3.2-1.118,5.382-3.5,5.564-6.539Zm5.5,4.654H9.347v2.041H10.4V-10.01H9.347v2.184H6.877v.871h2.47v1.664H6.682Zm15.353,6.5V-10.01H21V2.08Zm-2.4-.611V-9.724H18.6v4.147H16.666v.871H18.6V1.469ZM18.005-1.547A5.445,5.445,0,0,1,15.379-6.4V-7.722h2.314v-.871H11.934v.871h2.405v1.365A6.216,6.216,0,0,1,11.648-1.2l.7.741a6.355,6.355,0,0,0,2.509-3.614A7.112,7.112,0,0,0,17.342-.78Zm14.768-7.8H24.349v.871h7.345l-.013.975A11.7,11.7,0,0,1,31.4-5.187l1.027.143a15.787,15.787,0,0,0,.351-3.224ZM34.06-3.38v-.871H28.691V-6.8H27.638v2.548h-4.5v.871ZM31.876-.208c0,.845-1.274,1.326-3.3,1.326s-3.3-.481-3.3-1.326,1.261-1.326,3.3-1.326S31.876-1.04,31.876-.208Zm1.04,0c0-1.352-1.508-2.184-4.342-2.184s-4.355.832-4.355,2.184,1.534,2.171,4.355,2.171S32.916,1.144,32.916-.208ZM42.991-5.083H36.829V-6.9h6.162ZM40.417,2.093V-1.9H45.37v-.884H34.45V-1.9h4.914V2.093Zm3.627-6.305v-5.33H42.991v1.781H36.829V-9.542H35.776v5.33ZM45.5,2.327h.754l1.014-2.7H46.02Zm11.674-8.06H53.235V-8.476h3.939ZM55.549,1.716V-2.7c1.352-.065,2.808-.169,3.744-.3l-.065-.819c-1.17.13-2.561.195-4.056.26-1.326.039-2.587.065-4,.065l.13.923c1.014-.013,2.106-.039,3.2-.078V1.716Zm1.664-2.6h2.873V2.08h1.053V-10.01H60.086v8.268H57.213Zm1.014-8.463H52.182v4.485h6.045ZM71.071-5.083H64.909V-6.9h6.162ZM68.5,2.093V-1.9H73.45v-.884H62.53V-1.9h4.914V2.093Zm3.627-6.305v-5.33H71.071v1.781H64.909V-9.542H63.856v5.33ZM83.733,2.08V-10.01H82.68v4.628H80.288v.9H82.68V2.08ZM75.309-1.625V-4.693h4.2v-.858h-4.2v-2.5h4.68v-.871H74.256v8.19H75.5a32.342,32.342,0,0,0,5.486-.429l-.117-.884a29.089,29.089,0,0,1-5.3.416ZM7.878,18.362a6.313,6.313,0,0,1-3.133-5.174V11.043H3.679v2.184A6.9,6.9,0,0,1,.455,18.674l.689.793a8.132,8.132,0,0,0,3.094-3.991,8.193,8.193,0,0,0,2.977,3.692Zm2.6,3.718V9.99H9.425V22.08Zm12.48-7.943v-.884H21.112V9.99H20.059v7.176h1.053V14.137ZM13.325,17.8v.871h6.747v3.419h1.053V17.8Zm-1.417-6.058H14.69c0,.3-.013.533-.013.65-.065,1.6-1.6,3.12-3.12,3.705l.611.819a5.748,5.748,0,0,0,3.042-2.99A5.809,5.809,0,0,0,18.1,16.581l.585-.845a4.179,4.179,0,0,1-2.912-3.328c-.013-.13-.013-.364-.013-.663H18.5v-.884H11.908ZM28.47,15.008c0,.676-.884,1.027-1.846,1.027-.936,0-1.82-.351-1.82-1.027s.871-1.014,1.82-1.014S28.47,14.332,28.47,15.008Zm1.014,0c0-1.183-1.235-1.82-2.86-1.82-1.6,0-2.834.637-2.834,1.82s1.261,1.833,2.834,1.833C28.288,16.841,29.484,16.191,29.484,15.008Zm.7-2.3v-.858h-7.1v.858Zm-1.807-1.625V10.2H24.9v.884ZM32.89,22V21.2H25.883V20.078h6.552v-2.6H24.778v.806h6.6v1.027H24.83V22Zm1.391-7.93v-.884H32.435V9.99H31.4v6.864h1.04V14.072ZM43.316,9.99V22.08h1.053V9.99Zm-1.391,8.424a6.085,6.085,0,0,1-3.2-5.109V12.07h2.821V11.2H34.814v.871h2.821v1.248A6.482,6.482,0,0,1,34.411,18.7l.65.78a7.576,7.576,0,0,0,3.133-3.965,7.871,7.871,0,0,0,3.081,3.679Zm15.353-2.522H51.116V11.94h6.162Zm2.392,4.641v-.884H54.717V16.763h3.614V11.069H50.063v5.694h3.6v2.886H48.75v.884Zm11.31-.1v-.884H60.06v.884ZM69.927,17.5V16.62H62.491V14.592h7.124V10.939H61.4v.884h7.163v1.9H61.438V17.5Zm1.95-6.513v.884h3.562a5.629,5.629,0,0,1-3.991,4.615l.624.845c2.678-1.222,4.42-3.263,4.472-6.344Zm7.449-.78H78.312v2.938h-1.82v.884h1.82v2.873h1.014Zm3.3,11.089a3.677,3.677,0,0,1-2.34-3.211V17.5H79.235v.637a3.931,3.931,0,0,1-2.353,3.38l.663.715a4.807,4.807,0,0,0,2.223-2.47,4.862,4.862,0,0,0,2.223,2.288Zm-1.066-4.16V9.99h-1.04v7.15ZM77.48,20.4a2.53,2.53,0,0,1-1.716-2.444v-.442h-1.04v.52a3.9,3.9,0,0,1-2.418,3.315l.637.754A4.89,4.89,0,0,0,75.3,19.558,3.6,3.6,0,0,0,76.83,21.1Zm6.734-2.184V12.135h4.68v-.884H83.161v7.865h1.183a36.722,36.722,0,0,0,5.8-.416l-.117-.871a31.551,31.551,0,0,1-5.109.39ZM92,9.99h-1.04V22.08H92V15.671h1.963v-.884H92Zm11.687,4.732v-.871H96.512V10.5H95.459v4.225Zm.052,7.085v-.871H96.473V18.245H95.42v3.562Zm1.17-4.693V16.23H93.99v.884ZM1.235,30.913V31.8H5.681c-.273,2.21-2.639,3.991-5.018,4.485l.481.871c3.081-.884,5.512-2.873,5.72-6.24ZM9.334,41H3.692V38.44H9.334Zm1.053.871v-4.3H2.639v4.3Zm0-5.031V29.99H9.334v6.851ZM22.75,40.533v-.884H17.8V36.555H16.744v3.094H11.83v.884Zm-.429-4.576c-1.989-.377-4.485-2.119-4.485-4.2v-.871H16.744v.871c0,2.08-2.353,3.8-4.459,4.2l.546.845c2.119-.572,3.978-2.067,4.446-3.458A6.882,6.882,0,0,0,21.736,36.8Zm6.292-4.745c1.911,0,3.159.507,3.159,1.508s-1.261,1.495-3.172,1.495-3.146-.507-3.146-1.495S26.7,31.212,28.613,31.212Zm4.2,1.5c0-1.521-1.573-2.366-4.2-2.366s-4.212.845-4.212,2.366c0,1.547,1.56,2.392,4.2,2.392S32.812,34.254,32.812,32.707Zm.013,9.022v-.884H25.636V38.206H24.583v3.523Zm1.235-4.654v-.884H23.14v.884Zm8.086-2.639a29.979,29.979,0,0,1-6.019.533V30.614H35.074v5.278h.689a38.805,38.805,0,0,0,6.5-.559Zm1.131-4.446v6.721H44.33V29.99Zm0,11.037H37.453v-2.7h5.824Zm1.053.871V37.465H36.4V41.9Zm8.411-8.1A2.883,2.883,0,0,0,49.6,30.926a2.855,2.855,0,1,0,0,5.681A2.885,2.885,0,0,0,52.741,33.8Zm-1.027,0a2.136,2.136,0,0,1-4.251,0A2.045,2.045,0,0,1,49.6,31.823,1.972,1.972,0,0,1,51.714,33.8Zm2.925-3.809V42.08h1.053V29.99Zm-.793,8.151c-.884.117-2.457.208-4.134.273-1.469.078-2.9.1-3.926.091l.182.923c.923-.013,2.249-.052,3.666-.117,1.534-.078,3.263-.182,4.3-.312Zm17.485-2.4v-.884H69.355V29.99H68.3V42.08h1.053V35.736Zm-6.292,2.431H61.49V32.109h3.549Zm1.053.871v-7.8H60.437v7.8Zm10.92-3.861c0,1.976-.832,3.354-2.119,3.354s-2.119-1.378-2.119-3.354.845-3.367,2.119-3.367S77.012,33.188,77.012,35.177Zm-5.239-.013c0,2.574,1.131,4.277,3.12,4.277s3.12-1.7,3.12-4.264S76.9,30.9,74.893,30.9,71.773,32.616,71.773,35.164Zm9.542,6.916V29.99H80.262V42.08Zm2.821-9.75h3.757v-.871h-4.81v7.6h1.326a28.313,28.313,0,0,0,4.108-.364l-.117-.9a17.924,17.924,0,0,1-4.264.364Zm5.3,3.211v5.915h1.027V30.276H89.44v4.381H86.632v.884Zm3.432,6.539V29.99H91.845V42.08Zm6.76-6.9c0,1.976-.832,3.354-2.119,3.354s-2.119-1.378-2.119-3.354.845-3.367,2.119-3.367S99.632,33.188,99.632,35.177Zm-5.239-.013c0,2.574,1.131,4.277,3.12,4.277s3.12-1.7,3.12-4.264S99.515,30.9,97.513,30.9,94.393,32.616,94.393,35.164Zm9.542,6.916V29.99h-1.053V42.08Zm11.258,0V29.99H114.14v4.628h-2.392v.9h2.392V42.08Zm-8.424-3.705V35.307h4.2v-.858h-4.2v-2.5h4.68v-.871h-5.733v8.19h1.248a32.342,32.342,0,0,0,5.486-.429l-.117-.884a29.089,29.089,0,0,1-5.3.416Z" transform="translate(50 3540.661)" fill="#333"/>
    <g id="그룹_1668" data-name="그룹 1668">
      <g id="그룹_1560" data-name="그룹 1560" transform="translate(50 3588.728)">
        <rect id="사각형_3434" data-name="사각형 3434" width="2.513" height="11.289" transform="translate(34.054 3.637)" fill="#e72c4e"/>
        <path id="패스_7659" data-name="패스 7659" d="M1.966,0,.1,1.853l2.51,2.58L4.457,2.579Z" transform="translate(-0.081)" fill="#e72c4e"/>
      </g>
      <g id="그룹_1559" data-name="그룹 1559" transform="translate(50.015 3588.728)">
        <g id="그룹_1558" data-name="그룹 1558" clip-path="url(#clip-path)">
          <path id="패스_7660" data-name="패스 7660" d="M328.482,15.092h2.481V8.927a2.738,2.738,0,0,1,5.476,0v6.165h2.469V8.937A5.217,5.217,0,0,0,333.7,3.661h0a5.251,5.251,0,0,0-2.749.772V.119h-2.471Z" transform="translate(-278.909 -0.101)" fill="#071039"/>
          <path id="패스_7661" data-name="패스 7661" d="M172.178,23.667a5.71,5.71,0,1,0,5.714,5.71,5.712,5.712,0,0,0-5.714-5.71m0,8.952a3.243,3.243,0,1,1,3.245-3.243,3.244,3.244,0,0,1-3.245,3.243" transform="translate(-141.342 -20.095)" fill="#071039"/>
          <path id="패스_7662" data-name="패스 7662" d="M10.169,19.321a6.041,6.041,0,0,0-4.629-2.6v2.5H5.184A5.133,5.133,0,0,0,.011,23.791a4.73,4.73,0,0,0,0,.688v8.289H2.483V28.4a5.306,5.306,0,0,0,1.342.569,6.617,6.617,0,0,0,1.717.229,5.827,5.827,0,0,0,5.634-4.01,6.581,6.581,0,0,0-1.008-5.871m-1.3,4.822c-.022.092-.046.184-.076.274a3.24,3.24,0,0,1-2.182,2.13,3.439,3.439,0,0,1-3.6-.933,2.348,2.348,0,0,1-.507-1.637,2.664,2.664,0,0,1,2.74-2.259v0H5.54V19.223a3.6,3.6,0,0,1,2.6,1.568,4.347,4.347,0,0,1,.772,1.81,3.46,3.46,0,0,1-.043,1.541" transform="translate(0 -14.195)" fill="#071039"/>
          <path id="패스_7663" data-name="패스 7663" d="M259.11,31.511a3.243,3.243,0,1,1,.011-4.254l1.732-1.76a5.71,5.71,0,1,0-.011,7.773Z" transform="translate(-213.081 -20.096)" fill="#071039"/>
          <path id="패스_7664" data-name="패스 7664" d="M93.261,31.322A3.8,3.8,0,0,1,90.3,32.729a3.036,3.036,0,0,1-3.161-2.156l-.075-.265h8.545l.011-.165c.021-.323.041-.621.041-.9a5.318,5.318,0,0,0-5.453-5.659,5.462,5.462,0,0,0-5.613,5.682,5.5,5.5,0,0,0,5.613,5.75,5.629,5.629,0,0,0,4.642-2.254l-1.5-1.545Zm-6.123-3.291a2.9,2.9,0,0,1,3.041-2.156,2.825,2.825,0,0,1,2.942,2.163l.064.258H87.063Z" transform="translate(-71.827 -20.026)" fill="#071039"/>
        </g>
      </g>
    </g>
  </g>
</svg>
