<svg xmlns="http://www.w3.org/2000/svg" xmlns:xlink="http://www.w3.org/1999/xlink" width="236.314" height="160.017" viewBox="0 0 236.314 160.017">
  <defs>
    <clipPath id="clip-path">
      <rect id="사각형_3435" data-name="사각형 3435" width="123.645" height="38.274" fill="none"/>
    </clipPath>
  </defs>
  <g id="그룹_1667" data-name="그룹 1667" transform="translate(-40.52 -2059.964)">
    <path id="패스_7721" data-name="패스 7721" d="M11.8-7.492c3.938,0,6.51,1.045,6.51,3.108,0,2.036-2.6,3.081-6.537,3.081S5.289-2.348,5.289-4.384C5.289-6.447,7.86-7.492,11.8-7.492Zm8.653,3.081c0-3.134-3.242-4.876-8.653-4.876-5.438,0-8.68,1.741-8.68,4.876,0,3.188,3.215,4.929,8.653,4.929S20.452-1.223,20.452-4.411Zm.027,18.592V12.36H5.664V6.921H3.494v7.26Zm2.545-9.591V2.769H.52V4.591ZM44.268,14.9V-10.01H42.125V14.9ZM38.187-1.169V-2.884H27.953V-5.911H38.83V-7.706H25.783V3.867h5.385V7.993c-2.625.134-5.251.188-7.206.107l.348,1.9c2.116,0,4.9-.054,7.689-.214,3.027-.188,6.51-.455,8.466-.777L40.33,7.243c-1.688.268-4.286.482-6.992.643V3.867H38.99V2.045H27.953V-1.169ZM68.727-7.786V-9.635H60.4v1.849Zm1.259,8.6c0,1.447-2.92,1.982-5.412,1.982-2.465,0-5.412-.536-5.412-1.982,0-1.527,2.947-2.036,5.412-2.036C67.066-1.223,69.986-.714,69.986.813Zm4.608-4.9V-5.911H54.582v1.822ZM65.62,14.931V7.805H75.8V5.984H53.3V7.805H63.45v7.126ZM72.237.813c0-2.625-3.242-3.831-7.662-3.831-4.394,0-7.662,1.206-7.662,3.831,0,2.572,3.268,3.8,7.662,3.8C69,4.617,72.237,3.385,72.237.813ZM7.78,34.742c2.759,0,4.661,1.795,4.661,4.34,0,2.491-1.9,4.26-4.635,4.26a4.313,4.313,0,1,1-.027-8.6Zm0-1.9c-3.777,0-6.7,2.545-6.7,6.242,0,3.724,2.92,6.162,6.724,6.162,3.777,0,6.7-2.465,6.7-6.188C14.5,35.358,11.557,32.84,7.78,32.84ZM21.5,55.29V53.495H6.816V47.6H4.646V55.29ZM20.88,49.4V31.205H18.71V49.4Zm15.565-6.322c-2.384-1.018-5.385-3.563-5.385-7.367V32.652H28.944V35.76c0,3.724-2.679,6.751-5.331,8.171l1.339,1.661a12.28,12.28,0,0,0,5.09-6.055,11.537,11.537,0,0,0,5.224,5.2Zm.134,5.626c3.8,0,6.188,1.072,6.188,2.759,0,1.715-2.384,2.786-6.188,2.786-3.777,0-6.188-1.072-6.188-2.786C30.391,49.771,32.8,48.7,36.579,48.7Zm8.251-1.768V31.205H42.687V37.8H39.58V31.661H37.463V45.7H39.58V39.617h3.108v7.314Zm.241,4.528c0-2.813-3.161-4.581-8.492-4.581s-8.466,1.768-8.466,4.581,3.134,4.581,8.466,4.581S45.072,54.272,45.072,51.459Zm8.921,1.447H65.887V50.976H57.154l3-3.027c3.3-3.349,5.3-5.626,5.3-8.948,0-3.4-2.09-5.546-5.947-5.546A10.016,10.016,0,0,0,54.234,35.2l.643,1.795a7.77,7.77,0,0,1,4.286-1.581c2.706,0,3.911,1.259,3.911,3.8,0,2.733-1.822,4.822-4.527,7.635l-4.554,4.715Zm23.763-10.77H70.2V34.849h7.555Zm2.17,1.795V33.054H68.031V43.931Zm10.18-4.34V37.769H86.3V31.205h-2.17V45.86H86.3V39.591ZM86.328,56.12V47.145H70.254v1.822h13.9V56.12Zm24.62-.241V54.111h-15.7V51.593h14.9V46.02H93.026v1.741h14.949v2.2h-14.9v5.921Zm-9.216-22.557c3.938,0,6.51.991,6.51,2.545s-2.572,2.518-6.51,2.518c-3.911,0-6.456-.964-6.456-2.518S97.821,33.322,101.732,33.322Zm8.707,2.545c0-2.733-3.3-4.313-8.707-4.313-5.358,0-8.68,1.581-8.68,4.313s3.322,4.313,8.68,4.313C107.144,40.18,110.439,38.6,110.439,35.867Zm2.518,7.93V41.975h-22.5V43.8Zm22.129,4.661c-3.429-2.036-6.456-6.108-6.456-10.662v-4.42h-2.2v4.5c0,4.42-3,8.948-6.644,11.225l1.42,1.634a16.759,16.759,0,0,0,6.376-8.225c.964,3,3.885,6.081,6.135,7.608Zm5.358,7.662V31.205h-2.17V56.12Zm25.718-16.369V37.93h-3.8V31.205h-2.17V45.993h2.17V39.751Zm-19.851,7.555V49.1h13.9v7.046h2.17V47.306Zm-2.92-12.484h5.733c0,.616-.027,1.1-.027,1.34-.134,3.3-3.3,6.43-6.43,7.635l1.259,1.688c2.679-1.152,5.6-3.831,6.269-6.162a11.97,11.97,0,0,0,5.947,5.465l1.206-1.741c-2.84-.938-5.813-3.67-6-6.858-.027-.268-.027-.75-.027-1.366h5.653V33H143.391Zm34.1,10.9a3.659,3.659,0,1,1-3.643-3.322A3.363,3.363,0,0,1,177.494,45.726Zm2.17,0c0-2.92-2.331-5.144-5.813-5.144s-5.813,2.25-5.813,5.144c0,2.92,2.331,5.144,5.813,5.144S179.664,48.619,179.664,45.726Zm1.473-6.751V37.18H166.43v1.795Zm-3.67-4.206V32.92h-7.314v1.849Zm12.27,8.76V41.707h-4.045v-10.5h-2.17V56.12h2.17V43.529Zm20.092-2.572V39.162H195.042V32.25h-2.17v8.707Zm.107,14.6V53.763H194.961V48.217h-2.17v7.34Zm2.411-9.671V44.065h-22.5v1.822ZM1.993,74.323v1.822h9.162C10.593,80.7,5.717,84.369.815,85.387l.991,1.795c6.349-1.822,11.359-5.921,11.788-12.859Zm16.69,20.789H7.057V89.834H18.684Zm2.17,1.795V88.039H4.887v8.867Zm0-10.368V72.421h-2.17V86.539Zm23.522,5.947c0-2.893-3.054-4.715-8.466-4.715-5.438,0-8.466,1.822-8.466,4.715S30.471,97.2,35.91,97.2C41.321,97.2,44.375,95.38,44.375,92.486ZM35.91,89.593c3.938,0,6.242,1.072,6.242,2.893,0,1.848-2.3,2.92-6.242,2.92-3.911,0-6.242-1.072-6.242-2.92C29.667,90.665,32,89.593,35.91,89.593ZM25.194,74.35V76.2h9.028c-.75,4.233-4.956,8.358-10.1,9.778l1.072,1.849c6.59-2.3,11.091-7.207,11.466-13.475ZM36.526,83.94h5.492v4.206h2.17V72.421h-2.17v4.5h-5.09v1.795h5.09v3.429H36.526Zm25.183,1.152c-2.947-1.072-6.269-4.072-6.269-8.225V73.841h-2.2v3.108c0,4.018-3.027,7.394-6.322,8.867L48.26,87.5c2.706-1.366,5.385-4.1,6.135-6.778a12.223,12.223,0,0,0,6.081,6.081Zm6.322,11.466V94.764H53.644V88.95h-2.17v7.608ZM67.495,90.5V72.421h-2.17v6.3h-5.3v1.822h5.3V90.5ZM86.3,81.583a61.78,61.78,0,0,1-12.4,1.1V73.707h-2.17V84.583h1.42a79.969,79.969,0,0,0,13.395-1.152Zm2.331-9.162v13.85H90.8V72.421Zm0,22.745h-12V89.593h12ZM90.8,96.96V87.825H74.46V96.96Zm17.333-16.69c0-3.643-2.813-5.921-6.483-5.921-3.617,0-6.483,2.438-6.483,5.921,0,3.349,2.813,5.787,6.483,5.787C105.242,86.057,108.135,83.807,108.135,80.27Zm-2.116,0a4.4,4.4,0,0,1-8.76,0,4.215,4.215,0,0,1,4.394-4.072A4.063,4.063,0,0,1,106.019,80.27Zm6.028-7.849V97.335h2.17V72.421Zm-1.634,16.8c-1.822.241-5.063.429-8.519.563-3.027.161-5.974.214-8.091.188l.375,1.9c1.9-.027,4.635-.107,7.555-.241,3.161-.161,6.724-.375,8.867-.643Zm36.032-4.956V82.44h-4.072V72.421H140.2V97.335h2.17V84.262Zm-12.966,5.01h-7.314V76.788h7.314Zm2.17,1.795V74.993H123.995V91.067Zm22.5-7.957c0,4.072-1.715,6.912-4.367,6.912-2.625,0-4.367-2.84-4.367-6.912,0-4.1,1.741-6.939,4.367-6.939C156.437,76.171,158.152,79.011,158.152,83.11Zm-10.8-.027c0,5.3,2.331,8.814,6.43,8.814,4.126,0,6.43-3.509,6.43-8.787s-2.3-8.814-6.43-8.814C149.686,74.3,147.356,77.832,147.356,83.083Zm19.664,14.252V72.421h-2.17V97.335Zm5.813-20.093h7.742V75.448h-9.912V91.12H173.4a58.345,58.345,0,0,0,8.466-.75l-.241-1.848a36.937,36.937,0,0,1-8.787.75Zm10.93,6.617V96.05h2.116V73.01h-2.116v9.028h-5.787V83.86Zm7.073,13.475V72.421h-2.116V97.335ZM204.766,83.11c0,4.072-1.715,6.912-4.367,6.912-2.625,0-4.367-2.84-4.367-6.912,0-4.1,1.741-6.939,4.367-6.939C203.052,76.171,204.766,79.011,204.766,83.11Zm-10.8-.027c0,5.3,2.331,8.814,6.43,8.814,4.126,0,6.43-3.509,6.43-8.787s-2.3-8.814-6.43-8.814C196.3,74.3,193.97,77.832,193.97,83.083Zm19.664,14.252V72.421h-2.17V97.335Zm23.2,0V72.421h-2.17v9.537h-4.929v1.848h4.929V97.335ZM219.474,89.7V83.378h8.653V81.61h-8.653V76.466h9.644V74.671H217.3V91.549h2.572a66.648,66.648,0,0,0,11.305-.884l-.241-1.822a59.946,59.946,0,0,1-10.93.857Z" transform="translate(40 2069.974)" fill="#333"/>
    <g id="그룹_1560" data-name="그룹 1560" transform="translate(41.509 2181.708)">
      <rect id="사각형_3434" data-name="사각형 3434" width="5.18" height="23.264" transform="translate(70.178 7.494)" fill="#e72c4e"/>
      <path id="패스_7659" data-name="패스 7659" d="M3.95,0,.1,3.819,5.268,9.135l3.815-3.82Z" transform="translate(-0.066 0)" fill="#e72c4e"/>
      <g id="그룹_1559" data-name="그룹 1559" transform="translate(0 0)">
        <g id="그룹_1558" data-name="그룹 1558" clip-path="url(#clip-path)">
          <path id="패스_7660" data-name="패스 7660" d="M328.482,30.975h5.113V18.27a5.643,5.643,0,0,1,11.286,0V30.975h5.087V18.291a10.752,10.752,0,0,0-10.73-10.874h0a10.822,10.822,0,0,0-5.664,1.591V.119h-5.091Z" transform="translate(-226.323 -0.082)" fill="#071039"/>
          <path id="패스_7661" data-name="패스 7661" d="M178.239,23.667a11.766,11.766,0,1,0,11.775,11.766,11.771,11.771,0,0,0-11.775-11.766m0,18.449a6.683,6.683,0,1,1,6.687-6.683,6.685,6.685,0,0,1-6.687,6.683" transform="translate(-114.693 -16.306)" fill="#071039"/>
          <path id="패스_7662" data-name="패스 7662" d="M20.955,22.082a12.45,12.45,0,0,0-9.538-5.364v5.145h-.6l-.13,0c-5.6.063-10.268,4.18-10.66,9.427A9.748,9.748,0,0,0,.03,32.71V49.793H5.117V40.8a10.934,10.934,0,0,0,2.765,1.172,13.636,13.636,0,0,0,3.539.473,12.008,12.008,0,0,0,11.61-8.264,13.562,13.562,0,0,0-2.077-12.1m-2.672,9.937c-.045.19-.1.379-.156.565a6.677,6.677,0,0,1-4.5,4.39,7.088,7.088,0,0,1-7.419-1.922,4.838,4.838,0,0,1-1.045-3.374c.192-2.568,2.724-4.656,5.646-4.656v0h.6V21.881a7.419,7.419,0,0,1,5.364,3.232,8.959,8.959,0,0,1,1.591,3.73,7.129,7.129,0,0,1-.089,3.176" transform="translate(0 -11.519)" fill="#071039"/>
          <path id="패스_7663" data-name="패스 7663" d="M267.761,39.83a6.683,6.683,0,1,1,.022-8.766l3.568-3.627a11.766,11.766,0,1,0-.023,16.018Z" transform="translate(-172.907 -16.307)" fill="#071039"/>
          <path id="패스_7664" data-name="패스 7664" d="M102.455,39.528a7.831,7.831,0,0,1-6.105,2.9c-3.265,0-5.717-1.619-6.514-4.443l-.154-.545H107.29l.022-.34c.044-.666.085-1.28.085-1.853,0-6.866-4.621-11.661-11.237-11.661-6.7,0-11.567,4.924-11.567,11.708,0,6.866,4.864,11.85,11.567,11.85a11.6,11.6,0,0,0,9.566-4.645l-3.1-3.184ZM89.836,32.745C90.652,29.88,92.878,28.3,96.1,28.3a5.822,5.822,0,0,1,6.064,4.458l.132.531H89.681Z" transform="translate(-58.285 -16.251)" fill="#071039"/>
        </g>
      </g>
    </g>
  </g>
</svg>
