<svg xmlns="http://www.w3.org/2000/svg" xmlns:xlink="http://www.w3.org/1999/xlink" width="207.799" height="89.32" viewBox="0 0 207.799 89.32">
  <defs>
    <clipPath id="clip-path">
      <rect id="사각형_3435" data-name="사각형 3435" width="54.919" height="17" fill="none"/>
    </clipPath>
  </defs>
  <g id="그룹_1676" data-name="그룹 1676" transform="translate(-75.253 -7929.68)">
    <path id="패스_7734" data-name="패스 7734" d="M-47.512-2.768c0-.1-.08-.176-.224-.208A2.64,2.64,0,0,0-48.52-3.1a1.642,1.642,0,0,0-.32.1,2.3,2.3,0,0,1-.352.064c-1.376.08-3.328.144-4.768.144a2.031,2.031,0,0,0-.592-.176,8.832,8.832,0,0,0-1.3-.1c-.272,0-.416.064-.416.192,0,.1.1.144.24.176a2.088,2.088,0,0,1,1.072.528L-54.6,1.7c.064.48.144.7.288.7.24,0,.4-.24.448-.736q1.44-.048,5.616-.048c.432,0,.64-.08.64-.272,0-.176-.24-.3-.736-.384.16-.816.32-1.856.464-3.136C-47.864-2.464-47.512-2.624-47.512-2.768Zm-1.344.32-.08,3.36a.426.426,0,0,1-.32.208,42.778,42.778,0,0,1-4.608.112l-.08-3.168a1.757,1.757,0,0,1,.016-.432C-52.12-2.432-50.52-2.448-48.856-2.448Zm4.32-3.2c0-.16-.128-.272-.384-.352a4.245,4.245,0,0,0-1.36-.208,1.135,1.135,0,0,0-.512.144,4.69,4.69,0,0,1-1.52.272c.352-1.056.608-1.9.784-2.544a14.927,14.927,0,0,0,.4-2.08c.224-.176.336-.32.336-.416,0-.112-.08-.192-.224-.224a3.768,3.768,0,0,0-.816-.1.946.946,0,0,0-.416.128.857.857,0,0,1-.432.1c-1.856.112-3.664.176-5.392.176a13.4,13.4,0,0,1-2.064-.16c-.192-.032-.288,0-.288.112,0,.08.064.176.208.272a5.6,5.6,0,0,0,1.28.576,1.62,1.62,0,0,0,.352.064.59.59,0,0,0,.272-.08,3.836,3.836,0,0,1,1.584-.336c1.728-.1,3.216-.16,4.48-.144q-.024,1.128-.144,2.112c-.16,1.232-.272,2.08-.368,2.56-2.272.1-4.672.128-7.136.128a14.6,14.6,0,0,1-2.4-.176c-.16-.032-.24,0-.24.08s.064.176.192.272a4.822,4.822,0,0,0,1.536.7,1.079,1.079,0,0,0,.272.048.58.58,0,0,0,.208-.08,4.992,4.992,0,0,1,1.5-.288c1.7-.144,4.256-.224,7.68-.224a15.923,15.923,0,0,1,1.92.112.821.821,0,0,0,.592-.128A.45.45,0,0,0-44.536-5.648Zm9.6,1.28v-.368h1.616c.688,0,1.312.032,1.872.08.512.048.752-.08.752-.416,0-.176-.112-.3-.368-.368a5.254,5.254,0,0,0-1.456-.192,1.2,1.2,0,0,0-.5.128,5.268,5.268,0,0,1-1.7.272c-2.032.08-4.5.128-7.344.128a17.123,17.123,0,0,1-2.4-.176c-.16-.032-.24,0-.24.08a.341.341,0,0,0,.192.272,5.724,5.724,0,0,0,1.52.7,1.076,1.076,0,0,0,.288.048.679.679,0,0,0,.192-.08,8.137,8.137,0,0,1,2.288-.336v1.936A2.37,2.37,0,0,0-40.152-2a.221.221,0,0,0-.064.048,2.236,2.236,0,0,0-.96,1.872c0,1.552,1.328,2.608,3.408,2.608a3.8,3.8,0,0,0,2.512-.752A2.2,2.2,0,0,0-34.344-.08a2.277,2.277,0,0,0-.96-1.872,2.932,2.932,0,0,0,.272-.976A11.85,11.85,0,0,0-34.936-4.368Zm-1.984-7.488a.25.25,0,0,0-.176-.208,1.534,1.534,0,0,0-.624-.144c-.208,0-.32.032-.336.08a.1.1,0,0,0,.064.128c.16.1.24.192.24.32a.332.332,0,0,1-.08.192,3.74,3.74,0,0,0-2.416.784,2.348,2.348,0,0,0-.944,1.92,2.445,2.445,0,0,0,.96,1.952,3.936,3.936,0,0,0,2.5.768,3.873,3.873,0,0,0,2.464-.768A2.373,2.373,0,0,0-34.3-8.784a2.364,2.364,0,0,0-.96-1.92,3.335,3.335,0,0,0-1.84-.736A1,1,0,0,0-36.92-11.856Zm-.784.96A2.676,2.676,0,0,1-35.9-10.3a1.924,1.924,0,0,1,.72,1.52,1.935,1.935,0,0,1-.7,1.52,2.639,2.639,0,0,1-1.824.592,2.752,2.752,0,0,1-1.856-.592,1.935,1.935,0,0,1-.7-1.52,1.924,1.924,0,0,1,.72-1.52A2.822,2.822,0,0,1-37.7-10.9Zm2.5,10.784c0,1.216-.992,2.032-2.544,2.032-1.52,0-2.544-.8-2.544-2.032a1.781,1.781,0,0,1,.72-1.456,2.868,2.868,0,0,1,1.824-.592C-36.2-2.16-35.208-1.3-35.208-.112Zm-1.9-2.96c0-.08-.064-.128-.176-.176a1.585,1.585,0,0,0-.608-.144c-.224,0-.336.048-.336.128,0,.048.032.08.1.112.128.064.192.128.192.208a.288.288,0,0,1-.144.256,4.321,4.321,0,0,0-1.408.3,2.981,2.981,0,0,0,.08-.432,12.505,12.505,0,0,0,.1-1.568V-4.64c.944-.032,2.112-.064,3.488-.08v1.936a4.509,4.509,0,0,0,.016.5,3.929,3.929,0,0,0-1.5-.4A.657.657,0,0,0-37.112-3.072Zm18.3-8.512a.4.4,0,0,0-.32-.416,6.616,6.616,0,0,0-2-.32c-.336,0-.5.08-.5.256,0,.08.064.128.208.16a3.1,3.1,0,0,1,1.648.848v4.5a22.085,22.085,0,0,1-2.288.144c-.5,0-1.072-.016-1.44-.048-.192-.016-.288.016-.288.112a.3.3,0,0,0,.176.256,10.068,10.068,0,0,0,1.088.56.357.357,0,0,0,.176.016.426.426,0,0,0,.192-.048,2.3,2.3,0,0,1,.624-.24,10.388,10.388,0,0,1,1.76-.176v7.5c0,.784.08,1.168.272,1.168.208,0,.352-.368.448-1.136a29.978,29.978,0,0,0,.176-3.712v-8.464C-18.872-10.816-18.808-11.376-18.808-11.584ZM-24.936-9.1a.409.409,0,0,0-.224-.352,6.143,6.143,0,0,0-1.488-.608.962.962,0,0,0-.32-.048c-.272,0-.4.048-.4.144s.08.16.256.24a1.777,1.777,0,0,1,.944.992,13.9,13.9,0,0,1-1.6,3.5A15.358,15.358,0,0,1-30.376-2.1c-.16.16-.24.256-.24.336s.032.112.112.112a.723.723,0,0,0,.384-.16A15.257,15.257,0,0,0-26.856-5.04c.208-.3.4-.592.592-.9l2.784,3.712c.144.192.272.3.464.3a.268.268,0,0,0,.288-.288,2.23,2.23,0,0,0-.3-.992,3.806,3.806,0,0,0-.7-1.04A3.92,3.92,0,0,0-24.12-4.5a3.891,3.891,0,0,1-1.12-1.088l-.7-.912a11.756,11.756,0,0,0,.912-2.24C-24.968-8.976-24.936-9.088-24.936-9.1Zm19.76-2.48A.386.386,0,0,0-5.48-12,6.639,6.639,0,0,0-7.5-12.32c-.336,0-.5.08-.5.256,0,.08.08.128.224.16a3.044,3.044,0,0,1,1.632.848V1.52c0,.784.1,1.168.272,1.168.208,0,.352-.368.464-1.136A29.978,29.978,0,0,0-5.224-2.16v-8.464C-5.224-10.816-5.176-11.376-5.176-11.584ZM-9.1-9.552a.3.3,0,0,0-.24-.3,5.435,5.435,0,0,0-1.712-.352c-.208,0-.48.144-.48.256,0,.1.048.16.176.208a2.655,2.655,0,0,1,1.232.624v2.48l-4.288.064.016-1.584a2.046,2.046,0,0,1,.016-.336A1.859,1.859,0,0,1-14.36-8.7c0-.24-.128-.368-.4-.416a11.387,11.387,0,0,0-1.6-.16c-.192,0-.432.16-.432.288,0,.144.128.192.272.224a2.076,2.076,0,0,1,1.152.576l.1,6.224q0,.672.24.672c.256,0,.464-.368.576-1.136l4.336-.048q0,.864.24.864c.256,0,.432-.288.544-.88a5.229,5.229,0,0,0,.08-.912l.08-5.184c0-.208,0-.4.016-.544C-9.16-9.2-9.1-9.488-9.1-9.552ZM-10.12-3.024l-4.3.064.016-3.056,4.288-.112Zm15.168-6.7a.423.423,0,0,0-.224-.336,13.12,13.12,0,0,0-1.616-.592,1.218,1.218,0,0,0-.336-.048c-.272,0-.4.048-.4.144,0,.08.08.144.224.224.624.3.992.64,1.088,1.008A14.442,14.442,0,0,1-1.9-3.792c-.176.1-.256.192-.256.256,0,.1.032.144.112.144a1.081,1.081,0,0,0,.272-.08,14.483,14.483,0,0,0,5.52-3.936L8.76-4.224a.851.851,0,0,0,.464.16c.192,0,.288-.1.288-.3S9.32-4.848,8.9-5.2A7.066,7.066,0,0,0,7.56-6.176c-.288-.1-.512-.16-.7-.208a3.688,3.688,0,0,1-1.232-.5L4.088-7.856a10.088,10.088,0,0,0,.88-1.488A1.267,1.267,0,0,0,5.048-9.728Zm5.776,9.1c0-.176-.112-.288-.368-.368A5.856,5.856,0,0,0,9-1.168a1.2,1.2,0,0,0-.5.128,5.365,5.365,0,0,1-1.7.256c-2.416.112-4.88.16-7.344.16A14.881,14.881,0,0,1-2.936-.8c-.16-.032-.24-.016-.24.064a.387.387,0,0,0,.192.288A4.277,4.277,0,0,0-1.464.24a1.685,1.685,0,0,0,.288.048A.5.5,0,0,0-.984.224,5.11,5.11,0,0,1,.52-.064C2.2-.208,4.76-.272,8.2-.272c.7,0,1.344.032,1.872.08C10.584-.144,10.824-.272,10.824-.624ZM22.408-7.152a.361.361,0,0,0-.384-.384A11.078,11.078,0,0,0,20.6-7.568a.9.9,0,0,0-.48.16,3.257,3.257,0,0,1-1.328.272c-.88.032-2.08.048-3.552.048-.32,0-.48-.176-.48-.512V-9.744a5.2,5.2,0,0,1,.032-.656c.032-.272-.048-.432-.272-.48a8.764,8.764,0,0,0-1.728-.144c-.208,0-.5.176-.5.3a.1.1,0,0,0,.016.064,2.685,2.685,0,0,0,.72.224,1.215,1.215,0,0,1,.8.448v2.016c0,1.024.432,1.408,1.7,1.408,1.52,0,3.632-.048,6.272-.128C22.184-6.7,22.408-6.832,22.408-7.152Zm2.256,2.56c0-.176-.112-.3-.368-.368a5.856,5.856,0,0,0-1.456-.176,1.168,1.168,0,0,0-.5.112,5.268,5.268,0,0,1-1.7.272c-2.4.1-4.864.144-7.344.144a14.881,14.881,0,0,1-2.4-.176c-.16-.016-.24,0-.24.08a.387.387,0,0,0,.192.288,5,5,0,0,0,1.52.688,2.4,2.4,0,0,0,.288.048.679.679,0,0,0,.192-.08,4.731,4.731,0,0,1,1.5-.272c1.856-.144,4.448-.224,7.68-.224.7,0,1.344.032,1.872.08C24.424-4.128,24.664-4.256,24.664-4.592ZM22.3,1.12c0-.176-.112-.272-.368-.32a6.679,6.679,0,0,0-1.36-.064.946.946,0,0,0-.5.16,3.937,3.937,0,0,1-1.584.256c-1.024.032-2.032.032-2.976.016-.336-.016-.5-.192-.5-.544v-1.68a4.631,4.631,0,0,1,.032-.656c.048-.272-.032-.448-.24-.5a10.371,10.371,0,0,0-1.856-.128c-.208,0-.5.144-.5.272a.237.237,0,0,0,.016.112,2.96,2.96,0,0,0,.768.224c.48.112.784.24.864.416l.016,1.6c0,.992.352,1.344,1.648,1.344,1.52-.032,3.488-.048,5.92-.048C22.1,1.584,22.3,1.424,22.3,1.12ZM39.5-11.248c0-.08-.064-.144-.192-.176a4.889,4.889,0,0,0-.832-.128.728.728,0,0,0-.32.08,1.039,1.039,0,0,1-.432.128c-.144.016-.928.032-2.384.064-1.44.032-2.352.048-2.752.048a3.417,3.417,0,0,0-.56-.16,9.995,9.995,0,0,0-1.472-.128c-.176,0-.4.128-.4.256,0,.064.08.128.224.16a2.423,2.423,0,0,1,1.136.56l.368,3.328c.064.624.16.928.272.928.272,0,.432-.256.48-.784,3.216-.048,5.232-.08,6.08-.064.4.016.592-.08.592-.272,0-.16-.224-.272-.688-.368.16-.624.336-1.664.528-3.056a1.086,1.086,0,0,1,.192-.192C39.448-11.1,39.5-11.184,39.5-11.248Zm.56,12.8c0-.448-.56-.448-1.648-.448a.938.938,0,0,0-.464.176,4.221,4.221,0,0,1-1.536.224c-1.408.064-2.544.08-3.424.064a.321.321,0,0,1-.336-.368V-.176a2.389,2.389,0,0,1,.016-.3C33.7-.528,35.832-.576,39-.608c.24-.016.368-.1.368-.272,0-.144-.192-.24-.592-.288.16-.544.272-1.024.384-1.536a.376.376,0,0,1,.192-.256.226.226,0,0,0,.128-.192c0-.08-.048-.144-.16-.176a5.6,5.6,0,0,0-.88-.144c-.256,0-.384.16-.72.176-.4.048-1.136.08-2.208.112a2.27,2.27,0,0,0,.224-.7,5.845,5.845,0,0,0,.1-1.12v-.064c1.12-.016,2.384-.032,3.808-.032.7,0,1.344.032,1.872.08.512.048.752-.08.752-.432,0-.176-.112-.288-.368-.352A5.173,5.173,0,0,0,40.44-6a1.2,1.2,0,0,0-.5.128,5.268,5.268,0,0,1-1.7.272c-2.416.1-4.88.144-7.344.144a14.881,14.881,0,0,1-2.4-.176c-.16-.032-.24,0-.24.08a.387.387,0,0,0,.192.288,4.525,4.525,0,0,0,1.52.672,1.685,1.685,0,0,0,.288.048.5.5,0,0,0,.192-.064,5.11,5.11,0,0,1,1.5-.288c.784-.064,1.776-.112,2.96-.144V-4a2.534,2.534,0,0,0,.08.816h-.016c-1.3.032-2.112.048-2.48.032a11.935,11.935,0,0,1-1.68-.16c-.176-.016-.288.016-.288.112a.194.194,0,0,0,.128.176,3.285,3.285,0,0,0,1.552.624.917.917,0,0,0,.416-.144,4.578,4.578,0,0,1,1.1-.16c1.3-.08,2.784-.128,4.416-.128A7.867,7.867,0,0,1,38.1-1.184a.377.377,0,0,1-.256.144c-1.6.08-3.264.112-4.96.112A.494.494,0,0,1,32.68-.96a1.1,1.1,0,0,0-.336-.1,8.987,8.987,0,0,0-1.5-.1c-.256.016-.368.064-.368.176,0,.08.064.128.224.16a1.9,1.9,0,0,1,1.04.464V.864a1.268,1.268,0,0,0,.32.944,1.321,1.321,0,0,0,.88.192c1.872-.032,4.192-.064,6.5-.048C39.848,1.952,40.056,1.824,40.056,1.552ZM38.04-7.9a.441.441,0,0,1-.384.288c-1.5.1-3.184.128-5.008.1l-.1-2.768c0-.016,0-.176.016-.464,2.688-.112,4.56-.144,5.552-.112ZM56.1-3.536c0-.192-.112-.3-.368-.384A5.407,5.407,0,0,0,54.28-4.1a1.2,1.2,0,0,0-.5.128,5.365,5.365,0,0,1-1.7.256q-1.272.072-2.544.1v-1.92q2.016-.048,3.552-.048c.416,0,.608-.144.608-.448,0-.224-.112-.352-.368-.368a10.23,10.23,0,0,0-1.488-.064,1.1,1.1,0,0,0-.5.176,3.033,3.033,0,0,1-1.344.272c-1.968.08-3.1.128-3.44.112-.24-.016-.352-.16-.352-.464V-8.1c1.6-.08,3.776-.144,6.528-.16q.384,0,.384-.24c0-.208-.192-.336-.592-.4a7.7,7.7,0,0,0,.544-1.84c.208-.128.32-.272.32-.352,0-.112-.1-.192-.272-.24a3.029,3.029,0,0,0-.752-.1,5.252,5.252,0,0,1-.816.176c-.96.064-2.528.112-4.688.128a11.242,11.242,0,0,1-2.224-.144c-.192-.032-.3.016-.3.144,0,.08.08.192.272.288a8.98,8.98,0,0,0,1.28.48,1.8,1.8,0,0,0,.352.064.511.511,0,0,0,.224-.048c.656-.4,2.384-.48,5.584-.416-.032.96-.064,1.568-.1,1.808a.253.253,0,0,1-.256.208c-1.84.112-3.6.16-5.248.144a.552.552,0,0,1-.192-.016A1.529,1.529,0,0,0,45.9-8.72a10.2,10.2,0,0,0-1.568-.064c-.24.016-.352.08-.352.192,0,.064.064.128.208.16a2.412,2.412,0,0,1,1.136.464v1.376a1.251,1.251,0,0,0,.3.976,1.3,1.3,0,0,0,.9.176c.736-.016,1.44-.048,2.112-.064v1.92c-1.28.032-2.576.032-3.888.032a12.8,12.8,0,0,1-2.4-.176c-.16-.032-.24-.016-.24.08a.341.341,0,0,0,.192.272,4.014,4.014,0,0,0,1.52.688q.264.048.288.048A.382.382,0,0,0,44.3-2.7a4.626,4.626,0,0,1,1.5-.288c1.728-.144,4.3-.224,7.68-.224a15.615,15.615,0,0,1,1.872.1C55.864-3.072,56.1-3.2,56.1-3.536Zm-2.272,4.9c0-.192-.112-.3-.352-.352A8.82,8.82,0,0,0,52.088.96a.99.99,0,0,0-.5.16,3.6,3.6,0,0,1-1.568.24c-1.088.048-2.1.048-3.008.032-.336-.016-.5-.208-.5-.576V-.544a4.422,4.422,0,0,1,.016-.592c.032-.32-.048-.512-.24-.56a8.908,8.908,0,0,0-1.824-.128c-.224,0-.512.144-.512.288,0,.08.064.128.208.16.864.192,1.344.384,1.44.592L45.64.528a1.333,1.333,0,0,0,.32,1.008,1.916,1.916,0,0,0,1.312.3c1.68-.048,3.648-.048,5.92-.032C53.624,1.824,53.832,1.664,53.832,1.36Zm2.384,2.16.24.4A3.776,3.776,0,0,0,58.264.64c0-1.312-.7-1.712-1.312-1.712-.656,0-.864.768-.656,1.312.752.144,1.04.448,1.04,1.232A2.737,2.737,0,0,1,56.216,3.52ZM-84.312,20.136a.2.2,0,0,0-.176-.256,9.061,9.061,0,0,0-1.648-.256c-.32,0-.48.064-.48.208,0,.08.064.144.208.192.688.176,1.088.384,1.168.64l.128,3.648h-1.6a14.737,14.737,0,0,1-2.4-.176c-.16-.016-.24,0-.24.08a.387.387,0,0,0,.192.288,4.338,4.338,0,0,0,1.52.688,1.685,1.685,0,0,0,.288.048.5.5,0,0,0,.192-.064,4.227,4.227,0,0,1,1.5-.288c1.664-.144,4.224-.208,7.68-.208.752,0,1.376.016,1.872.064.512.048.752-.08.752-.416,0-.176-.128-.3-.384-.368a5.917,5.917,0,0,0-1.44-.176,1.336,1.336,0,0,0-.5.128,5.4,5.4,0,0,1-1.712.256c-.56.032-1.136.048-1.7.064l.336-4.416c.032-.24.064-.416.08-.528.016-.144-.048-.224-.224-.256a6.428,6.428,0,0,0-1.632-.272c-.32.016-.5.064-.5.192-.016.08.08.144.224.208a2.464,2.464,0,0,1,1.12.64l-.144,4.448c-.832.032-1.68.048-2.528.048V20.68A3.928,3.928,0,0,1-84.312,20.136Zm7.024-5.168c0-.16-.08-.24-.256-.272a3.47,3.47,0,0,0-.768-.1.846.846,0,0,0-.4.112,1.445,1.445,0,0,1-.448.1c-2.528.16-4.736.208-6.16.192a10.842,10.842,0,0,1-2.112-.176q-.288-.024-.288.144c0,.08.08.176.224.256a5.887,5.887,0,0,0,1.36.624,1.349,1.349,0,0,0,.368.064.653.653,0,0,0,.256-.064,4.133,4.133,0,0,1,1.536-.32c2.752-.128,4.64-.192,5.28-.176,0,.848-.032,1.792-.128,2.848-.08,1.328-.192,2.48-.384,3.776a.984.984,0,0,0-.016.208c0,.112.048.176.128.176.176,0,.352-.256.48-.72a26.975,26.975,0,0,0,.7-3.456c.08-.592.192-1.52.3-2.752C-77.4,15.256-77.288,15.1-77.288,14.968Zm9.536-1.808a.25.25,0,0,0-.176-.208,1.485,1.485,0,0,0-.624-.176c-.208,0-.336.048-.336.112s.032.1.1.128a.331.331,0,0,1,.208.32.333.333,0,0,1-.112.24,3.878,3.878,0,0,0-2.368.768,2.4,2.4,0,0,0-.944,1.936,2.415,2.415,0,0,0,.96,1.936,3.849,3.849,0,0,0,2.5.784,3.788,3.788,0,0,0,2.464-.784,2.366,2.366,0,0,0,.976-1.936,2.415,2.415,0,0,0-.96-1.936,3.621,3.621,0,0,0-1.9-.736A.859.859,0,0,0-67.752,13.16Zm1.632,8v-.672c.624-.016,1.28-.016,1.984-.016a13.382,13.382,0,0,1,1.872.112c.512.048.752-.112.752-.432,0-.176-.112-.3-.368-.368a4.711,4.711,0,0,0-1.456-.208,1.026,1.026,0,0,0-.5.144,5.268,5.268,0,0,1-1.7.272c-2.032.08-4.5.112-7.344.112a17.115,17.115,0,0,1-2.4-.16c-.16-.032-.24-.016-.24.064a.341.341,0,0,0,.192.272,4.874,4.874,0,0,0,1.52.7,1.076,1.076,0,0,0,.288.048s.192-.048.592-.16a4.664,4.664,0,0,1,.848-.176c.32-.016.672-.048,1.056-.064v1.632a2.888,2.888,0,0,0,.064.736,10.971,10.971,0,0,1-2.192-.16c-.208-.016-.3.016-.3.144,0,.08.08.176.224.256a7.792,7.792,0,0,0,1.328.544,1.228,1.228,0,0,0,.368.1.588.588,0,0,0,.256-.08,3.866,3.866,0,0,1,1.584-.352c1.088-.064,2.448-.1,4.064-.1v2.8c0,.96.1,1.44.3,1.44s.384-.4.5-1.232c.048-.352.064-.72.08-1.136l.048-1.808a.683.683,0,0,0,.224-.4c0-.192-.56-.32-.832-.32a.968.968,0,0,0-.384.064q-.456.072-.672.1a3.08,3.08,0,0,0,.144-.528A6.025,6.025,0,0,0-66.12,21.16Zm-2.4-6.992a2.676,2.676,0,0,1,1.808.592,1.916,1.916,0,0,1,.72,1.5,1.967,1.967,0,0,1-.7,1.536,2.72,2.72,0,0,1-1.824.592,2.761,2.761,0,0,1-1.856-.608,1.935,1.935,0,0,1-.7-1.52,1.916,1.916,0,0,1,.72-1.5A2.822,2.822,0,0,1-68.52,14.168Zm-1.584,7.04v-.624c.9-.048,1.92-.08,3.088-.1v1.776a3.491,3.491,0,0,0,.032.624c-1.28.064-2.4.1-3.376.112a2.47,2.47,0,0,0,.16-.64A8.73,8.73,0,0,0-70.1,21.208Zm8.7,7.312.24.4a3.776,3.776,0,0,0,1.808-3.28c0-1.312-.7-1.712-1.312-1.712-.656,0-.864.768-.656,1.312.752.144,1.04.448,1.04,1.232A2.737,2.737,0,0,1-61.4,28.52Zm10.736-12.56c0-.1-.032-.128-.112-.176a1.893,1.893,0,0,0-.768-.272c-.24,0-.352.048-.352.144a.193.193,0,0,0,.1.144q.288.168.288.336c0,.064-.016.112-.016.144a3.211,3.211,0,0,0-2.256.848,2.932,2.932,0,0,0-.992,2.288,3.056,3.056,0,0,0,.976,2.3,3.208,3.208,0,0,0,2.288.848,3.261,3.261,0,0,0,2.32-.848,2.78,2.78,0,0,0,.4-.464q.216.1.48.192a.68.68,0,0,0,.176.032.511.511,0,0,0,.224-.048,2.829,2.829,0,0,1,.608-.16c.256-.032.544-.048.88-.064v4.128q0,1.1.24,1.1c.288,0,.48-.768.56-2.336.048-.992.064-1.744.064-2.24V15.528a3.139,3.139,0,0,1,.016-.5c.016-.224.032-.352.032-.368a.389.389,0,0,0-.272-.416,8.106,8.106,0,0,0-1.7-.32c-.3,0-.448.064-.448.224,0,.064.064.112.208.16a2.145,2.145,0,0,1,1.3.72V17.16c-.7.048-1.216.064-1.552.064-.5,0-.88,0-1.232-.032v-.016a3.41,3.41,0,0,0-1.616-.832A.774.774,0,0,0-50.664,15.96Zm1.536,3.456A2.428,2.428,0,0,1-49.8,21.16a2.2,2.2,0,0,1-1.68.72,2.223,2.223,0,0,1-1.7-.7,2.485,2.485,0,0,1-.64-1.76,2.484,2.484,0,0,1,.656-1.744,2.212,2.212,0,0,1,1.68-.7,2.212,2.212,0,0,1,1.68.7A2.428,2.428,0,0,1-49.128,19.416Zm6.272-5.952a.421.421,0,0,0-.3-.416,6.1,6.1,0,0,0-1.856-.368c-.336,0-.512.08-.512.256,0,.064.064.112.208.144a2.693,2.693,0,0,1,1.5.848V26.312c0,.928.08,1.376.256,1.376.192,0,.448-.688.528-1.648.064-.912.1-1.872.1-2.864V14.3a3.566,3.566,0,0,1,.048-.512A2.169,2.169,0,0,0-42.856,13.464Zm-5.68,4.416a1.007,1.007,0,0,0,.192.048.725.725,0,0,0,.256-.048,1.942,1.942,0,0,1,.576-.16c.32-.032.688-.048,1.088-.064v3.072c-.5.048-.976.064-1.44.064h-.672a3.461,3.461,0,0,0,.272-1.376,2.971,2.971,0,0,0-.4-1.568C-48.632,17.864-48.584,17.864-48.536,17.88Zm18.816,8.672c0-.24-.144-.384-.448-.416-.272-.016-.672-.032-1.216-.032a.765.765,0,0,0-.448.176,3.892,3.892,0,0,1-1.44.208c-1.344.08-2.512.1-3.536.08-.24-.016-.352-.128-.352-.352V24.84a2.827,2.827,0,0,1,.016-.3c1.376-.064,3.456-.112,6.272-.128.256,0,.384-.1.384-.272,0-.144-.208-.224-.624-.272a15.875,15.875,0,0,0,.464-1.616.406.406,0,0,1,.144-.208c.1-.064.144-.112.144-.192,0-.048-.032-.08-.08-.112a1.535,1.535,0,0,0-.48-.144,3.8,3.8,0,0,0-.528-.064c-.24,0-.416.16-.736.176-.72.064-1.44.1-2.128.128a1.948,1.948,0,0,0,.224-.608,6.536,6.536,0,0,0,.1-1.264V19.8c1.136-.032,2.4-.048,3.808-.048.7,0,1.344.032,1.872.08.512.048.752-.08.752-.416,0-.176-.112-.3-.368-.368a5.158,5.158,0,0,0-1.456-.208,1.239,1.239,0,0,0-.5.144,5.444,5.444,0,0,1-1.7.272c-2.608.112-5.04.16-7.344.16a14.737,14.737,0,0,1-2.4-.176c-.16-.032-.24,0-.24.08a.341.341,0,0,0,.192.272,4.093,4.093,0,0,0,1.52.688q.264.048.288.048a.5.5,0,0,0,.192-.064,5.11,5.11,0,0,1,1.5-.288c.816-.064,1.808-.112,2.96-.16v1.136a2.869,2.869,0,0,0,.1.9c-.816.016-1.6.016-2.384,0a14.652,14.652,0,0,1-1.76-.16c-.16-.016-.24.016-.24.128a.184.184,0,0,0,.128.16,6.025,6.025,0,0,0,1.216.56.861.861,0,0,0,.352.064.931.931,0,0,0,.4-.144,4.275,4.275,0,0,1,1.1-.16c1.216-.08,2.656-.128,4.288-.144a7.468,7.468,0,0,1-.064,1.664.3.3,0,0,1-.256.16c-1.424.08-3.072.112-4.88.112a.627.627,0,0,1-.208-.032,3.019,3.019,0,0,0-.336-.1,9.179,9.179,0,0,0-1.5-.1c-.24.016-.368.08-.368.192,0,.064.064.112.224.144a2.252,2.252,0,0,1,1.04.464V25.88a1.2,1.2,0,0,0,.32.944,1.3,1.3,0,0,0,.9.208c2.08-.1,4.256-.112,6.5-.08C-29.928,26.968-29.72,26.824-29.72,26.552ZM-33.4,13.736c0-.112-.08-.208-.272-.3a6.1,6.1,0,0,0-1.424-.5,1.653,1.653,0,0,0-.352-.048c-.272,0-.4.048-.4.144,0,.08.08.16.24.224a1.59,1.59,0,0,1,.992.816,12.891,12.891,0,0,1-5.1,4.048c-.176.08-.256.16-.256.224,0,.1.032.144.112.144a.718.718,0,0,0,.272-.064,13.055,13.055,0,0,0,4.944-2.944l5.008,2.3a1.182,1.182,0,0,0,.448.08.253.253,0,0,0,.256-.288c-.016-.368-.624-.8-1.84-1.344a3.515,3.515,0,0,0-.816-.144,3.324,3.324,0,0,1-1.04-.3l-1.616-.736a8.484,8.484,0,0,0,.736-.96A.61.61,0,0,0-33.4,13.736Zm16.9.224a.216.216,0,0,0-.176-.192,4.774,4.774,0,0,0-.848-.128.613.613,0,0,0-.3.08,1.057,1.057,0,0,1-.448.144c-.144.016-.928.032-2.384.064-1.44.032-2.352.048-2.752.048a1.913,1.913,0,0,0-.56-.16,9.995,9.995,0,0,0-1.472-.128c-.176,0-.4.128-.4.256,0,.08.08.144.224.176a2.593,2.593,0,0,1,1.136.528l.368,3.632c.064.64.16.96.272.96.288,0,.432-.256.48-.8,3.232-.048,5.248-.08,6.1-.064.416,0,.608-.1.608-.256s-.224-.288-.688-.384c.224-1.392.4-2.512.512-3.392C-16.712,14.216-16.5,14.1-16.5,13.96Zm-1.376.368-.048,3.3a.518.518,0,0,1-.384.272c-1.5.1-3.2.128-5.04.1l-.1-3.072c0-.016,0-.176.016-.48C-20.744,14.328-18.888,14.3-17.88,14.328Zm4.16,6.048c0-.176-.112-.288-.368-.368a5.407,5.407,0,0,0-1.456-.176,1.2,1.2,0,0,0-.5.128,5.268,5.268,0,0,1-1.7.272c-2.336.08-4.8.128-7.344.128a12.954,12.954,0,0,1-2.4-.16c-.16-.032-.24-.016-.24.064a.439.439,0,0,0,.192.3,4.525,4.525,0,0,0,1.52.672q.264.048.288.048a.382.382,0,0,0,.192-.064,4.227,4.227,0,0,1,1.5-.288c.8-.064,1.792-.112,2.96-.144v2.752q0,1.3.24,1.3c.192,0,.368-.4.5-1.2a13.119,13.119,0,0,0,.176-2.24v-.64c1.12-.016,2.384-.032,3.808-.032.736,0,1.344.032,1.872.08C-13.96,20.856-13.72,20.728-13.72,20.376Zm-2.272,5.936c0-.176-.112-.272-.352-.32a8.82,8.82,0,0,0-1.392-.048.941.941,0,0,0-.48.16,3.937,3.937,0,0,1-1.584.256c-1.1.048-2.144.048-3.088.016-.336-.016-.5-.208-.5-.576V24.216a5.22,5.22,0,0,1,.016-.624q.048-.456-.24-.528a8.647,8.647,0,0,0-1.84-.144c-.208,0-.5.16-.5.288,0,.08.064.144.208.176q1.3.264,1.44.576l.016,1.568c0,.944.368,1.328,1.648,1.312,1.68-.048,3.7-.064,6.016-.032C-16.2,26.808-15.992,26.648-15.992,26.312Zm13.312-12.9A.4.4,0,0,0-3,13a6.414,6.414,0,0,0-1.968-.32c-.352,0-.512.08-.512.256,0,.08.08.128.224.16a3.051,3.051,0,0,1,1.616.848v8.7a26.412,26.412,0,0,1-3.984.736c-.32.032-.64.08-.992.112v-1.44A3.348,3.348,0,0,0-6.9,21.4a2.154,2.154,0,0,0,.88-1.776,2.019,2.019,0,0,0-.88-1.712,3.31,3.31,0,0,0-1.712-.64.442.442,0,0,0,.208-.352.659.659,0,0,0-.256-.32c-.016-.016-.048-.032-.064-.048.512-.016,1.04-.032,1.568-.032.832,0,1.44.016,1.792.048.384.032.544-.08.544-.336,0-.368-.7-.528-1.5-.528a1.178,1.178,0,0,0-.592.16,4.222,4.222,0,0,1-1.44.224c-.9.064-2.048.1-3.472.1a11.308,11.308,0,0,1-1.856-.128c-.144-.016-.208.016-.208.112a.3.3,0,0,0,.112.208,2.926,2.926,0,0,0,1.168.544,1.538,1.538,0,0,0,.368.08.721.721,0,0,0,.272-.08,6.623,6.623,0,0,1,1.008-.208c.5-.048.976-.08,1.472-.112.016,0,.032.016.048.016.208.112.32.24.32.352a.426.426,0,0,1-.192.288,3.465,3.465,0,0,0-1.936.656,2.019,2.019,0,0,0-.88,1.712,2.2,2.2,0,0,0,.88,1.776,3.379,3.379,0,0,0,1.712.656v1.5c-.688.064-1.44.112-2.24.144a7.882,7.882,0,0,1-1.92-.112c-.176-.032-.288,0-.288.112a.354.354,0,0,0,.224.3,4.882,4.882,0,0,0,1.872.752.974.974,0,0,0,.368-.112,1.558,1.558,0,0,1,.544-.224c1.5-.176,2.656-.352,3.536-.5,1.392-.272,2.672-.56,3.808-.88V26.52c0,.784.08,1.168.272,1.168.208,0,.352-.368.464-1.136a29.978,29.978,0,0,0,.176-3.712V19.928c.9-.016,1.712-.048,2.464-.064.432,0,.64-.144.64-.464a.386.386,0,0,0-.32-.368,2.538,2.538,0,0,0-1.5.016,1.53,1.53,0,0,0-.3.176,1.471,1.471,0,0,1-.976.272v-5.12C-2.728,14.184-2.68,13.624-2.68,13.416Zm-4.176,6.176A1.959,1.959,0,0,1-9.048,21.4a2.444,2.444,0,0,1-1.584-.512,1.584,1.584,0,0,1-.64-1.3,1.547,1.547,0,0,1,.64-1.264,2.436,2.436,0,0,1,1.584-.5C-7.784,17.832-6.856,18.568-6.856,19.592ZM-7.4,14.424c0-.224-.192-.336-.528-.336a18.245,18.245,0,0,1-3.232-.24,1.685,1.685,0,0,0-.288-.048c-.144,0-.208.032-.208.112a.355.355,0,0,0,.144.256,2.181,2.181,0,0,0,1.44.768,2.441,2.441,0,0,1,.288-.016c.8-.048,1.392-.08,1.872-.128C-7.576,14.776-7.4,14.664-7.4,14.424ZM.232,28.52l.24.4A3.776,3.776,0,0,0,2.28,25.64c0-1.312-.7-1.712-1.312-1.712-.656,0-.864.768-.656,1.312.752.144,1.04.448,1.04,1.232A2.737,2.737,0,0,1,.232,28.52Zm18.048-15.1A.4.4,0,0,0,17.96,13a6.616,6.616,0,0,0-2-.32c-.336,0-.5.08-.5.256,0,.08.064.128.208.16a3.269,3.269,0,0,1,1.648.832v4.256a18.228,18.228,0,0,1-2.384.128,9.03,9.03,0,0,1-1.408-.064c-.192-.032-.288,0-.288.08s.048.144.16.208a5.529,5.529,0,0,0,1.168.5.7.7,0,0,0,.16.032.443.443,0,0,0,.208-.048,2.05,2.05,0,0,1,.624-.192c.48-.048,1.056-.1,1.76-.112v3.68c0,.9.1,1.328.3,1.328s.352-.432.464-1.312a16.826,16.826,0,0,0,.128-2.112v-5.92C18.216,14.168,18.28,13.624,18.28,13.416ZM14.408,15.08c0-.1-.08-.16-.256-.208a2,2,0,0,0-.72-.112.52.52,0,0,0-.32.112c-.176.048-.3.08-.4.1a32.8,32.8,0,0,1-3.632.08,11.441,11.441,0,0,1-1.456-.1c-.144-.016-.208.016-.208.128,0,.08.064.144.176.224a6.642,6.642,0,0,0,1.184.528,1.244,1.244,0,0,0,.256.032.6.6,0,0,0,.24-.1,1.821,1.821,0,0,1,.8-.192c.928-.048,1.9-.1,2.928-.128a13.208,13.208,0,0,1-2.48,3.936A18.214,18.214,0,0,1,7.064,22.5c-.128.08-.192.16-.192.208a.127.127,0,0,0,.144.144.467.467,0,0,0,.144-.032,17.741,17.741,0,0,0,3.968-2.944,13.053,13.053,0,0,0,2.88-4.192.942.942,0,0,1,.208-.32A.387.387,0,0,0,14.408,15.08Zm5.2,11.088c0-.208-.112-.32-.352-.368a7.062,7.062,0,0,0-1.376-.064.99.99,0,0,0-.5.16,4.036,4.036,0,0,1-1.6.256,33.069,33.069,0,0,1-3.328.016.455.455,0,0,1-.48-.512V23.832a4.892,4.892,0,0,1,.032-.64c.032-.32-.048-.48-.256-.512a10.476,10.476,0,0,0-1.824-.128c-.208,0-.5.144-.5.272a.2.2,0,0,0,.016.1,2.356,2.356,0,0,0,.768.224q.72.168.864.432l.016,1.7c0,1.04.352,1.408,1.648,1.392,1.712-.048,3.776-.064,6.272-.048C19.416,26.632,19.608,26.488,19.608,26.168Zm11.648-1.824a2.452,2.452,0,0,0-.928-1.936,3.292,3.292,0,0,0-1.712-.768.86.86,0,0,0,.256-.4c0-.08-.048-.144-.16-.208a1.634,1.634,0,0,0-.8-.24c-.176,0-.256.064-.256.192,0,.032.08.1.224.176a.332.332,0,0,1,.176.256.4.4,0,0,1-.144.176,3.424,3.424,0,0,0-2.176.8,2.476,2.476,0,0,0-.944,1.952,2.57,2.57,0,0,0,.9,1.984,3.335,3.335,0,0,0,2.336.832,3.376,3.376,0,0,0,2.384-.832A2.557,2.557,0,0,0,31.256,24.344ZM28.04,22.2a2.241,2.241,0,0,1,2.336,2.144,1.957,1.957,0,0,1-.672,1.52,2.34,2.34,0,0,1-1.664.608,2.423,2.423,0,0,1-1.664-.608,2,2,0,0,1-.656-1.52,2.072,2.072,0,0,1,.656-1.52A2.417,2.417,0,0,1,28.04,22.2Zm-.176-7.312a.223.223,0,0,0-.048-.144,1.457,1.457,0,0,0-.9-.176c-.192,0-.368.176-.752.192a29.966,29.966,0,0,1-3.6.144,8.215,8.215,0,0,1-1.456-.112c-.144-.016-.208.016-.208.144,0,.08.064.144.192.224a5.931,5.931,0,0,0,1.152.528,1,1,0,0,0,.256.032.49.49,0,0,0,.24-.112,1.816,1.816,0,0,1,.816-.176c1.872-.112,2.848-.176,2.9-.176a16.925,16.925,0,0,1-2.768,3.984A17.666,17.666,0,0,1,20.5,22.1q-.192.144-.192.24a.118.118,0,0,0,.128.128.569.569,0,0,0,.16-.032,16.071,16.071,0,0,0,6.9-6.96,1.7,1.7,0,0,1,.192-.3A.409.409,0,0,0,27.864,14.888Zm3.408-1.472a.4.4,0,0,0-.32-.416,6.414,6.414,0,0,0-1.968-.32c-.352,0-.512.08-.512.256,0,.08.08.128.224.16a3.051,3.051,0,0,1,1.616.848v6.432c0,.9.1,1.344.3,1.344s.368-.416.48-1.248a11.239,11.239,0,0,0,.128-1.552v-.272c.9-.016,1.712-.048,2.464-.064.432,0,.64-.144.64-.448,0-.192-.112-.3-.32-.368a2.823,2.823,0,0,0-1.5.016c-.144.08-.24.144-.3.176a1.471,1.471,0,0,1-.976.272V14.376C31.224,14.168,31.272,13.624,31.272,13.416Zm13.84,0a.4.4,0,0,0-.32-.416,6.572,6.572,0,0,0-1.968-.32c-.352,0-.512.08-.512.256,0,.08.064.128.208.16a3.212,3.212,0,0,1,1.632.832V19.9c-.912.224-2.288.464-4.16.768-.544.08-1.12.16-1.728.224l.08-2.368.048-.544c.016-.144-.048-.224-.208-.24a8.06,8.06,0,0,0-1.5-.224c-.3,0-.48.064-.48.192,0,.1.08.16.224.192a1.793,1.793,0,0,1,1.056.592v2.48c-.5.048-1.008.08-1.52.112a8.808,8.808,0,0,1-1.92-.128c-.176-.032-.288,0-.288.112s.08.208.224.3a5.423,5.423,0,0,0,.912.4,3.012,3.012,0,0,0,.96.288.849.849,0,0,0,.352-.112,1.891,1.891,0,0,1,.56-.208,32.784,32.784,0,0,0,3.392-.56c1.68-.32,3.024-.608,4-.9v2.112c0,.9.1,1.328.3,1.328s.368-.432.48-1.312a17.012,17.012,0,0,0,.112-2.112V19.224c.368-.016.72-.016,1.088-.032.768-.016,1.216-.032,1.392-.032.432,0,.64-.16.64-.48a.358.358,0,0,0-.32-.352,2.982,2.982,0,0,0-1.5,0,2.668,2.668,0,0,0-.3.192,1.407,1.407,0,0,1-.992.272V14.376C45.048,14.168,45.112,13.624,45.112,13.416ZM46.3,26.248c0-.208-.112-.32-.368-.368a6.609,6.609,0,0,0-1.36-.064.946.946,0,0,0-.5.16,3.915,3.915,0,0,1-1.584.272c-1.552.048-2.544.08-2.976.064a.476.476,0,0,1-.5-.544V24.152a6.435,6.435,0,0,1,.016-.656c.032-.272-.048-.432-.224-.48a8.814,8.814,0,0,0-1.856-.144c-.208,0-.5.16-.5.288,0,.08.064.144.208.176.88.208,1.36.384,1.44.576l.016,1.5c.016,1.008.368,1.376,1.648,1.36,2.5-.08,4.448-.1,5.92-.08C46.1,26.7,46.3,26.552,46.3,26.248ZM42.248,14.984c0-.112-.08-.208-.256-.24a3.828,3.828,0,0,0-.7-.112.955.955,0,0,0-.416.112,1.192,1.192,0,0,1-.432.112c-1.584.1-2.832.144-3.712.144a9.894,9.894,0,0,1-1.744-.128c-.176-.032-.272.016-.272.128,0,.08.064.16.208.24a5.586,5.586,0,0,0,.992.48,1.4,1.4,0,0,0,.368.08.539.539,0,0,0,.272-.08,2.99,2.99,0,0,1,1.28-.288c1.008-.08,2-.112,3.056-.1-.064,1.136-.1,1.712-.112,1.76-.112,1.024-.192,1.7-.256,2.016a2.043,2.043,0,0,0-.032.272c0,.08.032.128.1.128.08,0,.192-.128.32-.368a8.059,8.059,0,0,0,.624-1.776c.176-.864.3-1.52.368-1.968C42.136,15.192,42.248,15.048,42.248,14.984Zm17.36-1.568A.386.386,0,0,0,59.3,13a6.639,6.639,0,0,0-2.016-.32c-.336,0-.5.1-.5.272,0,.064.08.112.224.144a3.055,3.055,0,0,1,1.632.864v7.76a27.643,27.643,0,0,1-3.312.784,33,33,0,0,1-4.064.544c-.24.016-.352-.128-.352-.384V19.816a2.442,2.442,0,0,1,.016-.288l4.784-.256c.192-.016.288-.1.288-.272s-.208-.3-.656-.416c.24-1.024.416-1.776.592-2.768a.377.377,0,0,1,.16-.256.272.272,0,0,0,.128-.208.15.15,0,0,0-.1-.128,2.243,2.243,0,0,0-.992-.176.86.86,0,0,0-.336.08,1.9,1.9,0,0,1-.4.08c-1.024.08-2.176.128-3.52.112a11.919,11.919,0,0,1-1.712-.1c-.144-.016-.224.016-.224.1a.266.266,0,0,0,.16.224,4.143,4.143,0,0,0,1.456.592A5.985,5.985,0,0,1,52.1,15.8a25.249,25.249,0,0,1,2.72-.112c0,1.152-.032,2.448-.08,2.912a.268.268,0,0,1-.192.16c-.992.112-2.176.176-3.488.192a.79.79,0,0,1-.24-.048,2,2,0,0,0-.464-.1,11.012,11.012,0,0,0-1.424-.1c-.08,0-.3.112-.3.208a.156.156,0,0,0,.128.16,3.178,3.178,0,0,1,1.2.448V22.44a1.842,1.842,0,0,0,.24,1.008.866.866,0,0,0,.576.48,3.651,3.651,0,0,0,.912-.032c1.28-.208,2.5-.448,3.584-.736a34.2,34.2,0,0,0,3.376-1.072V26.52c0,.784.1,1.168.272,1.168.208,0,.352-.368.464-1.136a29.614,29.614,0,0,0,.176-3.712V14.376C59.56,14.184,59.608,13.624,59.608,13.416ZM70.216,15.7c0-.16-.272-.288-.784-.288-.112,0-.416.128-.7.176a13.049,13.049,0,0,1-1.328.1c-.176,0-.368,0-.56-.016-.048-.144-.336-.208-.9-.208-.192,0-.416.112-.736.16a12.516,12.516,0,0,1-1.472.08,7.62,7.62,0,0,1-1.344-.112c-.176-.032-.24.048-.24.144,0,.08.048.144.176.224a3.221,3.221,0,0,0,.88.432.622.622,0,0,0,.24.032,5.618,5.618,0,0,1,2.048-.336A13.5,13.5,0,0,1,64.1,19.464a14.7,14.7,0,0,1-2.384,3.28.692.692,0,0,0-.16.192c0,.112.048.16.128.16a.319.319,0,0,0,.144-.032A12.7,12.7,0,0,0,64.7,19.848a12.072,12.072,0,0,0,1.728-3.664l.032-.032a3.331,3.331,0,0,0,.512.192,1.115,1.115,0,0,0,.3.064.393.393,0,0,0,.24-.08c.24-.192.592-.24,1.5-.256a18.4,18.4,0,0,1-4.032,8.016.409.409,0,0,0-.112.192c0,.1.048.144.128.144a.319.319,0,0,0,.144-.032,15.379,15.379,0,0,0,4.816-8.256,1.413,1.413,0,0,0,.128-.176A.711.711,0,0,0,70.216,15.7ZM73,13.288a.4.4,0,0,0-.336-.416,6.538,6.538,0,0,0-2-.32c-.32,0-.48.1-.48.272,0,.064.064.112.208.144a3.009,3.009,0,0,1,1.632.864v12.48c0,.784.1,1.168.272,1.168.208,0,.352-.368.464-1.136a26.791,26.791,0,0,0,.176-3.712v-2.64c.8-.016,1.552-.048,2.224-.064.432,0,.64-.16.64-.48,0-.176-.112-.288-.32-.352a2.909,2.909,0,0,0-1.392,0,2.669,2.669,0,0,0-.3.192,1.368,1.368,0,0,1-.848.272V14.248C72.936,14.04,73,13.5,73,13.288Zm10.64,2.384c0-.112-.08-.192-.256-.24a1.953,1.953,0,0,0-.656-.144c-.208,0-.64.176-.848.192a33.333,33.333,0,0,1-3.632.112,15.071,15.071,0,0,1-1.7-.128c-.112-.016-.176.016-.176.1a.269.269,0,0,0,.16.24,4.7,4.7,0,0,0,1.28.528.493.493,0,0,0,.16.016.3.3,0,0,0,.176-.064,2.725,2.725,0,0,1,1.232-.256c.928-.048,1.872-.08,2.8-.064a19.369,19.369,0,0,1-6.16,7.52c-.112.08-.16.144-.16.192,0,.112.032.16.112.16a.443.443,0,0,0,.208-.048,18.113,18.113,0,0,0,4.864-4.064l2.8,3.1a.58.58,0,0,0,.384.24c.208,0,.3-.1.3-.288a2.891,2.891,0,0,0-.912-1.728,1.487,1.487,0,0,0-.528-.272,1.866,1.866,0,0,1-.7-.464l-1.008-1.04a13.938,13.938,0,0,0,1.808-3.088,1.1,1.1,0,0,1,.288-.272C83.576,15.816,83.64,15.736,83.64,15.672Zm3.632-2.256a.386.386,0,0,0-.3-.416,6.639,6.639,0,0,0-2.016-.32c-.336,0-.5.08-.5.256,0,.08.08.128.224.16a3.044,3.044,0,0,1,1.632.848V26.52c0,.784.1,1.168.272,1.168.208,0,.352-.368.464-1.136a29.978,29.978,0,0,0,.176-3.712V14.376C87.224,14.184,87.272,13.624,87.272,13.416ZM-80.256,39.936c0-.048.032-.16-.5-.272A2.824,2.824,0,0,0-81.3,39.6a.728.728,0,0,0-.32.08,1.11,1.11,0,0,1-.448.128,36.4,36.4,0,0,1-3.76.112,1.811,1.811,0,0,0-.544-.176,9.791,9.791,0,0,0-1.328-.1c-.272,0-.4.064-.4.224,0,.048.08.112.224.16a2.077,2.077,0,0,1,.976.544l.416,4.592c.048.528.144.784.256.784.256,0,.416-.288.512-.88,1.68-.048,3.168-.08,4.528-.064.384,0,.576-.1.576-.272,0-.192-.208-.32-.624-.4.24-1.312.448-2.624.608-4.016C-80.48,40.176-80.256,40.064-80.256,39.936Zm-1.392.384-.176,3.968c-.048.144-.176.208-.368.224q-1.7.12-3.5.1l-.16-3.712c0-.016.016-.16.048-.48C-85.1,40.384-83.712,40.352-81.648,40.32Zm5.568,11.456a.745.745,0,0,0-.128-.32,4.088,4.088,0,0,0-1.232-1.232,2.16,2.16,0,0,0-.64-.192,2.852,2.852,0,0,1-.832-.416l-1.5-1.04c.016-.016.032-.048.064-.08a.823.823,0,0,0,.224-.384.511.511,0,0,0-.16-.368,1.362,1.362,0,0,0-.464-.272c.656-.016,1.36-.032,2.112-.064,1.632-.048,2.32.128,2.32-.384,0-.144-.064-.3-.352-.368a4.511,4.511,0,0,0-1.1-.112,1.222,1.222,0,0,0-.592.16,3.733,3.733,0,0,1-1.392.24c-1.776.064-3.1.1-3.936.1a14.089,14.089,0,0,1-1.872-.1c-.16-.016-.256.016-.256.1a.237.237,0,0,0,.144.208,4.783,4.783,0,0,0,1.12.528,1.858,1.858,0,0,0,.352.08.714.714,0,0,0,.288-.08,2.64,2.64,0,0,1,.992-.208c.432-.016.912-.032,1.44-.064a.431.431,0,0,1,.288.368.356.356,0,0,1-.064.208,12.369,12.369,0,0,1-4.56,3.888c-.144.08-.208.16-.208.224a.118.118,0,0,0,.128.128.61.61,0,0,0,.272-.064,12.777,12.777,0,0,0,4.88-3.264l4.016,2.944a.619.619,0,0,0,.4.176C-76.16,52.1-76.08,51.984-76.08,51.776Zm-.816-13.36A.386.386,0,0,0-77.2,38a6.593,6.593,0,0,0-1.984-.32c-.352,0-.512.08-.512.256,0,.08.08.128.224.16a3.051,3.051,0,0,1,1.616.848V45.12c0,.688.112,1.024.352,1.024.208,0,.352-.336.464-1.04a14.886,14.886,0,0,0,.1-1.872v-.048c.352-.016.7-.016,1.072-.032.768-.016,1.216-.032,1.392-.032.432,0,.64-.16.64-.464a.386.386,0,0,0-.32-.368,2.826,2.826,0,0,0-1.5.016,2.668,2.668,0,0,0-.3.192,1.551,1.551,0,0,1-.976.256V39.376c0-.064,0-.256.016-.592S-76.9,38.336-76.9,38.416Zm13.568,9.424c0-.08-.064-.128-.208-.176a3.418,3.418,0,0,0-.784-.128c-.144,0-.512.112-.688.112q-1.056.072-1.968.1a4.253,4.253,0,0,0,.16-.7,11.031,11.031,0,0,0,.1-1.232V45.6q1.68-.048,3.84-.048a16,16,0,0,1,1.872.1c.512.048.752-.1.752-.432,0-.176-.112-.3-.368-.368a5.831,5.831,0,0,0-1.456-.192,1.239,1.239,0,0,0-.5.144,5.365,5.365,0,0,1-1.7.256c-2.416.1-4.88.144-7.344.144a15.045,15.045,0,0,1-2.4-.16c-.16-.032-.24-.016-.24.064a.341.341,0,0,0,.192.272,4.327,4.327,0,0,0,1.52.7,1.685,1.685,0,0,0,.288.048.5.5,0,0,0,.192-.064,4.227,4.227,0,0,1,1.5-.288c.784-.064,1.76-.112,2.928-.16v1.5a3.885,3.885,0,0,0,.032.656c-.832.032-1.552.032-2.128.032a2.641,2.641,0,0,0-.624-.16,6.8,6.8,0,0,0-1.28-.112c-.256,0-.4.064-.4.208,0,.08.08.128.24.16a1.984,1.984,0,0,1,1.056.56l.32,3.472c.048.48.16.7.32.7.208,0,.336-.24.416-.736,2-.064,3.888-.1,5.632-.1.384,0,.576-.1.576-.272,0-.192-.208-.3-.656-.384a21.078,21.078,0,0,0,.432-2.736C-63.68,48.208-63.328,48-63.328,47.84Zm-1.36.32L-64.7,51.1c-.048.144-.144.192-.32.208-1.52.112-3.072.16-4.64.128l-.064-2.752a3.093,3.093,0,0,1,.016-.416C-67.664,48.192-65.984,48.16-64.688,48.16Zm1.488-8.112c0-.08-.08-.144-.224-.192a2.793,2.793,0,0,0-.864-.144.841.841,0,0,0-.368.1.679.679,0,0,1-.368.1c-2.544.128-4.144.192-4.736.176a11.5,11.5,0,0,1-1.888-.176c-.192-.048-.3,0-.3.112,0,.08.1.176.24.256a8.094,8.094,0,0,0,1.28.576,1.8,1.8,0,0,0,.352.064.628.628,0,0,0,.288-.064,4.292,4.292,0,0,1,1.36-.3c1.152-.08,2.3-.144,3.392-.16a18.568,18.568,0,0,1-3.68,2.048,27.762,27.762,0,0,1-4.128,1.552q-.192.048-.192.192c0,.1.048.144.16.144a.779.779,0,0,0,.192-.016,27.885,27.885,0,0,0,4.9-1.456c.144-.048.272-.112.416-.16l5.232,1.072a2.04,2.04,0,0,0,.32.016c.176-.016.272-.128.256-.336,0-.112-.1-.208-.272-.32a4.9,4.9,0,0,0-1.248-.464,5.806,5.806,0,0,0-.9.016,4.785,4.785,0,0,1-.992-.048l-1.6-.32a13.25,13.25,0,0,0,2.848-1.76,1.469,1.469,0,0,1,.24-.176C-63.3,40.272-63.2,40.16-63.2,40.048Zm-2.176-1.44c0-.208-.192-.32-.528-.32a21.759,21.759,0,0,1-3.36-.24,1.789,1.789,0,0,0-.3-.048q-.192,0-.192.1c0,.224.368.512,1.04.864a1.212,1.212,0,0,0,.7.176,1.723,1.723,0,0,0,.256-.032c1.12-.064,1.744-.112,1.856-.1C-65.568,39.008-65.376,38.88-65.376,38.608Zm12.736,5.728a2,2,0,0,0-.752-1.648,2.825,2.825,0,0,0-1.6-.624.415.415,0,0,0,.144-.288.565.565,0,0,0-.176-.352.349.349,0,0,1-.08-.064c.528-.016,1.024-.016,1.5-.016.816,0,1.584.032,1.776.048.384.016.56-.1.56-.352,0-.192-.112-.3-.464-.4a4.153,4.153,0,0,0-1.04-.128,1.091,1.091,0,0,0-.608.192,4.1,4.1,0,0,1-1.424.224c-1.072.048-2.112.08-3.152.08a12.257,12.257,0,0,1-1.9-.112c-.144-.032-.208,0-.208.112a.165.165,0,0,0,.064.128,3.6,3.6,0,0,0,1.248.608,1.449,1.449,0,0,0,.352.08.721.721,0,0,0,.272-.08A4.392,4.392,0,0,1-57.1,41.5c.448-.048.88-.1,1.3-.112.112.112.288.224.288.4a.3.3,0,0,1-.192.24,3.25,3.25,0,0,0-1.952.656,2.009,2.009,0,0,0-.816,1.648c0,1.376,1.168,2.368,2.928,2.368a2.873,2.873,0,0,0,2.64-1.3,3.892,3.892,0,0,0,.912.384.6.6,0,0,0,.16.016.552.552,0,0,0,.208-.048,1.913,1.913,0,0,1,.592-.16,13.367,13.367,0,0,1,1.712-.128v.672c0,.9.1,1.328.3,1.328s.368-.416.48-1.232a11.112,11.112,0,0,0,.112-1.568v-5.3c0-.208.064-.752.064-.96a.4.4,0,0,0-.32-.416,6.616,6.616,0,0,0-2-.32c-.336,0-.5.08-.5.256,0,.08.064.128.208.16a3.1,3.1,0,0,1,1.648.848v3.472a18.853,18.853,0,0,1-1.968.1c-.64-.016-1.072-.032-1.328-.064-.176-.032-.272,0-.272.08a.156.156,0,0,0,.064.144,3.727,3.727,0,0,0,1.152.528.826.826,0,0,0,.176.032.552.552,0,0,0,.208-.048,2.138,2.138,0,0,1,.592-.176c.368-.048.832-.08,1.376-.1v2.032a16.925,16.925,0,0,1-2.3.128,10.83,10.83,0,0,1-1.12-.032A2.494,2.494,0,0,0-52.64,44.336Zm1.648,2.656c0-.064-.048-.128-.144-.176a1.58,1.58,0,0,0-.784-.24c-.176,0-.256.048-.256.176,0,.08.384.24.384.416a.367.367,0,0,1-.16.208,3.632,3.632,0,0,0-2.16.7,2.192,2.192,0,0,0-.88,1.808,2.205,2.205,0,0,0,.88,1.792,3.507,3.507,0,0,0,2.288.736,3.468,3.468,0,0,0,2.288-.72,2.191,2.191,0,0,0,.88-1.808,2.162,2.162,0,0,0-.88-1.792,3.338,3.338,0,0,0-1.7-.672A1.181,1.181,0,0,0-50.992,46.992Zm1.472,2.864c0,1.152-.928,1.9-2.288,1.9a2.019,2.019,0,0,1-2.256-1.9,1.728,1.728,0,0,1,.656-1.376,2.513,2.513,0,0,1,1.6-.544C-50.432,47.936-49.52,48.72-49.52,49.856Zm-3.952-5.536a1.829,1.829,0,0,1-2.048,1.76,1.835,1.835,0,0,1-2.064-1.76c0-1.04.816-1.744,2.064-1.744C-54.24,42.576-53.472,43.28-53.472,44.32Zm-.336-4.96c0-.224-.176-.32-.544-.32a14.316,14.316,0,0,1-2.88-.256c-.144-.016-.24-.032-.288-.032q-.192,0-.192.1a.333.333,0,0,0,.112.24c.464.464,1.1.848,1.44.784a2.226,2.226,0,0,1,.272-.016c.672-.064,1.2-.1,1.568-.128C-53.968,39.712-53.808,39.6-53.808,39.36Zm23.04-.944a.4.4,0,0,0-.32-.416,6.616,6.616,0,0,0-2-.32c-.336,0-.5.08-.5.256,0,.08.064.128.208.16a3.1,3.1,0,0,1,1.648.848v4.5a22.085,22.085,0,0,1-2.288.144c-.5,0-1.072-.016-1.44-.048-.192-.016-.288.016-.288.112a.3.3,0,0,0,.176.256,10.069,10.069,0,0,0,1.088.56.357.357,0,0,0,.176.016.426.426,0,0,0,.192-.048,2.3,2.3,0,0,1,.624-.24,10.388,10.388,0,0,1,1.76-.176v7.5c0,.784.08,1.168.272,1.168.208,0,.352-.368.448-1.136a29.978,29.978,0,0,0,.176-3.712V39.376C-30.832,39.184-30.768,38.624-30.768,38.416ZM-36.9,40.9a.409.409,0,0,0-.224-.352,6.143,6.143,0,0,0-1.488-.608.962.962,0,0,0-.32-.048c-.272,0-.4.048-.4.144s.08.16.256.24a1.777,1.777,0,0,1,.944.992,13.9,13.9,0,0,1-1.6,3.5A15.358,15.358,0,0,1-42.336,47.9c-.16.16-.24.256-.24.336s.032.112.112.112a.723.723,0,0,0,.384-.16,15.257,15.257,0,0,0,3.264-3.232c.208-.3.4-.592.592-.9l2.784,3.712c.144.192.272.3.464.3a.268.268,0,0,0,.288-.288,2.23,2.23,0,0,0-.3-.992,3.806,3.806,0,0,0-.7-1.04,3.92,3.92,0,0,0-.384-.256,3.891,3.891,0,0,1-1.12-1.088l-.7-.912a11.756,11.756,0,0,0,.912-2.24C-36.928,41.024-36.9,40.912-36.9,40.9Zm19.76-2.48a.386.386,0,0,0-.3-.416,6.639,6.639,0,0,0-2.016-.32c-.336,0-.5.08-.5.256,0,.08.08.128.224.16a3.044,3.044,0,0,1,1.632.848V51.52c0,.784.1,1.168.272,1.168.208,0,.352-.368.464-1.136a29.978,29.978,0,0,0,.176-3.712V39.376C-17.184,39.184-17.136,38.624-17.136,38.416Zm-3.92,2.032a.3.3,0,0,0-.24-.3,5.435,5.435,0,0,0-1.712-.352c-.208,0-.48.144-.48.256,0,.1.048.16.176.208a2.655,2.655,0,0,1,1.232.624v2.48l-4.288.064.016-1.584a2.046,2.046,0,0,1,.016-.336,1.859,1.859,0,0,1,.016-.208c0-.24-.128-.368-.4-.416a11.387,11.387,0,0,0-1.6-.16c-.192,0-.432.16-.432.288,0,.144.128.192.272.224a2.076,2.076,0,0,1,1.152.576l.1,6.224q0,.672.24.672c.256,0,.464-.368.576-1.136l4.336-.048q0,.864.24.864c.256,0,.432-.288.544-.88a5.229,5.229,0,0,0,.08-.912l.08-5.184c0-.208,0-.4.016-.544C-21.12,40.8-21.056,40.512-21.056,40.448Zm-1.024,6.528-4.3.064.016-3.056,4.288-.112Zm15.168-6.7a.423.423,0,0,0-.224-.336,13.12,13.12,0,0,0-1.616-.592,1.218,1.218,0,0,0-.336-.048c-.272,0-.4.048-.4.144,0,.08.08.144.224.224.624.3.992.64,1.088,1.008a14.442,14.442,0,0,1-5.68,5.536c-.176.1-.256.192-.256.256,0,.1.032.144.112.144a1.081,1.081,0,0,0,.272-.08,14.483,14.483,0,0,0,5.52-3.936L-3.2,45.776a.851.851,0,0,0,.464.16c.192,0,.288-.1.288-.3s-.192-.48-.608-.832A7.066,7.066,0,0,0-4.4,43.824c-.288-.1-.512-.16-.7-.208a3.688,3.688,0,0,1-1.232-.5l-1.536-.976a10.088,10.088,0,0,0,.88-1.488A1.267,1.267,0,0,0-6.912,40.272Zm5.776,9.1c0-.176-.112-.288-.368-.368a5.856,5.856,0,0,0-1.456-.176,1.2,1.2,0,0,0-.5.128,5.365,5.365,0,0,1-1.7.256c-2.416.112-4.88.16-7.344.16a14.882,14.882,0,0,1-2.4-.176c-.16-.032-.24-.016-.24.064a.387.387,0,0,0,.192.288,4.277,4.277,0,0,0,1.52.688,1.685,1.685,0,0,0,.288.048.5.5,0,0,0,.192-.064,5.11,5.11,0,0,1,1.5-.288c1.68-.144,4.24-.208,7.68-.208.7,0,1.344.032,1.872.08C-1.376,49.856-1.136,49.728-1.136,49.376ZM12.7,45.04c0-.176-.112-.3-.368-.384a5.465,5.465,0,0,0-1.456-.16,1.168,1.168,0,0,0-.5.112,4.71,4.71,0,0,1-1.7.272c-2.288.1-4.752.144-7.344.144a14.738,14.738,0,0,1-2.4-.176c-.16-.032-.24,0-.24.08s.064.176.192.272a4.366,4.366,0,0,0,1.52.672A1.685,1.685,0,0,0,.7,45.92.5.5,0,0,0,.9,45.856c.656-.32,3.712-.5,9.184-.5.7,0,1.344.032,1.872.08C12.464,45.488,12.7,45.36,12.7,45.04Zm-2.16,6.528c0-.432-.592-.432-1.648-.432a.739.739,0,0,0-.464.16,4.6,4.6,0,0,1-1.552.24q-2.088.072-3.36.048c-.24,0-.352-.128-.352-.368V49.968a1.744,1.744,0,0,1,.016-.272c.976-.048,3.024-.1,6.064-.144.24,0,.352-.08.352-.24,0-.128-.224-.24-.688-.32.112-.288.24-.784.432-1.488a.386.386,0,0,1,.208-.256.226.226,0,0,0,.128-.192c0-.08-.048-.144-.16-.176a4.533,4.533,0,0,0-.88-.144c-.256,0-.4.16-.72.176-1.6.128-3.184.176-4.752.16a12.392,12.392,0,0,1-1.7-.16c-.176-.032-.256,0-.256.1a.2.2,0,0,0,.112.176,3.224,3.224,0,0,0,1.568.64.931.931,0,0,0,.4-.144A3.32,3.32,0,0,1,4.4,47.5c1.3-.08,2.624-.128,3.936-.128q-.024,1.392-.048,1.584a.282.282,0,0,1-.24.144c-1.632.08-3.184.128-4.64.128A.71.71,0,0,1,3.2,49.2a1.615,1.615,0,0,0-.336-.112,8.987,8.987,0,0,0-1.5-.1c-.24.016-.368.08-.368.176,0,.08.08.128.224.16a2.031,2.031,0,0,1,1.04.48V50.88a1.309,1.309,0,0,0,.32.96,1.248,1.248,0,0,0,.88.208c1.92-.1,4.08-.112,6.464-.064C10.336,52,10.544,51.856,10.544,51.568Zm-.32-8.528c0-.224-.128-.352-.4-.384a12.162,12.162,0,0,0-1.456-.048,1.1,1.1,0,0,0-.5.176,3.587,3.587,0,0,1-1.344.256c-1.328.08-2.416.112-3.232.1-.24,0-.352-.16-.352-.464V41.664a1.94,1.94,0,0,1,.016-.32c1.584-.08,3.648-.128,6.176-.16q.384,0,.384-.24c0-.192-.192-.336-.576-.4a5.317,5.317,0,0,0,.528-1.536c.192-.144.288-.256.288-.368s-.08-.192-.256-.24a2.905,2.905,0,0,0-.736-.1,5.252,5.252,0,0,1-.816.176c-1.136.08-2.576.128-4.288.144a16.476,16.476,0,0,1-2.24-.144q-.288-.048-.288.144c0,.08.08.176.256.256a7.263,7.263,0,0,0,1.3.512,1.539,1.539,0,0,0,.336.064.424.424,0,0,0,.224-.048A3.745,3.745,0,0,1,4.9,39.072c.784-.064,1.984-.1,3.552-.1a11.885,11.885,0,0,1-.112,1.52.4.4,0,0,1-.32.224c-1.536.112-3.152.16-4.816.144a.494.494,0,0,1-.208-.032,2.4,2.4,0,0,0-.352-.1,10.536,10.536,0,0,0-1.568-.064c-.256.016-.368.064-.368.176,0,.08.064.128.208.16a2.211,2.211,0,0,1,1.136.48v.96a1.212,1.212,0,0,0,.3.96,1.37,1.37,0,0,0,.912.176c2.288-.08,4.416-.128,6.352-.128C10.032,43.456,10.224,43.312,10.224,43.04Zm13.008-1.968c0-.08-.048-.128-.16-.176a1.929,1.929,0,0,0-.752-.128.751.751,0,0,0-.32.112,1.187,1.187,0,0,1-.416.08c-1.248.08-2.288.112-3.056.1a11.123,11.123,0,0,1-1.36-.112c-.048,0-.08,0-.1.016-.08.016-.112.048-.112.112,0,.08.08.144.192.224a5.266,5.266,0,0,0,1.1.528.944.944,0,0,0,.224.032.638.638,0,0,0,.32-.112,2.5,2.5,0,0,1,.912-.208c.592-.048,1.3-.1,2.192-.112a15.964,15.964,0,0,1-2.08,3.7,17.924,17.924,0,0,1-3.056,3.3.411.411,0,0,0-.112.192c0,.08.032.128.1.128a.255.255,0,0,0,.128-.048A15.366,15.366,0,0,0,20.5,45.616l.48-.624,2.032,3.1a.591.591,0,0,0,.384.3c.176.016.272-.048.288-.224a1,1,0,0,0,0-.32,5,5,0,0,0-.64-1.376,1.551,1.551,0,0,0-.528-.448,2.148,2.148,0,0,1-.592-.608l-.608-.88a13.917,13.917,0,0,0,1.536-2.88,1.028,1.028,0,0,1,.208-.288A.47.47,0,0,0,23.232,41.072Zm5.6-2.608a.426.426,0,0,0-.288-.416,6.1,6.1,0,0,0-1.856-.368c-.336,0-.512.08-.512.256,0,.064.064.112.208.144a2.693,2.693,0,0,1,1.5.848V51.312c0,.928.08,1.376.256,1.376.192,0,.448-.688.528-1.648.048-.912.08-1.872.08-2.864V39.3a3.566,3.566,0,0,1,.048-.512A2.168,2.168,0,0,0,28.832,38.464ZM26.224,39.6c0-.224-.08-.368-.256-.416a6.368,6.368,0,0,0-1.712-.336c-.3,0-.448.08-.448.24,0,.08.064.128.208.144a2.227,2.227,0,0,1,1.3.72v4.016c-.608.064-1.1.08-1.472.1a9.02,9.02,0,0,1-1.3-.048c-.128-.016-.192.032-.192.128,0,.08.048.144.144.208a5.35,5.35,0,0,0,.96.48,1.05,1.05,0,0,0,.368.064.49.49,0,0,0,.24-.112,1.338,1.338,0,0,1,.512-.24c.24-.048.48-.08.736-.112v5.92c0,.736.08,1.088.24,1.088.288,0,.48-.768.56-2.32.048-.992.064-1.728.064-2.192v-6.48a3.138,3.138,0,0,1,.016-.5C26.208,39.728,26.224,39.616,26.224,39.6Zm7.584,10.048c0,1.52,1.472,2.624,3.28,2.624s3.28-1.1,3.28-2.624a2.85,2.85,0,0,0-2.848-2.592.774.774,0,0,0,.192-.416c0-.08-.048-.128-.16-.192a1.534,1.534,0,0,0-.608-.176c-.208,0-.352.048-.352.144a.107.107,0,0,0,.08.112c.176.064.256.16.256.288a.237.237,0,0,1-.192.224C35.088,47.168,33.808,48.224,33.808,49.648Zm.912,0A2.184,2.184,0,0,1,37.1,47.6a2.067,2.067,0,1,1,0,4.08A2.172,2.172,0,0,1,34.72,49.648Zm9.424-4.56c0-.176-.112-.288-.368-.368a5.173,5.173,0,0,0-1.456-.192,1.2,1.2,0,0,0-.5.128,4.854,4.854,0,0,1-1.7.272c-.928.048-1.856.08-2.8.112l.1-2.128c.016-.224.032-.384.048-.5.032-.192-.048-.3-.256-.352a6.638,6.638,0,0,0-1.68-.24c-.288,0-.416.064-.416.176s.048.176.192.208a4.518,4.518,0,0,1,.656.256c.272.144.448.272.5.4v2.192c-1.232.032-2.448.032-3.68.032a14.882,14.882,0,0,1-2.4-.176c-.16-.032-.24,0-.24.08s.064.176.192.272a4.277,4.277,0,0,0,1.52.688,1.685,1.685,0,0,0,.288.048.5.5,0,0,0,.192-.064,5.11,5.11,0,0,1,1.5-.288c1.68-.16,4.24-.224,7.68-.224.7,0,1.344.032,1.872.08C43.9,45.568,44.144,45.424,44.144,45.088Zm-2.272-5.856a.258.258,0,0,0-.24-.256,6.641,6.641,0,0,0-.832-.128.764.764,0,0,0-.4.144.857.857,0,0,1-.432.1c-1.872.128-3.616.192-5.248.192a12.533,12.533,0,0,1-2.064-.176c-.208-.016-.3.016-.3.128,0,.08.08.16.24.256a6.794,6.794,0,0,0,1.264.544,2.173,2.173,0,0,0,.352.08.588.588,0,0,0,.256-.08,4.4,4.4,0,0,1,1.616-.32c1.632-.128,3.072-.16,4.32-.144a17.441,17.441,0,0,1-.1,1.776c-.128,1.2-.208,1.92-.256,2.176a1.214,1.214,0,0,0-.016.256c0,.128.048.176.16.176.08,0,.176-.112.272-.32a13.7,13.7,0,0,0,.688-2.1c.128-.512.256-1.152.4-1.936C41.76,39.44,41.872,39.312,41.872,39.232ZM51.648,46.4a2.373,2.373,0,0,0-.864-1.92,3.185,3.185,0,0,0-1.744-.672.915.915,0,0,0,.3-.528c0-.128-.128-.24-.352-.32a2.116,2.116,0,0,0-.528-.08c-.144,0-.208.032-.208.112,0,.064.016.112.192.24.048.032.08.112.08.272a.293.293,0,0,1-.192.288,2.654,2.654,0,0,0-2.8,2.592,2.31,2.31,0,0,0,.864,1.888,3.344,3.344,0,0,0,2.192.72,3.383,3.383,0,0,0,2.176-.7A2.3,2.3,0,0,0,51.648,46.4Zm3.536-7.984a.4.4,0,0,0-.32-.416,6.414,6.414,0,0,0-1.968-.32c-.352,0-.512.08-.512.256,0,.08.08.128.224.16a3.051,3.051,0,0,1,1.616.848V51.52c0,.784.08,1.168.272,1.168.208,0,.352-.368.464-1.136a29.977,29.977,0,0,0,.176-3.712V45.456c.9-.016,1.712-.048,2.464-.064.432,0,.64-.144.64-.448a.4.4,0,0,0-.32-.384,2.823,2.823,0,0,0-1.5.016,1.445,1.445,0,0,0-.3.192,1.471,1.471,0,0,1-.976.272V39.376C55.136,39.184,55.184,38.624,55.184,38.416Zm-4.352,7.952a2.07,2.07,0,0,1-2.208,1.968,2.345,2.345,0,0,1-1.568-.576,1.744,1.744,0,0,1-.64-1.392,2.057,2.057,0,0,1,2.208-2.016,2.149,2.149,0,0,1,1.568.592A1.83,1.83,0,0,1,50.832,46.368ZM52.992,42c0-.336-.736-.528-1.536-.528a1.2,1.2,0,0,0-.592.176,4.44,4.44,0,0,1-1.456.224c-.816.048-2.32.1-3.344.08a13.209,13.209,0,0,1-1.872-.112c-.128-.032-.192,0-.192.112a.226.226,0,0,0,.112.192,4.273,4.273,0,0,0,1.152.56,2.228,2.228,0,0,0,.368.08.721.721,0,0,0,.272-.08,6.181,6.181,0,0,1,1.008-.192c1.328-.128,2.544-.16,3.712-.176.816-.016,1.552.016,1.808.032C52.8,42.384,52.992,42.288,52.992,42Zm-2.56-1.936c0-.208-.192-.336-.528-.336a17.466,17.466,0,0,1-3.3-.24c-.128-.016-.224-.032-.272-.032-.144,0-.208.032-.208.1,0,.192.336.48.976.848a1.159,1.159,0,0,0,.72.192,2.828,2.828,0,0,1,.3-.016c.064,0,.32-.016.8-.064.416-.016.752-.032.992-.032C50.256,40.464,50.432,40.336,50.432,40.064Zm19.232-1.648a.386.386,0,0,0-.3-.416,6.639,6.639,0,0,0-2.016-.32c-.336,0-.5.08-.5.256,0,.08.08.128.224.16a3.044,3.044,0,0,1,1.632.848v6.864a32.524,32.524,0,0,1-3.568.976c-1.888.4-3.2.608-3.968.688-.24.016-.352-.128-.352-.4v-4.96c0-.048,0-.256.016-.624.016-.32-.064-.48-.24-.512a11.327,11.327,0,0,0-1.888-.144c-.224,0-.512.144-.512.272,0,.1.064.16.208.176.88.16,1.376.368,1.488.608l.032,4.96a1.783,1.783,0,0,0,.192,1.008,1.012,1.012,0,0,0,.624.48,4.056,4.056,0,0,0,.816-.048,32.5,32.5,0,0,0,3.616-.816,31.807,31.807,0,0,0,3.536-1.3V51.52c0,.784.1,1.168.272,1.168.208,0,.352-.368.464-1.136a29.615,29.615,0,0,0,.176-3.712V39.376C69.616,39.184,69.664,38.624,69.664,38.416Zm10.7,1.632c0-.176-.3-.3-.848-.3-.128,0-.416.144-.7.192A12.065,12.065,0,0,1,77.568,40a5.169,5.169,0,0,1-.7,0,.169.169,0,0,0-.112-.1,1.984,1.984,0,0,0-.736-.128c-.208,0-.416.16-.736.176a13.667,13.667,0,0,1-1.472.064,10.725,10.725,0,0,1-1.36-.08c-.16-.032-.224,0-.224.112,0,.08.08.128.208.208a4.261,4.261,0,0,0,.912.448,1.243,1.243,0,0,0,.256.032.59.59,0,0,0,.256-.112,3.169,3.169,0,0,1,.64-.144,8.934,8.934,0,0,1,1.072-.064,12.56,12.56,0,0,1-1.44,3.056,13.057,13.057,0,0,1-2.256,2.752.38.38,0,0,0-.128.208c0,.1.032.144.112.144a.27.27,0,0,0,.16-.048,11.644,11.644,0,0,0,4.512-5.984c.032-.032.048-.08.08-.112a4.789,4.789,0,0,0,.608.24.888.888,0,0,0,.272.048,3.276,3.276,0,0,1,.832-.272c.16-.016.416-.032.8-.032a13.655,13.655,0,0,1-1.6,3.664,10.768,10.768,0,0,1-2.48,2.88.329.329,0,0,0-.128.224c0,.1.048.144.128.144a.258.258,0,0,0,.144-.048,10.825,10.825,0,0,0,4.928-6.768,1.045,1.045,0,0,1,.144-.208A.472.472,0,0,0,80.368,40.048ZM82.992,38.4a.438.438,0,0,0-.336-.416,6.348,6.348,0,0,0-1.984-.3c-.352,0-.512.08-.512.256,0,.08.064.128.208.144A3.349,3.349,0,0,1,82,38.928v8.5c0,.9.1,1.328.3,1.328.192,0,.352-.432.48-1.312a16.078,16.078,0,0,0,.128-2.112V44.16c.9-.016,1.7-.048,2.368-.064.432,0,.64-.144.64-.464a.362.362,0,0,0-.32-.368,3.192,3.192,0,0,0-1.5.016,2.668,2.668,0,0,0-.3.192,1.38,1.38,0,0,1-.88.256V39.376C82.912,39.168,82.992,38.608,82.992,38.4ZM84.3,51.264c0-.208-.112-.32-.352-.368a7.493,7.493,0,0,0-1.376-.064,1.471,1.471,0,0,0-.5.16,3.705,3.705,0,0,1-1.584.272c-1.312.032-2.384.032-3.216.016-.336-.016-.48-.208-.48-.544V48.944a4.892,4.892,0,0,1,.016-.608c.048-.3-.016-.5-.24-.544a10.217,10.217,0,0,0-1.824-.128c-.24,0-.512.144-.512.272,0,.112.064.176.208.192.864.176,1.248.336,1.44.576l.016,1.68c0,1.024.384,1.392,1.664,1.376,1.68-.048,3.712-.064,6.144-.032C84.112,51.728,84.3,51.568,84.3,51.264Zm1.472,2.256.24.4a3.776,3.776,0,0,0,1.808-3.28c0-1.312-.7-1.712-1.312-1.712-.656,0-.864.768-.656,1.312.752.144,1.04.448,1.04,1.232A2.737,2.737,0,0,1,85.776,53.52Z" transform="translate(180 7942)" fill="#2b2b2b"/>
    <path id="패스_7737" data-name="패스 7737" d="M-15.708-6.29c0-1.326-1.139-2.244-2.771-2.38.153-.119.238-.221.238-.34a.508.508,0,0,0-.17-.357c-.017-.017-.051-.034-.068-.051.578-.017,1.173-.034,1.785-.034.884,0,1.53.017,1.9.051.408.034.6-.085.6-.374,0-.187-.153-.323-.493-.425a3.95,3.95,0,0,0-1.122-.136,1.183,1.183,0,0,0-.629.187,4.723,4.723,0,0,1-1.547.255c-1.037.051-2.261.085-3.672.085a12.407,12.407,0,0,1-1.989-.119c-.153-.034-.221.017-.221.119,0,.051.051.119.136.2a3.658,3.658,0,0,0,1.224.595,1.634,1.634,0,0,0,.391.085.766.766,0,0,0,.289-.085,5.734,5.734,0,0,1,1.071-.238c.51-.051,1.037-.085,1.564-.119a.593.593,0,0,1,.238.391.363.363,0,0,1-.2.289,3.525,3.525,0,0,0-2.006.646A2.03,2.03,0,0,0-22.1-6.29c0,1.462,1.258,2.431,3.2,2.431C-17.017-3.859-15.708-4.828-15.708-6.29Zm3.587,3.128a.327.327,0,0,0-.238-.323,5.192,5.192,0,0,0-1.717-.272c-.306,0-.476.051-.476.17a.221.221,0,0,0,.187.238,2.28,2.28,0,0,1,1.258.663v1.411l-5.27.068.017-.612a2.182,2.182,0,0,1,.017-.374,1.853,1.853,0,0,1,.017-.2.406.406,0,0,0-.391-.442,12.05,12.05,0,0,0-1.6-.153c-.187,0-.493.1-.493.238,0,.119.068.17.2.2a2.406,2.406,0,0,1,1.241.578l.1,4.1c.017.51.1.765.289.765q.459,0,.561-.918l5.3-.085c0,.578.085.867.272.867.272,0,.459-.272.544-.833a8.223,8.223,0,0,0,.085-1l.017-3.128C-12.189-2.414-12.121-2.958-12.121-3.162Zm-4.437-3.162c0,1.054-1,1.836-2.329,1.836s-2.3-.782-2.3-1.836a1.5,1.5,0,0,1,.68-1.258,2.651,2.651,0,0,1,1.615-.51C-17.527-8.092-16.558-7.361-16.558-6.324Zm7.837-1.241a.41.41,0,0,0-.34-.391,3,3,0,0,0-1.6.017,2.835,2.835,0,0,0-.323.2,1.648,1.648,0,0,1-1.037.272v-3.825c0-.068,0-.255.017-.629a1.248,1.248,0,0,1,.034-.408.439.439,0,0,0-.323-.425,7.005,7.005,0,0,0-2.108-.34c-.374,0-.544.085-.544.272,0,.085.085.136.238.17a3.367,3.367,0,0,1,1.734.9v6.8c0,.731.119,1.1.357,1.1.221,0,.391-.374.493-1.122a14.81,14.81,0,0,0,.1-1.853v-.2c.374-.017.748-.017,1.139-.034.816-.017,1.292-.034,1.479-.034C-8.942-7.089-8.721-7.225-8.721-7.565Zm-4.386,8.891-5.287.085.017-2.091,5.27-.051ZM-17-11.475c0-.255-.2-.374-.578-.374a16.325,16.325,0,0,1-3.213-.255c-.153-.017-.255-.034-.306-.034q-.2,0-.2.1a.382.382,0,0,0,.136.255,2.213,2.213,0,0,0,1.547.816,2.366,2.366,0,0,1,.289-.017c.748-.051,1.309-.085,1.785-.119C-17.187-11.118-17-11.237-17-11.475Zm20.417-.833a.411.411,0,0,0-.323-.442,7.054,7.054,0,0,0-2.142-.34c-.357,0-.527.085-.527.272,0,.085.085.136.238.17a3.234,3.234,0,0,1,1.734.9v7.293A34.557,34.557,0,0,1-1.394-3.417c-2.006.425-3.4.646-4.216.731-.255.017-.374-.136-.374-.425v-5.27c0-.051,0-.272.017-.663.017-.34-.068-.51-.255-.544a12.035,12.035,0,0,0-2.006-.153c-.238,0-.544.153-.544.289,0,.1.068.17.221.187.935.17,1.462.391,1.581.646l.034,5.27a1.9,1.9,0,0,0,.2,1.071,1.076,1.076,0,0,0,.663.51A4.31,4.31,0,0,0-5.2-1.819,34.537,34.537,0,0,0-1.36-2.686,33.8,33.8,0,0,0,2.4-4.063V1.615c0,.833.1,1.241.289,1.241.221,0,.374-.391.493-1.207A31.465,31.465,0,0,0,3.366-2.3v-8.993C3.366-11.492,3.417-12.087,3.417-12.308Zm14.025,0a.424.424,0,0,0-.34-.442,6.814,6.814,0,0,0-2.091-.34c-.374,0-.544.085-.544.272,0,.085.085.136.238.17a3.242,3.242,0,0,1,1.717.9v7.531A31.875,31.875,0,0,1,8.568-2.55q-.357.026-.357-.408V-8.381c0-.153,0-.323.017-.544l4.845-.119c.442-.017.663-.2.663-.527,0-.187-.1-.306-.323-.357a3.418,3.418,0,0,0-1.275-.051,8.1,8.1,0,0,1-1.547.408q-1.2.076-2.244.051c-.221-.068-.425-.119-.561-.153A11.368,11.368,0,0,0,6.1-9.826c-.2,0-.527.153-.527.289,0,.085.068.153.2.187A2.115,2.115,0,0,1,7.225-8.7l.034,5.457c0,1.02.119,1.258.544,1.513a.741.741,0,0,0,.306.085,3.747,3.747,0,0,0,.952-.034,35.364,35.364,0,0,0,7.361-2.006v5.3c0,.833.085,1.241.289,1.241.221,0,.374-.391.493-1.207A31.851,31.851,0,0,0,17.391-2.3V-5.287c.952-.017,1.819-.034,2.618-.051.459-.017.68-.17.68-.51a.41.41,0,0,0-.34-.391,2.847,2.847,0,0,0-1.513,0,2.835,2.835,0,0,0-.323.2,1.637,1.637,0,0,1-1.122.272v-5.525C17.391-11.492,17.442-12.087,17.442-12.308Zm4.641,13.4A.983.983,0,0,0,23.052.1a.951.951,0,0,0-.969-.935A.973.973,0,0,0,21.114.1,1.006,1.006,0,0,0,22.083,1.088Zm.748-12.648c.034-.561-.289-.731-.8-.731-.561,0-.782.221-.748.731l.476,9.2h.7Z" transform="translate(260 8016)" fill="#2b2b2b"/>
    <path id="패스_7735" data-name="패스 7735" d="M-3.528-7.616a2.981,2.981,0,0,0-1.207-2.448A4.245,4.245,0,0,0-6.74-10.9a1.5,1.5,0,0,0,.289-.544c0-.119-.068-.2-.2-.306a1.739,1.739,0,0,0-.952-.289c-.187,0-.272.051-.272.136,0,.068.034.119.119.17a.567.567,0,0,1,.306.459.483.483,0,0,1-.153.323,4.557,4.557,0,0,0-2.6.884A3.036,3.036,0,0,0-11.45-7.616a3.035,3.035,0,0,0,1.207,2.465,4.28,4.28,0,0,0,2.754.884,4.248,4.248,0,0,0,2.754-.884A2.99,2.99,0,0,0-3.528-7.616Zm-.952.068a2.449,2.449,0,0,1-.765,1.819,3.083,3.083,0,0,1-2.21.782A2.98,2.98,0,0,1-9.58-5.7a2.372,2.372,0,0,1-.833-1.853,2.686,2.686,0,0,1,2.958-2.635A3.2,3.2,0,0,1-5.261-9.4,2.53,2.53,0,0,1-4.479-7.548ZM-8.968-3.315c.017-.153-.051-.2-.238-.255a7.585,7.585,0,0,0-1.717-.272c-.323,0-.51.068-.51.221,0,.068.085.136.238.187.68.17,1.088.408,1.207.7l.2,2.465h-2.159a13.95,13.95,0,0,1-2.55-.2q-.255-.051-.255.1c0,.085.068.187.2.289a4.864,4.864,0,0,0,1.615.731,1.315,1.315,0,0,0,.306.034.419.419,0,0,0,.2-.051,5.3,5.3,0,0,1,1.6-.323C-9.036.153-6.316.085-2.66.085c.782,0,1.428.034,1.989.085.544.051.8-.085.8-.442,0-.2-.119-.323-.391-.391a5.5,5.5,0,0,0-1.547-.2,1.276,1.276,0,0,0-.527.136,6,6,0,0,1-1.8.306,3.276,3.276,0,0,1-.408.017l.527-2.533c.051-.255.085-.442.1-.578.034-.1-.051-.2-.238-.272A7.1,7.1,0,0,0-5.72-4.165c-.323-.051-.51,0-.527.153-.017.1.068.2.221.255a1.511,1.511,0,0,1,1.037.748L-5.3-.374C-6.5-.34-7.744-.306-8.968-.289l-.051-2.448A3.32,3.32,0,0,1-8.968-3.315Zm20.587.8c0-.085-.068-.136-.221-.187a3.154,3.154,0,0,0-.85-.136c-.153,0-.527.119-.714.119-2.074.119-3.757.17-5.049.17a2.59,2.59,0,0,0-.663-.17,7.227,7.227,0,0,0-1.36-.119c-.289,0-.442.068-.442.221,0,.085.085.136.255.17a2,2,0,0,1,1.139.578l.34,3.961c.051.51.17.748.323.748.221,0,.374-.255.459-.782,2.329-.051,4.335-.085,6-.085.425,0,.629-.1.629-.289,0-.17-.221-.306-.7-.408a27.935,27.935,0,0,0,.459-3.2C11.246-2.142,11.62-2.38,11.62-2.516Zm-1.445.289-.017,3.434c-.034.17-.153.238-.34.255-1.564.119-3.23.17-4.964.136l-.068-3.23A1.723,1.723,0,0,1,4.8-2.074C7.115-2.159,8.917-2.227,10.175-2.227Zm1.564-9.4c0-.119-.085-.187-.255-.238a3,3,0,0,0-.884-.119c-.187,0-.527.17-.782.187-2.686.119-4.4.2-5.117.187a13.164,13.164,0,0,1-2.04-.2c-.2-.017-.323.017-.323.136,0,.1.085.187.255.272a7.5,7.5,0,0,0,1.326.544.943.943,0,0,0,.374.085.545.545,0,0,0,.289-.085,4.623,4.623,0,0,1,1.343-.272c.986-.085,2.329-.136,4.029-.17a22.725,22.725,0,0,1-3.74,2.584A24.575,24.575,0,0,1,1.386-6.6c-.119.034-.187.085-.187.17,0,.136.034.2.119.187a.741.741,0,0,0,.2-.034A30.588,30.588,0,0,0,6.775-8.109c.221-.1.442-.221.663-.34l5.389,1.377a1.8,1.8,0,0,0,.357.034c.187,0,.272-.119.255-.374a.392.392,0,0,0-.255-.357,6.187,6.187,0,0,0-1.411-.561,4.4,4.4,0,0,0-.918-.034,3.584,3.584,0,0,1-1.037-.1L8.152-8.857a22.2,22.2,0,0,0,3.026-2.261c.119-.085.187-.136.221-.153C11.62-11.407,11.739-11.526,11.739-11.628Zm3.094,6.647c0-.187-.119-.306-.391-.391a6.324,6.324,0,0,0-1.547-.187,1.241,1.241,0,0,0-.527.119,5.6,5.6,0,0,1-1.8.289c-2.159.085-4.777.136-7.8.136A18.193,18.193,0,0,1,.213-5.2c-.17-.034-.255-.017-.255.068a.364.364,0,0,0,.2.306A5.138,5.138,0,0,0,1.777-4.1a1.143,1.143,0,0,0,.306.051.534.534,0,0,0,.2-.068q1.046-.51,9.758-.51a17.846,17.846,0,0,1,1.989.1C14.578-4.471,14.833-4.607,14.833-4.981Z" transform="translate(90 8016)" fill="#2b2b2b"/>
    <path id="패스_7736" data-name="패스 7736" d="M-.768,2.64l.18.3A2.832,2.832,0,0,0,.768.48C.768-.5.24-.8-.216-.8c-.492,0-.648.576-.492.984.564.108.78.336.78.924A2.053,2.053,0,0,1-.768,2.64Z" transform="translate(169 8016)" fill="#2b2b2b"/>
    <g id="그룹_1660" data-name="그룹 1660" transform="translate(110.815 8002)">
      <rect id="사각형_3434" data-name="사각형 3434" width="2.301" height="10.333" transform="translate(31.171 3.329)" fill="#e72c4e"/>
      <path id="패스_7659" data-name="패스 7659" d="M1.808,0,.1,1.7l2.3,2.361,1.695-1.7Z" transform="translate(-0.083 0)" fill="#e72c4e"/>
      <g id="그룹_1559" data-name="그룹 1559" transform="translate(0 0)">
        <g id="그룹_1558" data-name="그룹 1558" clip-path="url(#clip-path)">
          <path id="패스_7660" data-name="패스 7660" d="M328.482,13.824h2.271V8.181a2.506,2.506,0,0,1,5.013,0v5.643h2.26V8.19a4.776,4.776,0,0,0-4.766-4.83h0a4.807,4.807,0,0,0-2.516.707V.119h-2.261Z" transform="translate(-283.106 -0.103)" fill="#071039"/>
          <path id="패스_7661" data-name="패스 7661" d="M171.694,23.667a5.226,5.226,0,1,0,5.23,5.226,5.228,5.228,0,0,0-5.23-5.226m0,8.194a2.968,2.968,0,1,1,2.97-2.968,2.969,2.969,0,0,1-2.97,2.968" transform="translate(-143.469 -20.398)" fill="#071039"/>
          <path id="패스_7662" data-name="패스 7662" d="M9.308,19.1a5.53,5.53,0,0,0-4.237-2.383V19H4.745A4.7,4.7,0,0,0,.01,23.192a4.33,4.33,0,0,0,0,.629v7.587h2.26V27.415a4.856,4.856,0,0,0,1.228.52,6.057,6.057,0,0,0,1.572.21,5.334,5.334,0,0,0,5.157-3.671A6.024,6.024,0,0,0,9.308,19.1M8.121,23.514c-.02.084-.043.168-.069.251a2.966,2.966,0,0,1-2,1.95,3.148,3.148,0,0,1-3.3-.854,2.149,2.149,0,0,1-.464-1.5A2.439,2.439,0,0,1,4.8,21.294v0h.268V19.011a3.3,3.3,0,0,1,2.382,1.436A3.979,3.979,0,0,1,8.16,22.1a3.167,3.167,0,0,1-.04,1.411" transform="translate(0 -14.409)" fill="#071039"/>
          <path id="패스_7663" data-name="패스 7663" d="M258.419,30.847a2.968,2.968,0,1,1,.01-3.893l1.585-1.611a5.226,5.226,0,1,0-.01,7.115Z" transform="translate(-216.288 -20.399)" fill="#071039"/>
          <path id="패스_7664" data-name="패스 7664" d="M92.527,30.667a3.478,3.478,0,0,1-2.712,1.288,2.779,2.779,0,0,1-2.893-1.973l-.069-.242h7.821l.01-.151c.02-.3.038-.568.038-.823a4.868,4.868,0,0,0-4.991-5.18,5,5,0,0,0-5.138,5.2,5.031,5.031,0,0,0,5.138,5.263,5.152,5.152,0,0,0,4.249-2.063L92.6,30.572Zm-5.6-3.013a2.651,2.651,0,0,1,2.784-1.974A2.586,2.586,0,0,1,92.4,27.66l.059.236h-5.6Z" transform="translate(-72.908 -20.328)" fill="#071039"/>
        </g>
      </g>
    </g>
    <g id="그룹_1661" data-name="그룹 1661" transform="translate(175.041 8002)">
      <rect id="사각형_3434-2" data-name="사각형 3434" width="2.301" height="10.333" transform="translate(31.171 3.329)" fill="#e72c4e"/>
      <path id="패스_7659-2" data-name="패스 7659" d="M1.808,0,.1,1.7l2.3,2.361,1.695-1.7Z" transform="translate(-0.083 0)" fill="#e72c4e"/>
      <g id="그룹_1559-2" data-name="그룹 1559" transform="translate(0 0)">
        <g id="그룹_1558-2" data-name="그룹 1558" clip-path="url(#clip-path)">
          <path id="패스_7660-2" data-name="패스 7660" d="M328.482,13.824h2.271V8.181a2.506,2.506,0,0,1,5.013,0v5.643h2.26V8.19a4.776,4.776,0,0,0-4.766-4.83h0a4.807,4.807,0,0,0-2.516.707V.119h-2.261Z" transform="translate(-283.106 -0.103)" fill="#071039"/>
          <path id="패스_7661-2" data-name="패스 7661" d="M171.694,23.667a5.226,5.226,0,1,0,5.23,5.226,5.228,5.228,0,0,0-5.23-5.226m0,8.194a2.968,2.968,0,1,1,2.97-2.968,2.969,2.969,0,0,1-2.97,2.968" transform="translate(-143.469 -20.398)" fill="#071039"/>
          <path id="패스_7662-2" data-name="패스 7662" d="M9.308,19.1a5.53,5.53,0,0,0-4.237-2.383V19H4.745A4.7,4.7,0,0,0,.01,23.192a4.33,4.33,0,0,0,0,.629v7.587h2.26V27.415a4.856,4.856,0,0,0,1.228.52,6.057,6.057,0,0,0,1.572.21,5.334,5.334,0,0,0,5.157-3.671A6.024,6.024,0,0,0,9.308,19.1M8.121,23.514c-.02.084-.043.168-.069.251a2.966,2.966,0,0,1-2,1.95,3.148,3.148,0,0,1-3.3-.854,2.149,2.149,0,0,1-.464-1.5A2.439,2.439,0,0,1,4.8,21.294v0h.268V19.011a3.3,3.3,0,0,1,2.382,1.436A3.979,3.979,0,0,1,8.16,22.1a3.167,3.167,0,0,1-.04,1.411" transform="translate(0 -14.409)" fill="#071039"/>
          <path id="패스_7663-2" data-name="패스 7663" d="M258.419,30.847a2.968,2.968,0,1,1,.01-3.893l1.585-1.611a5.226,5.226,0,1,0-.01,7.115Z" transform="translate(-216.288 -20.399)" fill="#071039"/>
          <path id="패스_7664-2" data-name="패스 7664" d="M92.527,30.667a3.478,3.478,0,0,1-2.712,1.288,2.779,2.779,0,0,1-2.893-1.973l-.069-.242h7.821l.01-.151c.02-.3.038-.568.038-.823a4.868,4.868,0,0,0-4.991-5.18,5,5,0,0,0-5.138,5.2,5.031,5.031,0,0,0,5.138,5.263,5.152,5.152,0,0,0,4.249-2.063L92.6,30.572Zm-5.6-3.013a2.651,2.651,0,0,1,2.784-1.974A2.586,2.586,0,0,1,92.4,27.66l.059.236h-5.6Z" transform="translate(-72.908 -20.328)" fill="#071039"/>
        </g>
      </g>
    </g>
  </g>
</svg>
