<svg xmlns="http://www.w3.org/2000/svg" xmlns:xlink="http://www.w3.org/1999/xlink" width="114.673" height="77.649" viewBox="0 0 114.673 77.649">
  <defs>
    <clipPath id="clip-path">
      <rect id="사각형_3435" data-name="사각형 3435" width="60" height="18.573" fill="none"/>
    </clipPath>
  </defs>
  <g id="그룹_1673" data-name="그룹 1673" transform="translate(-60.52 -6557.17)">
    <path id="패스_7729" data-name="패스 7729" d="M1.859-9.451v.871H8.892c0,.338-.013.689-.026,1.04l-7.358.273.169.9L8.8-6.708a10.944,10.944,0,0,1-.273,1.69H.52v.858H11.44v-.858H9.581a22.248,22.248,0,0,0,.39-4.433Zm8.684,11.31V1H2.821V-.26h7.254V-3.042H1.729v.858H9.022V-1.04H1.768v2.9Zm7.111-3.978a24.8,24.8,0,0,1-4.407.39v-2.8h3.614v-4.2H12.168v.871h3.64V-5.4H12.194v4.55h.793a30.539,30.539,0,0,0,4.784-.4Zm4.368,4.2V-10.01H21v4.823H19.409V-9.724H18.382V1.456h1.027V-4.3H21V2.08Zm11,0V-2.145H24.96v.871h7.007V2.08ZM30.446-4.355A4.5,4.5,0,0,1,27.3-8.268V-9.516H26.234v1.287a4.91,4.91,0,0,1-3.185,4.277l.65.845a6.009,6.009,0,0,0,3.094-3.276,5.965,5.965,0,0,0,3.029,2.86ZM33.02-2.808v-7.2H31.967v7.2ZM47.073-9.347H38.649v.871h7.345l-.013.975A11.7,11.7,0,0,1,45.7-5.187l1.027.143a15.786,15.786,0,0,0,.351-3.224ZM48.36-3.38v-.871H42.991V-6.8H41.938v2.548h-4.5v.871ZM46.176-.208c0,.845-1.274,1.326-3.3,1.326s-3.3-.481-3.3-1.326,1.261-1.326,3.3-1.326S46.176-1.04,46.176-.208Zm1.04,0c0-1.352-1.508-2.184-4.342-2.184s-4.355.832-4.355,2.184,1.534,2.171,4.355,2.171S47.216,1.144,47.216-.208Zm4.745-8.06A2.017,2.017,0,0,1,54.08-6.162,2,2,0,0,1,51.974-4.1a2.039,2.039,0,0,1-2.119-2.08A2.039,2.039,0,0,1,51.961-8.268Zm0-.923a2.986,2.986,0,0,0-3.133,3.029,2.951,2.951,0,0,0,3.146,2.99,2.957,2.957,0,0,0,3.133-3A2.986,2.986,0,0,0,51.961-9.191ZM58.89,1.677V.806H51.87V-2H50.817V1.677Zm-1.313-9.1V-5.2h-2.2v.871h2.2v3.094H58.63V-10.01H57.577v1.716h-2.2v.871ZM67.041-6.2A2.883,2.883,0,0,0,63.9-9.074,2.943,2.943,0,0,0,60.749-6.2,2.918,2.918,0,0,0,63.9-3.393,2.885,2.885,0,0,0,67.041-6.2Zm-1.027,0A1.992,1.992,0,0,1,63.9-4.277,2,2,0,0,1,61.763-6.2,2.045,2.045,0,0,1,63.9-8.177,1.972,1.972,0,0,1,66.014-6.2Zm2.925-3.809V2.08h1.053V-10.01Zm-.793,8.151c-.884.117-2.457.208-4.134.273-1.469.078-2.9.1-3.926.091l.182.923c.923-.013,2.249-.052,3.666-.117C65.468-.767,67.2-.871,68.237-1ZM11.44,16.256v-.871H.52v.871Zm-.572-2.509c-1.677-.156-3.861-.936-4.264-2.314h3.809v-.871H1.547v.871H5.382C5.031,12.837,3,13.591,1.131,13.76l.468.858c2-.26,3.913-1.2,4.381-2.288.6,1.079,2.47,1.989,4.407,2.3Zm-.351,8.112v-.871H2.873V19.9H10.1V17.2H1.82v.845H9.048V19.1H1.82v2.756Zm10.14-6.149v6.37H21.71V9.99H20.657v4.823h-2.73v.9Zm-8.4-4.433v.884h4.576a8.1,8.1,0,0,1-5.018,6.695l.611.832a9.4,9.4,0,0,0,5.538-8.411ZM31.681,21.04H25.532V18.856h6.149Zm.117-8.567c0,.949-1.274,1.391-3.2,1.391s-3.185-.442-3.185-1.391,1.248-1.4,3.185-1.4S31.8,11.511,31.8,12.473Zm1.014,0c0-1.43-1.56-2.262-4.212-2.262s-4.225.832-4.225,2.262,1.573,2.249,4.225,2.249S32.812,13.89,32.812,12.473ZM34.06,16.4v-.871H23.14V16.4h4.914V18H24.479v3.913h8.255V18H29.107V16.4ZM44.4,21.963V21.1H36.777V19.883h7.228v-2.7H35.7v.845h7.254V19.09H35.724v2.873ZM39.923,11.017c1.911,0,3.159.481,3.159,1.235s-1.248,1.222-3.159,1.222-3.133-.468-3.133-1.222S38.025,11.017,39.923,11.017Zm4.225,1.235c0-1.326-1.6-2.093-4.225-2.093-2.6,0-4.212.767-4.212,2.093s1.612,2.093,4.212,2.093C42.549,14.345,44.148,13.578,44.148,12.252ZM45.37,16.1v-.884H34.45V16.1Zm6.682-4.758a1.863,1.863,0,0,1,2.08,1.833,1.842,1.842,0,0,1-2.08,1.794,1.891,1.891,0,0,1-2.093-1.807A1.907,1.907,0,0,1,52.052,11.342Zm0-.936a2.887,2.887,0,0,0-3.12,2.769,2.857,2.857,0,0,0,3.12,2.73,2.846,2.846,0,0,0,3.107-2.73A2.875,2.875,0,0,0,52.052,10.406Zm6.435,11.57v-.884H51.428V19.753h6.617v-2.9h-7.67v.871h6.617v1.222H50.375v3.029Zm1.4-8.424v-.884H58.045V9.99H56.992v6.175h1.053V13.552Zm5.5,1.625c0,1.976-.806,3.354-2.067,3.354s-2.067-1.378-2.067-3.354.819-3.367,2.067-3.367S65.39,13.188,65.39,15.177Zm-5.161-.013c0,2.574,1.131,4.277,3.094,4.277s3.094-1.7,3.094-4.264S65.3,10.9,63.323,10.9,60.229,12.616,60.229,15.164Zm11.1.572v-.884H69.355V9.99H68.3V22.08h1.053V15.736ZM80.665,9.99H79.612V22.08h1.053V15.918h1.976v-.9H80.665Zm-8.814,1.3v.884H76.4a8.163,8.163,0,0,1-4.966,6.669l.65.819a9.435,9.435,0,0,0,5.447-8.372Zm20.527,3.432v-.871H85.2V10.5H84.149v4.225Zm.052,7.085v-.871H85.163V18.245H84.11v3.562Zm1.17-4.693V16.23H82.68v.884ZM1.235,30.913V31.8H5.681c-.273,2.21-2.639,3.991-5.018,4.485l.481.871c3.081-.884,5.512-2.873,5.72-6.24ZM9.334,41H3.692V38.44H9.334Zm1.053.871v-4.3H2.639v4.3Zm0-5.031V29.99H9.334v6.851Zm2.964,1.313V35.463h3.536v-.845H13.351V32.226H17.03v-.871H12.3v7.7h.663a23.032,23.032,0,0,0,4.758-.364l-.143-.858a18.632,18.632,0,0,1-3.783.325Zm8.671,3.926V29.99H21v4.862H19.383V30.276H18.369v11.18h1.014V35.723H21V42.08Zm6.513-6.253c0,.754-.819,1.235-1.846,1.235s-1.846-.481-1.846-1.235.819-1.248,1.846-1.248S28.535,35.06,28.535,35.827Zm1.027,0c0-1.287-1.235-2.093-2.873-2.093s-2.873.806-2.873,2.093c0,1.261,1.248,2.093,2.873,2.093S29.562,37.088,29.562,35.827Zm.507-2.691v-.858H23.192v.858Zm-1.677-1.794v-.936H24.908v.936Zm1.56,3.042h2.015v1.547H29.952v.858h2.015v2.275H33.02V29.99H31.967v3.536H29.952Zm3.328,7.293v-.871H26.221V38.492H25.168v3.185Zm8.866-7.241a29.979,29.979,0,0,1-6.019.533V30.614H35.074v5.278h.689a38.805,38.805,0,0,0,6.5-.559Zm1.131-4.446v6.721H44.33V29.99Zm0,11.037H37.453v-2.7h5.824Zm1.053.871V37.465H36.4V41.9Zm8.411-8.1A2.883,2.883,0,0,0,49.6,30.926a2.855,2.855,0,1,0,0,5.681A2.885,2.885,0,0,0,52.741,33.8Zm-1.027,0a2.136,2.136,0,0,1-4.251,0A2.045,2.045,0,0,1,49.6,31.823,1.972,1.972,0,0,1,51.714,33.8Zm2.925-3.809V42.08h1.053V29.99Zm-.793,8.151c-.884.117-2.457.208-4.134.273-1.469.078-2.9.1-3.926.091l.182.923c.923-.013,2.249-.052,3.666-.117,1.534-.078,3.263-.182,4.3-.312Zm17.485-2.4v-.884H69.355V29.99H68.3V42.08h1.053V35.736Zm-6.292,2.431H61.49V32.109h3.549Zm1.053.871v-7.8H60.437v7.8Zm10.92-3.861c0,1.976-.832,3.354-2.119,3.354s-2.119-1.378-2.119-3.354.845-3.367,2.119-3.367S77.012,33.188,77.012,35.177Zm-5.239-.013c0,2.574,1.131,4.277,3.12,4.277s3.12-1.7,3.12-4.264S76.9,30.9,74.893,30.9,71.773,32.616,71.773,35.164Zm9.542,6.916V29.99H80.262V42.08Zm2.821-9.75h3.757v-.871h-4.81v7.6h1.326a28.313,28.313,0,0,0,4.108-.364l-.117-.9a17.924,17.924,0,0,1-4.264.364Zm5.3,3.211v5.915h1.027V30.276H89.44v4.381H86.632v.884Zm3.432,6.539V29.99H91.845V42.08Zm6.76-6.9c0,1.976-.832,3.354-2.119,3.354s-2.119-1.378-2.119-3.354.845-3.367,2.119-3.367S99.632,33.188,99.632,35.177Zm-5.239-.013c0,2.574,1.131,4.277,3.12,4.277s3.12-1.7,3.12-4.264S99.515,30.9,97.513,30.9,94.393,32.616,94.393,35.164Zm9.542,6.916V29.99h-1.053V42.08Zm11.258,0V29.99H114.14v4.628h-2.392v.9h2.392V42.08Zm-8.424-3.705V35.307h4.2v-.858h-4.2v-2.5h4.68v-.871h-5.733v8.19h1.248a32.342,32.342,0,0,0,5.486-.429l-.117-.884a29.089,29.089,0,0,1-5.3.416Z" transform="translate(60 6567.18)" fill="#333"/>
    <g id="그룹_1560" data-name="그룹 1560" transform="translate(61 6616.247)">
      <rect id="사각형_3434" data-name="사각형 3434" width="2.513" height="11.289" transform="translate(34.054 3.637)" fill="#e72c4e"/>
      <path id="패스_7659" data-name="패스 7659" d="M1.966,0,.1,1.853l2.51,2.58L4.457,2.579Z" transform="translate(-0.081)" fill="#e72c4e"/>
      <g id="그룹_1559" data-name="그룹 1559" transform="translate(0 0)">
        <g id="그룹_1558" data-name="그룹 1558" clip-path="url(#clip-path)">
          <path id="패스_7660" data-name="패스 7660" d="M328.482,15.092h2.481V8.927a2.738,2.738,0,0,1,5.476,0v6.165h2.469V8.937A5.217,5.217,0,0,0,333.7,3.661h0a5.251,5.251,0,0,0-2.749.772V.119h-2.471Z" transform="translate(-278.909 -0.101)" fill="#071039"/>
          <path id="패스_7661" data-name="패스 7661" d="M172.178,23.667a5.71,5.71,0,1,0,5.714,5.71,5.712,5.712,0,0,0-5.714-5.71m0,8.952a3.243,3.243,0,1,1,3.245-3.243,3.244,3.244,0,0,1-3.245,3.243" transform="translate(-141.342 -20.095)" fill="#071039"/>
          <path id="패스_7662" data-name="패스 7662" d="M10.169,19.321a6.041,6.041,0,0,0-4.629-2.6v2.5H5.184A5.133,5.133,0,0,0,.011,23.791a4.73,4.73,0,0,0,0,.688v8.289H2.483V28.4a5.306,5.306,0,0,0,1.342.569,6.617,6.617,0,0,0,1.717.229,5.827,5.827,0,0,0,5.634-4.01,6.581,6.581,0,0,0-1.008-5.871m-1.3,4.822c-.022.092-.046.184-.076.274a3.24,3.24,0,0,1-2.182,2.13,3.439,3.439,0,0,1-3.6-.933,2.348,2.348,0,0,1-.507-1.637,2.664,2.664,0,0,1,2.74-2.259v0H5.54V19.223a3.6,3.6,0,0,1,2.6,1.568,4.347,4.347,0,0,1,.772,1.81,3.46,3.46,0,0,1-.043,1.541" transform="translate(0 -14.195)" fill="#071039"/>
          <path id="패스_7663" data-name="패스 7663" d="M259.11,31.511a3.243,3.243,0,1,1,.011-4.254l1.732-1.76a5.71,5.71,0,1,0-.011,7.773Z" transform="translate(-213.081 -20.096)" fill="#071039"/>
          <path id="패스_7664" data-name="패스 7664" d="M93.261,31.322A3.8,3.8,0,0,1,90.3,32.729a3.036,3.036,0,0,1-3.161-2.156l-.075-.265h8.545l.011-.165c.021-.323.041-.621.041-.9a5.318,5.318,0,0,0-5.453-5.659,5.462,5.462,0,0,0-5.613,5.682,5.5,5.5,0,0,0,5.613,5.75,5.629,5.629,0,0,0,4.642-2.254l-1.5-1.545Zm-6.123-3.291a2.9,2.9,0,0,1,3.041-2.156,2.825,2.825,0,0,1,2.942,2.163l.064.258H87.063Z" transform="translate(-71.827 -20.026)" fill="#071039"/>
        </g>
      </g>
    </g>
  </g>
</svg>
