<svg xmlns="http://www.w3.org/2000/svg" xmlns:xlink="http://www.w3.org/1999/xlink" width="239.36" height="78.037" viewBox="0 0 239.36 78.037">
  <defs>
    <clipPath id="clip-path">
      <rect id="사각형_3435" data-name="사각형 3435" width="38.528" height="11.926" fill="none"/>
    </clipPath>
  </defs>
  <g id="그룹_1672" data-name="그룹 1672" transform="translate(-80.472 -5792.979)">
    <path id="패스_7728" data-name="패스 7728" d="M-190.692-5.364a.271.271,0,0,0-.288-.288,8.309,8.309,0,0,0-1.068-.024.673.673,0,0,0-.36.12,2.443,2.443,0,0,1-1,.2c-.66.024-1.56.036-2.664.036-.24,0-.36-.132-.36-.384V-7.308A3.9,3.9,0,0,1-196.4-7.8c.024-.2-.036-.324-.2-.36a6.573,6.573,0,0,0-1.3-.108c-.156,0-.372.132-.372.228a.072.072,0,0,0,.012.048,2.013,2.013,0,0,0,.54.168.911.911,0,0,1,.6.336v1.512c0,.768.324,1.056,1.272,1.056,1.14,0,2.724-.036,4.7-.1C-190.86-5.028-190.692-5.124-190.692-5.364ZM-189-3.444c0-.132-.084-.228-.276-.276a4.392,4.392,0,0,0-1.092-.132.876.876,0,0,0-.372.084,3.951,3.951,0,0,1-1.272.2c-1.8.072-3.648.108-5.508.108a11.161,11.161,0,0,1-1.8-.132c-.12-.012-.18,0-.18.06a.29.29,0,0,0,.144.216,3.753,3.753,0,0,0,1.14.516A1.8,1.8,0,0,0-198-2.76a.509.509,0,0,0,.144-.06,3.549,3.549,0,0,1,1.128-.2c1.392-.108,3.336-.168,5.76-.168.528,0,1.008.024,1.4.06S-189-3.192-189-3.444ZM-190.776.84c0-.132-.084-.2-.276-.24a5.009,5.009,0,0,0-1.02-.048.709.709,0,0,0-.372.12,2.952,2.952,0,0,1-1.188.192c-.768.024-1.524.024-2.232.012-.252-.012-.372-.144-.372-.408V-.792a3.475,3.475,0,0,1,.024-.492c.036-.2-.024-.336-.18-.372a7.779,7.779,0,0,0-1.392-.1c-.156,0-.372.108-.372.2a.178.178,0,0,0,.012.084,2.22,2.22,0,0,0,.576.168c.36.084.588.18.648.312l.012,1.2c0,.744.264,1.008,1.236,1.008,1.14-.024,2.616-.036,4.44-.036C-190.92,1.188-190.776,1.068-190.776.84Zm11.58-8.7a.287.287,0,0,0-.192-.312,4.277,4.277,0,0,0-1.272-.252c-.24,0-.348.06-.348.168,0,.072.048.108.168.132a1.516,1.516,0,0,1,.96.54V-2.82a15,15,0,0,1-1.788.456c-1.032.18-1.776.288-2.244.324-.18.012-.264-.072-.264-.276V-5.808c0-.036,0-.192.012-.468.012-.228-.048-.348-.18-.372a7.445,7.445,0,0,0-1.26-.108c-.156,0-.384.12-.384.216,0,.06.06.1.156.144.588.144.912.288.96.42l.024,3.468a1.291,1.291,0,0,0,.156.756.759.759,0,0,0,.468.36,2.108,2.108,0,0,0,.66-.036c.708-.156,1.32-.3,1.836-.456A13.843,13.843,0,0,0-179.88-2.5V.264c0,.552.06.816.18.816.216,0,.36-.576.42-1.74.036-.708.048-1.26.048-1.644v-1.56l1.62-.024V.984c0,.7.06,1.032.192,1.032s.336-.516.4-1.236c.048-.684.06-1.4.06-2.148v-6.66a2.674,2.674,0,0,1,.036-.384,1.627,1.627,0,0,0,.024-.24.305.305,0,0,0-.216-.312,4.574,4.574,0,0,0-1.392-.276c-.252,0-.384.06-.384.192,0,.048.048.084.156.108a2.02,2.02,0,0,1,1.128.636V-4.32l-1.62.024V-7.224a2.647,2.647,0,0,1,.012-.372C-179.208-7.74-179.2-7.836-179.2-7.86Zm14.9,5.28a.235.235,0,0,0-.168-.24,3.864,3.864,0,0,0-1.212-.216c-.24,0-.36.036-.36.12a.191.191,0,0,0,.132.18,1.863,1.863,0,0,1,.876.468l.012,1.188-3.756.048.012-.6c0-.144.024-.336.024-.4,0-.18-.1-.276-.3-.312a8.893,8.893,0,0,0-1.128-.12c-.132,0-.324.084-.324.18s.048.132.144.156a1.319,1.319,0,0,1,.864.4l.048,3.192c.012.36.072.528.192.528.228,0,.372-.216.432-.66l3.792-.06c0,.288.12.552.216.552.192,0,.312-.192.384-.6a3.341,3.341,0,0,0,.072-.7l-.012-2.436C-164.352-2.064-164.292-2.436-164.292-2.58Zm-2.616-5.076c0-.072-.048-.132-.192-.168a2.059,2.059,0,0,0-.552-.084.772.772,0,0,0-.288.084,1.188,1.188,0,0,1-.324.06,23.59,23.59,0,0,1-2.46.072,7.535,7.535,0,0,1-1.2-.084c-.108-.012-.156.012-.156.072s.036.12.132.168a3.358,3.358,0,0,0,.888.384.666.666,0,0,0,.2.036.442.442,0,0,0,.192-.084,1.211,1.211,0,0,1,.564-.132c.528-.048,1.236-.072,2.1-.072a12.315,12.315,0,0,1-4.476,4.476c-.072.048-.12.1-.12.132,0,.1.036.132.084.132a.242.242,0,0,0,.132-.036A12.905,12.905,0,0,0-168.8-5.112l2,1.812a.455.455,0,0,0,.312.156c.132-.012.192-.084.18-.228a.561.561,0,0,0-.036-.2,2.353,2.353,0,0,0-.612-.864,3.69,3.69,0,0,0-.5-.216,1.616,1.616,0,0,1-.564-.36l-.5-.4a8.392,8.392,0,0,0,1.284-1.824.942.942,0,0,1,.2-.192C-166.944-7.536-166.908-7.608-166.908-7.656Zm1.9,8.52-3.768.072.012-1.572,3.756-.048ZM-164.436-9a4.979,4.979,0,0,0-1.512-.24c-.24,0-.36.06-.36.192,0,.06.048.1.156.12a2.323,2.323,0,0,1,1.236.636v4.38c0,.5.084.768.24.768s.288-.264.36-.78a10.8,10.8,0,0,0,.072-1.32V-7.968c0-.048.012-.18.024-.444A.881.881,0,0,1-164.2-8.7.32.32,0,0,0-164.436-9Zm10.452,2.232c0-.06-.036-.108-.12-.12A2.8,2.8,0,0,0-154.728-7a.546.546,0,0,0-.24.06.89.89,0,0,1-.336.1c-1.428.06-2.412.084-2.94.072a1.55,1.55,0,0,0-.42-.12,6.11,6.11,0,0,0-.924-.072c-.2,0-.3.048-.3.156,0,.036.048.084.168.12a1.472,1.472,0,0,1,.684.42l.312,4.3c.036.456.1.672.18.672.2,0,.324-.252.36-.72,1.488-.024,2.664-.036,3.54-.048.3-.012.444-.06.444-.2,0-.108-.168-.2-.516-.276.036-.144.108-.756.252-1.836s.216-1.74.24-1.992C-154.212-6.516-153.972-6.66-153.984-6.768Zm-1.008.276-.168,3.864c-.132.252-1.116.336-3.012.264l-.108-3.7c0-.1.012-.216.024-.36C-156.516-6.48-155.436-6.5-154.992-6.492Zm3.492-2.2A.3.3,0,0,0-151.74-9a4.81,4.81,0,0,0-1.476-.24c-.264,0-.384.06-.384.192,0,.06.06.1.168.12a2.289,2.289,0,0,1,1.212.636V1.14c0,.588.06.876.2.876s.264-.276.348-.852a22.487,22.487,0,0,0,.132-2.784V-3.792c.672-.012,1.284-.024,1.848-.036.324-.012.48-.12.48-.36a.289.289,0,0,0-.24-.276,2.117,2.117,0,0,0-1.128.012,2,2,0,0,0-.228.144,1.164,1.164,0,0,1-.732.192V-7.968C-151.536-8.112-151.5-8.532-151.5-8.688Zm8.4,5.676q0-.108-.072-.108a5.015,5.015,0,0,0-.96.12c-.564.108-.888.18-.96.192-.96.1-1.632.156-2.028.168-.192.012-.288-.084-.288-.3V-4.62a1.237,1.237,0,0,1,.012-.228q1.926-.126,3.06-.18c.168-.012.264-.084.264-.228,0-.12-.168-.2-.48-.264a12.366,12.366,0,0,0,.4-1.848.406.406,0,0,1,.168-.2.209.209,0,0,0,.108-.168.145.145,0,0,0-.072-.108,1.82,1.82,0,0,0-.78-.12.546.546,0,0,0-.24.06,1.158,1.158,0,0,1-.288.048,21.223,21.223,0,0,1-2.22.084,8.985,8.985,0,0,1-1.272-.072c-.108-.012-.156.012-.156.072a.212.212,0,0,0,.108.18,2.987,2.987,0,0,0,1.14.444,1.257,1.257,0,0,0,.3-.1,8.309,8.309,0,0,1,2.412-.252,18.282,18.282,0,0,1-.06,1.98.184.184,0,0,1-.144.108c-.672.072-1.38.108-2.148.12-.06,0-.168-.048-.528-.1s-.756-.06-1.116-.06c-.072,0-.228.084-.228.144a.126.126,0,0,0,.1.12,2.782,2.782,0,0,1,.96.336V-3.1c0,.636.264,1.068.612,1.1a2.64,2.64,0,0,0,.72-.036c.828-.144,1.416-.252,1.776-.336a8.808,8.808,0,0,0,1.764-.516C-143.148-2.916-143.1-2.964-143.1-3.012Zm2.616-5.676a.3.3,0,0,0-.24-.312,4.962,4.962,0,0,0-1.5-.24c-.252,0-.372.06-.372.192,0,.06.048.1.156.12A2.4,2.4,0,0,1-141.2-8.3v1.74a14.364,14.364,0,0,1-1.68.108,7.744,7.744,0,0,1-1.008-.06c-.132-.012-.2.012-.2.072s.036.12.12.168a3.488,3.488,0,0,0,.828.36.45.45,0,0,0,.12.012.414.414,0,0,0,.156-.036c.2-.06.36-.1.468-.12a7.045,7.045,0,0,1,1.2-.084v1.812a14.356,14.356,0,0,1-1.74.1,8.148,8.148,0,0,1-1.02-.06c-.132-.012-.2.012-.2.072s.036.108.12.156a3.529,3.529,0,0,0,.828.36.619.619,0,0,0,.132.024.32.32,0,0,0,.144-.036,2.015,2.015,0,0,1,.48-.132,8.57,8.57,0,0,1,1.26-.072v2.172c0,.672.072,1.008.228,1.008s.264-.336.348-1a12.421,12.421,0,0,0,.1-1.572V-7.968C-140.532-8.124-140.484-8.532-140.484-8.688Zm.876,9.7c0-.156-.084-.24-.264-.276a4.7,4.7,0,0,0-1.02-.048.709.709,0,0,0-.372.12,2.76,2.76,0,0,1-1.2.2c-.8.036-1.584.036-2.316.012-.24-.012-.36-.156-.36-.42V-.708c0-.072,0-.168.012-.3a.217.217,0,0,0-.18-.252,7.759,7.759,0,0,0-1.368-.1c-.156,0-.384.108-.384.216a.2.2,0,0,0,.024.06,2.5,2.5,0,0,0,.576.18c.36.084.576.192.636.324l.012,1.092a1.218,1.218,0,0,0,.048.408.857.857,0,0,0,.192.216,1.519,1.519,0,0,0,1.008.228c1.236-.036,2.736-.048,4.512-.036C-139.752,1.344-139.608,1.236-139.608,1.008Zm6.288-9.948a.187.187,0,0,0-.132-.156,1.176,1.176,0,0,0-.468-.12c-.18,0-.252.036-.252.072a.09.09,0,0,0,.06.1c.12.072.168.144.168.24a.258.258,0,0,1-.072.156c-1.5.036-2.472.756-2.472,1.872,0,1.164,1.032,1.884,2.568,1.884a3.092,3.092,0,0,0,1.848-.5,1.6,1.6,0,0,0,.708-1.38c0-1.02-.792-1.716-2.1-1.848A.72.72,0,0,0-133.32-8.94Zm-.576.672c1.14,0,1.9.6,1.9,1.488,0,.912-.732,1.464-1.9,1.464s-1.92-.576-1.92-1.464S-135.06-8.268-133.9-8.268Zm3.528,9.432c0-.348-.42-.348-1.236-.348a.665.665,0,0,0-.36.132,3.132,3.132,0,0,1-1.14.18c-1.032.048-1.872.06-2.484.048-.168-.012-.252-.1-.252-.288V-.132a2.256,2.256,0,0,1,.012-.228c.8-.036,2.364-.072,4.668-.1.18,0,.264-.072.264-.2,0-.108-.144-.168-.444-.2a10.715,10.715,0,0,0,.288-1.224.307.307,0,0,1,.156-.2c.072-.036.108-.072.108-.132s-.036-.12-.132-.144a3.776,3.776,0,0,0-.66-.1c-.192,0-.288.12-.54.132a35.725,35.725,0,0,1-3.792.108,11.4,11.4,0,0,1-1.26-.108c-.132-.024-.2,0-.2.072a.125.125,0,0,0,.084.12,2.376,2.376,0,0,0,1.176.48.7.7,0,0,0,.3-.108,3.434,3.434,0,0,1,.828-.12c.972-.084,2.04-.12,3.192-.12a6.446,6.446,0,0,1-.024,1.32.312.312,0,0,1-.192.108c-1.2.06-2.424.084-3.648.084a.457.457,0,0,1-.156-.012,1.965,1.965,0,0,0-.252-.084A6.74,6.74,0,0,0-137.2-.864c-.18.012-.276.06-.276.132s.048.1.168.12a1.678,1.678,0,0,1,.78.348v.9a.963.963,0,0,0,.24.72.869.869,0,0,0,.66.144q2.142-.09,4.788-.036C-130.524,1.476-130.368,1.368-130.368,1.164Zm1.728-5.04c0-.144-.084-.228-.276-.288a4.464,4.464,0,0,0-1.092-.132.876.876,0,0,0-.372.084,3.887,3.887,0,0,1-1.272.2c-1.74.084-3.588.12-5.508.12a10.831,10.831,0,0,1-1.8-.144c-.12-.012-.18,0-.18.072a.256.256,0,0,0,.144.2,3.949,3.949,0,0,0,1.14.528,1.686,1.686,0,0,0,.216.024.286.286,0,0,0,.144-.048,3.041,3.041,0,0,1,1.128-.228c1.38-.108,3.312-.156,5.76-.156a12.444,12.444,0,0,1,1.4.072C-128.82-3.528-128.64-3.624-128.64-3.876Zm7.332-4.344c0-.072-.048-.12-.132-.168A1.127,1.127,0,0,0-122-8.532c-.156,0-.24.036-.24.1s.012.084.036.1c.156.1.228.192.216.264a.294.294,0,0,1-.132.216A2.658,2.658,0,0,0-123.7-7.3a1.8,1.8,0,0,0-.7,1.428,1.792,1.792,0,0,0,.684,1.44,2.847,2.847,0,0,0,1.752.54,2.87,2.87,0,0,0,1.776-.54,1.765,1.765,0,0,0,.672-1.44,1.783,1.783,0,0,0-.684-1.428,2.489,2.489,0,0,0-1.308-.528A1.646,1.646,0,0,0-121.308-8.22Zm-.144,6.852v-.876c.288-.036.5-.072.66-.1q2.178-.4,3.168-.648V1.14c0,.588.06.876.2.876s.264-.276.336-.852a22.484,22.484,0,0,0,.132-2.784V-7.968c0-.144.036-.564.036-.72A.29.29,0,0,0-117.144-9a4.962,4.962,0,0,0-1.5-.24c-.252,0-.372.06-.372.192,0,.06.048.1.156.12a2.323,2.323,0,0,1,1.236.636v5.016c-.708.132-1.8.3-3.252.468-.552.072-1.668.156-3.336.24a7.02,7.02,0,0,1-1.464-.1c-.132-.012-.2.012-.2.1,0,.12.2.276.636.456a5.847,5.847,0,0,0,.84.288.666.666,0,0,0,.2.036.593.593,0,0,0,.264-.1,1.106,1.106,0,0,1,.432-.132q.774-.072,1.368-.144V.8c0,.54.06.828.192.828.168,0,.3-.288.36-.852A19.092,19.092,0,0,0-121.452-1.368Zm1.272-4.5a1.354,1.354,0,0,1-.516,1.1,1.79,1.79,0,0,1-1.236.408,1.81,1.81,0,0,1-1.236-.408,1.4,1.4,0,0,1-.5-1.1,1.329,1.329,0,0,1,.516-1.056,1.839,1.839,0,0,1,1.224-.432,1.805,1.805,0,0,1,1.236.432A1.3,1.3,0,0,1-120.18-5.868Zm10.308,2.04a1.863,1.863,0,0,0-1.836-1.824.378.378,0,0,0,.132-.276.331.331,0,0,0-.132-.252.12.12,0,0,1-.06-.048c.408-.012.828-.024,1.272-.024.624,0,1.08.012,1.344.036.288.024.42-.06.42-.264,0-.252-.492-.384-1.14-.384a.836.836,0,0,0-.456.12,2.976,2.976,0,0,1-1.08.168c-.672.036-1.536.06-2.592.06a8.758,8.758,0,0,1-1.4-.084c-.108-.012-.156.012-.156.084,0,.036.036.084.1.156a2.907,2.907,0,0,0,.864.408,1.153,1.153,0,0,0,.276.06.541.541,0,0,0,.2-.06,3.266,3.266,0,0,1,.756-.156c.36-.036.732-.072,1.1-.1a.44.44,0,0,1,.18.312.258.258,0,0,1-.144.216,2.386,2.386,0,0,0-1.476.516,1.616,1.616,0,0,0-.624,1.332,1.69,1.69,0,0,0,.612,1.332,2.536,2.536,0,0,0,1.62.5C-110.772-1.992-109.872-2.736-109.872-3.828Zm-.612-.024a1.442,1.442,0,0,1-1.6,1.428,1.432,1.432,0,0,1-1.584-1.428,1.454,1.454,0,0,1,1.584-1.44A1.471,1.471,0,0,1-110.484-3.852Zm3.324-4.836A.3.3,0,0,0-107.4-9a4.929,4.929,0,0,0-1.476-.24c-.264,0-.384.06-.384.192,0,.06.048.1.156.12a2.409,2.409,0,0,1,1.224.624v6.468c0,.66.072,1,.228,1s.276-.336.36-.984a12.831,12.831,0,0,0,.084-1.6v-.96c.684-.012,1.3-.036,1.86-.048.324,0,.48-.108.48-.348a.289.289,0,0,0-.24-.276,2.117,2.117,0,0,0-1.128.012,1.148,1.148,0,0,0-.228.132,1.055,1.055,0,0,1-.744.2V-7.968C-107.208-8.124-107.16-8.532-107.16-8.688Zm.9,9.744c0-.168-.084-.264-.276-.288A5.35,5.35,0,0,0-107.568.72a.709.709,0,0,0-.372.12,2.693,2.693,0,0,1-1.188.2c-.8.036-1.56.036-2.292.012-.24-.012-.348-.144-.348-.408v-1.1a3.375,3.375,0,0,1,.012-.36c.024-.228-.036-.348-.18-.372a8.058,8.058,0,0,0-1.368-.1c-.156,0-.384.108-.384.2,0,.06.048.108.156.132a2.229,2.229,0,0,1,1.092.42V.384c0,.756.264,1.032,1.236,1.02,1.236-.036,2.712-.048,4.488-.024C-106.4,1.38-106.26,1.272-106.26,1.056Zm-4.452-8.928c0-.168-.144-.252-.408-.252a12.357,12.357,0,0,1-2.364-.18,1.029,1.029,0,0,0-.2-.036c-.1,0-.156.024-.156.084a.232.232,0,0,0,.1.192,1.774,1.774,0,0,0,1.08.588c.12-.012.18-.024.216-.024.564-.036,1-.06,1.356-.072C-110.844-7.584-110.712-7.692-110.712-7.872Zm-1.656,2.22.072.012C-112.32-5.64-112.356-5.64-112.368-5.652ZM-93.96-8.688A.3.3,0,0,0-94.2-9a4.81,4.81,0,0,0-1.476-.24c-.264,0-.384.06-.384.192,0,.06.06.1.168.12a2.288,2.288,0,0,1,1.212.636V1.14c0,.588.06.876.2.876s.264-.276.348-.852A22.484,22.484,0,0,0-94-1.62V-3.684c.672-.012,1.284-.036,1.848-.048.324,0,.48-.108.48-.348a.289.289,0,0,0-.24-.276,2.117,2.117,0,0,0-1.128.012,1.148,1.148,0,0,0-.228.132,1.1,1.1,0,0,1-.732.2v-3.96C-94-8.112-93.96-8.532-93.96-8.688Zm-2.688,1.8c0-.072-.06-.144-.192-.18a1.587,1.587,0,0,0-.5-.108c-.144,0-.48.132-.636.144-.66.06-1.68.108-2.58.1a8.179,8.179,0,0,1-1.248-.108c-.108-.012-.156.012-.156.084a.2.2,0,0,0,.12.168,4.114,4.114,0,0,0,.948.408.37.37,0,0,0,.12.012.23.23,0,0,0,.144-.06,2.043,2.043,0,0,1,.924-.192c.636-.036,1.332-.06,1.956-.048A11.84,11.84,0,0,1-99.5-3.756,13.712,13.712,0,0,1-102.24-1.14q-.108.09-.108.144c0,.084.024.12.072.12a.3.3,0,0,0,.156-.036,13.344,13.344,0,0,0,3.2-2.508c.132-.144.264-.3.384-.456l2,2.208a.489.489,0,0,0,.288.18.2.2,0,0,0,.216-.216A2.075,2.075,0,0,0-96.7-3a1.319,1.319,0,0,0-.42-.2,1.619,1.619,0,0,1-.528-.348l-.624-.66A11.01,11.01,0,0,0-97-6.5a1.515,1.515,0,0,1,.216-.2C-96.7-6.78-96.648-6.84-96.648-6.888Zm12.936,4.812c0-.072-.06-.132-.168-.156a1.98,1.98,0,0,0-.588-.1,1.232,1.232,0,0,0-.24.072,1.721,1.721,0,0,1-.264.048c-1.032.06-2.5.108-3.576.108a1.523,1.523,0,0,0-.444-.132,6.624,6.624,0,0,0-.972-.072c-.2,0-.312.048-.312.144,0,.072.072.108.18.132a1.566,1.566,0,0,1,.8.4l.264,2.9c.048.36.108.528.216.528.18,0,.3-.18.336-.552q1.08-.036,4.212-.036c.324,0,.48-.06.48-.2s-.18-.228-.552-.288c.12-.612.24-1.392.348-2.352C-83.976-1.848-83.712-1.968-83.712-2.076Zm-1.008.24-.06,2.52a.32.32,0,0,1-.24.156,32.083,32.083,0,0,1-3.456.084l-.06-2.376a1.317,1.317,0,0,1,.012-.324C-87.168-1.824-85.968-1.836-84.72-1.836Zm3.24-2.4c0-.12-.1-.2-.288-.264a3.184,3.184,0,0,0-1.02-.156.851.851,0,0,0-.384.108,3.517,3.517,0,0,1-1.14.2c.264-.792.456-1.428.588-1.908a11.2,11.2,0,0,0,.3-1.56c.168-.132.252-.24.252-.312s-.06-.144-.168-.168a2.826,2.826,0,0,0-.612-.072.71.71,0,0,0-.312.1.643.643,0,0,1-.324.072c-1.392.084-2.748.132-4.044.132a10.048,10.048,0,0,1-1.548-.12c-.144-.024-.216,0-.216.084,0,.06.048.132.156.2a4.2,4.2,0,0,0,.96.432,1.215,1.215,0,0,0,.264.048.442.442,0,0,0,.2-.06,2.877,2.877,0,0,1,1.188-.252c1.3-.072,2.412-.12,3.36-.108q-.018.846-.108,1.584c-.12.924-.2,1.56-.276,1.92-1.7.072-3.5.1-5.352.1a10.947,10.947,0,0,1-1.8-.132c-.12-.024-.18,0-.18.06s.048.132.144.2a3.617,3.617,0,0,0,1.152.528.81.81,0,0,0,.2.036.435.435,0,0,0,.156-.06A3.744,3.744,0,0,1-89.2-3.816c1.272-.108,3.192-.168,5.76-.168A11.942,11.942,0,0,1-82-3.9a.616.616,0,0,0,.444-.1A.338.338,0,0,0-81.48-4.236Zm7.944-2.472c0-.06-.036-.1-.12-.132a1.446,1.446,0,0,0-.564-.1.53.53,0,0,0-.228.084,1.039,1.039,0,0,1-.324.06c-1.092.072-1.86.1-2.316.084-.492-.024-.84-.048-1.008-.072h-.084a.1.1,0,0,0-.084.1c0,.06.06.108.156.168a4.624,4.624,0,0,0,.816.384.926.926,0,0,0,.18.024.54.54,0,0,0,.228-.1,2.031,2.031,0,0,1,.684-.144c.312-.024.864-.048,1.668-.1a11.632,11.632,0,0,1-1.5,2.868,13.432,13.432,0,0,1-2.376,2.7c-.06.06-.1.108-.1.144,0,.084.036.12.084.12a.194.194,0,0,0,.108-.036A12.05,12.05,0,0,0-74.4-5.028a2.585,2.585,0,0,0,.408.2.486.486,0,0,0,.144.036,5.273,5.273,0,0,0,.6-.168,7.482,7.482,0,0,1,1.068-.108v1.908a12.948,12.948,0,0,1-1.524.108,6.241,6.241,0,0,1-1.092-.06q-.18-.018-.18.108c0,.036.036.084.12.144a2.419,2.419,0,0,0,.72.372A.431.431,0,0,0-74-2.46a5.917,5.917,0,0,0,.588-.156c.492-.072.9-.108,1.236-.132V.264c0,.552.072.816.192.816.216,0,.348-.576.408-1.74.048-.744.06-1.3.06-1.644V-7.236a2.354,2.354,0,0,1,.012-.372c.012-.168.024-.264.024-.276a.29.29,0,0,0-.2-.3,4.22,4.22,0,0,0-1.272-.264c-.228,0-.336.06-.336.168,0,.072.048.12.156.144a1.57,1.57,0,0,1,.96.576v2.124c-.384.048-.816.06-1.368.072a4.02,4.02,0,0,1-.672-.012q.216-.432.4-.9a1.113,1.113,0,0,1,.156-.216A.36.36,0,0,0-73.536-6.708Zm4.152-1.944a.331.331,0,0,0-.228-.312A4.573,4.573,0,0,0-71-9.24c-.252,0-.372.06-.372.192,0,.048.048.084.156.108a2.02,2.02,0,0,1,1.128.636V.984c0,.7.06,1.032.18,1.032.144,0,.348-.516.4-1.236.048-.684.072-1.4.072-2.148v-6.66a2.674,2.674,0,0,1,.036-.384A1.626,1.626,0,0,0-69.384-8.652ZM-63.9-6.816a.279.279,0,0,0-.156-.228c-.06-.036-.108-.06-.156-.084.456-.024.912-.036,1.32-.036.612,0,1.032.012,1.284.036s.372-.06.372-.264c0-.252-.456-.408-1.068-.408a.7.7,0,0,0-.42.132,2.386,2.386,0,0,1-1.02.192c-.72.048-1.56.06-2.556.06a8.05,8.05,0,0,1-1.344-.1c-.1-.012-.144.012-.144.084a.174.174,0,0,0,.084.156,3.55,3.55,0,0,0,.828.408.709.709,0,0,0,.264.06.541.541,0,0,0,.2-.06A2.8,2.8,0,0,1-65.7-7.02c.276-.024.6-.048.948-.072.024.012.06.036.108.06.12.072.18.132.18.2s-.036.1-.1.144c-1.2.06-1.98.684-1.98,1.536,0,.8.732,1.428,1.86,1.524v.876c-.564.06-1.152.1-1.752.12A8.269,8.269,0,0,1-67.98-2.7c-.132-.012-.2.012-.2.084,0,.216.456.456,1.344.72a1.076,1.076,0,0,0,.216.024.514.514,0,0,0,.264-.072,1.051,1.051,0,0,1,.48-.168c.792-.084,1.7-.2,2.688-.372,1.332-.216,2.364-.444,3.1-.624v.516c0,.5.084.756.264.756.156,0,.264-.252.336-.768a8.572,8.572,0,0,0,.084-1.332V-7.968c0-.048,0-.18.012-.444a.881.881,0,0,1,.024-.288A.31.31,0,0,0-59.6-9a4.962,4.962,0,0,0-1.5-.24c-.264,0-.384.06-.384.192,0,.06.06.1.168.12a2.283,2.283,0,0,1,1.224.636v4.86c-.84.192-1.92.36-3.228.528-.216.036-.432.06-.648.084v-.8c1.1-.12,1.812-.72,1.812-1.536,0-.792-.708-1.392-1.8-1.512A.249.249,0,0,0-63.9-6.816Zm-.408.564a1.8,1.8,0,0,1,1.056.312.909.909,0,0,1,.456.768.924.924,0,0,1-.456.768,1.8,1.8,0,0,1-1.056.312c-.876,0-1.524-.468-1.524-1.08S-65.184-6.252-64.308-6.252Zm4.956,4.944c0-.072-.06-.132-.192-.168a1.186,1.186,0,0,0-.444-.1.594.594,0,0,0-.288.084,1.559,1.559,0,0,1-.324.048c-2,.108-3.288.168-3.852.168a11.147,11.147,0,0,1-1.536-.108c-.156-.024-.228.012-.228.1,0,.06.048.12.156.18a3.961,3.961,0,0,0,.984.444,1.393,1.393,0,0,0,.264.06.487.487,0,0,0,.2-.06,3.1,3.1,0,0,1,1.2-.276c1.344-.084,2.424-.12,3.216-.12V.936c0,.684.072,1.02.216,1.02.18,0,.3-.336.372-1.008.024-.216.048-.48.06-.792l.036-1.188A.591.591,0,0,0-59.352-1.308Zm-3.72-7.14c0-.156-.132-.228-.4-.228A12.928,12.928,0,0,1-65.9-8.868a1.342,1.342,0,0,0-.228-.036c-.1,0-.144.024-.144.084a.246.246,0,0,0,.1.168,3.05,3.05,0,0,0,.552.432.935.935,0,0,0,.528.132,1.67,1.67,0,0,1,.2-.012l1.452-.06C-63.192-8.172-63.072-8.28-63.072-8.448ZM-46.26-8.52a.22.22,0,0,0-.156-.228,2.8,2.8,0,0,0-1.068-.24c-.228,0-.348.048-.348.156,0,.072.048.12.132.156a1.2,1.2,0,0,1,.7.456v.912l-1.644.024.012-.648c0-.18.024-.336.024-.432,0-.144-.084-.24-.264-.276a4.491,4.491,0,0,0-1.02-.144c-.132,0-.336.084-.336.18,0,.06.048.108.156.144a1.036,1.036,0,0,1,.72.456l.036,3.228c.012.384.084.564.228.564.228,0,.36-.24.408-.732l1.668-.024c.012.432.084.636.216.636.192,0,.312-.216.372-.66a4.527,4.527,0,0,0,.072-.708l.048-2.208a2.344,2.344,0,0,1,.024-.348C-46.272-8.376-46.26-8.46-46.26-8.52Zm-4.08.36a.228.228,0,0,0-.18-.216,3.889,3.889,0,0,0-1.044-.216c-.24,0-.348.048-.348.144,0,.06.048.108.132.144a1.1,1.1,0,0,1,.672.468v.684l-1.644.024.012-.36c0-.084.024-.348.024-.444,0-.132-.1-.228-.312-.276a3.812,3.812,0,0,0-.984-.12c-.252,0-.372.06-.372.168,0,.06.06.12.18.156a1.114,1.114,0,0,1,.708.444l.1,2.916c.012.36.072.54.2.54.216,0,.348-.216.408-.672l1.68-.036c.012.408.072.612.216.612.2,0,.336-.216.4-.66a6.019,6.019,0,0,0,.06-.744l.024-1.812a4.154,4.154,0,0,1,.036-.444C-50.352-8.04-50.34-8.136-50.34-8.16ZM-44.7-3.3c0-.144-.084-.24-.276-.288a4.392,4.392,0,0,0-1.092-.132.876.876,0,0,0-.372.084,3.951,3.951,0,0,1-1.272.2c-1.608.06-3.456.108-5.508.108a10.6,10.6,0,0,1-1.8-.144c-.12-.012-.18,0-.18.06a.257.257,0,0,0,.144.216,3.474,3.474,0,0,0,1.14.528q.2.036.216.036a.333.333,0,0,0,.144-.06,12.2,12.2,0,0,1,3.336-.324v2c0,.648.06.972.192.972.108,0,.192-.072.264-.216a4.087,4.087,0,0,0,.12-.684,10.81,10.81,0,0,0,.108-1.548v-.552c.828-.012,1.776-.024,2.868-.024a12,12,0,0,1,1.4.072C-44.88-2.952-44.7-3.06-44.7-3.3Zm-1.716,4.392A.276.276,0,0,0-46.668.8,5.59,5.59,0,0,0-47.712.756a.952.952,0,0,0-.36.132,2.954,2.954,0,0,1-1.188.2c-.72.036-1.524.036-2.4.012-.228-.012-.348-.144-.348-.408V-.492c0-.168,0-.336.012-.456.024-.228-.012-.36-.192-.4a8.16,8.16,0,0,0-1.368-.1c-.156,0-.372.108-.372.2,0,.072.048.12.156.132.648.144,1.008.3,1.08.432L-52.68.456c0,.708.252,1.02,1.332.984,1.188-.036,2.676-.048,4.488-.024C-46.56,1.416-46.416,1.308-46.416,1.092ZM-47-5.352l-1.656.024.012-1.56L-47-6.924Zm-4.1.132-1.656.06.012-1.56,1.644-.048ZM-38.856-7.4a.091.091,0,0,0-.024-.048c-.036-.048-.156-.084-.36-.132a2.216,2.216,0,0,0-.408-.06.466.466,0,0,0-.228.072.781.781,0,0,1-.336.1c-.756.06-1.716.084-2.892.072a1.435,1.435,0,0,0-.42-.12,5.269,5.269,0,0,0-.984-.084c-.2,0-.312.048-.312.156,0,.048.06.084.18.12a1.7,1.7,0,0,1,.732.432l.312,3.732c.036.384.108.588.2.588.2,0,.3-.228.36-.66,1.212-.036,2.352-.06,3.468-.048.288,0,.432-.084.432-.228s-.144-.216-.456-.276c.084-.48.24-1.584.456-3.312a1.308,1.308,0,0,1,.156-.132C-38.892-7.3-38.856-7.356-38.856-7.4Zm-1.176,3.576a.313.313,0,0,1-.276.156c-.852.06-1.776.084-2.712.072l-.12-3.084.036-.36c.5-.024,1.572-.048,3.192-.06Zm3.6-4.86A.29.29,0,0,0-36.66-9a4.945,4.945,0,0,0-1.488-.24c-.264,0-.384.06-.384.192,0,.06.06.1.168.12A2.46,2.46,0,0,1-37.14-8.3V-1.98q0,.972.216.972t.36-.972a11.723,11.723,0,0,0,.1-1.6V-4.5c.672-.012,1.284-.036,1.848-.048.324,0,.48-.12.48-.348a.289.289,0,0,0-.24-.276,1.9,1.9,0,0,0-1.128.012,1.148,1.148,0,0,0-.228.132,1.01,1.01,0,0,1-.732.2V-7.968C-36.468-8.124-36.432-8.532-36.432-8.688Zm.876,9.576c0-.132-.084-.2-.276-.24A6.224,6.224,0,0,0-36.864.6a.822.822,0,0,0-.372.132,2.681,2.681,0,0,1-1.176.192c-.78.036-1.5.036-2.16.024-.252-.012-.372-.156-.372-.432V-.864c0-.18.012-.324.024-.456.024-.24-.036-.384-.168-.42a6.882,6.882,0,0,0-1.392-.1c-.156,0-.372.12-.372.216,0,.06.048.12.156.132q.972.2,1.08.432L-41.6.252c.012.768.276,1.068,1.236,1.032,1.236-.036,2.664-.036,4.344-.024C-35.712,1.26-35.556,1.14-35.556.888Zm9.588-5.136A2.275,2.275,0,0,0-26.712-6a2.58,2.58,0,0,0-1.38-.636.834.834,0,0,0,.192-.348.26.26,0,0,0-.144-.228,1.248,1.248,0,0,0-.7-.2c-.132,0-.192.048-.192.108s.024.084.084.12c.156.1.24.2.24.312a.378.378,0,0,1-.108.2,2.646,2.646,0,0,0-1.74.648,2.288,2.288,0,0,0-.768,1.776A2.3,2.3,0,0,0-30.468-2.5a2.684,2.684,0,0,0,1.872.66,2.746,2.746,0,0,0,1.86-.672A2.266,2.266,0,0,0-25.968-4.248Zm-.7-.024a1.8,1.8,0,0,1-.552,1.332,1.817,1.817,0,0,1-1.356.528,1.939,1.939,0,0,1-1.392-.528,1.8,1.8,0,0,1-.552-1.332,1.755,1.755,0,0,1,.552-1.32,1.949,1.949,0,0,1,1.392-.54,1.817,1.817,0,0,1,1.356.528A1.745,1.745,0,0,1-26.664-4.272Zm3.444-4.416A.29.29,0,0,0-23.448-9a4.945,4.945,0,0,0-1.488-.24c-.264,0-.384.06-.384.192,0,.06.06.1.168.12a2.283,2.283,0,0,1,1.224.636V1.14c0,.588.06.876.2.876s.252-.276.336-.852a22.484,22.484,0,0,0,.132-2.784v-2.2c.672-.012,1.3-.036,1.86-.048.312,0,.468-.12.468-.348a.277.277,0,0,0-.228-.276,1.943,1.943,0,0,0-1.14.012,2,2,0,0,0-.228.144,1.06,1.06,0,0,1-.732.192V-7.968C-23.256-8.112-23.22-8.532-23.22-8.688Zm10.86,0A.29.29,0,0,0-12.588-9,4.979,4.979,0,0,0-14.1-9.24c-.252,0-.372.06-.372.192,0,.06.06.1.168.12a2.283,2.283,0,0,1,1.224.636v5.148a24.393,24.393,0,0,1-2.676.732c-1.416.3-2.4.456-2.976.516-.18.012-.264-.1-.264-.3v-3.72c0-.036,0-.192.012-.468.012-.24-.048-.36-.18-.384a8.495,8.495,0,0,0-1.416-.108c-.168,0-.384.108-.384.2,0,.072.048.12.156.132.66.12,1.032.276,1.116.456l.024,3.72a1.337,1.337,0,0,0,.144.756.759.759,0,0,0,.468.36,3.042,3.042,0,0,0,.612-.036A24.379,24.379,0,0,0-15.732-1.9a23.856,23.856,0,0,0,2.652-.972V1.14c0,.588.072.876.2.876.156,0,.264-.276.348-.852A22.211,22.211,0,0,0-12.4-1.62V-7.968C-12.4-8.112-12.36-8.532-12.36-8.688Zm9.9,0A.3.3,0,0,0-2.7-9a4.81,4.81,0,0,0-1.476-.24c-.264,0-.384.06-.384.192,0,.06.06.1.168.12a2.288,2.288,0,0,1,1.212.636V-2.46a22.086,22.086,0,0,1-2.412.588,28.589,28.589,0,0,1-3.072.444c-.18.012-.264-.084-.264-.288V-3.864a1.378,1.378,0,0,1,.012-.216c1.284-.084,2.424-.144,3.42-.2.144-.012.216-.072.216-.2s-.156-.216-.492-.3c.18-.828.312-1.524.42-2.076a.37.37,0,0,1,.156-.2.209.209,0,0,0,.108-.168.113.113,0,0,0-.072-.1,1.733,1.733,0,0,0-.756-.12.645.645,0,0,0-.252.06,1.232,1.232,0,0,1-.3.048c-.684.06-1.56.1-2.6.084-.552-.012-.972-.036-1.284-.072-.108-.012-.168.012-.168.072a.2.2,0,0,0,.12.168,2.7,2.7,0,0,0,1.1.444,4.891,4.891,0,0,1,1.152-.264,17.982,17.982,0,0,1,1.992-.072q0,1.3-.072,2.2a.242.242,0,0,1-.144.132,22.388,22.388,0,0,1-2.448.144.424.424,0,0,1-.168-.036c-.144-.024-.264-.06-.36-.072A8.366,8.366,0,0,0-10.4-4.692c-.06,0-.228.072-.228.168a.105.105,0,0,0,.1.108,2.764,2.764,0,0,1,.9.336v2.2c0,.636.264,1.068.612,1.116A2.761,2.761,0,0,0-8.34-.792a26.543,26.543,0,0,0,2.724-.6A22.2,22.2,0,0,0-3.18-2.2V1.14c0,.588.06.876.2.876s.264-.276.348-.852A22.484,22.484,0,0,0-2.5-1.62V-3.732c.672-.012,1.284-.036,1.848-.048.324,0,.48-.108.48-.348A.289.289,0,0,0-.408-4.4a2.117,2.117,0,0,0-1.128.012,1.148,1.148,0,0,0-.228.132,1.1,1.1,0,0,1-.732.2V-7.968C-2.5-8.112-2.46-8.532-2.46-8.688ZM-180.54,18.8c0-.144-.084-.228-.276-.288a4.392,4.392,0,0,0-1.092-.132.9.9,0,0,0-.372.1,4.024,4.024,0,0,1-1.272.192c-.636.036-1.26.06-1.9.072V16.084l1.86-.036c.012.42.06.612.156.612.2,0,.348-.2.432-.648a4.066,4.066,0,0,0,.06-.7l.048-3.576a3.939,3.939,0,0,1,.024-.408c0-.06.036-.228.036-.276a.241.241,0,0,0-.168-.228,3.26,3.26,0,0,0-1.224-.228c-.228,0-.348.048-.348.144a.166.166,0,0,0,.12.168,1.787,1.787,0,0,1,.864.54v1.584l-4.4.06.012-1.068a1.7,1.7,0,0,1,.012-.276c0-.012.012-.084.012-.132,0-.18-.1-.288-.3-.324a8.831,8.831,0,0,0-1.2-.132c-.132,0-.324.1-.324.18s.048.132.132.156a1.5,1.5,0,0,1,.912.5l.084,4.38c.012.336.072.516.192.516.18,0,.324-.264.432-.768l1.884-.036V18.76c-.972.024-1.944.024-2.916.024a9.939,9.939,0,0,1-1.8-.132c-.12-.024-.18-.012-.18.06a.256.256,0,0,0,.144.2,3.474,3.474,0,0,0,1.14.528,1.264,1.264,0,0,0,.216.036.377.377,0,0,0,.144-.048,3.111,3.111,0,0,1,1.128-.228c1.26-.108,3.18-.168,5.76-.168a12,12,0,0,1,1.4.072C-180.72,19.144-180.54,19.048-180.54,18.8Zm-3.048-3.144-4.416.084.012-2.232,4.4-.072Zm12.024,1.716c0-.06-.072-.108-.18-.144a1.946,1.946,0,0,0-.588-.1c-.108,0-.384.084-.5.1-1.476.084-2.616.132-3.42.132a1.564,1.564,0,0,0-.468-.12,6.266,6.266,0,0,0-.936-.072q-.324,0-.324.144c0,.06.06.1.168.12a1.5,1.5,0,0,1,.8.42l.24,2.676c.036.348.108.528.24.528.192,0,.288-.192.312-.588,1.176-.036,2.508-.06,4.032-.072q.432,0,.432-.216c0-.12-.168-.2-.5-.264.192-.84.324-1.536.408-2.112C-171.84,17.644-171.564,17.452-171.564,17.368Zm-3.264-2.652a1.491,1.491,0,0,0-.564-1.224,2.235,2.235,0,0,0-1.236-.468.309.309,0,0,0,.144-.24.373.373,0,0,0-.132-.252c-.036-.024-.06-.048-.1-.072.408-.012.8-.012,1.152-.012.744.012,1.176.024,1.332.036.276.024.408-.06.408-.252,0-.264-.48-.4-1.116-.4a.845.845,0,0,0-.456.132,2.812,2.812,0,0,1-1.068.168c-.66.036-1.584.06-2.352.06a9.193,9.193,0,0,1-1.428-.084c-.108-.012-.156.012-.156.084a.19.19,0,0,0,.1.144,3.491,3.491,0,0,0,.876.42,1.012,1.012,0,0,0,.276.048.541.541,0,0,0,.2-.06,3.167,3.167,0,0,1,.768-.168c.288-.036.612-.072.96-.1.084.084.228.18.228.324,0,.084-.084.156-.168.192a2.365,2.365,0,0,0-1.44.492,1.5,1.5,0,0,0-.612,1.224c0,1.032.876,1.776,2.2,1.776S-174.828,15.748-174.828,14.716Zm2.136,5.148a.265.265,0,0,1-.252.168c-1.128.084-2.208.108-3.276.084l-.036-2.1a2.518,2.518,0,0,1,.012-.324c1.884-.06,3.108-.1,3.66-.1Zm-2.76-5.16a1.374,1.374,0,0,1-1.536,1.332,1.378,1.378,0,0,1-1.548-1.332c0-.78.612-1.308,1.548-1.308C-176.028,13.4-175.452,13.924-175.452,14.7Zm3.588-4.7a4.962,4.962,0,0,0-1.5-.24c-.252,0-.372.06-.372.192,0,.06.048.1.156.12a2.323,2.323,0,0,1,1.236.636v2.94a10.783,10.783,0,0,1-1.308.1,7.15,7.15,0,0,1-.96-.024c-.156-.012-.228,0-.228.06,0,.084.036.12.12.168a4.931,4.931,0,0,0,.876.36l.12.012a.5.5,0,0,0,.156-.036,2.278,2.278,0,0,1,.5-.156c.2-.024.444-.048.72-.084v2.064q0,.792.252.792c.156,0,.276-.276.348-.8a10,10,0,0,0,.072-1.32V11.032c0-.048.012-.18.024-.444a.882.882,0,0,1,.024-.288A.32.32,0,0,0-171.864,10Zm-3.84.96c0-.156-.132-.252-.408-.252a11.948,11.948,0,0,1-2.16-.168,1.264,1.264,0,0,0-.216-.036c-.1,0-.144.024-.144.084a.3.3,0,0,0,.084.192,1.747,1.747,0,0,0,1.08.564c.108-.012.168-.024.2-.024.5-.036.9-.06,1.176-.072S-175.7,11.14-175.7,10.96Zm11.244-.9a.187.187,0,0,0-.132-.156,1.176,1.176,0,0,0-.468-.12c-.18,0-.252.036-.252.072a.09.09,0,0,0,.06.1c.12.072.168.144.168.24a.258.258,0,0,1-.072.156c-1.5.036-2.472.756-2.472,1.872,0,1.164,1.032,1.884,2.568,1.884a3.092,3.092,0,0,0,1.848-.5,1.6,1.6,0,0,0,.708-1.38c0-1.02-.792-1.716-2.1-1.848A.72.72,0,0,0-164.46,10.06Zm-.576.672c1.14,0,1.9.6,1.9,1.488,0,.912-.732,1.464-1.9,1.464s-1.92-.576-1.92-1.464S-166.2,10.732-165.036,10.732Zm3.528,9.432c0-.348-.42-.348-1.236-.348a.665.665,0,0,0-.36.132,3.132,3.132,0,0,1-1.14.18c-1.032.048-1.872.06-2.484.048-.168-.012-.252-.1-.252-.288v-1.02a2.256,2.256,0,0,1,.012-.228c.8-.036,2.364-.072,4.668-.1.18,0,.264-.072.264-.2,0-.108-.144-.168-.444-.2a10.715,10.715,0,0,0,.288-1.224.307.307,0,0,1,.156-.2c.072-.036.108-.072.108-.132s-.036-.12-.132-.144a3.776,3.776,0,0,0-.66-.1c-.192,0-.288.12-.54.132a35.725,35.725,0,0,1-3.792.108,11.4,11.4,0,0,1-1.26-.108c-.132-.024-.2,0-.2.072a.125.125,0,0,0,.084.12,2.376,2.376,0,0,0,1.176.48.7.7,0,0,0,.3-.108,3.434,3.434,0,0,1,.828-.12c.972-.084,2.04-.12,3.192-.12a6.446,6.446,0,0,1-.024,1.32.312.312,0,0,1-.192.108c-1.2.06-2.424.084-3.648.084a.457.457,0,0,1-.156-.012,1.965,1.965,0,0,0-.252-.084,6.74,6.74,0,0,0-1.128-.072c-.18.012-.276.06-.276.132s.048.1.168.12a1.678,1.678,0,0,1,.78.348v.9a.963.963,0,0,0,.24.72.869.869,0,0,0,.66.144q2.142-.09,4.788-.036C-161.664,20.476-161.508,20.368-161.508,20.164Zm1.728-5.04c0-.144-.084-.228-.276-.288a4.464,4.464,0,0,0-1.092-.132.876.876,0,0,0-.372.084,3.887,3.887,0,0,1-1.272.2c-1.74.084-3.588.12-5.508.12a10.831,10.831,0,0,1-1.8-.144c-.12-.012-.18,0-.18.072a.256.256,0,0,0,.144.2,3.949,3.949,0,0,0,1.14.528,1.686,1.686,0,0,0,.216.024.286.286,0,0,0,.144-.048,3.041,3.041,0,0,1,1.128-.228c1.38-.108,3.312-.156,5.76-.156a12.444,12.444,0,0,1,1.4.072C-159.96,15.472-159.78,15.376-159.78,15.124Zm13.2.756c0-.132-.084-.228-.276-.288a4.392,4.392,0,0,0-1.092-.132.876.876,0,0,0-.372.084,3.584,3.584,0,0,1-1.272.216c-.624.024-1.248.048-1.86.06V14.4c.792-.012,1.68-.012,2.652-.012.312,0,.468-.12.468-.336a.264.264,0,0,0-.276-.276c-.336-.036-.7-.048-1.056-.06a.817.817,0,0,0-.372.144,2.754,2.754,0,0,1-1.092.192c-1.044.036-1.9.06-2.52.048-.24-.012-.36-.132-.36-.42v-.9c1.74-.072,3.372-.12,4.836-.144.252-.012.384-.12.384-.324,0-.168-.1-.264-.288-.276a4.187,4.187,0,0,0-1.1,0c-.132.048-.216.1-.312.132a2.5,2.5,0,0,1-.852.156c-.66.036-1.56.06-2.664.048v-.948a2.96,2.96,0,0,1,.012-.384c1.068-.048,2.784-.084,5.1-.12.264,0,.408-.12.42-.36,0-.168-.1-.264-.3-.288a4.335,4.335,0,0,0-1.1-.024,1.856,1.856,0,0,0-.456.18,2.622,2.622,0,0,1-.948.156c-.84.036-1.728.06-2.616.048a2.037,2.037,0,0,0-.348-.108,7.856,7.856,0,0,0-1.212-.072c-.144,0-.384.108-.384.2,0,.072.108.156.264.18a1.742,1.742,0,0,1,.876.36v2.232c0,.756.312,1.08,1.26,1.032.4-.012.828-.036,1.3-.048v1.428c-1,.012-1.98.024-2.952.024a10.885,10.885,0,0,1-1.8-.12c-.12-.024-.18-.012-.18.048a.256.256,0,0,0,.144.2,3.046,3.046,0,0,0,1.14.528q.2.036.216.036a.286.286,0,0,0,.144-.048,3.171,3.171,0,0,1,1.128-.216c1.272-.12,3.2-.18,5.76-.18.528,0,1.008.024,1.4.06S-146.58,16.12-146.58,15.88Zm-2.8,3.12a1.565,1.565,0,0,0-.672-1.332,2.559,2.559,0,0,0-1.428-.516.644.644,0,0,0,.156-.3c0-.06-.048-.1-.132-.132a1.462,1.462,0,0,0-.456-.108c-.168,0-.252.036-.252.1,0,.036.024.06.072.084a.225.225,0,0,1,.144.192.188.188,0,0,1-.132.168,2.664,2.664,0,0,0-1.512.528,1.614,1.614,0,0,0-.7,1.32,1.617,1.617,0,0,0,.672,1.344,2.724,2.724,0,0,0,1.776.528,2.734,2.734,0,0,0,1.8-.552A1.548,1.548,0,0,0-149.376,19Zm-2.436-1.416c1.092,0,1.8.624,1.8,1.416,0,.828-.684,1.4-1.8,1.4s-1.812-.576-1.812-1.4C-153.624,18.208-152.9,17.584-151.812,17.584Zm10.8-2.412a1.863,1.863,0,0,0-1.836-1.824.378.378,0,0,0,.132-.276.331.331,0,0,0-.132-.252.12.12,0,0,1-.06-.048c.408-.012.828-.024,1.272-.024.624,0,1.08.012,1.344.036.288.024.42-.06.42-.264,0-.252-.492-.384-1.14-.384a.836.836,0,0,0-.456.12,2.976,2.976,0,0,1-1.08.168c-.672.036-1.536.06-2.592.06a8.757,8.757,0,0,1-1.4-.084c-.108-.012-.156.012-.156.084,0,.036.036.084.1.156a2.907,2.907,0,0,0,.864.408,1.153,1.153,0,0,0,.276.06.541.541,0,0,0,.2-.06,3.266,3.266,0,0,1,.756-.156c.36-.036.732-.072,1.1-.1a.44.44,0,0,1,.18.312.258.258,0,0,1-.144.216,2.386,2.386,0,0,0-1.476.516,1.616,1.616,0,0,0-.624,1.332,1.69,1.69,0,0,0,.612,1.332,2.536,2.536,0,0,0,1.62.5C-141.912,17.008-141.012,16.264-141.012,15.172Zm-.612-.024a1.442,1.442,0,0,1-1.6,1.428,1.432,1.432,0,0,1-1.584-1.428,1.454,1.454,0,0,1,1.584-1.44A1.471,1.471,0,0,1-141.624,15.148Zm3.324-4.836a.3.3,0,0,0-.24-.312,4.929,4.929,0,0,0-1.476-.24c-.264,0-.384.06-.384.192,0,.06.048.1.156.12a2.409,2.409,0,0,1,1.224.624v6.468c0,.66.072,1,.228,1s.276-.336.36-.984a12.831,12.831,0,0,0,.084-1.6v-.96c.684-.012,1.3-.036,1.86-.048.324,0,.48-.108.48-.348a.289.289,0,0,0-.24-.276,2.117,2.117,0,0,0-1.128.012,1.147,1.147,0,0,0-.228.132,1.055,1.055,0,0,1-.744.2V11.032C-138.348,10.876-138.3,10.468-138.3,10.312Zm.9,9.744c0-.168-.084-.264-.276-.288a5.35,5.35,0,0,0-1.032-.048.709.709,0,0,0-.372.12,2.693,2.693,0,0,1-1.188.2c-.8.036-1.56.036-2.292.012-.24-.012-.348-.144-.348-.408v-1.1a3.377,3.377,0,0,1,.012-.36c.024-.228-.036-.348-.18-.372a8.058,8.058,0,0,0-1.368-.1c-.156,0-.384.108-.384.2,0,.06.048.108.156.132a2.229,2.229,0,0,1,1.092.42v.912c0,.756.264,1.032,1.236,1.02,1.236-.036,2.712-.048,4.488-.024C-137.544,20.38-137.4,20.272-137.4,20.056Zm-4.452-8.928c0-.168-.144-.252-.408-.252a12.357,12.357,0,0,1-2.364-.18,1.029,1.029,0,0,0-.2-.036c-.1,0-.156.024-.156.084a.232.232,0,0,0,.1.192,1.774,1.774,0,0,0,1.08.588c.12-.012.18-.024.216-.024.564-.036,1-.06,1.356-.072C-141.984,11.416-141.852,11.308-141.852,11.128Zm-1.656,2.22.072.012C-143.46,13.36-143.5,13.36-143.508,13.348Zm14.7-1.68a.355.355,0,0,0-.18-.288,4.159,4.159,0,0,0-1.176-.48,1.076,1.076,0,0,0-.216-.024c-.18,0-.264.036-.264.12q0,.09.144.144a1.353,1.353,0,0,1,.78.78,11.431,11.431,0,0,1-3.1,4.416c-.156.132-.228.2-.228.24s.024.072.1.072a.574.574,0,0,0,.24-.1,8.947,8.947,0,0,0,2.94-2.9l2.436,2.292a.465.465,0,0,0,.312.144c.12,0,.192-.072.192-.228a.324.324,0,0,0-.06-.192,2.356,2.356,0,0,0-.768-1.044,3.445,3.445,0,0,0-.444-.18,3.434,3.434,0,0,1-.684-.468l-.768-.66a11.322,11.322,0,0,0,.672-1.38A.728.728,0,0,0-128.808,11.668Zm4.212-1.356a.29.29,0,0,0-.228-.312,4.979,4.979,0,0,0-1.512-.24c-.252,0-.372.06-.372.192,0,.06.06.1.168.12a2.452,2.452,0,0,1,1.236.624v6.312c0,.672.072,1,.216,1s.276-.324.36-.984a12.62,12.62,0,0,0,.1-1.584v-4.4C-124.632,10.876-124.6,10.468-124.6,10.312Zm.852,9.6c0-.144-.1-.216-.264-.252a5.168,5.168,0,0,0-1.02-.048.679.679,0,0,0-.372.12,2.961,2.961,0,0,1-1.2.2c-.78.036-1.536.036-2.232.012-.24,0-.36-.144-.36-.408v-1.4a3.67,3.67,0,0,1,.024-.48c.024-.228-.036-.348-.192-.384a7.381,7.381,0,0,0-1.368-.1c-.156,0-.372.108-.372.216,0,.06.048.12.156.132.648.132,1,.276,1.068.432l.012,1.308a1.039,1.039,0,0,0,.252.8,1.435,1.435,0,0,0,1,.228c1.236-.036,2.7-.036,4.428-.024C-123.9,20.272-123.744,20.152-123.744,19.912Zm6.444-9.828c0-.06-.048-.108-.132-.144a1.715,1.715,0,0,0-.456-.12c-.18-.024-.264.024-.264.084a.1.1,0,0,0,.06.1c.108.06.168.12.168.2a.256.256,0,0,1-.036.144c-1.548.024-2.556.768-2.556,1.92,0,1.188,1.056,1.932,2.616,1.932a4.3,4.3,0,0,0,1-.108,1.086,1.086,0,0,1,.516.444l-.168,1.176c-.78.024-1.608.036-2.46.048l.036-.9c.012-.156.012-.288.024-.4s-.048-.168-.18-.2a4.428,4.428,0,0,0-1.128-.18c-.228,0-.348.048-.348.156,0,.072.048.12.156.144a1.1,1.1,0,0,1,.792.468l.036.924h-1.512a10.831,10.831,0,0,1-1.8-.144c-.12-.012-.18,0-.18.072a.256.256,0,0,0,.144.2,3.948,3.948,0,0,0,1.14.528.807.807,0,0,0,.216.036.333.333,0,0,0,.144-.06,3.175,3.175,0,0,1,1.128-.228c1.368-.1,3.312-.144,5.76-.144.516,0,.984.024,1.4.06.384.036.564-.06.564-.3,0-.132-.084-.24-.276-.288a3.65,3.65,0,0,0-1.092-.144,1,1,0,0,0-.372.1,3.865,3.865,0,0,1-1.116.2c-.168.012-.336.024-.516.024l.276-1.116c.036-.168.06-.288.072-.348.024-.1-.036-.156-.168-.2-.18-.06-.36-.108-.5-.156a1.737,1.737,0,0,0,1.02-1.6c0-1.056-.816-1.764-2.136-1.9A.543.543,0,0,0-117.3,10.084Zm1.98,8.82c0-1.044-.864-1.812-2.232-1.932.108-.144.156-.228.156-.3s-.048-.1-.132-.132a1.412,1.412,0,0,0-.456-.1c-.168,0-.252.024-.252.084,0,.036.024.06.072.084q.144.072.144.18a.2.2,0,0,1-.1.18,2.768,2.768,0,0,0-1.632.54,1.671,1.671,0,0,0-.72,1.392c0,1.164.984,1.956,2.568,1.956S-115.32,20.056-115.32,18.9Zm-2.556-8.112c1.176,0,1.956.588,1.956,1.476,0,.924-.768,1.5-1.956,1.5s-1.968-.588-1.968-1.5C-119.844,11.392-119.052,10.792-117.876,10.792Zm0,6.6a2.3,2.3,0,0,1,1.428.432,1.42,1.42,0,0,1,.48,1.08c0,.912-.72,1.5-1.908,1.5-1.224,0-1.92-.588-1.92-1.5C-119.8,18.028-119.064,17.392-117.876,17.392Zm17.22-.4c0-.06-.036-.1-.144-.132a2.088,2.088,0,0,0-.6-.1c-.108,0-.372.072-.5.072-2.016.12-3.2.168-3.612.168a1.389,1.389,0,0,0-.468-.12,5,5,0,0,0-.936-.072c-.216,0-.324.048-.324.156,0,.048.06.084.168.108a1.47,1.47,0,0,1,.8.42l.3,2.868q.054.54.252.54c.156,0,.264-.192.3-.576,1.56-.048,2.952-.072,4.224-.084.288,0,.444-.072.444-.216s-.18-.216-.5-.276q.2-1.008.324-2.34C-100.92,17.272-100.656,17.092-100.656,17Zm-1.008.216-.048,2.508a.349.349,0,0,1-.24.144,27.215,27.215,0,0,1-3.468.12l-.1-2.316a2.237,2.237,0,0,1,.012-.324C-103.248,17.26-101.964,17.224-101.664,17.212Zm-2.28-5.724a.164.164,0,0,0-.144-.156,1.725,1.725,0,0,0-.612-.12.865.865,0,0,0-.288.1,1.688,1.688,0,0,1-.324.072,23.469,23.469,0,0,1-2.46.072,9.351,9.351,0,0,1-1.2-.1c-.1-.012-.144.024-.144.084s.036.108.12.156a4.151,4.151,0,0,0,.9.4.666.666,0,0,0,.2.036.71.71,0,0,0,.2-.084,1.272,1.272,0,0,1,.54-.132c.564-.048,1.344-.072,2.112-.084a13.3,13.3,0,0,1-4.5,4.68c-.084.048-.108.1-.108.132,0,.072.012.108.06.108a.448.448,0,0,0,.144-.024,13.517,13.517,0,0,0,3.156-2.136c.144-.132.288-.264.42-.408l1.908,1.9a.591.591,0,0,0,.3.168c.12.012.18-.048.192-.18a.574.574,0,0,0-.024-.228,2.244,2.244,0,0,0-.552-.864,3.077,3.077,0,0,0-.5-.24,1.889,1.889,0,0,1-.516-.4l-.5-.456A7.509,7.509,0,0,0-104.28,11.9a.957.957,0,0,1,.18-.192C-103.992,11.6-103.944,11.524-103.944,11.488ZM-101.136,10a4.945,4.945,0,0,0-1.488-.24c-.264,0-.384.06-.384.192,0,.06.048.1.156.12a2.323,2.323,0,0,1,1.236.636v2.58c-.552.048-1.032.072-1.452.084a7.178,7.178,0,0,1-1.1-.036c-.132-.012-.2.012-.2.084a.2.2,0,0,0,.12.18,3.505,3.505,0,0,0,.84.4.492.492,0,0,0,.132.012.414.414,0,0,0,.156-.036,2.512,2.512,0,0,1,.456-.168,8.133,8.133,0,0,1,1.056-.12v2.064c0,.516.084.768.252.768s.276-.252.348-.78a10.594,10.594,0,0,0,.072-1.332V11.032c0-.048.012-.18.024-.444a.881.881,0,0,1,.024-.288A.32.32,0,0,0-101.136,10Zm7.2,7.356V16.264c.852-.024,1.836-.036,2.928-.036.528,0,1.008.036,1.4.072s.564-.072.564-.324c0-.132-.084-.216-.276-.264a3.88,3.88,0,0,0-1.092-.144.748.748,0,0,0-.372.1,3.951,3.951,0,0,1-1.272.2c-1.812.072-3.66.108-5.508.108a11.161,11.161,0,0,1-1.8-.132c-.12-.012-.18,0-.18.06a.256.256,0,0,0,.144.2,3.207,3.207,0,0,0,1.14.516.782.782,0,0,0,.216.048.51.51,0,0,0,.144-.06,3.832,3.832,0,0,1,1.128-.216c.576-.048,1.3-.084,2.148-.12v3.84c0,.6.072.9.2.9.156,0,.264-.312.36-.936A23.763,23.763,0,0,0-93.936,17.356Zm.468-6.624c0-.1-.072-.168-.2-.228a8.961,8.961,0,0,0-1.1-.36.914.914,0,0,0-.252-.036c-.2,0-.3.036-.3.132,0,.06.06.108.18.156a1.223,1.223,0,0,1,.732.636,9.674,9.674,0,0,1-4.02,3.36c-.132.06-.192.12-.192.18s.024.108.084.108a.642.642,0,0,0,.216-.048,9.383,9.383,0,0,0,3.948-2.5l3.864,1.956a.731.731,0,0,0,.336.084c.132,0,.2-.06.2-.18,0-.3-.432-.66-1.32-1.116a2.3,2.3,0,0,0-.612-.12,2.2,2.2,0,0,1-.768-.252L-94.1,11.8a5.769,5.769,0,0,0,.54-.792A.43.43,0,0,0-93.468,10.732Zm15.348,7.98a1.8,1.8,0,0,0-.672-1.452,2.387,2.387,0,0,0-1.272-.528,1.057,1.057,0,0,0,.2-.312c0-.048-.036-.1-.12-.144a1.025,1.025,0,0,0-.588-.2q-.18,0-.18.144c0,.072.288.192.288.324a.231.231,0,0,1-.12.156,2.051,2.051,0,0,0-2.256,2.016,1.885,1.885,0,0,0,.636,1.416,2.554,2.554,0,0,0,1.716.576,2.48,2.48,0,0,0,1.692-.588A1.759,1.759,0,0,0-78.12,18.712Zm-2.352-1.584a1.639,1.639,0,0,1,1.236.456,1.421,1.421,0,0,1,.444,1.092,1.363,1.363,0,0,1-.48,1.08,1.556,1.556,0,0,1-1.2.456,1.538,1.538,0,0,1-1.668-1.536,1.434,1.434,0,0,1,.468-1.092A1.647,1.647,0,0,1-80.472,17.128Zm2.532-6.816A.3.3,0,0,0-78.18,10a4.81,4.81,0,0,0-1.476-.24c-.264,0-.384.06-.384.192,0,.06.06.1.168.12a2.288,2.288,0,0,1,1.212.636v5.1c0,.672.072.984.228.984s.276-.288.36-.912a8.569,8.569,0,0,0,.1-1.152v-.66c.672-.012,1.284-.036,1.848-.048.324,0,.48-.108.48-.336a.289.289,0,0,0-.24-.276,2.117,2.117,0,0,0-1.128.012,2,2,0,0,0-.228.144,1.153,1.153,0,0,1-.732.18V11.032C-77.976,10.876-77.94,10.468-77.94,10.312Zm-4.116,1.176a.342.342,0,0,0-.2-.3,4.651,4.651,0,0,0-1.176-.444,1.076,1.076,0,0,0-.216-.024c-.168,0-.252.036-.252.12,0,.06.048.1.144.144a1.3,1.3,0,0,1,.78.78,10.629,10.629,0,0,1-3.012,4.188c-.156.132-.228.216-.228.264,0,.072.024.1.084.1a.46.46,0,0,0,.252-.12,9.41,9.41,0,0,0,2.892-2.82l2.28,2.2a.455.455,0,0,0,.312.156c.144,0,.2-.1.2-.264a.641.641,0,0,0-.06-.24,2.5,2.5,0,0,0-.756-1,2.116,2.116,0,0,0-.48-.216,2.976,2.976,0,0,1-.672-.468l-.6-.528a8.986,8.986,0,0,0,.636-1.272A.681.681,0,0,0-82.056,11.488Zm13.824,7.4a1.679,1.679,0,0,0-.66-1.392,2.641,2.641,0,0,0-1.488-.528.583.583,0,0,0,.156-.3c0-.06-.048-.1-.132-.132a1.324,1.324,0,0,0-.456-.108c-.168,0-.252.036-.252.1,0,.036.024.06.072.084q.144.072.144.18a.186.186,0,0,1-.108.18,2.614,2.614,0,0,0-1.584.528,1.649,1.649,0,0,0-.7,1.392c0,1.164.96,1.956,2.5,1.956a2.748,2.748,0,0,0,1.848-.576A1.642,1.642,0,0,0-68.232,18.892ZM-70.716,17.4c1.14-.012,1.836.612,1.836,1.5s-.7,1.464-1.836,1.464c-1.164,0-1.836-.576-1.836-1.464S-71.844,17.4-70.716,17.4Zm.888-6.48a.23.23,0,0,0-.156-.216,6.811,6.811,0,0,0-1.152-.408,1.344,1.344,0,0,0-.264-.036c-.2,0-.3.048-.3.132,0,.06.06.108.18.156a1.408,1.408,0,0,1,.732.6,8.82,8.82,0,0,1-3.8,3.18c-.132.06-.192.12-.192.18s.024.108.084.108a.886.886,0,0,0,.144-.024,9.312,9.312,0,0,0,2.6-1.308,7.973,7.973,0,0,0,1.2-1.044l3.72,1.836a.97.97,0,0,0,.324.06.171.171,0,0,0,.192-.192c.012-.264-.432-.612-1.308-1.044a1.832,1.832,0,0,0-.6-.144,2.234,2.234,0,0,1-.792-.228l-1.236-.624a7.5,7.5,0,0,0,.528-.732A.556.556,0,0,0-69.828,10.924ZM-65.46,15.4c0-.132-.084-.216-.276-.264a3.869,3.869,0,0,0-1.092-.156.77.77,0,0,0-.372.108,4.083,4.083,0,0,1-1.272.2c-1.872.072-3.72.108-5.508.108a11.183,11.183,0,0,1-1.8-.12c-.12-.024-.18-.012-.18.048a.256.256,0,0,0,.144.2,2.927,2.927,0,0,0,1.14.528q.2.036.216.036a.377.377,0,0,0,.144-.048,3.171,3.171,0,0,1,1.128-.216c1.3-.108,3.216-.168,5.76-.168.528,0,1.008.024,1.4.06S-65.46,15.664-65.46,15.4Zm6.348-3.372c0-.12-.2-.216-.588-.216-.084,0-.312.1-.528.132a9.787,9.787,0,0,1-1,.072c-.132,0-.276,0-.42-.012-.036-.108-.252-.156-.672-.156-.144,0-.312.084-.552.12a9.387,9.387,0,0,1-1.1.06,5.715,5.715,0,0,1-1.008-.084c-.132-.024-.18.036-.18.108s.036.108.132.168a2.416,2.416,0,0,0,.66.324.466.466,0,0,0,.18.024,4.214,4.214,0,0,1,1.536-.252A10.122,10.122,0,0,1-63.7,14.848a11.021,11.021,0,0,1-1.788,2.46.519.519,0,0,0-.12.144c0,.084.036.12.1.12a.24.24,0,0,0,.108-.024,9.528,9.528,0,0,0,2.148-2.412,9.054,9.054,0,0,0,1.3-2.748l.024-.024a2.5,2.5,0,0,0,.384.144.836.836,0,0,0,.228.048.3.3,0,0,0,.18-.06c.18-.144.444-.18,1.128-.192a13.8,13.8,0,0,1-3.024,6.012.307.307,0,0,0-.084.144c0,.072.036.108.1.108a.24.24,0,0,0,.108-.024A11.534,11.534,0,0,0-59.3,12.352a1.06,1.06,0,0,0,.1-.132A.533.533,0,0,0-59.112,12.028Zm2.088-1.812a.3.3,0,0,0-.252-.312,4.9,4.9,0,0,0-1.5-.24c-.24,0-.36.072-.36.2,0,.048.048.084.156.108a2.257,2.257,0,0,1,1.224.648v9.36c0,.588.072.876.2.876.156,0,.264-.276.348-.852a20.094,20.094,0,0,0,.132-2.784v-1.98c.6-.012,1.164-.036,1.668-.048.324,0,.48-.12.48-.36,0-.132-.084-.216-.24-.264a2.181,2.181,0,0,0-1.044,0,2,2,0,0,0-.228.144,1.026,1.026,0,0,1-.636.2V10.936C-57.072,10.78-57.024,10.372-57.024,10.216ZM-49.044,12c0-.084-.06-.144-.192-.18a1.465,1.465,0,0,0-.492-.108c-.156,0-.48.132-.636.144a25,25,0,0,1-2.724.084,11.3,11.3,0,0,1-1.272-.1c-.084-.012-.132.012-.132.072a.2.2,0,0,0,.12.18,3.527,3.527,0,0,0,.96.4.37.37,0,0,0,.12.012.223.223,0,0,0,.132-.048,2.043,2.043,0,0,1,.924-.192c.7-.036,1.4-.06,2.1-.048a14.527,14.527,0,0,1-4.62,5.64c-.084.06-.12.108-.12.144,0,.084.024.12.084.12a.332.332,0,0,0,.156-.036,13.585,13.585,0,0,0,3.648-3.048l2.1,2.328a.435.435,0,0,0,.288.18c.156,0,.228-.072.228-.216a2.168,2.168,0,0,0-.684-1.3,1.115,1.115,0,0,0-.4-.2,1.4,1.4,0,0,1-.528-.348l-.756-.78a10.454,10.454,0,0,0,1.356-2.316.825.825,0,0,1,.216-.2C-49.092,12.112-49.044,12.052-49.044,12Zm2.724-1.692A.29.29,0,0,0-46.548,10a4.979,4.979,0,0,0-1.512-.24c-.252,0-.372.06-.372.192,0,.06.06.1.168.12a2.283,2.283,0,0,1,1.224.636V20.14c0,.588.072.876.2.876.156,0,.264-.276.348-.852a22.484,22.484,0,0,0,.132-2.784V11.032C-46.356,10.888-46.32,10.468-46.32,10.312Zm13.476,8.544a1.7,1.7,0,0,0-.684-1.368,2.613,2.613,0,0,0-1.392-.528.816.816,0,0,0,.2-.288c0-.048-.048-.1-.144-.156a1.083,1.083,0,0,0-.6-.18c-.12,0-.18.036-.18.12s.3.192.3.312a.355.355,0,0,1-.132.168,2.649,2.649,0,0,0-1.584.54,1.642,1.642,0,0,0-.7,1.38,1.66,1.66,0,0,0,.684,1.344,2.585,2.585,0,0,0,1.752.564,2.809,2.809,0,0,0,1.788-.54A1.688,1.688,0,0,0-32.844,18.856Zm-1.968-7.944A.305.305,0,0,0-35,10.6a4.258,4.258,0,0,0-1.272-.24c-.228,0-.348.048-.348.156,0,.06.06.1.168.132a1.612,1.612,0,0,1,.948.528v4.212c0,.516.072.768.24.768s.276-.252.36-.78a9.231,9.231,0,0,0,.072-1.332L-33.312,14v2.34c0,.492.072.756.228.756s.288-.264.36-.768a8.538,8.538,0,0,0,.072-1.332v-4.02a2.689,2.689,0,0,1,.036-.372,1.772,1.772,0,0,0,.012-.252.305.305,0,0,0-.216-.312,5,5,0,0,0-1.4-.276c-.252,0-.372.06-.372.192,0,.048.06.084.168.108a2.026,2.026,0,0,1,1.116.636v2.928l-1.524.06V11.176C-34.824,11.02-34.812,10.936-34.812,10.912Zm1.308,7.92A1.589,1.589,0,0,1-35.292,20.3c-1.056,0-1.776-.6-1.776-1.464a1.6,1.6,0,0,1,1.776-1.488A1.6,1.6,0,0,1-33.5,18.832Zm-3.132-6.252c0-.06-.06-.12-.18-.156a1.8,1.8,0,0,0-.564-.1,1.119,1.119,0,0,0-.288.084,1.415,1.415,0,0,1-.324.072c-.72.06-1.356.1-1.908.1-.432-.012-.852-.036-1.26-.084a.2.2,0,0,0-.132.072.181.181,0,0,0,.108.168,2.852,2.852,0,0,0,1.056.408.4.4,0,0,0,.18-.048,2.615,2.615,0,0,1,.888-.2c.648-.06,1.092-.084,1.332-.084a11.848,11.848,0,0,1-3.84,3.8c-.072.06-.12.108-.12.144,0,.072.024.12.072.12a.241.241,0,0,0,.156-.048,12.688,12.688,0,0,0,3.12-2.136l1.668,1.608a.575.575,0,0,0,.336.192c.144-.012.216-.1.2-.264a1.275,1.275,0,0,0-.036-.168,2.257,2.257,0,0,0-.468-.732c-.108-.132-.648-.24-1.044-.624l-.36-.312A7.176,7.176,0,0,0-36.972,13a1.7,1.7,0,0,1,.192-.2Q-36.636,12.67-36.636,12.58Zm-.9-1.188c0-.18-.108-.264-.348-.264a9.555,9.555,0,0,1-2.076-.156,1.686,1.686,0,0,0-.216-.024q-.144,0-.144.072a.208.208,0,0,0,.1.168,2.325,2.325,0,0,0,.54.42,1.153,1.153,0,0,0,.408.12,2.848,2.848,0,0,1,.288-.012q.45-.036,1.116-.036C-37.644,11.668-37.536,11.572-37.536,11.392ZM-22.6,10.3a.285.285,0,0,0-.228-.3,5.083,5.083,0,0,0-1.5-.24c-.264,0-.384.06-.384.192,0,.06.06.1.168.12a2.37,2.37,0,0,1,1.236.636v2.568a10.315,10.315,0,0,1-1.356.108,7.034,7.034,0,0,1-1.1-.06c-.132-.024-.2.012-.2.06,0,.072.036.12.12.168a1.914,1.914,0,0,0,.984.4.415.415,0,0,0,.144-.036c.132-.048.288-.084.48-.132a8.247,8.247,0,0,1,.936-.1v2.244c-.84.072-1.452.12-1.848.12a7.531,7.531,0,0,1-1-.048c-.144-.024-.216,0-.216.048a.146.146,0,0,0,.084.144,2.075,2.075,0,0,0,1.008.432.32.32,0,0,0,.144-.036,1.947,1.947,0,0,1,.48-.132,11.093,11.093,0,0,1,1.344-.108V20.14c0,.6.06.888.2.888s.252-.288.336-.864a22.76,22.76,0,0,0,.132-2.784V11.032C-22.632,10.888-22.6,10.48-22.6,10.3Zm-2.94,1.656c0-.132-.288-.228-.732-.228-.1,0-.3.108-.54.144-.924.084-1.884.144-2.916.144a5.77,5.77,0,0,1-1.092-.084c-.108-.012-.156.012-.156.108,0,.048.048.108.132.168a4.7,4.7,0,0,0,.9.408,1.05,1.05,0,0,0,.192.024.3.3,0,0,0,.18-.084,1.8,1.8,0,0,1,.612-.144c.516-.06,1.3-.12,2.376-.156A11.294,11.294,0,0,1-28.3,15.28a13.4,13.4,0,0,1-2.772,2.7c-.12.072-.168.144-.168.18,0,.084.036.132.108.132a.512.512,0,0,0,.252-.1,11.864,11.864,0,0,0,5.052-5.8,1.531,1.531,0,0,1,.144-.216A.33.33,0,0,0-25.536,11.956ZM-12.9,10.864q0-.126-.18-.18a1.987,1.987,0,0,0-.612-.084c-.192,0-.324.108-.576.12-1.908.1-3.18.132-3.8.12a8.6,8.6,0,0,1-1.44-.144c-.156-.024-.228.012-.228.108,0,.06.06.12.168.18a9.189,9.189,0,0,0,.936.4,1.284,1.284,0,0,0,.276.06.506.506,0,0,0,.216-.048,3.206,3.206,0,0,1,1.176-.24c1.008-.048,1.944-.072,2.772-.072a18.49,18.49,0,0,1-6.12,3.552c-.108.036-.156.072-.156.132s.036.108.1.108a.538.538,0,0,0,.132-.012,18.1,18.1,0,0,0,4.272-1.668l3.876,1.14a.969.969,0,0,0,.228.036c.168,0,.252-.06.252-.216,0-.108-.072-.2-.228-.288a3.96,3.96,0,0,0-1.08-.444,2.365,2.365,0,0,0-.672-.036,3.405,3.405,0,0,1-.54-.108l-1.38-.348a12.362,12.362,0,0,0,2.208-1.716.575.575,0,0,1,.132-.1C-13,11.02-12.9,10.936-12.9,10.864Zm2.16,5.148c0-.132-.084-.216-.276-.276a4.373,4.373,0,0,0-1.092-.144.77.77,0,0,0-.372.108,4.024,4.024,0,0,1-1.272.192c-1.812.072-3.66.108-5.508.108a10.035,10.035,0,0,1-1.8-.12c-.12-.024-.18-.012-.18.048a.29.29,0,0,0,.144.216,3.6,3.6,0,0,0,1.14.516.633.633,0,0,0,.216.036.377.377,0,0,0,.144-.048,3.171,3.171,0,0,1,1.128-.216c.576-.048,1.3-.084,2.148-.108v3.8c0,.6.06.9.192.9q.234,0,.36-.936a23.576,23.576,0,0,0,.132-2.736V16.3c.852-.012,1.836-.024,2.928-.024.528,0,1.008.024,1.4.06S-10.74,16.276-10.74,16.012Zm8.76-5.7A.29.29,0,0,0-2.208,10,4.979,4.979,0,0,0-3.72,9.76c-.252,0-.372.06-.372.192,0,.06.06.1.168.12a2.283,2.283,0,0,1,1.224.636v5.148a24.393,24.393,0,0,1-2.676.732c-1.416.3-2.4.456-2.976.516-.18.012-.264-.1-.264-.3v-3.72c0-.036,0-.192.012-.468.012-.24-.048-.36-.18-.384a8.495,8.495,0,0,0-1.416-.108c-.168,0-.384.108-.384.2,0,.072.048.12.156.132.66.12,1.032.276,1.116.456l.024,3.72a1.337,1.337,0,0,0,.144.756.759.759,0,0,0,.468.36,3.042,3.042,0,0,0,.612-.036A24.379,24.379,0,0,0-5.352,17.1,23.856,23.856,0,0,0-2.7,16.132V20.14c0,.588.072.876.2.876.156,0,.264-.276.348-.852a22.211,22.211,0,0,0,.132-2.784V11.032C-2.016,10.888-1.98,10.468-1.98,10.312ZM-173.556,30.14a.287.287,0,0,0-.192-.312,4.277,4.277,0,0,0-1.272-.252c-.24,0-.348.06-.348.168,0,.072.048.108.168.132a1.516,1.516,0,0,1,.96.54V35.18a15,15,0,0,1-1.788.456c-1.032.18-1.776.288-2.244.324-.18.012-.264-.072-.264-.276V32.192c0-.036,0-.192.012-.468.012-.228-.048-.348-.18-.372a7.445,7.445,0,0,0-1.26-.108c-.156,0-.384.12-.384.216,0,.06.06.1.156.144.588.144.912.288.96.42l.024,3.468a1.291,1.291,0,0,0,.156.756.759.759,0,0,0,.468.36,2.108,2.108,0,0,0,.66-.036c.708-.156,1.32-.3,1.836-.456a13.843,13.843,0,0,0,1.848-.612v2.76c0,.552.06.816.18.816.216,0,.36-.576.42-1.74.036-.708.048-1.26.048-1.644v-1.56l1.62-.024v4.872c0,.7.06,1.032.192,1.032s.336-.516.4-1.236c.048-.684.06-1.4.06-2.148v-6.66a2.674,2.674,0,0,1,.036-.384,1.627,1.627,0,0,0,.024-.24.305.305,0,0,0-.216-.312,4.574,4.574,0,0,0-1.392-.276c-.252,0-.384.06-.384.192,0,.048.048.084.156.108a2.02,2.02,0,0,1,1.128.636V33.68l-1.62.024V30.776a2.647,2.647,0,0,1,.012-.372C-173.568,30.26-173.556,30.164-173.556,30.14Zm14.9,5.28a.235.235,0,0,0-.168-.24,3.864,3.864,0,0,0-1.212-.216c-.24,0-.36.036-.36.12a.191.191,0,0,0,.132.18,1.863,1.863,0,0,1,.876.468l.012,1.188-3.756.048.012-.6c0-.144.024-.336.024-.4,0-.18-.1-.276-.3-.312a8.893,8.893,0,0,0-1.128-.12c-.132,0-.324.084-.324.18s.048.132.144.156a1.319,1.319,0,0,1,.864.4l.048,3.192c.012.36.072.528.192.528.228,0,.372-.216.432-.66l3.792-.06c0,.288.12.552.216.552.192,0,.312-.192.384-.6a3.341,3.341,0,0,0,.072-.7l-.012-2.436C-158.712,35.936-158.652,35.564-158.652,35.42Zm-2.616-5.076c0-.072-.048-.132-.192-.168a2.059,2.059,0,0,0-.552-.084.772.772,0,0,0-.288.084,1.188,1.188,0,0,1-.324.06,23.589,23.589,0,0,1-2.46.072,7.535,7.535,0,0,1-1.2-.084c-.108-.012-.156.012-.156.072s.036.12.132.168a3.358,3.358,0,0,0,.888.384.666.666,0,0,0,.2.036.442.442,0,0,0,.192-.084,1.211,1.211,0,0,1,.564-.132c.528-.048,1.236-.072,2.1-.072a12.315,12.315,0,0,1-4.476,4.476c-.072.048-.12.1-.12.132,0,.1.036.132.084.132a.242.242,0,0,0,.132-.036,12.905,12.905,0,0,0,3.576-2.412l2,1.812a.455.455,0,0,0,.312.156c.132-.012.192-.084.18-.228a.561.561,0,0,0-.036-.2,2.353,2.353,0,0,0-.612-.864,3.69,3.69,0,0,0-.5-.216,1.616,1.616,0,0,1-.564-.36l-.5-.4a8.392,8.392,0,0,0,1.284-1.824.942.942,0,0,1,.2-.192C-161.3,30.464-161.268,30.392-161.268,30.344Zm1.9,8.52-3.768.072.012-1.572,3.756-.048ZM-158.8,29a4.979,4.979,0,0,0-1.512-.24c-.24,0-.36.06-.36.192,0,.06.048.1.156.12a2.323,2.323,0,0,1,1.236.636v4.38c0,.5.084.768.24.768s.288-.264.36-.78a10.8,10.8,0,0,0,.072-1.32V30.032c0-.048.012-.18.024-.444a.881.881,0,0,1,.024-.288A.32.32,0,0,0-158.8,29Zm10.452,2.232c0-.06-.036-.108-.12-.12a2.8,2.8,0,0,0-.624-.108.546.546,0,0,0-.24.06.89.89,0,0,1-.336.1c-1.428.06-2.412.084-2.94.072a1.55,1.55,0,0,0-.42-.12,6.11,6.11,0,0,0-.924-.072c-.2,0-.3.048-.3.156,0,.036.048.084.168.12a1.472,1.472,0,0,1,.684.42l.312,4.3c.036.456.1.672.18.672.2,0,.324-.252.36-.72,1.488-.024,2.664-.036,3.54-.048.3-.012.444-.06.444-.2,0-.108-.168-.2-.516-.276.036-.144.108-.756.252-1.836s.216-1.74.24-1.992C-148.572,31.484-148.332,31.34-148.344,31.232Zm-1.008.276-.168,3.864c-.132.252-1.116.336-3.012.264l-.108-3.7c0-.1.012-.216.024-.36C-150.876,31.52-149.8,31.5-149.352,31.508Zm3.492-2.2A.3.3,0,0,0-146.1,29a4.81,4.81,0,0,0-1.476-.24c-.264,0-.384.06-.384.192,0,.06.06.1.168.12a2.289,2.289,0,0,1,1.212.636V39.14c0,.588.06.876.2.876s.264-.276.348-.852a22.487,22.487,0,0,0,.132-2.784V34.208c.672-.012,1.284-.024,1.848-.036.324-.012.48-.12.48-.36a.289.289,0,0,0-.24-.276,2.117,2.117,0,0,0-1.128.012,2,2,0,0,0-.228.144,1.164,1.164,0,0,1-.732.192V30.032C-145.9,29.888-145.86,29.468-145.86,29.312Zm8.4,5.676q0-.108-.072-.108a5.015,5.015,0,0,0-.96.12c-.564.108-.888.18-.96.192-.96.1-1.632.156-2.028.168-.192.012-.288-.084-.288-.3V33.38a1.237,1.237,0,0,1,.012-.228q1.926-.126,3.06-.18c.168-.012.264-.084.264-.228,0-.12-.168-.2-.48-.264a12.366,12.366,0,0,0,.4-1.848.406.406,0,0,1,.168-.2.209.209,0,0,0,.108-.168.145.145,0,0,0-.072-.108,1.82,1.82,0,0,0-.78-.12.546.546,0,0,0-.24.06,1.158,1.158,0,0,1-.288.048,21.222,21.222,0,0,1-2.22.084,8.985,8.985,0,0,1-1.272-.072c-.108-.012-.156.012-.156.072a.212.212,0,0,0,.108.18,2.988,2.988,0,0,0,1.14.444,1.257,1.257,0,0,0,.3-.1,8.309,8.309,0,0,1,2.412-.252,18.282,18.282,0,0,1-.06,1.98.184.184,0,0,1-.144.108c-.672.072-1.38.108-2.148.12-.06,0-.168-.048-.528-.1s-.756-.06-1.116-.06c-.072,0-.228.084-.228.144a.126.126,0,0,0,.1.12,2.782,2.782,0,0,1,.96.336V34.9c0,.636.264,1.068.612,1.1a2.64,2.64,0,0,0,.72-.036c.828-.144,1.416-.252,1.776-.336a8.808,8.808,0,0,0,1.764-.516C-137.508,35.084-137.46,35.036-137.46,34.988Zm2.616-5.676a.3.3,0,0,0-.24-.312,4.962,4.962,0,0,0-1.5-.24c-.252,0-.372.06-.372.192,0,.06.048.1.156.12a2.4,2.4,0,0,1,1.236.624v1.74a14.364,14.364,0,0,1-1.68.108,7.744,7.744,0,0,1-1.008-.06c-.132-.012-.2.012-.2.072s.036.12.12.168a3.488,3.488,0,0,0,.828.36.45.45,0,0,0,.12.012.414.414,0,0,0,.156-.036c.2-.06.36-.1.468-.12a7.045,7.045,0,0,1,1.2-.084v1.812a14.356,14.356,0,0,1-1.74.1,8.148,8.148,0,0,1-1.02-.06c-.132-.012-.2.012-.2.072s.036.108.12.156a3.529,3.529,0,0,0,.828.36.619.619,0,0,0,.132.024.32.32,0,0,0,.144-.036,2.015,2.015,0,0,1,.48-.132,8.57,8.57,0,0,1,1.26-.072v2.172c0,.672.072,1.008.228,1.008s.264-.336.348-1a12.421,12.421,0,0,0,.1-1.572V30.032C-134.892,29.876-134.844,29.468-134.844,29.312Zm.876,9.7c0-.156-.084-.24-.264-.276a4.7,4.7,0,0,0-1.02-.048.71.71,0,0,0-.372.12,2.76,2.76,0,0,1-1.2.2c-.8.036-1.584.036-2.316.012-.24-.012-.36-.156-.36-.42V37.292c0-.072,0-.168.012-.3a.217.217,0,0,0-.18-.252,7.759,7.759,0,0,0-1.368-.1c-.156,0-.384.108-.384.216a.2.2,0,0,0,.024.06,2.5,2.5,0,0,0,.576.18c.36.084.576.192.636.324l.012,1.092a1.218,1.218,0,0,0,.048.408.857.857,0,0,0,.192.216,1.519,1.519,0,0,0,1.008.228c1.236-.036,2.736-.048,4.512-.036C-134.112,39.344-133.968,39.236-133.968,39.008Zm6.936-6.276a2.039,2.039,0,0,0-.708-1.632,2.581,2.581,0,0,0-1.332-.576.789.789,0,0,0,.192-.36.277.277,0,0,0-.144-.24,1.662,1.662,0,0,0-.744-.168c-.132,0-.216.048-.216.108s.024.084.1.12c.156.084.24.18.24.276a.28.28,0,0,1-.12.24,2.538,2.538,0,0,0-1.548.612,2.006,2.006,0,0,0-.768,1.62,2.054,2.054,0,0,0,.72,1.62,2.683,2.683,0,0,0,1.812.624,2.715,2.715,0,0,0,1.812-.612A2.108,2.108,0,0,0-127.032,32.732Zm2.568-3.42A.3.3,0,0,0-124.7,29a4.962,4.962,0,0,0-1.5-.24c-.252,0-.372.06-.372.192,0,.06.048.1.156.12a2.323,2.323,0,0,1,1.236.636v6.156c-.7.132-1.8.288-3.276.48-1,.132-2.088.228-3.3.288a6.4,6.4,0,0,1-1.428-.1c-.132-.024-.2,0-.2.084a.257.257,0,0,0,.144.216,4.343,4.343,0,0,0,1.2.54c.1.012.168.024.2.024a.63.63,0,0,0,.276-.084,1.442,1.442,0,0,1,.42-.144c.888-.108,1.848-.228,2.844-.384a30.215,30.215,0,0,0,3.12-.624V39.14c0,.588.06.876.2.876s.264-.276.336-.852a22.483,22.483,0,0,0,.132-2.784V30.032C-124.512,29.888-124.464,29.468-124.464,29.312Zm-5.076,1.728a1.815,1.815,0,0,1,1.308.48,1.625,1.625,0,0,1,.516,1.212,1.583,1.583,0,0,1-.528,1.224,1.746,1.746,0,0,1-1.3.492,1.784,1.784,0,0,1-1.284-.5,1.606,1.606,0,0,1-.516-1.212,1.659,1.659,0,0,1,.5-1.212A1.805,1.805,0,0,1-129.54,31.04Zm14.1-1.164c0-.036-.024-.072-.072-.12a.787.787,0,0,0-.324-.108,2.544,2.544,0,0,0-.384-.06.813.813,0,0,0-.312.1,1.029,1.029,0,0,1-.336.06,11.2,11.2,0,0,1-1.26.06,5.476,5.476,0,0,1-.948-.084c-.156-.024-.228,0-.228.108,0,.06.048.132.168.192a2.967,2.967,0,0,0,.648.312.758.758,0,0,0,.252.06.352.352,0,0,0,.192-.048,1.52,1.52,0,0,1,.564-.156c.408-.036.732-.048.96-.048a14.226,14.226,0,0,1-.612,3.336c-.4.012-.792,0-1.188,0a9.768,9.768,0,0,1-1.8-.132c-.12-.024-.18-.012-.18.048a.257.257,0,0,0,.144.216,3.442,3.442,0,0,0,1.152.528.81.81,0,0,0,.2.036.435.435,0,0,0,.156-.06,3.744,3.744,0,0,1,1.128-.216c.576-.048,1.308-.084,2.184-.108v1.7a2.77,2.77,0,0,0,.024.492c-.564.024-1.1.024-1.6.024a2.022,2.022,0,0,0-.456-.12,4.274,4.274,0,0,0-.96-.1c-.2,0-.312.048-.312.168,0,.06.06.1.18.12a1.375,1.375,0,0,1,.792.408l.288,2.82c.036.36.12.54.228.54.156,0,.264-.18.324-.564,1.38-.036,2.772-.06,4.176-.06.3,0,.444-.072.444-.192,0-.156-.156-.252-.492-.3.1-.456.216-1.212.372-2.292.036-.156.276-.3.276-.408,0-.06-.048-.108-.156-.144a1.678,1.678,0,0,0-.588-.1c-.108,0-.372.1-.5.1-.528.036-1.044.06-1.524.084a2.379,2.379,0,0,0,.108-.528,10.865,10.865,0,0,0,.06-1.164v-.516c.84-.012,1.812-.024,2.892-.024.564,0,1.044.024,1.44.06a.565.565,0,0,0,.444-.084.306.306,0,0,0,.072-.228c0-.144-.1-.228-.288-.288a4.642,4.642,0,0,0-1.164-.132.7.7,0,0,0-.228.036,5.212,5.212,0,0,1-.852.216,14.011,14.011,0,0,0,.756-3.264c.144-.108.216-.2.216-.264,0-.108-.072-.168-.2-.2a4.048,4.048,0,0,0-.564-.1.758.758,0,0,0-.312.1,1.219,1.219,0,0,1-.348.06c-.408.036-.852.072-1.188.072a4.9,4.9,0,0,1-.948-.072c-.144-.036-.216,0-.216.084s.048.144.144.2a3.2,3.2,0,0,0,.648.312,1.087,1.087,0,0,0,.264.06.352.352,0,0,0,.192-.048,2.941,2.941,0,0,1,.576-.156c.384-.036.684-.06.912-.06a20.112,20.112,0,0,1-.3,3.312c-1.3.06-2.652.108-4.068.12a8.444,8.444,0,0,0,1.1-3.324C-115.524,30.044-115.44,29.96-115.44,29.876Zm2.316,8.82c-.144.228-1.368.312-3.7.264l-.072-2.3a1.38,1.38,0,0,1,.012-.324c1.608-.06,2.892-.1,3.84-.1Zm9.168-4.944A2.235,2.235,0,0,0-104.7,32a2.58,2.58,0,0,0-1.38-.636.911.911,0,0,0,.18-.348.272.272,0,0,0-.132-.228,1.255,1.255,0,0,0-.684-.192c-.132,0-.192.036-.192.1s.024.084.084.12a.373.373,0,0,1,.216.312.358.358,0,0,1-.1.2,2.72,2.72,0,0,0-1.74.648,2.249,2.249,0,0,0-.768,1.776,2.262,2.262,0,0,0,.756,1.752,2.716,2.716,0,0,0,1.86.66,2.777,2.777,0,0,0,1.872-.672A2.226,2.226,0,0,0-103.956,33.752Zm-.7-.024a1.757,1.757,0,0,1-.552,1.332,1.845,1.845,0,0,1-1.368.528,1.882,1.882,0,0,1-1.368-.528,1.757,1.757,0,0,1-.552-1.332,1.713,1.713,0,0,1,.552-1.32,1.892,1.892,0,0,1,1.368-.54,1.826,1.826,0,0,1,1.368.528A1.7,1.7,0,0,1-104.652,33.728Zm3.612-4.416a.29.29,0,0,0-.228-.312,4.979,4.979,0,0,0-1.512-.24c-.252,0-.372.06-.372.192,0,.06.06.1.168.12a2.283,2.283,0,0,1,1.224.636V39.14c0,.588.072.876.2.876.156,0,.264-.276.348-.852a22.484,22.484,0,0,0,.132-2.784V30.032C-101.076,29.888-101.04,29.468-101.04,29.312ZM-87.456,36c0-.06-.036-.1-.144-.132a2.088,2.088,0,0,0-.6-.1c-.108,0-.372.072-.5.072-2.016.12-3.2.168-3.612.168a1.389,1.389,0,0,0-.468-.12,5,5,0,0,0-.936-.072c-.216,0-.324.048-.324.156,0,.048.06.084.168.108a1.47,1.47,0,0,1,.8.42l.3,2.868q.054.54.252.54c.156,0,.264-.192.3-.576,1.56-.048,2.952-.072,4.224-.084.288,0,.444-.072.444-.216s-.18-.216-.5-.276q.2-1.008.324-2.34C-87.72,36.272-87.456,36.092-87.456,36Zm-1.008.216-.048,2.508a.349.349,0,0,1-.24.144,27.215,27.215,0,0,1-3.468.12l-.1-2.316a2.237,2.237,0,0,1,.012-.324C-90.048,36.26-88.764,36.224-88.464,36.212Zm-2.28-5.724a.164.164,0,0,0-.144-.156,1.725,1.725,0,0,0-.612-.12.865.865,0,0,0-.288.1,1.688,1.688,0,0,1-.324.072,23.469,23.469,0,0,1-2.46.072,9.351,9.351,0,0,1-1.2-.1c-.1-.012-.144.024-.144.084s.036.108.12.156a4.151,4.151,0,0,0,.9.4.666.666,0,0,0,.2.036.71.71,0,0,0,.2-.084,1.272,1.272,0,0,1,.54-.132c.564-.048,1.344-.072,2.112-.084a13.3,13.3,0,0,1-4.5,4.68c-.084.048-.108.1-.108.132,0,.072.012.108.06.108a.448.448,0,0,0,.144-.024,13.517,13.517,0,0,0,3.156-2.136c.144-.132.288-.264.42-.408l1.908,1.9a.591.591,0,0,0,.3.168c.12.012.18-.048.192-.18a.574.574,0,0,0-.024-.228,2.244,2.244,0,0,0-.552-.864,3.077,3.077,0,0,0-.5-.24,1.889,1.889,0,0,1-.516-.4l-.5-.456A7.509,7.509,0,0,0-91.08,30.9a.957.957,0,0,1,.18-.192C-90.792,30.6-90.744,30.524-90.744,30.488ZM-87.936,29a4.945,4.945,0,0,0-1.488-.24c-.264,0-.384.06-.384.192,0,.06.048.1.156.12a2.323,2.323,0,0,1,1.236.636v2.58c-.552.048-1.032.072-1.452.084a7.178,7.178,0,0,1-1.1-.036c-.132-.012-.2.012-.2.084a.2.2,0,0,0,.12.18,3.505,3.505,0,0,0,.84.4.492.492,0,0,0,.132.012.414.414,0,0,0,.156-.036,2.512,2.512,0,0,1,.456-.168,8.133,8.133,0,0,1,1.056-.12v2.064c0,.516.084.768.252.768s.276-.252.348-.78a10.594,10.594,0,0,0,.072-1.332V30.032c0-.048.012-.18.024-.444A.881.881,0,0,1-87.7,29.3.32.32,0,0,0-87.936,29Zm10.86,7c0-.06-.036-.1-.144-.132a2.088,2.088,0,0,0-.6-.1c-.108,0-.372.072-.5.072-2.016.12-3.2.168-3.612.168a1.389,1.389,0,0,0-.468-.12,5,5,0,0,0-.936-.072c-.216,0-.324.048-.324.156,0,.048.06.084.168.108a1.47,1.47,0,0,1,.8.42l.3,2.868q.054.54.252.54c.156,0,.264-.192.3-.576,1.56-.048,2.952-.072,4.224-.084.288,0,.444-.072.444-.216s-.18-.216-.5-.276q.2-1.008.324-2.34C-77.34,36.272-77.076,36.092-77.076,36Zm-1.008.216-.048,2.508a.349.349,0,0,1-.24.144,27.215,27.215,0,0,1-3.468.12l-.1-2.316a2.237,2.237,0,0,1,.012-.324C-79.668,36.26-78.384,36.224-78.084,36.212Zm-2.28-5.724a.164.164,0,0,0-.144-.156,1.725,1.725,0,0,0-.612-.12.865.865,0,0,0-.288.1,1.688,1.688,0,0,1-.324.072,23.469,23.469,0,0,1-2.46.072,9.351,9.351,0,0,1-1.2-.1c-.1-.012-.144.024-.144.084s.036.108.12.156a4.151,4.151,0,0,0,.9.4.666.666,0,0,0,.2.036.71.71,0,0,0,.2-.084,1.272,1.272,0,0,1,.54-.132c.564-.048,1.344-.072,2.112-.084a13.3,13.3,0,0,1-4.5,4.68c-.084.048-.108.1-.108.132,0,.072.012.108.06.108a.448.448,0,0,0,.144-.024A13.517,13.517,0,0,0-82.7,33.488c.144-.132.288-.264.42-.408l1.908,1.9a.591.591,0,0,0,.3.168c.12.012.18-.048.192-.18a.574.574,0,0,0-.024-.228,2.244,2.244,0,0,0-.552-.864,3.077,3.077,0,0,0-.5-.24,1.889,1.889,0,0,1-.516-.4l-.5-.456A7.509,7.509,0,0,0-80.7,30.9a.957.957,0,0,1,.18-.192C-80.412,30.6-80.364,30.524-80.364,30.488ZM-77.556,29a4.945,4.945,0,0,0-1.488-.24c-.264,0-.384.06-.384.192,0,.06.048.1.156.12a2.323,2.323,0,0,1,1.236.636v2.58c-.552.048-1.032.072-1.452.084a7.178,7.178,0,0,1-1.1-.036c-.132-.012-.2.012-.2.084a.2.2,0,0,0,.12.18,3.505,3.505,0,0,0,.84.4.492.492,0,0,0,.132.012.414.414,0,0,0,.156-.036,2.512,2.512,0,0,1,.456-.168,8.133,8.133,0,0,1,1.056-.12v2.064c0,.516.084.768.252.768s.276-.252.348-.78a10.591,10.591,0,0,0,.072-1.332V30.032c0-.048.012-.18.024-.444a.881.881,0,0,1,.024-.288A.32.32,0,0,0-77.556,29Zm12.816.312A.3.3,0,0,0-64.98,29a4.81,4.81,0,0,0-1.476-.24c-.264,0-.384.06-.384.192,0,.06.06.1.168.12a2.288,2.288,0,0,1,1.212.636V39.14c0,.588.06.876.2.876s.264-.276.348-.852a22.483,22.483,0,0,0,.132-2.784V34.22c.672-.012,1.284-.036,1.848-.048.324,0,.48-.108.48-.348a.289.289,0,0,0-.24-.276,2.117,2.117,0,0,0-1.128.012,1.148,1.148,0,0,0-.228.132,1.1,1.1,0,0,1-.732.2V30.032C-64.776,29.888-64.74,29.468-64.74,29.312Zm-2.616,1.7c0-.144-.276-.24-.72-.24-.1,0-.312.108-.552.144a27.808,27.808,0,0,1-2.928.144,7.46,7.46,0,0,1-1.092-.072c-.108-.024-.156.012-.156.1,0,.048.048.108.144.168a4.944,4.944,0,0,0,.888.408,1.2,1.2,0,0,0,.192.024.35.35,0,0,0,.18-.072,1.619,1.619,0,0,1,.6-.156c.5-.06,1.32-.12,2.4-.156a12.238,12.238,0,0,1-4.512,5.712c-.1.1-.144.144-.144.168,0,.084.036.12.1.12a.456.456,0,0,0,.216-.072,11.184,11.184,0,0,0,5.112-5.784,1.531,1.531,0,0,1,.144-.216A.36.36,0,0,0-67.356,31.016Zm11.064.012c0-.12-.2-.216-.588-.216-.084,0-.312.1-.528.132a9.786,9.786,0,0,1-1,.072c-.132,0-.276,0-.42-.012-.036-.108-.252-.156-.672-.156-.144,0-.312.084-.552.12a9.386,9.386,0,0,1-1.1.06,5.715,5.715,0,0,1-1.008-.084c-.132-.024-.18.036-.18.108s.036.108.132.168a2.416,2.416,0,0,0,.66.324.466.466,0,0,0,.18.024,4.214,4.214,0,0,1,1.536-.252,10.122,10.122,0,0,1-1.044,2.532,11.021,11.021,0,0,1-1.788,2.46.519.519,0,0,0-.12.144c0,.084.036.12.1.12a.24.24,0,0,0,.108-.024,9.528,9.528,0,0,0,2.148-2.412,9.054,9.054,0,0,0,1.3-2.748l.024-.024a2.5,2.5,0,0,0,.384.144.836.836,0,0,0,.228.048.3.3,0,0,0,.18-.06c.18-.144.444-.18,1.128-.192a13.8,13.8,0,0,1-3.024,6.012.307.307,0,0,0-.084.144c0,.072.036.108.1.108a.24.24,0,0,0,.108-.024,11.534,11.534,0,0,0,3.612-6.192,1.061,1.061,0,0,0,.1-.132A.533.533,0,0,0-56.292,31.028Zm2.088-1.812a.3.3,0,0,0-.252-.312,4.9,4.9,0,0,0-1.5-.24c-.24,0-.36.072-.36.2,0,.048.048.084.156.108a2.257,2.257,0,0,1,1.224.648v9.36c0,.588.072.876.2.876.156,0,.264-.276.348-.852a20.094,20.094,0,0,0,.132-2.784v-1.98c.6-.012,1.164-.036,1.668-.048.324,0,.48-.12.48-.36,0-.132-.084-.216-.24-.264a2.181,2.181,0,0,0-1.044,0,2,2,0,0,0-.228.144,1.026,1.026,0,0,1-.636.2V29.936C-54.252,29.78-54.2,29.372-54.2,29.216Zm6.12.468c0-.048-.048-.1-.156-.156a1.2,1.2,0,0,0-.54-.132c-.168,0-.252.036-.252.1a.109.109,0,0,0,.048.1c.144.1.228.192.216.276a.245.245,0,0,1-.144.18,2.622,2.622,0,0,0-1.56.564,1.761,1.761,0,0,0-.7,1.428,1.758,1.758,0,0,0,.684,1.44,2.749,2.749,0,0,0,1.752.54,2.866,2.866,0,0,0,1.776-.528,1.8,1.8,0,0,0,.672-1.452,1.738,1.738,0,0,0-.7-1.416,2.424,2.424,0,0,0-1.3-.54A.763.763,0,0,0-48.084,29.684Zm4.728-.372A.29.29,0,0,0-43.584,29a4.962,4.962,0,0,0-1.5-.24c-.252,0-.372.06-.372.192,0,.06.048.1.156.12a2.323,2.323,0,0,1,1.236.636v6.408c-.408.06-1.02.12-1.824.168a7.393,7.393,0,0,1-.972.024c-.12-.012-.2.024-.2.072a.237.237,0,0,0,.144.168,3.607,3.607,0,0,0,.84.324.45.45,0,0,0,.132.012.286.286,0,0,0,.144-.048,1.65,1.65,0,0,1,.468-.168,10.88,10.88,0,0,1,1.272-.144V39.14c0,.588.06.876.2.876s.264-.276.336-.852a22.484,22.484,0,0,0,.132-2.784V30.032C-43.392,29.888-43.356,29.468-43.356,29.312Zm-3.6,2.736a1.372,1.372,0,0,1-.516,1.1,1.839,1.839,0,0,1-1.236.42,1.818,1.818,0,0,1-1.236-.42,1.362,1.362,0,0,1-.5-1.1,1.3,1.3,0,0,1,.516-1.056,1.839,1.839,0,0,1,1.224-.432,1.848,1.848,0,0,1,1.236.432A1.329,1.329,0,0,1-46.956,32.048Zm1.8,2.748c.168-.048.252-.108.252-.192,0-.06-.048-.084-.144-.084a.37.37,0,0,0-.108.012c-1,.192-1.74.312-2.268.372-1.32.168-2.424.276-3.324.324a7.1,7.1,0,0,1-1.44-.084c-.132-.024-.192,0-.192.084,0,.132.18.276.576.456a4.2,4.2,0,0,0,.768.3,1.337,1.337,0,0,0,.2.024.677.677,0,0,0,.276-.084,1.164,1.164,0,0,1,.42-.144c.372-.036.744-.084,1.116-.132V38.78c0,.54.072.816.2.816.168,0,.276-.288.36-.852a17.361,17.361,0,0,0,.12-2.208v-1A24.523,24.523,0,0,0-45.156,34.8Zm9.564.168a.457.457,0,0,0-.048-.2,3.048,3.048,0,0,0-.5-.84.846.846,0,0,0-.384-.24,1.258,1.258,0,0,1-.516-.36l-.612-.564a8.185,8.185,0,0,0,1.32-1.86,1.4,1.4,0,0,1,.192-.192.573.573,0,0,0,.132-.216c0-.072-.06-.144-.18-.18a1.69,1.69,0,0,0-.54-.084.593.593,0,0,0-.288.084,1.483,1.483,0,0,1-.324.072,19.85,19.85,0,0,1-2.508.072,6.078,6.078,0,0,1-1.2-.1c-.1-.012-.144.024-.144.084s.036.108.12.168a5.66,5.66,0,0,0,.9.408,1.05,1.05,0,0,0,.192.024.442.442,0,0,0,.192-.084,1.627,1.627,0,0,1,.564-.156c.516-.048,1.212-.072,2.136-.072A13.85,13.85,0,0,1-41.64,35.4c-.084.06-.12.108-.12.144q0,.108.072.108a.332.332,0,0,0,.156-.036,13.413,13.413,0,0,0,3.144-2.124c.144-.132.288-.264.432-.408l1.86,1.9c.132.132.228.192.312.192C-35.652,35.156-35.592,35.1-35.592,34.964Zm2.628-5.664a.307.307,0,0,0-.228-.312,4.947,4.947,0,0,0-1.5-.228c-.264,0-.384.06-.384.192,0,.06.06.1.168.108a2.378,2.378,0,0,1,1.236.648V31.16a10.725,10.725,0,0,1-1.356.1,3.919,3.919,0,0,1-.9-.06c-.156-.024-.228,0-.228.072s.036.108.12.156a6.158,6.158,0,0,0,.78.372.538.538,0,0,0,.132.012.383.383,0,0,0,.168-.036,1.231,1.231,0,0,1,.372-.12c.348-.024.672-.036.912-.06V33.1a10.928,10.928,0,0,1-1.356.084,4.011,4.011,0,0,1-.9-.048c-.156-.024-.228,0-.228.06a.2.2,0,0,0,.12.168,3.586,3.586,0,0,0,.744.36.619.619,0,0,0,.132.024.383.383,0,0,0,.168-.036,1.355,1.355,0,0,1,.408-.132c.348-.024.672-.036.912-.048v.912c0,.5.072.756.24.756s.288-.252.36-.768A10.344,10.344,0,0,0-33,33.08V30.032C-33,29.876-32.964,29.48-32.964,29.3Zm-.456,6.6a.218.218,0,0,0-.168-.228,5.792,5.792,0,0,0-1.14-.456.894.894,0,0,0-.216-.024c-.18,0-.276.036-.276.132,0,.024.06.072.18.132.456.276.7.528.708.732a9.688,9.688,0,0,1-2.6,3.312c-.108.1-.156.156-.156.192,0,.072.036.108.1.108a.627.627,0,0,0,.192-.072,8.963,8.963,0,0,0,2.592-2.364l1.548,1.98c.108.144.2.228.312.228.132,0,.192-.1.192-.276a.481.481,0,0,0-.036-.18,6.977,6.977,0,0,0-.5-.972,3.258,3.258,0,0,0-.444-.264,2,2,0,0,1-.456-.432L-33.972,37a7.816,7.816,0,0,0,.468-.828A.554.554,0,0,0-33.42,35.9Zm-3.9.192a.239.239,0,0,0-.132-.216,4.85,4.85,0,0,0-1.056-.36.75.75,0,0,0-.2-.012q-.288-.018-.288.108-.018.054.108.108c.492.228.756.42.78.564a8.362,8.362,0,0,1-2.58,3.06c-.108.084-.156.144-.156.2s.024.108.084.108a.674.674,0,0,0,.216-.1A7.111,7.111,0,0,0-37.9,37.244l1.044,1.248a.311.311,0,0,0,.2.132c.156,0,.228-.1.228-.276a.6.6,0,0,0-.036-.192,2.125,2.125,0,0,0-.228-.516.483.483,0,0,0-.156-.156,1.182,1.182,0,0,1-.528-.276l-.312-.288a5.157,5.157,0,0,0,.288-.576A.681.681,0,0,0-37.32,36.092Zm13.776-.432a.23.23,0,0,0-.168-.228,3.909,3.909,0,0,0-1.224-.228c-.24,0-.36.06-.36.144a.166.166,0,0,0,.12.168,1.7,1.7,0,0,1,.9.468v.924l-3.888.06.012-.54c.012-.144.024-.288.024-.384a.3.3,0,0,0-.288-.324,9.339,9.339,0,0,0-1.128-.12c-.132,0-.348.084-.348.18s.06.144.156.156a1.378,1.378,0,0,1,.864.4l.072,3.108c.012.36.072.54.2.54q.342,0,.4-.612l3.924-.084c.012.348.072.516.2.516.168,0,.288-.192.384-.588a4,4,0,0,0,.06-.708l.024-2.172C-23.6,36.188-23.544,35.8-23.544,35.66Zm-.732,3.24-3.9.084.012-1.632,3.888-.06Zm-1.2-9.072c0-.1-.06-.168-.18-.228a5.887,5.887,0,0,0-1.128-.4,1.466,1.466,0,0,0-.264-.036c-.192,0-.288.048-.288.132,0,.06.06.108.168.156a1.311,1.311,0,0,1,.732.612,9.9,9.9,0,0,1-3.948,3.108c-.132.06-.192.12-.192.168,0,.1.024.132.072.132a.659.659,0,0,0,.228-.072,9.836,9.836,0,0,0,3.84-2.256l3.828,1.74a.878.878,0,0,0,.324.048c.132-.012.192-.084.192-.228-.012-.264-.468-.6-1.368-.984a2.085,2.085,0,0,0-.612-.084,2.1,2.1,0,0,1-.78-.24l-1.284-.576a5.517,5.517,0,0,0,.564-.744A.609.609,0,0,0-25.476,29.828Zm4.356,4.428c0-.132-.084-.216-.276-.276a3.941,3.941,0,0,0-1.092-.144.9.9,0,0,0-.372.1,3.641,3.641,0,0,1-1.272.2c-1.62.06-3.468.1-5.508.1a12.716,12.716,0,0,1-1.8-.12c-.12-.012-.18,0-.18.048a.257.257,0,0,0,.144.216,4.476,4.476,0,0,0,1.14.516.807.807,0,0,0,.216.036.377.377,0,0,0,.144-.048q.756-.378,6.888-.372c.5,0,.984.024,1.4.06C-21.3,34.6-21.12,34.508-21.12,34.256Zm8.76-4.944A.29.29,0,0,0-12.588,29a4.979,4.979,0,0,0-1.512-.24c-.252,0-.372.06-.372.192,0,.06.06.1.168.12a2.283,2.283,0,0,1,1.224.636v5.148a24.394,24.394,0,0,1-2.676.732c-1.416.3-2.4.456-2.976.516-.18.012-.264-.1-.264-.3v-3.72c0-.036,0-.192.012-.468.012-.24-.048-.36-.18-.384a8.495,8.495,0,0,0-1.416-.108c-.168,0-.384.108-.384.2,0,.072.048.12.156.132.66.12,1.032.276,1.116.456l.024,3.72a1.337,1.337,0,0,0,.144.756.759.759,0,0,0,.468.36,3.042,3.042,0,0,0,.612-.036,24.378,24.378,0,0,0,2.712-.612,23.856,23.856,0,0,0,2.652-.972V39.14c0,.588.072.876.2.876.156,0,.264-.276.348-.852A22.211,22.211,0,0,0-12.4,36.38V30.032C-12.4,29.888-12.36,29.468-12.36,29.312Zm9.9,0A.3.3,0,0,0-2.7,29a4.81,4.81,0,0,0-1.476-.24c-.264,0-.384.06-.384.192,0,.06.06.1.168.12a2.288,2.288,0,0,1,1.212.636v5.316A22.5,22.5,0,0,1-8.724,36.2q-.252.018-.252-.288V32.084c0-.108,0-.228.012-.384l3.42-.084c.312-.012.468-.144.468-.372,0-.132-.072-.216-.228-.252a2.413,2.413,0,0,0-.9-.036,5.718,5.718,0,0,1-1.092.288q-.846.054-1.584.036c-.156-.048-.3-.084-.4-.108a8.024,8.024,0,0,0-1.188-.108c-.144,0-.372.108-.372.2,0,.06.048.108.144.132a1.493,1.493,0,0,1,1.02.456l.024,3.852c0,.72.084.888.384,1.068a.523.523,0,0,0,.216.06,2.645,2.645,0,0,0,.672-.024A24.963,24.963,0,0,0-3.18,35.4V39.14c0,.588.06.876.2.876s.264-.276.348-.852A22.484,22.484,0,0,0-2.5,36.38V34.268c.672-.012,1.284-.024,1.848-.036.324-.012.48-.12.48-.36a.289.289,0,0,0-.24-.276,2.01,2.01,0,0,0-1.068,0,2,2,0,0,0-.228.144,1.155,1.155,0,0,1-.792.192v-3.9C-2.5,29.888-2.46,29.468-2.46,29.312Z" transform="translate(320 5831)" fill="#2b2b2b"/>
    <path id="패스_7727" data-name="패스 7727" d="M-6.665-17.773a1.01,1.01,0,0,1,.562.012,1.231,1.231,0,0,1,.476.281,1.633,1.633,0,0,1,.342.464,1.292,1.292,0,0,1,.134.586,1.316,1.316,0,0,1-.439,1.013,1.532,1.532,0,0,1-1.074.4,1.42,1.42,0,0,1-1.27-.623,2.829,2.829,0,0,1-.415-1.6,4.238,4.238,0,0,1,.623-2.307,3.722,3.722,0,0,1,1.941-1.477l.342.464a3.439,3.439,0,0,0-1.416,1.1,2.488,2.488,0,0,0-.464,1.465q0,.269.11.317a.347.347,0,0,0,.256,0Zm3.906,0a1.114,1.114,0,0,1,1.025.293,1.348,1.348,0,0,1,.464,1.05A1.334,1.334,0,0,1-1.7-15.417a1.488,1.488,0,0,1-1.062.4,1.451,1.451,0,0,1-1.282-.623,2.768,2.768,0,0,1-.427-1.6,4.177,4.177,0,0,1,.635-2.307A3.787,3.787,0,0,1-1.88-21.021l.342.464a3.538,3.538,0,0,0-1.428,1.1,2.444,2.444,0,0,0-.476,1.465q0,.269.11.317a.411.411,0,0,0,.281,0Z" transform="translate(320 5814)" fill="#2b2b2b"/>
    <g id="그룹_1597" data-name="그룹 1597" transform="translate(80.472 5823.17)">
      <rect id="사각형_3434" data-name="사각형 3434" width="1.862" height="6.53" transform="translate(21.72 2.695)" fill="#e72c4e"/>
      <path id="패스_7659" data-name="패스 7659" d="M1.482,0,.1,1.373l1.86,1.911L3.327,1.911Z" transform="translate(-0.085)" fill="#e72c4e"/>
      <g id="그룹_1559" data-name="그룹 1559" transform="translate(0 0)">
        <g id="그룹_1558" data-name="그룹 1558" clip-path="url(#clip-path)">
          <path id="패스_7660" data-name="패스 7660" d="M328.482,9.734h1.593V5.775a1.758,1.758,0,0,1,3.517,0V9.734h1.585V5.781a3.35,3.35,0,0,0-3.343-3.388h0a3.372,3.372,0,0,0-1.765.5V.119h-1.586Z" transform="translate(-296.649 -0.107)" fill="#071039"/>
          <path id="패스_7661" data-name="패스 7661" d="M170.133,23.667a3.666,3.666,0,1,0,3.669,3.666,3.668,3.668,0,0,0-3.669-3.666m0,5.749a2.082,2.082,0,1,1,2.084-2.082,2.083,2.083,0,0,1-2.084,2.082" transform="translate(-150.332 -21.373)" fill="#071039"/>
          <path id="패스_7662" data-name="패스 7662" d="M6.53,18.389a3.879,3.879,0,0,0-2.972-1.671v1.6H3.329A3.3,3.3,0,0,0,.007,21.26a3.037,3.037,0,0,0,0,.442v5.323H1.594v-2.8a3.407,3.407,0,0,0,.862.365,4.249,4.249,0,0,0,1.1.147A3.742,3.742,0,0,0,7.177,22.16a4.226,4.226,0,0,0-.647-3.77m-.833,3.1c-.014.059-.03.118-.049.176a2.08,2.08,0,0,1-1.4,1.368,2.209,2.209,0,0,1-2.312-.6,1.507,1.507,0,0,1-.326-1.051,1.711,1.711,0,0,1,1.759-1.451v0h.188v-1.6a2.312,2.312,0,0,1,1.671,1.007,2.792,2.792,0,0,1,.5,1.162,2.221,2.221,0,0,1-.028.99" transform="translate(0 -15.098)" fill="#071039"/>
          <path id="패스_7663" data-name="패스 7663" d="M256.191,28.7a2.082,2.082,0,1,1,.007-2.731l1.112-1.13a3.666,3.666,0,1,0-.007,4.991Z" transform="translate(-226.634 -21.374)" fill="#071039"/>
          <path id="패스_7664" data-name="패스 7664" d="M90.159,28.554a2.44,2.44,0,0,1-1.9.9,1.95,1.95,0,0,1-2.03-1.384l-.048-.17h5.487l.007-.106c.014-.208.027-.4.027-.577a3.415,3.415,0,0,0-3.5-3.634,3.508,3.508,0,0,0-3.6,3.648,3.529,3.529,0,0,0,3.6,3.692,3.615,3.615,0,0,0,2.981-1.447l-.965-.992ZM86.227,26.44a1.86,1.86,0,0,1,1.953-1.385,1.814,1.814,0,0,1,1.889,1.389l.041.166H86.179Z" transform="translate(-76.396 -21.3)" fill="#071039"/>
        </g>
      </g>
    </g>
  </g>
</svg>
