<svg xmlns="http://www.w3.org/2000/svg" xmlns:xlink="http://www.w3.org/1999/xlink" width="114.673" height="76.649" viewBox="0 0 114.673 76.649">
  <defs>
    <clipPath id="clip-path">
      <rect id="사각형_3435" data-name="사각형 3435" width="60" height="18.573" fill="none"/>
    </clipPath>
  </defs>
  <g id="그룹_1666" data-name="그룹 1666" transform="translate(-55.52 -554.591)">
    <path id="패스_7718" data-name="패스 7718" d="M11.44.533V-.351H8.7V-2.756L7.644-2.782V-.351H4.277V-2.782l-1.053.026V-.351H.52V.533ZM9.321-6.149c0,1.313-1.339,2.2-3.354,2.2s-3.341-.884-3.341-2.2,1.326-2.2,3.341-2.2S9.321-7.462,9.321-6.149Zm1.014,0c0-1.82-1.729-3.042-4.368-3.042-2.613,0-4.355,1.222-4.355,3.042S3.354-3.133,5.967-3.133,10.335-4.329,10.335-6.149ZM22.75-3.315v-.871H11.83v.871ZM20.358.975H14.2V-1.248h6.162ZM22.2-5.9c-1.7-.156-3.991-1.131-4.316-2.613h3.861v-.871H12.831v.871h3.887c-.312,1.469-2.4,2.444-4.316,2.626l.481.884c2.132-.312,3.926-1.391,4.407-2.509.6,1.1,2.418,2.171,4.433,2.5Zm-.793,7.748V-2.106H13.143V1.846ZM32.825-5.837v-.845H25.532V-8.619h7.15v-.858h-8.2v3.64Zm.195,7.709V1.04H25.48V-.221h7.163v-2.73H24.414v.832H31.59V-1H24.427V1.872Zm1.04-5.85v-.845H23.14v.845Zm5.6-.91c0,1.976-.806,3.354-2,3.354s-2-1.378-2-3.354.806-3.367,2-3.367S39.663-6.877,39.663-4.888ZM34.606-4.9c0,2.574,1.1,4.277,3.055,4.277,1.846,0,2.925-1.521,3.029-3.848h2.587V2.08H44.33V-10.01H43.277v4.641H40.69c-.13-2.288-1.2-3.8-3.029-3.8C35.711-9.165,34.606-7.449,34.606-4.9ZM1.118,10.9v.884H5.5A6.337,6.337,0,0,1,.676,16.542l.533.884c3.12-1.04,5.265-3.3,5.447-6.526Zm8.229,3.51v4.355H10.4V9.99H9.347v3.536H6.7v.884Zm1.339,7.371V20.9H3.536V17.972H2.483v3.809Zm1.6-10.855v.9h4.407c-.312,2.08-2.548,4.043-4.927,4.563l.546.871c3.081-.936,5.382-3.159,5.564-6.331Zm4.927,7.332c1.846,0,2.99.533,2.99,1.469s-1.144,1.443-2.99,1.443c-1.82,0-2.951-.52-2.951-1.443S15.392,18.258,17.212,18.258Zm4.069,1.469c0-1.443-1.521-2.327-4.069-2.327-2.522,0-4.03.884-4.03,2.327s1.508,2.314,4.03,2.314C19.76,22.041,21.281,21.157,21.281,19.727Zm1.69-5.46v-.884H21.125V9.99H20.072v7.436h1.053V14.267Zm5.811.91c0,1.976-.832,3.354-2.119,3.354s-2.119-1.378-2.119-3.354.845-3.367,2.119-3.367S28.782,13.188,28.782,15.177Zm-5.239-.013c0,2.574,1.131,4.277,3.12,4.277s3.12-1.7,3.12-4.264S28.665,10.9,26.663,10.9,23.543,12.616,23.543,15.164Zm9.542,6.916V9.99H32.032V22.08ZM47.58,21.7v-.871H40.573V17.985H39.52V21.7Zm-2.834-5.681a4.541,4.541,0,0,1-3.068-4.03V10.679H40.612v1.339a5.268,5.268,0,0,1-3.159,4.42l.637.819A6.277,6.277,0,0,0,41.171,13.9a5.858,5.858,0,0,0,2.977,2.964Zm2.574,2.743V9.99H46.267v8.775Zm11.4.962c0-1.4-1.482-2.288-4.108-2.288s-4.108.884-4.108,2.288,1.469,2.288,4.108,2.288S58.721,21.131,58.721,19.727Zm-4.108-1.4c1.911,0,3.029.52,3.029,1.4s-1.118,1.417-3.029,1.417-3.029-.52-3.029-1.417S52.715,18.323,54.613,18.323Zm-5.2-7.4v.9h4.381c-.364,2.054-2.4,4.056-4.9,4.745l.52.9c3.2-1.118,5.382-3.5,5.564-6.539Zm5.5,4.654h2.665v2.041H58.63V9.99H57.577v2.184h-2.47v.871h2.47v1.664H54.912Zm15.912.572a3.849,3.849,0,0,1-2.288-3.705V11.095H67.522v1.339a4.834,4.834,0,0,1-2.366,4.16l.637.715A5.457,5.457,0,0,0,68.016,14.5a4.827,4.827,0,0,0,2.21,2.444Zm-5.408-.442a3.451,3.451,0,0,1-1.807-3.367V11.121H62.6v1.235a4.479,4.479,0,0,1-2.4,4.1l.6.767a4.954,4.954,0,0,0,2.3-2.743A4.424,4.424,0,0,0,64.831,16.5Zm5.564,4.706v-.884H60.06v.884Zm3.913-8.71a2.093,2.093,0,1,1,.013,4.173,2.093,2.093,0,1,1-.013-4.173Zm0-.923a3.048,3.048,0,0,0-3.25,3.029,3.268,3.268,0,0,0,6.513-.013A3.049,3.049,0,0,0,74.893,10.783Zm6.656,10.894v-.871H74.425v-2.86H73.372v3.731Zm-.3-2.86V9.99H80.2v8.827Zm2.964-.6V12.135h4.68v-.884H83.161v7.865h1.183a36.722,36.722,0,0,0,5.8-.416l-.117-.871a31.551,31.551,0,0,1-5.109.39ZM92,9.99h-1.04V22.08H92V15.671h1.963v-.884H92Zm11.687,4.732v-.871H96.512V10.5H95.459v4.225Zm.052,7.085v-.871H96.473V18.245H95.42v3.562Zm1.17-4.693V16.23H93.99v.884ZM1.235,30.913V31.8H5.681c-.273,2.21-2.639,3.991-5.018,4.485l.481.871c3.081-.884,5.512-2.873,5.72-6.24ZM9.334,41H3.692V38.44H9.334Zm1.053.871v-4.3H2.639v4.3Zm0-5.031V29.99H9.334v6.851ZM22.75,40.533v-.884H17.8V36.555H16.744v3.094H11.83v.884Zm-.429-4.576c-1.989-.377-4.485-2.119-4.485-4.2v-.871H16.744v.871c0,2.08-2.353,3.8-4.459,4.2l.546.845c2.119-.572,3.978-2.067,4.446-3.458A6.882,6.882,0,0,0,21.736,36.8Zm9.646-1.95v3.484H33.02v-7.5H31.967v3.133H29.536v.884Zm-2.912,4.342c1.885,0,2.99.52,2.99,1.43s-1.1,1.417-2.99,1.417c-1.859,0-2.977-.52-2.977-1.417S27.2,38.349,29.055,38.349Zm-5.59-6.474h2.756c0,.234,0,.52-.013.65a4.766,4.766,0,0,1-3.12,3.835l.572.845a6.087,6.087,0,0,0,3.081-3.146A6,6,0,0,0,29.8,36.776l.624-.845a4.206,4.206,0,0,1-3.12-3.393c-.013-.143-.013-.416-.013-.663H30v-.884H23.465Zm9.646,7.9c0-1.43-1.456-2.314-4.056-2.314s-4.043.884-4.043,2.314,1.456,2.3,4.043,2.3S33.111,41.2,33.111,39.779Zm9.035-5.343a29.979,29.979,0,0,1-6.019.533V30.614H35.074v5.278h.689a38.805,38.805,0,0,0,6.5-.559Zm1.131-4.446v6.721H44.33V29.99Zm0,11.037H37.453v-2.7h5.824Zm1.053.871V37.465H36.4V41.9Zm8.411-8.1A2.883,2.883,0,0,0,49.6,30.926a2.855,2.855,0,1,0,0,5.681A2.885,2.885,0,0,0,52.741,33.8Zm-1.027,0a2.136,2.136,0,0,1-4.251,0A2.045,2.045,0,0,1,49.6,31.823,1.972,1.972,0,0,1,51.714,33.8Zm2.925-3.809V42.08h1.053V29.99Zm-.793,8.151c-.884.117-2.457.208-4.134.273-1.469.078-2.9.1-3.926.091l.182.923c.923-.013,2.249-.052,3.666-.117,1.534-.078,3.263-.182,4.3-.312Zm17.485-2.4v-.884H69.355V29.99H68.3V42.08h1.053V35.736Zm-6.292,2.431H61.49V32.109h3.549Zm1.053.871v-7.8H60.437v7.8Zm10.92-3.861c0,1.976-.832,3.354-2.119,3.354s-2.119-1.378-2.119-3.354.845-3.367,2.119-3.367S77.012,33.188,77.012,35.177Zm-5.239-.013c0,2.574,1.131,4.277,3.12,4.277s3.12-1.7,3.12-4.264S76.9,30.9,74.893,30.9,71.773,32.616,71.773,35.164Zm9.542,6.916V29.99H80.262V42.08Zm2.821-9.75h3.757v-.871h-4.81v7.6h1.326a28.313,28.313,0,0,0,4.108-.364l-.117-.9a17.924,17.924,0,0,1-4.264.364Zm5.3,3.211v5.915h1.027V30.276H89.44v4.381H86.632v.884Zm3.432,6.539V29.99H91.845V42.08Zm6.76-6.9c0,1.976-.832,3.354-2.119,3.354s-2.119-1.378-2.119-3.354.845-3.367,2.119-3.367S99.632,33.188,99.632,35.177Zm-5.239-.013c0,2.574,1.131,4.277,3.12,4.277s3.12-1.7,3.12-4.264S99.515,30.9,97.513,30.9,94.393,32.616,94.393,35.164Zm9.542,6.916V29.99h-1.053V42.08Zm11.258,0V29.99H114.14v4.628h-2.392v.9h2.392V42.08Zm-8.424-3.705V35.307h4.2v-.858h-4.2v-2.5h4.68v-.871h-5.733v8.19h1.248a32.342,32.342,0,0,0,5.486-.429l-.117-.884a29.089,29.089,0,0,1-5.3.416Z" transform="translate(55 564.601)" fill="#333"/>
    <g id="그룹_1560" data-name="그룹 1560" transform="translate(56 612.667)">
      <rect id="사각형_3434" data-name="사각형 3434" width="2.513" height="11.289" transform="translate(34.054 3.637)" fill="#e72c4e"/>
      <path id="패스_7659" data-name="패스 7659" d="M1.966,0,.1,1.853l2.51,2.58L4.457,2.579Z" transform="translate(-0.081)" fill="#e72c4e"/>
      <g id="그룹_1559" data-name="그룹 1559" transform="translate(0 0)">
        <g id="그룹_1558" data-name="그룹 1558" clip-path="url(#clip-path)">
          <path id="패스_7660" data-name="패스 7660" d="M328.482,15.092h2.481V8.927a2.738,2.738,0,0,1,5.476,0v6.165h2.469V8.937A5.217,5.217,0,0,0,333.7,3.661h0a5.251,5.251,0,0,0-2.749.772V.119h-2.471Z" transform="translate(-278.909 -0.101)" fill="#071039"/>
          <path id="패스_7661" data-name="패스 7661" d="M172.178,23.667a5.71,5.71,0,1,0,5.714,5.71,5.712,5.712,0,0,0-5.714-5.71m0,8.952a3.243,3.243,0,1,1,3.245-3.243,3.244,3.244,0,0,1-3.245,3.243" transform="translate(-141.342 -20.095)" fill="#071039"/>
          <path id="패스_7662" data-name="패스 7662" d="M10.169,19.321a6.041,6.041,0,0,0-4.629-2.6v2.5H5.184A5.133,5.133,0,0,0,.011,23.791a4.73,4.73,0,0,0,0,.688v8.289H2.483V28.4a5.306,5.306,0,0,0,1.342.569,6.617,6.617,0,0,0,1.717.229,5.827,5.827,0,0,0,5.634-4.01,6.581,6.581,0,0,0-1.008-5.871m-1.3,4.822c-.022.092-.046.184-.076.274a3.24,3.24,0,0,1-2.182,2.13,3.439,3.439,0,0,1-3.6-.933,2.348,2.348,0,0,1-.507-1.637,2.664,2.664,0,0,1,2.74-2.259v0H5.54V19.223a3.6,3.6,0,0,1,2.6,1.568,4.347,4.347,0,0,1,.772,1.81,3.46,3.46,0,0,1-.043,1.541" transform="translate(0 -14.195)" fill="#071039"/>
          <path id="패스_7663" data-name="패스 7663" d="M259.11,31.511a3.243,3.243,0,1,1,.011-4.254l1.732-1.76a5.71,5.71,0,1,0-.011,7.773Z" transform="translate(-213.081 -20.096)" fill="#071039"/>
          <path id="패스_7664" data-name="패스 7664" d="M93.261,31.322A3.8,3.8,0,0,1,90.3,32.729a3.036,3.036,0,0,1-3.161-2.156l-.075-.265h8.545l.011-.165c.021-.323.041-.621.041-.9a5.318,5.318,0,0,0-5.453-5.659,5.462,5.462,0,0,0-5.613,5.682,5.5,5.5,0,0,0,5.613,5.75,5.629,5.629,0,0,0,4.642-2.254l-1.5-1.545Zm-6.123-3.291a2.9,2.9,0,0,1,3.041-2.156,2.825,2.825,0,0,1,2.942,2.163l.064.258H87.063Z" transform="translate(-71.827 -20.026)" fill="#071039"/>
        </g>
      </g>
    </g>
  </g>
</svg>
