<svg xmlns="http://www.w3.org/2000/svg" xmlns:xlink="http://www.w3.org/1999/xlink" width="210.254" height="46.025" viewBox="0 0 210.254 46.025">
  <defs>
    <clipPath id="clip-path">
      <rect id="사각형_3435" data-name="사각형 3435" width="57.664" height="17.85" fill="none"/>
    </clipPath>
  </defs>
  <g id="그룹_1675" data-name="그룹 1675" transform="translate(-75.753 -7803.038)">
    <path id="패스_7732" data-name="패스 7732" d="M-94.611-7.788A4.1,4.1,0,0,0-95.975-11a4.729,4.729,0,0,0-2.53-1.166,1.67,1.67,0,0,0,.33-.638.5.5,0,0,0-.242-.418,2.3,2.3,0,0,0-1.254-.352c-.242,0-.352.066-.352.176,0,.088.044.154.154.22a.684.684,0,0,1,.4.572.656.656,0,0,1-.176.374,4.987,4.987,0,0,0-3.19,1.188,4.123,4.123,0,0,0-1.408,3.256,4.148,4.148,0,0,0,1.386,3.212,4.979,4.979,0,0,0,3.41,1.21A5.092,5.092,0,0,0-96.019-4.6,4.081,4.081,0,0,0-94.611-7.788Zm-1.276-.044A3.221,3.221,0,0,1-96.9-5.39a3.382,3.382,0,0,1-2.508.968,3.451,3.451,0,0,1-2.508-.968,3.221,3.221,0,0,1-1.012-2.442,3.141,3.141,0,0,1,1.012-2.42,3.469,3.469,0,0,1,2.508-.99,3.348,3.348,0,0,1,2.508.968A3.124,3.124,0,0,1-95.887-7.832Zm6.622-8.1a.531.531,0,0,0-.418-.572,9.129,9.129,0,0,0-2.772-.44c-.462,0-.682.11-.682.352,0,.11.11.176.308.22A4.185,4.185,0,0,1-90.585-15.2V2.09c0,1.078.132,1.606.374,1.606.286,0,.484-.506.638-1.562a41.218,41.218,0,0,0,.242-5.1V-14.608C-89.331-14.872-89.265-15.642-89.265-15.928Zm23.672,2.2c0-.066.044-.176-.7-.352a3.2,3.2,0,0,0-.7-.088c-.33,0-.528.242-1.034.264-1.716.11-4.4.154-8.008.176a2.072,2.072,0,0,0-.682-.22A11.986,11.986,0,0,0-78.9-14.1c-.4,0-.594.088-.594.308,0,.11.088.2.308.242.924.242,1.5.528,1.672.858l.462,6.468c.088.836.2,1.254.374,1.254.4,0,.616-.418.682-1.254l9.24-.044c.55,0,.814-.132.814-.374,0-.22-.33-.4-1.034-.528.352-1.716.616-3.7.858-5.984C-65.923-13.4-65.593-13.552-65.593-13.728Zm-1.936.506-.242,5.874c-.066.242-.22.352-.528.374-1.628.11-4.2.154-7.678.11l-.11-5.566c0-.022.022-.22.044-.66Q-73.4-13.189-67.529-13.222ZM-62.095-.506c0-.264-.154-.418-.506-.506a8.051,8.051,0,0,0-2-.242,1.606,1.606,0,0,0-.682.154,7.243,7.243,0,0,1-2.332.374l-3.41.132.11-3.146c.022-.242.044-.506.066-.748.022-.176-.066-.286-.286-.352a10.8,10.8,0,0,0-2.244-.286c-.44,0-.66.11-.66.286,0,.154.088.22.286.264a2.667,2.667,0,0,1,1.584.88V-.572q-2.772.066-5.544.066a20.245,20.245,0,0,1-3.3-.264c-.22-.022-.33,0-.33.11a.47.47,0,0,0,.264.4,6.772,6.772,0,0,0,2.09.946,1.433,1.433,0,0,0,.4.088.934.934,0,0,0,.264-.11A6.226,6.226,0,0,1-76.263.242c2.31-.2,5.83-.286,10.56-.286.968,0,1.848.044,2.574.11C-62.425.132-62.095-.044-62.095-.506Zm15.466-8.822c0-.264-.2-.418-.55-.484A9.768,9.768,0,0,0-48.917-9.9a1.507,1.507,0,0,0-.682.242,4.705,4.705,0,0,1-1.848.352c-1.232.066-3.124.11-4.642.11-.44-.022-.66-.242-.66-.77v-3.322a6.877,6.877,0,0,1,.022-.748c1.98-.088,5.148-.154,9.416-.22.484,0,.748-.22.748-.638,0-.55-.792-.726-2.376-.572a3.369,3.369,0,0,0-.88.33,5.351,5.351,0,0,1-1.8.286c-1.474.066-3.3.088-4.972.066a3.111,3.111,0,0,0-.616-.154,11.747,11.747,0,0,0-2.222-.176c-.264,0-.682.22-.682.374,0,.11.088.2.264.242,1.034.176,1.628.418,1.8.748v3.366c0,1.386.594,1.936,2.332,1.87,2.354-.066,5.192-.132,8.25-.154C-46.915-8.668-46.629-8.888-46.629-9.328Zm.4,10.89c0-.242-.154-.374-.484-.44a12.127,12.127,0,0,0-1.914-.066,1.3,1.3,0,0,0-.682.22,4.944,4.944,0,0,1-2.156.33c-1.5.088-2.948.044-4.158.022-.44,0-.66-.264-.66-.77v-3.08c.066-.418-.044-.682-.33-.748a12.355,12.355,0,0,0-2.53-.176c-.286,0-.682.2-.682.4,0,.11.088.2.286.242,1.188.242,1.848.506,1.98.77l.022,2.2a2.026,2.026,0,0,0,.462,1.408,1.841,1.841,0,0,0,.814.374,8.1,8.1,0,0,0,.99.044c.33,0,1.584,0,3.806-.022,2.354-.022,3.828-.022,4.378-.022C-46.519,2.244-46.233,2.024-46.233,1.562Zm3.168-7.436c0-.242-.154-.418-.506-.528a7.435,7.435,0,0,0-2-.242,1.64,1.64,0,0,0-.682.132,7.141,7.141,0,0,1-2.332.418c-2.662.11-6.072.154-10.1.154a17.393,17.393,0,0,1-3.3-.264c-.22-.022-.33,0-.33.132a.468.468,0,0,0,.264.374,6.019,6.019,0,0,0,2.09.968,2.317,2.317,0,0,0,.4.066.525.525,0,0,0,.264-.088,6.239,6.239,0,0,1,2.068-.44c2.178-.154,5.7-.242,10.56-.242,1.012,0,1.848.044,2.574.11C-43.395-5.258-43.065-5.434-43.065-5.874Zm15.884-1.914A4.1,4.1,0,0,0-28.545-11a4.729,4.729,0,0,0-2.53-1.166,1.67,1.67,0,0,0,.33-.638.5.5,0,0,0-.242-.418,2.3,2.3,0,0,0-1.254-.352c-.242,0-.352.066-.352.176,0,.088.044.154.154.22a.684.684,0,0,1,.4.572.656.656,0,0,1-.176.374,4.987,4.987,0,0,0-3.19,1.188,4.123,4.123,0,0,0-1.408,3.256,4.148,4.148,0,0,0,1.386,3.212,4.979,4.979,0,0,0,3.41,1.21A5.092,5.092,0,0,0-28.589-4.6,4.081,4.081,0,0,0-27.181-7.788Zm-1.276-.044A3.221,3.221,0,0,1-29.469-5.39a3.382,3.382,0,0,1-2.508.968,3.451,3.451,0,0,1-2.508-.968A3.221,3.221,0,0,1-35.5-7.832a3.141,3.141,0,0,1,1.012-2.42,3.469,3.469,0,0,1,2.508-.99,3.348,3.348,0,0,1,2.508.968A3.124,3.124,0,0,1-28.457-7.832Zm6.622-8.1a.531.531,0,0,0-.418-.572,9.129,9.129,0,0,0-2.772-.44c-.462,0-.682.11-.682.352,0,.11.11.176.308.22A4.185,4.185,0,0,1-23.155-15.2V2.09c0,1.078.132,1.606.374,1.606.286,0,.484-.506.638-1.562a41.22,41.22,0,0,0,.242-5.1V-14.608C-21.9-14.872-21.835-15.642-21.835-15.928Zm22,9.108c0-.242-.154-.418-.506-.528a7.514,7.514,0,0,0-2-.22,1.606,1.606,0,0,0-.682.154,6.476,6.476,0,0,1-2.332.374c-3.146.132-6.534.2-10.1.2a20.264,20.264,0,0,1-3.3-.242c-.22-.044-.33,0-.33.11s.088.242.264.374a6,6,0,0,0,2.09.924,2.317,2.317,0,0,0,.4.066.691.691,0,0,0,.264-.088c.9-.44,5.1-.682,12.628-.682.968,0,1.848.044,2.574.11C-.165-6.2.165-6.38.165-6.82ZM-2.8,2.156c0-.594-.814-.594-2.266-.594a1.016,1.016,0,0,0-.638.22,6.322,6.322,0,0,1-2.134.33q-2.871.1-4.62.066c-.33,0-.484-.176-.484-.506V-.044a2.4,2.4,0,0,1,.022-.374c1.342-.066,4.158-.132,8.338-.2.33,0,.484-.11.484-.33,0-.176-.308-.33-.946-.44.154-.4.33-1.078.594-2.046a.531.531,0,0,1,.286-.352.31.31,0,0,0,.176-.264c0-.11-.066-.2-.22-.242a6.232,6.232,0,0,0-1.21-.2c-.352,0-.55.22-.99.242-2.2.176-4.378.242-6.534.22a17.039,17.039,0,0,1-2.332-.22c-.242-.044-.352,0-.352.132a.279.279,0,0,0,.154.242,4.432,4.432,0,0,0,2.156.88,1.28,1.28,0,0,0,.55-.2,4.566,4.566,0,0,1,1.518-.242c1.782-.11,3.608-.176,5.412-.176q-.033,1.914-.066,2.178a.388.388,0,0,1-.33.2c-2.244.11-4.378.176-6.38.176A.976.976,0,0,1-12.9-1.1a2.221,2.221,0,0,0-.462-.154,12.357,12.357,0,0,0-2.068-.132c-.33.022-.506.11-.506.242,0,.11.11.176.308.22a2.792,2.792,0,0,1,1.43.66V1.21a1.8,1.8,0,0,0,.44,1.32,1.716,1.716,0,0,0,1.21.286c2.64-.132,5.61-.154,8.888-.088C-3.091,2.75-2.8,2.552-2.8,2.156ZM-3.245-9.57c0-.308-.176-.484-.55-.528a16.722,16.722,0,0,0-2-.066,1.507,1.507,0,0,0-.682.242,4.932,4.932,0,0,1-1.848.352c-1.826.11-3.322.154-4.444.132-.33,0-.484-.22-.484-.638v-1.386a2.667,2.667,0,0,1,.022-.44c2.178-.11,5.016-.176,8.492-.22q.528,0,.528-.33c0-.264-.264-.462-.792-.55a7.31,7.31,0,0,0,.726-2.112c.264-.2.4-.352.4-.506s-.11-.264-.352-.33a4,4,0,0,0-1.012-.132,7.222,7.222,0,0,1-1.122.242c-1.562.11-3.542.176-5.9.2a22.654,22.654,0,0,1-3.08-.2q-.4-.066-.4.2c0,.11.11.242.352.352a9.987,9.987,0,0,0,1.782.7,2.116,2.116,0,0,0,.462.088.583.583,0,0,0,.308-.066,5.15,5.15,0,0,1,2.266-.462c1.078-.088,2.728-.132,4.884-.132a16.342,16.342,0,0,1-.154,2.09.544.544,0,0,1-.44.308c-2.112.154-4.334.22-6.622.2a.68.68,0,0,1-.286-.044,3.307,3.307,0,0,0-.484-.132,14.487,14.487,0,0,0-2.156-.088c-.352.022-.506.088-.506.242,0,.11.088.176.286.22a3.04,3.04,0,0,1,1.562.66v1.32a1.666,1.666,0,0,0,.418,1.32,1.884,1.884,0,0,0,1.254.242C-9.669-8.932-6.743-9-4.081-9-3.509-9-3.245-9.2-3.245-9.57Zm16.852-5.5c0-.132-.088-.22-.242-.308a2.066,2.066,0,0,0-1.034-.264c-.286,0-.44.066-.44.176,0,.088.022.154.066.176.286.176.418.352.4.484a.54.54,0,0,1-.242.4,4.873,4.873,0,0,0-2.882,1.034,3.291,3.291,0,0,0-1.276,2.618,3.285,3.285,0,0,0,1.254,2.64,5.219,5.219,0,0,0,3.212.99,5.262,5.262,0,0,0,3.256-.99,3.235,3.235,0,0,0,1.232-2.64,3.27,3.27,0,0,0-1.254-2.618,4.563,4.563,0,0,0-2.4-.968A3.017,3.017,0,0,0,13.607-15.07ZM13.343-2.508V-4.114c.528-.066.924-.132,1.21-.176q3.993-.726,5.808-1.188V2.09c0,1.078.11,1.606.374,1.606.286,0,.484-.506.616-1.562a41.22,41.22,0,0,0,.242-5.1V-14.608c0-.264.066-1.034.066-1.32a.531.531,0,0,0-.418-.572,9.1,9.1,0,0,0-2.75-.44c-.462,0-.682.11-.682.352,0,.11.088.176.286.22A4.259,4.259,0,0,1,20.361-15.2v9.2c-1.3.242-3.3.55-5.962.858-1.012.132-3.058.286-6.116.44A12.87,12.87,0,0,1,5.6-4.884c-.242-.022-.374.022-.374.176,0,.22.374.506,1.166.836a10.718,10.718,0,0,0,1.54.528,1.22,1.22,0,0,0,.374.066,1.087,1.087,0,0,0,.484-.176A2.027,2.027,0,0,1,9.581-3.7Q11-3.828,12.089-3.96V1.474c0,.99.11,1.518.352,1.518.308,0,.55-.528.66-1.562A35,35,0,0,0,13.343-2.508Zm2.332-8.25a2.482,2.482,0,0,1-.946,2.024,3.282,3.282,0,0,1-2.266.748A3.319,3.319,0,0,1,10.2-8.734a2.562,2.562,0,0,1-.924-2.024,2.437,2.437,0,0,1,.946-1.936,3.371,3.371,0,0,1,2.244-.792,3.309,3.309,0,0,1,2.266.792A2.375,2.375,0,0,1,15.675-10.758Zm21.692-3.7a.526.526,0,0,0-.352-.572,7.84,7.84,0,0,0-2.332-.462c-.418,0-.638.11-.638.308,0,.132.11.2.308.242a2.808,2.808,0,0,1,1.76.968V.484c0,1.012.11,1.5.352,1.5.374,0,.638-1.056.748-3.19.066-1.3.088-2.31.088-3.014v-2.6l2.772-.066V1.8c0,1.276.11,1.892.352,1.892.264,0,.594-.946.7-2.266.088-1.254.132-2.574.132-3.938v-12.21a4.9,4.9,0,0,1,.066-.7,2.982,2.982,0,0,0,.044-.44.586.586,0,0,0-.4-.572,8.385,8.385,0,0,0-2.552-.506c-.462,0-.7.11-.7.352,0,.088.088.154.286.2a3.7,3.7,0,0,1,2.068,1.166V-7.59L37.3-7.5v-5.786a4.317,4.317,0,0,1,.022-.682C37.345-14.278,37.367-14.432,37.367-14.454ZM25.993-5.016a3.124,3.124,0,0,0,1.1,2.4,4.258,4.258,0,0,0,2.86.99,4.218,4.218,0,0,0,2.86-.99,3.071,3.071,0,0,0,1.034-2.4,3.2,3.2,0,0,0-1.034-2.442A4.024,4.024,0,0,0,30.635-8.4,1.091,1.091,0,0,0,30.943-9c0-.176-.11-.308-.462-.4a2.142,2.142,0,0,0-.7-.154c-.22,0-.308.088-.308.2,0,.044.044.154.264.308.088.066.132.154.132.374a.372.372,0,0,1-.066.22,4.292,4.292,0,0,0-2.706,1.012A3.168,3.168,0,0,0,25.993-5.016ZM32.769-5.1A2.62,2.62,0,0,1,29.975-2.53a2.77,2.77,0,0,1-2.024-.77,2.425,2.425,0,0,1-.814-1.8,2.621,2.621,0,0,1,2.838-2.574A2.608,2.608,0,0,1,32.769-5.1Zm2.552-5.566c0-.242-.2-.462-.66-.55a6.858,6.858,0,0,0-1.254-.132,1.447,1.447,0,0,0-.88.22,3.053,3.053,0,0,1-1.342.308c-1.474.088-2.926.132-4.29.132a18.071,18.071,0,0,1-2.354-.176c-.2-.022-.286.022-.286.132a.333.333,0,0,0,.154.308,6.091,6.091,0,0,0,1.386.682,2.354,2.354,0,0,0,.506.11.893.893,0,0,0,.374-.11,3.59,3.59,0,0,1,1.408-.286q2.244-.165,4.554-.2c.858,0,1.5.022,1.914.044C35.057-10.142,35.321-10.318,35.321-10.67ZM32.307-13q0-.495-.726-.462A20.028,20.028,0,0,1,27.6-13.75a2.46,2.46,0,0,0-.418-.066q-.264,0-.264.132a.644.644,0,0,0,.176.308,4,4,0,0,0,1.034.836,1.658,1.658,0,0,0,.968.22c.2-.022.33-.044.374-.044.9-.044,1.628-.088,2.134-.11C32.087-12.474,32.307-12.65,32.307-13Zm32.318-2.926a.531.531,0,0,0-.418-.572,9.129,9.129,0,0,0-2.772-.44c-.462,0-.682.11-.682.352,0,.11.11.176.308.22A4.185,4.185,0,0,1,63.305-15.2V2.09c0,1.078.132,1.606.374,1.606.286,0,.484-.506.638-1.562a41.218,41.218,0,0,0,.242-5.1V-14.608C64.559-14.872,64.625-15.642,64.625-15.928Zm-7.678,3.322a.52.52,0,0,0-.308-.484,13.857,13.857,0,0,0-1.98-.836,1.62,1.62,0,0,0-.528-.11c-.374,0-.55.088-.55.22,0,.088.11.176.33.286a2.421,2.421,0,0,1,1.342,1.43,20.857,20.857,0,0,1-5.742,8.91c-.264.242-.374.418-.374.484,0,.11.044.176.154.176a1.116,1.116,0,0,0,.594-.264,20.029,20.029,0,0,0,5.236-5.632L59.3-3.454a.875.875,0,0,0,.682.352c.22,0,.33-.132.33-.418a2.779,2.779,0,0,0-.484-1.32,5.511,5.511,0,0,0-1.012-1.386,2.065,2.065,0,0,0-.572-.308,6.618,6.618,0,0,1-1.606-1.408L55.561-9.174a17.013,17.013,0,0,0,1.254-2.9A3.955,3.955,0,0,0,56.947-12.606Zm20.9-1.122a.388.388,0,0,0-.308-.352,3.33,3.33,0,0,0-1.012-.154A1.231,1.231,0,0,0,76-14.08a1.993,1.993,0,0,1-.594.132,33.4,33.4,0,0,1-4.466.132,19.057,19.057,0,0,1-2.178-.154c-.176-.044-.264.022-.264.132s.066.2.22.308a6.753,6.753,0,0,0,1.606.748,1.71,1.71,0,0,0,.352.044.673.673,0,0,0,.33-.154,2.992,2.992,0,0,1,1.144-.286,34.4,34.4,0,0,1,3.718-.154,22.339,22.339,0,0,1-8.14,8.382c-.154.088-.22.176-.22.264q0,.2.132.2a.469.469,0,0,0,.264-.066,22.641,22.641,0,0,0,6.49-4.576L78.133-5.7a.9.9,0,0,0,.572.264c.22,0,.33-.132.33-.374a1.18,1.18,0,0,0-.088-.418,4.488,4.488,0,0,0-1.1-1.54,4.9,4.9,0,0,0-.814-.308A3.428,3.428,0,0,1,76-8.734l-1.1-.924A17.344,17.344,0,0,0,77.253-13a3.115,3.115,0,0,1,.352-.374C77.759-13.552,77.847-13.662,77.847-13.728Zm4.928-2.222a.562.562,0,0,0-.418-.572,9.29,9.29,0,0,0-2.728-.44c-.484,0-.7.132-.7.374,0,.088.11.154.308.2A4.446,4.446,0,0,1,81.477-15.2v9.46q0,1.386.462,1.386c.286,0,.484-.462.638-1.43a19.064,19.064,0,0,0,.132-2.464V-9.372c.484-.022.968-.022,1.474-.044,1.056,0,1.672-.022,1.914-.022.594,0,.88-.22.88-.638a.53.53,0,0,0-.44-.506,3.49,3.49,0,0,0-2.068.022,3.67,3.67,0,0,0-.418.264,2.133,2.133,0,0,1-1.342.352v-4.664C82.709-14.894,82.775-15.62,82.775-15.95Zm.066,12.716c0-.11-.11-.22-.352-.308a2.733,2.733,0,0,0-.814-.132c-.264,0-.836.2-1.122.22-4.026.2-6.226.286-6.622.286a21.07,21.07,0,0,1-2.86-.2c-.264-.022-.4.022-.4.154,0,.154.11.264.308.374a6.5,6.5,0,0,0,1.76.792,3.064,3.064,0,0,0,.506.11.754.754,0,0,0,.352-.088,5.789,5.789,0,0,1,2.156-.484c2.552-.154,4.4-.242,5.544-.242V1.738c0,1.254.132,1.87.4,1.87.308,0,.55-.572.7-1.76a9.867,9.867,0,0,0,.11-1.54l.044-2.992A1.154,1.154,0,0,0,82.841-3.234ZM96.833-7.018c0-1.826-1.342-3.1-3.366-3.344a.693.693,0,0,0,.242-.506.606.606,0,0,0-.242-.462.22.22,0,0,1-.11-.088c.748-.022,1.518-.044,2.332-.044,1.144,0,1.98.022,2.464.066.528.044.77-.11.77-.484,0-.462-.9-.7-2.09-.7a1.533,1.533,0,0,0-.836.22,5.456,5.456,0,0,1-1.98.308c-1.232.066-2.816.11-4.752.11a16.056,16.056,0,0,1-2.574-.154c-.2-.022-.286.022-.286.154,0,.066.066.154.176.286a5.329,5.329,0,0,0,1.584.748,2.114,2.114,0,0,0,.506.11.991.991,0,0,0,.374-.11,5.987,5.987,0,0,1,1.386-.286c.66-.066,1.342-.132,2.024-.176a.807.807,0,0,1,.33.572.474.474,0,0,1-.264.4,4.375,4.375,0,0,0-2.706.946,2.964,2.964,0,0,0-1.144,2.442,3.1,3.1,0,0,0,1.122,2.442,4.649,4.649,0,0,0,2.97.924C95.183-3.652,96.833-5.016,96.833-7.018Zm-1.122-.044a2.645,2.645,0,0,1-2.926,2.618,2.626,2.626,0,0,1-2.9-2.618,2.665,2.665,0,0,1,2.9-2.64A2.7,2.7,0,0,1,95.711-7.062Zm6.094-8.866a.549.549,0,0,0-.44-.572,9.037,9.037,0,0,0-2.706-.44c-.484,0-.7.11-.7.352,0,.11.088.176.286.22a4.416,4.416,0,0,1,2.244,1.144V-3.366c0,1.21.132,1.826.418,1.826s.506-.616.66-1.8a23.523,23.523,0,0,0,.154-2.926V-8.03c1.254-.022,2.376-.066,3.41-.088.594,0,.88-.2.88-.638a.53.53,0,0,0-.44-.506,3.882,3.882,0,0,0-2.068.022,2.1,2.1,0,0,0-.418.242,1.935,1.935,0,0,1-1.364.374v-5.984C101.717-14.894,101.805-15.642,101.805-15.928Zm1.65,17.864c0-.308-.154-.484-.506-.528a9.809,9.809,0,0,0-1.892-.088,1.3,1.3,0,0,0-.682.22,4.938,4.938,0,0,1-2.178.374c-1.474.066-2.86.066-4.2.022-.44-.022-.638-.264-.638-.748V-.836a6.186,6.186,0,0,1,.022-.66c.044-.418-.066-.638-.33-.682a14.772,14.772,0,0,0-2.508-.176c-.286,0-.7.2-.7.374,0,.11.088.2.286.242a4.087,4.087,0,0,1,2,.77V.7c0,1.386.484,1.892,2.266,1.87,2.266-.066,4.972-.088,8.228-.044C103.191,2.53,103.455,2.332,103.455,1.936ZM95.293-14.432c0-.308-.264-.462-.748-.462a22.654,22.654,0,0,1-4.334-.33,1.886,1.886,0,0,0-.374-.066c-.176,0-.286.044-.286.154a.426.426,0,0,0,.176.352,3.252,3.252,0,0,0,1.98,1.078c.22-.022.33-.044.4-.044,1.034-.066,1.826-.11,2.486-.132C95.051-13.9,95.293-14.1,95.293-14.432Zm-3.036,4.07.132.022C92.345-10.34,92.279-10.34,92.257-10.362Z" transform="translate(180 7820)" fill="#2b2b2b" opacity="0.497"/>
    <path id="패스_7733" data-name="패스 7733" d="M-50.8.384V-.848h-5.008V-5.776h-1.5V-.848h-2.176V-5.776h-1.5V-.848H-64.24V.384ZM-62.848-10.688v1.232H-53.9A29.393,29.393,0,0,1-54.48-2.8l1.456.24a35.753,35.753,0,0,0,.656-8.128Zm22.832,6.032h-7.168v-2.7h7.168Zm1.5,1.232V-11.28h-1.5v2.7h-7.168v-2.7h-1.5v7.856h4.3V-.5H-50.32V.736h13.44V-.5h-6V-3.424Zm9.552-1.984a4.936,4.936,0,0,1-2.944-4.3v-1.76H-33.36V-9.68A5.739,5.739,0,0,1-36.5-4.848l.9,1.088a6.964,6.964,0,0,0,2.992-3.392,6.957,6.957,0,0,0,2.848,2.88Zm.16,3.52c2.176,0,3.552.624,3.552,1.6S-26.624,1.3-28.8,1.3c-2.144,0-3.5-.608-3.5-1.584S-30.944-1.888-28.8-1.888Zm4.976-1.12V-12.32H-25.28v3.856h-1.664v-3.584h-1.44v8.272h1.44V-7.232h1.664v4.224Zm.144,2.72c0-1.744-1.9-2.832-5.12-2.832-3.184,0-5.088,1.088-5.088,2.832,0,1.728,1.9,2.816,5.088,2.816C-25.584,2.528-23.68,1.44-23.68-.288Zm7.232-5.3H-20.3V-9.968h3.856Zm1.5,1.2v-6.784h-6.864v6.784Zm.736-4.384h2.432v1.856h-2.432V-5.7h2.432v2.5h1.5v-9.12h-1.5v2.352h-2.432ZM-15.248-2c2.24,0,3.536.624,3.536,1.664s-1.3,1.648-3.536,1.648c-2.192,0-3.5-.608-3.5-1.648S-17.44-2-15.248-2Zm5.072,1.664c0-1.776-1.824-2.912-5.072-2.912-3.216,0-5.056,1.136-5.056,2.912s1.84,2.9,5.056,2.9C-12,2.56-10.176,1.44-10.176-.336ZM8.992-5.168V-6.416H6.608v-5.9H5.1V2.56h1.5V-5.168ZM1.056-2.384H-2.9V-9.6H1.056Zm1.5,1.216v-9.664H-4.4v9.664ZM15.712-5.936c0,2.288-.784,3.952-2.3,3.952s-2.3-1.664-2.3-3.952c0-2.3.784-3.968,2.3-3.968S15.712-8.24,15.712-5.936ZM9.568-5.952c0,2.96,1.2,5.264,3.84,5.264s3.808-2.3,3.808-5.248c0-2.96-1.168-5.264-3.808-5.264S9.568-8.9,9.568-5.952ZM21.312,2.56V-12.32h-1.5V2.56Zm3.7-11.824H29.28V-10.48H23.5v9.392h1.552a27.064,27.064,0,0,0,5.04-.464l-.16-1.2a25.157,25.157,0,0,1-4.928.432ZM31.12-5.456v7.28h1.44V-12H31.12v5.312H27.776v1.232ZM35.536,2.56V-12.32H34.08V2.56Zm8.016-8.5c0,2.288-.784,3.952-2.3,3.952s-2.3-1.664-2.3-3.952c0-2.3.784-3.968,2.3-3.968S43.552-8.24,43.552-5.936Zm-6.144-.016c0,2.96,1.2,5.264,3.84,5.264s3.808-2.3,3.808-5.248c0-2.96-1.168-5.264-3.808-5.264S37.408-8.9,37.408-5.952ZM49.152,2.56V-12.32h-1.5V2.56Zm13.84,0V-12.32h-1.5v5.584h-2.88v1.264h2.88V2.56ZM52.784-2.176V-5.648h4.928V-6.864H52.784V-9.728h5.6v-1.216H51.3V-.928h1.5a40.828,40.828,0,0,0,6.784-.5l-.208-1.232a32.553,32.553,0,0,1-6.224.48Z" transform="translate(148 7845)" fill="#262626"/>
    <g id="그룹_1658" data-name="그룹 1658" transform="translate(217.336 7831.214)">
      <rect id="사각형_3434" data-name="사각형 3434" width="2.416" height="10.85" transform="translate(32.729 3.495)" fill="#e72c4e"/>
      <path id="패스_7659" data-name="패스 7659" d="M1.893,0,.1,1.781,2.508,4.26,4.288,2.479Z" transform="translate(-0.082)" fill="#e72c4e"/>
      <g id="그룹_1559" data-name="그룹 1559" transform="translate(0 0)">
        <g id="그룹_1558" data-name="그룹 1558" clip-path="url(#clip-path)">
          <path id="패스_7660" data-name="패스 7660" d="M328.482,14.509h2.384V8.584a2.632,2.632,0,0,1,5.263,0v5.925H338.5V8.594a5.014,5.014,0,0,0-5-5.071h0a5.047,5.047,0,0,0-2.642.742V.119h-2.374Z" transform="translate(-280.839 -0.102)" fill="#071039"/>
          <path id="패스_7661" data-name="패스 7661" d="M171.955,23.667a5.487,5.487,0,1,0,5.491,5.487,5.489,5.489,0,0,0-5.491-5.487m0,8.6a3.116,3.116,0,1,1,3.119-3.116,3.118,3.118,0,0,1-3.119,3.116" transform="translate(-142.32 -20.234)" fill="#071039"/>
          <path id="패스_7662" data-name="패스 7662" d="M9.773,19.22a5.806,5.806,0,0,0-4.448-2.5v2.4H4.982a4.933,4.933,0,0,0-4.971,4.4,4.546,4.546,0,0,0,0,.661v7.967H2.386V27.95a5.1,5.1,0,0,0,1.289.546,6.36,6.36,0,0,0,1.651.22,5.6,5.6,0,0,0,5.415-3.854,6.325,6.325,0,0,0-.968-5.643M8.526,23.854c-.021.089-.045.177-.073.263a3.114,3.114,0,0,1-2.1,2.047,3.305,3.305,0,0,1-3.46-.9,2.256,2.256,0,0,1-.487-1.574,2.561,2.561,0,0,1,2.633-2.171v0h.282V19.126a3.46,3.46,0,0,1,2.5,1.507,4.178,4.178,0,0,1,.742,1.739,3.325,3.325,0,0,1-.041,1.481" transform="translate(0 -14.293)" fill="#071039"/>
          <path id="패스_7663" data-name="패스 7663" d="M258.792,31.205a3.117,3.117,0,1,1,.01-4.088l1.664-1.691a5.487,5.487,0,1,0-.011,7.47Z" transform="translate(-214.555 -20.235)" fill="#071039"/>
          <path id="패스_7664" data-name="패스 7664" d="M92.924,31.021a3.652,3.652,0,0,1-2.847,1.353A2.918,2.918,0,0,1,87.038,30.3l-.072-.254h8.212l.01-.158c.021-.311.04-.6.04-.864a5.111,5.111,0,0,0-5.24-5.438,5.25,5.25,0,0,0-5.394,5.46,5.282,5.282,0,0,0,5.394,5.526,5.41,5.41,0,0,0,4.461-2.166L93,30.921Zm-5.885-3.163a2.784,2.784,0,0,1,2.923-2.072,2.715,2.715,0,0,1,2.828,2.079l.061.248H86.966Z" transform="translate(-72.324 -20.165)" fill="#071039"/>
        </g>
      </g>
    </g>
  </g>
</svg>
