<svg xmlns="http://www.w3.org/2000/svg" xmlns:xlink="http://www.w3.org/1999/xlink" width="154.092" height="116.037" viewBox="0 0 154.092 116.037">
  <defs>
    <clipPath id="clip-path">
      <rect id="사각형_3435" data-name="사각형 3435" width="38.528" height="11.926" fill="none"/>
    </clipPath>
  </defs>
  <g id="그룹_1667" data-name="그룹 1667" transform="translate(-165.74 -2740.979)">
    <path id="패스_7722" data-name="패스 7722" d="M-2.052-5.364a.271.271,0,0,0-.288-.288,8.309,8.309,0,0,0-1.068-.024.673.673,0,0,0-.36.12,2.443,2.443,0,0,1-1,.2c-.66.024-1.56.036-2.664.036-.24,0-.36-.132-.36-.384V-7.308A3.9,3.9,0,0,1-7.764-7.8c.024-.2-.036-.324-.2-.36a6.573,6.573,0,0,0-1.3-.108c-.156,0-.372.132-.372.228a.072.072,0,0,0,.012.048,2.013,2.013,0,0,0,.54.168.911.911,0,0,1,.6.336v1.512c0,.768.324,1.056,1.272,1.056,1.14,0,2.724-.036,4.7-.1C-2.22-5.028-2.052-5.124-2.052-5.364ZM-.36-3.444c0-.132-.084-.228-.276-.276a4.392,4.392,0,0,0-1.092-.132.876.876,0,0,0-.372.084,3.951,3.951,0,0,1-1.272.2c-1.8.072-3.648.108-5.508.108a11.161,11.161,0,0,1-1.8-.132c-.12-.012-.18,0-.18.06a.29.29,0,0,0,.144.216,3.753,3.753,0,0,0,1.14.516,1.8,1.8,0,0,0,.216.036.51.51,0,0,0,.144-.06,3.548,3.548,0,0,1,1.128-.2c1.392-.108,3.336-.168,5.76-.168.528,0,1.008.024,1.4.06S-.36-3.192-.36-3.444ZM-2.136.84c0-.132-.084-.2-.276-.24A5.009,5.009,0,0,0-3.432.552.709.709,0,0,0-3.8.672,2.952,2.952,0,0,1-4.992.864C-5.76.888-6.516.888-7.224.876-7.476.864-7.6.732-7.6.468V-.792a3.474,3.474,0,0,1,.024-.492c.036-.2-.024-.336-.18-.372a7.779,7.779,0,0,0-1.392-.1c-.156,0-.372.108-.372.2a.178.178,0,0,0,.012.084,2.22,2.22,0,0,0,.576.168c.36.084.588.18.648.312l.012,1.2c0,.744.264,1.008,1.236,1.008,1.14-.024,2.616-.036,4.44-.036C-2.28,1.188-2.136,1.068-2.136.84ZM-148.38,11.488a.092.092,0,0,0-.024-.06.6.6,0,0,0-.336-.132,2.835,2.835,0,0,0-.42-.06.546.546,0,0,0-.24.06.85.85,0,0,1-.336.108c-.732.06-1.68.084-2.82.072a3.288,3.288,0,0,0-.408-.132,5.225,5.225,0,0,0-1-.084c-.2,0-.3.048-.3.168,0,.048.06.084.168.12a1.661,1.661,0,0,1,.732.42l.312,3.6c.036.4.1.588.18.588.216,0,.348-.216.4-.66,1.26-.036,2.376-.06,3.4-.048q.432,0,.432-.216c0-.12-.156-.228-.468-.288.12-.636.276-1.68.456-3.168a.808.808,0,0,1,.168-.132A.258.258,0,0,0-148.38,11.488Zm-1.176,3.42a.293.293,0,0,1-.276.168q-1.278.09-2.628.072l-.12-2.952s.024-.192.036-.36c.528-.024,1.572-.048,3.12-.06Zm5.988-1.344a.289.289,0,0,0-.24-.276,1.9,1.9,0,0,0-1.128.012,1.147,1.147,0,0,0-.228.132,1.1,1.1,0,0,1-.732.2v-2.6c0-.048,0-.18.012-.444a.881.881,0,0,1,.024-.288.31.31,0,0,0-.228-.3,4.945,4.945,0,0,0-1.488-.24c-.264,0-.384.06-.384.192,0,.06.06.1.168.12a2.289,2.289,0,0,1,1.212.636v5.016c0,.516.084.78.264.78.156,0,.264-.264.336-.78a7.956,7.956,0,0,0,.084-1.248v-.528c.264-.012.528-.012.8-.024.576-.012.912-.024,1.044-.024C-143.724,13.9-143.568,13.792-143.568,13.564Zm-2.208,3.5c0-.072-.072-.132-.2-.168a1.209,1.209,0,0,0-.444-.084c-.144,0-.468.12-.612.132-1.992.108-3.228.156-3.684.156a11.694,11.694,0,0,1-1.536-.1c-.156-.024-.24,0-.24.084,0,.06.06.132.168.192a4.088,4.088,0,0,0,.972.432c.168.036.252.06.276.06a.441.441,0,0,0,.192-.06,3.4,3.4,0,0,1,1.2-.276c1.416-.084,2.436-.12,3.06-.12v2.616c0,.684.072,1.02.228,1.02s.288-.312.372-.948a8.366,8.366,0,0,0,.06-.84l.024-1.812A.994.994,0,0,0-145.776,17.068Zm7.776-5.58a.092.092,0,0,0-.024-.06.6.6,0,0,0-.336-.132,2.835,2.835,0,0,0-.42-.06.546.546,0,0,0-.24.06.85.85,0,0,1-.336.108c-.732.06-1.68.084-2.82.072a3.288,3.288,0,0,0-.408-.132,5.225,5.225,0,0,0-1-.084c-.2,0-.3.048-.3.168,0,.048.06.084.168.12a1.661,1.661,0,0,1,.732.42l.312,3.6c.036.4.1.588.18.588.216,0,.348-.216.4-.66,1.26-.036,2.376-.06,3.4-.048q.432,0,.432-.216c0-.12-.156-.228-.468-.288.12-.636.276-1.68.456-3.168a.808.808,0,0,1,.168-.132A.258.258,0,0,0-138,11.488Zm-1.176,3.42a.293.293,0,0,1-.276.168q-1.278.09-2.628.072l-.12-2.952s.024-.192.036-.36c.528-.024,1.572-.048,3.12-.06Zm5.988-1.344a.289.289,0,0,0-.24-.276,1.9,1.9,0,0,0-1.128.012,1.147,1.147,0,0,0-.228.132,1.1,1.1,0,0,1-.732.2v-2.6c0-.048,0-.18.012-.444a.881.881,0,0,1,.024-.288.31.31,0,0,0-.228-.3,4.945,4.945,0,0,0-1.488-.24c-.264,0-.384.06-.384.192,0,.06.06.1.168.12a2.289,2.289,0,0,1,1.212.636v5.016c0,.516.084.78.264.78.156,0,.264-.264.336-.78a7.956,7.956,0,0,0,.084-1.248v-.528c.264-.012.528-.012.8-.024.576-.012.912-.024,1.044-.024C-133.344,13.9-133.188,13.792-133.188,13.564Zm-2.208,3.5c0-.072-.072-.132-.2-.168a1.209,1.209,0,0,0-.444-.084c-.144,0-.468.12-.612.132-1.992.108-3.228.156-3.684.156a11.694,11.694,0,0,1-1.536-.1c-.156-.024-.24,0-.24.084,0,.06.06.132.168.192a4.088,4.088,0,0,0,.972.432c.168.036.252.06.276.06a.441.441,0,0,0,.192-.06,3.4,3.4,0,0,1,1.2-.276c1.416-.084,2.436-.12,3.06-.12v2.616c0,.684.072,1.02.228,1.02s.288-.312.372-.948a8.366,8.366,0,0,0,.06-.84l.024-1.812A.994.994,0,0,0-135.4,17.068Zm7.044-2.436a1.671,1.671,0,0,0-1.656-1.6.291.291,0,0,0,.108-.216.389.389,0,0,0-.156-.276.318.318,0,0,1-.072-.06c.384-.012.768-.012,1.152-.024.36-.012.684,0,1.02.012.264.012.4-.072.4-.24s-.108-.276-.324-.312a2.808,2.808,0,0,0-.6-.072.973.973,0,0,0-.468.1,1.246,1.246,0,0,1-.732.192c-.756.048-1.536.072-2.316.072a10.054,10.054,0,0,1-1.3-.1c-.108-.012-.156.012-.156.072a.187.187,0,0,0,.1.156,2.581,2.581,0,0,0,.744.384,1.393,1.393,0,0,0,.264.06.489.489,0,0,0,.216-.06,2.03,2.03,0,0,1,.768-.168c.24-.012.48-.036.732-.048.084.084.228.192.228.336a.221.221,0,0,1-.1.168,2.249,2.249,0,0,0-1.284.456,1.417,1.417,0,0,0-.588,1.164,1.541,1.541,0,0,0,.576,1.2,2.278,2.278,0,0,0,1.44.468C-129.144,16.3-128.352,15.6-128.352,14.632Zm2.016-3.72a.3.3,0,0,0-.192-.312,4.277,4.277,0,0,0-1.272-.252c-.228,0-.36.06-.36.168,0,.06.06.1.18.132a1.866,1.866,0,0,1,.96.516v4.524c0,.516.072.78.228.78s.276-.264.36-.78a9.485,9.485,0,0,0,.072-1.3V14.02l1.548-.048v1.92c0,.528.084.78.24.78s.276-.252.36-.78a9.7,9.7,0,0,0,.072-1.332V10.972a2.156,2.156,0,0,1,.036-.372,1.79,1.79,0,0,0,.024-.252.327.327,0,0,0-.24-.312,4.855,4.855,0,0,0-1.392-.276c-.252,0-.372.06-.372.192,0,.048.048.084.156.108a2.108,2.108,0,0,1,1.128.636l-.012,2.844-1.548.048V11.176C-126.348,11.02-126.336,10.924-126.336,10.912Zm-4,2.46a1.247,1.247,0,0,1,1.368,1.224,1.268,1.268,0,0,1-1.368,1.272,1.286,1.286,0,0,1-1.38-1.272A1.244,1.244,0,0,1-130.332,13.372Zm5.64,3.78a.272.272,0,0,0-.156-.252A5.056,5.056,0,0,0-126,16.48a1.686,1.686,0,0,0-.216-.024c-.192,0-.276.048-.276.132,0,.024.048.084.168.144a1.419,1.419,0,0,1,.744.66,9.394,9.394,0,0,1-2.58,3.252c-.1.084-.144.144-.144.192s.024.1.084.1a.51.51,0,0,0,.216-.1,9.064,9.064,0,0,0,2.628-2.34l1.488,1.944c.12.156.228.228.312.228.132,0,.192-.084.192-.252a.56.56,0,0,0-.036-.2,4.556,4.556,0,0,0-.48-.948,1.117,1.117,0,0,0-.384-.264,1.823,1.823,0,0,1-.492-.468l-.36-.42a5.379,5.379,0,0,0,.348-.7A1.212,1.212,0,0,0-124.692,17.152Zm-2.88,2.316a1.329,1.329,0,0,0-.024-.228,1.769,1.769,0,0,0-.216-.5,1.191,1.191,0,0,0-.4-.276,1.4,1.4,0,0,1-.324-.228l-.348-.312a3.05,3.05,0,0,0,.192-.336.591.591,0,0,0,.084-.264.242.242,0,0,0-.036-.132,2.684,2.684,0,0,0-1.2-.456.952.952,0,0,0-.2-.024c-.192,0-.288.036-.288.12,0,.036.036.084.12.12a1.426,1.426,0,0,1,.756.612,7.424,7.424,0,0,1-2.46,2.856.269.269,0,0,0-.132.192c0,.06.024.1.084.1a.851.851,0,0,0,.192-.084,8.149,8.149,0,0,0,2.676-2.376l1.08,1.272c.1.108.168.168.228.168Q-127.572,19.7-127.572,19.468ZM-129.2,11.1c0-.168-.144-.24-.4-.24a9.8,9.8,0,0,1-2.052-.168c-.12-.012-.192-.024-.228-.024q-.144,0-.144.072a.272.272,0,0,0,.084.168,3.076,3.076,0,0,0,.612.48.942.942,0,0,0,.576.108,1.353,1.353,0,0,0,.168-.024c.312-.036.636-.06,1-.072C-129.336,11.392-129.2,11.284-129.2,11.1Zm12.8,4.368c0-.084-.024-.12-.072-.12a.642.642,0,0,0-.216.048c-.612.156-1.116.264-1.488.324a15.88,15.88,0,0,1-2.556.252c-.192,0-.288-.1-.288-.3l-.012-3.168c0-.108.012-.24.024-.4,1.368-.048,2.544-.072,3.516-.072.3,0,.456-.12.456-.336.012-.156-.072-.264-.348-.312a2.326,2.326,0,0,0-.78-.012,1.363,1.363,0,0,0-.456.192,1.743,1.743,0,0,1-.708.108c-.324.024-.852.036-1.608.024a3,3,0,0,0-.372-.12,8.549,8.549,0,0,0-1.128-.108c-.168,0-.384.108-.384.216,0,.06.048.108.144.12a1.3,1.3,0,0,1,.948.456l.036,3.252a1.557,1.557,0,0,0,.12.72.666.666,0,0,0,.264.3,1.387,1.387,0,0,0,.588.048,16.276,16.276,0,0,0,2.736-.48,8.385,8.385,0,0,0,1.4-.456C-116.46,15.58-116.4,15.532-116.4,15.472Zm2.316-5.16a.3.3,0,0,0-.24-.312,4.962,4.962,0,0,0-1.5-.24c-.252,0-.372.06-.372.192,0,.06.048.1.156.12a2.452,2.452,0,0,1,1.236.624V13.42a20.648,20.648,0,0,1-2.148.12c-.468,0-.852-.024-1.152-.048-.144-.012-.228.012-.228.072s.048.1.132.144a3.806,3.806,0,0,0,.948.444.784.784,0,0,0,.132.024.332.332,0,0,0,.156-.036,1.673,1.673,0,0,1,.456-.144,17.033,17.033,0,0,1,1.7-.156v3.276c0,.66.072,1,.216,1s.264-.336.36-1a11.721,11.721,0,0,0,.1-1.6V11.032C-114.132,10.876-114.084,10.468-114.084,10.312Zm.576,9.636c0-.156-.084-.24-.252-.276a6.55,6.55,0,0,0-1.044-.036.673.673,0,0,0-.36.12,2.888,2.888,0,0,1-1.188.2c-1.032.036-1.8.036-2.28.024a.377.377,0,0,1-.372-.432V18.268a3.794,3.794,0,0,1,.012-.468c.024-.228-.036-.372-.18-.408a7.323,7.323,0,0,0-1.356-.1c-.168,0-.384.108-.384.216,0,.06.048.108.168.132a2.169,2.169,0,0,1,1.068.42l.012,1.224a1,1,0,0,0,.252.8,1.385,1.385,0,0,0,.984.252c1.56-.024,3.036-.036,4.476-.036C-113.664,20.308-113.508,20.188-113.508,19.948Zm6.228-7.26c0,1.248,1.164,2.076,2.592,2.076s2.592-.828,2.592-2.076a2.2,2.2,0,0,0-2.124-2.052.8.8,0,0,0,.156-.312.187.187,0,0,0-.132-.156.961.961,0,0,0-.468-.132c-.156,0-.252.024-.264.072s.012.072.048.108c.132.072.192.144.192.216a.286.286,0,0,1-.072.168A2.3,2.3,0,0,0-107.28,12.688Zm.708-.012a1.758,1.758,0,0,1,1.908-1.668,1.758,1.758,0,0,1,1.908,1.668,1.749,1.749,0,0,1-1.908,1.656A1.749,1.749,0,0,1-106.572,12.676Zm5.436,7.2c0-.132-.084-.2-.264-.228a6.615,6.615,0,0,0-1.044-.036.8.8,0,0,0-.36.108,3.114,3.114,0,0,1-1.188.2c-.816.036-1.584.036-2.28.012-.252-.012-.372-.168-.372-.432V18.22a3.669,3.669,0,0,1,.012-.456c.024-.228-.036-.384-.18-.42a6.739,6.739,0,0,0-1.38-.1c-.156,0-.372.12-.372.228,0,.06.048.108.156.12q.972.216,1.08.432l.012,1.26a1.02,1.02,0,0,0,.252.768.849.849,0,0,0,.444.2c.084.012.264.012.54.024.228,0,.9,0,2.04-.012,1.224-.012,2.04-.012,2.436-.012C-101.292,20.26-101.136,20.14-101.136,19.876Zm1.716-4.128c0-.144-.084-.228-.276-.288a4.055,4.055,0,0,0-1.092-.132.9.9,0,0,0-.372.072,3.943,3.943,0,0,1-1.272.216c-1.452.072-3.312.1-5.508.1a9.487,9.487,0,0,1-1.8-.144c-.12-.012-.18,0-.18.06a.257.257,0,0,0,.144.216,3.283,3.283,0,0,0,1.14.528,1.264,1.264,0,0,0,.216.036.286.286,0,0,0,.144-.048,3.12,3.12,0,0,1,1.128-.24c1.188-.084,3.108-.132,5.76-.132.552,0,1.008.024,1.4.06S-99.42,15.988-99.42,15.748Zm6.648-.336c0-.144-.084-.228-.276-.252a5.057,5.057,0,0,0-.96-.024,2.222,2.222,0,0,0-.372.132,2.824,2.824,0,0,1-1,.228c-.408.024-.936.048-1.572.048-.3,0-.348-.06-.348-.348V14.02c2.232-.084,3.5-.12,3.84-.12.264,0,.408-.12.408-.336,0-.168-.1-.252-.3-.264a4.713,4.713,0,0,0-.912-.012c-.144.048-.264.1-.36.132a4.029,4.029,0,0,1-.888.144c-.72.036-1.308.06-1.788.06V12.532c0-.132,0-.264.012-.384,1.044-.036,2.388-.06,4.008-.084.264,0,.408-.12.408-.336,0-.168-.108-.264-.3-.276a4.887,4.887,0,0,0-1.1-.012c-.144.048-.252.1-.336.132a3.8,3.8,0,0,1-.9.144c-.4.024-.948.036-1.692.024a.993.993,0,0,0-.336-.108,6.771,6.771,0,0,0-1.2-.084c-.156,0-.4.108-.4.2,0,.072.048.12.156.132a1.7,1.7,0,0,1,.984.444V14.9a1.146,1.146,0,0,0,.252.816,1.681,1.681,0,0,0,1.02.216c.18.012.48,0,.84-.012V17.68c-.564.048-1.152.1-1.764.12a8.269,8.269,0,0,1-1.548-.072c-.132-.012-.2.012-.2.084,0,.12.192.288.588.468a3.593,3.593,0,0,0,.756.3.68.68,0,0,0,.216.036.467.467,0,0,0,.276-.084.943.943,0,0,1,.468-.156c1.512-.192,2.472-.336,2.844-.408,1.764-.336,2.772-.54,3.036-.6V20.14c0,.6.06.888.2.888s.252-.288.336-.864a22.211,22.211,0,0,0,.132-2.784V11.032c0-.144.036-.552.036-.732a.285.285,0,0,0-.228-.3,5.083,5.083,0,0,0-1.5-.24c-.264,0-.384.06-.384.192,0,.06.06.1.168.12a2.37,2.37,0,0,1,1.236.636v6.336c-1.284.2-2.352.348-3.168.468-.264.036-.54.072-.816.108V15.892c.612-.036,1.308-.072,1.956-.108C-92.94,15.772-92.772,15.652-92.772,15.412Zm14.832-5.1A.3.3,0,0,0-78.18,10a4.81,4.81,0,0,0-1.476-.24c-.264,0-.384.06-.384.192,0,.06.06.1.168.12a2.288,2.288,0,0,1,1.212.636V20.14c0,.588.06.876.2.876s.264-.276.348-.852a22.484,22.484,0,0,0,.132-2.784V15.316c.672-.012,1.284-.036,1.848-.048.324,0,.48-.108.48-.348a.289.289,0,0,0-.24-.276,2.117,2.117,0,0,0-1.128.012,1.148,1.148,0,0,0-.228.132,1.1,1.1,0,0,1-.732.2v-3.96C-77.976,10.888-77.94,10.468-77.94,10.312Zm-2.688,1.8c0-.072-.06-.144-.192-.18a1.587,1.587,0,0,0-.5-.108c-.144,0-.48.132-.636.144-.66.06-1.68.108-2.58.1a8.179,8.179,0,0,1-1.248-.108c-.108-.012-.156.012-.156.084a.2.2,0,0,0,.12.168,4.114,4.114,0,0,0,.948.408.37.37,0,0,0,.12.012.23.23,0,0,0,.144-.06,2.043,2.043,0,0,1,.924-.192c.636-.036,1.332-.06,1.956-.048a11.84,11.84,0,0,1-1.752,2.916A13.712,13.712,0,0,1-86.22,17.86q-.108.09-.108.144c0,.084.024.12.072.12a.3.3,0,0,0,.156-.036,13.344,13.344,0,0,0,3.2-2.508c.132-.144.264-.3.384-.456l2,2.208a.489.489,0,0,0,.288.18A.2.2,0,0,0-80,17.3a2.075,2.075,0,0,0-.672-1.3,1.319,1.319,0,0,0-.42-.2,1.619,1.619,0,0,1-.528-.348l-.624-.66A11.01,11.01,0,0,0-80.976,12.5a1.515,1.515,0,0,1,.216-.2C-80.676,12.22-80.628,12.16-80.628,12.112Zm12.936,4.812c0-.072-.06-.132-.168-.156a1.98,1.98,0,0,0-.588-.1,1.232,1.232,0,0,0-.24.072,1.721,1.721,0,0,1-.264.048c-1.032.06-2.5.108-3.576.108a1.523,1.523,0,0,0-.444-.132,6.624,6.624,0,0,0-.972-.072c-.2,0-.312.048-.312.144,0,.072.072.108.18.132a1.566,1.566,0,0,1,.8.4l.264,2.9c.048.36.108.528.216.528.18,0,.3-.18.336-.552q1.08-.036,4.212-.036c.324,0,.48-.06.48-.2s-.18-.228-.552-.288c.12-.612.24-1.392.348-2.352C-67.956,17.152-67.692,17.032-67.692,16.924Zm-1.008.24-.06,2.52a.32.32,0,0,1-.24.156,32.083,32.083,0,0,1-3.456.084l-.06-2.376a1.317,1.317,0,0,1,.012-.324C-71.148,17.176-69.948,17.164-68.7,17.164Zm3.24-2.4c0-.12-.1-.2-.288-.264a3.184,3.184,0,0,0-1.02-.156.851.851,0,0,0-.384.108,3.517,3.517,0,0,1-1.14.2c.264-.792.456-1.428.588-1.908a11.2,11.2,0,0,0,.3-1.56c.168-.132.252-.24.252-.312s-.06-.144-.168-.168a2.826,2.826,0,0,0-.612-.072.71.71,0,0,0-.312.1.643.643,0,0,1-.324.072c-1.392.084-2.748.132-4.044.132a10.048,10.048,0,0,1-1.548-.12c-.144-.024-.216,0-.216.084,0,.06.048.132.156.2a4.2,4.2,0,0,0,.96.432,1.215,1.215,0,0,0,.264.048.442.442,0,0,0,.2-.06,2.877,2.877,0,0,1,1.188-.252c1.3-.072,2.412-.12,3.36-.108q-.018.846-.108,1.584c-.12.924-.2,1.56-.276,1.92-1.7.072-3.5.1-5.352.1a10.947,10.947,0,0,1-1.8-.132c-.12-.024-.18,0-.18.06s.048.132.144.2a3.617,3.617,0,0,0,1.152.528.81.81,0,0,0,.2.036.435.435,0,0,0,.156-.06,3.744,3.744,0,0,1,1.128-.216c1.272-.108,3.192-.168,5.76-.168a11.942,11.942,0,0,1,1.44.084.616.616,0,0,0,.444-.1A.338.338,0,0,0-65.46,14.764Zm7.944-2.472c0-.06-.036-.1-.12-.132a1.446,1.446,0,0,0-.564-.1.53.53,0,0,0-.228.084,1.039,1.039,0,0,1-.324.06c-1.092.072-1.86.1-2.316.084-.492-.024-.84-.048-1.008-.072h-.084a.1.1,0,0,0-.084.1c0,.06.06.108.156.168a4.624,4.624,0,0,0,.816.384.926.926,0,0,0,.18.024.54.54,0,0,0,.228-.1,2.031,2.031,0,0,1,.684-.144c.312-.024.864-.048,1.668-.1a11.632,11.632,0,0,1-1.5,2.868,13.432,13.432,0,0,1-2.376,2.7c-.06.06-.1.108-.1.144,0,.084.036.12.084.12a.194.194,0,0,0,.108-.036,12.05,12.05,0,0,0,3.912-4.38,2.585,2.585,0,0,0,.408.2.486.486,0,0,0,.144.036,5.273,5.273,0,0,0,.6-.168,7.482,7.482,0,0,1,1.068-.108v1.908a12.948,12.948,0,0,1-1.524.108,6.241,6.241,0,0,1-1.092-.06q-.18-.018-.18.108c0,.036.036.084.12.144a2.419,2.419,0,0,0,.72.372.431.431,0,0,0,.132.024,5.917,5.917,0,0,0,.588-.156c.492-.072.9-.108,1.236-.132v3.012c0,.552.072.816.192.816.216,0,.348-.576.408-1.74.048-.744.06-1.3.06-1.644V11.764a2.354,2.354,0,0,1,.012-.372c.012-.168.024-.264.024-.276a.29.29,0,0,0-.2-.3,4.22,4.22,0,0,0-1.272-.264c-.228,0-.336.06-.336.168,0,.072.048.12.156.144a1.57,1.57,0,0,1,.96.576v2.124c-.384.048-.816.06-1.368.072a4.021,4.021,0,0,1-.672-.012q.216-.432.4-.9a1.113,1.113,0,0,1,.156-.216A.36.36,0,0,0-57.516,12.292Zm4.152-1.944a.331.331,0,0,0-.228-.312,4.573,4.573,0,0,0-1.392-.276c-.252,0-.372.06-.372.192,0,.048.048.084.156.108a2.02,2.02,0,0,1,1.128.636v9.288c0,.7.06,1.032.18,1.032.144,0,.348-.516.4-1.236.048-.684.072-1.4.072-2.148v-6.66a2.674,2.674,0,0,1,.036-.384A1.626,1.626,0,0,0-53.364,10.348Zm9.384-.036A.327.327,0,0,0-44.22,10,4.929,4.929,0,0,0-45.7,9.76c-.264,0-.384.072-.384.2,0,.048.048.084.156.108a2.417,2.417,0,0,1,1.224.636V17c0,.66.072.984.228.984s.276-.324.36-.972a12.83,12.83,0,0,0,.084-1.6V14.368c.684-.012,1.3-.024,1.86-.036.324-.012.48-.132.48-.36a.289.289,0,0,0-.24-.276,1.9,1.9,0,0,0-1.128.012,2,2,0,0,0-.228.144,1.108,1.108,0,0,1-.744.192v-3C-44.028,10.864-43.98,10.468-43.98,10.312Zm-4.152,1.332c0-.192-.252-.372-.792-.564-.084-.024-.276-.084-.588-.168a1.076,1.076,0,0,0-.216-.024c-.168,0-.252.036-.252.12q0,.09.144.144a1.2,1.2,0,0,1,.78.768,10.873,10.873,0,0,1-2.988,4.392c-.156.132-.228.216-.228.264s.024.072.084.072a.609.609,0,0,0,.252-.1,8.631,8.631,0,0,0,2.844-2.892l2.412,2.3a.465.465,0,0,0,.312.144c.144,0,.2-.072.2-.228a.736.736,0,0,0-.036-.192,2.726,2.726,0,0,0-.8-1.056,2.408,2.408,0,0,0-.468-.2,2.878,2.878,0,0,1-.672-.48l-.732-.636-.024.024a11.242,11.242,0,0,0,.684-1.428A.591.591,0,0,0-48.132,11.644ZM-43,19.912c0-.144-.084-.228-.264-.264A5.482,5.482,0,0,0-44.3,19.6a.709.709,0,0,0-.372.12,3.114,3.114,0,0,1-1.188.2c-.792.036-1.548.036-2.268.012-.252,0-.36-.144-.36-.408V18.16c0-.252.012-.408.012-.492.024-.216-.024-.336-.168-.372a8.273,8.273,0,0,0-1.392-.1c-.156,0-.372.108-.372.2,0,.072.048.132.156.144a1.9,1.9,0,0,1,1.08.42l.012,1.284a1.039,1.039,0,0,0,.252.8,1.418,1.418,0,0,0,.984.228c1.236-.036,2.724-.036,4.476-.024C-43.14,20.26-43,20.14-43,19.912Zm4.584-7.716c0-.072-.036-.108-.108-.144a1.546,1.546,0,0,0-.576-.192c-.18,0-.264.036-.264.1s.024.084.084.12c.144.084.2.168.2.252a.248.248,0,0,1-.06.18,2.478,2.478,0,0,0-1.608.6,2.093,2.093,0,0,0-.744,1.656,2.159,2.159,0,0,0,.708,1.656,2.489,2.489,0,0,0,1.728.624,2.474,2.474,0,0,0,1.728-.612,2.086,2.086,0,0,0,.684-1.464c.036.012.072.036.108.048a.377.377,0,0,0,.144.048.289.289,0,0,0,.18-.048,2.435,2.435,0,0,1,.912-.168v4.4q0,.828.18.828c.216,0,.36-.576.42-1.752.036-.744.06-1.3.06-1.644v-5.22c.012-.168.024-.252.024-.264,0-.168-.06-.276-.2-.312a4.277,4.277,0,0,0-1.272-.252c-.228,0-.336.06-.336.18,0,.06.06.1.168.108a1.672,1.672,0,0,1,.96.54v3.012a7.339,7.339,0,0,1-.828.048,3.675,3.675,0,0,1-.516,0,2.08,2.08,0,0,0-.7-1.38,2.3,2.3,0,0,0-1.26-.6A.836.836,0,0,0-38.412,12.2Zm1.14,2.568a1.748,1.748,0,0,1-.492,1.26,1.721,1.721,0,0,1-1.248.5,1.737,1.737,0,0,1-1.272-.5,1.719,1.719,0,0,1-.48-1.26,1.72,1.72,0,0,1,.492-1.248A1.674,1.674,0,0,1-39.012,13a1.658,1.658,0,0,1,1.236.516A1.682,1.682,0,0,1-37.272,14.764Zm4.668-4.416a.316.316,0,0,0-.228-.312,4.573,4.573,0,0,0-1.392-.276c-.252,0-.372.06-.372.192,0,.048.048.084.156.108a2.108,2.108,0,0,1,1.128.636v9.288c0,.7.06,1.032.18,1.032.144,0,.36-.516.408-1.236.06-.684.072-1.4.072-2.148v-6.66a2.674,2.674,0,0,1,.036-.384A1.608,1.608,0,0,0-32.6,10.348Zm10.02-.036a.3.3,0,0,0-.24-.312,4.962,4.962,0,0,0-1.5-.24c-.252,0-.372.06-.372.192,0,.06.048.1.156.12a2.323,2.323,0,0,1,1.236.636V14.08a16.563,16.563,0,0,1-1.716.108c-.372,0-.8-.012-1.08-.036-.144-.012-.216.012-.216.084a.223.223,0,0,0,.132.192,7.551,7.551,0,0,0,.816.42.268.268,0,0,0,.132.012.32.32,0,0,0,.144-.036,1.725,1.725,0,0,1,.468-.18,7.791,7.791,0,0,1,1.32-.132V20.14c0,.588.06.876.2.876s.264-.276.336-.852a22.484,22.484,0,0,0,.132-2.784V11.032C-22.632,10.888-22.584,10.468-22.584,10.312Zm-4.6,1.86a.307.307,0,0,0-.168-.264,4.607,4.607,0,0,0-1.116-.456.722.722,0,0,0-.24-.036c-.2,0-.3.036-.3.108s.06.12.192.18a1.333,1.333,0,0,1,.708.744,10.422,10.422,0,0,1-1.2,2.628,11.518,11.518,0,0,1-1.956,2.352c-.12.12-.18.192-.18.252s.024.084.084.084a.542.542,0,0,0,.288-.12A11.443,11.443,0,0,0-28.62,15.22c.156-.228.3-.444.444-.672l2.088,2.784c.108.144.2.228.348.228a.2.2,0,0,0,.216-.216,1.673,1.673,0,0,0-.228-.744,2.854,2.854,0,0,0-.528-.78,2.94,2.94,0,0,0-.288-.192,2.918,2.918,0,0,1-.84-.816l-.528-.684a8.817,8.817,0,0,0,.684-1.68C-27.2,12.268-27.18,12.184-27.18,12.172Zm14.052-1.656a.23.23,0,0,0-.168-.228,3.672,3.672,0,0,0-1.248-.228c-.12,0-.372.084-.372.192a.127.127,0,0,0,.12.144,1.445,1.445,0,0,1,.9.516v1.14l-4.152.06.012-.78a1.318,1.318,0,0,1,.012-.252,1.039,1.039,0,0,0,.012-.132c0-.192-.1-.288-.3-.324a8.875,8.875,0,0,0-1.2-.12c-.132,0-.336.108-.336.192a.152.152,0,0,0,.144.168,1.313,1.313,0,0,1,.924.456l.048,3.48c.012.336.072.492.192.492.228.012.384-.24.456-.744l4.188-.084q.018.5.18.5c.192,0,.336-.2.42-.624a5.376,5.376,0,0,0,.072-.732l.036-2.424a3.861,3.861,0,0,1,.012-.4C-13.176,10.72-13.128,10.564-13.128,10.516Zm2.388,5.592c0-.132-.084-.216-.276-.264a3.88,3.88,0,0,0-1.092-.144.9.9,0,0,0-.372.1,3.951,3.951,0,0,1-1.272.2c-1.812.072-3.66.108-5.508.108a11.161,11.161,0,0,1-1.8-.132c-.12-.024-.18,0-.18.06s.048.132.144.2a3.208,3.208,0,0,0,1.14.516,1.264,1.264,0,0,0,.216.036.377.377,0,0,0,.144-.048,3.832,3.832,0,0,1,1.128-.216q.864-.072,2.16-.108v3.7c0,.612.06.912.18.912.312,0,.492-1.236.492-3.888V16.4c.852-.012,1.836-.024,2.928-.024.528,0,1.008.024,1.4.06S-10.74,16.372-10.74,16.108Zm-3.156-2.04-4.176.072.024-1.632,4.152-.072Zm9.84,2.808c0-.084-.024-.12-.072-.12a.862.862,0,0,0-.2.024,21.267,21.267,0,0,1-4.1.6c-.192.012-.276-.084-.276-.276V15.016c1.176-.06,2.1-.108,2.772-.132.3-.012.444-.132.444-.348,0-.156-.1-.24-.3-.264a3.512,3.512,0,0,0-1.008,0,.711.711,0,0,0-.348.156,5.249,5.249,0,0,1-.612.144c-.42.024-.732.036-.948.036V12.76c0,.012.012-.12.036-.408,1.332-.036,2.424-.072,3.264-.108.324,0,.48-.12.48-.372,0-.108-.084-.192-.252-.24a2.327,2.327,0,0,0-.888-.024,3.357,3.357,0,0,0-.468.168,9.13,9.13,0,0,1-1,.1c-.108.012-.288.024-.564.036-.228.024-.408.036-.516.036-.192-.06-.324-.108-.384-.12a5.2,5.2,0,0,0-1.236-.1c-.264.012-.384.084-.384.192q0,.108.54.252a.969.969,0,0,1,.672.372l.024,4.368a1.468,1.468,0,0,0,.144.768.678.678,0,0,0,.48.348,2.214,2.214,0,0,0,.624-.012,16.688,16.688,0,0,0,3.924-1.008C-4.1,16.96-4.056,16.924-4.056,16.876ZM-1.824,10.3a.317.317,0,0,0-.24-.312A4.984,4.984,0,0,0-3.552,9.76c-.264,0-.384.06-.384.192,0,.048.048.084.156.108a2.4,2.4,0,0,1,1.236.648v3.42c-.468.036-.888.048-1.26.06a9.322,9.322,0,0,1-1.188-.06c-.144-.024-.216,0-.216.06s.036.108.12.168a3.169,3.169,0,0,0,.948.456.355.355,0,0,0,.12.024.32.32,0,0,0,.144-.036,2.467,2.467,0,0,1,.576-.18c.276-.036.528-.048.756-.06v5.58c0,.588.06.876.2.876s.264-.276.348-.852a22.734,22.734,0,0,0,.12-2.784V11.032C-1.872,10.888-1.824,10.48-1.824,10.3ZM-110.1,31.688c0,1.248,1.164,2.076,2.592,2.076s2.592-.828,2.592-2.076a2.2,2.2,0,0,0-2.124-2.052.8.8,0,0,0,.156-.312.187.187,0,0,0-.132-.156.961.961,0,0,0-.468-.132c-.156,0-.252.024-.264.072s.012.072.048.108c.132.072.192.144.192.216a.286.286,0,0,1-.072.168A2.3,2.3,0,0,0-110.1,31.688Zm.708-.012a1.758,1.758,0,0,1,1.908-1.668,1.758,1.758,0,0,1,1.908,1.668,1.749,1.749,0,0,1-1.908,1.656A1.749,1.749,0,0,1-109.392,31.676Zm5.436,7.2c0-.132-.084-.2-.264-.228a6.615,6.615,0,0,0-1.044-.036.8.8,0,0,0-.36.108,3.114,3.114,0,0,1-1.188.2c-.816.036-1.584.036-2.28.012-.252-.012-.372-.168-.372-.432V37.22a3.669,3.669,0,0,1,.012-.456c.024-.228-.036-.384-.18-.42a6.739,6.739,0,0,0-1.38-.1c-.156,0-.372.12-.372.228,0,.06.048.108.156.12q.972.216,1.08.432l.012,1.26a1.02,1.02,0,0,0,.252.768.849.849,0,0,0,.444.2c.084.012.264.012.54.024.228,0,.9,0,2.04-.012,1.224-.012,2.04-.012,2.436-.012C-104.112,39.26-103.956,39.14-103.956,38.876Zm1.716-4.128c0-.144-.084-.228-.276-.288a4.055,4.055,0,0,0-1.092-.132.9.9,0,0,0-.372.072,3.943,3.943,0,0,1-1.272.216c-1.452.072-3.312.1-5.508.1a9.487,9.487,0,0,1-1.8-.144c-.12-.012-.18,0-.18.06a.257.257,0,0,0,.144.216,3.283,3.283,0,0,0,1.14.528,1.264,1.264,0,0,0,.216.036.286.286,0,0,0,.144-.048,3.12,3.12,0,0,1,1.128-.24c1.188-.084,3.108-.132,5.76-.132.552,0,1.008.024,1.4.06S-102.24,34.988-102.24,34.748Zm6.648-.336c0-.144-.084-.228-.276-.252a5.057,5.057,0,0,0-.96-.024,2.222,2.222,0,0,0-.372.132,2.824,2.824,0,0,1-1,.228c-.408.024-.936.048-1.572.048-.3,0-.348-.06-.348-.348V33.02c2.232-.084,3.5-.12,3.84-.12.264,0,.408-.12.408-.336,0-.168-.1-.252-.3-.264a4.713,4.713,0,0,0-.912-.012c-.144.048-.264.1-.36.132a4.029,4.029,0,0,1-.888.144c-.72.036-1.308.06-1.788.06V31.532c0-.132,0-.264.012-.384,1.044-.036,2.388-.06,4.008-.084.264,0,.408-.12.408-.336,0-.168-.108-.264-.3-.276a4.887,4.887,0,0,0-1.1-.012c-.144.048-.252.1-.336.132a3.8,3.8,0,0,1-.9.144c-.4.024-.948.036-1.692.024a.993.993,0,0,0-.336-.108,6.771,6.771,0,0,0-1.2-.084c-.156,0-.4.108-.4.2,0,.072.048.12.156.132a1.7,1.7,0,0,1,.984.444V33.9a1.146,1.146,0,0,0,.252.816,1.681,1.681,0,0,0,1.02.216c.18.012.48,0,.84-.012V36.68c-.564.048-1.152.1-1.764.12a8.269,8.269,0,0,1-1.548-.072c-.132-.012-.2.012-.2.084,0,.12.192.288.588.468a3.593,3.593,0,0,0,.756.3.68.68,0,0,0,.216.036.467.467,0,0,0,.276-.084.943.943,0,0,1,.468-.156c1.512-.192,2.472-.336,2.844-.408,1.764-.336,2.772-.54,3.036-.6V39.14c0,.6.06.888.2.888s.252-.288.336-.864a22.211,22.211,0,0,0,.132-2.784V30.032c0-.144.036-.552.036-.732a.285.285,0,0,0-.228-.3,5.083,5.083,0,0,0-1.5-.24c-.264,0-.384.06-.384.192,0,.06.06.1.168.12a2.37,2.37,0,0,1,1.236.636v6.336c-1.284.2-2.352.348-3.168.468-.264.036-.54.072-.816.108V34.892c.612-.036,1.308-.072,1.956-.108C-95.76,34.772-95.592,34.652-95.592,34.412Zm12.2-3.324a.41.41,0,0,0-.18-.276c.912-.036,1.548-.06,1.932-.06a13.694,13.694,0,0,1,1.416.048.369.369,0,0,0,.42-.324c0-.264-.468-.4-1.2-.4a.77.77,0,0,0-.444.12,2.482,2.482,0,0,1-.96.2c-1.044.06-2.4.1-4.044.108a11.368,11.368,0,0,1-1.524-.1c-.108-.012-.156.012-.156.084a.157.157,0,0,0,.084.144,4.454,4.454,0,0,0,.924.468.917.917,0,0,0,.252.06.644.644,0,0,0,.228-.06,2.156,2.156,0,0,1,.744-.18c.228-.024.792-.072,1.728-.1a.333.333,0,0,1,.132.288.209.209,0,0,1-.072.144,2.659,2.659,0,0,0-1.56.5,1.553,1.553,0,0,0-.672,1.308,1.633,1.633,0,0,0,.672,1.344,2.7,2.7,0,0,0,1.716.516,2.672,2.672,0,0,0,1.728-.516,1.587,1.587,0,0,0,.672-1.344c0-.96-.756-1.656-1.968-1.788A.311.311,0,0,0-83.388,31.088Zm1.2,2c0,.792-.684,1.38-1.752,1.38-1.044,0-1.74-.588-1.74-1.38s.7-1.38,1.74-1.38S-82.188,32.324-82.188,33.092Zm3.528,2.592c0-.132-.084-.216-.276-.264a3.88,3.88,0,0,0-1.092-.144.9.9,0,0,0-.372.1,3.951,3.951,0,0,1-1.272.2c-1.812.072-3.66.108-5.508.108a11.161,11.161,0,0,1-1.8-.132c-.12-.024-.18,0-.18.06s.048.132.144.2a3.394,3.394,0,0,0,1.14.5,1.264,1.264,0,0,0,.216.036.377.377,0,0,0,.144-.048,3.832,3.832,0,0,1,1.128-.216c.576-.048,1.3-.084,2.148-.108v3.144c0,.6.072.9.2.9.168,0,.312-.312.4-.936a17.084,17.084,0,0,0,.084-2.028v-1.1c.852-.012,1.836-.024,2.928-.024.528,0,1.008.024,1.4.06S-78.66,35.936-78.66,35.684ZM-82.4,29.228c0-.192-.132-.276-.384-.276a18.985,18.985,0,0,1-2.772-.168c-.144-.012-.216-.024-.228-.024-.108,0-.168.024-.168.072,0,.084.108.2.324.384a3.323,3.323,0,0,0,.432.288.818.818,0,0,0,.492.108,2.571,2.571,0,0,1,.3-.036c.8-.036,1.356-.048,1.632-.06S-82.4,29.408-82.4,29.228ZM-66.756,37.8a1.849,1.849,0,0,0-.684-1.452,2.647,2.647,0,0,0-1.464-.552.987.987,0,0,0,.228-.3c0-.036-.048-.108-.156-.168a1.041,1.041,0,0,0-.6-.18c-.12,0-.168.036-.168.132s.288.192.288.324a.52.52,0,0,1-.156.192,2.625,2.625,0,0,0-1.524.54,1.8,1.8,0,0,0-.684,1.464,1.783,1.783,0,0,0,.684,1.428,2.645,2.645,0,0,0,1.764.576,2.684,2.684,0,0,0,1.788-.564A1.792,1.792,0,0,0-66.756,37.8Zm-2-7.848a.305.305,0,0,0-.192-.312,4.2,4.2,0,0,0-1.26-.252c-.228,0-.348.06-.348.168,0,.06.06.108.168.132a1.552,1.552,0,0,1,.948.528v3.972c0,.48.072.708.24.708s.264-.264.348-.768q.054-.468.072-1.3l1.548-.048v2.592c0,.456.072.7.228.7s.276-.24.36-.7a8.441,8.441,0,0,0,.06-1.212V29.972a2.535,2.535,0,0,1,.036-.372,1.773,1.773,0,0,0,.012-.252.289.289,0,0,0-.216-.312,4.448,4.448,0,0,0-1.4-.276c-.252,0-.372.06-.372.192,0,.048.06.084.168.108a2.063,2.063,0,0,1,1.128.636v2.712l-1.548.048V30.212C-68.784,30.128-68.76,30-68.76,29.948Zm1.344,7.824A1.6,1.6,0,0,1-69.2,39.3a1.572,1.572,0,0,1-1.776-1.524,1.61,1.61,0,0,1,1.776-1.56A1.607,1.607,0,0,1-67.416,37.772Zm-4.512-6.8q0-.126-.18-.252a3.01,3.01,0,0,0-1.044-.408,2.251,2.251,0,0,0-.24-.036c-.24,0-.348.036-.348.12,0,.06.06.108.192.156a1.168,1.168,0,0,1,.768.708,8.932,8.932,0,0,1-2.676,3.96.461.461,0,0,0-.168.24c0,.06.024.1.06.1a.567.567,0,0,0,.252-.108,8.837,8.837,0,0,0,2.6-2.616l1.776,1.836a.851.851,0,0,0,.468.288c.12,0,.18-.084.192-.252.012-.132-.18-.432-.576-.936a.979.979,0,0,0-.5-.3,1.426,1.426,0,0,1-.432-.324l-.72-.672a7.166,7.166,0,0,0,.5-1.212A1.51,1.51,0,0,0-71.928,30.968Zm12.072,1.692c0-.756-.7-1.308-1.764-1.4a.216.216,0,0,0,.084-.18.264.264,0,0,0-.156-.228.486.486,0,0,0-.108-.06c.42-.024.84-.036,1.248-.036.624,0,1.056.012,1.3.024s.384-.06.384-.252c0-.288-.468-.408-1.092-.408a.727.727,0,0,0-.42.132,2.684,2.684,0,0,1-1.02.18c-.708.048-1.56.072-2.58.072a8.11,8.11,0,0,1-1.32-.084c-.1-.012-.144.012-.144.084a.229.229,0,0,0,.084.144,2.473,2.473,0,0,0,.816.42,1.087,1.087,0,0,0,.264.06.441.441,0,0,0,.192-.06,3.625,3.625,0,0,1,.72-.168c.348-.036.684-.06,1.02-.084a.193.193,0,0,0,.084.048c.12.06.18.132.18.2a.264.264,0,0,1-.108.18c-1.176.06-1.944.624-1.944,1.416,0,.756.708,1.32,1.824,1.416v.792c-.48.048-1.008.084-1.584.1a7.188,7.188,0,0,1-1.428-.084c-.132-.024-.2,0-.2.06a.26.26,0,0,0,.144.228,3.788,3.788,0,0,0,.7.336,2.389,2.389,0,0,0,.732.216.677.677,0,0,0,.276-.084,1.167,1.167,0,0,1,.408-.156c.768-.1,1.572-.24,2.46-.4,1.356-.24,2.3-.456,2.916-.624v.468c0,.5.084.756.264.756.156,0,.264-.252.348-.78.036-.336.06-.924.072-1.752.264-.012.528-.012.8-.024.576-.012.912-.024,1.044-.024.324,0,.48-.12.48-.348a.269.269,0,0,0-.24-.264,2.236,2.236,0,0,0-1.128,0,2,2,0,0,0-.228.144,1.1,1.1,0,0,1-.732.2V30.032c0-.048,0-.192.012-.444a.881.881,0,0,1,.024-.288.31.31,0,0,0-.228-.3,4.945,4.945,0,0,0-1.488-.24c-.264,0-.384.06-.384.192,0,.06.06.1.168.12a2.288,2.288,0,0,1,1.212.636v4.464c-.744.156-1.74.336-3.036.516-.216.036-.444.072-.7.1v-.708C-60.564,33.968-59.856,33.416-59.856,32.66Zm3.24,6.708c0-.336-.432-.336-1.224-.336a.744.744,0,0,0-.348.12,3.392,3.392,0,0,1-1.14.18c-.7.036-1.536.048-2.472.036a.235.235,0,0,1-.264-.264V38c1.176-.048,2.7-.084,4.512-.1.18,0,.264-.06.264-.18s-.144-.2-.432-.264a6.456,6.456,0,0,0,.3-.984c.036-.156.264-.252.264-.36,0-.048-.048-.084-.132-.12a2.416,2.416,0,0,0-.648-.12c-.18,0-.312.12-.552.132a31.935,31.935,0,0,1-3.648.108,9.54,9.54,0,0,1-1.164-.108c-.132-.012-.192.012-.192.1a.172.172,0,0,0,.1.12,2.492,2.492,0,0,0,1.188.48,1,1,0,0,0,.3-.1,2.451,2.451,0,0,1,.828-.156c1.32-.06,2.3-.084,2.928-.1a10.968,10.968,0,0,1-.036,1.1.347.347,0,0,1-.192.108c-1.068.048-2.244.072-3.492.072a.545.545,0,0,1-.168-.012.882.882,0,0,0-.252-.084,8.733,8.733,0,0,0-1.116-.084c-.18,0-.276.048-.276.144,0,.06.048.108.156.132a1.6,1.6,0,0,1,.78.324v.792a.9.9,0,0,0,.24.72.961.961,0,0,0,.684.144q2.862-.054,4.788-.036C-56.76,39.68-56.616,39.584-56.616,39.368Zm-3.852-6.732c0,.564-.66,1.02-1.476,1.02-.888,0-1.524-.456-1.524-1.02,0-.54.636-1,1.524-1a1.77,1.77,0,0,1,1.032.3A.828.828,0,0,1-60.468,32.636Zm-.276-3.1c0-.156-.144-.228-.4-.228a12.5,12.5,0,0,1-2.448-.192,1.194,1.194,0,0,0-.2-.036c-.108,0-.156.024-.156.084a.227.227,0,0,0,.084.168,2.276,2.276,0,0,0,.564.42.905.905,0,0,0,.54.144,1.831,1.831,0,0,1,.216-.012l1.416-.072C-60.876,29.8-60.744,29.708-60.744,29.54Zm14.424-.228A.29.29,0,0,0-46.548,29a4.979,4.979,0,0,0-1.512-.24c-.252,0-.372.06-.372.192,0,.06.06.1.168.12a2.283,2.283,0,0,1,1.224.636V39.14c0,.588.072.876.2.876.156,0,.264-.276.348-.852a22.484,22.484,0,0,0,.132-2.784V30.032C-46.356,29.888-46.32,29.468-46.32,29.312Zm-2.94,1.524a.228.228,0,0,0-.18-.228,4.076,4.076,0,0,0-1.284-.264c-.156,0-.36.108-.36.192s.036.12.132.156a1.991,1.991,0,0,1,.924.468v1.86l-3.216.048.012-1.188a1.534,1.534,0,0,1,.012-.252,1.394,1.394,0,0,1,.012-.156c0-.18-.1-.276-.3-.312a8.541,8.541,0,0,0-1.2-.12c-.144,0-.324.12-.324.216s.1.144.2.168a1.557,1.557,0,0,1,.864.432l.072,4.668q0,.5.18.5c.192,0,.348-.276.432-.852l3.252-.036q0,.648.18.648c.192,0,.324-.216.408-.66a3.921,3.921,0,0,0,.06-.684l.06-3.888c0-.156,0-.3.012-.408C-49.308,31.1-49.26,30.884-49.26,30.836Zm-.768,4.9-3.228.048.012-2.292,3.216-.084Zm16.428-6.42A.3.3,0,0,0-33.84,29a4.929,4.929,0,0,0-1.476-.24c-.264,0-.384.06-.384.192,0,.06.048.1.156.12a2.409,2.409,0,0,1,1.224.624v4.476c-.684.168-1.716.348-3.12.576-.408.06-.84.12-1.3.168l.06-1.776.036-.408c.012-.108-.036-.168-.156-.18a6.045,6.045,0,0,0-1.128-.168c-.228,0-.36.048-.36.144,0,.072.06.12.168.144a1.345,1.345,0,0,1,.792.444v1.86c-.372.036-.756.06-1.14.084a6.606,6.606,0,0,1-1.44-.1c-.132-.024-.216,0-.216.084s.06.156.168.228a4.067,4.067,0,0,0,.684.3,2.259,2.259,0,0,0,.72.216.637.637,0,0,0,.264-.084,1.418,1.418,0,0,1,.42-.156,24.586,24.586,0,0,0,2.544-.42c1.26-.24,2.268-.456,3-.672v1.584c0,.672.072,1,.228,1s.276-.324.36-.984a12.759,12.759,0,0,0,.084-1.584v-.8c.276-.012.54-.012.816-.024.576-.012.912-.024,1.044-.024.324,0,.48-.12.48-.36a.269.269,0,0,0-.24-.264,2.236,2.236,0,0,0-1.128,0,2,2,0,0,0-.228.144,1.055,1.055,0,0,1-.744.2V30.032C-33.648,29.876-33.6,29.468-33.6,29.312Zm.888,9.624c0-.156-.084-.24-.276-.276a4.956,4.956,0,0,0-1.02-.048.709.709,0,0,0-.372.12,2.936,2.936,0,0,1-1.188.2c-1.164.036-1.908.06-2.232.048a.357.357,0,0,1-.372-.408V37.364a4.825,4.825,0,0,1,.012-.492c.024-.2-.036-.324-.168-.36A6.611,6.611,0,0,0-39.72,36.4c-.156,0-.372.12-.372.216,0,.06.048.108.156.132.66.156,1.02.288,1.08.432l.012,1.128c.012.756.276,1.032,1.236,1.02,1.872-.06,3.336-.072,4.44-.06C-32.856,39.272-32.712,39.164-32.712,38.936Zm-3.036-8.448c0-.084-.06-.156-.192-.18a2.871,2.871,0,0,0-.528-.084.716.716,0,0,0-.312.084.894.894,0,0,1-.324.084c-1.188.072-2.124.108-2.784.108a7.421,7.421,0,0,1-1.308-.1c-.132-.024-.2.012-.2.1,0,.06.048.12.156.18a4.19,4.19,0,0,0,.744.36,1.047,1.047,0,0,0,.276.06.4.4,0,0,0,.2-.06,2.243,2.243,0,0,1,.96-.216c.756-.06,1.5-.084,2.292-.072-.048.852-.072,1.284-.084,1.32-.084.768-.144,1.272-.192,1.512a1.532,1.532,0,0,0-.024.2c0,.06.024.1.072.1s.144-.1.24-.276a6.044,6.044,0,0,0,.468-1.332c.132-.648.228-1.14.276-1.476C-35.832,30.644-35.748,30.536-35.748,30.488Zm13.02-1.176A.29.29,0,0,0-22.956,29a4.979,4.979,0,0,0-1.512-.24c-.252,0-.372.072-.372.2,0,.048.06.084.168.108a2.291,2.291,0,0,1,1.224.648v5.82a20.732,20.732,0,0,1-2.484.588,24.75,24.75,0,0,1-3.048.408c-.18.012-.264-.1-.264-.288V34.112a1.831,1.831,0,0,1,.012-.216l3.588-.192c.144-.012.216-.072.216-.2s-.156-.228-.492-.312c.18-.768.312-1.332.444-2.076a.283.283,0,0,1,.12-.192.2.2,0,0,0,.1-.156.113.113,0,0,0-.072-.1,1.682,1.682,0,0,0-.744-.132.645.645,0,0,0-.252.06,1.424,1.424,0,0,1-.3.06c-.768.06-1.632.1-2.64.084a8.939,8.939,0,0,1-1.284-.072c-.108-.012-.168.012-.168.072a.2.2,0,0,0,.12.168,3.107,3.107,0,0,0,1.092.444,4.489,4.489,0,0,1,1.152-.252,18.937,18.937,0,0,1,2.04-.084c0,.864-.024,1.836-.06,2.184a.2.2,0,0,1-.144.12c-.744.084-1.632.132-2.616.144a.592.592,0,0,1-.18-.036,1.5,1.5,0,0,0-.348-.072,8.259,8.259,0,0,0-1.068-.072c-.06,0-.228.084-.228.156a.117.117,0,0,0,.1.12,2.384,2.384,0,0,1,.9.336V36.08a1.382,1.382,0,0,0,.18.756.649.649,0,0,0,.432.36,2.738,2.738,0,0,0,.684-.024c.96-.156,1.872-.336,2.688-.552a25.648,25.648,0,0,0,2.532-.8V39.14c0,.588.072.876.2.876.156,0,.264-.276.348-.852a22.211,22.211,0,0,0,.132-2.784V30.032C-22.764,29.888-22.728,29.468-22.728,29.312Zm7.956,1.716c0-.12-.2-.216-.588-.216-.084,0-.312.1-.528.132a9.786,9.786,0,0,1-1,.072c-.132,0-.276,0-.42-.012-.036-.108-.252-.156-.672-.156-.144,0-.312.084-.552.12a9.386,9.386,0,0,1-1.1.06,5.715,5.715,0,0,1-1.008-.084c-.132-.024-.18.036-.18.108s.036.108.132.168a2.416,2.416,0,0,0,.66.324.466.466,0,0,0,.18.024,4.214,4.214,0,0,1,1.536-.252,10.122,10.122,0,0,1-1.044,2.532,11.021,11.021,0,0,1-1.788,2.46.519.519,0,0,0-.12.144c0,.084.036.12.1.12a.24.24,0,0,0,.108-.024,9.528,9.528,0,0,0,2.148-2.412,9.054,9.054,0,0,0,1.3-2.748l.024-.024a2.5,2.5,0,0,0,.384.144.836.836,0,0,0,.228.048.3.3,0,0,0,.18-.06c.18-.144.444-.18,1.128-.192A13.8,13.8,0,0,1-18.7,37.316a.307.307,0,0,0-.084.144c0,.072.036.108.1.108a.24.24,0,0,0,.108-.024,11.534,11.534,0,0,0,3.612-6.192,1.061,1.061,0,0,0,.1-.132A.533.533,0,0,0-14.772,31.028Zm2.088-1.812a.3.3,0,0,0-.252-.312,4.9,4.9,0,0,0-1.5-.24c-.24,0-.36.072-.36.2,0,.048.048.084.156.108a2.257,2.257,0,0,1,1.224.648v9.36c0,.588.072.876.2.876.156,0,.264-.276.348-.852a20.094,20.094,0,0,0,.132-2.784v-1.98c.6-.012,1.164-.036,1.668-.048.324,0,.48-.12.48-.36,0-.132-.084-.216-.24-.264a2.181,2.181,0,0,0-1.044,0,2,2,0,0,0-.228.144,1.026,1.026,0,0,1-.636.2V29.936C-12.732,29.78-12.684,29.372-12.684,29.216ZM-4.7,31c0-.084-.06-.144-.192-.18a1.465,1.465,0,0,0-.492-.108c-.156,0-.48.132-.636.144a25,25,0,0,1-2.724.084,11.3,11.3,0,0,1-1.272-.1c-.084-.012-.132.012-.132.072a.2.2,0,0,0,.12.18,3.527,3.527,0,0,0,.96.4.37.37,0,0,0,.12.012.223.223,0,0,0,.132-.048,2.043,2.043,0,0,1,.924-.192c.7-.036,1.4-.06,2.1-.048a14.527,14.527,0,0,1-4.62,5.64c-.084.06-.12.108-.12.144,0,.084.024.12.084.12a.332.332,0,0,0,.156-.036A13.585,13.585,0,0,0-6.648,34.04l2.1,2.328a.435.435,0,0,0,.288.18c.156,0,.228-.072.228-.216a2.168,2.168,0,0,0-.684-1.3,1.115,1.115,0,0,0-.4-.2,1.4,1.4,0,0,1-.528-.348L-6.4,33.7A10.454,10.454,0,0,0-5.04,31.388a.825.825,0,0,1,.216-.2C-4.752,31.112-4.7,31.052-4.7,31Zm2.724-1.692A.29.29,0,0,0-2.208,29a4.979,4.979,0,0,0-1.512-.24c-.252,0-.372.06-.372.192,0,.06.06.1.168.12a2.283,2.283,0,0,1,1.224.636V39.14c0,.588.072.876.2.876.156,0,.264-.276.348-.852a22.484,22.484,0,0,0,.132-2.784V30.032C-2.016,29.888-1.98,29.468-1.98,29.312ZM-80.856,51.276a1.957,1.957,0,0,0-.744-1.62,2.416,2.416,0,0,0-1.3-.516c.12-.156.2-.264.2-.336a.226.226,0,0,0-.156-.216,1.258,1.258,0,0,0-.672-.2c-.132,0-.192.036-.192.1s.024.084.084.12c.156.084.24.18.24.264a.3.3,0,0,1-.132.252,2.552,2.552,0,0,0-1.524.54,1.979,1.979,0,0,0-.792,1.62,1.946,1.946,0,0,0,.756,1.584,2.6,2.6,0,0,0,1.74.564,2.645,2.645,0,0,0,1.764-.576A1.894,1.894,0,0,0-80.856,51.276Zm-2.46-1.644a1.638,1.638,0,0,1,1.824,1.632,1.66,1.66,0,0,1-1.824,1.644,1.641,1.641,0,0,1-1.824-1.644A1.664,1.664,0,0,1-83.316,49.632Zm5.988,8.472c0-.384-.4-.372-1.224-.372a.7.7,0,0,0-.348.132,2.751,2.751,0,0,1-1.14.18c-.78.036-1.6.06-2.4.048-.168-.012-.252-.1-.252-.288V56.772c0-.012,0-.048.012-.228.984-.048,2.472-.084,4.416-.1.18-.012.264-.072.264-.2,0-.1-.144-.18-.432-.228a7.5,7.5,0,0,0,.3-1.248.273.273,0,0,1,.156-.18.184.184,0,0,0,.108-.144c0-.06-.048-.1-.132-.12a2.823,2.823,0,0,0-.66-.132c-.192,0-.288.132-.54.144a34.752,34.752,0,0,1-3.528.108,9.039,9.039,0,0,1-1.272-.1c-.132-.024-.2,0-.2.084a.151.151,0,0,0,.084.12,2.744,2.744,0,0,0,1.176.468.855.855,0,0,0,.312-.108,1.828,1.828,0,0,1,.828-.144c1.308-.06,2.292-.1,2.928-.1-.012.816-.024,1.248-.024,1.332a.3.3,0,0,1-.18.12c-1.176.06-2.328.084-3.42.084a.371.371,0,0,1-.156-.024.968.968,0,0,0-.264-.072,6.374,6.374,0,0,0-1.116-.1q-.288,0-.288.144c0,.06.06.1.168.132a1.444,1.444,0,0,1,.78.324v.948a.97.97,0,0,0,.24.708,1.161,1.161,0,0,0,.672.144c.18,0,.876,0,2.136-.012,1.392-.012,2.232-.024,2.544-.024S-77.328,58.284-77.328,58.1Zm-.612-9.792A.29.29,0,0,0-78.168,48a4.945,4.945,0,0,0-1.488-.24c-.264,0-.384.06-.384.192,0,.06.06.1.168.12a2.318,2.318,0,0,1,1.212.624v4.416c0,.5.084.768.252.768s.276-.264.348-.78a8.51,8.51,0,0,0,.084-1.32V51.7c.264-.012.528-.012.8-.024.576-.012.912-.024,1.044-.024.324,0,.48-.108.48-.336a.271.271,0,0,0-.24-.276,2.236,2.236,0,0,0-1.128,0,2,2,0,0,0-.228.144,1.052,1.052,0,0,1-.732.216V49.032c0-.048,0-.192.012-.444S-77.94,48.252-77.94,48.312Zm7.632,4.44A2.275,2.275,0,0,0-71.052,51a2.58,2.58,0,0,0-1.38-.636.834.834,0,0,0,.192-.348.26.26,0,0,0-.144-.228,1.248,1.248,0,0,0-.7-.2c-.132,0-.192.048-.192.108s.024.084.084.12c.156.1.24.2.24.312a.378.378,0,0,1-.108.2,2.646,2.646,0,0,0-1.74.648,2.288,2.288,0,0,0-.768,1.776,2.3,2.3,0,0,0,.756,1.752,2.684,2.684,0,0,0,1.872.66,2.746,2.746,0,0,0,1.86-.672A2.266,2.266,0,0,0-70.308,52.752Zm-.7-.024a1.8,1.8,0,0,1-.552,1.332,1.817,1.817,0,0,1-1.356.528A1.939,1.939,0,0,1-74.3,54.06a1.8,1.8,0,0,1-.552-1.332,1.755,1.755,0,0,1,.552-1.32,1.949,1.949,0,0,1,1.392-.54,1.817,1.817,0,0,1,1.356.528A1.745,1.745,0,0,1-71,52.728Zm3.444-4.416A.29.29,0,0,0-67.788,48a4.945,4.945,0,0,0-1.488-.24c-.264,0-.384.06-.384.192,0,.06.06.1.168.12a2.283,2.283,0,0,1,1.224.636V58.14c0,.588.06.876.2.876s.252-.276.336-.852A22.483,22.483,0,0,0-67.6,55.38v-2.2c.672-.012,1.3-.036,1.86-.048.312,0,.468-.12.468-.348a.277.277,0,0,0-.228-.276,1.943,1.943,0,0,0-1.14.012,2,2,0,0,0-.228.144,1.06,1.06,0,0,1-.732.192V49.032C-67.6,48.888-67.56,48.468-67.56,48.312Zm11.016,0a.3.3,0,0,0-.24-.312,4.962,4.962,0,0,0-1.5-.24c-.252,0-.372.06-.372.192,0,.06.048.1.156.12a2.323,2.323,0,0,1,1.236.636V52.08a16.564,16.564,0,0,1-1.716.108c-.372,0-.8-.012-1.08-.036-.144-.012-.216.012-.216.084a.223.223,0,0,0,.132.192,7.552,7.552,0,0,0,.816.42.268.268,0,0,0,.132.012.32.32,0,0,0,.144-.036,1.724,1.724,0,0,1,.468-.18,7.791,7.791,0,0,1,1.32-.132V58.14c0,.588.06.876.2.876s.264-.276.336-.852a22.484,22.484,0,0,0,.132-2.784V49.032C-56.592,48.888-56.544,48.468-56.544,48.312Zm-4.6,1.86a.307.307,0,0,0-.168-.264,4.607,4.607,0,0,0-1.116-.456.722.722,0,0,0-.24-.036c-.2,0-.3.036-.3.108s.06.12.192.18a1.333,1.333,0,0,1,.708.744,10.422,10.422,0,0,1-1.2,2.628,11.518,11.518,0,0,1-1.956,2.352c-.12.12-.18.192-.18.252s.024.084.084.084a.542.542,0,0,0,.288-.12A11.443,11.443,0,0,0-62.58,53.22c.156-.228.3-.444.444-.672l2.088,2.784c.108.144.2.228.348.228a.2.2,0,0,0,.216-.216,1.673,1.673,0,0,0-.228-.744,2.854,2.854,0,0,0-.528-.78,2.941,2.941,0,0,0-.288-.192,2.918,2.918,0,0,1-.84-.816l-.528-.684a8.817,8.817,0,0,0,.684-1.68C-61.164,50.268-61.14,50.184-61.14,50.172Zm17.916,6.684a1.7,1.7,0,0,0-.684-1.368A2.613,2.613,0,0,0-45.3,54.96a.816.816,0,0,0,.2-.288c0-.048-.048-.1-.144-.156a1.083,1.083,0,0,0-.6-.18c-.12,0-.18.036-.18.12s.3.192.3.312a.355.355,0,0,1-.132.168,2.649,2.649,0,0,0-1.584.54,1.642,1.642,0,0,0-.7,1.38,1.66,1.66,0,0,0,.684,1.344,2.585,2.585,0,0,0,1.752.564,2.809,2.809,0,0,0,1.788-.54A1.688,1.688,0,0,0-43.224,56.856Zm-1.968-7.944a.305.305,0,0,0-.192-.312,4.258,4.258,0,0,0-1.272-.24c-.228,0-.348.048-.348.156,0,.06.06.1.168.132a1.612,1.612,0,0,1,.948.528v4.212c0,.516.072.768.24.768s.276-.252.36-.78a9.231,9.231,0,0,0,.072-1.332L-43.692,52v2.34c0,.492.072.756.228.756s.288-.264.36-.768a8.538,8.538,0,0,0,.072-1.332v-4.02A2.689,2.689,0,0,1-43,48.6a1.772,1.772,0,0,0,.012-.252.305.305,0,0,0-.216-.312,5,5,0,0,0-1.4-.276c-.252,0-.372.06-.372.192,0,.048.06.084.168.108a2.026,2.026,0,0,1,1.116.636v2.928l-1.524.06V49.176C-45.2,49.02-45.192,48.936-45.192,48.912Zm1.308,7.92A1.589,1.589,0,0,1-45.672,58.3c-1.056,0-1.776-.6-1.776-1.464a1.6,1.6,0,0,1,1.776-1.488A1.6,1.6,0,0,1-43.884,56.832Zm-3.132-6.252c0-.06-.06-.12-.18-.156a1.8,1.8,0,0,0-.564-.1,1.12,1.12,0,0,0-.288.084,1.415,1.415,0,0,1-.324.072c-.72.06-1.356.1-1.908.1-.432-.012-.852-.036-1.26-.084a.2.2,0,0,0-.132.072.181.181,0,0,0,.108.168,2.852,2.852,0,0,0,1.056.408.4.4,0,0,0,.18-.048,2.616,2.616,0,0,1,.888-.2c.648-.06,1.092-.084,1.332-.084a11.848,11.848,0,0,1-3.84,3.8c-.072.06-.12.108-.12.144,0,.072.024.12.072.12a.241.241,0,0,0,.156-.048,12.688,12.688,0,0,0,3.12-2.136l1.668,1.608a.575.575,0,0,0,.336.192c.144-.012.216-.1.2-.264a1.275,1.275,0,0,0-.036-.168,2.257,2.257,0,0,0-.468-.732c-.108-.132-.648-.24-1.044-.624l-.36-.312A7.176,7.176,0,0,0-47.352,51a1.7,1.7,0,0,1,.192-.2Q-47.016,50.67-47.016,50.58Zm-.9-1.188c0-.18-.108-.264-.348-.264a9.555,9.555,0,0,1-2.076-.156,1.686,1.686,0,0,0-.216-.024q-.144,0-.144.072a.208.208,0,0,0,.1.168,2.324,2.324,0,0,0,.54.42,1.153,1.153,0,0,0,.408.12,2.847,2.847,0,0,1,.288-.012q.45-.036,1.116-.036C-48.024,49.668-47.916,49.572-47.916,49.392Zm14.94-1.092A.285.285,0,0,0-33.2,48a5.083,5.083,0,0,0-1.5-.24c-.264,0-.384.06-.384.192,0,.06.06.1.168.12a2.37,2.37,0,0,1,1.236.636v2.568a10.316,10.316,0,0,1-1.356.108,7.035,7.035,0,0,1-1.1-.06c-.132-.024-.2.012-.2.06,0,.072.036.12.12.168a1.914,1.914,0,0,0,.984.4.415.415,0,0,0,.144-.036c.132-.048.288-.084.48-.132a8.247,8.247,0,0,1,.936-.1v2.244c-.84.072-1.452.12-1.848.12a7.531,7.531,0,0,1-1-.048c-.144-.024-.216,0-.216.048a.146.146,0,0,0,.084.144,2.075,2.075,0,0,0,1.008.432.32.32,0,0,0,.144-.036,1.946,1.946,0,0,1,.48-.132,11.092,11.092,0,0,1,1.344-.108V58.14c0,.6.06.888.2.888s.252-.288.336-.864a22.76,22.76,0,0,0,.132-2.784V49.032C-33.012,48.888-32.976,48.48-32.976,48.3Zm-2.94,1.656c0-.132-.288-.228-.732-.228-.1,0-.3.108-.54.144-.924.084-1.884.144-2.916.144a5.77,5.77,0,0,1-1.092-.084c-.108-.012-.156.012-.156.108,0,.048.048.108.132.168a4.7,4.7,0,0,0,.9.408,1.051,1.051,0,0,0,.192.024.3.3,0,0,0,.18-.084,1.8,1.8,0,0,1,.612-.144c.516-.06,1.3-.12,2.376-.156a11.294,11.294,0,0,1-1.716,3.024,13.4,13.4,0,0,1-2.772,2.7c-.12.072-.168.144-.168.18,0,.084.036.132.108.132a.512.512,0,0,0,.252-.1A11.864,11.864,0,0,0-36.2,50.4a1.531,1.531,0,0,1,.144-.216A.33.33,0,0,0-35.916,49.956Zm12.636-1.092q0-.126-.18-.18a1.987,1.987,0,0,0-.612-.084c-.192,0-.324.108-.576.12-1.908.1-3.18.132-3.8.12a8.6,8.6,0,0,1-1.44-.144c-.156-.024-.228.012-.228.108,0,.06.06.12.168.18a9.189,9.189,0,0,0,.936.4,1.284,1.284,0,0,0,.276.06.505.505,0,0,0,.216-.048,3.206,3.206,0,0,1,1.176-.24c1.008-.048,1.944-.072,2.772-.072a18.49,18.49,0,0,1-6.12,3.552c-.108.036-.156.072-.156.132s.036.108.1.108a.538.538,0,0,0,.132-.012,18.1,18.1,0,0,0,4.272-1.668l3.876,1.14a.969.969,0,0,0,.228.036c.168,0,.252-.06.252-.216,0-.108-.072-.2-.228-.288a3.96,3.96,0,0,0-1.08-.444,2.366,2.366,0,0,0-.672-.036,3.405,3.405,0,0,1-.54-.108l-1.38-.348a12.361,12.361,0,0,0,2.208-1.716.575.575,0,0,1,.132-.1C-23.376,49.02-23.28,48.936-23.28,48.864Zm2.16,5.148c0-.132-.084-.216-.276-.276a4.373,4.373,0,0,0-1.092-.144.77.77,0,0,0-.372.108,4.024,4.024,0,0,1-1.272.192c-1.812.072-3.66.108-5.508.108a10.035,10.035,0,0,1-1.8-.12c-.12-.024-.18-.012-.18.048a.29.29,0,0,0,.144.216,3.6,3.6,0,0,0,1.14.516.633.633,0,0,0,.216.036.377.377,0,0,0,.144-.048,3.171,3.171,0,0,1,1.128-.216c.576-.048,1.3-.084,2.148-.108v3.8c0,.6.06.9.192.9q.234,0,.36-.936a23.576,23.576,0,0,0,.132-2.736V54.3c.852-.012,1.836-.024,2.928-.024.528,0,1.008.024,1.4.06S-21.12,54.276-21.12,54.012Zm8.76-5.7A.29.29,0,0,0-12.588,48a4.979,4.979,0,0,0-1.512-.24c-.252,0-.372.06-.372.192,0,.06.06.1.168.12a2.283,2.283,0,0,1,1.224.636v5.148a24.394,24.394,0,0,1-2.676.732c-1.416.3-2.4.456-2.976.516-.18.012-.264-.1-.264-.3v-3.72c0-.036,0-.192.012-.468.012-.24-.048-.36-.18-.384a8.5,8.5,0,0,0-1.416-.108c-.168,0-.384.108-.384.2,0,.072.048.12.156.132.66.12,1.032.276,1.116.456l.024,3.72a1.337,1.337,0,0,0,.144.756.759.759,0,0,0,.468.36,3.042,3.042,0,0,0,.612-.036,24.378,24.378,0,0,0,2.712-.612,23.856,23.856,0,0,0,2.652-.972V58.14c0,.588.072.876.2.876.156,0,.264-.276.348-.852A22.211,22.211,0,0,0-12.4,55.38V49.032C-12.4,48.888-12.36,48.468-12.36,48.312Zm8.028,1.224c0-.132-.228-.228-.636-.228-.1,0-.312.108-.528.144a9.049,9.049,0,0,1-.936.048,3.876,3.876,0,0,1-.528,0,.127.127,0,0,0-.084-.072,1.488,1.488,0,0,0-.552-.1c-.156,0-.312.12-.552.132a10.251,10.251,0,0,1-1.1.048,8.044,8.044,0,0,1-1.02-.06c-.12-.024-.168,0-.168.084,0,.06.06.1.156.156a3.2,3.2,0,0,0,.684.336.933.933,0,0,0,.192.024.442.442,0,0,0,.192-.084,2.377,2.377,0,0,1,.48-.108,6.7,6.7,0,0,1,.8-.048A9.42,9.42,0,0,1-9.012,52.1,9.793,9.793,0,0,1-10.7,54.168a.285.285,0,0,0-.1.156c0,.072.024.108.084.108a.2.2,0,0,0,.12-.036,8.733,8.733,0,0,0,3.384-4.488c.024-.024.036-.06.06-.084A3.591,3.591,0,0,0-6.7,50a.666.666,0,0,0,.2.036,2.457,2.457,0,0,1,.624-.2c.12-.012.312-.024.6-.024a10.241,10.241,0,0,1-1.2,2.748,8.076,8.076,0,0,1-1.86,2.16.246.246,0,0,0-.1.168c0,.072.036.108.1.108a.194.194,0,0,0,.108-.036,8.118,8.118,0,0,0,3.7-5.076.784.784,0,0,1,.108-.156A.354.354,0,0,0-4.332,49.536ZM-2.364,48.3a.329.329,0,0,0-.252-.312A4.761,4.761,0,0,0-4.1,47.76c-.264,0-.384.06-.384.192,0,.06.048.1.156.108a2.512,2.512,0,0,1,1.224.636v6.372c0,.672.072,1,.228,1s.264-.324.36-.984a12.059,12.059,0,0,0,.1-1.584V52.62c.672-.012,1.272-.036,1.776-.048.324,0,.48-.108.48-.348a.271.271,0,0,0-.24-.276,2.394,2.394,0,0,0-1.128.012,2,2,0,0,0-.228.144,1.035,1.035,0,0,1-.66.192V49.032C-2.424,48.876-2.364,48.456-2.364,48.3Zm.984,9.648c0-.156-.084-.24-.264-.276a5.62,5.62,0,0,0-1.032-.048,1.1,1.1,0,0,0-.372.12,2.779,2.779,0,0,1-1.188.2c-.984.024-1.788.024-2.412.012-.252-.012-.36-.156-.36-.408V56.208A3.669,3.669,0,0,1-7,55.752c.036-.228-.012-.372-.18-.408a7.662,7.662,0,0,0-1.368-.1c-.18,0-.384.108-.384.2s.048.132.156.144c.648.132.936.252,1.08.432l.012,1.26c0,.768.288,1.044,1.248,1.032,1.26-.036,2.784-.048,4.608-.024C-1.524,58.3-1.38,58.176-1.38,57.948Zm-105.18,10.48a.162.162,0,0,0-.12-.156,1.749,1.749,0,0,0-.612-.084c-.156,0-.3.108-.552.144a21.982,21.982,0,0,1-2.7.108,6.047,6.047,0,0,1-1.092-.084c-.108-.012-.156.024-.156.108,0,.06.048.108.132.168a5.054,5.054,0,0,0,.9.408.932.932,0,0,0,.192.024.321.321,0,0,0,.18-.1,1.362,1.362,0,0,1,.612-.132q1.962-.144,2.16-.144a10.9,10.9,0,0,1-1.9,2.844,13.335,13.335,0,0,1-2.6,2.328c-.084.06-.144.12-.144.156a.1.1,0,0,0,.108.108.232.232,0,0,0,.12-.036,11.045,11.045,0,0,0,2.976-2.2,10.025,10.025,0,0,0,2.2-3.048.948.948,0,0,1,.156-.216C-106.608,68.56-106.56,68.488-106.56,68.428ZM-103.7,67.3a.317.317,0,0,0-.24-.312,4.836,4.836,0,0,0-1.5-.228c-.252,0-.372.06-.372.192,0,.06.048.1.156.108a2.378,2.378,0,0,1,1.236.648V70.48a12.132,12.132,0,0,1-1.776.12,6.356,6.356,0,0,1-1-.048c-.144-.024-.2,0-.2.06a.174.174,0,0,0,.1.144l.024.012a2.232,2.232,0,0,0,.816.384.45.45,0,0,0,.12.012.319.319,0,0,0,.144-.036,1.7,1.7,0,0,1,.48-.144,10.646,10.646,0,0,1,1.3-.1V72.82q0,.756.252.756c.156,0,.276-.252.348-.768a10.529,10.529,0,0,0,.072-1.344V68.032C-103.752,67.888-103.7,67.456-103.7,67.3Zm.072,6.792c0-.072-.084-.132-.216-.168a1.348,1.348,0,0,0-.42-.084c-.156,0-.468.12-.612.12-2.016.108-3.288.168-3.8.168a13.1,13.1,0,0,1-1.548-.108c-.132-.012-.216.012-.216.084s.048.144.168.2a4.22,4.22,0,0,0,.948.432,1.979,1.979,0,0,0,.276.06.4.4,0,0,0,.192-.06,3.3,3.3,0,0,1,1.2-.264c1.356-.1,2.424-.132,3.18-.132v2.664c0,.648.072.96.24.96s.288-.312.372-.948a6.437,6.437,0,0,0,.06-.84l.012-1.812A.664.664,0,0,0-103.632,74.092ZM-93.5,75.676a1.83,1.83,0,0,0-.684-1.452,2.372,2.372,0,0,0-1.284-.528.744.744,0,0,0,.168-.252.2.2,0,0,0-.12-.168,1.056,1.056,0,0,0-.588-.192c-.132,0-.192.048-.192.144,0,.048.048.084.144.144s.144.108.144.192c0,.036-.036.072-.072.1a2.6,2.6,0,0,0-1.68.564,1.838,1.838,0,0,0-.672,1.452,1.862,1.862,0,0,0,.648,1.428,2.618,2.618,0,0,0,1.764.6,2.63,2.63,0,0,0,1.74-.588A1.823,1.823,0,0,0-93.5,75.676Zm-2.4-1.584a1.609,1.609,0,0,1,1.752,1.56,1.4,1.4,0,0,1-.5,1.1,1.723,1.723,0,0,1-1.248.456,1.605,1.605,0,0,1-1.74-1.56,1.47,1.47,0,0,1,.5-1.1A1.733,1.733,0,0,1-95.9,74.092Zm-.48-5.592c0-.072-.072-.12-.2-.168a2.22,2.22,0,0,0-.552-.1.772.772,0,0,0-.288.084.769.769,0,0,1-.324.084,23.841,23.841,0,0,1-2.472.072c-.432-.012-.816-.036-1.2-.084q-.144-.018-.144.072c0,.06.036.108.12.156a4.828,4.828,0,0,0,.9.4,1.336,1.336,0,0,0,.2.024.367.367,0,0,0,.18-.084,1.535,1.535,0,0,1,.564-.144q.846-.072,2.124-.072a12.779,12.779,0,0,1-4.5,4.68c-.084.048-.12.1-.12.132q0,.108.072.108a.448.448,0,0,0,.144-.024A12.674,12.674,0,0,0-98.712,71.5c.192-.168.372-.348.54-.516l1.752,1.776a.574.574,0,0,0,.288.156c.132.012.192-.036.2-.168a.6.6,0,0,0-.024-.24,2.5,2.5,0,0,0-.576-.9,3.208,3.208,0,0,0-.492-.252,2.183,2.183,0,0,1-.588-.42l-.288-.264A6.794,6.794,0,0,0-96.72,68.92a.957.957,0,0,1,.18-.192C-96.432,68.62-96.384,68.548-96.384,68.5Zm3.06-1.188a.3.3,0,0,0-.24-.312,4.962,4.962,0,0,0-1.5-.24c-.252,0-.372.06-.372.192,0,.06.048.1.156.12a2.323,2.323,0,0,1,1.236.636V70.3c-.552.048-1.044.072-1.464.084a7.178,7.178,0,0,1-1.1-.036c-.132-.012-.2.012-.2.084a.2.2,0,0,0,.12.18,4.084,4.084,0,0,0,.84.4.492.492,0,0,0,.132.012.414.414,0,0,0,.156-.036,1.829,1.829,0,0,1,.456-.168,8.312,8.312,0,0,1,1.068-.12v2.148c0,.672.072.984.228.984s.276-.288.36-.912a8.458,8.458,0,0,0,.084-1.176V68.032C-93.372,67.876-93.324,67.468-93.324,67.312Zm7.308,4.44A2.235,2.235,0,0,0-86.76,70a2.58,2.58,0,0,0-1.38-.636.911.911,0,0,0,.18-.348.272.272,0,0,0-.132-.228,1.255,1.255,0,0,0-.684-.192c-.132,0-.192.036-.192.1s.024.084.084.12a.373.373,0,0,1,.216.312.358.358,0,0,1-.1.2,2.72,2.72,0,0,0-1.74.648,2.249,2.249,0,0,0-.768,1.776,2.262,2.262,0,0,0,.756,1.752,2.716,2.716,0,0,0,1.86.66,2.777,2.777,0,0,0,1.872-.672A2.226,2.226,0,0,0-86.016,71.752Zm-.7-.024a1.757,1.757,0,0,1-.552,1.332,1.845,1.845,0,0,1-1.368.528A1.882,1.882,0,0,1-90,73.06a1.757,1.757,0,0,1-.552-1.332A1.713,1.713,0,0,1-90,70.408a1.892,1.892,0,0,1,1.368-.54,1.826,1.826,0,0,1,1.368.528A1.7,1.7,0,0,1-86.712,71.728Zm3.612-4.416A.29.29,0,0,0-83.328,67a4.979,4.979,0,0,0-1.512-.24c-.252,0-.372.06-.372.192,0,.06.06.1.168.12a2.283,2.283,0,0,1,1.224.636V77.14c0,.588.072.876.2.876.156,0,.264-.276.348-.852a22.484,22.484,0,0,0,.132-2.784V68.032C-83.136,67.888-83.1,67.468-83.1,67.312Zm13.164,9.852c0-.348-.42-.336-1.248-.336a.666.666,0,0,0-.348.132,4.021,4.021,0,0,1-1.152.168c-.912.036-1.752.048-2.532.036-.18,0-.264-.1-.264-.276v-1.02c0,.012,0-.048.012-.216,1.032-.048,2.58-.084,4.668-.108.18,0,.276-.06.276-.192,0-.108-.144-.192-.444-.228.144-.468.24-.84.3-1.116.012-.1.264-.252.264-.348,0-.06-.048-.108-.132-.132a3.121,3.121,0,0,0-.66-.108c-.156,0-.3.12-.54.132-.54.048-1.068.084-1.572.1a1.619,1.619,0,0,0,.144-.492,4.433,4.433,0,0,0,.072-.876v-.12c.84-.012,1.788-.024,2.844-.024.528,0,1.008.024,1.4.06s.564-.06.564-.324c0-.132-.084-.216-.276-.276a4.392,4.392,0,0,0-1.092-.132.9.9,0,0,0-.372.1,4.024,4.024,0,0,1-1.272.192c-1.812.084-3.66.12-5.508.12a11.161,11.161,0,0,1-1.8-.132c-.12-.024-.18,0-.18.06s.048.132.144.2a3.207,3.207,0,0,0,1.14.516,1.264,1.264,0,0,0,.216.036.377.377,0,0,0,.144-.048,3.832,3.832,0,0,1,1.128-.216c.588-.048,1.332-.084,2.22-.108v.888a2.369,2.369,0,0,0,.048.588c-.648.024-1.284.024-1.872,0-.576-.048-1-.084-1.224-.12-.12-.012-.18.012-.18.1a.151.151,0,0,0,.084.12,2.484,2.484,0,0,0,1.188.468.7.7,0,0,0,.3-.108,2.5,2.5,0,0,1,.828-.12c.912-.048,1.98-.084,3.2-.1a5.95,5.95,0,0,1-.036,1.2.238.238,0,0,1-.192.12c-1.152.06-2.376.084-3.648.084a.541.541,0,0,1-.156-.012.885.885,0,0,1-.168-.072,4.618,4.618,0,0,0-1.212-.072c-.18.012-.276.048-.276.132,0,.048.048.084.168.108a1.737,1.737,0,0,1,.78.348v.912a.9.9,0,0,0,.24.708.935.935,0,0,0,.672.144c1.488-.06,3.108-.072,4.824-.036C-70.092,77.476-69.936,77.368-69.936,77.164Zm-.516-9.48c0-.072-.06-.12-.18-.156a2.12,2.12,0,0,0-.624-.084c-.132,0-.372.12-.552.132-1.884.084-3.084.132-3.564.12a13.614,13.614,0,0,1-1.476-.12c-.132-.024-.216,0-.216.084,0,.06.06.132.168.192a7.364,7.364,0,0,0,.936.4.981.981,0,0,0,.264.06.5.5,0,0,0,.2-.048,2.969,2.969,0,0,1,.96-.228c.7-.048,1.644-.084,2.82-.108A21.565,21.565,0,0,1-77.8,70.96c-.084.012-.132.036-.132.1,0,.084.024.132.084.12a.819.819,0,0,1,.144-.012,22.014,22.014,0,0,0,4.116-1.38l3.924.864a1.007,1.007,0,0,0,.252.012q.18.018.18-.252a.3.3,0,0,0-.192-.264,4.816,4.816,0,0,0-1.008-.348,4.108,4.108,0,0,0-.648.012,2.93,2.93,0,0,1-.732-.048L-73,69.5a10.836,10.836,0,0,0,2.148-1.452c.084-.048.132-.084.156-.1C-70.536,67.852-70.452,67.756-70.452,67.684Zm5.988,1.272a.257.257,0,0,0-.144-.216,1.228,1.228,0,0,0-.672-.2c-.132,0-.2.036-.2.1a.14.14,0,0,0,.084.132.377.377,0,0,1,.24.312.288.288,0,0,1-.108.2,2.7,2.7,0,0,0-1.752.648,2.224,2.224,0,0,0-.768,1.764,2.27,2.27,0,0,0,.756,1.764,2.778,2.778,0,0,0,1.884.66,2.716,2.716,0,0,0,1.848-.672,2.3,2.3,0,0,0,.768-1.68,2.042,2.042,0,0,0,.384.12.45.45,0,0,0,.12.012.32.32,0,0,0,.144-.036,2.11,2.11,0,0,1,.48-.132,7.156,7.156,0,0,1,1.32-.108v5.52c0,.588.06.876.2.876s.264-.276.336-.852a22.484,22.484,0,0,0,.132-2.784V68.032c0-.144.048-.564.048-.72A.3.3,0,0,0-59.6,67a4.962,4.962,0,0,0-1.5-.24c-.252,0-.372.06-.372.192,0,.06.048.1.156.12a2.323,2.323,0,0,1,1.236.636V71.2c-.576.06-1.176.084-1.8.12-.312.012-.5.024-.672.024a2.2,2.2,0,0,0-.708-1.392,2.528,2.528,0,0,0-1.4-.636C-64.536,69.136-64.464,69.028-64.464,68.956Zm1.248,2.712a1.733,1.733,0,0,1-.564,1.344,1.836,1.836,0,0,1-1.356.528,1.845,1.845,0,0,1-1.368-.528,1.765,1.765,0,0,1-.552-1.344A1.705,1.705,0,0,1-66.5,70.36a1.854,1.854,0,0,1,1.368-.54,1.9,1.9,0,0,1,1.368.516A1.7,1.7,0,0,1-63.216,71.668Zm13.752-.756c0-.144-.108-.228-.3-.264a5.328,5.328,0,0,0-.948-.048.822.822,0,0,0-.372.132,2.567,2.567,0,0,1-1.008.192c-.672.036-1.7.06-2.532.06-.24-.012-.36-.132-.36-.42V68.752a3.753,3.753,0,0,1,.012-.408c1.08-.048,2.808-.084,5.136-.12.264,0,.408-.12.408-.348,0-.3-.432-.4-1.3-.312a1.837,1.837,0,0,0-.48.18,2.919,2.919,0,0,1-.984.156c-.8.036-1.8.048-2.712.036a1.7,1.7,0,0,0-.336-.084,6.407,6.407,0,0,0-1.212-.1c-.144,0-.372.12-.372.2,0,.06.048.108.144.132.564.1.888.228.984.408v1.836c0,.756.324,1.056,1.272,1.02,1.284-.036,2.832-.072,4.5-.084C-49.62,71.272-49.464,71.152-49.464,70.912Zm.216,5.94c0-.132-.084-.2-.264-.24a6.615,6.615,0,0,0-1.044-.036.709.709,0,0,0-.372.12,2.7,2.7,0,0,1-1.176.18c-.816.048-1.608.024-2.268.012-.24,0-.36-.144-.36-.42v-1.68c.036-.228-.024-.372-.18-.408a6.739,6.739,0,0,0-1.38-.1c-.156,0-.372.108-.372.216,0,.06.048.108.156.132.648.132,1.008.276,1.08.42l.012,1.2a1.1,1.1,0,0,0,.252.768,1,1,0,0,0,.444.2,4.417,4.417,0,0,0,.54.024c.18,0,.864,0,2.076-.012,1.284-.012,2.088-.012,2.388-.012S-49.248,77.1-49.248,76.852ZM-47.52,72.8c0-.132-.084-.228-.276-.288a4.055,4.055,0,0,0-1.092-.132.9.9,0,0,0-.372.072,3.9,3.9,0,0,1-1.272.228c-1.452.06-3.312.084-5.508.084a9.487,9.487,0,0,1-1.8-.144c-.12-.012-.18,0-.18.072a.256.256,0,0,0,.144.2,3.283,3.283,0,0,0,1.14.528,1.264,1.264,0,0,0,.216.036.286.286,0,0,0,.144-.048,3.4,3.4,0,0,1,1.128-.24c1.188-.084,3.108-.132,5.76-.132.552,0,1.008.024,1.4.06S-47.52,73.036-47.52,72.8ZM-35.8,67.312A.29.29,0,0,0-36.024,67a4.962,4.962,0,0,0-1.5-.24c-.252,0-.372.06-.372.192,0,.06.048.1.156.12a2.37,2.37,0,0,1,1.236.636v2.868a16.187,16.187,0,0,1-1.74.1,8.189,8.189,0,0,1-1.056-.06q-.216-.036-.216.072c0,.048.036.084.132.156a2.568,2.568,0,0,0,.876.36,1,1,0,0,0,.12.024.47.47,0,0,0,.156-.036,1.452,1.452,0,0,1,.468-.132c.42-.048.84-.084,1.26-.1V73.6c0,.456.084.684.264.684s.288-.264.348-.78a10.507,10.507,0,0,0,.06-1.188V68.032C-35.832,67.876-35.8,67.468-35.8,67.312Zm-2.2,6.4a.3.3,0,0,0-.192-.288,4.333,4.333,0,0,0-1.152-.408,2.115,2.115,0,0,0-.228-.024c-.156,0-.24.036-.24.12,0,.048.048.1.144.156.5.24.66.408.756.648a9.232,9.232,0,0,1-1.632,1.956,10.684,10.684,0,0,1-2.016,1.56c-.12.072-.18.144-.18.2s.024.1.072.1a.59.59,0,0,0,.216-.048,11.41,11.41,0,0,0,2.364-1.488,9.515,9.515,0,0,0,1.4-1.368l3.12,2.616a.351.351,0,0,0,.264.132c.12,0,.192-.084.2-.24a.335.335,0,0,0-.072-.216,3.86,3.86,0,0,0-.96-1.092,1.115,1.115,0,0,0-.432-.2,3.132,3.132,0,0,1-.864-.54l-.984-.8c.12-.168.228-.336.336-.5A.547.547,0,0,0-37.992,73.708Zm-.66-5.256c0-.1-.06-.144-.192-.18a2.284,2.284,0,0,0-.528-.06.463.463,0,0,0-.24.072c-.132.036-.24.06-.312.072a23.111,23.111,0,0,1-2.676.072,6.573,6.573,0,0,1-1.1-.084c-.108-.024-.156.012-.156.108,0,.06.048.108.144.156a5.076,5.076,0,0,0,.888.408.726.726,0,0,0,.18.024.367.367,0,0,0,.18-.084,1.451,1.451,0,0,1,.612-.132c.72-.048,1.428-.084,2.148-.108a10.6,10.6,0,0,1-1.98,2.952,16.478,16.478,0,0,1-2.484,2.22c-.084.06-.144.12-.144.156a.1.1,0,0,0,.108.108.35.35,0,0,0,.108-.024,11.632,11.632,0,0,0,5.16-5.244,1.354,1.354,0,0,1,.156-.228A.311.311,0,0,0-38.652,68.452ZM-22.812,77c0-.156-.084-.24-.264-.276a3.769,3.769,0,0,0-1.032-.036.96.96,0,0,0-.372.12A3.445,3.445,0,0,1-25.632,77c-.66.024-1.308.024-1.956.012-.228-.012-.348-.156-.348-.42v-1.02c2.1-.048,3.528-.072,4.32-.084.276,0,.408-.108.408-.312,0-.168-.108-.264-.324-.3a3.642,3.642,0,0,0-.948-.024,2.468,2.468,0,0,0-.384.144,3.472,3.472,0,0,1-.828.156c-.576.048-1.332.06-2.244.048v-.828c0-.132.012-.264.024-.384,1.488-.06,3-.084,4.464-.084.264,0,.408-.12.408-.336,0-.144-.1-.24-.312-.264a5.122,5.122,0,0,0-1.056,0,1.425,1.425,0,0,0-.4.132,2.441,2.441,0,0,1-.852.132c-.636.036-1.368.036-2.172.024a2.276,2.276,0,0,0-.348-.1,8.267,8.267,0,0,0-1.152-.1c-.144,0-.384.108-.384.2,0,.06.048.108.144.12a1.606,1.606,0,0,1,.936.42v2.2c0,.72.312,1.032,1.272,1.02,1.092-.024,2.472-.036,4.092-.024C-22.956,77.332-22.812,77.224-22.812,77Zm-3.012-8.7c0-.108-.252-.228-.744-.228a1.247,1.247,0,0,0-.228.072,1.465,1.465,0,0,1-.312.072c-.8.072-1.716.1-2.7.084a7.35,7.35,0,0,1-1.08-.072c-.108-.012-.156.012-.156.1,0,.06.048.108.132.168a3.089,3.089,0,0,0,.876.4.561.561,0,0,0,.2.036.447.447,0,0,0,.18-.072,1.2,1.2,0,0,1,.612-.144c1.08-.084,1.788-.12,2.148-.132a9.476,9.476,0,0,1-2.04,2.772A14.347,14.347,0,0,1-31.416,73.4c-.084.06-.132.12-.132.156a.088.088,0,0,0,.1.1.355.355,0,0,0,.12-.024,13.906,13.906,0,0,0,2.952-1.968,9,9,0,0,0,2.268-2.916c.084-.132.132-.216.144-.228A.311.311,0,0,0-25.824,68.3Zm2.6-1a.307.307,0,0,0-.228-.312,4.927,4.927,0,0,0-1.488-.228c-.252,0-.372.06-.372.192,0,.048.048.084.156.108a2.512,2.512,0,0,1,1.224.636v4.44c0,.492.084.756.252.756s.264-.264.348-.78c.036-.336.06-.732.072-1.2.708-.012,1.32-.036,1.848-.048.324,0,.48-.12.48-.336a.271.271,0,0,0-.24-.276,2.119,2.119,0,0,0-1.128.012,2,2,0,0,0-.228.144,1.117,1.117,0,0,1-.732.18V68.032C-23.256,67.876-23.22,67.48-23.22,67.3Zm7.632,4.452A2.275,2.275,0,0,0-16.332,70a2.58,2.58,0,0,0-1.38-.636.834.834,0,0,0,.192-.348.26.26,0,0,0-.144-.228,1.248,1.248,0,0,0-.7-.2c-.132,0-.192.048-.192.108s.024.084.084.12c.156.1.24.2.24.312a.378.378,0,0,1-.108.2,2.646,2.646,0,0,0-1.74.648,2.288,2.288,0,0,0-.768,1.776,2.3,2.3,0,0,0,.756,1.752,2.684,2.684,0,0,0,1.872.66,2.746,2.746,0,0,0,1.86-.672A2.265,2.265,0,0,0-15.588,71.752Zm-.7-.024a1.8,1.8,0,0,1-.552,1.332,1.817,1.817,0,0,1-1.356.528,1.939,1.939,0,0,1-1.392-.528,1.8,1.8,0,0,1-.552-1.332,1.755,1.755,0,0,1,.552-1.32,1.949,1.949,0,0,1,1.392-.54,1.817,1.817,0,0,1,1.356.528A1.745,1.745,0,0,1-16.284,71.728Zm3.444-4.416A.29.29,0,0,0-13.068,67a4.945,4.945,0,0,0-1.488-.24c-.264,0-.384.06-.384.192,0,.06.06.1.168.12a2.283,2.283,0,0,1,1.224.636V77.14c0,.588.06.876.2.876s.252-.276.336-.852a22.484,22.484,0,0,0,.132-2.784v-2.2c.672-.012,1.3-.036,1.86-.048.312,0,.468-.12.468-.348a.277.277,0,0,0-.228-.276,1.943,1.943,0,0,0-1.14.012,2,2,0,0,0-.228.144,1.06,1.06,0,0,1-.732.192V68.032C-12.876,67.888-12.84,67.468-12.84,67.312Zm9.9,3.312A2.1,2.1,0,0,0-3.792,68.9a3,3,0,0,0-1.416-.588,1.056,1.056,0,0,0,.2-.384c0-.084-.048-.144-.144-.216a1.228,1.228,0,0,0-.672-.2c-.132,0-.192.036-.192.1s.024.084.084.12a.4.4,0,0,1,.216.324.341.341,0,0,1-.108.228,3.217,3.217,0,0,0-1.836.624,2.143,2.143,0,0,0-.876,1.728,2.142,2.142,0,0,0,.852,1.74,3.021,3.021,0,0,0,1.944.624,3,3,0,0,0,1.944-.624A2.11,2.11,0,0,0-2.94,70.624Zm-.672.048a1.729,1.729,0,0,1-.54,1.284,2.176,2.176,0,0,1-1.56.552,2.1,2.1,0,0,1-1.5-.528A1.675,1.675,0,0,1-7.8,70.672a1.9,1.9,0,0,1,2.088-1.86,2.262,2.262,0,0,1,1.548.552A1.786,1.786,0,0,1-3.612,70.672ZM-6.78,73.66c.012-.108-.036-.144-.168-.18a5.354,5.354,0,0,0-1.212-.192c-.228,0-.36.048-.36.156,0,.048.06.1.168.132.48.12.768.288.852.492l.144,1.74H-8.88a9.847,9.847,0,0,1-1.8-.144q-.18-.036-.18.072c0,.06.048.132.144.2a3.433,3.433,0,0,0,1.14.516.928.928,0,0,0,.216.024.3.3,0,0,0,.144-.036,3.74,3.74,0,0,1,1.128-.228c1.26-.108,3.18-.156,5.76-.156.552,0,1.008.024,1.4.06s.564-.06.564-.312c0-.144-.084-.228-.276-.276a3.88,3.88,0,0,0-1.092-.144.9.9,0,0,0-.372.1,4.236,4.236,0,0,1-1.272.216,2.312,2.312,0,0,1-.288.012l.372-1.788c.036-.18.06-.312.072-.408.024-.072-.036-.144-.168-.192a5.015,5.015,0,0,0-1.1-.264c-.228-.036-.36,0-.372.108-.012.072.048.144.156.18a1.066,1.066,0,0,1,.732.528l-.216,1.86c-.852.024-1.728.048-2.592.06l-.036-1.728A2.343,2.343,0,0,1-6.78,73.66Z" transform="translate(320 2779)" fill="#2b2b2b"/>
    <path id="패스_7721" data-name="패스 7721" d="M-6.665-17.773a1.01,1.01,0,0,1,.562.012,1.231,1.231,0,0,1,.476.281,1.633,1.633,0,0,1,.342.464,1.292,1.292,0,0,1,.134.586,1.316,1.316,0,0,1-.439,1.013,1.532,1.532,0,0,1-1.074.4,1.42,1.42,0,0,1-1.27-.623,2.829,2.829,0,0,1-.415-1.6,4.238,4.238,0,0,1,.623-2.307,3.722,3.722,0,0,1,1.941-1.477l.342.464a3.439,3.439,0,0,0-1.416,1.1,2.488,2.488,0,0,0-.464,1.465q0,.269.11.317a.347.347,0,0,0,.256,0Zm3.906,0a1.114,1.114,0,0,1,1.025.293,1.348,1.348,0,0,1,.464,1.05A1.334,1.334,0,0,1-1.7-15.417a1.488,1.488,0,0,1-1.062.4,1.451,1.451,0,0,1-1.282-.623,2.768,2.768,0,0,1-.427-1.6,4.177,4.177,0,0,1,.635-2.307A3.787,3.787,0,0,1-1.88-21.021l.342.464a3.538,3.538,0,0,0-1.428,1.1,2.444,2.444,0,0,0-.476,1.465q0,.269.11.317a.411.411,0,0,0,.281,0Z" transform="translate(320 2762)" fill="#2b2b2b"/>
    <g id="그룹_1597" data-name="그룹 1597" transform="translate(268.472 2770.17)">
      <rect id="사각형_3434" data-name="사각형 3434" width="1.862" height="6.53" transform="translate(21.72 2.695)" fill="#e72c4e"/>
      <path id="패스_7659" data-name="패스 7659" d="M1.482,0,.1,1.373l1.86,1.911L3.327,1.911Z" transform="translate(-0.085)" fill="#e72c4e"/>
      <g id="그룹_1559" data-name="그룹 1559" transform="translate(0 0)">
        <g id="그룹_1558" data-name="그룹 1558" clip-path="url(#clip-path)">
          <path id="패스_7660" data-name="패스 7660" d="M328.482,9.734h1.593V5.775a1.758,1.758,0,0,1,3.517,0V9.734h1.585V5.781a3.35,3.35,0,0,0-3.343-3.388h0a3.372,3.372,0,0,0-1.765.5V.119h-1.586Z" transform="translate(-296.649 -0.107)" fill="#071039"/>
          <path id="패스_7661" data-name="패스 7661" d="M170.133,23.667a3.666,3.666,0,1,0,3.669,3.666,3.668,3.668,0,0,0-3.669-3.666m0,5.749a2.082,2.082,0,1,1,2.084-2.082,2.083,2.083,0,0,1-2.084,2.082" transform="translate(-150.332 -21.373)" fill="#071039"/>
          <path id="패스_7662" data-name="패스 7662" d="M6.53,18.389a3.879,3.879,0,0,0-2.972-1.671v1.6H3.329A3.3,3.3,0,0,0,.007,21.26a3.037,3.037,0,0,0,0,.442v5.323H1.594v-2.8a3.407,3.407,0,0,0,.862.365,4.249,4.249,0,0,0,1.1.147A3.742,3.742,0,0,0,7.177,22.16a4.226,4.226,0,0,0-.647-3.77m-.833,3.1c-.014.059-.03.118-.049.176a2.08,2.08,0,0,1-1.4,1.368,2.209,2.209,0,0,1-2.312-.6,1.507,1.507,0,0,1-.326-1.051,1.711,1.711,0,0,1,1.759-1.451v0h.188v-1.6a2.312,2.312,0,0,1,1.671,1.007,2.792,2.792,0,0,1,.5,1.162,2.221,2.221,0,0,1-.028.99" transform="translate(0 -15.098)" fill="#071039"/>
          <path id="패스_7663" data-name="패스 7663" d="M256.191,28.7a2.082,2.082,0,1,1,.007-2.731l1.112-1.13a3.666,3.666,0,1,0-.007,4.991Z" transform="translate(-226.634 -21.374)" fill="#071039"/>
          <path id="패스_7664" data-name="패스 7664" d="M90.159,28.554a2.44,2.44,0,0,1-1.9.9,1.95,1.95,0,0,1-2.03-1.384l-.048-.17h5.487l.007-.106c.014-.208.027-.4.027-.577a3.415,3.415,0,0,0-3.5-3.634,3.508,3.508,0,0,0-3.6,3.648,3.529,3.529,0,0,0,3.6,3.692,3.615,3.615,0,0,0,2.981-1.447l-.965-.992ZM86.227,26.44a1.86,1.86,0,0,1,1.953-1.385,1.814,1.814,0,0,1,1.889,1.389l.041.166H86.179Z" transform="translate(-76.396 -21.3)" fill="#071039"/>
        </g>
      </g>
    </g>
  </g>
</svg>
