<svg xmlns="http://www.w3.org/2000/svg" width="224.517" height="156.465" viewBox="0 0 224.517 156.465">
  <g id="그룹_1670" data-name="그룹 1670" transform="translate(-109.896 -7290.979)">
    <path id="패스_7723" data-name="패스 7723" d="M-49.037-5.735a.41.41,0,0,0-.23-.345,1.959,1.959,0,0,0-1.072-.326c-.211,0-.326.057-.326.153a.224.224,0,0,0,.134.211.6.6,0,0,1,.383.5.46.46,0,0,1-.172.326,4.314,4.314,0,0,0-2.8,1.034,3.55,3.55,0,0,0-1.226,2.815,3.623,3.623,0,0,0,1.207,2.815A4.433,4.433,0,0,0-50.129,2.5a4.334,4.334,0,0,0,2.949-1.073,3.676,3.676,0,0,0,1.226-2.681,3.259,3.259,0,0,0,.613.192.718.718,0,0,0,.192.019.51.51,0,0,0,.23-.057,3.368,3.368,0,0,1,.766-.211,11.421,11.421,0,0,1,2.107-.172v8.81c0,.938.1,1.4.326,1.4.249,0,.421-.44.536-1.36a35.883,35.883,0,0,0,.211-4.443V-7.21c0-.23.077-.9.077-1.149a.478.478,0,0,0-.383-.5,7.919,7.919,0,0,0-2.394-.383c-.4,0-.594.1-.594.306,0,.1.077.153.249.192a3.708,3.708,0,0,1,1.973,1.015v5.573c-.919.1-1.877.134-2.873.192-.5.019-.8.038-1.073.038a3.519,3.519,0,0,0-1.13-2.222,4.035,4.035,0,0,0-2.241-1.015C-49.152-5.448-49.037-5.62-49.037-5.735Zm1.992,4.328a2.766,2.766,0,0,1-.9,2.145,2.93,2.93,0,0,1-2.164.843A2.944,2.944,0,0,1-52.293.738a2.817,2.817,0,0,1-.881-2.145,2.721,2.721,0,0,1,.881-2.088,2.959,2.959,0,0,1,2.183-.862,3.037,3.037,0,0,1,2.183.824A2.72,2.72,0,0,1-47.045-1.407Zm22.58,3.294a.368.368,0,0,0-.268-.364,5.578,5.578,0,0,0-1.992-.345c-.364,0-.575.077-.575.249,0,.1.057.172.211.211a2.761,2.761,0,0,1,1.436.766V3.956l-6.071.153.019-.651a2.966,2.966,0,0,1,.019-.421c0-.057.019-.153.019-.211q0-.431-.517-.517a11.586,11.586,0,0,0-1.724-.172c-.249,0-.555.115-.555.268q0,.172.23.23a2.322,2.322,0,0,1,1.379.651l.115,4.673c.019.555.115.824.287.824.287,0,.536-.364.689-1.111l6.09-.115c.019.689.115,1.034.306,1.034.306,0,.517-.345.651-1.053A8.643,8.643,0,0,0-24.6,6.426l.038-3.466a5.62,5.62,0,0,1,.019-.651C-24.542,2.213-24.465,1.964-24.465,1.887Zm-4.06-2.26c0-.115-.038-.211-.115-.211a1.688,1.688,0,0,0-.4.057,32.5,32.5,0,0,1-5.88.747c-.306,0-.46-.153-.46-.479V-2.633a2.094,2.094,0,0,1,.019-.383c2.03-.134,3.677-.23,4.884-.287.268-.019.421-.134.421-.345s-.268-.364-.766-.46a22.383,22.383,0,0,0,.632-2.49.609.609,0,0,1,.268-.345c.115-.077.172-.153.172-.249a.232.232,0,0,0-.115-.172,3.309,3.309,0,0,0-1.245-.172.872.872,0,0,0-.383.1,1.617,1.617,0,0,1-.46.057,34.085,34.085,0,0,1-3.543.134,14.339,14.339,0,0,1-2.03-.115c-.172-.019-.268.019-.268.115a.28.28,0,0,0,.192.268,4.588,4.588,0,0,0,1.819.728,2.006,2.006,0,0,0,.479-.153,12.936,12.936,0,0,1,3.85-.421,19,19,0,0,1-.1,2.72.321.321,0,0,1-.23.192c-1.072.115-2.2.192-3.428.211-.1,0-.268-.1-.843-.172a14.2,14.2,0,0,0-1.8-.115c-.115,0-.364.153-.364.268a.168.168,0,0,0,.153.172,4.421,4.421,0,0,1,1.551.536V-.507c0,1.015.421,1.724.977,1.781a4.214,4.214,0,0,0,1.149-.057A26.258,26.258,0,0,0-28.755-.162C-28.6-.219-28.525-.3-28.525-.373Zm3.811-8.484a7.919,7.919,0,0,0-2.394-.383c-.4,0-.594.1-.594.306,0,.1.077.153.249.192A3.708,3.708,0,0,1-25.48-7.727v1.858a16.051,16.051,0,0,1-2.6.192,9.45,9.45,0,0,1-1.609-.1c-.211-.038-.326,0-.326.115,0,.1.057.172.192.249a6.6,6.6,0,0,0,1.3.594.719.719,0,0,0,.192.019.752.752,0,0,0,.268-.057,5.344,5.344,0,0,1,.747-.192A10.314,10.314,0,0,1-25.48-5.2v2.6a22.036,22.036,0,0,1-2.739.134,10.143,10.143,0,0,1-1.59-.077c-.211-.038-.345,0-.345.1s.077.172.211.268a8.336,8.336,0,0,0,1.3.575.718.718,0,0,0,.192.019.661.661,0,0,0,.249-.057,4.212,4.212,0,0,1,.766-.23,12.993,12.993,0,0,1,1.953-.115V-.028c0,.824.134,1.245.4,1.245.249,0,.44-.421.555-1.264a16.483,16.483,0,0,0,.115-2.126V-7.21c0-.077.019-.287.038-.709a1.406,1.406,0,0,1,.038-.46A.511.511,0,0,0-24.714-8.857Zm-.938,15.819-6.09.1.019-2.356,6.071-.134ZM-8.78-8.359a.478.478,0,0,0-.383-.5,7.677,7.677,0,0,0-2.356-.383c-.421,0-.613.1-.613.306,0,.1.1.153.268.192A3.652,3.652,0,0,1-9.929-7.727V.757a35.91,35.91,0,0,1-8.848,1.877q-.4.029-.4-.46V-3.935c0-.172,0-.364.019-.613l5.458-.134c.5-.019.747-.23.747-.594,0-.211-.115-.345-.364-.4a3.851,3.851,0,0,0-1.436-.057,9.127,9.127,0,0,1-1.743.46q-1.35.086-2.528.057c-.249-.077-.479-.134-.632-.172a12.807,12.807,0,0,0-1.9-.172c-.23,0-.594.172-.594.326,0,.1.077.172.23.211A2.383,2.383,0,0,1-20.29-4.3l.038,6.148c0,1.149.134,1.417.613,1.7a.835.835,0,0,0,.345.1,4.221,4.221,0,0,0,1.073-.038,39.84,39.84,0,0,0,8.293-2.26V7.326c0,.938.1,1.4.326,1.4.249,0,.421-.44.555-1.36a35.883,35.883,0,0,0,.211-4.443V-.449c1.073-.019,2.049-.038,2.949-.057.517-.019.766-.192.766-.575a.461.461,0,0,0-.383-.44,3.207,3.207,0,0,0-1.7,0,3.194,3.194,0,0,0-.364.23,1.844,1.844,0,0,1-1.264.306V-7.21C-8.837-7.44-8.78-8.11-8.78-8.359ZM11.138,4.722c0-.211-.134-.345-.44-.421a6.192,6.192,0,0,0-1.743-.23,1.438,1.438,0,0,0-.594.153,6.306,6.306,0,0,1-2.03.326c-1.341.057-2.7.1-4.06.134L2.4-.2c.019-.345.038-.613.057-.843.019-.172-.057-.268-.249-.326A10.715,10.715,0,0,0,.145-1.637q-.575,0-.575.23c0,.134.077.192.249.23A2.5,2.5,0,0,1,1.275-.3l.019,5c-1.245.019-2.509.019-3.754.019a17.813,17.813,0,0,1-2.873-.211c-.192-.038-.287,0-.287.1s.077.211.23.326a5.119,5.119,0,0,0,1.819.824,2.017,2.017,0,0,0,.345.057A.6.6,0,0,0-3,5.737a6.117,6.117,0,0,1,1.8-.345C.815,5.22,3.88,5.143,8,5.143c.843,0,1.609.038,2.241.1C10.851,5.3,11.138,5.143,11.138,4.722ZM8.668-6.52c0-.192-.1-.287-.306-.326a4.154,4.154,0,0,0-.919-.115,1.013,1.013,0,0,0-.479.134,1.73,1.73,0,0,1-.536.115c-3.026.192-5.42.249-7.124.23a12.978,12.978,0,0,1-2.528-.211q-.345-.029-.345.172c0,.1.1.211.268.306a7.047,7.047,0,0,0,1.628.747,1.615,1.615,0,0,0,.44.077.782.782,0,0,0,.306-.077A4.947,4.947,0,0,1,.911-5.85C4.205-6,6.216-6.08,6.982-6.061c0,1.015-.038,2.145-.153,3.409-.1,1.59-.23,2.969-.46,4.52a1.178,1.178,0,0,0-.019.249c0,.134.057.211.153.211.211,0,.421-.306.575-.862a32.288,32.288,0,0,0,.843-4.137c.1-.709.23-1.819.364-3.294C8.533-6.176,8.668-6.367,8.668-6.52ZM29.735-.488a.406.406,0,0,0-.421-.44A10.527,10.527,0,0,0,27.609-1a.969.969,0,0,0-.575.211,3.615,3.615,0,0,1-1.609.287c-2.375.077-3.984.115-4.807.115-.383-.019-.594-.23-.594-.689v-3.85a7.044,7.044,0,0,1,.019-.747c.057-.364-.038-.555-.287-.613a11.872,11.872,0,0,0-2.2-.153c-.249,0-.613.172-.613.326,0,.1.077.172.249.211,1.034.23,1.628.44,1.724.689V-1.5c0,1.149.46,1.724,2.03,1.666,3.122-.077,5.8-.115,8.082-.134C29.5.01,29.735-.162,29.735-.488ZM32.205,4.7c0-.211-.134-.345-.44-.421a6.192,6.192,0,0,0-1.743-.23,1.438,1.438,0,0,0-.594.153,6.422,6.422,0,0,1-2.03.306c-2.892.134-5.841.192-8.791.192a17.813,17.813,0,0,1-2.873-.211c-.192-.038-.287,0-.287.1s.077.211.23.326a5.119,5.119,0,0,0,1.819.824,2.017,2.017,0,0,0,.345.057.6.6,0,0,0,.23-.077,6.117,6.117,0,0,1,1.8-.345c2.011-.172,5.075-.249,9.193-.249.843,0,1.609.038,2.241.1C31.918,5.277,32.205,5.124,32.205,4.7ZM42.662-5.62c0-.192-.345-.345-.919-.345-.153,0-.517.153-.843.211q-1.063.115-1.609.115c-.249,0-.5,0-.766-.019-.077-.172-.44-.249-1.092-.249-.23,0-.46.134-.862.192a16.69,16.69,0,0,1-1.743.1,7.863,7.863,0,0,1-1.647-.134c-.192-.038-.268.038-.268.134s.077.192.23.287a5.256,5.256,0,0,0,1.034.536.744.744,0,0,0,.287.038,6.771,6.771,0,0,1,2.471-.4A17.027,17.027,0,0,1,35.25-1.12a17.635,17.635,0,0,1-2.873,3.926c-.134.134-.172.211-.172.23,0,.134.038.192.134.192a.382.382,0,0,0,.172-.038A14.941,14.941,0,0,0,35.978-.66a15.222,15.222,0,0,0,2.03-4.386c.019-.019.038-.057.077-.1a5.007,5.007,0,0,0,.709.287,1.247,1.247,0,0,0,.345.077.47.47,0,0,0,.287-.1c.306-.23.709-.287,1.8-.306a21.818,21.818,0,0,1-4.826,9.6.489.489,0,0,0-.134.23c0,.115.057.172.153.172a.382.382,0,0,0,.172-.038,17.434,17.434,0,0,0,5.094-7.661,5.08,5.08,0,0,0,.958.421,1.1,1.1,0,0,0,.23.019A.51.51,0,0,0,43.1-2.5a6.382,6.382,0,0,1,2.279-.383V.527C44.654.6,43.83.642,42.911.662A9.675,9.675,0,0,1,41.3.585c-.211-.019-.326,0-.326.1s.057.172.192.249a5.067,5.067,0,0,0,1.283.651A1.271,1.271,0,0,0,42.7,1.6a.51.51,0,0,0,.23-.057,7.024,7.024,0,0,1,2.451-.364V7.326c0,.958.1,1.417.326,1.417.479,0,.766-1.781.766-5.822V-7.21c0-.23.057-.881.057-1.168a.455.455,0,0,0-.364-.479,8.042,8.042,0,0,0-2.413-.383c-.4,0-.594.1-.594.306,0,.1.077.153.249.192a3.708,3.708,0,0,1,1.973,1.015v4.252c-.689.057-1.417.115-2.164.115a9.3,9.3,0,0,1-1.36-.038c.172-.555.326-1.111.479-1.7a1.693,1.693,0,0,0,.153-.211A.717.717,0,0,0,42.662-5.62ZM58.807.662A.73.73,0,0,0,58.73.336,4.864,4.864,0,0,0,57.926-1a1.351,1.351,0,0,0-.613-.383,2.007,2.007,0,0,1-.824-.575l-.977-.9A13.064,13.064,0,0,0,57.62-5.831a2.236,2.236,0,0,1,.306-.306.914.914,0,0,0,.211-.345c0-.115-.1-.23-.287-.287a2.7,2.7,0,0,0-.862-.134.947.947,0,0,0-.46.134,2.367,2.367,0,0,1-.517.115,31.681,31.681,0,0,1-4,.115,9.7,9.7,0,0,1-1.915-.153c-.153-.019-.23.038-.23.134s.057.172.192.268a9.034,9.034,0,0,0,1.436.651A1.676,1.676,0,0,0,51.8-5.6a.706.706,0,0,0,.306-.134,2.6,2.6,0,0,1,.9-.249c.824-.077,1.934-.115,3.409-.115a22.1,22.1,0,0,1-7.259,7.45c-.134.1-.192.172-.192.23q0,.172.115.172a.53.53,0,0,0,.249-.057,21.407,21.407,0,0,0,5.018-3.39c.23-.211.46-.421.689-.651L58,.681c.211.211.364.306.5.306C58.711.968,58.807.872,58.807.662ZM63-8.378a.489.489,0,0,0-.364-.5,7.9,7.9,0,0,0-2.394-.364c-.421,0-.613.1-.613.306,0,.1.1.153.268.172a3.8,3.8,0,0,1,1.973,1.034V-5.41a17.117,17.117,0,0,1-2.164.153,6.255,6.255,0,0,1-1.436-.1c-.249-.038-.364,0-.364.115,0,.1.057.172.192.249a9.829,9.829,0,0,0,1.245.594.859.859,0,0,0,.211.019.612.612,0,0,0,.268-.057,1.964,1.964,0,0,1,.594-.192c.555-.038,1.073-.057,1.456-.1v2.413a17.442,17.442,0,0,1-2.164.134,6.4,6.4,0,0,1-1.436-.077c-.249-.038-.364,0-.364.1a.318.318,0,0,0,.192.268,5.723,5.723,0,0,0,1.187.575.988.988,0,0,0,.211.038.612.612,0,0,0,.268-.057,2.163,2.163,0,0,1,.651-.211c.555-.038,1.073-.057,1.456-.077V-.162c0,.8.115,1.207.383,1.207s.46-.4.575-1.226a16.509,16.509,0,0,0,.115-2.164V-7.21C62.944-7.459,63-8.091,63-8.378ZM62.274,2.155a.348.348,0,0,0-.268-.364,9.244,9.244,0,0,0-1.819-.728,1.427,1.427,0,0,0-.345-.038c-.287,0-.44.057-.44.211,0,.038.1.115.287.211.728.44,1.111.843,1.13,1.168A15.462,15.462,0,0,1,56.662,7.9c-.172.153-.249.249-.249.306,0,.115.057.172.153.172a1,1,0,0,0,.306-.115A14.3,14.3,0,0,0,61.01,4.492l2.471,3.16c.172.23.326.364.5.364.211,0,.306-.153.306-.44a.768.768,0,0,0-.057-.287,11.136,11.136,0,0,0-.8-1.551,5.2,5.2,0,0,0-.709-.421,3.2,3.2,0,0,1-.728-.689l-.594-.709A12.474,12.474,0,0,0,62.14,2.6.884.884,0,0,0,62.274,2.155Zm-6.224.306a.381.381,0,0,0-.211-.345,7.74,7.74,0,0,0-1.685-.575,1.2,1.2,0,0,0-.326-.019q-.46-.029-.46.172-.029.086.172.172c.785.364,1.207.67,1.245.9a13.345,13.345,0,0,1-4.118,4.884c-.172.134-.249.23-.249.326,0,.115.038.172.134.172A1.076,1.076,0,0,0,50.9,8,11.349,11.349,0,0,0,55.13,4.3L56.8,6.292a.5.5,0,0,0,.326.211c.249,0,.364-.153.364-.44a.953.953,0,0,0-.057-.306,3.392,3.392,0,0,0-.364-.824.771.771,0,0,0-.249-.249,1.886,1.886,0,0,1-.843-.44l-.5-.46a8.23,8.23,0,0,0,.46-.919A1.087,1.087,0,0,0,56.049,2.462ZM75.871-.124c0-.134-.038-.192-.115-.192a1.025,1.025,0,0,0-.345.077c-.977.249-1.781.421-2.375.517a25.344,25.344,0,0,1-4.079.4c-.306,0-.46-.153-.46-.479l-.019-5.056c0-.172.019-.383.038-.632,2.183-.077,4.06-.115,5.611-.115.479,0,.728-.192.728-.536.019-.249-.115-.421-.555-.5a3.712,3.712,0,0,0-1.245-.019,2.175,2.175,0,0,0-.728.306,2.781,2.781,0,0,1-1.13.172c-.517.038-1.36.057-2.566.038a4.794,4.794,0,0,0-.594-.192,13.644,13.644,0,0,0-1.8-.172c-.268,0-.613.172-.613.345,0,.1.077.172.23.192a2.068,2.068,0,0,1,1.513.728l.057,5.19A2.485,2.485,0,0,0,67.617,1.1a1.062,1.062,0,0,0,.421.479,2.213,2.213,0,0,0,.938.077A25.977,25.977,0,0,0,73.343.891,13.382,13.382,0,0,0,75.584.164C75.776.049,75.871-.028,75.871-.124Zm3.7-8.235a.478.478,0,0,0-.383-.5,7.919,7.919,0,0,0-2.394-.383c-.4,0-.594.1-.594.306,0,.1.077.153.249.192a3.913,3.913,0,0,1,1.973,1V-3.4a32.954,32.954,0,0,1-3.428.192c-.747,0-1.36-.038-1.839-.077-.23-.019-.364.019-.364.115,0,.077.077.153.211.23a6.074,6.074,0,0,0,1.513.709,1.25,1.25,0,0,0,.211.038.53.53,0,0,0,.249-.057,2.67,2.67,0,0,1,.728-.23,27.186,27.186,0,0,1,2.72-.249V2.5c0,1.053.115,1.59.345,1.59s.421-.536.575-1.59a18.708,18.708,0,0,0,.153-2.547V-7.21C79.491-7.459,79.568-8.11,79.568-8.359ZM80.487,7.02c0-.249-.134-.383-.4-.44a10.453,10.453,0,0,0-1.666-.057,1.074,1.074,0,0,0-.575.192,4.609,4.609,0,0,1-1.9.326c-1.647.057-2.873.057-3.639.038a.6.6,0,0,1-.594-.689V4.339a6.053,6.053,0,0,1,.019-.747c.038-.364-.057-.594-.287-.651a11.688,11.688,0,0,0-2.164-.153c-.268,0-.613.172-.613.345,0,.1.077.172.268.211a3.461,3.461,0,0,1,1.7.67l.019,1.953a1.589,1.589,0,0,0,.4,1.283,2.21,2.21,0,0,0,1.57.4c2.49-.038,4.845-.057,7.144-.057C80.238,7.594,80.487,7.4,80.487,7.02Zm22.484-8.465c0-.192-.153-.326-.46-.44a5.669,5.669,0,0,0-1.628-.23,1.6,1.6,0,0,0-.613.153,4.82,4.82,0,0,1-1.7.345,10.673,10.673,0,0,0,.5-1.551c.077-.287.211-.862.421-1.743.172-.728.345-1.551.479-2.432.249-.211.383-.4.383-.517,0-.134-.1-.211-.268-.268a5.118,5.118,0,0,0-.977-.1,1.215,1.215,0,0,0-.479.134,1.48,1.48,0,0,1-.517.115c-2.107.134-4.194.211-6.224.211a15.575,15.575,0,0,1-2.49-.192q-.345-.057-.345.115c0,.1.1.23.268.345a5.957,5.957,0,0,0,1.532.67,2.667,2.667,0,0,0,.44.1.636.636,0,0,0,.306-.1,4.673,4.673,0,0,1,1.9-.4c2.183-.134,3.888-.192,5.133-.153-.077.938-.115,1.609-.134,2.011-1.647.268-4.1.5-7.373.728a12.268,12.268,0,0,1-2.566-.115c-.211-.019-.306.019-.306.172,0,.115.077.211.23.268a10.714,10.714,0,0,0,1.915.8,2.445,2.445,0,0,0,.326.038,2.174,2.174,0,0,0,.555-.172,2.18,2.18,0,0,1,.709-.211c2.739-.326,4.884-.632,6.454-.977-.192,1.57-.345,2.643-.44,3.237-2.739.1-5.611.153-8.618.153A17.47,17.47,0,0,1,86.5-1.656c-.192-.038-.287,0-.287.1a.408.408,0,0,0,.23.326,5.772,5.772,0,0,0,1.839.843,1.292,1.292,0,0,0,.326.057.694.694,0,0,0,.249-.1,5.975,5.975,0,0,1,1.8-.345c2.011-.192,5.075-.268,9.193-.268a19.5,19.5,0,0,1,2.3.115.9.9,0,0,0,.709-.134A.539.539,0,0,0,102.971-1.445Zm-2.624,8.829c0-.594-.747-.575-1.973-.575A1.074,1.074,0,0,0,97.8,7a5.306,5.306,0,0,1-1.819.287c-1.475.1-2.854.115-4.137.077-.287-.019-.44-.153-.44-.44V5.2c0,.057,0-.057.019-.345,1.609-.077,4.06-.134,7.393-.153.287,0,.44-.1.44-.306,0-.172-.23-.306-.709-.383a15.374,15.374,0,0,0,.5-2.088.453.453,0,0,1,.249-.326.283.283,0,0,0,.172-.249c0-.1-.077-.172-.211-.211A4.5,4.5,0,0,0,98.164.968c-.249,0-.5.211-.881.23a57.88,57.88,0,0,1-5.937.192c-.536-.019-1.168-.077-1.915-.172-.192-.038-.287,0-.287.134a.243.243,0,0,0,.134.211,4.035,4.035,0,0,0,1.9.747,1.327,1.327,0,0,0,.479-.153,4.02,4.02,0,0,1,1.341-.211c1.819-.134,3.447-.192,4.865-.211q0,1.867-.057,2.241a.453.453,0,0,1-.306.211c-1.9.1-3.83.134-5.784.134a.85.85,0,0,1-.249-.038,1.655,1.655,0,0,0-.4-.134,8.148,8.148,0,0,0-1.877-.1c-.249.019-.364.077-.364.211,0,.1.077.153.268.192a3.085,3.085,0,0,1,1.245.5V6.56a1.432,1.432,0,0,0,.383,1.13,1.55,1.55,0,0,0,1.073.211c1.953-.077,4.577-.1,7.814-.057Q100.347,7.843,100.347,7.384Zm13.866-14.5a.449.449,0,0,0-.306-.479,5.743,5.743,0,0,0-2.03-.421c-.364,0-.555.1-.555.268,0,.1.077.172.268.23a2.439,2.439,0,0,1,1.532.824V1.638a29.88,29.88,0,0,1-6.856,1.111c-.268,0-.4-.134-.4-.421V-.794a1.97,1.97,0,0,1,.019-.345c.8-.057,2.26-.153,4.386-.287.306-.019.44-.134.44-.345,0-.249-.23-.4-.709-.46.249-1.034.4-1.8.575-2.892.134-.306.345-.46.345-.689,0-.077-.077-.134-.23-.192a3.359,3.359,0,0,0-1.034-.153,1,1,0,0,0-.4.115c-.211.057-.383.077-.479.1a24.026,24.026,0,0,1-2.93.115,13.038,13.038,0,0,1-1.992-.115c-.172-.019-.287,0-.287.134a.294.294,0,0,0,.172.23,7.683,7.683,0,0,0,1.321.651,1,1,0,0,0,.4.077,2.317,2.317,0,0,0,.479-.153,12.4,12.4,0,0,1,3.39-.345,30.084,30.084,0,0,1-.1,3.122c-.057.134-.134.192-.211.192a15.288,15.288,0,0,1-2.988.192c-.1-.019-.192-.038-.268-.057a4.111,4.111,0,0,0-.67-.115,11.528,11.528,0,0,0-1.456-.077c-.115,0-.364.115-.364.249a.175.175,0,0,0,.134.192,3.826,3.826,0,0,1,1.3.517V2.04a2.672,2.672,0,0,0,.211,1.245,1.237,1.237,0,0,0,.4.46,1.146,1.146,0,0,0,.8.115,26.954,26.954,0,0,0,6.99-1.762v3.83c0,.881.1,1.3.306,1.3.326,0,.555-.919.651-2.777.057-1.13.077-2.011.077-2.624V-.7l2.49-.057V7.077c0,1.111.1,1.647.306,1.647.23,0,.536-.824.632-1.973.077-1.092.1-2.241.1-3.428V-7.306a4.269,4.269,0,0,1,.057-.613,2.6,2.6,0,0,0,.038-.383.487.487,0,0,0-.345-.5,7.3,7.3,0,0,0-2.222-.44c-.4,0-.613.1-.613.306,0,.077.077.134.249.172a3.224,3.224,0,0,1,1.8,1.015v6.282l-2.49.077V-6.08a4.233,4.233,0,0,1,.019-.613C114.194-6.942,114.213-7.095,114.213-7.114Zm12.583.766a.629.629,0,0,0-.306-.5,6.771,6.771,0,0,0-1.9-.709,1.519,1.519,0,0,0-.326-.038q-.4,0-.4.172a.3.3,0,0,0,.211.249,2.164,2.164,0,0,1,1.245,1.226,17.211,17.211,0,0,1-4.807,6.8c-.249.211-.383.364-.383.421,0,.1.038.134.153.134a.817.817,0,0,0,.4-.153,14.965,14.965,0,0,0,4.577-4.462L129.018.2a.7.7,0,0,0,.46.23c.211,0,.306-.115.306-.383a.63.63,0,0,0-.077-.326A3.705,3.705,0,0,0,128.5-1.924a2.955,2.955,0,0,0-.728-.306,5.872,5.872,0,0,1-1.073-.747L125.628-3.8a15.92,15.92,0,0,0,1.053-2.145A1.087,1.087,0,0,0,126.8-6.348Zm6.78,8.752c0-.23-.536-.4-.958-.4-.211,0-.728.192-.977.192-2.049.134-4.692.249-6.033.268a15.787,15.787,0,0,1-2.509-.172c-.23-.019-.345.019-.345.153,0,.1.1.211.268.306a8.119,8.119,0,0,0,1.551.689,3.16,3.16,0,0,0,.44.1.706.706,0,0,0,.326-.1A5.229,5.229,0,0,1,127.256,3c1.8-.115,4.022-.192,4.979-.192V6.886c0,1.168.115,1.743.364,1.743.23,0,.44-.479.594-1.475a12.886,12.886,0,0,0,.115-1.379l.038-2.892A1.349,1.349,0,0,0,133.576,2.4Zm-.4-11.261a7.947,7.947,0,0,0-2.413-.383c-.383,0-.575.1-.575.306,0,.1.077.153.249.192a3.708,3.708,0,0,1,1.973,1.015V.317c0,.824.134,1.226.383,1.226.268,0,.46-.4.575-1.245a16.906,16.906,0,0,0,.115-2.126V-7.21c0-.077.019-.287.038-.709a1.406,1.406,0,0,1,.038-.46A.511.511,0,0,0,133.174-8.857Zm4.233,15.609a1.075,1.075,0,0,0,1.072-1.092,1.057,1.057,0,0,0-1.072-1.111,1.108,1.108,0,0,0-1.092,1.111A1.13,1.13,0,0,0,137.406,6.752ZM-56.027,21.946a.455.455,0,0,0-.364-.479,8.112,8.112,0,0,0-2.394-.383c-.421,0-.613.1-.613.306,0,.1.1.153.268.192A3.782,3.782,0,0,1-57.157,22.6v6.856c-1,.1-1.819.134-2.432.134-.728,0-1.456-.019-1.743-.057-.211-.019-.326.038-.326.134a.322.322,0,0,0,.192.287,5.966,5.966,0,0,0,1.341.689.59.59,0,0,0,.192.019,1,1,0,0,0,.268-.038,2.425,2.425,0,0,1,.709-.287,13.374,13.374,0,0,1,1.8-.211V37.65c0,.958.1,1.417.326,1.417s.4-.46.536-1.379a35.45,35.45,0,0,0,.211-4.443V23.114C-56.085,22.884-56.027,22.233-56.027,21.946Zm-4.711,4.443c0-.1-.115-.192-.287-.249a2.6,2.6,0,0,0-.862-.115c-.287,0-.728.211-1,.23a33.933,33.933,0,0,1-4.271.153,13.673,13.673,0,0,1-2.011-.153q-.23-.029-.23.115a.348.348,0,0,0,.192.306,6.556,6.556,0,0,0,1.59.689.59.59,0,0,0,.192.019.457.457,0,0,0,.23-.077,3.323,3.323,0,0,1,1.417-.326c1.417-.115,2.547-.172,3.352-.153a22.959,22.959,0,0,1-7.488,7.68c-.134.1-.192.172-.192.249,0,.134.038.192.134.192a.457.457,0,0,0,.23-.077A18.219,18.219,0,0,0-64.78,31.5l.517-.517,3.1,3.486a.693.693,0,0,0,.479.306c.192.019.306-.115.326-.364a1.547,1.547,0,0,0-.057-.364,4.177,4.177,0,0,0-1.015-1.685,1.448,1.448,0,0,0-.594-.345,2.906,2.906,0,0,1-.919-.632l-.843-.881a17.8,17.8,0,0,0,2.509-3.428C-61.122,26.791-60.739,26.561-60.739,26.389Zm-1.819-2.26q0-.4-.632-.4a15.165,15.165,0,0,1-3.715-.326c-.172-.019-.287-.038-.364-.038-.115,0-.172.038-.172.134a.348.348,0,0,0,.115.268,7.367,7.367,0,0,0,1.053.747,1.29,1.29,0,0,0,.9.192,1.622,1.622,0,0,1,.249-.019c.555-.038,1.187-.077,1.915-.1C-62.769,24.589-62.558,24.435-62.558,24.129Zm21.814,8.848c0-.1-.077-.172-.249-.23a3.215,3.215,0,0,0-.958-.134c-.172,0-.632.134-.8.134-2.471.115-4.386.172-5.707.192a2.349,2.349,0,0,0-.747-.192,10.061,10.061,0,0,0-1.513-.115c-.326,0-.517.077-.517.249q0,.115.287.172a2.266,2.266,0,0,1,1.283.67l.4,4.443c.057.575.192.862.364.862.249,0,.4-.306.5-.919,2.145-.077,4.462-.115,6.837-.115.46,0,.689-.115.689-.326,0-.23-.268-.364-.8-.44.153-.67.306-1.858.5-3.562C-41.166,33.437-40.744,33.13-40.744,32.977Zm-3.85-11.28a.3.3,0,0,0-.211-.249,1.876,1.876,0,0,0-.747-.192c-.268,0-.4.057-.4.115a.158.158,0,0,0,.1.153c.192.115.268.211.268.383a.362.362,0,0,1-.134.268,4.532,4.532,0,0,0-2.834.938,2.836,2.836,0,0,0-1.13,2.3,2.927,2.927,0,0,0,1.149,2.337,4.712,4.712,0,0,0,2.988.919,4.745,4.745,0,0,0,2.949-.9,2.9,2.9,0,0,0,1.168-2.356,2.856,2.856,0,0,0-1.149-2.3,4.219,4.219,0,0,0-2.241-.9A1.107,1.107,0,0,0-44.594,21.7Zm2.222,11.625-.019,3.83c-.038.172-.172.249-.383.268-1.858.134-3.735.172-5.611.134l-.077-3.562a3.56,3.56,0,0,1,.019-.5C-45.073,33.4-43.042,33.322-42.372,33.322Zm-3.141-10.438a3.2,3.2,0,0,1,2.164.709,2.33,2.33,0,0,1,.862,1.819,2.316,2.316,0,0,1-.843,1.819,3.159,3.159,0,0,1-2.183.709,3.294,3.294,0,0,1-2.222-.709,2.316,2.316,0,0,1-.843-1.819,2.33,2.33,0,0,1,.862-1.819A3.378,3.378,0,0,1-45.513,22.884Zm8.389,7.354c0-.211-.134-.345-.44-.421a6.29,6.29,0,0,0-1.743-.23,1.438,1.438,0,0,0-.594.153,6.321,6.321,0,0,1-2.03.306c-2.777.115-5.726.172-8.791.172a19.673,19.673,0,0,1-2.873-.211c-.192-.019-.287,0-.287.1a.408.408,0,0,0,.23.326,5.835,5.835,0,0,0,1.819.843,1.288,1.288,0,0,0,.345.057.457.457,0,0,0,.23-.077,5.281,5.281,0,0,1,1.8-.364c2.2-.153,5.286-.23,9.193-.23.824,0,1.57.038,2.241.1C-37.412,30.813-37.125,30.66-37.125,30.238Zm12.755-7.948a.368.368,0,0,0-.268-.364,5.861,5.861,0,0,0-1.992-.364c-.192,0-.594.134-.594.306a.2.2,0,0,0,.192.23,2.305,2.305,0,0,1,1.436.824v1.819l-6.627.1.019-1.245a2.1,2.1,0,0,1,.019-.4,1.658,1.658,0,0,0,.019-.211c0-.306-.153-.46-.479-.517a14.165,14.165,0,0,0-1.915-.192c-.211,0-.536.172-.536.306a.242.242,0,0,0,.23.268,2.1,2.1,0,0,1,1.475.728l.077,5.554c.019.536.115.785.306.785.364.019.613-.383.728-1.187l6.684-.134q.029.8.287.8c.306,0,.536-.326.67-1a8.578,8.578,0,0,0,.115-1.168l.057-3.869a6.161,6.161,0,0,1,.019-.632C-24.446,22.616-24.369,22.367-24.369,22.29Zm3.811,8.925c0-.211-.134-.345-.44-.421a6.192,6.192,0,0,0-1.743-.23,1.438,1.438,0,0,0-.594.153,6.306,6.306,0,0,1-2.03.326c-2.892.115-5.841.172-8.791.172A17.813,17.813,0,0,1-37.029,31c-.192-.038-.287,0-.287.1s.077.211.23.326a5.119,5.119,0,0,0,1.819.824,2.017,2.017,0,0,0,.345.057.6.6,0,0,0,.23-.077,6.117,6.117,0,0,1,1.8-.345q1.379-.115,3.447-.172v5.9c0,.977.1,1.456.287,1.456.5,0,.785-1.973.785-6.205V31.675c1.36-.019,2.93-.038,4.673-.038.843,0,1.609.038,2.241.1C-20.845,31.79-20.558,31.636-20.558,31.215ZM-25.6,27.959l-6.665.115.038-2.6,6.627-.115Zm15.7,4.482c0-.134-.038-.192-.115-.192a1.375,1.375,0,0,0-.326.038,33.942,33.942,0,0,1-6.55.958c-.306.019-.44-.134-.44-.44V29.472c1.877-.1,3.352-.172,4.424-.211.479-.019.709-.211.709-.555,0-.249-.153-.383-.479-.421a5.606,5.606,0,0,0-1.609,0,1.134,1.134,0,0,0-.555.249,8.377,8.377,0,0,1-.977.23c-.67.038-1.168.057-1.513.057V25.872c0,.019.019-.192.057-.651,2.126-.057,3.869-.115,5.209-.172.517,0,.766-.192.766-.594,0-.172-.134-.306-.4-.383a3.715,3.715,0,0,0-1.417-.038,5.358,5.358,0,0,0-.747.268,14.571,14.571,0,0,1-1.59.153c-.172.019-.46.038-.9.057-.364.038-.651.057-.824.057-.306-.1-.517-.172-.613-.192a8.291,8.291,0,0,0-1.973-.153c-.421.019-.613.134-.613.306q0,.172.862.4a1.547,1.547,0,0,1,1.073.594l.038,6.971a2.342,2.342,0,0,0,.23,1.226,1.083,1.083,0,0,0,.766.555,3.533,3.533,0,0,0,1-.019,26.634,26.634,0,0,0,6.263-1.609C-9.967,32.575-9.891,32.517-9.891,32.441Zm3.562-10.5a.507.507,0,0,0-.383-.5,7.955,7.955,0,0,0-2.375-.364c-.421,0-.613.1-.613.306,0,.077.077.134.249.172A3.839,3.839,0,0,1-7.477,22.6v5.458c-.747.057-1.417.077-2.011.1a14.877,14.877,0,0,1-1.9-.1c-.23-.038-.345,0-.345.1s.057.172.192.268a5.058,5.058,0,0,0,1.513.728.567.567,0,0,0,.192.038.51.51,0,0,0,.23-.057,3.937,3.937,0,0,1,.919-.287c.44-.057.843-.077,1.207-.1V37.65c0,.938.1,1.4.326,1.4.249,0,.421-.44.555-1.36A36.283,36.283,0,0,0-6.4,33.245V23.114C-6.4,22.884-6.328,22.233-6.328,21.946Zm20.052,0a.455.455,0,0,0-.364-.479,8.087,8.087,0,0,0-2.375-.383c-.421,0-.613.1-.613.306,0,.1.1.153.268.192A3.793,3.793,0,0,1,12.594,22.6V37.65c0,.958.1,1.417.326,1.417s.4-.46.536-1.379a35.448,35.448,0,0,0,.211-4.443V29.932c1.13-.019,2.126-.057,2.949-.077.517,0,.766-.172.766-.555A.466.466,0,0,0,17,28.84a3.821,3.821,0,0,0-1.8.019,3.194,3.194,0,0,0-.364.23,1.678,1.678,0,0,1-1.168.326v-6.3C13.666,22.884,13.724,22.233,13.724,21.946ZM9.7,26.523c0-.1-.1-.192-.268-.249a2.678,2.678,0,0,0-.862-.115c-.287,0-.747.211-1,.23a29.156,29.156,0,0,1-4.367.153,13.169,13.169,0,0,1-1.992-.153c-.172-.019-.249.019-.249.115a.328.328,0,0,0,.192.306,7.452,7.452,0,0,0,1.57.67.59.59,0,0,0,.192.019.694.694,0,0,0,.249-.1,3.7,3.7,0,0,1,1.417-.287c1.436-.115,2.585-.172,3.447-.153A23.044,23.044,0,0,1,.528,34.528c-.134.077-.192.153-.192.249,0,.115.038.172.134.172a.457.457,0,0,0,.23-.077A19.624,19.624,0,0,0,5.68,31.56c.211-.211.44-.421.651-.632l3.313,3.2a.947.947,0,0,0,.517.287c.211-.019.326-.172.306-.421a1.025,1.025,0,0,0-.077-.345,4.258,4.258,0,0,0-1.168-1.609,1.988,1.988,0,0,0-.613-.306,2.837,2.837,0,0,1-.977-.555L6.81,30.43a16.56,16.56,0,0,0,2.375-3.218C9.338,26.925,9.7,26.714,9.7,26.523Zm-1.9-2.3c0-.268-.211-.4-.613-.4A15.237,15.237,0,0,1,3.458,23.5c-.172-.019-.287-.038-.383-.038-.115,0-.172.038-.172.134a.321.321,0,0,0,.115.268,8.63,8.63,0,0,0,1.053.747,1.366,1.366,0,0,0,.919.192,2.166,2.166,0,0,1,.268-.019c.8-.038,1.417-.057,1.915-.077C7.6,24.7,7.806,24.531,7.806,24.225Zm25.836,5.382c0-.23-.153-.364-.46-.46a5.669,5.669,0,0,0-1.628-.23,1.6,1.6,0,0,0-.613.153,5.365,5.365,0,0,1-1.9.326A27.21,27.21,0,0,0,30,26.255c.172-.632.345-1.513.555-2.662.249-.249.383-.4.383-.46,0-.115-.1-.211-.287-.249a5.537,5.537,0,0,0-1-.172,1.013,1.013,0,0,0-.479.134,1.4,1.4,0,0,1-.536.115c-1.609.1-3.792.134-6.531.134A16.339,16.339,0,0,1,19.6,22.9c-.23-.019-.345.019-.345.153,0,.077.1.192.268.287a7.575,7.575,0,0,0,1.551.709,1.545,1.545,0,0,0,.421.115.855.855,0,0,0,.345-.1,4.616,4.616,0,0,1,1.762-.345c2.394-.172,4.252-.249,5.592-.23-.057,1.073-.134,1.973-.23,2.662-.134,1.073-.287,2.145-.5,3.256-2.681.115-5.516.172-8.427.172a15.425,15.425,0,0,1-2.873-.23c-.192-.019-.287,0-.287.1a.41.41,0,0,0,.23.345,5.589,5.589,0,0,0,1.839.843c.192.038.306.057.326.057a.694.694,0,0,0,.249-.1,4.961,4.961,0,0,1,1.8-.345c2.03-.172,5.094-.268,9.193-.268a19.5,19.5,0,0,1,2.3.115.9.9,0,0,0,.709-.134A.488.488,0,0,0,33.642,29.606Zm-2.413,7.546a.448.448,0,0,0-.421-.479A10.3,10.3,0,0,0,29.16,36.6a1.325,1.325,0,0,0-.575.211,4.868,4.868,0,0,1-1.9.306c-1.4.057-2.739.057-4.06.019-.536-.019-.594-.211-.594-.613V34.164a5.856,5.856,0,0,1,.038-.766c.038-.345-.057-.536-.306-.594a13.446,13.446,0,0,0-2.2-.153c-.287,0-.594.172-.594.326,0,.1.077.172.249.211,1.015.23,1.475.4,1.724.689l.019,2.145c0,1.245.421,1.666,1.973,1.666q4.482-.029,7.584-.057C31,37.631,31.228,37.478,31.228,37.152ZM46.856,21.946a.455.455,0,0,0-.364-.479,8.087,8.087,0,0,0-2.375-.383c-.421,0-.613.1-.613.306,0,.1.1.153.268.192A3.793,3.793,0,0,1,45.726,22.6V37.65c0,.958.1,1.417.326,1.417s.4-.46.536-1.379a35.449,35.449,0,0,0,.211-4.443V29.932c1.13-.019,2.126-.057,2.949-.077.517,0,.766-.172.766-.555a.466.466,0,0,0-.383-.46,3.821,3.821,0,0,0-1.8.019,3.194,3.194,0,0,0-.364.23,1.678,1.678,0,0,1-1.168.326v-6.3C46.8,22.884,46.856,22.233,46.856,21.946Zm-4.022,4.577c0-.1-.1-.192-.268-.249a2.678,2.678,0,0,0-.862-.115c-.287,0-.747.211-1,.23a29.156,29.156,0,0,1-4.367.153,13.169,13.169,0,0,1-1.992-.153c-.172-.019-.249.019-.249.115a.328.328,0,0,0,.192.306,7.452,7.452,0,0,0,1.57.67.59.59,0,0,0,.192.019.694.694,0,0,0,.249-.1,3.7,3.7,0,0,1,1.417-.287c1.436-.115,2.585-.172,3.447-.153a23.044,23.044,0,0,1-7.508,7.565c-.134.077-.192.153-.192.249,0,.115.038.172.134.172a.457.457,0,0,0,.23-.077,19.624,19.624,0,0,0,4.979-3.313c.211-.211.44-.421.651-.632l3.313,3.2a.947.947,0,0,0,.517.287c.211-.019.326-.172.306-.421a1.025,1.025,0,0,0-.077-.345,4.258,4.258,0,0,0-1.168-1.609,1.988,1.988,0,0,0-.613-.306,2.837,2.837,0,0,1-.977-.555l-.824-.747a16.56,16.56,0,0,0,2.375-3.218C42.471,26.925,42.834,26.714,42.834,26.523Zm-1.9-2.3c0-.268-.211-.4-.613-.4a15.237,15.237,0,0,1-3.735-.326c-.172-.019-.287-.038-.383-.038-.115,0-.172.038-.172.134a.321.321,0,0,0,.115.268,8.63,8.63,0,0,0,1.053.747,1.366,1.366,0,0,0,.919.192,2.166,2.166,0,0,1,.268-.019c.8-.038,1.417-.057,1.915-.077C40.728,24.7,40.938,24.531,40.938,24.225Zm25.836,5.382c0-.23-.153-.364-.46-.46a5.669,5.669,0,0,0-1.628-.23,1.6,1.6,0,0,0-.613.153,5.365,5.365,0,0,1-1.9.326,27.209,27.209,0,0,0,.958-3.141c.172-.632.345-1.513.555-2.662.249-.249.383-.4.383-.46,0-.115-.1-.211-.287-.249a5.537,5.537,0,0,0-1-.172,1.013,1.013,0,0,0-.479.134,1.4,1.4,0,0,1-.536.115c-1.609.1-3.792.134-6.531.134a16.339,16.339,0,0,1-2.509-.192c-.23-.019-.345.019-.345.153,0,.077.1.192.268.287a7.576,7.576,0,0,0,1.551.709,1.545,1.545,0,0,0,.421.115.855.855,0,0,0,.345-.1,4.616,4.616,0,0,1,1.762-.345c2.394-.172,4.252-.249,5.592-.23-.057,1.073-.134,1.973-.23,2.662-.134,1.073-.287,2.145-.5,3.256-2.681.115-5.516.172-8.427.172a15.425,15.425,0,0,1-2.873-.23c-.192-.019-.287,0-.287.1a.41.41,0,0,0,.23.345,5.589,5.589,0,0,0,1.839.843c.192.038.306.057.326.057a.694.694,0,0,0,.249-.1,4.961,4.961,0,0,1,1.8-.345c2.03-.172,5.094-.268,9.193-.268a19.5,19.5,0,0,1,2.3.115.9.9,0,0,0,.709-.134A.488.488,0,0,0,66.774,29.606Zm-2.413,7.546a.448.448,0,0,0-.421-.479,10.3,10.3,0,0,0-1.647-.077,1.325,1.325,0,0,0-.575.211,4.868,4.868,0,0,1-1.9.306c-1.4.057-2.739.057-4.06.019-.536-.019-.594-.211-.594-.613V34.164a5.855,5.855,0,0,1,.038-.766c.038-.345-.057-.536-.306-.594a13.446,13.446,0,0,0-2.2-.153c-.287,0-.594.172-.594.326,0,.1.077.172.249.211,1.015.23,1.475.4,1.724.689l.019,2.145c0,1.245.421,1.666,1.973,1.666q4.482-.029,7.584-.057C64.131,37.631,64.361,37.478,64.361,37.152ZM79.836,26.7a3.123,3.123,0,0,0-1.187-2.585,3.855,3.855,0,0,0-2.068-.824c.192-.249.326-.421.326-.536a.36.36,0,0,0-.249-.345,2.008,2.008,0,0,0-1.072-.326c-.211,0-.306.057-.306.153,0,.077.038.134.134.192.249.134.383.287.383.421a.474.474,0,0,1-.211.4,4.074,4.074,0,0,0-2.432.862A3.158,3.158,0,0,0,71.888,26.7a3.105,3.105,0,0,0,1.207,2.528,4.141,4.141,0,0,0,2.777.9,4.221,4.221,0,0,0,2.815-.919A3.023,3.023,0,0,0,79.836,26.7ZM75.91,24.071a2.615,2.615,0,0,1,2.911,2.6A2.649,2.649,0,0,1,75.91,29.3,2.619,2.619,0,0,1,73,26.676,2.657,2.657,0,0,1,75.91,24.071Zm9.557,13.521c0-.613-.632-.594-1.953-.594a1.122,1.122,0,0,0-.555.211,4.39,4.39,0,0,1-1.819.287c-1.245.057-2.547.1-3.83.077-.268-.019-.4-.153-.4-.46V35.467c0-.019,0-.077.019-.364,1.57-.077,3.945-.134,7.048-.153.287-.019.421-.115.421-.326,0-.153-.23-.287-.689-.364a11.973,11.973,0,0,0,.479-1.992.436.436,0,0,1,.249-.287.294.294,0,0,0,.172-.23c0-.1-.077-.153-.211-.192a4.506,4.506,0,0,0-1.053-.211c-.306,0-.46.211-.862.23a55.463,55.463,0,0,1-5.631.172,14.425,14.425,0,0,1-2.03-.153c-.211-.038-.326,0-.326.134a.241.241,0,0,0,.134.192,4.379,4.379,0,0,0,1.877.747A1.365,1.365,0,0,0,77,32.5a2.917,2.917,0,0,1,1.321-.23c2.088-.1,3.658-.153,4.673-.153-.019,1.3-.038,1.992-.038,2.126a.483.483,0,0,1-.287.192c-1.877.1-3.715.134-5.458.134a.592.592,0,0,1-.249-.038,1.545,1.545,0,0,0-.421-.115,10.173,10.173,0,0,0-1.781-.153q-.46,0-.46.23c0,.1.1.153.268.211a2.3,2.3,0,0,1,1.245.517v1.513a1.549,1.549,0,0,0,.383,1.13,1.853,1.853,0,0,0,1.073.23c.287,0,1.4,0,3.409-.019,2.222-.019,3.562-.038,4.06-.038C85.217,38.033,85.466,37.88,85.466,37.593ZM84.49,21.965a.463.463,0,0,0-.364-.5,7.892,7.892,0,0,0-2.375-.383c-.421,0-.613.1-.613.306,0,.1.1.153.268.192a3.7,3.7,0,0,1,1.934,1v7.048c0,.8.134,1.226.4,1.226.249,0,.44-.421.555-1.245a13.584,13.584,0,0,0,.134-2.107v-.134c.421-.019.843-.019,1.283-.038.919-.019,1.456-.038,1.666-.038.517,0,.766-.172.766-.536a.433.433,0,0,0-.383-.44,3.569,3.569,0,0,0-1.8,0,3.193,3.193,0,0,0-.364.23,1.679,1.679,0,0,1-1.168.345V23.114c0-.077,0-.306.019-.709S84.49,21.869,84.49,21.965ZM98.03,33.073c0-.134-.038-.192-.115-.192a1.787,1.787,0,0,0-.421.077,30.28,30.28,0,0,1-6.014.881c-.306.019-.46-.115-.46-.44V29.721a2.205,2.205,0,0,1,.019-.383c2.126-.134,3.869-.23,5.171-.306.287-.019.421-.134.421-.345,0-.192-.268-.345-.843-.46.115-.5.23-.977.326-1.436a8.705,8.705,0,0,0,1.36.46.53.53,0,0,0,.172.019.661.661,0,0,0,.249-.057A2.965,2.965,0,0,1,98.662,27a13.629,13.629,0,0,1,2.26-.192v3.6a24.539,24.539,0,0,1-2.949.192,12.2,12.2,0,0,1-1.839-.077c-.211-.038-.326,0-.326.1s.057.172.192.249a7.045,7.045,0,0,0,1.532.613.859.859,0,0,0,.211.019.457.457,0,0,0,.23-.077,2.965,2.965,0,0,1,.766-.211,12.311,12.311,0,0,1,2.183-.172V37.65c0,.938.1,1.4.326,1.4.249,0,.421-.44.536-1.36a35.884,35.884,0,0,0,.211-4.443V23.114c0-.23.077-.9.077-1.149a.478.478,0,0,0-.383-.5,7.919,7.919,0,0,0-2.394-.383c-.4,0-.594.1-.594.306,0,.1.077.153.249.192a3.708,3.708,0,0,1,1.973,1.015v3.581a23.035,23.035,0,0,1-3.045.211c-.824-.019-1.283-.038-1.666-.077.1-.517.172-1,.249-1.494a.47.47,0,0,1,.211-.345c.115-.077.172-.153.172-.249a.232.232,0,0,0-.115-.172,2.807,2.807,0,0,0-1.226-.192.956.956,0,0,0-.4.1,1.848,1.848,0,0,1-.46.077c-1,.1-2.26.134-3.773.134a17.657,17.657,0,0,1-2.049-.134c-.172-.019-.268.019-.268.134a.275.275,0,0,0,.192.249,4.588,4.588,0,0,0,1.819.728,8.384,8.384,0,0,1,1.877-.421,17.987,17.987,0,0,1,2.7-.115c0,1.264-.019,3.026-.077,3.62a.321.321,0,0,1-.23.192,30.184,30.184,0,0,1-3.639.23,1.334,1.334,0,0,1-.268-.057c-.1-.019-.268-.057-.555-.115a14.6,14.6,0,0,0-1.781-.115c-.192,0-.383.172-.383.268s.077.134.211.172a4.076,4.076,0,0,1,1.475.594V33.13a2.347,2.347,0,0,0,.268,1.207,1.012,1.012,0,0,0,.709.575,4.169,4.169,0,0,0,1.149-.057,26.452,26.452,0,0,0,3.926-.881,17.749,17.749,0,0,0,1.839-.67C97.953,33.226,98.03,33.149,98.03,33.073Zm19.5-10.227q0-.2-.287-.287a3.171,3.171,0,0,0-.977-.134c-.306,0-.517.172-.919.192-3.045.153-5.075.211-6.071.192a13.719,13.719,0,0,1-2.3-.23c-.249-.038-.364.019-.364.172,0,.1.1.192.268.287a14.666,14.666,0,0,0,1.494.632,2.05,2.05,0,0,0,.44.1.807.807,0,0,0,.345-.077,5.116,5.116,0,0,1,1.877-.383c1.609-.077,3.1-.115,4.424-.115-2.222,2.241-6.109,4.271-9.767,5.669-.172.057-.249.115-.249.211,0,.115.057.172.153.172a.859.859,0,0,0,.211-.019,28.89,28.89,0,0,0,6.818-2.662l6.186,1.819a1.547,1.547,0,0,0,.364.057c.268,0,.4-.1.4-.345,0-.172-.115-.326-.364-.46a6.321,6.321,0,0,0-1.724-.709,3.775,3.775,0,0,0-1.073-.057,5.435,5.435,0,0,1-.862-.172l-2.2-.555a19.728,19.728,0,0,0,3.524-2.739.918.918,0,0,1,.211-.153C117.373,23.095,117.527,22.961,117.527,22.846Zm3.447,8.216c0-.211-.134-.345-.44-.44a6.979,6.979,0,0,0-1.743-.23,1.228,1.228,0,0,0-.594.172,6.422,6.422,0,0,1-2.03.306c-2.892.115-5.841.172-8.791.172a16.016,16.016,0,0,1-2.873-.192c-.192-.038-.287-.019-.287.077a.463.463,0,0,0,.23.345,5.747,5.747,0,0,0,1.819.824,1.011,1.011,0,0,0,.345.057.6.6,0,0,0,.23-.077,5.06,5.06,0,0,1,1.8-.345c.919-.077,2.068-.134,3.428-.172v6.071c0,.958.1,1.436.306,1.436q.373,0,.575-1.494a37.623,37.623,0,0,0,.211-4.367V31.522c1.36-.019,2.93-.038,4.673-.038.843,0,1.609.038,2.241.1C120.687,31.636,120.974,31.483,120.974,31.062Zm13.981-9.1a.463.463,0,0,0-.364-.5,7.947,7.947,0,0,0-2.413-.383c-.4,0-.594.1-.594.306,0,.1.1.153.268.192a3.643,3.643,0,0,1,1.953,1.015v8.216a38.93,38.93,0,0,1-4.271,1.168c-2.26.479-3.83.728-4.75.824-.287.019-.421-.153-.421-.479V26.389c0-.057,0-.306.019-.747.019-.383-.077-.575-.287-.613a13.558,13.558,0,0,0-2.26-.172c-.268,0-.613.172-.613.326,0,.115.077.192.249.211,1.053.192,1.647.44,1.781.728l.038,5.937a2.135,2.135,0,0,0,.23,1.207,1.212,1.212,0,0,0,.747.575,4.856,4.856,0,0,0,.977-.057,38.909,38.909,0,0,0,4.328-.977,38.074,38.074,0,0,0,4.233-1.551v6.4c0,.938.115,1.4.326,1.4.249,0,.421-.44.555-1.36a35.448,35.448,0,0,0,.211-4.443V23.114C134.9,22.884,134.955,22.214,134.955,21.965Zm12.813,1.953c0-.211-.364-.364-1.015-.364-.153,0-.5.172-.843.23a14.442,14.442,0,0,1-1.494.077,6.187,6.187,0,0,1-.843,0,.2.2,0,0,0-.134-.115,2.375,2.375,0,0,0-.881-.153c-.249,0-.5.192-.881.211a16.359,16.359,0,0,1-1.762.077,12.837,12.837,0,0,1-1.628-.1c-.192-.038-.268,0-.268.134,0,.1.1.153.249.249a5.1,5.1,0,0,0,1.092.536,1.489,1.489,0,0,0,.306.038.706.706,0,0,0,.306-.134,3.794,3.794,0,0,1,.766-.172,10.7,10.7,0,0,1,1.283-.077,15.035,15.035,0,0,1-1.724,3.658,15.63,15.63,0,0,1-2.7,3.294.455.455,0,0,0-.153.249c0,.115.038.172.134.172a.324.324,0,0,0,.192-.057,13.938,13.938,0,0,0,5.4-7.163c.038-.038.057-.1.1-.134a5.734,5.734,0,0,0,.728.287,1.062,1.062,0,0,0,.326.057,3.921,3.921,0,0,1,1-.326c.192-.019.5-.038.958-.038a16.345,16.345,0,0,1-1.915,4.386,12.89,12.89,0,0,1-2.969,3.447.393.393,0,0,0-.153.268c0,.115.057.172.153.172a.309.309,0,0,0,.172-.057,12.957,12.957,0,0,0,5.9-8.1,1.251,1.251,0,0,1,.172-.249A.565.565,0,0,0,147.767,23.918Zm3.141-1.973a.525.525,0,0,0-.4-.5,7.6,7.6,0,0,0-2.375-.364c-.421,0-.613.1-.613.306,0,.1.077.153.249.172a4.009,4.009,0,0,1,1.953,1.015v10.17c0,1.073.115,1.59.364,1.59.23,0,.421-.517.575-1.57a19.247,19.247,0,0,0,.153-2.528v-1.4c1.072-.019,2.03-.057,2.834-.077.517,0,.766-.172.766-.555a.433.433,0,0,0-.383-.44,3.821,3.821,0,0,0-1.8.019,3.2,3.2,0,0,0-.364.23,1.652,1.652,0,0,1-1.053.306V23.114C150.813,22.865,150.908,22.195,150.908,21.946Zm1.57,15.4c0-.249-.134-.383-.421-.44a8.969,8.969,0,0,0-1.647-.077,1.761,1.761,0,0,0-.594.192,4.435,4.435,0,0,1-1.9.326c-1.57.038-2.854.038-3.85.019-.4-.019-.575-.249-.575-.651V34.567a5.856,5.856,0,0,1,.019-.728c.057-.364-.019-.594-.287-.651a12.23,12.23,0,0,0-2.183-.153c-.287,0-.613.172-.613.326,0,.134.077.211.249.23,1.034.211,1.494.4,1.724.689l.019,2.011c0,1.226.46,1.666,1.992,1.647,2.011-.057,4.443-.077,7.354-.038C152.249,37.9,152.479,37.708,152.479,37.344ZM-28.841,65.465c0-.211-.134-.364-.44-.44a7.009,7.009,0,0,0-1.743-.211,1.4,1.4,0,0,0-.594.134,6.306,6.306,0,0,1-2.03.326c-2.892.115-5.841.172-8.791.172a17.813,17.813,0,0,1-2.873-.211c-.192-.019-.287,0-.287.1a.463.463,0,0,0,.23.345,5.479,5.479,0,0,0,1.819.824,2.017,2.017,0,0,0,.345.057.813.813,0,0,0,.23-.1,6.116,6.116,0,0,1,1.8-.345c2.011-.172,5.075-.249,9.193-.249.843,0,1.609.038,2.241.1C-29.129,66.02-28.841,65.867-28.841,65.465Zm-2.777-5.094c0-.211-.115-.364-.4-.4a6.616,6.616,0,0,0-1.724-.077,1.481,1.481,0,0,0-.594.211,3.516,3.516,0,0,1-1.59.287c-1.417.057-2.892.1-4.443.077-.383-.019-.594-.249-.594-.709V55.851a5.425,5.425,0,0,1,.019-.632c1.13-.038,5.42-.153,8.6-.23.44-.019.651-.211.651-.555,0-.249-.115-.421-.536-.479a7.618,7.618,0,0,0-1.494-.019,4.249,4.249,0,0,0-.785.306,4.735,4.735,0,0,1-1.551.249c-1.417.077-3.007.1-4.75.077a2.376,2.376,0,0,0-.536-.172,13.3,13.3,0,0,0-2.088-.153c-.23,0-.613.172-.613.326,0,.115.153.211.479.268a2.834,2.834,0,0,1,1.494.632v3.945a1.624,1.624,0,0,0,.517,1.4,2.618,2.618,0,0,0,1.494.287c.843,0,4.673-.077,7.718-.153C-31.848,60.926-31.618,60.734-31.618,60.371Zm16.758-8.082a.463.463,0,0,0-.364-.5,7.947,7.947,0,0,0-2.413-.383c-.4,0-.594.1-.594.306,0,.1.1.153.268.192a3.643,3.643,0,0,1,1.953,1.015v8.465a38.172,38.172,0,0,1-9.193,1.9c-.287.019-.421-.134-.421-.46V56.713c0-.172,0-.364.019-.613l5.477-.134c.479-.019.747-.23.747-.594,0-.211-.134-.345-.383-.4a3.748,3.748,0,0,0-1.417-.057,9.4,9.4,0,0,1-1.762.46c-.919.057-1.781.077-2.528.057-.249-.077-.46-.134-.613-.172A13.26,13.26,0,0,0-28,55.085c-.249,0-.613.172-.613.326,0,.1.077.172.23.211a2.394,2.394,0,0,1,1.647.728L-26.7,62.5c0,1.149.211,1.456.632,1.7a.824.824,0,0,0,.326.1,4.2,4.2,0,0,0,1.073-.038,39.6,39.6,0,0,0,4.75-1.053c1.666-.46,2.969-.881,3.907-1.226v5.995c0,.938.115,1.4.326,1.4.249,0,.421-.44.555-1.36a35.883,35.883,0,0,0,.211-4.443V53.438C-14.918,53.208-14.86,52.537-14.86,52.289Zm8.676,2.624a.41.41,0,0,0-.23-.345,1.959,1.959,0,0,0-1.073-.326c-.211,0-.326.057-.326.153a.224.224,0,0,0,.134.211.6.6,0,0,1,.383.5.46.46,0,0,1-.172.326,4.314,4.314,0,0,0-2.8,1.034,3.55,3.55,0,0,0-1.226,2.815,3.623,3.623,0,0,0,1.207,2.815,4.433,4.433,0,0,0,3.007,1.053,4.334,4.334,0,0,0,2.949-1.073A3.676,3.676,0,0,0-3.1,59.394a3.259,3.259,0,0,0,.613.192A.718.718,0,0,0-2.3,59.6a.51.51,0,0,0,.23-.057,3.368,3.368,0,0,1,.766-.211,11.42,11.42,0,0,1,2.107-.172v8.81c0,.938.1,1.4.326,1.4.249,0,.421-.44.536-1.36a35.884,35.884,0,0,0,.211-4.443V53.438c0-.23.077-.9.077-1.149a.478.478,0,0,0-.383-.5,7.919,7.919,0,0,0-2.394-.383c-.4,0-.594.1-.594.306,0,.1.077.153.249.192A3.708,3.708,0,0,1,.806,52.921v5.573c-.919.1-1.877.134-2.873.192-.5.019-.8.038-1.073.038A3.519,3.519,0,0,0-4.27,56.5,4.035,4.035,0,0,0-6.51,55.487C-6.3,55.2-6.185,55.027-6.185,54.912Zm1.992,4.328a2.766,2.766,0,0,1-.9,2.145,2.93,2.93,0,0,1-2.164.843,2.944,2.944,0,0,1-2.183-.843,2.817,2.817,0,0,1-.881-2.145,2.721,2.721,0,0,1,.881-2.088,2.959,2.959,0,0,1,2.183-.862,3.037,3.037,0,0,1,2.183.824A2.72,2.72,0,0,1-4.193,59.241ZM25.358,59.2c0-.192-.153-.326-.46-.44a5.669,5.669,0,0,0-1.628-.23,1.6,1.6,0,0,0-.613.153,4.82,4.82,0,0,1-1.7.345,10.673,10.673,0,0,0,.5-1.551c.077-.287.211-.862.421-1.743.172-.728.345-1.551.479-2.432.249-.211.383-.4.383-.517,0-.134-.1-.211-.268-.268a5.118,5.118,0,0,0-.977-.1,1.215,1.215,0,0,0-.479.134,1.481,1.481,0,0,1-.517.115c-2.107.134-4.194.211-6.224.211a15.575,15.575,0,0,1-2.49-.192q-.345-.057-.345.115c0,.1.1.23.268.345a5.957,5.957,0,0,0,1.532.67,2.667,2.667,0,0,0,.44.1.636.636,0,0,0,.306-.1,4.673,4.673,0,0,1,1.9-.4c2.183-.134,3.888-.192,5.133-.153-.077.938-.115,1.609-.134,2.011-1.647.268-4.1.5-7.373.728a12.268,12.268,0,0,1-2.566-.115c-.211-.019-.306.019-.306.172,0,.115.077.211.23.268a10.713,10.713,0,0,0,1.915.8,2.445,2.445,0,0,0,.326.038A2.174,2.174,0,0,0,13.657,57a2.18,2.18,0,0,1,.709-.211c2.739-.326,4.884-.632,6.454-.977-.192,1.57-.345,2.643-.44,3.237-2.739.1-5.611.153-8.618.153a17.471,17.471,0,0,1-2.873-.211c-.192-.038-.287,0-.287.1a.408.408,0,0,0,.23.326,5.772,5.772,0,0,0,1.839.843,1.292,1.292,0,0,0,.326.057.694.694,0,0,0,.249-.1,5.975,5.975,0,0,1,1.8-.345c2.011-.192,5.075-.268,9.193-.268a19.5,19.5,0,0,1,2.3.115.9.9,0,0,0,.709-.134A.539.539,0,0,0,25.358,59.2Zm-2.624,8.829c0-.594-.747-.575-1.973-.575a1.074,1.074,0,0,0-.575.192,5.306,5.306,0,0,1-1.819.287c-1.475.1-2.854.115-4.137.077-.287-.019-.44-.153-.44-.44V65.848c0,.057,0-.057.019-.345,1.609-.077,4.06-.134,7.393-.153.287,0,.44-.1.44-.306,0-.172-.23-.306-.709-.383a15.374,15.374,0,0,0,.5-2.088.453.453,0,0,1,.249-.326A.283.283,0,0,0,21.854,62c0-.1-.077-.172-.211-.211a4.5,4.5,0,0,0-1.092-.172c-.249,0-.5.211-.881.23a57.878,57.878,0,0,1-5.937.192c-.536-.019-1.168-.077-1.915-.172-.192-.038-.287,0-.287.134a.243.243,0,0,0,.134.211,4.035,4.035,0,0,0,1.9.747,1.327,1.327,0,0,0,.479-.153,4.02,4.02,0,0,1,1.341-.211c1.819-.134,3.447-.192,4.865-.211q0,1.867-.057,2.241a.453.453,0,0,1-.306.211c-1.9.1-3.83.134-5.784.134a.85.85,0,0,1-.249-.038,1.655,1.655,0,0,0-.4-.134,8.148,8.148,0,0,0-1.877-.1c-.249.019-.364.077-.364.211,0,.1.077.153.268.192a3.085,3.085,0,0,1,1.245.5v1.609a1.432,1.432,0,0,0,.383,1.13,1.55,1.55,0,0,0,1.073.211c1.953-.077,4.577-.1,7.814-.057Q22.735,68.491,22.735,68.031ZM36.6,53.533a.449.449,0,0,0-.306-.479,5.743,5.743,0,0,0-2.03-.421c-.364,0-.555.1-.555.268,0,.1.077.172.268.23a2.439,2.439,0,0,1,1.532.824v8.331A29.88,29.88,0,0,1,28.653,63.4c-.268,0-.4-.134-.4-.421V59.853a1.969,1.969,0,0,1,.019-.345c.8-.057,2.26-.153,4.386-.287.306-.019.44-.134.44-.345,0-.249-.23-.4-.709-.46.249-1.034.4-1.8.575-2.892.134-.306.345-.46.345-.689,0-.077-.077-.134-.23-.192a3.359,3.359,0,0,0-1.034-.153,1,1,0,0,0-.4.115c-.211.057-.383.077-.479.1a24.027,24.027,0,0,1-2.93.115,13.038,13.038,0,0,1-1.992-.115c-.172-.019-.287,0-.287.134a.294.294,0,0,0,.172.23,7.683,7.683,0,0,0,1.321.651,1,1,0,0,0,.4.077,2.318,2.318,0,0,0,.479-.153,12.4,12.4,0,0,1,3.39-.345,30.085,30.085,0,0,1-.1,3.122c-.057.134-.134.192-.211.192a15.287,15.287,0,0,1-2.988.192c-.1-.019-.192-.038-.268-.057a4.112,4.112,0,0,0-.67-.115,11.529,11.529,0,0,0-1.456-.077c-.115,0-.364.115-.364.249a.175.175,0,0,0,.134.192,3.825,3.825,0,0,1,1.3.517v3.179a2.672,2.672,0,0,0,.211,1.245,1.237,1.237,0,0,0,.4.46,1.146,1.146,0,0,0,.8.115,26.953,26.953,0,0,0,6.99-1.762v3.83c0,.881.1,1.3.306,1.3.326,0,.555-.919.651-2.777.057-1.13.077-2.011.077-2.624V59.949l2.49-.057v7.833c0,1.111.1,1.647.306,1.647.23,0,.536-.824.632-1.973.077-1.092.1-2.241.1-3.428V53.342a4.268,4.268,0,0,1,.057-.613,2.6,2.6,0,0,0,.038-.383.487.487,0,0,0-.345-.5,7.3,7.3,0,0,0-2.222-.44c-.4,0-.613.1-.613.306,0,.077.077.134.249.172a3.224,3.224,0,0,1,1.8,1.015v6.282l-2.49.077V54.568a4.232,4.232,0,0,1,.019-.613C36.581,53.706,36.6,53.553,36.6,53.533Zm12.583.766a.629.629,0,0,0-.306-.5,6.771,6.771,0,0,0-1.9-.709,1.519,1.519,0,0,0-.326-.038q-.4,0-.4.172a.3.3,0,0,0,.211.249A2.164,2.164,0,0,1,47.709,54.7,17.21,17.21,0,0,1,42.9,61.5c-.249.211-.383.364-.383.421,0,.1.038.134.153.134a.817.817,0,0,0,.4-.153,14.966,14.966,0,0,0,4.577-4.462L51.4,60.849a.7.7,0,0,0,.46.23c.211,0,.306-.115.306-.383a.629.629,0,0,0-.077-.326,3.705,3.705,0,0,0-1.207-1.647,2.955,2.955,0,0,0-.728-.306,5.872,5.872,0,0,1-1.073-.747l-1.073-.824A15.92,15.92,0,0,0,49.068,54.7,1.087,1.087,0,0,0,49.183,54.3Zm6.78,8.752c0-.23-.536-.4-.958-.4-.211,0-.728.192-.977.192-2.049.134-4.692.249-6.033.268a15.787,15.787,0,0,1-2.509-.172c-.23-.019-.345.019-.345.153,0,.1.1.211.268.306a8.119,8.119,0,0,0,1.551.689,3.158,3.158,0,0,0,.44.1.706.706,0,0,0,.326-.1,5.229,5.229,0,0,1,1.915-.44c1.8-.115,4.022-.192,4.979-.192v4.079c0,1.168.115,1.743.364,1.743.23,0,.44-.479.594-1.475a12.89,12.89,0,0,0,.115-1.379l.038-2.892A1.349,1.349,0,0,0,55.963,63.052Zm-.4-11.261a7.947,7.947,0,0,0-2.413-.383c-.383,0-.575.1-.575.306,0,.1.077.153.249.192a3.708,3.708,0,0,1,1.973,1.015v8.044c0,.824.134,1.226.383,1.226.268,0,.46-.4.575-1.245a16.906,16.906,0,0,0,.115-2.126V53.438c0-.077.019-.287.038-.709a1.406,1.406,0,0,1,.038-.46A.511.511,0,0,0,55.561,51.791Zm13.062,5.956a3.255,3.255,0,0,0-1.13-2.6,4.12,4.12,0,0,0-2.126-.919,1.259,1.259,0,0,0,.306-.575.443.443,0,0,0-.23-.383A2.653,2.653,0,0,0,64.256,53c-.211,0-.345.077-.345.172,0,.077.038.134.153.192.249.134.383.287.383.44a.447.447,0,0,1-.192.383,4.05,4.05,0,0,0-2.471.977,3.2,3.2,0,0,0-1.226,2.585,3.279,3.279,0,0,0,1.149,2.586,4.283,4.283,0,0,0,2.892,1,4.333,4.333,0,0,0,2.892-.977A3.364,3.364,0,0,0,68.622,57.747Zm4.1-5.458a.478.478,0,0,0-.383-.5,7.919,7.919,0,0,0-2.394-.383c-.4,0-.594.1-.594.306,0,.1.077.153.249.192a3.708,3.708,0,0,1,1.973,1.015v9.825c-1.111.211-2.873.46-5.228.766-1.59.211-3.332.364-5.267.46a10.22,10.22,0,0,1-2.279-.153c-.211-.038-.326,0-.326.134a.41.41,0,0,0,.23.345,6.932,6.932,0,0,0,1.915.862c.153.019.268.038.326.038a1.006,1.006,0,0,0,.44-.134,2.3,2.3,0,0,1,.67-.23c1.417-.172,2.949-.364,4.539-.613a48.223,48.223,0,0,0,4.979-1v4.75c0,.938.1,1.4.326,1.4.249,0,.421-.44.536-1.36a35.883,35.883,0,0,0,.211-4.443V53.438C72.644,53.208,72.721,52.537,72.721,52.289Zm-8.1,2.758a2.9,2.9,0,0,1,2.088.766,2.593,2.593,0,0,1,.824,1.934,2.527,2.527,0,0,1-.843,1.953,2.786,2.786,0,0,1-2.068.785,2.848,2.848,0,0,1-2.049-.8,2.564,2.564,0,0,1-.824-1.934,2.648,2.648,0,0,1,.8-1.934A2.881,2.881,0,0,1,64.62,55.046Zm28.345,7.7c0-.1-.077-.153-.268-.211a3.134,3.134,0,0,0-.958-.153c-.172,0-.575.153-.785.153-2.2.115-4.1.153-5.611.153a3.316,3.316,0,0,0-.747-.172,10.314,10.314,0,0,0-1.532-.115c-.326,0-.5.077-.5.249,0,.057.1.134.268.172a2.557,2.557,0,0,1,1.3.651l.421,4.769c.057.575.172.862.383.862.172,0,.287-.115.383-.364a1.518,1.518,0,0,0,.115-.555c1.7-.057,3.926-.1,6.627-.115.46,0,.689-.115.689-.326,0-.23-.249-.364-.766-.46.134-.689.306-1.973.517-3.869C92.524,63.186,92.964,62.9,92.964,62.745Zm-1.628.345-.077,4.137c-.23.306-2.164.46-5.822.4l-.1-3.869a3.865,3.865,0,0,1,.019-.517C87.372,63.167,89.383,63.109,91.336,63.09ZM88.6,54.05a.267.267,0,0,0-.057-.172,1.744,1.744,0,0,0-1.073-.211c-.23,0-.46.211-.9.23a37.21,37.21,0,0,1-4.309.153,9.833,9.833,0,0,1-1.743-.134c-.172-.038-.249,0-.249.153,0,.1.077.172.23.268a7.1,7.1,0,0,0,1.379.651,1.2,1.2,0,0,0,.306.038.586.586,0,0,0,.287-.134,2.414,2.414,0,0,1,.977-.23c1.7-.1,2.834-.153,3.466-.172a18.132,18.132,0,0,1-3.352,4.616,25.7,25.7,0,0,1-3.888,3.332q-.23.144-.23.23c0,.134.057.192.153.192a.37.37,0,0,0,.192-.057c4.06-2.279,6.856-4.941,8.369-8.044a2.03,2.03,0,0,1,.23-.364A.49.49,0,0,0,88.6,54.05Zm4.175-1.762a.463.463,0,0,0-.364-.5,7.892,7.892,0,0,0-2.375-.383c-.421,0-.613.1-.613.306,0,.1.1.153.268.192a3.652,3.652,0,0,1,1.934,1.015v7.718c0,.843.134,1.264.421,1.264.249,0,.421-.421.536-1.264a13.357,13.357,0,0,0,.134-2.126v-.345c.421-.019.843-.019,1.283-.038.919-.019,1.456-.038,1.666-.038.517,0,.766-.172.766-.536a.461.461,0,0,0-.383-.44,3.382,3.382,0,0,0-1.8.019,3.194,3.194,0,0,0-.364.23,1.857,1.857,0,0,1-1.168.306V53.438c0-.077,0-.306.019-.709S92.773,52.193,92.773,52.289Zm7.45,13.694c0,1.819,1.8,3.1,4.022,3.1s4.041-1.283,4.041-3.1c0-1.647-1.513-2.873-3.466-3.064a1.027,1.027,0,0,0,.249-.479c0-.1-.057-.153-.211-.211a2.254,2.254,0,0,0-.728-.153c-.249,0-.4.038-.4.134,0,.057.038.1.115.134q.23.115.23.287a.289.289,0,0,1-.172.268C101.851,63.014,100.223,64.258,100.223,65.982Zm9.423-8.484c0-.23-.153-.364-.479-.421A8.5,8.5,0,0,0,107.654,57a1.312,1.312,0,0,0-.594.211,4.489,4.489,0,0,1-1.609.306c-1.072.057-2.413.057-4.041.038-.383-.019-.575-.23-.575-.689V54.2a5.618,5.618,0,0,1,.019-.651c1.724-.057,4.482-.115,8.2-.172.441,0,.651-.192.651-.594,0-.46-.689-.613-2.068-.479a2.933,2.933,0,0,0-.766.287,4.971,4.971,0,0,1-1.57.268c-1.053.057-2.49.057-4.328.038a1.949,1.949,0,0,0-.536-.153,10.479,10.479,0,0,0-1.934-.134c-.23,0-.594.172-.594.326q0,.172.23.23c.9.153,1.417.345,1.59.613V56.5c0,1.226.5,1.724,2.011,1.666.651-.019,1.341-.038,2.068-.038V60.7c-1.551.019-3.122.038-4.711.038a18.01,18.01,0,0,1-2.873-.192c-.192-.038-.287-.019-.287.077a.435.435,0,0,0,.23.345,5.966,5.966,0,0,0,1.819.843,2.017,2.017,0,0,0,.345.057.6.6,0,0,0,.23-.077,4.584,4.584,0,0,1,1.8-.364c1.953-.172,5.037-.249,9.193-.249.843,0,1.609.038,2.241.1.613.057.9-.1.9-.517,0-.211-.134-.345-.44-.421a6.192,6.192,0,0,0-1.743-.23,1.438,1.438,0,0,0-.594.153,6.422,6.422,0,0,1-2.03.306l-2.969.115V58.111c1.245-.019,2.566-.019,4-.019C109.4,58.092,109.646,57.9,109.646,57.5Zm-8.331,8.446c0-1.4,1.3-2.394,2.949-2.394s2.969,1,2.969,2.394-1.321,2.394-2.969,2.394S101.315,67.342,101.315,65.944Zm20.473-14.057a.3.3,0,0,0-.211-.249,1.876,1.876,0,0,0-.747-.192c-.287,0-.4.057-.4.115a.143.143,0,0,0,.1.153c.192.115.268.23.268.383a.412.412,0,0,1-.115.249c-2.394.057-3.945,1.207-3.945,2.988,0,1.858,1.647,3.007,4.1,3.007a4.934,4.934,0,0,0,2.949-.8,2.545,2.545,0,0,0,1.13-2.2c0-1.628-1.264-2.739-3.352-2.949A1.148,1.148,0,0,0,121.788,51.886Zm-.919,1.073c1.819,0,3.026.958,3.026,2.375,0,1.456-1.168,2.337-3.026,2.337s-3.064-.919-3.064-2.337C117.8,53.936,119.011,52.959,120.869,52.959ZM126.5,68.012c0-.555-.67-.555-1.973-.555a1.061,1.061,0,0,0-.575.211,5,5,0,0,1-1.819.287c-1.647.077-2.988.1-3.964.077-.268-.019-.4-.153-.4-.46V65.944a3.6,3.6,0,0,1,.019-.364c1.283-.057,3.773-.115,7.45-.153.287,0,.421-.115.421-.326,0-.172-.23-.268-.709-.326a17.1,17.1,0,0,0,.46-1.953.49.49,0,0,1,.249-.326c.115-.057.172-.115.172-.211,0-.115-.057-.192-.211-.23a6.026,6.026,0,0,0-1.053-.153c-.306,0-.46.192-.862.211a57.016,57.016,0,0,1-6.052.172,18.192,18.192,0,0,1-2.011-.172c-.211-.038-.326,0-.326.115a.2.2,0,0,0,.134.192,3.792,3.792,0,0,0,1.877.766,1.115,1.115,0,0,0,.479-.172,5.48,5.48,0,0,1,1.321-.192c1.551-.134,3.256-.192,5.094-.192a10.285,10.285,0,0,1-.038,2.107.5.5,0,0,1-.306.172c-1.915.1-3.869.134-5.822.134a.729.729,0,0,1-.249-.019,3.133,3.133,0,0,0-.4-.134,10.756,10.756,0,0,0-1.8-.115c-.287.019-.44.1-.44.211,0,.1.077.153.268.192a2.679,2.679,0,0,1,1.245.555v1.436a1.537,1.537,0,0,0,.383,1.149,1.387,1.387,0,0,0,1.053.23q3.419-.144,7.642-.057C126.25,68.51,126.5,68.338,126.5,68.012Zm2.758-8.044c0-.23-.134-.364-.44-.46a7.124,7.124,0,0,0-1.743-.211,1.4,1.4,0,0,0-.594.134,6.2,6.2,0,0,1-2.03.326c-2.777.134-5.726.192-8.791.192a17.286,17.286,0,0,1-2.873-.23c-.192-.019-.287,0-.287.115a.408.408,0,0,0,.23.326,6.3,6.3,0,0,0,1.819.843,2.691,2.691,0,0,0,.345.038.457.457,0,0,0,.23-.077,4.852,4.852,0,0,1,1.8-.364c2.2-.172,5.286-.249,9.193-.249a19.86,19.86,0,0,1,2.241.115C128.97,60.524,129.257,60.371,129.257,59.968ZM-43.6,87.343a3.123,3.123,0,0,0-1.187-2.586,3.855,3.855,0,0,0-2.068-.824c.192-.249.326-.421.326-.536a.36.36,0,0,0-.249-.345,2.008,2.008,0,0,0-1.072-.326c-.211,0-.306.057-.306.153,0,.077.038.134.134.192.249.134.383.287.383.421a.474.474,0,0,1-.211.4,4.074,4.074,0,0,0-2.432.862,3.158,3.158,0,0,0-1.264,2.586,3.105,3.105,0,0,0,1.207,2.528,4.141,4.141,0,0,0,2.777.9,4.221,4.221,0,0,0,2.815-.919A3.023,3.023,0,0,0-43.6,87.343Zm-3.926-2.624a2.615,2.615,0,0,1,2.911,2.6,2.649,2.649,0,0,1-2.911,2.624,2.619,2.619,0,0,1-2.911-2.624A2.657,2.657,0,0,1-47.524,84.719Zm9.557,13.521c0-.613-.632-.594-1.953-.594a1.123,1.123,0,0,0-.555.211,4.39,4.39,0,0,1-1.819.287c-1.245.057-2.547.1-3.83.077-.268-.019-.4-.153-.4-.46V96.114c0-.019,0-.077.019-.364,1.57-.077,3.945-.134,7.048-.153.287-.019.421-.115.421-.326,0-.153-.23-.287-.689-.364a11.974,11.974,0,0,0,.479-1.992A.436.436,0,0,1-39,92.629a.294.294,0,0,0,.172-.23c0-.1-.077-.153-.211-.192A4.506,4.506,0,0,0-40.093,92c-.306,0-.46.211-.862.23a55.464,55.464,0,0,1-5.631.172,14.426,14.426,0,0,1-2.03-.153c-.211-.038-.326,0-.326.134a.241.241,0,0,0,.134.192,4.379,4.379,0,0,0,1.877.747,1.365,1.365,0,0,0,.5-.172,2.917,2.917,0,0,1,1.321-.23c2.088-.1,3.658-.153,4.673-.153-.019,1.3-.038,1.992-.038,2.126a.483.483,0,0,1-.287.192c-1.877.1-3.715.134-5.458.134a.592.592,0,0,1-.249-.038,1.546,1.546,0,0,0-.421-.115,10.173,10.173,0,0,0-1.781-.153q-.46,0-.46.23c0,.1.1.153.268.211a2.3,2.3,0,0,1,1.245.517v1.513a1.549,1.549,0,0,0,.383,1.13,1.853,1.853,0,0,0,1.073.23c.287,0,1.4,0,3.409-.019,2.222-.019,3.562-.038,4.06-.038C-38.216,98.681-37.967,98.527-37.967,98.24Zm-.977-15.628a.463.463,0,0,0-.364-.5,7.892,7.892,0,0,0-2.375-.383c-.421,0-.613.1-.613.306,0,.1.1.153.268.192a3.7,3.7,0,0,1,1.934,1v7.048c0,.8.134,1.226.4,1.226.249,0,.44-.421.555-1.245A13.584,13.584,0,0,0-39,88.147v-.134c.421-.019.843-.019,1.283-.038.919-.019,1.456-.038,1.666-.038.517,0,.766-.172.766-.536a.433.433,0,0,0-.383-.44,3.569,3.569,0,0,0-1.8,0,3.2,3.2,0,0,0-.364.23A1.679,1.679,0,0,1-39,87.534V83.761c0-.077,0-.306.019-.709S-38.944,82.516-38.944,82.612Zm16.6,11.242V92.112c1.36-.038,2.93-.057,4.673-.057.843,0,1.609.057,2.241.115.613.057.9-.115.9-.517,0-.211-.134-.345-.44-.421A6.193,6.193,0,0,0-16.709,91a1.193,1.193,0,0,0-.594.153,6.306,6.306,0,0,1-2.03.326c-2.892.115-5.841.172-8.791.172A17.813,17.813,0,0,1-31,91.441c-.192-.019-.287,0-.287.1a.408.408,0,0,0,.23.326,5.119,5.119,0,0,0,1.819.824,1.248,1.248,0,0,0,.345.077.813.813,0,0,0,.23-.1,6.117,6.117,0,0,1,1.8-.345c.919-.077,2.068-.134,3.428-.192v6.129c0,.958.115,1.436.326,1.436.249,0,.421-.5.575-1.494A37.924,37.924,0,0,0-22.339,93.854Zm.747-10.572c0-.153-.115-.268-.326-.364a14.3,14.3,0,0,0-1.762-.575,1.458,1.458,0,0,0-.4-.057c-.326,0-.479.057-.479.211,0,.1.1.172.287.249a1.952,1.952,0,0,1,1.168,1.015,15.439,15.439,0,0,1-6.416,5.363c-.211.1-.306.192-.306.287,0,.115.038.172.134.172a1.025,1.025,0,0,0,.345-.077,14.975,14.975,0,0,0,6.3-3.984l6.167,3.122a1.167,1.167,0,0,0,.536.134c.211,0,.326-.1.326-.287,0-.479-.689-1.053-2.107-1.781a3.672,3.672,0,0,0-.977-.192,3.518,3.518,0,0,1-1.226-.4l-2.279-1.13a9.208,9.208,0,0,0,.862-1.264A.686.686,0,0,0-21.592,83.283Zm20.492,4.4a3.213,3.213,0,0,0-1.149-2.566,4.284,4.284,0,0,0-1.934-.9,1.116,1.116,0,0,0,.287-.575c0-.115-.077-.211-.211-.345a1.742,1.742,0,0,0-1.073-.326c-.211,0-.326.057-.326.153s.057.153.153.23c.249.134.364.268.364.4a.421.421,0,0,1-.23.383,4.144,4.144,0,0,0-2.547.938,3.207,3.207,0,0,0-1.187,2.6A3.256,3.256,0,0,0-7.8,90.235a4.373,4.373,0,0,0,2.815.977,4.063,4.063,0,0,0,2.758-1A3.2,3.2,0,0,0-1.1,87.688Zm-1.073.057a2.533,2.533,0,0,1-.8,1.9,2.744,2.744,0,0,1-2.011.766,2.7,2.7,0,0,1-2.03-.785A2.533,2.533,0,0,1-7.8,87.745a2.558,2.558,0,0,1,.785-1.915,2.786,2.786,0,0,1,2.03-.8,2.742,2.742,0,0,1,2.011.8A2.575,2.575,0,0,1-2.172,87.745Zm5.765-5.631a7.947,7.947,0,0,0-2.413-.383c-.4,0-.594.1-.594.306,0,.1.1.153.268.192a3.782,3.782,0,0,1,1.973,1.015v8.025c0,.843.134,1.245.383,1.245.268,0,.44-.44.575-1.264A16.483,16.483,0,0,0,3.9,89.124V83.761c0-.077,0-.287.019-.709a1.406,1.406,0,0,1,.038-.46A.494.494,0,0,0,3.592,82.114Zm-.364,11.28a.45.45,0,0,0-.23-.4,9.75,9.75,0,0,0-1.819-.728,1.2,1.2,0,0,0-.345-.038c-.268,0-.383.057-.383.172,0,.038.1.115.249.23.728.44,1.092.824,1.111,1.149A14.069,14.069,0,0,1-2.345,99.1c-.172.134-.268.23-.268.306,0,.1.038.153.153.153a.607.607,0,0,0,.345-.134A14.782,14.782,0,0,0,2,95.6L4.512,98.93a.7.7,0,0,0,.517.345c.172,0,.287-.134.287-.44a.867.867,0,0,0-.057-.306A7.007,7.007,0,0,0,4.454,97a1.625,1.625,0,0,0-.632-.421,2.385,2.385,0,0,1-.8-.689l-.67-.785a14.039,14.039,0,0,0,.747-1.283A.879.879,0,0,0,3.228,93.395Zm-6.129.153a.305.305,0,0,0-.077-.23,4.41,4.41,0,0,0-1.858-.689,1.718,1.718,0,0,0-.345-.038c-.326,0-.479.057-.479.192,0,.057.057.115.211.172.785.383,1.207.689,1.245.938a13.777,13.777,0,0,1-4.271,4.922q-.23.2-.23.287c0,.115.038.172.134.172a1.172,1.172,0,0,0,.326-.134,14.5,14.5,0,0,0,4.367-3.83L-2.192,97.3a.536.536,0,0,0,.364.249.318.318,0,0,0,.345-.383,1.9,1.9,0,0,0-.038-.345,5.931,5.931,0,0,0-.4-.862,1.216,1.216,0,0,0-.594-.4,1.329,1.329,0,0,1-.594-.306l-.44-.44a7.645,7.645,0,0,0,.517-.843A.774.774,0,0,0-2.9,93.548Zm17.581-7.776c0-.1-.057-.153-.192-.211a2.308,2.308,0,0,0-.9-.153.845.845,0,0,0-.364.134,1.658,1.658,0,0,1-.517.1c-1.762.115-3.007.153-3.754.134q-1.207-.057-1.609-.115H7.212a.146.146,0,0,0-.134.153c0,.1.077.172.249.268a6.792,6.792,0,0,0,1.3.613,1.479,1.479,0,0,0,.287.038.97.97,0,0,0,.364-.153,3.242,3.242,0,0,1,1.092-.23c1.149-.057,2.03-.134,2.72-.153a18.346,18.346,0,0,1-2.413,4.711,20.408,20.408,0,0,1-3.7,4.137c-.1.1-.153.172-.153.23,0,.134.057.192.134.192a.324.324,0,0,0,.192-.057,18.49,18.49,0,0,0,5.324-5.382,3.27,3.27,0,0,0,1.073.5,1.187,1.187,0,0,0,.211.057c.172,0,.785-.23.938-.249a16.239,16.239,0,0,1,2.183-.249V96.9c0,.881.115,1.3.306,1.3.345,0,.555-.919.651-2.777.077-1.187.1-2.068.1-2.624V84.949a3.757,3.757,0,0,1,.019-.594c.019-.268.038-.4.038-.421a.471.471,0,0,0-.326-.5,7.672,7.672,0,0,0-1.034-.23,7.384,7.384,0,0,0-1-.172c-.364,0-.536.1-.536.268,0,.115.077.172.249.211a2.444,2.444,0,0,1,1.532.843v5.133c-.881.1-1.762.134-2.643.153a11.811,11.811,0,0,1-1.513-.038,18.18,18.18,0,0,0,1.494-3.141,1.776,1.776,0,0,1,.249-.345A.574.574,0,0,0,14.681,85.772Zm6.665-3.1a.5.5,0,0,0-.364-.5,7.3,7.3,0,0,0-2.222-.44c-.4,0-.594.1-.594.306,0,.077.077.134.249.172a3.224,3.224,0,0,1,1.8,1.015V98.049c0,1.111.1,1.647.287,1.647.23,0,.555-.824.632-1.973.1-1.092.115-2.241.115-3.428V83.666a4.268,4.268,0,0,1,.057-.613A2.6,2.6,0,0,0,21.346,82.67ZM38.1,88.607c0-.249-.153-.383-.4-.44a12.474,12.474,0,0,0-1.551-.019,1.369,1.369,0,0,0-.613.211,10,10,0,0,1-3.581.383c-.4-.019-.594-.249-.594-.728V85.389c0-.23,0-.44.019-.632,1.819-.1,3.85-.172,6.071-.211.383-.019.613-.192.613-.555,0-.23-.192-.364-.517-.421a9.631,9.631,0,0,0-1.36-.019,1.6,1.6,0,0,0-.594.153,2.827,2.827,0,0,1-1.207.326c-1.245.077-2.183.1-2.873.077a3.134,3.134,0,0,0-.536-.192,13.171,13.171,0,0,0-1.953-.115c-.23,0-.594.172-.594.326,0,.1.077.192.23.211a2.576,2.576,0,0,1,1.59.651v2.739a1.6,1.6,0,0,0,.421,1.264,2.19,2.19,0,0,0,1.628.4l1.168-.057v2.451c-.938.077-1.934.134-3.045.192a11.6,11.6,0,0,1-2.3-.153c-.211-.019-.326.019-.326.153a.4.4,0,0,0,.249.345,5.2,5.2,0,0,0,2.26.9.883.883,0,0,0,.4-.134,1.5,1.5,0,0,1,.689-.268c1.073-.1,2.49-.287,4.29-.594,2.049-.364,3.735-.709,5.018-1.015v2.279c0,1.053.115,1.59.364,1.59s.44-.536.575-1.57a20.229,20.229,0,0,0,.153-2.547v-7.2c0-.249.057-.9.057-1.149a.478.478,0,0,0-.383-.5,7.7,7.7,0,0,0-2.375-.383c-.421,0-.613.1-.613.306,0,.1.1.153.268.192a3.766,3.766,0,0,1,1.953,1v7.488c-2.26.44-4,.709-5.209.862l-.919.115V89.277c1.111-.038,2.049-.077,2.815-.1C37.855,89.143,38.1,88.971,38.1,88.607Zm4.731,9.5c0-.23-.134-.364-.4-.421a8.2,8.2,0,0,0-1.647-.077,1.074,1.074,0,0,0-.575.192,4.406,4.406,0,0,1-1.915.326c-1.57.057-2.854.077-3.888.019a.57.57,0,0,1-.594-.651V95.674a6.476,6.476,0,0,1,.038-.785q.057-.488-.287-.575a11.927,11.927,0,0,0-2.183-.153c-.268,0-.613.172-.613.326,0,.1.077.172.249.211,1.053.249,1.628.5,1.724.689l.019,1.685c.019,1.226.44,1.647,1.973,1.628,2.107-.057,4.577-.077,7.412-.038C42.6,98.662,42.834,98.47,42.834,98.106ZM62.886,82.612a.463.463,0,0,0-.364-.5,7.919,7.919,0,0,0-2.394-.383c-.4,0-.594.1-.594.306,0,.1.077.153.249.192a3.782,3.782,0,0,1,1.973,1.015v4.577a25.837,25.837,0,0,1-2.777.153,13.071,13.071,0,0,1-1.685-.1q-.345-.057-.345.115c0,.077.057.134.211.249a4.1,4.1,0,0,0,1.4.575,1.6,1.6,0,0,0,.192.038A.75.75,0,0,0,59,88.8a2.318,2.318,0,0,1,.747-.211c.67-.077,1.341-.134,2.011-.153v4.213c0,.728.134,1.092.421,1.092.268,0,.46-.421.555-1.245a16.772,16.772,0,0,0,.1-1.9V83.761C62.829,83.512,62.886,82.861,62.886,82.612Zm-3.5,10.208a.47.47,0,0,0-.306-.46,6.916,6.916,0,0,0-1.839-.651,3.377,3.377,0,0,0-.364-.038c-.249,0-.383.057-.383.192,0,.077.077.153.23.249.8.383,1.053.651,1.207,1.034a14.735,14.735,0,0,1-2.6,3.122,17.052,17.052,0,0,1-3.218,2.49c-.192.115-.287.23-.287.326s.038.153.115.153a.941.941,0,0,0,.345-.077,18.21,18.21,0,0,0,3.773-2.375A15.188,15.188,0,0,0,58.29,94.6l4.979,4.175a.56.56,0,0,0,.421.211c.192,0,.306-.134.326-.383a.535.535,0,0,0-.115-.345,6.16,6.16,0,0,0-1.532-1.743,1.779,1.779,0,0,0-.689-.326,5,5,0,0,1-1.379-.862l-1.57-1.283c.192-.268.364-.536.536-.8A.873.873,0,0,0,59.382,92.82Zm-1.053-8.389c0-.153-.1-.23-.306-.287a3.646,3.646,0,0,0-.843-.1.739.739,0,0,0-.383.115c-.211.057-.383.1-.5.115a36.885,36.885,0,0,1-4.271.115,10.492,10.492,0,0,1-1.762-.134c-.172-.038-.249.019-.249.172,0,.1.077.172.23.249a8.1,8.1,0,0,0,1.417.651,1.159,1.159,0,0,0,.287.038.586.586,0,0,0,.287-.134,2.315,2.315,0,0,1,.977-.211c1.149-.077,2.279-.134,3.428-.172a16.914,16.914,0,0,1-3.16,4.711,26.3,26.3,0,0,1-3.964,3.543c-.134.1-.23.192-.23.249a.161.161,0,0,0,.172.172.559.559,0,0,0,.172-.038c4.175-2.451,6.914-5.228,8.235-8.369a2.161,2.161,0,0,1,.249-.364A.5.5,0,0,0,58.328,84.432Zm25.28,13.636c0-.249-.134-.383-.421-.44a6.015,6.015,0,0,0-1.647-.057,1.533,1.533,0,0,0-.594.192,5.5,5.5,0,0,1-1.839.306c-1.053.038-2.088.038-3.122.019-.364-.019-.555-.249-.555-.67V95.789c3.352-.077,5.631-.115,6.895-.134.44,0,.651-.172.651-.5,0-.268-.172-.421-.517-.479a5.813,5.813,0,0,0-1.513-.038,3.94,3.94,0,0,0-.613.23,5.542,5.542,0,0,1-1.321.249c-.919.077-2.126.1-3.581.077V93.874c0-.211.019-.421.038-.613,2.375-.1,4.788-.134,7.124-.134.421,0,.651-.192.651-.536,0-.23-.153-.383-.5-.421a8.175,8.175,0,0,0-1.685,0,2.274,2.274,0,0,0-.632.211,3.9,3.9,0,0,1-1.36.211c-1.015.057-2.183.057-3.466.038a3.631,3.631,0,0,0-.555-.153,13.193,13.193,0,0,0-1.839-.153c-.23,0-.613.172-.613.326,0,.1.077.172.23.192a2.563,2.563,0,0,1,1.494.67v3.5c0,1.149.5,1.647,2.03,1.628,1.743-.038,3.945-.057,6.531-.038C83.379,98.6,83.609,98.432,83.609,98.068ZM78.8,84.183c0-.172-.4-.364-1.187-.364a1.988,1.988,0,0,0-.364.115,2.339,2.339,0,0,1-.5.115c-1.283.115-2.739.153-4.309.134a11.73,11.73,0,0,1-1.724-.115c-.172-.019-.249.019-.249.153,0,.1.077.172.211.268a4.93,4.93,0,0,0,1.4.632.9.9,0,0,0,.326.057.713.713,0,0,0,.287-.115,1.912,1.912,0,0,1,.977-.23c1.724-.134,2.854-.192,3.428-.211a15.123,15.123,0,0,1-3.256,4.424,22.9,22.9,0,0,1-3.964,3.275c-.134.1-.211.192-.211.249a.141.141,0,0,0,.153.153.567.567,0,0,0,.192-.038,22.194,22.194,0,0,0,4.711-3.141,14.371,14.371,0,0,0,3.62-4.654c.134-.211.211-.345.23-.364A.5.5,0,0,0,78.8,84.183Zm4.156-1.59a.489.489,0,0,0-.364-.5,7.863,7.863,0,0,0-2.375-.364c-.4,0-.594.1-.594.306,0,.077.077.134.249.172a4.009,4.009,0,0,1,1.953,1.015v7.086c0,.785.134,1.207.4,1.207.249,0,.421-.421.555-1.245.057-.536.1-1.168.115-1.915,1.13-.019,2.107-.057,2.949-.077.517,0,.766-.192.766-.536a.433.433,0,0,0-.383-.44,3.382,3.382,0,0,0-1.8.019,3.2,3.2,0,0,0-.364.23,1.783,1.783,0,0,1-1.168.287V83.761C82.9,83.512,82.958,82.88,82.958,82.593Zm16.049,10.15a.368.368,0,0,0-.268-.364,6.239,6.239,0,0,0-1.953-.364c-.383,0-.575.1-.575.23a.264.264,0,0,0,.192.268,2.712,2.712,0,0,1,1.436.747v1.475l-6.205.1.019-.862c.019-.23.038-.46.038-.613a.478.478,0,0,0-.46-.517,14.9,14.9,0,0,0-1.8-.192c-.211,0-.555.134-.555.287s.1.23.249.249a2.2,2.2,0,0,1,1.379.632l.115,4.96c.019.575.115.862.326.862q.546,0,.632-.977l6.263-.134c.019.555.115.824.326.824.268,0,.46-.306.613-.938a6.381,6.381,0,0,0,.1-1.13l.038-3.466C98.911,93.586,99.007,92.973,99.007,92.744Zm-1.168,5.171-6.224.134.019-2.6,6.205-.1ZM95.923,83.436c0-.153-.1-.268-.287-.364a9.4,9.4,0,0,0-1.8-.632,2.34,2.34,0,0,0-.421-.057c-.306,0-.46.077-.46.211,0,.1.1.172.268.249a2.092,2.092,0,0,1,1.168.977,15.8,15.8,0,0,1-6.3,4.96c-.211.1-.306.192-.306.268,0,.153.038.211.115.211a1.052,1.052,0,0,0,.364-.115,15.7,15.7,0,0,0,6.129-3.6L100.5,88.32a1.4,1.4,0,0,0,.517.077c.211-.019.306-.134.306-.364-.019-.421-.747-.958-2.183-1.57a3.327,3.327,0,0,0-.977-.134,3.35,3.35,0,0,1-1.245-.383l-2.049-.919a8.8,8.8,0,0,0,.9-1.187A.971.971,0,0,0,95.923,83.436Zm6.952,7.067c0-.211-.134-.345-.44-.44a6.29,6.29,0,0,0-1.743-.23,1.438,1.438,0,0,0-.594.153,5.81,5.81,0,0,1-2.03.326c-2.585.1-5.535.153-8.791.153a20.3,20.3,0,0,1-2.873-.192c-.192-.019-.287,0-.287.077a.41.41,0,0,0,.23.345,7.144,7.144,0,0,0,1.819.824,1.287,1.287,0,0,0,.345.057.6.6,0,0,0,.23-.077q1.207-.6,10.993-.594c.8,0,1.57.038,2.241.1C102.588,91.058,102.875,90.905,102.875,90.5Zm13.981-7.891a.463.463,0,0,0-.364-.5,7.947,7.947,0,0,0-2.413-.383c-.4,0-.594.1-.594.306,0,.1.1.153.268.192a3.643,3.643,0,0,1,1.953,1.015V91.46a38.93,38.93,0,0,1-4.271,1.168c-2.26.479-3.83.728-4.75.824-.287.019-.421-.153-.421-.479V87.036c0-.057,0-.306.019-.747.019-.383-.077-.575-.287-.613a13.558,13.558,0,0,0-2.26-.172c-.268,0-.613.172-.613.326,0,.115.077.192.249.211,1.053.192,1.647.44,1.781.728l.038,5.937a2.134,2.134,0,0,0,.23,1.207,1.212,1.212,0,0,0,.747.575,4.856,4.856,0,0,0,.977-.057,38.907,38.907,0,0,0,4.328-.977,38.071,38.071,0,0,0,4.233-1.551v6.4c0,.938.115,1.4.326,1.4.249,0,.421-.44.555-1.36a35.448,35.448,0,0,0,.211-4.443V83.761C116.8,83.532,116.856,82.861,116.856,82.612Zm15.8,0a.478.478,0,0,0-.383-.5,7.677,7.677,0,0,0-2.356-.383c-.421,0-.613.1-.613.306,0,.1.1.153.268.192a3.652,3.652,0,0,1,1.934,1.015v8.484a35.91,35.91,0,0,1-8.848,1.877q-.4.029-.4-.46V87.036c0-.172,0-.364.019-.613l5.458-.134c.5-.019.747-.23.747-.594,0-.211-.115-.345-.364-.4a3.851,3.851,0,0,0-1.436-.057,9.127,9.127,0,0,1-1.743.46q-1.35.086-2.528.057c-.249-.077-.479-.134-.632-.172a12.807,12.807,0,0,0-1.9-.172c-.23,0-.594.172-.594.326,0,.1.077.172.23.211a2.383,2.383,0,0,1,1.628.728l.038,6.148c0,1.149.134,1.417.613,1.7a.835.835,0,0,0,.345.1,4.221,4.221,0,0,0,1.072-.038,39.839,39.839,0,0,0,8.293-2.26V98.3c0,.938.1,1.4.326,1.4.249,0,.421-.44.555-1.36a35.883,35.883,0,0,0,.211-4.443V90.522c1.072-.019,2.049-.038,2.949-.057.517-.019.766-.192.766-.575a.461.461,0,0,0-.383-.44,1.949,1.949,0,0,0-2.068.23,1.844,1.844,0,0,1-1.264.306V83.761C132.6,83.532,132.657,82.861,132.657,82.612Z" transform="translate(180 7347.749)" fill="#2b2b2b"/>
    <path id="패스_7722" data-name="패스 7722" d="M-.156-15.838a1.613,1.613,0,0,1,.9.019,1.965,1.965,0,0,1,.76.448,2.607,2.607,0,0,1,.546.74,2.062,2.062,0,0,1,.214.935,2.1,2.1,0,0,1-.7,1.617,2.444,2.444,0,0,1-1.714.643,2.267,2.267,0,0,1-2.026-.994,4.515,4.515,0,0,1-.662-2.552,6.764,6.764,0,0,1,.994-3.682,5.941,5.941,0,0,1,3.1-2.357l.546.74a5.489,5.489,0,0,0-2.26,1.753,3.97,3.97,0,0,0-.74,2.338q0,.429.175.507a.554.554,0,0,0,.409,0Zm6.234,0a1.778,1.778,0,0,1,1.637.468,2.151,2.151,0,0,1,.74,1.675,2.129,2.129,0,0,1-.682,1.617,2.375,2.375,0,0,1-1.695.643,2.316,2.316,0,0,1-2.046-.994,4.417,4.417,0,0,1-.682-2.552,6.666,6.666,0,0,1,1.013-3.682,6.045,6.045,0,0,1,3.117-2.357l.546.74a5.647,5.647,0,0,0-2.279,1.753,3.9,3.9,0,0,0-.76,2.338q0,.429.175.507a.656.656,0,0,0,.448,0Z" transform="translate(220.086 7312)" fill="#2b2b2b"/>
  </g>
</svg>
