<svg xmlns="http://www.w3.org/2000/svg" xmlns:xlink="http://www.w3.org/1999/xlink" width="185.904" height="97.048" viewBox="0 0 185.904 97.048">
  <defs>
    <clipPath id="clip-path">
      <rect id="사각형_3435" data-name="사각형 3435" width="38.528" height="11.926" fill="none"/>
    </clipPath>
  </defs>
  <g id="그룹_1670" data-name="그룹 1670" transform="translate(-123.928 -4010.979)">
    <path id="패스_7725" data-name="패스 7725" d="M-125.232-2.076c0-.072-.06-.132-.168-.156a1.98,1.98,0,0,0-.588-.1,1.232,1.232,0,0,0-.24.072,1.721,1.721,0,0,1-.264.048c-1.032.06-2.5.108-3.576.108a1.523,1.523,0,0,0-.444-.132,6.624,6.624,0,0,0-.972-.072c-.2,0-.312.048-.312.144,0,.072.072.108.18.132a1.566,1.566,0,0,1,.8.4l.264,2.9c.048.36.108.528.216.528.18,0,.3-.18.336-.552q1.08-.036,4.212-.036c.324,0,.48-.06.48-.2s-.18-.228-.552-.288c.12-.612.24-1.392.348-2.352C-125.5-1.848-125.232-1.968-125.232-2.076Zm-1.008.24-.06,2.52a.32.32,0,0,1-.24.156A32.083,32.083,0,0,1-130,.924l-.06-2.376a1.317,1.317,0,0,1,.012-.324C-128.688-1.824-127.488-1.836-126.24-1.836Zm3.24-2.4c0-.12-.1-.2-.288-.264a3.184,3.184,0,0,0-1.02-.156.851.851,0,0,0-.384.108,3.517,3.517,0,0,1-1.14.2c.264-.792.456-1.428.588-1.908a11.2,11.2,0,0,0,.3-1.56c.168-.132.252-.24.252-.312s-.06-.144-.168-.168a2.826,2.826,0,0,0-.612-.072.71.71,0,0,0-.312.1.643.643,0,0,1-.324.072c-1.392.084-2.748.132-4.044.132a10.048,10.048,0,0,1-1.548-.12c-.144-.024-.216,0-.216.084,0,.06.048.132.156.2a4.2,4.2,0,0,0,.96.432,1.215,1.215,0,0,0,.264.048.442.442,0,0,0,.2-.06,2.877,2.877,0,0,1,1.188-.252c1.3-.072,2.412-.12,3.36-.108q-.018.846-.108,1.584c-.12.924-.2,1.56-.276,1.92-1.7.072-3.5.1-5.352.1a10.946,10.946,0,0,1-1.8-.132c-.12-.024-.18,0-.18.06s.048.132.144.2a3.617,3.617,0,0,0,1.152.528.809.809,0,0,0,.2.036.435.435,0,0,0,.156-.06,3.744,3.744,0,0,1,1.128-.216c1.272-.108,3.192-.168,5.76-.168a11.942,11.942,0,0,1,1.44.084.616.616,0,0,0,.444-.1A.338.338,0,0,0-123-4.236Zm7.2.96v-.276h1.212c.516,0,.984.024,1.4.06.384.036.564-.06.564-.312,0-.132-.084-.228-.276-.276a3.941,3.941,0,0,0-1.092-.144.9.9,0,0,0-.372.1,3.951,3.951,0,0,1-1.272.2c-1.524.06-3.372.1-5.508.1a12.843,12.843,0,0,1-1.8-.132c-.12-.024-.18,0-.18.06a.256.256,0,0,0,.144.2,4.293,4.293,0,0,0,1.14.528.807.807,0,0,0,.216.036.51.51,0,0,0,.144-.06,6.1,6.1,0,0,1,1.716-.252v1.452a1.778,1.778,0,0,0,.048.492.166.166,0,0,0-.048.036,1.677,1.677,0,0,0-.72,1.4c0,1.164,1,1.956,2.556,1.956a2.847,2.847,0,0,0,1.884-.564,1.653,1.653,0,0,0,.684-1.392,1.708,1.708,0,0,0-.72-1.4,2.2,2.2,0,0,0,.2-.732A8.886,8.886,0,0,0-115.8-3.276Zm-1.488-5.616a.187.187,0,0,0-.132-.156,1.15,1.15,0,0,0-.468-.108c-.156,0-.24.024-.252.06a.076.076,0,0,0,.048.1c.12.072.18.144.18.24a.249.249,0,0,1-.06.144,2.805,2.805,0,0,0-1.812.588,1.761,1.761,0,0,0-.708,1.44,1.834,1.834,0,0,0,.72,1.464,2.952,2.952,0,0,0,1.872.576,2.9,2.9,0,0,0,1.848-.576,1.78,1.78,0,0,0,.732-1.464,1.773,1.773,0,0,0-.72-1.44,2.5,2.5,0,0,0-1.38-.552A.749.749,0,0,0-117.288-8.892Zm-.588.72a2.007,2.007,0,0,1,1.356.444,1.443,1.443,0,0,1,.54,1.14,1.451,1.451,0,0,1-.528,1.14A1.98,1.98,0,0,1-117.876-5a2.064,2.064,0,0,1-1.392-.444,1.451,1.451,0,0,1-.528-1.14,1.443,1.443,0,0,1,.54-1.14A2.117,2.117,0,0,1-117.876-8.172ZM-116-.084c0,.912-.744,1.524-1.908,1.524-1.14,0-1.908-.6-1.908-1.524a1.336,1.336,0,0,1,.54-1.092,2.151,2.151,0,0,1,1.368-.444C-116.748-1.62-116-.972-116-.084Zm-1.428-2.22c0-.06-.048-.1-.132-.132a1.189,1.189,0,0,0-.456-.108c-.168,0-.252.036-.252.1,0,.036.024.06.072.084.1.048.144.1.144.156a.216.216,0,0,1-.108.192,3.241,3.241,0,0,0-1.056.228,2.235,2.235,0,0,0,.06-.324,9.378,9.378,0,0,0,.072-1.176V-3.48c.708-.024,1.584-.048,2.616-.06v1.452a3.381,3.381,0,0,0,.012.372,2.947,2.947,0,0,0-1.128-.3A.493.493,0,0,0-117.432-2.3Zm11.292-1.344a.151.151,0,0,0-.132-.192,6.8,6.8,0,0,0-1.236-.192c-.24,0-.36.048-.36.156,0,.06.048.108.156.144.516.132.816.288.876.48l.1,2.736h-1.2a11.053,11.053,0,0,1-1.8-.132c-.12-.012-.18,0-.18.06a.29.29,0,0,0,.144.216,3.254,3.254,0,0,0,1.14.516,1.264,1.264,0,0,0,.216.036.377.377,0,0,0,.144-.048,3.171,3.171,0,0,1,1.128-.216c1.248-.108,3.168-.156,5.76-.156.564,0,1.032.012,1.4.048s.564-.06.564-.312c0-.132-.1-.228-.288-.276a4.438,4.438,0,0,0-1.08-.132,1,1,0,0,0-.372.1,4.05,4.05,0,0,1-1.284.192c-.42.024-.852.036-1.272.048l.252-3.312c.024-.18.048-.312.06-.4.012-.108-.036-.168-.168-.192a4.821,4.821,0,0,0-1.224-.2c-.24.012-.372.048-.372.144-.012.06.06.108.168.156a1.848,1.848,0,0,1,.84.48l-.108,3.336c-.624.024-1.26.036-1.9.036V-3.24A2.947,2.947,0,0,1-106.14-3.648Zm5.268-3.876c0-.12-.06-.18-.192-.2a2.6,2.6,0,0,0-.576-.072.635.635,0,0,0-.3.084,1.084,1.084,0,0,1-.336.072c-1.9.12-3.552.156-4.62.144a8.131,8.131,0,0,1-1.584-.132q-.216-.018-.216.108c0,.06.06.132.168.192a4.416,4.416,0,0,0,1.02.468,1.012,1.012,0,0,0,.276.048.49.49,0,0,0,.192-.048,3.1,3.1,0,0,1,1.152-.24c2.064-.1,3.48-.144,3.96-.132,0,.636-.024,1.344-.1,2.136-.06,1-.144,1.86-.288,2.832a.738.738,0,0,0-.012.156c0,.084.036.132.1.132.132,0,.264-.192.36-.54a20.232,20.232,0,0,0,.528-2.592c.06-.444.144-1.14.228-2.064C-100.956-7.308-100.872-7.428-100.872-7.524ZM-93.72-8.88a.187.187,0,0,0-.132-.156,1.114,1.114,0,0,0-.468-.132c-.156,0-.252.036-.252.084s.024.072.072.1a.248.248,0,0,1,.156.24.25.25,0,0,1-.084.18,2.909,2.909,0,0,0-1.776.576,1.8,1.8,0,0,0-.708,1.452,1.812,1.812,0,0,0,.72,1.452A2.887,2.887,0,0,0-94.32-4.5a2.841,2.841,0,0,0,1.848-.588A1.774,1.774,0,0,0-91.74-6.54a1.812,1.812,0,0,0-.72-1.452,2.715,2.715,0,0,0-1.428-.552A.645.645,0,0,0-93.72-8.88Zm1.224,6v-.5c.468-.012.96-.012,1.488-.012a10.036,10.036,0,0,1,1.4.084c.384.036.564-.084.564-.324,0-.132-.084-.228-.276-.276a3.533,3.533,0,0,0-1.092-.156.77.77,0,0,0-.372.108,3.951,3.951,0,0,1-1.272.2c-1.524.06-3.372.084-5.508.084a12.837,12.837,0,0,1-1.8-.12c-.12-.024-.18-.012-.18.048a.256.256,0,0,0,.144.2,3.656,3.656,0,0,0,1.14.528.807.807,0,0,0,.216.036s.144-.036.444-.12a3.5,3.5,0,0,1,.636-.132c.24-.012.5-.036.792-.048v1.224a2.166,2.166,0,0,0,.048.552,8.228,8.228,0,0,1-1.644-.12c-.156-.012-.228.012-.228.108,0,.06.06.132.168.192a5.844,5.844,0,0,0,1,.408.921.921,0,0,0,.276.072A.441.441,0,0,0-96.36-.9a2.9,2.9,0,0,1,1.188-.264c.816-.048,1.836-.072,3.048-.072v2.1c0,.72.072,1.08.228,1.08s.288-.3.372-.924c.036-.264.048-.54.06-.852l.036-1.356a.512.512,0,0,0,.168-.3c0-.144-.42-.24-.624-.24a.726.726,0,0,0-.288.048q-.342.054-.5.072a2.31,2.31,0,0,0,.108-.4A4.518,4.518,0,0,0-92.5-2.88Zm-1.8-5.244a2.007,2.007,0,0,1,1.356.444,1.437,1.437,0,0,1,.54,1.128A1.475,1.475,0,0,1-92.928-5.4a2.04,2.04,0,0,1-1.368.444,2.071,2.071,0,0,1-1.392-.456,1.451,1.451,0,0,1-.528-1.14,1.437,1.437,0,0,1,.54-1.128A2.117,2.117,0,0,1-94.3-8.124Zm-1.188,5.28v-.468c.672-.036,1.44-.06,2.316-.072v1.332a2.618,2.618,0,0,0,.024.468c-.96.048-1.8.072-2.532.084a1.853,1.853,0,0,0,.12-.48A6.549,6.549,0,0,0-95.484-2.844Zm8.964-3.468c0,1.248,1.164,2.076,2.592,2.076s2.592-.828,2.592-2.076A2.2,2.2,0,0,0-83.46-8.364a.8.8,0,0,0,.156-.312.187.187,0,0,0-.132-.156.961.961,0,0,0-.468-.132c-.156,0-.252.024-.264.072s.012.072.048.108c.132.072.192.144.192.216A.286.286,0,0,1-84-8.4,2.3,2.3,0,0,0-86.52-6.312Zm.708-.012A1.758,1.758,0,0,1-83.9-7.992,1.758,1.758,0,0,1-82-6.324,1.749,1.749,0,0,1-83.9-4.668,1.749,1.749,0,0,1-85.812-6.324Zm5.436,7.2c0-.132-.084-.2-.264-.228A6.615,6.615,0,0,0-81.684.612a.8.8,0,0,0-.36.108,3.114,3.114,0,0,1-1.188.2c-.816.036-1.584.036-2.28.012-.252-.012-.372-.168-.372-.432V-.78a3.669,3.669,0,0,1,.012-.456c.024-.228-.036-.384-.18-.42a6.739,6.739,0,0,0-1.38-.1c-.156,0-.372.12-.372.228,0,.06.048.108.156.12q.972.216,1.08.432l.012,1.26a1.02,1.02,0,0,0,.252.768.849.849,0,0,0,.444.2c.084.012.264.012.54.024.228,0,.9,0,2.04-.012,1.224-.012,2.04-.012,2.436-.012C-80.532,1.26-80.376,1.14-80.376.876Zm1.716-4.128c0-.144-.084-.228-.276-.288a4.055,4.055,0,0,0-1.092-.132A.9.9,0,0,0-80.4-3.6a3.943,3.943,0,0,1-1.272.216c-1.452.072-3.312.1-5.508.1a9.487,9.487,0,0,1-1.8-.144c-.12-.012-.18,0-.18.06a.257.257,0,0,0,.144.216,3.283,3.283,0,0,0,1.14.528,1.264,1.264,0,0,0,.216.036.286.286,0,0,0,.144-.048,3.12,3.12,0,0,1,1.128-.24c1.188-.084,3.108-.132,5.76-.132.552,0,1.008.024,1.4.06S-78.66-3.012-78.66-3.252Zm11.1-5.436A.29.29,0,0,0-67.788-9a4.945,4.945,0,0,0-1.488-.24c-.264,0-.384.06-.384.192,0,.06.06.1.168.12a2.288,2.288,0,0,1,1.212.636V1.14c0,.588.072.876.216.876s.252-.276.336-.852A22.483,22.483,0,0,0-67.6-1.62v-2.4c.672-.012,1.284-.036,1.848-.048.324,0,.48-.108.48-.348a.289.289,0,0,0-.24-.276,2.117,2.117,0,0,0-1.128.012,1.148,1.148,0,0,0-.228.132,1.01,1.01,0,0,1-.732.2V-7.968C-67.6-8.112-67.56-8.532-67.56-8.688Zm-4.3,1.836a.319.319,0,0,0-.168-.264,4.385,4.385,0,0,0-1.1-.48.784.784,0,0,0-.252-.048c-.2,0-.312.048-.312.12,0,.048.06.108.192.168a1.336,1.336,0,0,1,.744.768A10.769,10.769,0,0,1-75.84-1.716c-.132.12-.216.216-.216.264a.088.088,0,0,0,.1.1.62.62,0,0,0,.312-.144,10.386,10.386,0,0,0,2.832-3.072L-70.584-1.9a.5.5,0,0,0,.372.192c.132,0,.192-.072.192-.228a1.562,1.562,0,0,0-.276-.72,3.345,3.345,0,0,0-.564-.756,1.349,1.349,0,0,0-.312-.168,3.4,3.4,0,0,1-.876-.768l-.552-.624a10.562,10.562,0,0,0,.672-1.608A1.492,1.492,0,0,0-71.856-6.852ZM-56.04,1.1c0-.408-.384-.372-1.212-.372a.638.638,0,0,0-.348.12,2.611,2.611,0,0,1-1.056.192c-.756.036-1.62.048-2.556.036-.192,0-.276-.084-.276-.264V-.456c1.116-.048,2.616-.084,4.512-.1.192,0,.288-.06.288-.192,0-.108-.144-.192-.456-.24a7.045,7.045,0,0,0,.264-1.26.3.3,0,0,1,.156-.18.209.209,0,0,0,.108-.168.113.113,0,0,0-.072-.1,1.49,1.49,0,0,0-.744-.156c-.18,0-.324.132-.552.144a33.207,33.207,0,0,1-3.468.12,10.578,10.578,0,0,1-1.3-.1c-.12-.024-.18,0-.18.084a.14.14,0,0,0,.084.132c.192.1.5.24.924.408A.627.627,0,0,0-61.668-2a1,1,0,0,0,.3-.1,2.358,2.358,0,0,1,.852-.144c1.4-.072,2.364-.108,2.892-.12.012.792.012,1.236,0,1.344a.2.2,0,0,1-.192.132c-.984.06-2.148.084-3.48.084a.417.417,0,0,1-.156-.024A1.8,1.8,0,0,0-61.716-.9,6.212,6.212,0,0,0-62.808-1c-.18,0-.276.048-.276.156,0,.06.048.1.156.12a1.945,1.945,0,0,1,.78.312V.564a.909.909,0,0,0,.228.72.972.972,0,0,0,.684.132c1.788-.012,3.36-.024,4.764-.036C-56.172,1.38-56.04,1.284-56.04,1.1Zm-4.836-8.76a.344.344,0,0,0-.192-.288,4.992,4.992,0,0,0-1.176-.468,1.076,1.076,0,0,0-.216-.024c-.18,0-.264.036-.264.108s.048.12.144.156a1.259,1.259,0,0,1,.78.792,10.692,10.692,0,0,1-3.048,4.032c-.144.132-.216.2-.216.24,0,.06.024.084.084.084a.521.521,0,0,0,.24-.1,9.784,9.784,0,0,0,2.964-2.748l2.256,2.112a.464.464,0,0,0,.288.144c.132,0,.18-.072.18-.228a1.209,1.209,0,0,0-.024-.228,2.356,2.356,0,0,0-.768-1.044,1.905,1.905,0,0,0-.444-.192,4.023,4.023,0,0,1-.7-.48l-.552-.456a9.281,9.281,0,0,0,.588-1.14A.722.722,0,0,0-60.876-7.656ZM-56.9-9a4.979,4.979,0,0,0-1.512-.24c-.24,0-.36.06-.36.192,0,.06.048.1.156.12a2.4,2.4,0,0,1,1.236.624v4.368c0,.516.084.78.24.78s.288-.276.36-.792a10.327,10.327,0,0,0,.072-1.332V-7.968c0-.048.012-.192.024-.444a.881.881,0,0,1,.024-.288A.32.32,0,0,0-56.9-9ZM-43.548,1.164c0-.348-.42-.336-1.236-.336a.819.819,0,0,0-.372.12,3.325,3.325,0,0,1-1.14.18c-.972.036-1.824.06-2.544.048A.253.253,0,0,1-49.1.888V-.084c0,.012,0-.048.012-.2,1.02-.06,2.58-.1,4.692-.108.18,0,.276-.072.276-.2,0-.108-.144-.18-.444-.216a11.805,11.805,0,0,0,.288-1.2c.012-.1.276-.252.276-.348,0-.06-.048-.1-.144-.12a3.437,3.437,0,0,0-.648-.108,5.063,5.063,0,0,0-.552.132,35.893,35.893,0,0,1-3.864.1c-.576-.036-1-.072-1.224-.108-.12-.024-.18,0-.18.084a.152.152,0,0,0,.084.132,2.569,2.569,0,0,0,1.188.456.7.7,0,0,0,.3-.108,3.434,3.434,0,0,1,.828-.12c.912-.048,1.98-.072,3.2-.084A9.512,9.512,0,0,1-45.048-.84a.231.231,0,0,1-.192.108c-1.152.06-2.388.1-3.684.1a.345.345,0,0,1-.144-.024.952.952,0,0,0-.18-.06,5.068,5.068,0,0,0-1.2-.084c-.192.012-.276.048-.276.132,0,.06.048.1.168.12a1.867,1.867,0,0,1,.78.348V.648a.9.9,0,0,0,.228.708.97.97,0,0,0,.684.144c1.488-.06,3.108-.072,4.848-.036C-43.7,1.476-43.548,1.368-43.548,1.164Zm-.48-9.564c0-.06-.06-.12-.18-.156a2.616,2.616,0,0,0-.624-.072c-.132,0-.372.12-.552.12-1.884.1-3.084.132-3.564.12a11.136,11.136,0,0,1-1.476-.12c-.132-.024-.216.012-.216.1,0,.06.06.12.168.192a7.364,7.364,0,0,0,.936.4.88.88,0,0,0,.264.048.5.5,0,0,0,.2-.048,2.7,2.7,0,0,1,.96-.216c.7-.06,1.644-.1,2.82-.108a18.092,18.092,0,0,1-2.8,1.668,19.835,19.835,0,0,1-3.288,1.272c-.108.024-.132.072-.132.12,0,.084.024.12.084.12a.345.345,0,0,0,.144-.024,23.169,23.169,0,0,0,4.128-1.344l3.888.84a1.007,1.007,0,0,0,.252.012q.18,0,.18-.252A.276.276,0,0,0-43.02-6a4.815,4.815,0,0,0-1.008-.348,2.782,2.782,0,0,0-.648,0,3.007,3.007,0,0,1-.732-.048l-1.128-.24a10.229,10.229,0,0,0,2.112-1.392c.084-.048.132-.1.156-.108C-44.112-8.244-44.028-8.328-44.028-8.4Zm2.148,4.548c0-.144-.084-.228-.276-.276a3.88,3.88,0,0,0-1.092-.144.9.9,0,0,0-.372.1,4.236,4.236,0,0,1-1.272.216c-.6.024-1.2.048-1.8.06l.048-.924c.012-.156.024-.276.036-.372.024-.132-.036-.216-.192-.252a5.293,5.293,0,0,0-1.128-.108c-.216,0-.336.048-.336.132s.048.144.168.156a1.058,1.058,0,0,1,.744.5v.888c-1.02.024-2.04.024-3.048.024A9.847,9.847,0,0,1-52.2-4c-.12-.012-.18,0-.18.072a.256.256,0,0,0,.144.2,3.474,3.474,0,0,0,1.14.528,1.264,1.264,0,0,0,.216.036.51.51,0,0,0,.144-.06,3.74,3.74,0,0,1,1.128-.228c1.272-.108,3.2-.156,5.76-.156.528,0,1.008.024,1.4.06S-41.88-3.6-41.88-3.852Zm8.772-4.836A.29.29,0,0,0-33.336-9a4.979,4.979,0,0,0-1.512-.24c-.252,0-.372.072-.372.2,0,.048.06.084.168.108a2.291,2.291,0,0,1,1.224.648v5.82a20.732,20.732,0,0,1-2.484.588,24.75,24.75,0,0,1-3.048.408c-.18.012-.264-.1-.264-.288V-3.888a1.832,1.832,0,0,1,.012-.216l3.588-.192c.144-.012.216-.072.216-.2s-.156-.228-.492-.312c.18-.768.312-1.332.444-2.076a.283.283,0,0,1,.12-.192.2.2,0,0,0,.1-.156.113.113,0,0,0-.072-.1,1.682,1.682,0,0,0-.744-.132.645.645,0,0,0-.252.06,1.424,1.424,0,0,1-.3.06c-.768.06-1.632.1-2.64.084a8.939,8.939,0,0,1-1.284-.072c-.108-.012-.168.012-.168.072a.2.2,0,0,0,.12.168,3.107,3.107,0,0,0,1.092.444A4.489,4.489,0,0,1-38.736-6.9a18.937,18.937,0,0,1,2.04-.084c0,.864-.024,1.836-.06,2.184a.2.2,0,0,1-.144.12c-.744.084-1.632.132-2.616.144a.592.592,0,0,1-.18-.036,1.5,1.5,0,0,0-.348-.072,8.259,8.259,0,0,0-1.068-.072c-.06,0-.228.084-.228.156a.117.117,0,0,0,.1.12,2.384,2.384,0,0,1,.9.336V-1.92a1.382,1.382,0,0,0,.18.756.649.649,0,0,0,.432.36,2.738,2.738,0,0,0,.684-.024c.96-.156,1.872-.336,2.688-.552a25.648,25.648,0,0,0,2.532-.8V1.14c0,.588.072.876.2.876.156,0,.264-.276.348-.852a22.211,22.211,0,0,0,.132-2.784V-7.968C-33.144-8.112-33.108-8.532-33.108-8.688ZM-24.36-1.5a.187.187,0,0,0-.072-.144A.318.318,0,0,1-24.5-1.7c.408-.012.768-.024,1.068-.036a10.194,10.194,0,0,1,1.188.036c.276.024.432-.06.432-.252,0-.132-.108-.24-.348-.3a2.894,2.894,0,0,0-.72-.072,1.085,1.085,0,0,0-.432.108,2.312,2.312,0,0,1-.84.168c-.54.048-1.224.072-2.088.072a11.984,11.984,0,0,1-1.392-.1c-.108-.012-.144.012-.144.084a.183.183,0,0,0,.084.144,7.8,7.8,0,0,0,.828.4,1.087,1.087,0,0,0,.276.048.541.541,0,0,0,.2-.06,1.553,1.553,0,0,1,.672-.18l.732-.036c.072.072.156.168.156.228a.192.192,0,0,1-.1.168,1.915,1.915,0,0,0-1.1.4,1.293,1.293,0,0,0-.54,1,8.715,8.715,0,0,1-1.1.42,6.423,6.423,0,0,1-1.236.288c-.132.024-.2-.036-.2-.168V-1.4c0-.06.012-.228.024-.492.012-.2-.048-.336-.192-.36a11.487,11.487,0,0,0-1.26-.084c-.156,0-.372.1-.372.216,0,.06.06.1.168.12.552.132.864.276.948.432l.012,2.1a1.246,1.246,0,0,0,.168.624.6.6,0,0,0,.4.288,1.4,1.4,0,0,0,.432-.048,5.538,5.538,0,0,0,1.32-.48c.372-.2.672-.372.9-.516a1.306,1.306,0,0,0,.54.876,1.979,1.979,0,0,0,1.3.42c1.044,0,1.8-.6,1.8-1.464a1.552,1.552,0,0,0-1.56-1.5A.381.381,0,0,0-24.36-1.5Zm-1.524-6.072q0-.126-.18-.18a1.986,1.986,0,0,0-.564-.1.63.63,0,0,0-.288.084,2.4,2.4,0,0,1-.324.06,18.262,18.262,0,0,1-2.448.1,10.122,10.122,0,0,1-1.188-.1c-.1-.012-.144.012-.144.084s.036.108.12.156a3.624,3.624,0,0,0,.876.4.5.5,0,0,0,.192.036.447.447,0,0,0,.18-.072,1.711,1.711,0,0,1,.624-.168c.492-.048,1.176-.072,2.04-.072A12.908,12.908,0,0,1-31.44-3.12c-.084.06-.12.108-.12.144q0,.108.072.108a.414.414,0,0,0,.156-.036A13.823,13.823,0,0,0-27.7-5.28l2.016,1.536a.618.618,0,0,0,.336.156q.18,0,.18-.216a.713.713,0,0,0-.06-.228,2.941,2.941,0,0,0-.6-.7,2.418,2.418,0,0,0-.456-.144,1.559,1.559,0,0,1-.528-.288l-.6-.408A6.674,6.674,0,0,0-26.22-7.152a2.337,2.337,0,0,1,.2-.216A.482.482,0,0,0-25.884-7.572ZM-23.22-8.7a.307.307,0,0,0-.228-.312,4.927,4.927,0,0,0-1.488-.228c-.264,0-.384.06-.384.192,0,.048.06.084.168.108a2.425,2.425,0,0,1,1.224.648V-4.32c0,.5.072.756.24.756s.288-.252.36-.78c.024-.216.048-.468.06-.756.276-.012.54-.012.816-.024.576-.012.912-.024,1.044-.024.324,0,.48-.12.48-.336a.289.289,0,0,0-.24-.276,1.9,1.9,0,0,0-1.128.012,2,2,0,0,0-.228.144,1.164,1.164,0,0,1-.732.192V-7.968C-23.256-8.124-23.22-8.52-23.22-8.7ZM-23.544.18a1.059,1.059,0,0,1-1.188,1.08A1.061,1.061,0,0,1-25.908.18,1.084,1.084,0,0,1-24.732-.888,1.124,1.124,0,0,1-23.544.18Zm.036-3.12c0-.132-.132-.192-.408-.2a9.961,9.961,0,0,1-1.98-.18,1.322,1.322,0,0,0-.216-.024c-.108,0-.156.024-.156.06a.246.246,0,0,0,.108.18,5.047,5.047,0,0,0,.612.456.775.775,0,0,0,.5.072h.216c.42-.036.744-.048.936-.048C-23.628-2.628-23.508-2.724-23.508-2.94Zm7.92-1.308A2.275,2.275,0,0,0-16.332-6a2.58,2.58,0,0,0-1.38-.636.834.834,0,0,0,.192-.348.26.26,0,0,0-.144-.228,1.248,1.248,0,0,0-.7-.2c-.132,0-.192.048-.192.108s.024.084.084.12c.156.1.24.2.24.312a.378.378,0,0,1-.108.2,2.646,2.646,0,0,0-1.74.648,2.288,2.288,0,0,0-.768,1.776A2.3,2.3,0,0,0-20.088-2.5a2.684,2.684,0,0,0,1.872.66,2.746,2.746,0,0,0,1.86-.672A2.266,2.266,0,0,0-15.588-4.248Zm-.7-.024a1.8,1.8,0,0,1-.552,1.332,1.817,1.817,0,0,1-1.356.528,1.939,1.939,0,0,1-1.392-.528,1.8,1.8,0,0,1-.552-1.332,1.755,1.755,0,0,1,.552-1.32,1.949,1.949,0,0,1,1.392-.54,1.817,1.817,0,0,1,1.356.528A1.745,1.745,0,0,1-16.284-4.272Zm3.444-4.416A.29.29,0,0,0-13.068-9a4.945,4.945,0,0,0-1.488-.24c-.264,0-.384.06-.384.192,0,.06.06.1.168.12a2.283,2.283,0,0,1,1.224.636V1.14c0,.588.06.876.2.876s.252-.276.336-.852a22.484,22.484,0,0,0,.132-2.784v-2.2c.672-.012,1.3-.036,1.86-.048.312,0,.468-.12.468-.348a.277.277,0,0,0-.228-.276,1.943,1.943,0,0,0-1.14.012,2,2,0,0,0-.228.144,1.06,1.06,0,0,1-.732.192V-7.968C-12.876-8.112-12.84-8.532-12.84-8.688Zm9.9,3.312A2.1,2.1,0,0,0-3.792-7.1a3,3,0,0,0-1.416-.588A1.056,1.056,0,0,0-5-8.076c0-.084-.048-.144-.144-.216a1.228,1.228,0,0,0-.672-.2c-.132,0-.192.036-.192.1s.024.084.084.12a.4.4,0,0,1,.216.324.341.341,0,0,1-.108.228A3.217,3.217,0,0,0-7.656-7.1a2.143,2.143,0,0,0-.876,1.728,2.142,2.142,0,0,0,.852,1.74,3.021,3.021,0,0,0,1.944.624,3,3,0,0,0,1.944-.624A2.11,2.11,0,0,0-2.94-5.376Zm-.672.048a1.729,1.729,0,0,1-.54,1.284,2.176,2.176,0,0,1-1.56.552,2.1,2.1,0,0,1-1.5-.528A1.675,1.675,0,0,1-7.8-5.328a1.9,1.9,0,0,1,2.088-1.86,2.262,2.262,0,0,1,1.548.552A1.786,1.786,0,0,1-3.612-5.328ZM-6.78-2.34c.012-.108-.036-.144-.168-.18A5.354,5.354,0,0,0-8.16-2.712c-.228,0-.36.048-.36.156,0,.048.06.1.168.132.48.12.768.288.852.492l.144,1.74H-8.88a9.847,9.847,0,0,1-1.8-.144q-.18-.036-.18.072c0,.06.048.132.144.2a3.433,3.433,0,0,0,1.14.516A.929.929,0,0,0-9.36.48.3.3,0,0,0-9.216.444,3.74,3.74,0,0,1-8.088.216C-6.828.108-4.908.06-2.328.06c.552,0,1.008.024,1.4.06S-.36.06-.36-.192c0-.144-.084-.228-.276-.276A3.88,3.88,0,0,0-1.728-.612a.9.9,0,0,0-.372.1A4.236,4.236,0,0,1-3.372-.3a2.312,2.312,0,0,1-.288.012l.372-1.788c.036-.18.06-.312.072-.408.024-.072-.036-.144-.168-.192a5.014,5.014,0,0,0-1.1-.264c-.228-.036-.36,0-.372.108-.012.072.048.144.156.18a1.066,1.066,0,0,1,.732.528l-.216,1.86C-5.04-.24-5.916-.216-6.78-.2l-.036-1.728A2.343,2.343,0,0,1-6.78-2.34ZM-110.58,15.1c0-.144-.1-.228-.288-.288a3.552,3.552,0,0,0-1.02-.144,1,1,0,0,0-.384.1,3.361,3.361,0,0,1-1.188.2,17.05,17.05,0,0,0,.6-1.968c.108-.4.216-.948.348-1.668.156-.156.24-.252.24-.288,0-.072-.06-.132-.18-.156a3.469,3.469,0,0,0-.624-.108.635.635,0,0,0-.3.084.878.878,0,0,1-.336.072c-1.008.06-2.376.084-4.092.084a10.238,10.238,0,0,1-1.572-.12c-.144-.012-.216.012-.216.1,0,.048.06.12.168.18a4.746,4.746,0,0,0,.972.444.968.968,0,0,0,.264.072.535.535,0,0,0,.216-.06,2.892,2.892,0,0,1,1.1-.216c1.5-.108,2.664-.156,3.5-.144-.036.672-.084,1.236-.144,1.668-.084.672-.18,1.344-.312,2.04-1.68.072-3.456.108-5.28.108a9.665,9.665,0,0,1-1.8-.144c-.12-.012-.18,0-.18.06a.257.257,0,0,0,.144.216,3.5,3.5,0,0,0,1.152.528c.12.024.192.036.2.036a.435.435,0,0,0,.156-.06,3.109,3.109,0,0,1,1.128-.216c1.272-.108,3.192-.168,5.76-.168a12.221,12.221,0,0,1,1.44.072.565.565,0,0,0,.444-.084A.305.305,0,0,0-110.58,15.1Zm-1.512,4.728a.281.281,0,0,0-.264-.3,6.453,6.453,0,0,0-1.032-.048.83.83,0,0,0-.36.132,3.05,3.05,0,0,1-1.188.192c-.876.036-1.716.036-2.544.012-.336-.012-.372-.132-.372-.384V17.956a3.671,3.671,0,0,1,.024-.48c.024-.216-.036-.336-.192-.372a8.425,8.425,0,0,0-1.38-.1c-.18,0-.372.108-.372.2,0,.06.048.108.156.132.636.144.924.252,1.08.432l.012,1.344c0,.78.264,1.044,1.236,1.044q2.808-.018,4.752-.036C-112.236,20.128-112.092,20.032-112.092,19.828Zm8.76-8.664a.286.286,0,0,0-.2-.3,3.654,3.654,0,0,0-1.272-.264c-.228,0-.336.06-.336.18,0,.06.048.1.156.132a1.547,1.547,0,0,1,.972.528v2.88c-.336.048-.864.1-1.608.132a7.159,7.159,0,0,1-1.152-.048c-.132-.024-.2.024-.2.084s.06.12.168.192a4.145,4.145,0,0,0,.852.4.926.926,0,0,0,.18.024.32.32,0,0,0,.144-.036,2.055,2.055,0,0,1,.516-.156,8.063,8.063,0,0,1,1.1-.132v4.488c0,.552.06.816.18.816.216,0,.348-.576.42-1.74.036-.744.048-1.3.048-1.644V11.812a2.354,2.354,0,0,1,.012-.372C-103.344,11.272-103.332,11.176-103.332,11.164Zm2.028-.816a.32.32,0,0,0-.216-.312,4.573,4.573,0,0,0-1.392-.276c-.252,0-.384.06-.384.192,0,.048.048.084.156.108a2.02,2.02,0,0,1,1.128.636v9.288c0,.7.06,1.032.192,1.032s.336-.516.4-1.236c.036-.684.06-1.4.06-2.148v-6.66a2.674,2.674,0,0,1,.036-.384A1.626,1.626,0,0,0-101.3,10.348Zm-3.84,6.528c0-.06-.024-.1-.084-.1a.832.832,0,0,0-.192.036c-.252.072-.672.156-1.248.264a10.775,10.775,0,0,1-1.824.2c-.132,0-.2-.108-.2-.312V13.228c0-.144,0-.276.012-.408.624-.036,1.488-.072,2.628-.108.312-.012.468-.132.468-.336,0-.3-.408-.372-.96-.312a1.479,1.479,0,0,0-.468.18,1.389,1.389,0,0,1-.54.144,7.67,7.67,0,0,1-1.044.024,2.754,2.754,0,0,0-.4-.12,7.633,7.633,0,0,0-1.1-.072c-.156,0-.372.1-.372.2,0,.06.048.108.132.12.528.1.84.24.948.432v3.768a1.611,1.611,0,0,0,.144.8.655.655,0,0,0,.492.348,1.951,1.951,0,0,0,.5-.024,13.794,13.794,0,0,0,1.776-.42,10.228,10.228,0,0,0,1.176-.42C-105.192,17-105.144,16.936-105.144,16.876Zm58.752-3.24a.271.271,0,0,0-.288-.288,8.309,8.309,0,0,0-1.068-.024.673.673,0,0,0-.36.12,2.443,2.443,0,0,1-1,.2c-.66.024-1.56.036-2.664.036-.24,0-.36-.132-.36-.384V11.692A3.9,3.9,0,0,1-52.1,11.2c.024-.2-.036-.324-.2-.36a6.573,6.573,0,0,0-1.3-.108c-.156,0-.372.132-.372.228a.072.072,0,0,0,.012.048,2.013,2.013,0,0,0,.54.168.911.911,0,0,1,.6.336v1.512c0,.768.324,1.056,1.272,1.056,1.14,0,2.724-.036,4.7-.1C-46.56,13.972-46.392,13.876-46.392,13.636Zm1.692,1.92c0-.132-.084-.228-.276-.276a4.392,4.392,0,0,0-1.092-.132.876.876,0,0,0-.372.084,3.951,3.951,0,0,1-1.272.2c-1.8.072-3.648.108-5.508.108a11.161,11.161,0,0,1-1.8-.132c-.12-.012-.18,0-.18.06a.29.29,0,0,0,.144.216,3.753,3.753,0,0,0,1.14.516,1.8,1.8,0,0,0,.216.036.51.51,0,0,0,.144-.06,3.548,3.548,0,0,1,1.128-.2c1.392-.108,3.336-.168,5.76-.168.528,0,1.008.024,1.4.06S-44.7,15.808-44.7,15.556Zm-1.776,4.284c0-.132-.084-.2-.276-.24a5.009,5.009,0,0,0-1.02-.048.709.709,0,0,0-.372.12,2.952,2.952,0,0,1-1.188.192c-.768.024-1.524.024-2.232.012-.252-.012-.372-.144-.372-.408v-1.26a3.473,3.473,0,0,1,.024-.492c.036-.2-.024-.336-.18-.372a7.779,7.779,0,0,0-1.392-.1c-.156,0-.372.108-.372.2a.178.178,0,0,0,.012.084,2.22,2.22,0,0,0,.576.168c.36.084.588.18.648.312l.012,1.2c0,.744.264,1.008,1.236,1.008,1.14-.024,2.616-.036,4.44-.036C-46.62,20.188-46.476,20.068-46.476,19.84Zm11.664-8.628a.273.273,0,0,0-.192-.3,5.427,5.427,0,0,0-1.272-.252c-.228,0-.348.06-.348.18,0,.06.06.084.168.108a1.536,1.536,0,0,1,.96.54v7.776c0,.552.06.816.192.816.2,0,.348-.576.408-1.74.036-.708.048-1.26.048-1.644v-1.68l1.536-.036v5c0,.7.06,1.032.192,1.032s.336-.516.4-1.236c.036-.684.06-1.4.06-2.148v-6.66a2.674,2.674,0,0,1,.036-.384,1.626,1.626,0,0,0,.024-.24.32.32,0,0,0-.216-.312,4.573,4.573,0,0,0-1.392-.276c-.252,0-.384.06-.384.192,0,.048.048.084.156.108a2.02,2.02,0,0,1,1.128.636v3.912l-1.536.048v-2.8a2.354,2.354,0,0,1,.012-.372C-34.824,11.32-34.812,11.224-34.812,11.212Zm-2.028,1.08c0-.06-.036-.1-.12-.132a1.446,1.446,0,0,0-.564-.1.563.563,0,0,0-.24.084.955.955,0,0,1-.312.06c-.924.06-1.692.084-2.256.072q-.594-.018-1.008-.072h-.084a.091.091,0,0,0-.084.1c0,.048.06.1.144.156a4.333,4.333,0,0,0,.828.4.81.81,0,0,0,.168.024.412.412,0,0,0,.228-.084,1.781,1.781,0,0,1,.7-.156c.468-.036.984-.072,1.6-.084a12.723,12.723,0,0,1-3.8,5.256.309.309,0,0,0-.084.144c0,.06.024.1.072.1a.192.192,0,0,0,.1-.036,11.027,11.027,0,0,0,3.06-2.772l1.608,2.172q.162.216.288.216c.144.012.2-.048.2-.18a2.052,2.052,0,0,0-.54-1.284c-.144-.1-.288-.18-.408-.252a1.425,1.425,0,0,1-.492-.432l-.432-.552a10.341,10.341,0,0,0,1.152-2.2.569.569,0,0,1,.144-.216A.33.33,0,0,0-36.84,12.292Zm14.148-1.98a.3.3,0,0,0-.24-.312,4.979,4.979,0,0,0-1.512-.24c-.24,0-.36.06-.36.192,0,.06.048.1.156.12a2.323,2.323,0,0,1,1.236.636V20.14c0,.588.06.876.192.876.168,0,.276-.276.348-.852a22.484,22.484,0,0,0,.132-2.784V11.032C-22.74,10.888-22.692,10.468-22.692,10.312Zm-2.688,1.92a.162.162,0,0,0-.132-.144,3.436,3.436,0,0,0-.612-.1.558.558,0,0,0-.252.06.672.672,0,0,1-.324.1c-1.08.06-2.508.084-3.012.072a1.139,1.139,0,0,0-.42-.108,6.266,6.266,0,0,0-.936-.072c-.216,0-.312.036-.312.144,0,.048.06.084.168.12a1.383,1.383,0,0,1,.7.42l.312,4.3c.036.456.1.684.192.684.216,0,.336-.252.372-.732,1.488-.012,2.7-.036,3.612-.048.276,0,.42-.072.42-.2,0-.108-.168-.192-.492-.264.216-1.548.348-2.568.468-3.936C-25.536,12.412-25.38,12.328-25.38,12.232Zm-1.02.276-.144,3.852c-.132.252-1.62.324-3.084.276l-.108-3.7c0-.012,0-.12.012-.36C-27.936,12.52-26.832,12.5-26.4,12.508Zm10.872.984a2.013,2.013,0,0,0-.72-1.608,2.684,2.684,0,0,0-1.212-.564.7.7,0,0,0,.18-.36c0-.072-.048-.132-.132-.216a1.092,1.092,0,0,0-.672-.2c-.132,0-.2.036-.2.1s.036.1.1.144c.156.084.228.168.228.252a.264.264,0,0,1-.144.24,2.6,2.6,0,0,0-1.6.588,2.01,2.01,0,0,0-.744,1.632,2.04,2.04,0,0,0,.72,1.6,2.74,2.74,0,0,0,1.764.612,2.545,2.545,0,0,0,1.728-.624A2.005,2.005,0,0,0-15.528,13.492Zm-.672.036a1.587,1.587,0,0,1-.5,1.188,1.719,1.719,0,0,1-1.26.48,1.691,1.691,0,0,1-1.272-.492,1.587,1.587,0,0,1-.492-1.176,1.6,1.6,0,0,1,.492-1.2,1.746,1.746,0,0,1,1.272-.5,1.718,1.718,0,0,1,1.26.5A1.613,1.613,0,0,1-16.2,13.528ZM-12.588,10A4.979,4.979,0,0,0-14.1,9.76c-.252,0-.372.06-.372.192,0,.06.06.1.168.12a2.37,2.37,0,0,1,1.236.636v5.028c0,.528.084.78.24.78s.276-.276.36-.792a10.327,10.327,0,0,0,.072-1.332v-3.36c0-.048,0-.18.012-.444a.881.881,0,0,1,.024-.288A.31.31,0,0,0-12.588,10Zm-.228,7.068a.282.282,0,0,0-.144-.252,6.109,6.109,0,0,0-1.14-.456.75.75,0,0,0-.216-.024c-.168,0-.24.036-.24.108,0,.024.06.072.156.144.456.276.684.516.7.72a8.815,8.815,0,0,1-2.6,3.336c-.108.084-.168.144-.168.192s.024.1.1.1a.381.381,0,0,0,.216-.084,9.262,9.262,0,0,0,2.58-2.4l1.572,2.088a.435.435,0,0,0,.324.216c.108,0,.18-.084.18-.276a.544.544,0,0,0-.036-.192,4.391,4.391,0,0,0-.5-.96,1.018,1.018,0,0,0-.4-.264,1.5,1.5,0,0,1-.5-.432l-.42-.492a8.8,8.8,0,0,0,.468-.8A.551.551,0,0,0-12.816,17.068Zm-3.84.1a.191.191,0,0,0-.048-.144,2.763,2.763,0,0,0-1.164-.432,1.076,1.076,0,0,0-.216-.024c-.2,0-.3.036-.3.12,0,.036.036.072.132.108.492.24.756.432.78.588a8.632,8.632,0,0,1-2.676,3.084q-.144.126-.144.18c0,.072.024.108.084.108a.735.735,0,0,0,.2-.084,9.088,9.088,0,0,0,2.736-2.4l1.056,1.248a.336.336,0,0,0,.228.156.2.2,0,0,0,.216-.24,1.189,1.189,0,0,0-.024-.216,3.716,3.716,0,0,0-.252-.54.762.762,0,0,0-.372-.252.833.833,0,0,1-.372-.192l-.276-.276a4.79,4.79,0,0,0,.324-.528A.485.485,0,0,0-16.656,17.164Zm16.3,1.344c0-.132-.084-.216-.276-.264A3.88,3.88,0,0,0-1.728,18.1a.9.9,0,0,0-.372.1,3.951,3.951,0,0,1-1.272.2c-.84.036-1.692.06-2.544.084l.084-3.06c.012-.216.024-.384.036-.528.012-.108-.036-.168-.156-.2a6.714,6.714,0,0,0-1.3-.168q-.36,0-.36.144c0,.084.048.12.156.144a1.565,1.565,0,0,1,.912.552l.012,3.132c-.78.012-1.572.012-2.352.012a11.161,11.161,0,0,1-1.8-.132c-.12-.024-.18,0-.18.06s.048.132.144.2a3.208,3.208,0,0,0,1.14.516,1.264,1.264,0,0,0,.216.036.377.377,0,0,0,.144-.048,3.832,3.832,0,0,1,1.128-.216c1.26-.108,3.18-.156,5.76-.156.528,0,1.008.024,1.4.06S-.36,18.772-.36,18.508Zm-1.548-7.044c0-.12-.06-.18-.192-.2a2.6,2.6,0,0,0-.576-.072.635.635,0,0,0-.3.084,1.084,1.084,0,0,1-.336.072c-1.9.12-3.4.156-4.464.144a8.131,8.131,0,0,1-1.584-.132q-.216-.018-.216.108c0,.06.06.132.168.192a4.416,4.416,0,0,0,1.02.468,1.012,1.012,0,0,0,.276.048.49.49,0,0,0,.192-.048,3.1,3.1,0,0,1,1.152-.24c2.064-.1,3.324-.144,3.8-.132,0,.636-.024,1.344-.1,2.136-.06,1-.144,1.86-.288,2.832a.738.738,0,0,0-.012.156c0,.084.036.132.1.132.132,0,.264-.192.36-.54a20.231,20.231,0,0,0,.528-2.592c.06-.444.144-1.14.228-2.064C-1.992,11.68-1.908,11.56-1.908,11.464ZM-93.456,35.972a.241.241,0,0,0-.168-.228,3.53,3.53,0,0,0-1.212-.228c-.228,0-.36.048-.36.156a.149.149,0,0,0,.132.144,1.675,1.675,0,0,1,.888.456v.948l-3.768.072.012-.42c.012-.12.024-.24.024-.336,0-.192-.1-.288-.3-.324a7.6,7.6,0,0,0-1.116-.132c-.12,0-.336.1-.336.18s.048.132.144.144a1.394,1.394,0,0,1,.864.42l.072,2.664q.018.54.18.54c.2,0,.36-.24.42-.72l3.8-.06c0,.336.132.708.228.708.168,0,.288-.2.384-.624a3.659,3.659,0,0,0,.06-.7l-.012-2.136A2.207,2.207,0,0,1-93.456,35.972Zm.132-6.672a.307.307,0,0,0-.228-.312,4.947,4.947,0,0,0-1.5-.228c-.264,0-.384.06-.384.192,0,.06.06.1.168.108a2.427,2.427,0,0,1,1.236.648v3.54a42.413,42.413,0,0,1-6.252.684,8.88,8.88,0,0,1-1.692-.072c-.132-.024-.2.012-.2.1a.257.257,0,0,0,.144.216,3.924,3.924,0,0,0,1.44.612.551.551,0,0,0,.264-.084,1.275,1.275,0,0,1,.48-.168c.324-.024.756-.072,1.284-.132v.936c0,.42.06.624.192.624.192,0,.336-.228.42-.7.036-.288.06-.612.072-.96.288-.048.588-.084.924-.144.816-.144,1.788-.336,2.928-.612v1.188c0,.492.072.756.24.756s.288-.264.36-.768a10.472,10.472,0,0,0,.072-1.356V30.032C-93.36,29.888-93.324,29.456-93.324,29.3Zm-.852,9.564-3.78.06.012-1.26,3.768-.072Zm-3.42-8.856a.264.264,0,0,0-.18-.252c-.384-.144-.7-.24-.912-.3a1.477,1.477,0,0,0-.24-.024c-.168,0-.252.036-.252.1s.048.108.132.144a1.034,1.034,0,0,1,.6.564,7.535,7.535,0,0,1-2.736,2.724c-.144.084-.2.144-.2.2s.024.1.084.1a.659.659,0,0,0,.216-.06,7.427,7.427,0,0,0,2.724-1.884l2.592,1.284a.672.672,0,0,0,.3.084c.144,0,.216-.084.216-.24a.6.6,0,0,0-.168-.324,2.262,2.262,0,0,0-.744-.456,5.737,5.737,0,0,1-1.176-.312l-.78-.348a5.605,5.605,0,0,0,.456-.72A.63.63,0,0,0-97.6,30.008Zm10.836,1.284c0-.06-.036-.1-.12-.132a1.446,1.446,0,0,0-.564-.1.53.53,0,0,0-.228.084,1.039,1.039,0,0,1-.324.06c-1.1.072-1.884.1-2.352.084q-.756-.036-1.008-.072h-.084a.091.091,0,0,0-.084.1c0,.06.048.108.156.168a4.255,4.255,0,0,0,.816.384.926.926,0,0,0,.18.024.608.608,0,0,0,.228-.1,2.031,2.031,0,0,1,.684-.144c.72-.036,1.272-.084,1.7-.1a11.5,11.5,0,0,1-1.512,2.952A12.787,12.787,0,0,1-91.584,37.1c-.06.06-.1.108-.1.144,0,.084.036.12.084.12a.2.2,0,0,0,.12-.036,11.585,11.585,0,0,0,3.336-3.372,2.049,2.049,0,0,0,.672.312.744.744,0,0,0,.132.036c.108,0,.492-.144.588-.156a10.176,10.176,0,0,1,1.368-.156v4.272c0,.552.072.816.192.816.216,0,.348-.576.408-1.74.048-.744.06-1.3.06-1.644v-4.92a2.354,2.354,0,0,1,.012-.372c.012-.168.024-.252.024-.264a.3.3,0,0,0-.2-.312,4.808,4.808,0,0,0-.648-.144,4.626,4.626,0,0,0-.624-.108c-.228,0-.336.06-.336.168,0,.072.048.108.156.132a1.532,1.532,0,0,1,.96.528V33.62c-.552.06-1.1.084-1.656.1a7.4,7.4,0,0,1-.948-.024,11.391,11.391,0,0,0,.936-1.968,1.113,1.113,0,0,1,.156-.216A.36.36,0,0,0-86.76,31.292Zm4.176-1.944a.316.316,0,0,0-.228-.312A4.573,4.573,0,0,0-84.2,28.76c-.252,0-.372.06-.372.192,0,.048.048.084.156.108a2.02,2.02,0,0,1,1.128.636v9.288c0,.7.06,1.032.18,1.032.144,0,.348-.516.4-1.236.06-.684.072-1.4.072-2.148v-6.66a2.674,2.674,0,0,1,.036-.384A1.626,1.626,0,0,0-82.584,29.348Zm9.768,4.4A2.235,2.235,0,0,0-73.56,32a2.58,2.58,0,0,0-1.38-.636.911.911,0,0,0,.18-.348.272.272,0,0,0-.132-.228,1.255,1.255,0,0,0-.684-.192c-.132,0-.192.036-.192.1s.024.084.084.12a.373.373,0,0,1,.216.312.358.358,0,0,1-.1.2,2.72,2.72,0,0,0-1.74.648,2.249,2.249,0,0,0-.768,1.776,2.262,2.262,0,0,0,.756,1.752,2.716,2.716,0,0,0,1.86.66,2.777,2.777,0,0,0,1.872-.672A2.226,2.226,0,0,0-72.816,33.752Zm-.7-.024a1.757,1.757,0,0,1-.552,1.332,1.845,1.845,0,0,1-1.368.528A1.882,1.882,0,0,1-76.8,35.06a1.757,1.757,0,0,1-.552-1.332,1.713,1.713,0,0,1,.552-1.32,1.892,1.892,0,0,1,1.368-.54,1.826,1.826,0,0,1,1.368.528A1.7,1.7,0,0,1-73.512,33.728Zm3.612-4.416A.29.29,0,0,0-70.128,29a4.979,4.979,0,0,0-1.512-.24c-.252,0-.372.06-.372.192,0,.06.06.1.168.12a2.283,2.283,0,0,1,1.224.636V39.14c0,.588.072.876.2.876.156,0,.264-.276.348-.852a22.483,22.483,0,0,0,.132-2.784V30.032C-69.936,29.888-69.9,29.468-69.9,29.312Zm7.152,4.44A2.275,2.275,0,0,0-63.492,32a2.58,2.58,0,0,0-1.38-.636.834.834,0,0,0,.192-.348.26.26,0,0,0-.144-.228,1.24,1.24,0,0,0-.7-.192c-.132,0-.192.036-.192.1s.024.084.084.12c.156.1.24.2.24.312a.378.378,0,0,1-.108.2,2.646,2.646,0,0,0-1.74.648A2.288,2.288,0,0,0-68,33.752a2.3,2.3,0,0,0,.756,1.752,2.684,2.684,0,0,0,1.872.66,2.746,2.746,0,0,0,1.86-.672A2.266,2.266,0,0,0-62.748,33.752Zm-.7-.024A1.8,1.8,0,0,1-64,35.06a1.817,1.817,0,0,1-1.356.528,1.939,1.939,0,0,1-1.392-.528,1.8,1.8,0,0,1-.552-1.332,1.755,1.755,0,0,1,.552-1.32,1.949,1.949,0,0,1,1.392-.54A1.817,1.817,0,0,1-64,32.4,1.745,1.745,0,0,1-63.444,33.728ZM-60,29.312A.3.3,0,0,0-60.24,29a4.81,4.81,0,0,0-1.476-.24c-.264,0-.384.06-.384.192,0,.06.06.1.168.12a2.243,2.243,0,0,1,1.212.636V39.14c0,.588.06.876.2.876s.264-.276.348-.852a22.484,22.484,0,0,0,.132-2.784v-.96c.672-.012,1.284-.036,1.848-.048.324,0,.48-.132.48-.36a.289.289,0,0,0-.24-.276,1.9,1.9,0,0,0-1.128.012,2,2,0,0,0-.228.144,1.163,1.163,0,0,1-.732.192V32.612c.648-.012,1.236-.036,1.776-.048.324,0,.48-.108.48-.336a.275.275,0,0,0-.24-.288,2.231,2.231,0,0,0-1.128,0,2.466,2.466,0,0,0-.24.144.962.962,0,0,1-.648.216V30.032C-60.036,29.888-60,29.468-60,29.312Zm10.872-.012a.3.3,0,0,0-.192-.288,3.3,3.3,0,0,0-.744-.168,5.456,5.456,0,0,0-.8-.084c-.252,0-.372.06-.372.192,0,.06.048.1.156.12a2.323,2.323,0,0,1,1.236.636V39.14c0,.6.072.888.2.888.156,0,.264-.288.348-.864a22.211,22.211,0,0,0,.132-2.784V30.032C-49.164,29.888-49.128,29.456-49.128,29.3Zm-2.616,1.716c0-.144-.264-.24-.744-.24-.108,0-.312.108-.552.144-.672.072-1.692.108-3.036.108a6.078,6.078,0,0,1-1.1-.084c-.108-.012-.156.012-.156.108,0,.048.048.108.144.168a4.944,4.944,0,0,0,.888.408,1.532,1.532,0,0,0,.2.024.3.3,0,0,0,.18-.084,1.873,1.873,0,0,1,.6-.144c.624-.072,1.452-.12,2.5-.144a12.43,12.43,0,0,1-4.452,5.712.275.275,0,0,0-.132.18c0,.06.024.1.084.1a.232.232,0,0,0,.12-.036,12.485,12.485,0,0,0,5.172-5.784,1.092,1.092,0,0,1,.168-.216A.33.33,0,0,0-51.744,31.016Zm14.136-.9A.287.287,0,0,0-37.8,29.8a4.277,4.277,0,0,0-1.272-.252c-.228,0-.348.06-.348.168,0,.072.06.108.168.132a1.532,1.532,0,0,1,.96.528v7.884c0,.552.06.816.192.816.2,0,.348-.576.408-1.74.036-.708.048-1.26.048-1.644V34.28l1.512-.036v4.74c0,.7.06,1.032.192,1.032s.324-.516.384-1.236c.048-.684.072-1.4.072-2.148v-6.66a2.674,2.674,0,0,1,.036-.384,1.626,1.626,0,0,0,.024-.24.32.32,0,0,0-.216-.312,4.573,4.573,0,0,0-1.392-.276c-.252,0-.384.06-.384.192,0,.048.048.084.156.108a2.02,2.02,0,0,1,1.128.636V33.86l-1.512.048V30.752a2.354,2.354,0,0,1,.012-.372C-37.62,30.212-37.608,30.128-37.608,30.116Zm-6.2,5.148a1.7,1.7,0,0,0,.6,1.308,2.323,2.323,0,0,0,1.56.54,2.3,2.3,0,0,0,1.56-.54,1.675,1.675,0,0,0,.564-1.308,1.743,1.743,0,0,0-.564-1.332,2.2,2.2,0,0,0-1.188-.516.6.6,0,0,0,.168-.324c0-.1-.06-.168-.252-.216a1.168,1.168,0,0,0-.384-.084c-.12,0-.168.048-.168.108,0,.024.024.084.144.168.048.036.072.084.072.2a.2.2,0,0,1-.036.12,2.341,2.341,0,0,0-1.476.552A1.728,1.728,0,0,0-43.812,35.264Zm3.7-.048a1.429,1.429,0,0,1-1.524,1.4,1.511,1.511,0,0,1-1.1-.42,1.323,1.323,0,0,1-.444-.984,1.43,1.43,0,0,1,1.548-1.4A1.422,1.422,0,0,1-40.116,35.216Zm1.392-3.036c0-.132-.108-.252-.36-.3a3.741,3.741,0,0,0-.684-.072.789.789,0,0,0-.48.12,1.665,1.665,0,0,1-.732.168c-.8.048-1.6.072-2.34.072a9.857,9.857,0,0,1-1.284-.1c-.108-.012-.156.012-.156.072a.182.182,0,0,0,.084.168,3.322,3.322,0,0,0,.756.372,1.284,1.284,0,0,0,.276.06.487.487,0,0,0,.2-.06,1.958,1.958,0,0,1,.768-.156q1.224-.09,2.484-.108c.468,0,.816.012,1.044.024C-38.868,32.468-38.724,32.372-38.724,32.18Zm-1.644-1.272q0-.27-.4-.252a10.924,10.924,0,0,1-2.172-.156,1.342,1.342,0,0,0-.228-.036q-.144,0-.144.072a.351.351,0,0,0,.1.168,2.179,2.179,0,0,0,.564.456.9.9,0,0,0,.528.12c.108-.012.18-.024.2-.024.492-.024.888-.048,1.164-.06S-40.368,31.1-40.368,30.908Zm17.088-1.044q0-.126-.18-.18a1.987,1.987,0,0,0-.612-.084c-.192,0-.324.108-.576.12-1.908.1-3.18.132-3.8.12a8.6,8.6,0,0,1-1.44-.144c-.156-.024-.228.012-.228.108,0,.06.06.12.168.18a9.189,9.189,0,0,0,.936.4,1.284,1.284,0,0,0,.276.06.506.506,0,0,0,.216-.048,3.206,3.206,0,0,1,1.176-.24c1.008-.048,1.944-.072,2.772-.072a18.49,18.49,0,0,1-6.12,3.552c-.108.036-.156.072-.156.132s.036.108.1.108a.538.538,0,0,0,.132-.012,18.1,18.1,0,0,0,4.272-1.668l3.876,1.14a.969.969,0,0,0,.228.036c.168,0,.252-.06.252-.216,0-.108-.072-.2-.228-.288a3.96,3.96,0,0,0-1.08-.444,2.366,2.366,0,0,0-.672-.036,3.405,3.405,0,0,1-.54-.108l-1.38-.348a12.362,12.362,0,0,0,2.208-1.716.575.575,0,0,1,.132-.1C-23.376,30.02-23.28,29.936-23.28,29.864Zm2.16,5.148c0-.132-.084-.216-.276-.276a4.373,4.373,0,0,0-1.092-.144.77.77,0,0,0-.372.108,4.024,4.024,0,0,1-1.272.192c-1.812.072-3.66.108-5.508.108a10.035,10.035,0,0,1-1.8-.12c-.12-.024-.18-.012-.18.048a.29.29,0,0,0,.144.216,3.6,3.6,0,0,0,1.14.516.633.633,0,0,0,.216.036.377.377,0,0,0,.144-.048,3.171,3.171,0,0,1,1.128-.216c.576-.048,1.3-.084,2.148-.108v3.8c0,.6.06.9.192.9q.234,0,.36-.936a23.576,23.576,0,0,0,.132-2.736V35.3c.852-.012,1.836-.024,2.928-.024.528,0,1.008.024,1.4.06S-21.12,35.276-21.12,35.012Zm8.76-5.7A.29.29,0,0,0-12.588,29a4.979,4.979,0,0,0-1.512-.24c-.252,0-.372.06-.372.192,0,.06.06.1.168.12a2.283,2.283,0,0,1,1.224.636v5.148a24.394,24.394,0,0,1-2.676.732c-1.416.3-2.4.456-2.976.516-.18.012-.264-.1-.264-.3v-3.72c0-.036,0-.192.012-.468.012-.24-.048-.36-.18-.384a8.495,8.495,0,0,0-1.416-.108c-.168,0-.384.108-.384.2,0,.072.048.12.156.132.66.12,1.032.276,1.116.456l.024,3.72a1.337,1.337,0,0,0,.144.756.759.759,0,0,0,.468.36,3.042,3.042,0,0,0,.612-.036,24.378,24.378,0,0,0,2.712-.612,23.856,23.856,0,0,0,2.652-.972V39.14c0,.588.072.876.2.876.156,0,.264-.276.348-.852A22.211,22.211,0,0,0-12.4,36.38V30.032C-12.4,29.888-12.36,29.468-12.36,29.312Zm8.028,1.224c0-.132-.228-.228-.636-.228-.1,0-.312.108-.528.144a9.049,9.049,0,0,1-.936.048,3.876,3.876,0,0,1-.528,0,.127.127,0,0,0-.084-.072,1.488,1.488,0,0,0-.552-.1c-.156,0-.312.12-.552.132a10.251,10.251,0,0,1-1.1.048,8.044,8.044,0,0,1-1.02-.06c-.12-.024-.168,0-.168.084,0,.06.06.1.156.156a3.2,3.2,0,0,0,.684.336.933.933,0,0,0,.192.024.442.442,0,0,0,.192-.084,2.377,2.377,0,0,1,.48-.108,6.7,6.7,0,0,1,.8-.048A9.42,9.42,0,0,1-9.012,33.1,9.793,9.793,0,0,1-10.7,35.168a.285.285,0,0,0-.1.156c0,.072.024.108.084.108a.2.2,0,0,0,.12-.036,8.733,8.733,0,0,0,3.384-4.488c.024-.024.036-.06.06-.084A3.592,3.592,0,0,0-6.7,31a.666.666,0,0,0,.2.036,2.457,2.457,0,0,1,.624-.2c.12-.012.312-.024.6-.024a10.241,10.241,0,0,1-1.2,2.748,8.076,8.076,0,0,1-1.86,2.16.246.246,0,0,0-.1.168c0,.072.036.108.1.108a.194.194,0,0,0,.108-.036,8.118,8.118,0,0,0,3.7-5.076.784.784,0,0,1,.108-.156A.354.354,0,0,0-4.332,30.536ZM-2.364,29.3a.329.329,0,0,0-.252-.312A4.761,4.761,0,0,0-4.1,28.76c-.264,0-.384.06-.384.192,0,.06.048.1.156.108a2.512,2.512,0,0,1,1.224.636v6.372c0,.672.072,1,.228,1s.264-.324.36-.984a12.059,12.059,0,0,0,.1-1.584V33.62c.672-.012,1.272-.036,1.776-.048.324,0,.48-.108.48-.348a.271.271,0,0,0-.24-.276,2.394,2.394,0,0,0-1.128.012,2,2,0,0,0-.228.144,1.035,1.035,0,0,1-.66.192V30.032C-2.424,29.876-2.364,29.456-2.364,29.3Zm.984,9.648c0-.156-.084-.24-.264-.276a5.62,5.62,0,0,0-1.032-.048,1.1,1.1,0,0,0-.372.12,2.779,2.779,0,0,1-1.188.2c-.984.024-1.788.024-2.412.012-.252-.012-.36-.156-.36-.408V37.208A3.669,3.669,0,0,1-7,36.752c.036-.228-.012-.372-.18-.408a7.662,7.662,0,0,0-1.368-.1c-.18,0-.384.108-.384.2s.048.132.156.144c.648.132.936.252,1.08.432l.012,1.26c0,.768.288,1.044,1.248,1.032,1.26-.036,2.784-.048,4.608-.024C-1.524,39.3-1.38,39.176-1.38,38.948Zm-175.884,9.364A.3.3,0,0,0-177.5,48a4.962,4.962,0,0,0-1.5-.24c-.252,0-.372.06-.372.192,0,.06.048.1.156.12a2.323,2.323,0,0,1,1.236.636v3.66c-.636.072-1.14.084-1.512.1s-.936-.012-1.092-.024c-.132-.012-.2.012-.2.072a.19.19,0,0,0,.12.18,3.931,3.931,0,0,0,.828.432.45.45,0,0,0,.12.012.423.423,0,0,0,.168-.036,1.66,1.66,0,0,1,.444-.18,8.164,8.164,0,0,1,1.128-.132V58.14c0,.588.06.876.2.876s.264-.276.336-.852a22.483,22.483,0,0,0,.132-2.784V49.032C-177.312,48.888-177.264,48.468-177.264,48.312Zm-3.072,1.728c0-.084-.06-.144-.192-.18a1.525,1.525,0,0,0-.5-.108c-.156,0-.492.132-.648.144a21.473,21.473,0,0,1-2.532.1c-.5-.024-.888-.06-1.272-.108-.084-.012-.132.012-.132.072a.2.2,0,0,0,.12.18,3.594,3.594,0,0,0,.96.42.37.37,0,0,0,.12.012.356.356,0,0,0,.132-.048,2.223,2.223,0,0,1,.924-.192c.672-.036,1.368-.084,1.92-.072a14.171,14.171,0,0,1-4.524,5.6q-.108.09-.108.144c0,.084.024.12.072.12a.3.3,0,0,0,.156-.036,12.844,12.844,0,0,0,3.192-2.556c.12-.132.228-.264.336-.4l1.9,2.46a.477.477,0,0,0,.264.2.185.185,0,0,0,.228-.18,2.052,2.052,0,0,0-.54-1.332,1.028,1.028,0,0,0-.384-.252,1.244,1.244,0,0,1-.516-.408l-.684-.816a10.2,10.2,0,0,0,1.356-2.376C-180.636,50.292-180.336,50.172-180.336,50.04Zm10.884,1.692a2.039,2.039,0,0,0-.708-1.632,2.581,2.581,0,0,0-1.332-.576.789.789,0,0,0,.192-.36.277.277,0,0,0-.144-.24,1.662,1.662,0,0,0-.744-.168c-.132,0-.216.048-.216.108s.024.084.1.12c.156.084.24.18.24.276a.28.28,0,0,1-.12.24,2.538,2.538,0,0,0-1.548.612,2.006,2.006,0,0,0-.768,1.62,2.054,2.054,0,0,0,.72,1.62,2.683,2.683,0,0,0,1.812.624,2.715,2.715,0,0,0,1.812-.612A2.108,2.108,0,0,0-169.452,51.732Zm2.568-3.42a.3.3,0,0,0-.24-.312,4.962,4.962,0,0,0-1.5-.24c-.252,0-.372.06-.372.192,0,.06.048.1.156.12a2.323,2.323,0,0,1,1.236.636v6.156c-.7.132-1.8.288-3.276.48-1,.132-2.088.228-3.3.288a6.4,6.4,0,0,1-1.428-.1c-.132-.024-.2,0-.2.084a.257.257,0,0,0,.144.216,4.343,4.343,0,0,0,1.2.54c.1.012.168.024.2.024a.63.63,0,0,0,.276-.084,1.442,1.442,0,0,1,.42-.144c.888-.108,1.848-.228,2.844-.384a30.216,30.216,0,0,0,3.12-.624V58.14c0,.588.06.876.2.876s.264-.276.336-.852a22.483,22.483,0,0,0,.132-2.784V49.032C-166.932,48.888-166.884,48.468-166.884,48.312Zm-5.076,1.728a1.815,1.815,0,0,1,1.308.48,1.625,1.625,0,0,1,.516,1.212,1.583,1.583,0,0,1-.528,1.224,1.746,1.746,0,0,1-1.3.492,1.784,1.784,0,0,1-1.284-.5,1.606,1.606,0,0,1-.516-1.212,1.659,1.659,0,0,1,.5-1.212A1.805,1.805,0,0,1-171.96,50.04Zm17.508,4.884c0-.072-.06-.132-.168-.156a1.98,1.98,0,0,0-.588-.1,1.232,1.232,0,0,0-.24.072,1.721,1.721,0,0,1-.264.048c-1.032.06-2.5.108-3.576.108a1.523,1.523,0,0,0-.444-.132,6.624,6.624,0,0,0-.972-.072c-.2,0-.312.048-.312.144,0,.072.072.108.18.132a1.566,1.566,0,0,1,.8.4l.264,2.9c.048.36.108.528.216.528.18,0,.3-.18.336-.552q1.08-.036,4.212-.036c.324,0,.48-.06.48-.2s-.18-.228-.552-.288c.12-.612.24-1.392.348-2.352C-154.716,55.152-154.452,55.032-154.452,54.924Zm-1.008.24-.06,2.52a.32.32,0,0,1-.24.156,32.083,32.083,0,0,1-3.456.084l-.06-2.376a1.317,1.317,0,0,1,.012-.324C-157.908,55.176-156.708,55.164-155.46,55.164Zm3.24-2.4c0-.12-.1-.2-.288-.264a3.184,3.184,0,0,0-1.02-.156.851.851,0,0,0-.384.108,3.517,3.517,0,0,1-1.14.2c.264-.792.456-1.428.588-1.908a11.194,11.194,0,0,0,.3-1.56c.168-.132.252-.24.252-.312s-.06-.144-.168-.168a2.826,2.826,0,0,0-.612-.072.71.71,0,0,0-.312.1.643.643,0,0,1-.324.072c-1.392.084-2.748.132-4.044.132a10.048,10.048,0,0,1-1.548-.12c-.144-.024-.216,0-.216.084,0,.06.048.132.156.2a4.2,4.2,0,0,0,.96.432,1.215,1.215,0,0,0,.264.048.442.442,0,0,0,.2-.06,2.877,2.877,0,0,1,1.188-.252c1.3-.072,2.412-.12,3.36-.108q-.018.846-.108,1.584c-.12.924-.2,1.56-.276,1.92-1.7.072-3.5.1-5.352.1a10.946,10.946,0,0,1-1.8-.132c-.12-.024-.18,0-.18.06s.048.132.144.2a3.617,3.617,0,0,0,1.152.528.81.81,0,0,0,.2.036.435.435,0,0,0,.156-.06,3.744,3.744,0,0,1,1.128-.216c1.272-.108,3.192-.168,5.76-.168a11.942,11.942,0,0,1,1.44.084.616.616,0,0,0,.444-.1A.338.338,0,0,0-152.22,52.764Zm7.2.96v-.276h1.212c.516,0,.984.024,1.4.06.384.036.564-.06.564-.312,0-.132-.084-.228-.276-.276a3.941,3.941,0,0,0-1.092-.144.9.9,0,0,0-.372.1,3.951,3.951,0,0,1-1.272.2c-1.524.06-3.372.1-5.508.1a12.842,12.842,0,0,1-1.8-.132c-.12-.024-.18,0-.18.06a.256.256,0,0,0,.144.2,4.293,4.293,0,0,0,1.14.528.807.807,0,0,0,.216.036.509.509,0,0,0,.144-.06,6.1,6.1,0,0,1,1.716-.252v1.452a1.778,1.778,0,0,0,.048.492.166.166,0,0,0-.048.036,1.677,1.677,0,0,0-.72,1.4c0,1.164,1,1.956,2.556,1.956a2.847,2.847,0,0,0,1.884-.564,1.653,1.653,0,0,0,.684-1.392,1.708,1.708,0,0,0-.72-1.4,2.2,2.2,0,0,0,.2-.732A8.886,8.886,0,0,0-145.02,53.724Zm-1.488-5.616a.187.187,0,0,0-.132-.156,1.15,1.15,0,0,0-.468-.108c-.156,0-.24.024-.252.06a.076.076,0,0,0,.048.1c.12.072.18.144.18.24a.249.249,0,0,1-.06.144,2.805,2.805,0,0,0-1.812.588,1.761,1.761,0,0,0-.708,1.44,1.834,1.834,0,0,0,.72,1.464,2.952,2.952,0,0,0,1.872.576,2.9,2.9,0,0,0,1.848-.576,1.78,1.78,0,0,0,.732-1.464,1.773,1.773,0,0,0-.72-1.44,2.5,2.5,0,0,0-1.38-.552A.749.749,0,0,0-146.508,48.108Zm-.588.72a2.007,2.007,0,0,1,1.356.444,1.443,1.443,0,0,1,.54,1.14,1.451,1.451,0,0,1-.528,1.14A1.98,1.98,0,0,1-147.1,52a2.064,2.064,0,0,1-1.392-.444,1.451,1.451,0,0,1-.528-1.14,1.443,1.443,0,0,1,.54-1.14A2.117,2.117,0,0,1-147.1,48.828Zm1.872,8.088c0,.912-.744,1.524-1.908,1.524-1.14,0-1.908-.6-1.908-1.524a1.336,1.336,0,0,1,.54-1.092,2.151,2.151,0,0,1,1.368-.444C-145.968,55.38-145.224,56.028-145.224,56.916Zm-1.428-2.22c0-.06-.048-.1-.132-.132a1.189,1.189,0,0,0-.456-.108c-.168,0-.252.036-.252.1,0,.036.024.06.072.084.1.048.144.1.144.156a.216.216,0,0,1-.108.192,3.241,3.241,0,0,0-1.056.228,2.239,2.239,0,0,0,.06-.324,9.381,9.381,0,0,0,.072-1.176V53.52c.708-.024,1.584-.048,2.616-.06v1.452a3.379,3.379,0,0,0,.012.372,2.947,2.947,0,0,0-1.128-.3A.493.493,0,0,0-146.652,54.7ZM-132.984,50c0-.084-.06-.144-.192-.18a1.465,1.465,0,0,0-.492-.108c-.156,0-.48.132-.636.144a25,25,0,0,1-2.724.084,11.3,11.3,0,0,1-1.272-.1c-.084-.012-.132.012-.132.072a.2.2,0,0,0,.12.18,3.527,3.527,0,0,0,.96.4.37.37,0,0,0,.12.012.223.223,0,0,0,.132-.048,2.043,2.043,0,0,1,.924-.192c.7-.036,1.4-.06,2.1-.048a14.526,14.526,0,0,1-4.62,5.64c-.084.06-.12.108-.12.144,0,.084.024.12.084.12a.332.332,0,0,0,.156-.036,13.585,13.585,0,0,0,3.648-3.048l2.1,2.328a.435.435,0,0,0,.288.18c.156,0,.228-.072.228-.216a2.168,2.168,0,0,0-.684-1.3,1.115,1.115,0,0,0-.4-.2,1.4,1.4,0,0,1-.528-.348l-.756-.78a10.454,10.454,0,0,0,1.356-2.316.825.825,0,0,1,.216-.2C-133.032,50.112-132.984,50.052-132.984,50Zm2.724-1.692a.29.29,0,0,0-.228-.312A4.98,4.98,0,0,0-132,47.76c-.252,0-.372.06-.372.192,0,.06.06.1.168.12a2.283,2.283,0,0,1,1.224.636V58.14c0,.588.072.876.2.876.156,0,.264-.276.348-.852a22.484,22.484,0,0,0,.132-2.784V49.032C-130.3,48.888-130.26,48.468-130.26,48.312Zm6.168,1.26a.394.394,0,0,0-.192-.312,4.242,4.242,0,0,0-1.188-.444.952.952,0,0,0-.2-.024q-.252,0-.252.108a.187.187,0,0,0,.132.156,1.356,1.356,0,0,1,.78.768,10.784,10.784,0,0,1-3.012,4.26c-.156.132-.24.228-.24.264,0,.06.024.084.1.084a.512.512,0,0,0,.252-.1,9.377,9.377,0,0,0,2.868-2.8l2.352,2.136a.438.438,0,0,0,.288.144c.132,0,.192-.072.192-.24a.394.394,0,0,0-.048-.2,2.321,2.321,0,0,0-.756-1.032,1.851,1.851,0,0,0-.456-.192,3.679,3.679,0,0,1-.672-.468l-.672-.516a9.976,9.976,0,0,0,.66-1.344A.681.681,0,0,0-124.092,49.572Zm4.248,5.484c0-.144-.336-.252-.6-.252-.132,0-.456.12-.612.12-1.284.084-2.94.156-3.78.168a9.891,9.891,0,0,1-1.572-.108c-.144-.012-.216.012-.216.1,0,.06.06.132.168.192a5.087,5.087,0,0,0,.972.432,1.979,1.979,0,0,0,.276.06.442.442,0,0,0,.2-.06,3.276,3.276,0,0,1,1.2-.276c1.128-.072,2.52-.12,3.12-.12v2.556c0,.732.072,1.092.228,1.092s.276-.3.372-.924a8.075,8.075,0,0,0,.072-.864l.024-1.812A.845.845,0,0,0-119.844,55.056ZM-120.1,48a4.979,4.979,0,0,0-1.512-.24c-.24,0-.36.06-.36.192,0,.06.048.1.156.12a2.323,2.323,0,0,1,1.236.636v5.04c0,.516.084.768.24.768s.288-.252.36-.78A10.592,10.592,0,0,0-119.9,52.4V49.032c0-.048.012-.18.024-.444a.881.881,0,0,1,.024-.288A.32.32,0,0,0-120.1,48Zm7.68,4.752A2.235,2.235,0,0,0-113.16,51a2.58,2.58,0,0,0-1.38-.636.911.911,0,0,0,.18-.348.272.272,0,0,0-.132-.228,1.255,1.255,0,0,0-.684-.192c-.132,0-.192.036-.192.1s.024.084.084.12a.373.373,0,0,1,.216.312.358.358,0,0,1-.1.2,2.72,2.72,0,0,0-1.74.648,2.249,2.249,0,0,0-.768,1.776,2.262,2.262,0,0,0,.756,1.752,2.716,2.716,0,0,0,1.86.66,2.777,2.777,0,0,0,1.872-.672A2.226,2.226,0,0,0-112.416,52.752Zm-.7-.024a1.757,1.757,0,0,1-.552,1.332,1.845,1.845,0,0,1-1.368.528,1.882,1.882,0,0,1-1.368-.528,1.757,1.757,0,0,1-.552-1.332,1.713,1.713,0,0,1,.552-1.32,1.892,1.892,0,0,1,1.368-.54,1.826,1.826,0,0,1,1.368.528A1.7,1.7,0,0,1-113.112,52.728Zm3.612-4.416a.29.29,0,0,0-.228-.312,4.979,4.979,0,0,0-1.512-.24c-.252,0-.372.06-.372.192,0,.06.06.1.168.12a2.283,2.283,0,0,1,1.224.636V58.14c0,.588.072.876.2.876.156,0,.264-.276.348-.852a22.484,22.484,0,0,0,.132-2.784V49.032C-109.536,48.888-109.5,48.468-109.5,48.312Zm12.576,6.96c0-.072-.072-.12-.216-.156a3.048,3.048,0,0,0-.444-.06c-.144,0-.48.1-.612.1-.552.036-1.068.06-1.524.072a3.119,3.119,0,0,0,.132-.552,9.358,9.358,0,0,0,.06-1.068v-.06c.84-.012,1.8-.024,2.88-.024.528,0,1.008.024,1.4.06s.564-.06.564-.3c0-.132-.084-.228-.276-.288a4.392,4.392,0,0,0-1.092-.132.876.876,0,0,0-.372.084,3.584,3.584,0,0,1-1.272.216c-1.812.072-3.66.108-5.508.108a11.161,11.161,0,0,1-1.8-.132c-.12-.012-.18,0-.18.06a.256.256,0,0,0,.144.2,3.245,3.245,0,0,0,1.14.528,1.264,1.264,0,0,0,.216.036.377.377,0,0,0,.144-.048,3.4,3.4,0,0,1,1.128-.228c.588-.048,1.32-.1,2.2-.12v1.176a3.068,3.068,0,0,0,.024.5c-.636.024-1.176.024-1.608.024a9.464,9.464,0,0,1-1.548-.108c-.156-.012-.228.012-.228.1,0,.06.06.132.18.192a3.729,3.729,0,0,0,.96.408,1.284,1.284,0,0,0,.276.06.56.56,0,0,0,.192-.06,2.964,2.964,0,0,1,1.176-.252c.72-.036,1.716-.06,2.964-.06v2.4c0,.66.06,1,.18,1,.168,0,.288-.312.384-.96.036-.348.048-.624.06-.84l.1-1.572A.482.482,0,0,0-96.924,55.272Zm-.432-6.54a.3.3,0,0,0-.156-.264,5.5,5.5,0,0,0-.984-.42,1.24,1.24,0,0,0-.264-.036q-.288,0-.288.108c0,.048.06.108.168.18.444.264.66.48.684.624a7.441,7.441,0,0,1-1.524,1.908c-.1.084-.18.168-.264.252a1.666,1.666,0,0,0-.12-.276,1.692,1.692,0,0,0-.252-.372c-.144-.156-.5-.168-.744-.348l-.192-.156a9.467,9.467,0,0,0,.684-.84.418.418,0,0,0,.072-.252.319.319,0,0,0-.168-.276,4.7,4.7,0,0,0-.972-.372.935.935,0,0,0-.252-.048c-.192,0-.3.048-.3.12,0,.036.072.1.18.156.42.252.636.468.672.588a6.089,6.089,0,0,1-1.272,1.428,8.742,8.742,0,0,1-1.752,1.236c-.108.06-.168.108-.168.18s.024.108.084.108a.5.5,0,0,0,.2-.048,8.753,8.753,0,0,0,2.688-1.68l1.152.936a.613.613,0,0,0,.192.144,9.6,9.6,0,0,1-1.572,1.068c-.12.072-.18.12-.18.18s.036.108.1.108a.647.647,0,0,0,.192-.06,10.6,10.6,0,0,0,2.46-1.488,9.812,9.812,0,0,0,.732-.66l2.424,1.4a.667.667,0,0,0,.312.1c.132,0,.2-.084.2-.252,0-.084-.108-.228-.312-.432a4.406,4.406,0,0,0-.444-.384,2.288,2.288,0,0,0-.576-.156,3.064,3.064,0,0,1-.744-.276l-.576-.312a6.446,6.446,0,0,0,.8-1.152A.484.484,0,0,0-97.356,48.732Zm10.812,6.54c0-.072-.072-.12-.216-.156a3.048,3.048,0,0,0-.444-.06c-.144,0-.48.1-.612.1-.552.036-1.068.06-1.524.072a3.119,3.119,0,0,0,.132-.552,9.359,9.359,0,0,0,.06-1.068v-.06c.84-.012,1.8-.024,2.88-.024.528,0,1.008.024,1.4.06s.564-.06.564-.3c0-.132-.084-.228-.276-.288a4.392,4.392,0,0,0-1.092-.132.876.876,0,0,0-.372.084,3.584,3.584,0,0,1-1.272.216c-1.812.072-3.66.108-5.508.108a11.161,11.161,0,0,1-1.8-.132c-.12-.012-.18,0-.18.06a.256.256,0,0,0,.144.2,3.245,3.245,0,0,0,1.14.528,1.264,1.264,0,0,0,.216.036.377.377,0,0,0,.144-.048,3.4,3.4,0,0,1,1.128-.228c.588-.048,1.32-.1,2.2-.12v1.176a3.068,3.068,0,0,0,.024.5c-.636.024-1.176.024-1.608.024a9.464,9.464,0,0,1-1.548-.108c-.156-.012-.228.012-.228.1,0,.06.06.132.18.192a3.729,3.729,0,0,0,.96.408,1.284,1.284,0,0,0,.276.06.56.56,0,0,0,.192-.06,2.964,2.964,0,0,1,1.176-.252c.72-.036,1.716-.06,2.964-.06v2.4c0,.66.06,1,.18,1,.168,0,.288-.312.384-.96.036-.348.048-.624.06-.84l.1-1.572A.482.482,0,0,0-86.544,55.272Zm-.432-6.54a.3.3,0,0,0-.156-.264,5.5,5.5,0,0,0-.984-.42,1.24,1.24,0,0,0-.264-.036q-.288,0-.288.108c0,.048.06.108.168.18.444.264.66.48.684.624a7.441,7.441,0,0,1-1.524,1.908c-.1.084-.18.168-.264.252a1.666,1.666,0,0,0-.12-.276,1.692,1.692,0,0,0-.252-.372c-.144-.156-.5-.168-.744-.348l-.192-.156a9.468,9.468,0,0,0,.684-.84.418.418,0,0,0,.072-.252.319.319,0,0,0-.168-.276,4.7,4.7,0,0,0-.972-.372.935.935,0,0,0-.252-.048c-.192,0-.3.048-.3.12,0,.036.072.1.18.156.42.252.636.468.672.588a6.089,6.089,0,0,1-1.272,1.428,8.742,8.742,0,0,1-1.752,1.236c-.108.06-.168.108-.168.18s.024.108.084.108a.5.5,0,0,0,.2-.048,8.753,8.753,0,0,0,2.688-1.68l1.152.936a.613.613,0,0,0,.192.144A9.6,9.6,0,0,1-91.44,52.38c-.12.072-.18.12-.18.18s.036.108.1.108a.647.647,0,0,0,.192-.06,10.6,10.6,0,0,0,2.46-1.488,9.812,9.812,0,0,0,.732-.66l2.424,1.4a.667.667,0,0,0,.312.1c.132,0,.2-.084.2-.252,0-.084-.108-.228-.312-.432a4.406,4.406,0,0,0-.444-.384,2.288,2.288,0,0,0-.576-.156,3.065,3.065,0,0,1-.744-.276l-.576-.312a6.447,6.447,0,0,0,.8-1.152A.484.484,0,0,0-86.976,48.732Zm11.628,1.116c0-.132-.276-.228-.72-.228a.782.782,0,0,0-.24.072,1,1,0,0,1-.3.072,24.462,24.462,0,0,1-2.64.12,7.344,7.344,0,0,1-1.092-.072c-.108-.012-.168.012-.168.084s.06.12.156.18a3.251,3.251,0,0,0,.888.4.6.6,0,0,0,.192.036.348.348,0,0,0,.192-.072,1.721,1.721,0,0,1,.6-.156c.384-.036,1.092-.084,2.088-.132a9.588,9.588,0,0,1-.684,1.8c-.636.108-1.44.2-2.436.288a9.041,9.041,0,0,1-1.392.012c-.18-.012-.264,0-.264.06a.219.219,0,0,0,.06.132,2.766,2.766,0,0,0,1,.456,1.057,1.057,0,0,0,.2.024.338.338,0,0,0,.252-.084,1.6,1.6,0,0,1,.624-.168c.624-.1,1.212-.216,1.764-.348a12.686,12.686,0,0,1-3.5,3.972c-.108.084-.156.132-.156.144,0,.084.036.132.108.132a.291.291,0,0,0,.156-.048,10.385,10.385,0,0,0,3.456-2.94A8.971,8.971,0,0,0-75.636,50.3a.959.959,0,0,1,.168-.228A.308.308,0,0,0-75.348,49.848Zm2.784-1.548a.285.285,0,0,0-.228-.3,5.083,5.083,0,0,0-1.5-.24c-.264,0-.384.06-.384.192,0,.06.06.1.168.12a2.323,2.323,0,0,1,1.236.636v3.8a13.349,13.349,0,0,1-1.692.108A6.308,6.308,0,0,1-76,52.572c-.132-.024-.216-.012-.216.048s.048.108.132.168a3.134,3.134,0,0,0,.828.408.689.689,0,0,0,.144.012.542.542,0,0,0,.156-.036,2.063,2.063,0,0,1,.468-.132,6.544,6.544,0,0,1,1.212-.12v5.22c0,.6.06.888.2.888s.252-.288.336-.864A21.942,21.942,0,0,0-72.6,55.38V49.032C-72.6,48.888-72.564,48.48-72.564,48.3ZM-60,48.312A.3.3,0,0,0-60.24,48a4.81,4.81,0,0,0-1.476-.24c-.264,0-.384.06-.384.192,0,.06.06.1.168.12a2.288,2.288,0,0,1,1.212.636V58.14c0,.588.06.876.2.876s.264-.276.348-.852a22.484,22.484,0,0,0,.132-2.784V53.22c.672-.012,1.284-.036,1.848-.048.324,0,.48-.108.48-.348a.289.289,0,0,0-.24-.276,2.117,2.117,0,0,0-1.128.012,1.148,1.148,0,0,0-.228.132,1.1,1.1,0,0,1-.732.2V49.032C-60.036,48.888-60,48.468-60,48.312Zm-2.616,1.7c0-.144-.276-.24-.72-.24-.1,0-.312.108-.552.144a27.807,27.807,0,0,1-2.928.144,7.46,7.46,0,0,1-1.092-.072c-.108-.024-.156.012-.156.1,0,.048.048.108.144.168a4.945,4.945,0,0,0,.888.408,1.2,1.2,0,0,0,.192.024.35.35,0,0,0,.18-.072,1.619,1.619,0,0,1,.6-.156c.5-.06,1.32-.12,2.4-.156a12.238,12.238,0,0,1-4.512,5.712c-.1.1-.144.144-.144.168,0,.084.036.12.1.12A.456.456,0,0,0-68,56.232a11.184,11.184,0,0,0,5.112-5.784,1.531,1.531,0,0,1,.144-.216A.36.36,0,0,0-62.616,50.016Zm13.4,1.62a.271.271,0,0,0-.288-.288,8.309,8.309,0,0,0-1.068-.024.673.673,0,0,0-.36.12,2.443,2.443,0,0,1-1,.2c-.66.024-1.56.036-2.664.036-.24,0-.36-.132-.36-.384V49.692a3.9,3.9,0,0,1,.024-.492c.024-.2-.036-.324-.2-.36a6.573,6.573,0,0,0-1.3-.108c-.156,0-.372.132-.372.228a.072.072,0,0,0,.012.048,2.013,2.013,0,0,0,.54.168.911.911,0,0,1,.6.336v1.512c0,.768.324,1.056,1.272,1.056,1.14,0,2.724-.036,4.7-.1C-49.38,51.972-49.212,51.876-49.212,51.636Zm1.692,1.92c0-.132-.084-.228-.276-.276a4.392,4.392,0,0,0-1.092-.132.876.876,0,0,0-.372.084,3.951,3.951,0,0,1-1.272.2c-1.8.072-3.648.108-5.508.108a11.161,11.161,0,0,1-1.8-.132c-.12-.012-.18,0-.18.06a.29.29,0,0,0,.144.216,3.753,3.753,0,0,0,1.14.516,1.8,1.8,0,0,0,.216.036.51.51,0,0,0,.144-.06,3.549,3.549,0,0,1,1.128-.2c1.392-.108,3.336-.168,5.76-.168.528,0,1.008.024,1.4.06S-47.52,53.808-47.52,53.556ZM-49.3,57.84c0-.132-.084-.2-.276-.24a5.009,5.009,0,0,0-1.02-.048.709.709,0,0,0-.372.12,2.952,2.952,0,0,1-1.188.192c-.768.024-1.524.024-2.232.012-.252-.012-.372-.144-.372-.408v-1.26a3.473,3.473,0,0,1,.024-.492c.036-.2-.024-.336-.18-.372a7.778,7.778,0,0,0-1.392-.1c-.156,0-.372.108-.372.2a.178.178,0,0,0,.012.084,2.22,2.22,0,0,0,.576.168c.36.084.588.18.648.312l.012,1.2c0,.744.264,1.008,1.236,1.008,1.14-.024,2.616-.036,4.44-.036C-49.44,58.188-49.3,58.068-49.3,57.84Zm13.5-9.528A.29.29,0,0,0-36.024,48a4.962,4.962,0,0,0-1.5-.24c-.252,0-.372.06-.372.192,0,.06.048.1.156.12a2.37,2.37,0,0,1,1.236.636v2.868a16.188,16.188,0,0,1-1.74.1,8.191,8.191,0,0,1-1.056-.06q-.216-.036-.216.072c0,.048.036.084.132.156a2.568,2.568,0,0,0,.876.36,1,1,0,0,0,.12.024.47.47,0,0,0,.156-.036,1.452,1.452,0,0,1,.468-.132c.42-.048.84-.084,1.26-.1V54.6c0,.456.084.684.264.684s.288-.264.348-.78a10.507,10.507,0,0,0,.06-1.188V49.032C-35.832,48.876-35.8,48.468-35.8,48.312Zm-2.2,6.4a.3.3,0,0,0-.192-.288,4.333,4.333,0,0,0-1.152-.408,2.115,2.115,0,0,0-.228-.024c-.156,0-.24.036-.24.12,0,.048.048.1.144.156.5.24.66.408.756.648a9.232,9.232,0,0,1-1.632,1.956,10.684,10.684,0,0,1-2.016,1.56c-.12.072-.18.144-.18.2s.024.1.072.1a.59.59,0,0,0,.216-.048,11.41,11.41,0,0,0,2.364-1.488,9.516,9.516,0,0,0,1.4-1.368l3.12,2.616a.351.351,0,0,0,.264.132c.12,0,.192-.084.2-.24a.335.335,0,0,0-.072-.216,3.86,3.86,0,0,0-.96-1.092,1.115,1.115,0,0,0-.432-.2,3.132,3.132,0,0,1-.864-.54l-.984-.8c.12-.168.228-.336.336-.5A.547.547,0,0,0-37.992,54.708Zm-.66-5.256c0-.1-.06-.144-.192-.18a2.284,2.284,0,0,0-.528-.06.463.463,0,0,0-.24.072c-.132.036-.24.06-.312.072a23.111,23.111,0,0,1-2.676.072,6.573,6.573,0,0,1-1.1-.084c-.108-.024-.156.012-.156.108,0,.06.048.108.144.156a5.075,5.075,0,0,0,.888.408.726.726,0,0,0,.18.024.367.367,0,0,0,.18-.084,1.451,1.451,0,0,1,.612-.132c.72-.048,1.428-.084,2.148-.108a10.6,10.6,0,0,1-1.98,2.952,16.479,16.479,0,0,1-2.484,2.22c-.084.06-.144.12-.144.156a.1.1,0,0,0,.108.108.35.35,0,0,0,.108-.024,11.632,11.632,0,0,0,5.16-5.244,1.354,1.354,0,0,1,.156-.228A.311.311,0,0,0-38.652,49.452ZM-22.812,58c0-.156-.084-.24-.264-.276a3.769,3.769,0,0,0-1.032-.036.96.96,0,0,0-.372.12A3.445,3.445,0,0,1-25.632,58c-.66.024-1.308.024-1.956.012-.228-.012-.348-.156-.348-.42v-1.02c2.1-.048,3.528-.072,4.32-.084.276,0,.408-.108.408-.312,0-.168-.108-.264-.324-.3a3.642,3.642,0,0,0-.948-.024,2.469,2.469,0,0,0-.384.144,3.472,3.472,0,0,1-.828.156c-.576.048-1.332.06-2.244.048v-.828c0-.132.012-.264.024-.384,1.488-.06,3-.084,4.464-.084.264,0,.408-.12.408-.336,0-.144-.1-.24-.312-.264a5.123,5.123,0,0,0-1.056,0,1.425,1.425,0,0,0-.4.132,2.441,2.441,0,0,1-.852.132c-.636.036-1.368.036-2.172.024a2.275,2.275,0,0,0-.348-.1,8.267,8.267,0,0,0-1.152-.1c-.144,0-.384.108-.384.2,0,.06.048.108.144.12a1.606,1.606,0,0,1,.936.42v2.2c0,.72.312,1.032,1.272,1.02,1.092-.024,2.472-.036,4.092-.024C-22.956,58.332-22.812,58.224-22.812,58Zm-3.012-8.7c0-.108-.252-.228-.744-.228a1.246,1.246,0,0,0-.228.072,1.465,1.465,0,0,1-.312.072c-.8.072-1.716.1-2.7.084a7.35,7.35,0,0,1-1.08-.072c-.108-.012-.156.012-.156.1,0,.06.048.108.132.168a3.089,3.089,0,0,0,.876.4.56.56,0,0,0,.2.036.447.447,0,0,0,.18-.072,1.2,1.2,0,0,1,.612-.144c1.08-.084,1.788-.12,2.148-.132a9.476,9.476,0,0,1-2.04,2.772A14.348,14.348,0,0,1-31.416,54.4c-.084.06-.132.12-.132.156a.088.088,0,0,0,.1.1.355.355,0,0,0,.12-.024,13.906,13.906,0,0,0,2.952-1.968,9,9,0,0,0,2.268-2.916c.084-.132.132-.216.144-.228A.311.311,0,0,0-25.824,49.3Zm2.6-1a.307.307,0,0,0-.228-.312,4.927,4.927,0,0,0-1.488-.228c-.252,0-.372.06-.372.192,0,.048.048.084.156.108a2.512,2.512,0,0,1,1.224.636v4.44c0,.492.084.756.252.756s.264-.264.348-.78c.036-.336.06-.732.072-1.2.708-.012,1.32-.036,1.848-.048.324,0,.48-.12.48-.336a.271.271,0,0,0-.24-.276,2.119,2.119,0,0,0-1.128.012,2,2,0,0,0-.228.144,1.117,1.117,0,0,1-.732.18V49.032C-23.256,48.876-23.22,48.48-23.22,48.3Zm7.632,4.452A2.275,2.275,0,0,0-16.332,51a2.58,2.58,0,0,0-1.38-.636.834.834,0,0,0,.192-.348.26.26,0,0,0-.144-.228,1.248,1.248,0,0,0-.7-.2c-.132,0-.192.048-.192.108s.024.084.084.12c.156.1.24.2.24.312a.378.378,0,0,1-.108.2,2.646,2.646,0,0,0-1.74.648,2.288,2.288,0,0,0-.768,1.776,2.3,2.3,0,0,0,.756,1.752,2.684,2.684,0,0,0,1.872.66,2.746,2.746,0,0,0,1.86-.672A2.266,2.266,0,0,0-15.588,52.752Zm-.7-.024a1.8,1.8,0,0,1-.552,1.332,1.817,1.817,0,0,1-1.356.528,1.939,1.939,0,0,1-1.392-.528,1.8,1.8,0,0,1-.552-1.332,1.755,1.755,0,0,1,.552-1.32,1.949,1.949,0,0,1,1.392-.54,1.817,1.817,0,0,1,1.356.528A1.745,1.745,0,0,1-16.284,52.728Zm3.444-4.416A.29.29,0,0,0-13.068,48a4.945,4.945,0,0,0-1.488-.24c-.264,0-.384.06-.384.192,0,.06.06.1.168.12a2.283,2.283,0,0,1,1.224.636V58.14c0,.588.06.876.2.876s.252-.276.336-.852a22.484,22.484,0,0,0,.132-2.784v-2.2c.672-.012,1.3-.036,1.86-.048.312,0,.468-.12.468-.348a.277.277,0,0,0-.228-.276,1.943,1.943,0,0,0-1.14.012,2,2,0,0,0-.228.144,1.06,1.06,0,0,1-.732.192V49.032C-12.876,48.888-12.84,48.468-12.84,48.312Zm9.9,3.312A2.1,2.1,0,0,0-3.792,49.9a3,3,0,0,0-1.416-.588,1.056,1.056,0,0,0,.2-.384c0-.084-.048-.144-.144-.216a1.228,1.228,0,0,0-.672-.2c-.132,0-.192.036-.192.1s.024.084.084.12a.4.4,0,0,1,.216.324.341.341,0,0,1-.108.228,3.217,3.217,0,0,0-1.836.624,2.143,2.143,0,0,0-.876,1.728,2.142,2.142,0,0,0,.852,1.74,3.021,3.021,0,0,0,1.944.624,3,3,0,0,0,1.944-.624A2.11,2.11,0,0,0-2.94,51.624Zm-.672.048a1.729,1.729,0,0,1-.54,1.284,2.176,2.176,0,0,1-1.56.552,2.1,2.1,0,0,1-1.5-.528A1.675,1.675,0,0,1-7.8,51.672a1.9,1.9,0,0,1,2.088-1.86,2.262,2.262,0,0,1,1.548.552A1.786,1.786,0,0,1-3.612,51.672ZM-6.78,54.66c.012-.108-.036-.144-.168-.18a5.354,5.354,0,0,0-1.212-.192c-.228,0-.36.048-.36.156,0,.048.06.1.168.132.48.12.768.288.852.492l.144,1.74H-8.88a9.848,9.848,0,0,1-1.8-.144q-.18-.036-.18.072c0,.06.048.132.144.2a3.433,3.433,0,0,0,1.14.516.929.929,0,0,0,.216.024.3.3,0,0,0,.144-.036,3.74,3.74,0,0,1,1.128-.228c1.26-.108,3.18-.156,5.76-.156.552,0,1.008.024,1.4.06s.564-.06.564-.312c0-.144-.084-.228-.276-.276a3.88,3.88,0,0,0-1.092-.144.9.9,0,0,0-.372.1,4.237,4.237,0,0,1-1.272.216,2.312,2.312,0,0,1-.288.012l.372-1.788c.036-.18.06-.312.072-.408.024-.072-.036-.144-.168-.192a5.014,5.014,0,0,0-1.1-.264c-.228-.036-.36,0-.372.108-.012.072.048.144.156.18a1.066,1.066,0,0,1,.732.528l-.216,1.86c-.852.024-1.728.048-2.592.06l-.036-1.728A2.343,2.343,0,0,1-6.78,54.66Z" transform="translate(310 4049)" fill="#2b2b2b"/>
    <path id="패스_7724" data-name="패스 7724" d="M-6.665-17.773a1.01,1.01,0,0,1,.562.012,1.231,1.231,0,0,1,.476.281,1.633,1.633,0,0,1,.342.464,1.292,1.292,0,0,1,.134.586,1.316,1.316,0,0,1-.439,1.013,1.532,1.532,0,0,1-1.074.4,1.42,1.42,0,0,1-1.27-.623,2.829,2.829,0,0,1-.415-1.6,4.238,4.238,0,0,1,.623-2.307,3.722,3.722,0,0,1,1.941-1.477l.342.464a3.439,3.439,0,0,0-1.416,1.1,2.488,2.488,0,0,0-.464,1.465q0,.269.11.317a.347.347,0,0,0,.256,0Zm3.906,0a1.114,1.114,0,0,1,1.025.293,1.348,1.348,0,0,1,.464,1.05A1.334,1.334,0,0,1-1.7-15.417a1.488,1.488,0,0,1-1.062.4,1.451,1.451,0,0,1-1.282-.623,2.768,2.768,0,0,1-.427-1.6,4.177,4.177,0,0,1,.635-2.307A3.787,3.787,0,0,1-1.88-21.021l.342.464a3.538,3.538,0,0,0-1.428,1.1,2.444,2.444,0,0,0-.476,1.465q0,.269.11.317a.411.411,0,0,0,.281,0Z" transform="translate(310 4032)" fill="#2b2b2b"/>
    <g id="그룹_1597" data-name="그룹 1597" transform="translate(212.737 4059.17)">
      <rect id="사각형_3434" data-name="사각형 3434" width="1.862" height="6.53" transform="translate(21.72 2.695)" fill="#e72c4e"/>
      <path id="패스_7659" data-name="패스 7659" d="M1.482,0,.1,1.373l1.86,1.911L3.327,1.911Z" transform="translate(-0.085)" fill="#e72c4e"/>
      <g id="그룹_1559" data-name="그룹 1559" transform="translate(0 0)">
        <g id="그룹_1558" data-name="그룹 1558" clip-path="url(#clip-path)">
          <path id="패스_7660" data-name="패스 7660" d="M328.482,9.734h1.593V5.775a1.758,1.758,0,0,1,3.517,0V9.734h1.585V5.781a3.35,3.35,0,0,0-3.343-3.388h0a3.372,3.372,0,0,0-1.765.5V.119h-1.586Z" transform="translate(-296.649 -0.107)" fill="#071039"/>
          <path id="패스_7661" data-name="패스 7661" d="M170.133,23.667a3.666,3.666,0,1,0,3.669,3.666,3.668,3.668,0,0,0-3.669-3.666m0,5.749a2.082,2.082,0,1,1,2.084-2.082,2.083,2.083,0,0,1-2.084,2.082" transform="translate(-150.332 -21.373)" fill="#071039"/>
          <path id="패스_7662" data-name="패스 7662" d="M6.53,18.389a3.879,3.879,0,0,0-2.972-1.671v1.6H3.329A3.3,3.3,0,0,0,.007,21.26a3.037,3.037,0,0,0,0,.442v5.323H1.594v-2.8a3.407,3.407,0,0,0,.862.365,4.249,4.249,0,0,0,1.1.147A3.742,3.742,0,0,0,7.177,22.16a4.226,4.226,0,0,0-.647-3.77m-.833,3.1c-.014.059-.03.118-.049.176a2.08,2.08,0,0,1-1.4,1.368,2.209,2.209,0,0,1-2.312-.6,1.507,1.507,0,0,1-.326-1.051,1.711,1.711,0,0,1,1.759-1.451v0h.188v-1.6a2.312,2.312,0,0,1,1.671,1.007,2.792,2.792,0,0,1,.5,1.162,2.221,2.221,0,0,1-.028.99" transform="translate(0 -15.098)" fill="#071039"/>
          <path id="패스_7663" data-name="패스 7663" d="M256.191,28.7a2.082,2.082,0,1,1,.007-2.731l1.112-1.13a3.666,3.666,0,1,0-.007,4.991Z" transform="translate(-226.634 -21.374)" fill="#071039"/>
          <path id="패스_7664" data-name="패스 7664" d="M90.159,28.554a2.44,2.44,0,0,1-1.9.9,1.95,1.95,0,0,1-2.03-1.384l-.048-.17h5.487l.007-.106c.014-.208.027-.4.027-.577a3.415,3.415,0,0,0-3.5-3.634,3.508,3.508,0,0,0-3.6,3.648,3.529,3.529,0,0,0,3.6,3.692,3.615,3.615,0,0,0,2.981-1.447l-.965-.992ZM86.227,26.44a1.86,1.86,0,0,1,1.953-1.385,1.814,1.814,0,0,1,1.889,1.389l.041.166H86.179Z" transform="translate(-76.396 -21.3)" fill="#071039"/>
        </g>
      </g>
    </g>
  </g>
</svg>
