<svg xmlns="http://www.w3.org/2000/svg" xmlns:xlink="http://www.w3.org/1999/xlink" width="244" height="44" viewBox="0 0 244 44">
  <defs>
    <clipPath id="clip-path">
      <rect id="사각형_3241" data-name="사각형 3241" width="53.692" height="16.62" fill="none"/>
    </clipPath>
  </defs>
  <g id="그룹_1665" data-name="그룹 1665" transform="translate(-58 -8081)">
    <rect id="사각형_38" data-name="사각형 38" width="244" height="44" rx="22" transform="translate(58 8081)" fill="#e64275"/>
    <path id="패스_7673" data-name="패스 7673" d="M-16.016-2.24a6.094,6.094,0,0,1-3.178-5.81V-9.814h-2.058V-7.98A6.433,6.433,0,0,1-24.5-1.862l1.232,1.526A6.865,6.865,0,0,0-20.2-4.018a7.033,7.033,0,0,0,3.038,3.36Zm2.576,4.606V-10.906h-2V2.366ZM.126-6.2v-1.61H-1.722v-3.094h-1.96v7.784h1.96V-6.2Zm-10.6,3.64V-.994h6.8V2.38h1.974V-2.562Zm-1.5-6.048h2.548A4.2,4.2,0,0,1-12.53-4.718l1.05,1.582A5.246,5.246,0,0,0-8.386-6.09a5.559,5.559,0,0,0,2.926,2.6l1.05-1.54A4.089,4.089,0,0,1-7.392-8.61H-4.97v-1.6h-7ZM2.506-2.9A1.427,1.427,0,0,1,3.99-4.354,1.442,1.442,0,0,1,5.5-2.9,1.447,1.447,0,0,1,3.99-1.456,1.416,1.416,0,0,1,2.506-2.9Zm-1.75,0A2.952,2.952,0,0,0,3.99-.042,2.977,2.977,0,0,0,7.252-2.9,2.977,2.977,0,0,0,3.99-5.754,2.936,2.936,0,0,0,.756-2.9ZM10.6-10.906H8.624V2.366H10.6V-3.906H12.39v-1.61H10.6ZM1.974-8.526H6.062v-1.568H1.974ZM7.784-6.2v-1.54H.07V-6.2Zm5.432-3.332v1.61H17.43A8.444,8.444,0,0,1,12.4-1.47L13.51.07a10.589,10.589,0,0,0,6.006-9.6Zm10.3,11.9V-10.906H21.546V2.366Z" transform="translate(206.671 8107)" fill="#fff"/>
    <g id="그룹_1012" data-name="그룹 1012" transform="translate(123.328 8095)">
      <g id="그룹_1013" data-name="그룹 1013" transform="translate(0 0)">
        <rect id="사각형_3240" data-name="사각형 3240" width="2.209" height="10.219" transform="translate(30.498 3.196)" fill="#fff"/>
        <path id="패스_6865" data-name="패스 6865" d="M1.74,0,.1,1.629,2.3,3.9,3.929,2.267Z" transform="translate(-0.083 0)" fill="#fff"/>
        <g id="그룹_1011" data-name="그룹 1011" transform="translate(0 0)">
          <g id="그룹_1010" data-name="그룹 1010" clip-path="url(#clip-path)">
            <path id="패스_6866" data-name="패스 6866" d="M328.482,13.518h2.22V8a2.45,2.45,0,0,1,4.9,0v5.517h2.209V8.01a4.669,4.669,0,0,0-4.659-4.722h0a4.7,4.7,0,0,0-2.46.691V.119h-2.211Z" transform="translate(-284.12 -0.103)" fill="#fff"/>
            <path id="패스_6867" data-name="패스 6867" d="M171.577,23.667a5.109,5.109,0,1,0,5.113,5.109,5.111,5.111,0,0,0-5.113-5.109m0,8.011a2.9,2.9,0,1,1,2.9-2.9,2.9,2.9,0,0,1-2.9,2.9" transform="translate(-143.983 -20.471)" fill="#fff"/>
            <path id="패스_6868" data-name="패스 6868" d="M9.1,19.047a5.406,5.406,0,0,0-4.142-2.329v2.234H4.639A4.593,4.593,0,0,0,.01,23.047a4.233,4.233,0,0,0,0,.615V31.08H2.222v-3.9a4.748,4.748,0,0,0,1.2.509,5.921,5.921,0,0,0,1.537.205A5.214,5.214,0,0,0,10,24.3a5.889,5.889,0,0,0-.9-5.254m-1.16,4.315c-.02.083-.042.164-.068.245a2.9,2.9,0,0,1-1.952,1.906A3.078,3.078,0,0,1,2.7,24.679a2.1,2.1,0,0,1-.454-1.465A2.384,2.384,0,0,1,4.7,21.192v0h.262V18.96a3.222,3.222,0,0,1,2.329,1.4,3.89,3.89,0,0,1,.691,1.62,3.1,3.1,0,0,1-.039,1.379" transform="translate(0 -14.46)" fill="#fff"/>
            <path id="패스_6869" data-name="패스 6869" d="M258.252,30.686a2.9,2.9,0,1,1,.009-3.806l1.55-1.575a5.109,5.109,0,1,0-.01,6.956Z" transform="translate(-217.063 -20.472)" fill="#fff"/>
            <path id="패스_6870" data-name="패스 6870" d="M92.35,30.509A3.4,3.4,0,0,1,89.7,31.768a2.717,2.717,0,0,1-2.829-1.929L86.8,29.6H94.45l.01-.147c.019-.289.037-.556.037-.8a4.759,4.759,0,0,0-4.88-5.064,4.888,4.888,0,0,0-5.023,5.084,4.918,4.918,0,0,0,5.023,5.146A5.037,5.037,0,0,0,93.771,31.8l-1.345-1.383ZM86.87,27.563a2.592,2.592,0,0,1,2.721-1.93,2.528,2.528,0,0,1,2.633,1.936l.057.231H86.8Z" transform="translate(-73.17 -20.401)" fill="#fff"/>
            <path id="패스_6871" data-name="패스 6871" d="M328.482,96.611v.368h.368a.368.368,0,0,1-.368-.368" transform="translate(-284.12 -83.564)" fill="#fff"/>
            <path id="패스_6872" data-name="패스 6872" d="M342.117,96.978h.368V96.61a.368.368,0,0,1-.368.368" transform="translate(-295.914 -83.563)" fill="#fff"/>
            <path id="패스_6873" data-name="패스 6873" d="M328.85,23.667h-.368v.368a.368.368,0,0,1,.368-.368" transform="translate(-284.12 -20.471)" fill="#fff"/>
            <path id="패스_6874" data-name="패스 6874" d="M342.485,24.035v-.368h-.368a.368.368,0,0,1,.368.368" transform="translate(-295.914 -20.471)" fill="#fff"/>
          </g>
        </g>
      </g>
    </g>
    <g id="화살표" transform="translate(-755.679 9057.078) rotate(-90)">
      <path id="패스_7665" data-name="패스 7665" d="M0,0V7.545H7.545" transform="translate(948.485 1003.72) rotate(-45)" fill="none" stroke="#fff" stroke-linecap="round" stroke-linejoin="round" stroke-width="2"/>
    </g>
  </g>
</svg>
