<svg xmlns="http://www.w3.org/2000/svg" xmlns:xlink="http://www.w3.org/1999/xlink" width="114.712" height="56.649" viewBox="0 0 114.712 56.649">
  <defs>
    <clipPath id="clip-path">
      <rect id="사각형_3435" data-name="사각형 3435" width="60" height="18.573" fill="none"/>
    </clipPath>
  </defs>
  <g id="그룹_1671" data-name="그룹 1671" transform="translate(-60.481 -4790.151)">
    <path id="패스_7726" data-name="패스 7726" d="M6.253-2.4a19.783,19.783,0,0,1-4.147.377V-8.684H1.053v7.566h.923a22.919,22.919,0,0,0,4.394-.4ZM10.712,2.08V-10.01H9.685V-5.2h-1.6V-9.724H7.072V1.456H8.086V-4.316h1.6v6.4ZM24.7-3.51v-6.5H23.647v6.5ZM23.647,1.04H17.966V-.507h5.681ZM15.3-8.281h2.743c0,.169-.013.312-.013.416-.065,1.6-1.625,3.185-3.146,3.77l.611.819a5.907,5.907,0,0,0,3.068-3.055A5.948,5.948,0,0,0,21.5-3.666l.585-.845a4.257,4.257,0,0,1-2.964-3.341,4.054,4.054,0,0,1-.013-.429h2.834v-.884H15.3ZM24.7,1.911v-4.8H23.647v1.534H17.966v-1.5H16.913V1.911ZM40.391-4.264v-.884H38.415V-10.01H37.362V2.08h1.053V-4.264ZM34.1-1.833H30.55V-7.891H34.1Zm1.053.871v-7.8H29.5v7.8Zm11.7-2.678a26.57,26.57,0,0,1-4.355.273l-.611-.013V-5.486h4.381V-9.178H40.82v.871h4.394v1.963H40.833v3.835L42.2-2.5a34.293,34.293,0,0,0,4.771-.3Zm3.783,5.486V.975H43.472V-1.69H42.419V1.846Zm-.325-2.99V-10.01H49.257v2.093H47.086v.858h2.171v1.794H47.086v.858h2.171v3.263ZM61.685,1.963V1.105H54.067V-.117H61.3v-2.7H52.988v.845h7.254V-.91H53.014V1.963ZM57.213-8.983c1.911,0,3.159.481,3.159,1.235s-1.248,1.222-3.159,1.222S54.08-6.994,54.08-7.748,55.315-8.983,57.213-8.983Zm4.225,1.235c0-1.326-1.6-2.093-4.225-2.093-2.6,0-4.212.767-4.212,2.093s1.612,2.093,4.212,2.093C59.839-5.655,61.438-6.422,61.438-7.748ZM62.66-3.9v-.884H51.74V-3.9Zm9.334-5.629v.871h2.613a13.793,13.793,0,0,1-.4,3.328H70.551a20.2,20.2,0,0,0,.494-4.2h-3.9v.871h2.808A14.576,14.576,0,0,1,69.5-5.33H66.04v.871h4.927v2.093H67.444V1.911h8.125V-2.366H72.02V-4.459h4.94V-5.33h-1.7a20.36,20.36,0,0,0,.429-4.2ZM74.516,1.04H68.5V-1.508h6.019ZM83.057-9.191v.871H85.93a18.952,18.952,0,0,1-.481,4.173H81.536a22.176,22.176,0,0,0,.6-5.044H78.221v.871h2.834a17.973,17.973,0,0,1-.572,4.173H77.35v.884h4.927V2.093H83.33V-3.263h4.94v-.884H86.5a24,24,0,0,0,.507-5.044Zm15.3,3.913v-.871H91.182V-9.5H90.129v4.225Zm.052,7.085V.936H91.143V-1.755H90.09V1.807Zm1.17-4.693V-3.77H88.66v.884ZM10.66,21.677v-.884H3.575V17.959H2.522v3.718Zm-.26-2.834V9.99H9.347v3.354h-2.4v.884h2.4v4.615ZM.871,11.94H3.6c0,.533,0,.806-.013.962C3.523,14.5,2,16.035.481,16.62l.611.819a5.742,5.742,0,0,0,3.029-3,6.047,6.047,0,0,0,2.938,2.717l.585-.845A4.325,4.325,0,0,1,4.68,12.915c-.013-.169-.013-.429-.013-.975h2.7v-.884H.871Zm21.437,2.691c-2.132-.26-4.459-1.807-4.459-3.458v-.767H16.744v.767c0,1.651-2.132,3.185-4.446,3.484l.507.91c1.833-.364,3.9-1.547,4.485-2.951A6.846,6.846,0,0,0,21.8,15.528ZM17.8,22.093V17.7H22.75v-.884H11.83V17.7h4.914v4.394ZM32.006,9.99V22.08h1.053V9.99Zm-1.391,8.424a6.085,6.085,0,0,1-3.2-5.109V12.07h2.821V11.2H23.5v.871h2.821v1.248A6.482,6.482,0,0,1,23.1,18.7l.65.78a7.576,7.576,0,0,0,3.133-3.965,7.871,7.871,0,0,0,3.081,3.679Zm11.531-3.978a29.979,29.979,0,0,1-6.019.533V10.614H35.074v5.278h.689a38.805,38.805,0,0,0,6.5-.559ZM43.277,9.99v6.721H44.33V9.99Zm0,11.037H37.453v-2.7h5.824Zm1.053.871V17.465H36.4V21.9Zm8.411-8.1A2.883,2.883,0,0,0,49.6,10.926,2.943,2.943,0,0,0,46.449,13.8,2.918,2.918,0,0,0,49.6,16.607,2.885,2.885,0,0,0,52.741,13.8Zm-1.027,0a2.136,2.136,0,0,1-4.251,0A2.045,2.045,0,0,1,49.6,11.823,1.972,1.972,0,0,1,51.714,13.8ZM54.639,9.99V22.08h1.053V9.99Zm-.793,8.151c-.884.117-2.457.208-4.134.273-1.469.078-2.9.1-3.926.091l.182.923c.923-.013,2.249-.052,3.666-.117,1.534-.078,3.263-.182,4.3-.312Zm17.485-2.405v-.884H69.355V9.99H68.3V22.08h1.053V15.736Zm-6.292,2.431H61.49V12.109h3.549Zm1.053.871v-7.8H60.437v7.8Zm10.92-3.861c0,1.976-.832,3.354-2.119,3.354s-2.119-1.378-2.119-3.354.845-3.367,2.119-3.367S77.012,13.188,77.012,15.177Zm-5.239-.013c0,2.574,1.131,4.277,3.12,4.277s3.12-1.7,3.12-4.264S76.9,10.9,74.893,10.9,71.773,12.616,71.773,15.164Zm9.542,6.916V9.99H80.262V22.08Zm2.821-9.75h3.757v-.871h-4.81v7.6h1.326a28.313,28.313,0,0,0,4.108-.364l-.117-.9a17.924,17.924,0,0,1-4.264.364Zm5.3,3.211v5.915h1.027V10.276H89.44v4.381H86.632v.884Zm3.432,6.539V9.99H91.845V22.08Zm6.76-6.9c0,1.976-.832,3.354-2.119,3.354s-2.119-1.378-2.119-3.354.845-3.367,2.119-3.367S99.632,13.188,99.632,15.177Zm-5.239-.013c0,2.574,1.131,4.277,3.12,4.277s3.12-1.7,3.12-4.264S99.515,10.9,97.513,10.9,94.393,12.616,94.393,15.164Zm9.542,6.916V9.99h-1.053V22.08Zm11.258,0V9.99H114.14v4.628h-2.392v.9h2.392V22.08Zm-8.424-3.7V15.307h4.2v-.858h-4.2v-2.5h4.68v-.871h-5.733v8.19h1.248a32.342,32.342,0,0,0,5.486-.429l-.117-.884a29.089,29.089,0,0,1-5.3.416Z" transform="translate(60 4800.161)" fill="#333"/>
    <g id="그룹_1560" data-name="그룹 1560" transform="translate(61 4828.228)">
      <rect id="사각형_3434" data-name="사각형 3434" width="2.513" height="11.289" transform="translate(34.054 3.637)" fill="#e72c4e"/>
      <path id="패스_7659" data-name="패스 7659" d="M1.966,0,.1,1.853l2.51,2.58L4.457,2.579Z" transform="translate(-0.081)" fill="#e72c4e"/>
      <g id="그룹_1559" data-name="그룹 1559" transform="translate(0 0)">
        <g id="그룹_1558" data-name="그룹 1558" clip-path="url(#clip-path)">
          <path id="패스_7660" data-name="패스 7660" d="M328.482,15.092h2.481V8.927a2.738,2.738,0,0,1,5.476,0v6.165h2.469V8.937A5.217,5.217,0,0,0,333.7,3.661h0a5.251,5.251,0,0,0-2.749.772V.119h-2.471Z" transform="translate(-278.909 -0.101)" fill="#071039"/>
          <path id="패스_7661" data-name="패스 7661" d="M172.178,23.667a5.71,5.71,0,1,0,5.714,5.71,5.712,5.712,0,0,0-5.714-5.71m0,8.952a3.243,3.243,0,1,1,3.245-3.243,3.244,3.244,0,0,1-3.245,3.243" transform="translate(-141.342 -20.095)" fill="#071039"/>
          <path id="패스_7662" data-name="패스 7662" d="M10.169,19.321a6.041,6.041,0,0,0-4.629-2.6v2.5H5.184A5.133,5.133,0,0,0,.011,23.791a4.73,4.73,0,0,0,0,.688v8.289H2.483V28.4a5.306,5.306,0,0,0,1.342.569,6.617,6.617,0,0,0,1.717.229,5.827,5.827,0,0,0,5.634-4.01,6.581,6.581,0,0,0-1.008-5.871m-1.3,4.822c-.022.092-.046.184-.076.274a3.24,3.24,0,0,1-2.182,2.13,3.439,3.439,0,0,1-3.6-.933,2.348,2.348,0,0,1-.507-1.637,2.664,2.664,0,0,1,2.74-2.259v0H5.54V19.223a3.6,3.6,0,0,1,2.6,1.568,4.347,4.347,0,0,1,.772,1.81,3.46,3.46,0,0,1-.043,1.541" transform="translate(0 -14.195)" fill="#071039"/>
          <path id="패스_7663" data-name="패스 7663" d="M259.11,31.511a3.243,3.243,0,1,1,.011-4.254l1.732-1.76a5.71,5.71,0,1,0-.011,7.773Z" transform="translate(-213.081 -20.096)" fill="#071039"/>
          <path id="패스_7664" data-name="패스 7664" d="M93.261,31.322A3.8,3.8,0,0,1,90.3,32.729a3.036,3.036,0,0,1-3.161-2.156l-.075-.265h8.545l.011-.165c.021-.323.041-.621.041-.9a5.318,5.318,0,0,0-5.453-5.659,5.462,5.462,0,0,0-5.613,5.682,5.5,5.5,0,0,0,5.613,5.75,5.629,5.629,0,0,0,4.642-2.254l-1.5-1.545Zm-6.123-3.291a2.9,2.9,0,0,1,3.041-2.156,2.825,2.825,0,0,1,2.942,2.163l.064.258H87.063Z" transform="translate(-71.827 -20.026)" fill="#071039"/>
        </g>
      </g>
    </g>
  </g>
</svg>
