<svg xmlns="http://www.w3.org/2000/svg" xmlns:xlink="http://www.w3.org/1999/xlink" width="180.012" height="116.036" viewBox="0 0 180.012 116.036">
  <defs>
    <clipPath id="clip-path">
      <rect id="사각형_3435" data-name="사각형 3435" width="38.528" height="11.926" fill="none"/>
    </clipPath>
  </defs>
  <g id="그룹_1678" data-name="그룹 1678" transform="translate(-90.36 -1227.979)">
    <path id="패스_7719" data-name="패스 7719" d="M24.738-5.364a.271.271,0,0,0-.288-.288,8.309,8.309,0,0,0-1.068-.024.673.673,0,0,0-.36.12,2.443,2.443,0,0,1-1,.2c-.66.024-1.56.036-2.664.036-.24,0-.36-.132-.36-.384V-7.308a3.9,3.9,0,0,1,.024-.492c.024-.2-.036-.324-.2-.36a6.573,6.573,0,0,0-1.3-.108c-.156,0-.372.132-.372.228a.072.072,0,0,0,.012.048,2.013,2.013,0,0,0,.54.168.911.911,0,0,1,.6.336v1.512c0,.768.324,1.056,1.272,1.056,1.14,0,2.724-.036,4.7-.1C24.57-5.028,24.738-5.124,24.738-5.364Zm1.692,1.92c0-.132-.084-.228-.276-.276a4.392,4.392,0,0,0-1.092-.132.876.876,0,0,0-.372.084,3.951,3.951,0,0,1-1.272.2c-1.8.072-3.648.108-5.508.108a11.161,11.161,0,0,1-1.8-.132c-.12-.012-.18,0-.18.06a.29.29,0,0,0,.144.216,3.753,3.753,0,0,0,1.14.516,1.8,1.8,0,0,0,.216.036.51.51,0,0,0,.144-.06,3.548,3.548,0,0,1,1.128-.2c1.392-.108,3.336-.168,5.76-.168.528,0,1.008.024,1.4.06S26.43-3.192,26.43-3.444ZM24.654.84c0-.132-.084-.2-.276-.24a5.009,5.009,0,0,0-1.02-.048.709.709,0,0,0-.372.12A2.952,2.952,0,0,1,21.8.864c-.768.024-1.524.024-2.232.012-.252-.012-.372-.144-.372-.408V-.792a3.474,3.474,0,0,1,.024-.492c.036-.2-.024-.336-.18-.372a7.779,7.779,0,0,0-1.392-.1c-.156,0-.372.108-.372.2a.178.178,0,0,0,.012.084,2.22,2.22,0,0,0,.576.168c.36.084.588.18.648.312l.012,1.2c0,.744.264,1.008,1.236,1.008,1.14-.024,2.616-.036,4.44-.036C24.51,1.188,24.654,1.068,24.654.84Zm-64.4,9.472A.3.3,0,0,0-39.99,10a4.81,4.81,0,0,0-1.476-.24c-.264,0-.384.06-.384.192,0,.06.06.1.168.12a2.288,2.288,0,0,1,1.212.636V20.14c0,.588.06.876.2.876s.264-.276.348-.852a22.484,22.484,0,0,0,.132-2.784V15.316c.672-.012,1.284-.036,1.848-.048.324,0,.48-.108.48-.348a.289.289,0,0,0-.24-.276,2.117,2.117,0,0,0-1.128.012,1.148,1.148,0,0,0-.228.132,1.1,1.1,0,0,1-.732.2v-3.96C-39.786,10.888-39.75,10.468-39.75,10.312Zm-2.688,1.8c0-.072-.06-.144-.192-.18a1.587,1.587,0,0,0-.5-.108c-.144,0-.48.132-.636.144-.66.06-1.68.108-2.58.1a8.179,8.179,0,0,1-1.248-.108c-.108-.012-.156.012-.156.084a.2.2,0,0,0,.12.168,4.114,4.114,0,0,0,.948.408.37.37,0,0,0,.12.012.23.23,0,0,0,.144-.06,2.043,2.043,0,0,1,.924-.192c.636-.036,1.332-.06,1.956-.048a11.84,11.84,0,0,1-1.752,2.916A13.713,13.713,0,0,1-48.03,17.86q-.108.09-.108.144c0,.084.024.12.072.12a.3.3,0,0,0,.156-.036,13.344,13.344,0,0,0,3.2-2.508c.132-.144.264-.3.384-.456l2,2.208a.489.489,0,0,0,.288.18.2.2,0,0,0,.216-.216,2.075,2.075,0,0,0-.672-1.3,1.319,1.319,0,0,0-.42-.2,1.619,1.619,0,0,1-.528-.348l-.624-.66A11.01,11.01,0,0,0-42.786,12.5a1.516,1.516,0,0,1,.216-.2C-42.486,12.22-42.438,12.16-42.438,12.112Zm13.068-1.8A.327.327,0,0,0-29.61,10a4.929,4.929,0,0,0-1.476-.24c-.264,0-.384.072-.384.2,0,.048.048.084.156.108a2.417,2.417,0,0,1,1.224.636V17c0,.66.072.984.228.984s.276-.324.36-.972a12.83,12.83,0,0,0,.084-1.6V14.368c.684-.012,1.3-.024,1.86-.036.324-.012.48-.132.48-.36a.289.289,0,0,0-.24-.276,1.9,1.9,0,0,0-1.128.012,2,2,0,0,0-.228.144,1.108,1.108,0,0,1-.744.192v-3C-29.418,10.864-29.37,10.468-29.37,10.312Zm-4.152,1.332c0-.192-.252-.372-.792-.564-.084-.024-.276-.084-.588-.168a1.076,1.076,0,0,0-.216-.024c-.168,0-.252.036-.252.12q0,.09.144.144a1.2,1.2,0,0,1,.78.768,10.873,10.873,0,0,1-2.988,4.392c-.156.132-.228.216-.228.264s.024.072.084.072a.609.609,0,0,0,.252-.1,8.631,8.631,0,0,0,2.844-2.892l2.412,2.3a.465.465,0,0,0,.312.144c.144,0,.2-.072.2-.228a.736.736,0,0,0-.036-.192,2.726,2.726,0,0,0-.8-1.056,2.408,2.408,0,0,0-.468-.2,2.878,2.878,0,0,1-.672-.48l-.732-.636-.024.024a11.242,11.242,0,0,0,.684-1.428A.591.591,0,0,0-33.522,11.644Zm5.136,8.268c0-.144-.084-.228-.264-.264a5.482,5.482,0,0,0-1.044-.048.709.709,0,0,0-.372.12,3.114,3.114,0,0,1-1.188.2c-.792.036-1.548.036-2.268.012-.252,0-.36-.144-.36-.408V18.16c0-.252.012-.408.012-.492.024-.216-.024-.336-.168-.372a8.273,8.273,0,0,0-1.392-.1c-.156,0-.372.108-.372.2,0,.072.048.132.156.144a1.9,1.9,0,0,1,1.08.42l.012,1.284a1.039,1.039,0,0,0,.252.8,1.418,1.418,0,0,0,.984.228c1.236-.036,2.724-.036,4.476-.024C-28.53,20.26-28.386,20.14-28.386,19.912Zm9.4-9.6A.3.3,0,0,0-19.23,10a4.929,4.929,0,0,0-1.476-.24c-.264,0-.384.06-.384.192,0,.06.048.1.156.12a2.409,2.409,0,0,1,1.224.624v4.476c-.684.168-1.716.348-3.12.576-.408.06-.84.12-1.3.168l.06-1.776.036-.408c.012-.108-.036-.168-.156-.18a6.045,6.045,0,0,0-1.128-.168c-.228,0-.36.048-.36.144,0,.072.06.12.168.144a1.345,1.345,0,0,1,.792.444v1.86c-.372.036-.756.06-1.14.084a6.606,6.606,0,0,1-1.44-.1c-.132-.024-.216,0-.216.084s.06.156.168.228a4.067,4.067,0,0,0,.684.3,2.259,2.259,0,0,0,.72.216.637.637,0,0,0,.264-.084,1.418,1.418,0,0,1,.42-.156,24.588,24.588,0,0,0,2.544-.42c1.26-.24,2.268-.456,3-.672v1.584c0,.672.072,1,.228,1s.276-.324.36-.984a12.76,12.76,0,0,0,.084-1.584v-.8c.276-.012.54-.012.816-.024.576-.012.912-.024,1.044-.024.324,0,.48-.12.48-.36a.269.269,0,0,0-.24-.264,2.236,2.236,0,0,0-1.128,0,2,2,0,0,0-.228.144,1.055,1.055,0,0,1-.744.2V11.032C-19.038,10.876-18.99,10.468-18.99,10.312Zm.888,9.624c0-.156-.084-.24-.276-.276a4.957,4.957,0,0,0-1.02-.048.709.709,0,0,0-.372.12,2.936,2.936,0,0,1-1.188.2c-1.164.036-1.908.06-2.232.048a.357.357,0,0,1-.372-.408V18.364a4.825,4.825,0,0,1,.012-.492c.024-.2-.036-.324-.168-.36A6.611,6.611,0,0,0-25.11,17.4c-.156,0-.372.12-.372.216,0,.06.048.108.156.132.66.156,1.02.288,1.08.432l.012,1.128c.012.756.276,1.032,1.236,1.02,1.872-.06,3.336-.072,4.44-.06C-18.246,20.272-18.1,20.164-18.1,19.936Zm-3.036-8.448c0-.084-.06-.156-.192-.18a2.871,2.871,0,0,0-.528-.084.716.716,0,0,0-.312.084.894.894,0,0,1-.324.084c-1.188.072-2.124.108-2.784.108a7.421,7.421,0,0,1-1.308-.1c-.132-.024-.2.012-.2.1,0,.06.048.12.156.18a4.19,4.19,0,0,0,.744.36,1.047,1.047,0,0,0,.276.06.4.4,0,0,0,.2-.06,2.243,2.243,0,0,1,.96-.216c.756-.06,1.5-.084,2.292-.072-.048.852-.072,1.284-.084,1.32-.084.768-.144,1.272-.192,1.512a1.532,1.532,0,0,0-.024.2c0,.06.024.1.072.1s.144-.1.24-.276a6.044,6.044,0,0,0,.468-1.332c.132-.648.228-1.14.276-1.476C-21.222,11.644-21.138,11.536-21.138,11.488Zm13.02-1.176A.29.29,0,0,0-8.346,10a4.979,4.979,0,0,0-1.512-.24c-.252,0-.372.072-.372.2,0,.048.06.084.168.108a2.291,2.291,0,0,1,1.224.648v5.82a20.732,20.732,0,0,1-2.484.588,24.75,24.75,0,0,1-3.048.408c-.18.012-.264-.1-.264-.288V15.112a1.831,1.831,0,0,1,.012-.216l3.588-.192c.144-.012.216-.072.216-.2s-.156-.228-.492-.312c.18-.768.312-1.332.444-2.076a.283.283,0,0,1,.12-.192.2.2,0,0,0,.1-.156.113.113,0,0,0-.072-.1,1.682,1.682,0,0,0-.744-.132.645.645,0,0,0-.252.06,1.424,1.424,0,0,1-.3.06c-.768.06-1.632.1-2.64.084a8.939,8.939,0,0,1-1.284-.072c-.108-.012-.168.012-.168.072a.2.2,0,0,0,.12.168,3.107,3.107,0,0,0,1.092.444,4.489,4.489,0,0,1,1.152-.252,18.937,18.937,0,0,1,2.04-.084c0,.864-.024,1.836-.06,2.184a.2.2,0,0,1-.144.12c-.744.084-1.632.132-2.616.144a.592.592,0,0,1-.18-.036,1.5,1.5,0,0,0-.348-.072,8.259,8.259,0,0,0-1.068-.072c-.06,0-.228.084-.228.156a.117.117,0,0,0,.1.12,2.384,2.384,0,0,1,.9.336V17.08a1.382,1.382,0,0,0,.18.756.649.649,0,0,0,.432.36,2.738,2.738,0,0,0,.684-.024c.96-.156,1.872-.336,2.688-.552a25.648,25.648,0,0,0,2.532-.8V20.14c0,.588.072.876.2.876.156,0,.264-.276.348-.852a22.211,22.211,0,0,0,.132-2.784V11.032C-8.154,10.888-8.118,10.468-8.118,10.312ZM2.31,10.48a.22.22,0,0,0-.156-.228,2.8,2.8,0,0,0-1.068-.24c-.228,0-.348.048-.348.156,0,.072.048.12.132.156a1.2,1.2,0,0,1,.7.456v.912l-1.644.024.012-.648c0-.18.024-.336.024-.432,0-.144-.084-.24-.264-.276a4.491,4.491,0,0,0-1.02-.144c-.132,0-.336.084-.336.18,0,.06.048.108.156.144A1.036,1.036,0,0,1-.786,11l.036,3.228c.012.384.084.564.228.564.228,0,.36-.24.408-.732l1.668-.024c.012.432.084.636.216.636.192,0,.312-.216.372-.66a4.527,4.527,0,0,0,.072-.708l.048-2.208a2.344,2.344,0,0,1,.024-.348C2.3,10.624,2.31,10.54,2.31,10.48Zm-4.08.36a.228.228,0,0,0-.18-.216,3.889,3.889,0,0,0-1.044-.216c-.24,0-.348.048-.348.144,0,.06.048.108.132.144a1.1,1.1,0,0,1,.672.468v.684l-1.644.024.012-.36c0-.084.024-.348.024-.444,0-.132-.1-.228-.312-.276a3.812,3.812,0,0,0-.984-.12c-.252,0-.372.06-.372.168,0,.06.06.12.18.156a1.114,1.114,0,0,1,.708.444l.1,2.916c.012.36.072.54.2.54.216,0,.348-.216.408-.672l1.68-.036c.012.408.072.612.216.612.2,0,.336-.216.4-.66a6.019,6.019,0,0,0,.06-.744l.024-1.812a4.153,4.153,0,0,1,.036-.444C-1.782,10.96-1.77,10.864-1.77,10.84ZM3.87,15.7c0-.144-.084-.24-.276-.288A4.392,4.392,0,0,0,2.5,15.28a.876.876,0,0,0-.372.084,3.951,3.951,0,0,1-1.272.2c-1.608.06-3.456.108-5.508.108a10.6,10.6,0,0,1-1.8-.144c-.12-.012-.18,0-.18.06a.257.257,0,0,0,.144.216,3.474,3.474,0,0,0,1.14.528q.2.036.216.036a.333.333,0,0,0,.144-.06,12.2,12.2,0,0,1,3.336-.324v2c0,.648.06.972.192.972.108,0,.192-.072.264-.216a4.087,4.087,0,0,0,.12-.684,10.81,10.81,0,0,0,.108-1.548v-.552C-.138,15.952.81,15.94,1.9,15.94a12,12,0,0,1,1.4.072C3.69,16.048,3.87,15.94,3.87,15.7ZM2.154,20.092A.276.276,0,0,0,1.9,19.8a5.59,5.59,0,0,0-1.044-.048.952.952,0,0,0-.36.132,2.954,2.954,0,0,1-1.188.2c-.72.036-1.524.036-2.4.012-.228-.012-.348-.144-.348-.408V18.508c0-.168,0-.336.012-.456.024-.228-.012-.36-.192-.4a8.16,8.16,0,0,0-1.368-.1c-.156,0-.372.108-.372.2,0,.072.048.12.156.132.648.144,1.008.3,1.08.432l.012,1.128c0,.708.252,1.02,1.332.984C-1.59,20.4-.1,20.392,1.71,20.416,2.01,20.416,2.154,20.308,2.154,20.092Zm-.588-6.444-1.656.024.012-1.56,1.644-.036Zm-4.1.132-1.656.06.012-1.56,1.644-.048ZM9.714,11.6a.091.091,0,0,0-.024-.048c-.036-.048-.156-.084-.36-.132a2.216,2.216,0,0,0-.408-.06.466.466,0,0,0-.228.072.781.781,0,0,1-.336.1c-.756.06-1.716.084-2.892.072a1.435,1.435,0,0,0-.42-.12,5.269,5.269,0,0,0-.984-.084c-.2,0-.312.048-.312.156,0,.048.06.084.18.12a1.7,1.7,0,0,1,.732.432l.312,3.732c.036.384.108.588.2.588.2,0,.3-.228.36-.66,1.212-.036,2.352-.06,3.468-.048.288,0,.432-.084.432-.228s-.144-.216-.456-.276c.084-.48.24-1.584.456-3.312a1.308,1.308,0,0,1,.156-.132C9.678,11.7,9.714,11.644,9.714,11.6ZM8.538,15.172a.313.313,0,0,1-.276.156c-.852.06-1.776.084-2.712.072l-.12-3.084.036-.36c.5-.024,1.572-.048,3.192-.06Zm3.6-4.86A.29.29,0,0,0,11.91,10a4.945,4.945,0,0,0-1.488-.24c-.264,0-.384.06-.384.192,0,.06.06.1.168.12a2.46,2.46,0,0,1,1.224.624V17.02q0,.972.216.972t.36-.972a11.722,11.722,0,0,0,.1-1.6V14.5c.672-.012,1.284-.036,1.848-.048.324,0,.48-.12.48-.348a.289.289,0,0,0-.24-.276,1.9,1.9,0,0,0-1.128.012,1.148,1.148,0,0,0-.228.132,1.01,1.01,0,0,1-.732.2V11.032C12.1,10.876,12.138,10.468,12.138,10.312Zm.876,9.576c0-.132-.084-.2-.276-.24a6.224,6.224,0,0,0-1.032-.048.822.822,0,0,0-.372.132,2.681,2.681,0,0,1-1.176.192c-.78.036-1.5.036-2.16.024-.252-.012-.372-.156-.372-.432v-1.38c0-.18.012-.324.024-.456.024-.24-.036-.384-.168-.42a6.882,6.882,0,0,0-1.392-.1c-.156,0-.372.12-.372.216,0,.06.048.12.156.132q.972.2,1.08.432l.012,1.308c.012.768.276,1.068,1.236,1.032,1.236-.036,2.664-.036,4.344-.024C12.858,20.26,13.014,20.14,13.014,19.888ZM22.6,14.752A2.275,2.275,0,0,0,21.858,13a2.58,2.58,0,0,0-1.38-.636.834.834,0,0,0,.192-.348.26.26,0,0,0-.144-.228,1.248,1.248,0,0,0-.7-.2c-.132,0-.192.048-.192.108s.024.084.084.12c.156.1.24.2.24.312a.378.378,0,0,1-.108.2,2.646,2.646,0,0,0-1.74.648A2.423,2.423,0,0,0,18.1,16.5a2.684,2.684,0,0,0,1.872.66,2.746,2.746,0,0,0,1.86-.672A2.266,2.266,0,0,0,22.6,14.752Zm-.7-.024A1.845,1.845,0,0,1,20,16.588a1.939,1.939,0,0,1-1.392-.528,1.8,1.8,0,0,1-.552-1.332,1.755,1.755,0,0,1,.552-1.32A1.949,1.949,0,0,1,20,12.868a1.817,1.817,0,0,1,1.356.528A1.745,1.745,0,0,1,21.906,14.728Zm3.444-4.416A.29.29,0,0,0,25.122,10a4.945,4.945,0,0,0-1.488-.24c-.264,0-.384.06-.384.192,0,.06.06.1.168.12a2.283,2.283,0,0,1,1.224.636V20.14c0,.588.06.876.2.876s.252-.276.336-.852a22.484,22.484,0,0,0,.132-2.784v-2.2c.672-.012,1.3-.036,1.86-.048.312,0,.468-.12.468-.348a.277.277,0,0,0-.228-.276,1.943,1.943,0,0,0-1.14.012,2,2,0,0,0-.228.144,1.06,1.06,0,0,1-.732.192V11.032C25.314,10.888,25.35,10.468,25.35,10.312Zm10.86,0A.29.29,0,0,0,35.982,10a4.979,4.979,0,0,0-1.512-.24c-.252,0-.372.06-.372.192,0,.06.06.1.168.12a2.283,2.283,0,0,1,1.224.636v5.148a24.393,24.393,0,0,1-2.676.732c-1.416.3-2.4.456-2.976.516-.18.012-.264-.1-.264-.3v-3.72c0-.036,0-.192.012-.468.012-.24-.048-.36-.18-.384a8.495,8.495,0,0,0-1.416-.108c-.168,0-.384.108-.384.2,0,.072.048.12.156.132.66.12,1.032.276,1.116.456l.024,3.72a1.337,1.337,0,0,0,.144.756.759.759,0,0,0,.468.36,3.042,3.042,0,0,0,.612-.036,24.379,24.379,0,0,0,2.712-.612,23.856,23.856,0,0,0,2.652-.972V20.14c0,.588.072.876.2.876.156,0,.264-.276.348-.852a22.211,22.211,0,0,0,.132-2.784V11.032C36.174,10.888,36.21,10.468,36.21,10.312Zm9.9,0A.3.3,0,0,0,45.87,10a4.81,4.81,0,0,0-1.476-.24c-.264,0-.384.06-.384.192,0,.06.06.1.168.12a2.288,2.288,0,0,1,1.212.636V16.54a22.086,22.086,0,0,1-2.412.588,28.59,28.59,0,0,1-3.072.444c-.18.012-.264-.084-.264-.288V15.136a1.378,1.378,0,0,1,.012-.216c1.284-.084,2.424-.144,3.42-.2.144-.012.216-.072.216-.2s-.156-.216-.492-.3c.18-.828.312-1.524.42-2.076a.37.37,0,0,1,.156-.2.209.209,0,0,0,.108-.168.113.113,0,0,0-.072-.1,1.733,1.733,0,0,0-.756-.12.645.645,0,0,0-.252.06,1.232,1.232,0,0,1-.3.048c-.684.06-1.56.1-2.6.084-.552-.012-.972-.036-1.284-.072-.108-.012-.168.012-.168.072a.2.2,0,0,0,.12.168,2.7,2.7,0,0,0,1.1.444,4.891,4.891,0,0,1,1.152-.264,17.982,17.982,0,0,1,1.992-.072q0,1.3-.072,2.2a.242.242,0,0,1-.144.132,22.388,22.388,0,0,1-2.448.144.424.424,0,0,1-.168-.036c-.144-.024-.264-.06-.36-.072a8.366,8.366,0,0,0-1.056-.072c-.06,0-.228.072-.228.168a.105.105,0,0,0,.1.108,2.764,2.764,0,0,1,.9.336v2.2c0,.636.264,1.068.612,1.116a2.761,2.761,0,0,0,.684-.024,26.542,26.542,0,0,0,2.724-.6,22.2,22.2,0,0,0,2.436-.8V20.14c0,.588.06.876.2.876s.264-.276.348-.852a22.484,22.484,0,0,0,.132-2.784V15.268c.672-.012,1.284-.036,1.848-.048.324,0,.48-.108.48-.348a.289.289,0,0,0-.24-.276,2.117,2.117,0,0,0-1.128.012,1.148,1.148,0,0,0-.228.132,1.1,1.1,0,0,1-.732.2V11.032C46.074,10.888,46.11,10.468,46.11,10.312Zm-127.194,19a.3.3,0,0,0-.24-.312,4.962,4.962,0,0,0-1.5-.24c-.252,0-.372.06-.372.192,0,.06.048.1.156.12A2.452,2.452,0,0,1-81.8,29.7v3.192a13.671,13.671,0,0,1-1.788.1,6.773,6.773,0,0,1-1.056-.048c-.144-.024-.216,0-.216.06s.036.108.12.156a4.147,4.147,0,0,0,.876.372.528.528,0,0,0,.12.024.332.332,0,0,0,.156-.036,1.537,1.537,0,0,1,.468-.144c.36-.036.792-.072,1.32-.084v2.76c0,.672.072,1,.228,1s.264-.324.348-.984a12.62,12.62,0,0,0,.1-1.584v-4.44C-81.132,29.876-81.084,29.468-81.084,29.312Zm-2.9,1.248c0-.072-.06-.12-.192-.156a1.5,1.5,0,0,0-.54-.084.39.39,0,0,0-.24.084c-.132.036-.228.06-.3.072a24.6,24.6,0,0,1-2.724.06,8.581,8.581,0,0,1-1.092-.072c-.108-.012-.156.012-.156.1,0,.06.048.108.132.168a4.982,4.982,0,0,0,.888.4.933.933,0,0,0,.192.024.447.447,0,0,0,.18-.072,1.366,1.366,0,0,1,.6-.144c.7-.036,1.428-.072,2.2-.1a9.906,9.906,0,0,1-1.86,2.952,13.661,13.661,0,0,1-2.592,2.34c-.1.06-.144.12-.144.156a.1.1,0,0,0,.108.108.35.35,0,0,0,.108-.024,13.305,13.305,0,0,0,2.976-2.208,9.79,9.79,0,0,0,2.16-3.144.707.707,0,0,1,.156-.24A.29.29,0,0,0-83.988,30.56Zm3.9,8.316c0-.156-.084-.24-.264-.276a5.3,5.3,0,0,0-1.032-.048.743.743,0,0,0-.372.12,3.027,3.027,0,0,1-1.2.192,24.8,24.8,0,0,1-2.5.012.341.341,0,0,1-.36-.384V37.124a3.669,3.669,0,0,1,.024-.48c.024-.24-.036-.36-.192-.384a7.857,7.857,0,0,0-1.368-.1c-.156,0-.372.108-.372.2a.152.152,0,0,0,.012.072,1.767,1.767,0,0,0,.576.168q.54.126.648.324l.012,1.272c0,.78.264,1.056,1.236,1.044,1.284-.036,2.832-.048,4.7-.036C-80.232,39.224-80.088,39.116-80.088,38.876Zm8.736-1.368a1.839,1.839,0,0,0-.7-1.452,2.469,2.469,0,0,0-1.284-.576.645.645,0,0,0,.192-.3c0-.06-.036-.108-.12-.156a1.225,1.225,0,0,0-.6-.18c-.132,0-.192.048-.192.144,0,.024.06.072.168.132a.249.249,0,0,1,.132.192.3.3,0,0,1-.108.132,2.568,2.568,0,0,0-1.632.6,1.857,1.857,0,0,0-.708,1.464A1.928,1.928,0,0,0-75.528,39a2.5,2.5,0,0,0,1.752.624A2.532,2.532,0,0,0-71.988,39,1.918,1.918,0,0,0-71.352,37.508ZM-73.764,35.9a1.681,1.681,0,0,1,1.752,1.608,1.468,1.468,0,0,1-.5,1.14,1.755,1.755,0,0,1-1.248.456,1.817,1.817,0,0,1-1.248-.456,1.5,1.5,0,0,1-.492-1.14,1.554,1.554,0,0,1,.492-1.14A1.813,1.813,0,0,1-73.764,35.9Zm-.132-5.484a.168.168,0,0,0-.036-.108,1.093,1.093,0,0,0-.672-.132c-.144,0-.276.132-.564.144a22.474,22.474,0,0,1-2.7.108,6.161,6.161,0,0,1-1.092-.084c-.108-.012-.156.012-.156.108,0,.06.048.108.144.168a4.448,4.448,0,0,0,.864.4.752.752,0,0,0,.192.024.367.367,0,0,0,.18-.084,1.362,1.362,0,0,1,.612-.132c1.4-.084,2.136-.132,2.172-.132a12.694,12.694,0,0,1-2.076,2.988,13.249,13.249,0,0,1-2.388,2.148q-.144.108-.144.18a.088.088,0,0,0,.1.1.426.426,0,0,0,.12-.024,12.054,12.054,0,0,0,5.172-5.22,1.272,1.272,0,0,1,.144-.228A.307.307,0,0,0-73.9,30.416Zm2.556-1.1A.3.3,0,0,0-71.58,29a4.81,4.81,0,0,0-1.476-.24c-.264,0-.384.06-.384.192,0,.06.06.1.168.12a2.288,2.288,0,0,1,1.212.636v4.824c0,.672.072,1.008.228,1.008s.276-.312.36-.936a8.429,8.429,0,0,0,.1-1.164v-.2c.672-.012,1.284-.036,1.848-.048.324,0,.48-.108.48-.336,0-.144-.084-.228-.24-.276a2.117,2.117,0,0,0-1.128.012c-.108.06-.18.108-.228.132a1.1,1.1,0,0,1-.732.2V30.032C-71.376,29.876-71.34,29.468-71.34,29.312Zm13.02,8.4a1.8,1.8,0,0,0-.672-1.452,2.387,2.387,0,0,0-1.272-.528,1.057,1.057,0,0,0,.2-.312c0-.048-.036-.1-.12-.144a1.025,1.025,0,0,0-.588-.2q-.18,0-.18.144c0,.072.288.192.288.324a.231.231,0,0,1-.12.156,2.051,2.051,0,0,0-2.256,2.016,1.885,1.885,0,0,0,.636,1.416,2.554,2.554,0,0,0,1.716.576,2.48,2.48,0,0,0,1.692-.588A1.759,1.759,0,0,0-58.32,37.712Zm-2.352-1.584a1.639,1.639,0,0,1,1.236.456,1.421,1.421,0,0,1,.444,1.092,1.363,1.363,0,0,1-.48,1.08,1.556,1.556,0,0,1-1.2.456,1.538,1.538,0,0,1-1.668-1.536,1.434,1.434,0,0,1,.468-1.092A1.647,1.647,0,0,1-60.672,36.128Zm2.532-6.816A.3.3,0,0,0-58.38,29a4.81,4.81,0,0,0-1.476-.24c-.264,0-.384.06-.384.192,0,.06.06.1.168.12a2.288,2.288,0,0,1,1.212.636v5.1c0,.672.072.984.228.984s.276-.288.36-.912a8.569,8.569,0,0,0,.1-1.152v-.66c.672-.012,1.284-.036,1.848-.048.324,0,.48-.108.48-.336a.289.289,0,0,0-.24-.276,2.117,2.117,0,0,0-1.128.012,2,2,0,0,0-.228.144,1.153,1.153,0,0,1-.732.18V30.032C-58.176,29.876-58.14,29.468-58.14,29.312Zm-4.116,1.176a.342.342,0,0,0-.2-.3,4.651,4.651,0,0,0-1.176-.444,1.076,1.076,0,0,0-.216-.024c-.168,0-.252.036-.252.12,0,.06.048.1.144.144a1.3,1.3,0,0,1,.78.78,10.629,10.629,0,0,1-3.012,4.188c-.156.132-.228.216-.228.264,0,.072.024.1.084.1a.46.46,0,0,0,.252-.12,9.41,9.41,0,0,0,2.892-2.82l2.28,2.2a.455.455,0,0,0,.312.156c.144,0,.2-.1.2-.264a.641.641,0,0,0-.06-.24,2.5,2.5,0,0,0-.756-1,2.116,2.116,0,0,0-.48-.216,2.976,2.976,0,0,1-.672-.468l-.6-.528a8.986,8.986,0,0,0,.636-1.272A.681.681,0,0,0-62.256,30.488Zm15.492-1.14a.32.32,0,0,0-.216-.312,4.641,4.641,0,0,0-1.392-.276c-.252,0-.372.06-.372.192,0,.048.048.084.156.108a2.034,2.034,0,0,1,1.128.636v3.948l-1.632.06V30.38a2.491,2.491,0,0,1,.024-.276.281.281,0,0,0-.192-.3,4.3,4.3,0,0,0-1.272-.264c-.24,0-.348.06-.348.168,0,.072.048.108.168.144a1.532,1.532,0,0,1,.96.528v5.184c-.444.12-1.152.264-2.112.432a13.883,13.883,0,0,1-2.016.264c-.228.012-.24-.06-.24-.252V34.076c.984-.072,1.836-.108,2.6-.144q.468-.018.468-.36a.258.258,0,0,0-.228-.264,2.8,2.8,0,0,0-.864-.012,1.11,1.11,0,0,0-.468.192,2.084,2.084,0,0,1-.36.108,11.534,11.534,0,0,1-1.152.06V32.132c0-.12.012-.252.024-.4,1.416-.06,2.328-.108,2.7-.12.336-.012.492-.144.492-.384,0-.264-.336-.348-1.008-.288-.192.084-.36.156-.492.216a2.265,2.265,0,0,1-.684.132q-.612.036-.936.036a1.774,1.774,0,0,0-.372-.12,6.733,6.733,0,0,0-1.128-.084c-.156,0-.372.12-.372.216,0,.06.048.108.132.12.528.084.84.24.948.432l.024,3.912a1.662,1.662,0,0,0,.144.756.833.833,0,0,0,.228.288.931.931,0,0,0,.216.06,1.857,1.857,0,0,0,.5-.024c.816-.144,1.512-.288,2.1-.444a18.133,18.133,0,0,0,1.848-.576v2.388c0,.552.06.816.192.816.216,0,.348-.576.408-1.74.036-.672.06-1.224.06-1.656V34.064l1.632-.048V39c0,.7.06,1.032.18,1.032.144,0,.336-.528.4-1.248.048-.624.072-1.344.072-2.148v-6.66a2.156,2.156,0,0,1,.036-.372A1.611,1.611,0,0,0-46.764,29.348Zm12.7-.048a.3.3,0,0,0-.192-.288A3.3,3.3,0,0,0-35,28.844a5.456,5.456,0,0,0-.8-.084c-.252,0-.372.06-.372.192,0,.06.048.1.156.12a2.323,2.323,0,0,1,1.236.636V39.14c0,.6.072.888.2.888.156,0,.264-.288.348-.864A22.211,22.211,0,0,0-34.1,36.38V30.032C-34.1,29.888-34.068,29.456-34.068,29.3Zm-2.616,1.716c0-.144-.264-.24-.744-.24-.108,0-.312.108-.552.144-.672.072-1.692.108-3.036.108a6.078,6.078,0,0,1-1.1-.084c-.108-.012-.156.012-.156.108,0,.048.048.108.144.168a4.944,4.944,0,0,0,.888.408,1.532,1.532,0,0,0,.2.024.3.3,0,0,0,.18-.084,1.873,1.873,0,0,1,.6-.144c.624-.072,1.452-.12,2.5-.144a12.43,12.43,0,0,1-4.452,5.712.275.275,0,0,0-.132.18c0,.06.024.1.084.1a.232.232,0,0,0,.12-.036,12.485,12.485,0,0,0,5.172-5.784,1.092,1.092,0,0,1,.168-.216A.33.33,0,0,0-36.684,31.016Zm9.708-.756c0-.2-.18-.264-.756-.372a4.257,4.257,0,0,0-.684-.1c-.228,0-.336.048-.336.144a.162.162,0,0,0,.12.156,1.931,1.931,0,0,1,.9.528v1.452l-3.084.048.012-.84a1.244,1.244,0,0,1,.012-.24.689.689,0,0,0,.012-.144.317.317,0,0,0-.3-.324,8.31,8.31,0,0,0-1.176-.108c-.132,0-.36.12-.36.2,0,.156.276.156.66.324a1.015,1.015,0,0,1,.408.276l.072,3.852c.012.372.084.54.192.54.192,0,.336-.252.432-.78l3.12-.06c0,.384.06.588.168.588.18,0,.312-.228.408-.648a3.677,3.677,0,0,0,.084-.684l.036-3.132a3.157,3.157,0,0,1,.024-.4C-27,30.452-26.976,30.3-26.976,30.26Zm2.8-.948A.3.3,0,0,0-24.42,29a4.929,4.929,0,0,0-1.476-.24c-.264,0-.384.06-.384.192,0,.06.048.1.156.12A2.409,2.409,0,0,1-24.9,29.7V35.96c0,.66.072.984.228.984s.264-.324.36-.984a11.885,11.885,0,0,0,.084-1.584v-.912c.684-.012,1.3-.036,1.86-.06.324,0,.48-.108.48-.336a.312.312,0,0,0-.24-.288,2.117,2.117,0,0,0-1.128.012,2,2,0,0,0-.228.144,1.055,1.055,0,0,1-.744.2V30.032C-24.228,29.876-24.18,29.468-24.18,29.312Zm-3.552,5.1-3.108.072.024-1.956,3.084-.072Zm4.464,4.464c0-.132-.084-.2-.276-.24a6.453,6.453,0,0,0-1.032-.036.709.709,0,0,0-.372.12,3.035,3.035,0,0,1-1.176.2c-.792.036-1.536.036-2.208.012-.24-.012-.36-.156-.36-.42v-1.86c.036-.24-.024-.372-.168-.408a6.739,6.739,0,0,0-1.38-.1c-.156,0-.372.108-.372.2,0,.06.048.12.156.144.648.132,1.008.276,1.08.42l.012,1.344c.012.744.276,1.032,1.236,1.02,1.248-.036,2.7-.048,4.392-.024C-23.424,39.26-23.268,39.14-23.268,38.876Zm8.976-5.952a2.23,2.23,0,0,0-.852-1.812,2.7,2.7,0,0,0-1.428-.612,1.181,1.181,0,0,0,.2-.408.216.216,0,0,0-.108-.192,1.248,1.248,0,0,0-.684-.216c-.132,0-.192.036-.192.108,0,.048.024.084.084.12a.367.367,0,0,1,.216.3.338.338,0,0,1-.12.252,2.879,2.879,0,0,0-1.8.66,2.244,2.244,0,0,0-.876,1.8A2.246,2.246,0,0,0-19,34.736a2.969,2.969,0,0,0,1.92.648,2.972,2.972,0,0,0,1.932-.636A2.27,2.27,0,0,0-14.292,32.924Zm-.7.048a1.856,1.856,0,0,1-.528,1.344,2.082,2.082,0,0,1-1.536.576,2.01,2.01,0,0,1-1.476-.552,1.85,1.85,0,0,1-.576-1.368,1.863,1.863,0,0,1,.564-1.4,1.983,1.983,0,0,1,1.488-.552,2.085,2.085,0,0,1,1.512.564A1.979,1.979,0,0,1-14.988,32.972ZM-11.7,37.52c0-.132-.084-.216-.276-.276a4.392,4.392,0,0,0-1.092-.132.9.9,0,0,0-.372.1,4.024,4.024,0,0,1-1.272.192c-1.812.072-3.66.108-5.508.108a11.284,11.284,0,0,1-1.8-.12c-.12-.024-.18-.012-.18.048a.256.256,0,0,0,.144.2,3.046,3.046,0,0,0,1.14.528,1.264,1.264,0,0,0,.216.036.377.377,0,0,0,.144-.048,3.171,3.171,0,0,1,1.128-.216c1.26-.108,3.18-.168,5.76-.168a12,12,0,0,1,1.4.072C-11.88,37.88-11.7,37.784-11.7,37.52Zm10.38.216c0-.144-.084-.228-.276-.276a3.88,3.88,0,0,0-1.092-.144.9.9,0,0,0-.372.1,3.951,3.951,0,0,1-1.272.2c-.612.036-1.236.06-1.848.072V35.456q1.764-.036,2.88-.036c.288,0,.432-.12.432-.372,0-.132-.084-.216-.252-.24a8.318,8.318,0,0,0-1.068-.048.83.83,0,0,0-.36.132,2.523,2.523,0,0,1-1.02.192c-1.284.06-2.328.072-3.108.06-.132,0-.216-.1-.216-.288V33.008c.9-.048,2.6-.084,5.088-.108.18,0,.276-.06.276-.18s-.144-.2-.432-.264c.12-.384.276-1.1.42-1.872.156-.1.24-.192.24-.288s-.072-.132-.2-.168a2.406,2.406,0,0,0-.552-.072c-.132,0-.3.12-.564.132-.66.048-2.6.084-4.02.072a9.317,9.317,0,0,1-1.56-.108c-.144-.012-.216.024-.216.12,0,.06.06.12.168.18a7.75,7.75,0,0,0,.972.384,1.108,1.108,0,0,0,.264.048.487.487,0,0,0,.2-.06,2.928,2.928,0,0,1,1.188-.252c.516-.036,2.184-.048,3.324-.012A12.665,12.665,0,0,1-4.4,32.408c-.06.108-.12.156-.192.156-1.284.06-2.664.1-4.116.1a.541.541,0,0,1-.156-.012,1.269,1.269,0,0,0-.264-.084,6.352,6.352,0,0,0-1.128-.06c-.168.012-.252.06-.252.132s.048.084.156.108a1.431,1.431,0,0,1,.78.348v1.632a.807.807,0,0,0,.24.672.809.809,0,0,0,.552.108l1.92-.036v2.244c-1,.024-1.98.024-2.976.024a11.043,11.043,0,0,1-1.8-.144c-.12-.024-.18,0-.18.06a.257.257,0,0,0,.144.216,3.694,3.694,0,0,0,1.14.516,1.264,1.264,0,0,0,.216.036.377.377,0,0,0,.144-.048,3.4,3.4,0,0,1,1.128-.228c1.26-.108,3.18-.156,5.76-.156.528,0,1.008.024,1.4.06S-1.32,37.988-1.32,37.736ZM9.72,29.864q0-.126-.18-.18a1.987,1.987,0,0,0-.612-.084c-.192,0-.324.108-.576.12-1.908.1-3.18.132-3.8.12a8.6,8.6,0,0,1-1.44-.144c-.156-.024-.228.012-.228.108,0,.06.06.12.168.18a9.189,9.189,0,0,0,.936.4,1.284,1.284,0,0,0,.276.06.506.506,0,0,0,.216-.048,3.206,3.206,0,0,1,1.176-.24C6.66,30.1,7.6,30.08,8.424,30.08A18.49,18.49,0,0,1,2.3,33.632c-.108.036-.156.072-.156.132s.036.108.1.108a.538.538,0,0,0,.132-.012,18.1,18.1,0,0,0,4.272-1.668l3.876,1.14a.969.969,0,0,0,.228.036c.168,0,.252-.06.252-.216,0-.108-.072-.2-.228-.288A3.96,3.96,0,0,0,9.7,32.42a2.366,2.366,0,0,0-.672-.036,3.405,3.405,0,0,1-.54-.108L7.1,31.928a12.362,12.362,0,0,0,2.208-1.716.575.575,0,0,1,.132-.1C9.624,30.02,9.72,29.936,9.72,29.864Zm2.16,5.148c0-.132-.084-.216-.276-.276a4.373,4.373,0,0,0-1.092-.144.77.77,0,0,0-.372.108,4.024,4.024,0,0,1-1.272.192C7.056,34.964,5.208,35,3.36,35a10.035,10.035,0,0,1-1.8-.12c-.12-.024-.18-.012-.18.048a.29.29,0,0,0,.144.216,3.6,3.6,0,0,0,1.14.516.633.633,0,0,0,.216.036.377.377,0,0,0,.144-.048,3.171,3.171,0,0,1,1.128-.216c.576-.048,1.3-.084,2.148-.108v3.8c0,.6.06.9.192.9q.234,0,.36-.936a23.576,23.576,0,0,0,.132-2.736V35.3c.852-.012,1.836-.024,2.928-.024.528,0,1.008.024,1.4.06S11.88,35.276,11.88,35.012Zm7.8-2.388a2.1,2.1,0,0,0-.852-1.728,3,3,0,0,0-1.416-.588,1.056,1.056,0,0,0,.2-.384c0-.084-.048-.144-.144-.216a1.228,1.228,0,0,0-.672-.2c-.132,0-.192.036-.192.1s.024.084.084.12a.4.4,0,0,1,.216.324.341.341,0,0,1-.108.228,3.217,3.217,0,0,0-1.836.624,2.172,2.172,0,0,0-.024,3.468,3.021,3.021,0,0,0,1.944.624,3,3,0,0,0,1.944-.624A2.11,2.11,0,0,0,19.68,32.624Zm-.672.048a1.729,1.729,0,0,1-.54,1.284,2.176,2.176,0,0,1-1.56.552,2.1,2.1,0,0,1-1.5-.528,1.675,1.675,0,0,1-.588-1.308,1.9,1.9,0,0,1,2.088-1.86,2.262,2.262,0,0,1,1.548.552A1.786,1.786,0,0,1,19.008,32.672ZM15.84,35.66c.012-.108-.036-.144-.168-.18a5.354,5.354,0,0,0-1.212-.192c-.228,0-.36.048-.36.156,0,.048.06.1.168.132.48.12.768.288.852.492l.144,1.74H13.74a9.848,9.848,0,0,1-1.8-.144q-.18-.036-.18.072c0,.06.048.132.144.2a3.433,3.433,0,0,0,1.14.516.929.929,0,0,0,.216.024.3.3,0,0,0,.144-.036,3.74,3.74,0,0,1,1.128-.228c1.26-.108,3.18-.156,5.76-.156.552,0,1.008.024,1.4.06s.564-.06.564-.312c0-.144-.084-.228-.276-.276a3.88,3.88,0,0,0-1.092-.144.9.9,0,0,0-.372.1,4.236,4.236,0,0,1-1.272.216,2.312,2.312,0,0,1-.288.012l.372-1.788c.036-.18.06-.312.072-.408.024-.072-.036-.144-.168-.192a5.014,5.014,0,0,0-1.1-.264c-.228-.036-.36,0-.372.108-.012.072.048.144.156.18a1.066,1.066,0,0,1,.732.528l-.216,1.86c-.852.024-1.728.048-2.592.06L15.8,36.068A2.343,2.343,0,0,1,15.84,35.66ZM34.5,39.092c0-.4-.4-.372-1.224-.372a.636.636,0,0,0-.336.12,2.689,2.689,0,0,1-1.068.192c-.708.036-1.56.048-2.52.036a.242.242,0,0,1-.276-.276V37.76c0-.192,0-.264.012-.216,1.128-.048,2.6-.084,4.452-.1.192,0,.288-.06.288-.192,0-.108-.144-.2-.456-.24a5.954,5.954,0,0,0,.264-1.236.3.3,0,0,1,.168-.192.2.2,0,0,0,.1-.156.145.145,0,0,0-.072-.108,1.608,1.608,0,0,0-.744-.144,4.753,4.753,0,0,0-.552.144c-1.2.084-2.364.12-3.468.1a10.47,10.47,0,0,1-1.3-.108c-.132-.012-.192.012-.192.1a.168.168,0,0,0,.1.132,8.449,8.449,0,0,0,.924.4.627.627,0,0,0,.252.048,1.04,1.04,0,0,0,.312-.1,2.189,2.189,0,0,1,.84-.132c1-.06,1.944-.084,2.892-.1v1.32a.206.206,0,0,1-.192.132c-1.008.06-2.136.084-3.42.084a.545.545,0,0,1-.168-.012,1.212,1.212,0,0,0-.252-.084,6.437,6.437,0,0,0-1.1-.1c-.18,0-.276.048-.276.156,0,.06.048.1.156.12a1.731,1.731,0,0,1,.78.324v.948a.883.883,0,0,0,.228.72.972.972,0,0,0,.684.132c1.776-.012,3.348-.024,4.74-.036C34.368,39.368,34.5,39.272,34.5,39.092Zm-3.336-8.736c0-.072-.06-.132-.2-.168A2.138,2.138,0,0,0,30.4,30.1a.761.761,0,0,0-.3.084,1.078,1.078,0,0,1-.312.06,24.621,24.621,0,0,1-2.532.072,7.743,7.743,0,0,1-1.2-.084q-.144-.018-.144.072c0,.072.036.12.12.18a3.621,3.621,0,0,0,.9.372.666.666,0,0,0,.2.036.367.367,0,0,0,.18-.084,1.3,1.3,0,0,1,.564-.132c.54-.048,1.248-.072,2.172-.072a12.96,12.96,0,0,1-2,2.292A17.049,17.049,0,0,1,25.5,34.844c-.084.048-.12.1-.12.132q0,.108.072.108a.448.448,0,0,0,.144-.024,13.945,13.945,0,0,0,3.66-2.412l2.1,1.74a.39.39,0,0,0,.288.12c.132,0,.192-.072.192-.216a.482.482,0,0,0-.036-.18,2.145,2.145,0,0,0-.552-.756,1.444,1.444,0,0,0-.5-.192,1.556,1.556,0,0,1-.552-.312l-.636-.5a9.612,9.612,0,0,0,1.26-1.548.594.594,0,0,1,.2-.216A.26.26,0,0,0,31.164,30.356ZM33.624,29a4.979,4.979,0,0,0-1.512-.24c-.252,0-.372.06-.372.192,0,.06.06.1.168.12a2.36,2.36,0,0,1,1.224.624v4.416c0,.5.084.768.252.768s.276-.264.348-.78a8.572,8.572,0,0,0,.084-1.332V30.032c0-.048,0-.192.012-.444a.881.881,0,0,1,.024-.288A.31.31,0,0,0,33.624,29Zm7.536,1.116a.23.23,0,0,0-.168-.228,3.765,3.765,0,0,0-1.26-.24q-.36,0-.36.144a.14.14,0,0,0,.12.144,2.229,2.229,0,0,1,.9.54v1.308l-3.072.06.012-.684a1.045,1.045,0,0,1,.012-.228,1.456,1.456,0,0,0,.012-.216c0-.18-.1-.276-.3-.312a5.423,5.423,0,0,0-1.176-.132c-.144,0-.384.132-.384.216,0,.156.288.156.672.312a.911.911,0,0,1,.42.288l.084,3.744c.012.372.072.576.18.576.2,0,.348-.264.432-.78l3.108-.072q0,.54.18.54c.192,0,.324-.228.408-.684a3.458,3.458,0,0,0,.084-.612v-.276a2.9,2.9,0,0,0,.7.276.783.783,0,0,0,.132.024.322.322,0,0,0,.156-.048,3.421,3.421,0,0,1,.48-.12,8.107,8.107,0,0,1,1.128-.072v1.56c0,.528.084.78.252.78s.276-.264.348-.792a10,10,0,0,0,.072-1.32v-3.78c0-.048.012-.192.024-.444a.881.881,0,0,1,.024-.288.32.32,0,0,0-.24-.3,4.962,4.962,0,0,0-1.5-.24c-.252,0-.372.06-.372.192,0,.06.048.1.156.12a2.323,2.323,0,0,1,1.236.636v1.356a11.855,11.855,0,0,1-1.632.084,8.238,8.238,0,0,1-.924-.036v-.288a4.132,4.132,0,0,1,.012-.432C41.124,30.332,41.16,30.152,41.16,30.116Zm.516,4.968c-.12,0-.18.048-.18.132,0,.06.288.192.288.324a.186.186,0,0,1-.084.12,2.64,2.64,0,0,0-1.7.552,1.862,1.862,0,0,0-.672,1.464A1.838,1.838,0,0,0,40,39.128a2.709,2.709,0,0,0,1.764.576,2.641,2.641,0,0,0,1.752-.588,1.87,1.87,0,0,0,0-2.892,2.373,2.373,0,0,0-1.3-.528,1.015,1.015,0,0,0,.168-.276c0-.036-.036-.084-.12-.144A.984.984,0,0,0,41.676,35.084Zm1.872,2.568A1.615,1.615,0,0,1,41.772,39.2a1.58,1.58,0,0,1-1.752-1.548,1.47,1.47,0,0,1,.5-1.1,1.762,1.762,0,0,1,1.248-.456A1.61,1.61,0,0,1,43.548,37.652Zm-3.156-3.48-3.084.072.012-2,3.072-.084Zm1.344-2.484a.589.589,0,0,0,.132.012.542.542,0,0,0,.156-.036,3.871,3.871,0,0,1,.48-.132,8.468,8.468,0,0,1,1.152-.072v1.716a14.053,14.053,0,0,1-1.608.1c-.48-.012-.792-.012-.972-.036l.012-1.812A4.827,4.827,0,0,0,41.736,31.688Zm12.408-1.764a.23.23,0,0,0-.168-.228,4.265,4.265,0,0,0-.612-.144,3.589,3.589,0,0,0-.66-.084c-.228,0-.324.048-.324.132a.13.13,0,0,0,.108.144,2.133,2.133,0,0,1,.9.54v1.248l-3.06.072.012-.72a1.382,1.382,0,0,1,.012-.24.713.713,0,0,0,.012-.132.32.32,0,0,0-.3-.336,8.619,8.619,0,0,0-1.176-.108c-.132,0-.372.12-.372.2,0,.168.3.168.66.324a1.015,1.015,0,0,1,.408.276l.084,3.468c.024.36.084.54.192.54.192,0,.336-.276.42-.792L53.388,34c0,.42.06.624.168.624.18,0,.312-.216.408-.648a3.47,3.47,0,0,0,.084-.7l.036-2.664a3.444,3.444,0,0,1,.024-.42A2.494,2.494,0,0,0,54.144,29.924Zm3.4,9.168c0-.36-.42-.36-1.224-.36a.7.7,0,0,0-.36.132,2.723,2.723,0,0,1-1.128.18c-.78.036-1.584.06-2.388.048-.156-.012-.24-.1-.24-.288v-1a1.378,1.378,0,0,1,.012-.216c1.068-.06,2.556-.1,4.392-.108.18,0,.276-.072.276-.2,0-.084-.144-.156-.444-.228a8.475,8.475,0,0,0,.312-1.236.318.318,0,0,1,.156-.192c.06-.036.108-.072.108-.132s-.048-.108-.132-.132a2.747,2.747,0,0,0-.66-.12c-.192,0-.288.132-.54.144a34.622,34.622,0,0,1-3.516.108,9.227,9.227,0,0,1-1.284-.1c-.132-.024-.192,0-.192.084a.122.122,0,0,0,.084.108,2.652,2.652,0,0,0,1.176.48.855.855,0,0,0,.312-.108,2.192,2.192,0,0,1,.828-.144c.9-.048,1.9-.072,2.916-.1,0,.624-.012,1.068-.024,1.32a.258.258,0,0,1-.18.12c-1.2.06-2.34.084-3.42.084a.414.414,0,0,1-.144-.012,2.722,2.722,0,0,0-.264-.084,7.651,7.651,0,0,0-1.116-.1c-.192,0-.288.06-.288.156,0,.06.06.1.168.12a1.8,1.8,0,0,1,.792.324v.912a.967.967,0,0,0,.228.708,1.172,1.172,0,0,0,.66.144c.18,0,.888,0,2.136-.012,1.38-.012,2.22-.024,2.532-.024S57.54,39.284,57.54,39.092Zm-.6-9.78A.29.29,0,0,0,56.712,29a4.945,4.945,0,0,0-1.488-.24c-.264,0-.384.06-.384.192,0,.06.06.1.168.12a2.366,2.366,0,0,1,1.212.624v4.512c0,.528.084.78.264.78.156,0,.264-.264.336-.792a8.462,8.462,0,0,0,.084-1.368c.264-.012.528-.012.8-.036.576-.012.912-.024,1.044-.024.324,0,.48-.108.48-.324a.312.312,0,0,0-.24-.288,2.119,2.119,0,0,0-1.128.012,2,2,0,0,0-.228.144,1.1,1.1,0,0,1-.732.2V30.032c0-.048,0-.192.012-.444S56.94,29.252,56.94,29.312Zm-3.552,4.3-3.072.072.012-1.692,3.06-.072ZM64.74,30.116a.23.23,0,0,0-.168-.228,3.765,3.765,0,0,0-1.26-.24q-.36,0-.36.144a.14.14,0,0,0,.12.144,2.229,2.229,0,0,1,.9.54v1.308l-3.072.06.012-.684a1.045,1.045,0,0,1,.012-.228,1.456,1.456,0,0,0,.012-.216c0-.18-.1-.276-.3-.312a5.423,5.423,0,0,0-1.176-.132c-.144,0-.384.132-.384.216,0,.156.288.156.672.312a.911.911,0,0,1,.42.288l.084,3.744c.012.372.072.576.18.576.2,0,.348-.264.432-.78l3.108-.072q0,.54.18.54c.192,0,.324-.228.408-.684a3.458,3.458,0,0,0,.084-.612v-.276a2.9,2.9,0,0,0,.7.276.783.783,0,0,0,.132.024.322.322,0,0,0,.156-.048,3.421,3.421,0,0,1,.48-.12,8.107,8.107,0,0,1,1.128-.072v1.56c0,.528.084.78.252.78s.276-.264.348-.792a10,10,0,0,0,.072-1.32v-3.78c0-.048.012-.192.024-.444a.881.881,0,0,1,.024-.288.32.32,0,0,0-.24-.3,4.962,4.962,0,0,0-1.5-.24c-.252,0-.372.06-.372.192,0,.06.048.1.156.12a2.323,2.323,0,0,1,1.236.636v1.356a11.855,11.855,0,0,1-1.632.084,8.238,8.238,0,0,1-.924-.036v-.288a4.132,4.132,0,0,1,.012-.432C64.7,30.332,64.74,30.152,64.74,30.116Zm.516,4.968c-.12,0-.18.048-.18.132,0,.06.288.192.288.324a.186.186,0,0,1-.084.12,2.64,2.64,0,0,0-1.7.552,1.862,1.862,0,0,0-.672,1.464,1.838,1.838,0,0,0,.672,1.452,2.709,2.709,0,0,0,1.764.576,2.641,2.641,0,0,0,1.752-.588,1.87,1.87,0,0,0,0-2.892,2.373,2.373,0,0,0-1.3-.528,1.015,1.015,0,0,0,.168-.276c0-.036-.036-.084-.12-.144A.984.984,0,0,0,65.256,35.084Zm1.872,2.568A1.615,1.615,0,0,1,65.352,39.2,1.58,1.58,0,0,1,63.6,37.652a1.47,1.47,0,0,1,.5-1.1,1.762,1.762,0,0,1,1.248-.456A1.61,1.61,0,0,1,67.128,37.652Zm-3.156-3.48-3.084.072.012-2,3.072-.084Zm1.344-2.484a.589.589,0,0,0,.132.012.542.542,0,0,0,.156-.036,3.871,3.871,0,0,1,.48-.132,8.468,8.468,0,0,1,1.152-.072v1.716a14.053,14.053,0,0,1-1.608.1c-.48-.012-.792-.012-.972-.036l.012-1.812A4.827,4.827,0,0,0,65.316,31.688ZM76.38,34.46v-.072c.456-.012.936-.012,1.452-.012s1.008.024,1.4.06.564-.06.564-.3c0-.144-.084-.24-.276-.288a4.392,4.392,0,0,0-1.092-.132.876.876,0,0,0-.372.084,3.951,3.951,0,0,1-1.272.2c-1.92.1-3.756.132-5.508.132a9.847,9.847,0,0,1-1.8-.144q-.18-.036-.18.072c0,.06.048.132.144.2a3.376,3.376,0,0,0,1.14.516q.2.036.216.036a.377.377,0,0,0,.144-.048,3.652,3.652,0,0,1,1.128-.228c.2-.012.444-.036.7-.048v1.1a1.648,1.648,0,0,0,.024.372h-.18a9.3,9.3,0,0,1-1.272-.12c-.132-.024-.192,0-.192.072a.152.152,0,0,0,.084.132,2.465,2.465,0,0,0,1.176.492.611.611,0,0,0,.3-.12,2.49,2.49,0,0,1,.828-.132c.972-.06,1.98-.1,2.976-.1a8.538,8.538,0,0,1-.06,1.128.212.212,0,0,1-.18.108c-1.224.06-2.412.1-3.564.1a.533.533,0,0,1-.156-.024,1.963,1.963,0,0,0-.252-.084,6.946,6.946,0,0,0-1.14-.072c-.192.012-.276.06-.276.132s.06.1.18.12a1.519,1.519,0,0,1,.78.36v.672a.949.949,0,0,0,.228.708,1.03,1.03,0,0,0,.672.144c1.428-.024,3.048-.048,4.86-.036.312,0,.468-.1.468-.3,0-.336-.444-.336-1.236-.336a.706.706,0,0,0-.36.12,3.252,3.252,0,0,1-1.164.18c-1.032.048-1.9.06-2.544.048-.168-.012-.252-.1-.252-.288v-.792c0,.036,0-.036.012-.2.744-.036,2.28-.072,4.56-.1.192,0,.276-.06.276-.192,0-.108-.144-.18-.444-.24a5.865,5.865,0,0,0,.336-1.056.318.318,0,0,1,.156-.192.162.162,0,0,0,.108-.144c0-.06-.048-.1-.132-.12a2.314,2.314,0,0,0-.648-.12c-.18,0-.3.108-.5.132a2.239,2.239,0,0,0,.084-.4A7.927,7.927,0,0,0,76.38,34.46Zm1.5-1.74c0-.132-.084-.216-.276-.228a6.043,6.043,0,0,0-1.044-.024.687.687,0,0,0-.384.12,2.951,2.951,0,0,1-.972.156,22.648,22.648,0,0,1-2.448.06c-.18,0-.264-.1-.264-.288v-.768c0-.2,0-.276.012-.24,1.188-.06,2.736-.108,4.62-.132.192-.012.288-.072.288-.2,0-.108-.144-.216-.432-.276a9.1,9.1,0,0,0,.372-1.14c.144-.12.216-.2.216-.264,0-.084-.06-.144-.192-.18a2.128,2.128,0,0,0-.552-.084,3.55,3.55,0,0,1-.612.144c-1.212.072-2.34.108-3.348.12a9.048,9.048,0,0,1-1.584-.1c-.144-.036-.216,0-.216.1,0,.06.06.12.192.192a3.986,3.986,0,0,0,.792.348,1.284,1.284,0,0,0,.276.06.328.328,0,0,0,.168-.048,4.136,4.136,0,0,1,1.356-.24,25.445,25.445,0,0,1,2.724-.06,3.657,3.657,0,0,1-.048,1.116.2.2,0,0,1-.18.168c-1.56.084-2.784.12-3.66.12a.371.371,0,0,1-.156-.024,1.8,1.8,0,0,0-.264-.072A4.856,4.856,0,0,0,71.088,31c-.192.012-.276.06-.276.168,0,.036.048.06.156.084a1.926,1.926,0,0,1,.852.36v.7a.9.9,0,0,0,.228.708,1.027,1.027,0,0,0,.684.132c1.4-.048,2.976-.084,4.692-.1C77.724,33.056,77.88,32.948,77.88,32.72Zm-4.44,1.764V34.46q.972-.054,2.268-.072v1.2a2.222,2.222,0,0,0,.012.3c-.816.06-1.632.084-2.436.084a2.2,2.2,0,0,0,.1-.42A9.523,9.523,0,0,0,73.44,34.484Zm14.64-5.172A.3.3,0,0,0,87.84,29a4.81,4.81,0,0,0-1.476-.24c-.264,0-.384.06-.384.192,0,.06.06.1.168.12a2.288,2.288,0,0,1,1.212.636v5.844c-.78.18-1.788.372-3.036.576-.456.084-.912.144-1.356.2L83,33.992a2.676,2.676,0,0,1,.036-.4c.012-.108-.048-.168-.156-.2a5.373,5.373,0,0,0-1.128-.108c-.228,0-.36.048-.36.156,0,.072.06.12.168.144a1.562,1.562,0,0,1,.8.432l.012,2.376c-.4.036-.78.06-1.164.084a6.421,6.421,0,0,1-1.428-.108c-.132-.024-.216.012-.216.108s.06.144.156.2a3.738,3.738,0,0,0,1.428.6.709.709,0,0,0,.264-.1,1.548,1.548,0,0,1,.42-.156c.6-.072,1.476-.228,2.592-.456,1.056-.228,2.028-.468,2.928-.744V39.14c0,.588.06.876.2.876s.264-.276.348-.852a22.959,22.959,0,0,0,.12-2.8V34.2c.684-.012,1.3-.036,1.86-.048.324,0,.48-.108.48-.348a.289.289,0,0,0-.24-.276,1.988,1.988,0,0,0-1.092.012,1.148,1.148,0,0,0-.228.132.916.916,0,0,1-.384.144,3.322,3.322,0,0,1-.4.024v-3.8C88.032,29.888,88.08,29.468,88.08,29.312Zm-2.028,1.644c0-.072-.06-.132-.192-.168a2.425,2.425,0,0,0-.564-.108.646.646,0,0,0-.312.108.705.705,0,0,1-.324.072c-1.224.1-2.136.156-2.724.156a10.119,10.119,0,0,1-1.452-.108c-.132-.024-.2.012-.2.108q0,.09.144.18a3.565,3.565,0,0,0,.828.42,2,2,0,0,0,.288.06,1.06,1.06,0,0,0,.192-.072,3.314,3.314,0,0,1,1.14-.276c1.008-.06,1.728-.084,2.124-.1,0,.444-.024,1.008-.072,1.68-.1.924-.168,1.56-.228,1.92a1.533,1.533,0,0,0-.024.2c0,.108.024.168.072.168.108,0,.192-.084.264-.264a8.9,8.9,0,0,0,.528-1.872c.144-.732.216-1.4.264-1.788Q86.052,31.082,86.052,30.956ZM-62.526,56.8a1.849,1.849,0,0,0-.684-1.452,2.647,2.647,0,0,0-1.464-.552.987.987,0,0,0,.228-.3c0-.036-.048-.108-.156-.168a1.041,1.041,0,0,0-.6-.18c-.12,0-.168.036-.168.132s.288.192.288.324a.52.52,0,0,1-.156.192,2.625,2.625,0,0,0-1.524.54,1.8,1.8,0,0,0-.684,1.464,1.783,1.783,0,0,0,.684,1.428A2.645,2.645,0,0,0-65,58.8a2.684,2.684,0,0,0,1.788-.564A1.792,1.792,0,0,0-62.526,56.8Zm-2-7.848a.305.305,0,0,0-.192-.312,4.2,4.2,0,0,0-1.26-.252c-.228,0-.348.06-.348.168,0,.06.06.108.168.132a1.552,1.552,0,0,1,.948.528v3.972c0,.48.072.708.24.708s.264-.264.348-.768q.054-.468.072-1.3l1.548-.048v2.592c0,.456.072.7.228.7s.276-.24.36-.7a8.441,8.441,0,0,0,.06-1.212V48.972a2.535,2.535,0,0,1,.036-.372,1.773,1.773,0,0,0,.012-.252.289.289,0,0,0-.216-.312,4.448,4.448,0,0,0-1.4-.276c-.252,0-.372.06-.372.192,0,.048.06.084.168.108a2.063,2.063,0,0,1,1.128.636v2.712l-1.548.048V49.212C-64.554,49.128-64.53,49-64.53,48.948Zm1.344,7.824A1.6,1.6,0,0,1-64.974,58.3a1.572,1.572,0,0,1-1.776-1.524,1.61,1.61,0,0,1,1.776-1.56A1.607,1.607,0,0,1-63.186,56.772Zm-4.512-6.8q0-.126-.18-.252a3.01,3.01,0,0,0-1.044-.408,2.251,2.251,0,0,0-.24-.036c-.24,0-.348.036-.348.12,0,.06.06.108.192.156a1.168,1.168,0,0,1,.768.708,8.932,8.932,0,0,1-2.676,3.96.461.461,0,0,0-.168.24c0,.06.024.1.06.1a.567.567,0,0,0,.252-.108,8.837,8.837,0,0,0,2.6-2.616l1.776,1.836a.851.851,0,0,0,.468.288c.12,0,.18-.084.192-.252.012-.132-.18-.432-.576-.936a.979.979,0,0,0-.5-.3,1.426,1.426,0,0,1-.432-.324l-.72-.672a7.166,7.166,0,0,0,.5-1.212A1.51,1.51,0,0,0-67.7,49.968Zm9.888.228a.13.13,0,0,0-.084-.132,1.186,1.186,0,0,0-.576-.2c-.18,0-.264.036-.264.1a.146.146,0,0,0,.072.12q.216.126.216.252a.248.248,0,0,1-.06.18,2.454,2.454,0,0,0-1.608.6,2.093,2.093,0,0,0-.744,1.656,2.159,2.159,0,0,0,.708,1.656,2.448,2.448,0,0,0,1.728.624,2.474,2.474,0,0,0,1.728-.612,2.157,2.157,0,0,0,.7-1.668,2.061,2.061,0,0,0-.708-1.62,2.378,2.378,0,0,0-1.26-.6A1.044,1.044,0,0,0-57.81,50.2Zm3.708-1.08a.3.3,0,0,0-.2-.312,4.2,4.2,0,0,0-1.26-.252c-.228,0-.348.06-.348.168,0,.072.06.108.168.132a1.5,1.5,0,0,1,.948.528v7.884c0,.552.06.816.192.816.216,0,.348-.576.408-1.74.036-.708.06-1.26.06-1.644V53.064l1.476-.06v4.98c0,.7.06,1.032.192,1.032s.336-.516.4-1.236c.048-.684.072-1.4.072-2.148v-6.66a2.675,2.675,0,0,1,.036-.384,1.627,1.627,0,0,0,.024-.24.316.316,0,0,0-.228-.312,4.573,4.573,0,0,0-1.392-.276c-.252,0-.384.06-.384.192,0,.048.048.084.156.108a2.02,2.02,0,0,1,1.128.636v3.936l-1.476.048v-3.3A2.08,2.08,0,0,1-54.1,49.116Zm-2.544,3.648a1.71,1.71,0,0,1-.5,1.26,1.71,1.71,0,0,1-1.26.5,1.7,1.7,0,0,1-1.248-.5,1.719,1.719,0,0,1-.48-1.26,1.71,1.71,0,0,1,.48-1.248A1.666,1.666,0,0,1-58.41,51a1.693,1.693,0,0,1,1.26.516A1.682,1.682,0,0,1-56.646,52.764Zm14.964-1.032A2.039,2.039,0,0,0-42.39,50.1a2.581,2.581,0,0,0-1.332-.576.789.789,0,0,0,.192-.36.277.277,0,0,0-.144-.24,1.662,1.662,0,0,0-.744-.168c-.132,0-.216.048-.216.108s.024.084.1.12c.156.084.24.18.24.276a.28.28,0,0,1-.12.24,2.538,2.538,0,0,0-1.548.612,2.006,2.006,0,0,0-.768,1.62,2.054,2.054,0,0,0,.72,1.62,2.683,2.683,0,0,0,1.812.624,2.715,2.715,0,0,0,1.812-.612A2.108,2.108,0,0,0-41.682,51.732Zm2.568-3.42a.3.3,0,0,0-.24-.312,4.962,4.962,0,0,0-1.5-.24c-.252,0-.372.06-.372.192,0,.06.048.1.156.12a2.323,2.323,0,0,1,1.236.636v6.156c-.7.132-1.8.288-3.276.48-1,.132-2.088.228-3.3.288a6.4,6.4,0,0,1-1.428-.1c-.132-.024-.2,0-.2.084a.257.257,0,0,0,.144.216,4.343,4.343,0,0,0,1.2.54c.1.012.168.024.2.024a.63.63,0,0,0,.276-.084,1.442,1.442,0,0,1,.42-.144c.888-.108,1.848-.228,2.844-.384a30.216,30.216,0,0,0,3.12-.624V58.14c0,.588.06.876.2.876s.264-.276.336-.852a22.484,22.484,0,0,0,.132-2.784V49.032C-39.162,48.888-39.114,48.468-39.114,48.312ZM-44.19,50.04a1.815,1.815,0,0,1,1.308.48,1.625,1.625,0,0,1,.516,1.212,1.583,1.583,0,0,1-.528,1.224,1.746,1.746,0,0,1-1.3.492,1.784,1.784,0,0,1-1.284-.5,1.606,1.606,0,0,1-.516-1.212,1.659,1.659,0,0,1,.5-1.212A1.805,1.805,0,0,1-44.19,50.04Zm15.384,3.744c0-.132-.084-.228-.252-.252a8.5,8.5,0,0,0-1.08-.048.83.83,0,0,0-.36.132,2.407,2.407,0,0,1-1.008.192c-1.308.06-2.364.084-3.12.072-.144,0-.228-.1-.228-.3v-1.5a1.035,1.035,0,0,1,.012-.2c.9-.048,2.628-.1,5.148-.12.192,0,.288-.048.288-.168s-.156-.2-.456-.264a14.476,14.476,0,0,0,.408-1.752c.168-.1.252-.18.252-.276s-.06-.132-.2-.168a2.5,2.5,0,0,0-.564-.072,4.751,4.751,0,0,1-.552.132c-.72.048-2.028.072-3.912.072a9.064,9.064,0,0,1-1.548-.108c-.156-.012-.228.024-.228.12,0,.06.06.12.168.18a8.546,8.546,0,0,0,.972.384,1.108,1.108,0,0,0,.264.048.394.394,0,0,0,.2-.048,3.012,3.012,0,0,1,1.2-.264c.564-.036,2.04-.048,3.192-.012a11.68,11.68,0,0,1-.1,1.716q-.09.144-.18.144-1.98.108-4.176.108a.445.445,0,0,1-.168-.024,2.264,2.264,0,0,0-.252-.072,6.483,6.483,0,0,0-1.14-.06c-.168.012-.252.048-.252.12s.048.1.156.132a1.877,1.877,0,0,1,.78.348v1.476a.87.87,0,0,0,.24.672.809.809,0,0,0,.552.108c2.436-.06,4.26-.084,5.5-.084C-28.95,54.144-28.806,54.024-28.806,53.784Zm-4.824,1.344c.012-.108-.036-.168-.156-.192a5.137,5.137,0,0,0-1.248-.2c-.24,0-.36.048-.36.168q0,.108.18.144a2.1,2.1,0,0,1,.492.18c.2.1.324.192.36.3l.024,1.2H-35.79a11.161,11.161,0,0,1-1.8-.132c-.12-.024-.18-.012-.18.048a.257.257,0,0,0,.144.216,3.738,3.738,0,0,0,1.14.528,1.264,1.264,0,0,0,.216.036.377.377,0,0,0,.144-.048A2.872,2.872,0,0,1-35,57.144c1.26-.108,3.18-.168,5.76-.168a12,12,0,0,1,1.4.072c.384.036.564-.06.564-.312,0-.144-.084-.228-.276-.288a4.392,4.392,0,0,0-1.092-.132.9.9,0,0,0-.372.1,5.247,5.247,0,0,1-1.44.192l.228-1.344q.018-.126.072-.4c.024-.108-.024-.168-.144-.2a10.227,10.227,0,0,0-1.176-.228c-.228-.024-.36.012-.372.12-.012.072.036.12.156.156.444.156.7.312.756.492L-31,56.628c-.84.036-1.74.072-2.736.084l.06-1.176C-33.666,55.4-33.654,55.272-33.63,55.128Zm15.12-6.816A.29.29,0,0,0-18.738,48a4.979,4.979,0,0,0-1.512-.24c-.252,0-.372.06-.372.192,0,.06.06.1.168.12a2.283,2.283,0,0,1,1.224.636V58.14c0,.588.072.876.2.876.156,0,.264-.276.348-.852a22.484,22.484,0,0,0,.132-2.784V49.032C-18.546,48.888-18.51,48.468-18.51,48.312Zm-2.94,1.524a.228.228,0,0,0-.18-.228,4.076,4.076,0,0,0-1.284-.264c-.156,0-.36.108-.36.192s.036.12.132.156a1.991,1.991,0,0,1,.924.468v1.86l-3.216.048.012-1.188a1.534,1.534,0,0,1,.012-.252,1.394,1.394,0,0,1,.012-.156c0-.18-.1-.276-.3-.312a8.54,8.54,0,0,0-1.2-.12c-.144,0-.324.12-.324.216s.1.144.2.168a1.557,1.557,0,0,1,.864.432l.072,4.668q0,.5.18.5c.192,0,.348-.276.432-.852l3.252-.036q0,.648.18.648c.192,0,.324-.216.408-.66a3.921,3.921,0,0,0,.06-.684l.06-3.888c0-.156,0-.3.012-.408C-21.5,50.1-21.45,49.884-21.45,49.836Zm-.768,4.9-3.228.048.012-2.292,3.216-.084Zm11.676-4.7c0-.12-.2-.216-.588-.216-.084,0-.312.1-.528.132a9.786,9.786,0,0,1-1,.072c-.132,0-.276,0-.42-.012-.036-.108-.252-.156-.672-.156-.144,0-.312.084-.552.12a9.387,9.387,0,0,1-1.1.06,5.715,5.715,0,0,1-1.008-.084c-.132-.024-.18.036-.18.108s.036.108.132.168a2.416,2.416,0,0,0,.66.324.466.466,0,0,0,.18.024,4.214,4.214,0,0,1,1.536-.252,10.122,10.122,0,0,1-1.044,2.532,11.021,11.021,0,0,1-1.788,2.46.519.519,0,0,0-.12.144c0,.084.036.12.1.12a.24.24,0,0,0,.108-.024,9.528,9.528,0,0,0,2.148-2.412,9.054,9.054,0,0,0,1.3-2.748l.024-.024a2.5,2.5,0,0,0,.384.144.836.836,0,0,0,.228.048.3.3,0,0,0,.18-.06c.18-.144.444-.18,1.128-.192a13.8,13.8,0,0,1-3.024,6.012.307.307,0,0,0-.084.144c0,.072.036.108.1.108a.24.24,0,0,0,.108-.024,11.534,11.534,0,0,0,3.612-6.192,1.061,1.061,0,0,0,.1-.132A.533.533,0,0,0-10.542,50.028Zm2.088-1.812a.3.3,0,0,0-.252-.312,4.9,4.9,0,0,0-1.5-.24c-.24,0-.36.072-.36.2,0,.048.048.084.156.108a2.257,2.257,0,0,1,1.224.648v9.36c0,.588.072.876.2.876.156,0,.264-.276.348-.852A20.094,20.094,0,0,0-8.5,55.224v-1.98c.6-.012,1.164-.036,1.668-.048.324,0,.48-.12.48-.36,0-.132-.084-.216-.24-.264a2.181,2.181,0,0,0-1.044,0,2,2,0,0,0-.228.144,1.026,1.026,0,0,1-.636.2V48.936C-8.5,48.78-8.454,48.372-8.454,48.216ZM-.474,50c0-.084-.06-.144-.192-.18a1.465,1.465,0,0,0-.492-.108c-.156,0-.48.132-.636.144a25,25,0,0,1-2.724.084,11.3,11.3,0,0,1-1.272-.1c-.084-.012-.132.012-.132.072a.2.2,0,0,0,.12.18,3.527,3.527,0,0,0,.96.4.37.37,0,0,0,.12.012.223.223,0,0,0,.132-.048,2.043,2.043,0,0,1,.924-.192c.7-.036,1.4-.06,2.1-.048a14.527,14.527,0,0,1-4.62,5.64c-.084.06-.12.108-.12.144,0,.084.024.12.084.12a.332.332,0,0,0,.156-.036A13.585,13.585,0,0,0-2.418,53.04l2.1,2.328a.435.435,0,0,0,.288.18c.156,0,.228-.072.228-.216a2.168,2.168,0,0,0-.684-1.3,1.115,1.115,0,0,0-.4-.2,1.4,1.4,0,0,1-.528-.348l-.756-.78A10.454,10.454,0,0,0-.81,50.388a.825.825,0,0,1,.216-.2C-.522,50.112-.474,50.052-.474,50ZM2.25,48.312A.29.29,0,0,0,2.022,48,4.979,4.979,0,0,0,.51,47.76c-.252,0-.372.06-.372.192,0,.06.06.1.168.12a2.283,2.283,0,0,1,1.224.636V58.14c0,.588.072.876.2.876.156,0,.264-.276.348-.852a22.484,22.484,0,0,0,.132-2.784V49.032C2.214,48.888,2.25,48.468,2.25,48.312Zm7.872,1.908c0-.072-.024-.1-.084-.132a1.42,1.42,0,0,0-.576-.2c-.18,0-.264.036-.264.108a.145.145,0,0,0,.072.108q.216.126.216.252c0,.048-.012.084-.012.108a2.408,2.408,0,0,0-1.692.636,2.2,2.2,0,0,0-.744,1.716A2.292,2.292,0,0,0,7.77,54.54a2.406,2.406,0,0,0,1.716.636,2.445,2.445,0,0,0,1.74-.636,2.085,2.085,0,0,0,.3-.348q.162.072.36.144a.51.51,0,0,0,.132.024.383.383,0,0,0,.168-.036,2.122,2.122,0,0,1,.456-.12c.192-.024.408-.036.66-.048v3.1q0,.828.18.828c.216,0,.36-.576.42-1.752.036-.744.048-1.308.048-1.68V49.9a2.354,2.354,0,0,1,.012-.372c.012-.168.024-.264.024-.276a.291.291,0,0,0-.2-.312,6.079,6.079,0,0,0-1.272-.24c-.228,0-.336.048-.336.168,0,.048.048.084.156.12a1.608,1.608,0,0,1,.972.54v1.6c-.528.036-.912.048-1.164.048-.372,0-.66,0-.924-.024v-.012A2.557,2.557,0,0,0,10,50.508.58.58,0,0,0,10.122,50.22Zm1.152,2.592a1.821,1.821,0,0,1-.5,1.308,1.768,1.768,0,0,1-2.532.012A2.019,2.019,0,0,1,8.25,51.5a1.767,1.767,0,0,1,2.52,0A1.821,1.821,0,0,1,11.274,52.812Zm4.7-4.464a.316.316,0,0,0-.228-.312,4.573,4.573,0,0,0-1.392-.276c-.252,0-.384.06-.384.192,0,.048.048.084.156.108a2.02,2.02,0,0,1,1.128.636v9.288c0,.7.06,1.032.192,1.032s.336-.516.4-1.236c.048-.684.072-1.4.072-2.148v-6.66a2.674,2.674,0,0,1,.036-.384A1.626,1.626,0,0,0,15.978,48.348Zm-4.26,3.312a.755.755,0,0,0,.144.036.544.544,0,0,0,.192-.036,1.457,1.457,0,0,1,.432-.12c.24-.024.516-.036.816-.048v2.3c-.372.036-.732.048-1.08.048h-.5a2.6,2.6,0,0,0,.2-1.032,2.228,2.228,0,0,0-.3-1.176C11.646,51.648,11.682,51.648,11.718,51.66ZM25.242,49.6c0-.06-.06-.108-.168-.144a2.524,2.524,0,0,0-.648-.108.659.659,0,0,0-.276.084.673.673,0,0,1-.276.06c-1.908.1-3.108.144-3.552.132a8.787,8.787,0,0,1-1.416-.12c-.144-.036-.228,0-.228.084,0,.06.072.132.18.192a5.855,5.855,0,0,0,.96.42,1.347,1.347,0,0,0,.264.048A.471.471,0,0,0,20.3,50.2a3.588,3.588,0,0,1,1.02-.228c.864-.06,1.728-.108,2.544-.12a15.146,15.146,0,0,1-2.748,1.56,20.423,20.423,0,0,1-3.108,1.2c-.1.024-.144.072-.144.132,0,.084.036.12.12.12a.584.584,0,0,0,.144-.012A19.678,19.678,0,0,0,21.8,51.72c.132-.06.264-.108.4-.168l3.816.9a1.5,1.5,0,0,0,.252.024c.132,0,.192-.1.192-.264,0-.084-.072-.168-.2-.24a3.317,3.317,0,0,0-.924-.372,4.211,4.211,0,0,0-.66-.012,2.832,2.832,0,0,1-.744-.048l-1.152-.264a9.521,9.521,0,0,0,2.076-1.308,1.1,1.1,0,0,1,.18-.132C25.17,49.764,25.242,49.68,25.242,49.6Zm-.024,5.88c0-.084-.072-.132-.216-.168a2.084,2.084,0,0,0-.432-.072c-.156,0-.492.1-.624.108-1.3.072-2.508.108-3.624.108a11.452,11.452,0,0,1-1.548-.108c-.156-.012-.228.012-.228.084s.06.144.18.216a3.792,3.792,0,0,0,.96.4.968.968,0,0,0,.264.072.418.418,0,0,0,.2-.072,3.239,3.239,0,0,1,1.176-.24q1.116-.072,3.024-.072v2.22c0,.672.072,1.008.228,1.008s.288-.324.372-.96a8.1,8.1,0,0,0,.072-.852l.024-1.392A.469.469,0,0,0,25.218,55.476ZM27.45,53.7c0-.144-.084-.228-.276-.288a4.392,4.392,0,0,0-1.092-.132.9.9,0,0,0-.372.1,4.024,4.024,0,0,1-1.272.192c-1.812.084-3.66.12-5.508.12a9.939,9.939,0,0,1-1.8-.132c-.12-.024-.18-.012-.18.048a.257.257,0,0,0,.144.216,3.474,3.474,0,0,0,1.14.528,1.264,1.264,0,0,0,.216.036.377.377,0,0,0,.144-.048,2.872,2.872,0,0,1,1.128-.228c1.272-.108,3.192-.168,5.76-.168a12,12,0,0,1,1.4.072C27.27,54.048,27.45,53.952,27.45,53.7Zm-3.84-5.184c0-.156-.144-.24-.4-.24a14.915,14.915,0,0,1-2.52-.18,1.342,1.342,0,0,0-.228-.036q-.144,0-.144.072c0,.168.276.384.78.66a.992.992,0,0,0,.528.12,1.292,1.292,0,0,0,.192-.024c.84-.048,1.308-.072,1.392-.06C23.466,48.828,23.61,48.72,23.61,48.516Zm10.932.6a.287.287,0,0,0-.192-.312,4.277,4.277,0,0,0-1.272-.252c-.228,0-.348.06-.348.168,0,.072.06.108.168.132a1.532,1.532,0,0,1,.96.528v7.884c0,.552.06.816.192.816.2,0,.348-.576.408-1.74.036-.708.048-1.26.048-1.644V53.28l1.512-.036v4.74c0,.7.06,1.032.192,1.032s.324-.516.384-1.236c.048-.684.072-1.4.072-2.148v-6.66a2.674,2.674,0,0,1,.036-.384,1.626,1.626,0,0,0,.024-.24.32.32,0,0,0-.216-.312,4.573,4.573,0,0,0-1.392-.276c-.252,0-.384.06-.384.192,0,.048.048.084.156.108a2.02,2.02,0,0,1,1.128.636V52.86l-1.512.048V49.752a2.354,2.354,0,0,1,.012-.372C34.53,49.212,34.542,49.128,34.542,49.116Zm-6.2,5.148a1.7,1.7,0,0,0,.6,1.308,2.523,2.523,0,0,0,3.12,0,1.675,1.675,0,0,0,.564-1.308,1.743,1.743,0,0,0-.564-1.332,2.2,2.2,0,0,0-1.188-.516.6.6,0,0,0,.168-.324c0-.1-.06-.168-.252-.216a1.168,1.168,0,0,0-.384-.084c-.12,0-.168.048-.168.108,0,.024.024.084.144.168.048.036.072.084.072.2a.2.2,0,0,1-.036.12,2.341,2.341,0,0,0-1.476.552A1.728,1.728,0,0,0,28.338,54.264Zm3.7-.048a1.429,1.429,0,0,1-1.524,1.4,1.511,1.511,0,0,1-1.1-.42,1.323,1.323,0,0,1-.444-.984,1.542,1.542,0,0,1,3.072,0Zm1.392-3.036c0-.132-.108-.252-.36-.3a3.741,3.741,0,0,0-.684-.072.789.789,0,0,0-.48.12,1.665,1.665,0,0,1-.732.168c-.8.048-1.6.072-2.34.072a9.857,9.857,0,0,1-1.284-.1c-.108-.012-.156.012-.156.072a.182.182,0,0,0,.084.168,3.322,3.322,0,0,0,.756.372,1.284,1.284,0,0,0,.276.06.487.487,0,0,0,.2-.06,1.958,1.958,0,0,1,.768-.156q1.224-.09,2.484-.108c.468,0,.816.012,1.044.024C33.282,51.468,33.426,51.372,33.426,51.18Zm-1.644-1.272q0-.27-.4-.252a10.924,10.924,0,0,1-2.172-.156,1.342,1.342,0,0,0-.228-.036q-.144,0-.144.072a.351.351,0,0,0,.1.168,2.179,2.179,0,0,0,.564.456.9.9,0,0,0,.528.12c.108-.012.18-.024.2-.024.492-.024.888-.048,1.164-.06S31.782,50.1,31.782,49.908ZM48.87,48.864q0-.126-.18-.18a1.987,1.987,0,0,0-.612-.084c-.192,0-.324.108-.576.12-1.908.1-3.18.132-3.8.12a8.6,8.6,0,0,1-1.44-.144c-.156-.024-.228.012-.228.108,0,.06.06.12.168.18a9.189,9.189,0,0,0,.936.4,1.284,1.284,0,0,0,.276.06.505.505,0,0,0,.216-.048,3.206,3.206,0,0,1,1.176-.24c1.008-.048,1.944-.072,2.772-.072a18.49,18.49,0,0,1-6.12,3.552c-.108.036-.156.072-.156.132s.036.108.1.108a.538.538,0,0,0,.132-.012A18.1,18.1,0,0,0,45.8,51.192l3.876,1.14a.969.969,0,0,0,.228.036c.168,0,.252-.06.252-.216,0-.108-.072-.2-.228-.288a3.96,3.96,0,0,0-1.08-.444,2.366,2.366,0,0,0-.672-.036,3.405,3.405,0,0,1-.54-.108l-1.38-.348a12.361,12.361,0,0,0,2.208-1.716.575.575,0,0,1,.132-.1C48.774,49.02,48.87,48.936,48.87,48.864Zm2.16,5.148c0-.132-.084-.216-.276-.276a4.373,4.373,0,0,0-1.092-.144.77.77,0,0,0-.372.108,4.024,4.024,0,0,1-1.272.192c-1.812.072-3.66.108-5.508.108a10.035,10.035,0,0,1-1.8-.12c-.12-.024-.18-.012-.18.048a.29.29,0,0,0,.144.216,3.6,3.6,0,0,0,1.14.516.633.633,0,0,0,.216.036.377.377,0,0,0,.144-.048,3.171,3.171,0,0,1,1.128-.216c.576-.048,1.3-.084,2.148-.108v3.8c0,.6.06.9.192.9q.234,0,.36-.936a23.575,23.575,0,0,0,.132-2.736V54.3c.852-.012,1.836-.024,2.928-.024.528,0,1.008.024,1.4.06S51.03,54.276,51.03,54.012Zm8.76-5.7A.29.29,0,0,0,59.562,48a4.979,4.979,0,0,0-1.512-.24c-.252,0-.372.06-.372.192,0,.06.06.1.168.12a2.283,2.283,0,0,1,1.224.636v5.148a24.394,24.394,0,0,1-2.676.732c-1.416.3-2.4.456-2.976.516-.18.012-.264-.1-.264-.3v-3.72c0-.036,0-.192.012-.468.012-.24-.048-.36-.18-.384a8.5,8.5,0,0,0-1.416-.108c-.168,0-.384.108-.384.2,0,.072.048.12.156.132.66.12,1.032.276,1.116.456l.024,3.72a1.337,1.337,0,0,0,.144.756.759.759,0,0,0,.468.36,3.042,3.042,0,0,0,.612-.036,24.378,24.378,0,0,0,2.712-.612,23.856,23.856,0,0,0,2.652-.972V58.14c0,.588.072.876.2.876.156,0,.264-.276.348-.852a22.211,22.211,0,0,0,.132-2.784V49.032C59.754,48.888,59.79,48.468,59.79,48.312Zm8.028,1.224c0-.132-.228-.228-.636-.228-.1,0-.312.108-.528.144a9.049,9.049,0,0,1-.936.048,3.876,3.876,0,0,1-.528,0,.127.127,0,0,0-.084-.072,1.488,1.488,0,0,0-.552-.1c-.156,0-.312.12-.552.132a10.251,10.251,0,0,1-1.1.048,8.044,8.044,0,0,1-1.02-.06c-.12-.024-.168,0-.168.084,0,.06.06.1.156.156a3.2,3.2,0,0,0,.684.336.933.933,0,0,0,.192.024.442.442,0,0,0,.192-.084,2.377,2.377,0,0,1,.48-.108,6.7,6.7,0,0,1,.8-.048,9.42,9.42,0,0,1-1.08,2.292,9.793,9.793,0,0,1-1.692,2.064.285.285,0,0,0-.1.156c0,.072.024.108.084.108a.2.2,0,0,0,.12-.036,8.733,8.733,0,0,0,3.384-4.488c.024-.024.036-.06.06-.084a3.591,3.591,0,0,0,.456.18.666.666,0,0,0,.2.036,2.457,2.457,0,0,1,.624-.2c.12-.012.312-.024.6-.024a10.241,10.241,0,0,1-1.2,2.748,8.076,8.076,0,0,1-1.86,2.16.246.246,0,0,0-.1.168c0,.072.036.108.1.108a.194.194,0,0,0,.108-.036,8.118,8.118,0,0,0,3.7-5.076.784.784,0,0,1,.108-.156A.354.354,0,0,0,67.818,49.536ZM69.786,48.3a.329.329,0,0,0-.252-.312,4.761,4.761,0,0,0-1.488-.228c-.264,0-.384.06-.384.192,0,.06.048.1.156.108a2.512,2.512,0,0,1,1.224.636v6.372c0,.672.072,1,.228,1s.264-.324.36-.984a12.059,12.059,0,0,0,.1-1.584V52.62c.672-.012,1.272-.036,1.776-.048.324,0,.48-.108.48-.348a.271.271,0,0,0-.24-.276,2.394,2.394,0,0,0-1.128.012,2,2,0,0,0-.228.144,1.035,1.035,0,0,1-.66.192V49.032C69.726,48.876,69.786,48.456,69.786,48.3Zm.984,9.648c0-.156-.084-.24-.264-.276a5.62,5.62,0,0,0-1.032-.048,1.1,1.1,0,0,0-.372.12,2.779,2.779,0,0,1-1.188.2c-.984.024-1.788.024-2.412.012-.252-.012-.36-.156-.36-.408V56.208a3.671,3.671,0,0,1,.012-.456c.036-.228-.012-.372-.18-.408a7.663,7.663,0,0,0-1.368-.1c-.18,0-.384.108-.384.2s.048.132.156.144c.648.132.936.252,1.08.432l.012,1.26c0,.768.288,1.044,1.248,1.032,1.26-.036,2.784-.048,4.608-.024C70.626,58.3,70.77,58.176,70.77,57.948Zm-131.8,10.66c0-.072-.06-.12-.18-.156a2,2,0,0,0-.624-.1c-.192,0-.324.12-.576.132-2.052.1-3.384.132-3.948.12a10.876,10.876,0,0,1-1.464-.132c-.156-.024-.228,0-.228.084s.06.132.18.192a5.225,5.225,0,0,0,.948.4,1.51,1.51,0,0,0,.288.072.441.441,0,0,0,.192-.06,3.319,3.319,0,0,1,1.188-.228c1.512-.048,2.472-.084,2.916-.084A13.514,13.514,0,0,1-65.016,71.2a16.2,16.2,0,0,1-3.564,1.932.156.156,0,0,0-.1.144q0,.108.072.108a.619.619,0,0,0,.132-.024,14.945,14.945,0,0,0,4.452-2.124l3.672,1.452a1.024,1.024,0,0,0,.252.06.212.212,0,0,0,.228-.24.469.469,0,0,0-.216-.312,5.242,5.242,0,0,0-1.056-.612c-.228-.036-.432-.072-.612-.084a2.9,2.9,0,0,1-.744-.144l-1.128-.4a16.978,16.978,0,0,0,2.184-1.992,1.038,1.038,0,0,1,.144-.108C-61.116,68.776-61.032,68.692-61.032,68.608Zm2.172,7.116c0-.144-.084-.228-.276-.276a3.88,3.88,0,0,0-1.092-.144.9.9,0,0,0-.372.1,4.024,4.024,0,0,1-1.272.192c-.612.036-1.236.06-1.86.072l.072-2.136c0-.12.012-.252.024-.408a.159.159,0,0,0-.144-.192,5.933,5.933,0,0,0-1.236-.144q-.36,0-.36.144c0,.072.06.12.168.144a1.316,1.316,0,0,1,.864.54v2.076c-1.008.024-2.028.036-3.036.036a11.043,11.043,0,0,1-1.8-.144c-.12-.024-.18,0-.18.06a.29.29,0,0,0,.144.216,3.694,3.694,0,0,0,1.14.516,1.264,1.264,0,0,0,.216.036.377.377,0,0,0,.144-.048,3.4,3.4,0,0,1,1.128-.228c1.26-.108,3.18-.156,5.76-.156.528,0,1.008.024,1.4.06S-58.86,75.976-58.86,75.724Zm8.148-1.8c0-.072-.06-.132-.168-.156a1.98,1.98,0,0,0-.588-.1,1.232,1.232,0,0,0-.24.072,1.722,1.722,0,0,1-.264.048c-1.032.06-2.5.108-3.576.108a1.523,1.523,0,0,0-.444-.132,6.624,6.624,0,0,0-.972-.072c-.2,0-.312.048-.312.144,0,.072.072.108.18.132a1.566,1.566,0,0,1,.8.4l.264,2.9c.048.36.108.528.216.528.18,0,.3-.18.336-.552q1.08-.036,4.212-.036c.324,0,.48-.06.48-.2s-.18-.228-.552-.288c.12-.612.24-1.392.348-2.352C-50.976,74.152-50.712,74.032-50.712,73.924Zm-1.008.24-.06,2.52a.32.32,0,0,1-.24.156,32.082,32.082,0,0,1-3.456.084l-.06-2.376a1.317,1.317,0,0,1,.012-.324C-54.168,74.176-52.968,74.164-51.72,74.164Zm3.24-2.4c0-.12-.1-.2-.288-.264a3.184,3.184,0,0,0-1.02-.156.851.851,0,0,0-.384.108,3.517,3.517,0,0,1-1.14.2c.264-.792.456-1.428.588-1.908a11.194,11.194,0,0,0,.3-1.56c.168-.132.252-.24.252-.312s-.06-.144-.168-.168a2.826,2.826,0,0,0-.612-.072.71.71,0,0,0-.312.1.643.643,0,0,1-.324.072c-1.392.084-2.748.132-4.044.132a10.048,10.048,0,0,1-1.548-.12c-.144-.024-.216,0-.216.084,0,.06.048.132.156.2a4.2,4.2,0,0,0,.96.432,1.215,1.215,0,0,0,.264.048.442.442,0,0,0,.2-.06,2.877,2.877,0,0,1,1.188-.252c1.3-.072,2.412-.12,3.36-.108q-.018.846-.108,1.584c-.12.924-.2,1.56-.276,1.92-1.7.072-3.5.1-5.352.1a10.947,10.947,0,0,1-1.8-.132c-.12-.024-.18,0-.18.06s.048.132.144.2a3.617,3.617,0,0,0,1.152.528.809.809,0,0,0,.2.036.435.435,0,0,0,.156-.06,3.744,3.744,0,0,1,1.128-.216c1.272-.108,3.192-.168,5.76-.168A11.943,11.943,0,0,1-49,72.1a.616.616,0,0,0,.444-.1A.338.338,0,0,0-48.48,71.764Zm11.736-4.452a.3.3,0,0,0-.24-.312,4.962,4.962,0,0,0-1.5-.24c-.252,0-.372.06-.372.192,0,.06.048.1.156.12a2.323,2.323,0,0,1,1.236.636v3.42c-.78.084-1.716.12-2.352.132a7.5,7.5,0,0,1-1.128-.06q-.216-.018-.216.072c0,.06.036.108.12.168a4.814,4.814,0,0,0,.972.492.45.45,0,0,0,.12.012.414.414,0,0,0,.156-.036,1.829,1.829,0,0,1,.48-.144,16.61,16.61,0,0,1,1.848-.144v5.52c0,.588.06.876.2.876s.264-.276.336-.852a22.484,22.484,0,0,0,.132-2.784V68.032C-36.792,67.888-36.744,67.468-36.744,67.312Zm-2.064,6.456c0-.084-.024-.12-.084-.12a.666.666,0,0,0-.2.036,13.345,13.345,0,0,1-1.98.42,17.266,17.266,0,0,1-2.244.216c-.18.012-.264-.072-.264-.252V70c0-.06.012-.18.024-.384,1.74-.06,2.88-.084,3.432-.1.336-.012.516-.132.516-.36,0-.132-.072-.216-.24-.252a2.594,2.594,0,0,0-.864-.024,4.7,4.7,0,0,0-.5.18,2.43,2.43,0,0,1-.792.108c-.564.024-1.044.036-1.476.024-.156-.048-.288-.084-.384-.108a8.561,8.561,0,0,0-1.2-.12c-.144,0-.384.12-.384.216,0,.072.048.12.144.132.576.084.924.24,1.032.456l.024,4.152a1.086,1.086,0,0,0,.4,1,.677.677,0,0,0,.216.06,2.491,2.491,0,0,0,.564-.024,13.893,13.893,0,0,0,4.1-1.044C-38.868,73.852-38.808,73.8-38.808,73.768Zm11.772-3.012a2,2,0,0,0-.756-1.62,2.642,2.642,0,0,0-1.272-.588.7.7,0,0,0,.2-.36c0-.072-.048-.144-.156-.2a1.117,1.117,0,0,0-.672-.2c-.132,0-.192.036-.192.1a.12.12,0,0,0,.072.12c.156.084.252.18.252.276a.292.292,0,0,1-.132.24,2.56,2.56,0,0,0-1.62.612,2.047,2.047,0,0,0-.768,1.632,2.078,2.078,0,0,0,.768,1.656,2.619,2.619,0,0,0,1.776.612,2.569,2.569,0,0,0,1.776-.624A2.125,2.125,0,0,0-27.036,70.756Zm-.66.036a1.715,1.715,0,0,1-1.836,1.74,1.873,1.873,0,0,1-1.332-.48,1.71,1.71,0,0,1-.5-1.26,1.693,1.693,0,0,1,.5-1.236,1.839,1.839,0,0,1,1.332-.5,1.813,1.813,0,0,1,1.32.492A1.732,1.732,0,0,1-27.7,70.792Zm3.516-3.48A.3.3,0,0,0-24.42,67a4.929,4.929,0,0,0-1.476-.24c-.264,0-.384.06-.384.192,0,.06.048.1.156.12A2.36,2.36,0,0,1-24.9,67.7v6.348c0,.66.072.984.228.984s.264-.324.36-.984a11.885,11.885,0,0,0,.084-1.584V71.38c.684-.012,1.3-.036,1.86-.048.324,0,.48-.108.48-.336a.3.3,0,0,0-.24-.288,2.117,2.117,0,0,0-1.128.012,1.757,1.757,0,0,0-.228.156,1.108,1.108,0,0,1-.744.192V68.032C-24.228,67.876-24.18,67.468-24.18,67.312Zm.9,9.612c0-.144-.084-.228-.276-.252a5.168,5.168,0,0,0-1.02-.048.709.709,0,0,0-.372.12,2.888,2.888,0,0,1-1.188.2c-.756.024-1.476.024-2.172.012a.355.355,0,0,1-.36-.408v-1.4a4.693,4.693,0,0,1,.012-.492c.036-.228-.024-.348-.18-.384a7.567,7.567,0,0,0-1.368-.1c-.168,0-.4.108-.4.216,0,.06.048.12.156.132.648.132,1.008.276,1.092.432l.012,1.308c0,.78.264,1.056,1.236,1.044,1.212-.036,2.664-.048,4.368-.036C-23.424,77.284-23.28,77.164-23.28,76.924Zm10.068-2.964c0-.06-.048-.12-.156-.156a2.674,2.674,0,0,0-.6-.084c-.108,0-.4.084-.5.084-1.5.084-2.688.12-3.564.12a2.649,2.649,0,0,0-.456-.132,8.414,8.414,0,0,0-.96-.06c-.2,0-.3.048-.3.156,0,.048.06.084.168.12a1.277,1.277,0,0,1,.78.408l.288,2.88c.036.36.108.54.24.54.156,0,.276-.192.312-.576,1.26-.036,2.64-.06,4.176-.072.3,0,.444-.072.444-.2s-.168-.216-.5-.276c.168-.84.288-1.62.36-2.328C-13.476,74.224-13.212,74.056-13.212,73.96Zm-1.068,2.7a.369.369,0,0,1-.252.156,30.826,30.826,0,0,1-3.432.108l-.072-2.34a1.317,1.317,0,0,1,.012-.324c1.152-.036,2.412-.072,3.8-.084Zm-3.252-8.148a.361.361,0,0,0-.192-.3,4.922,4.922,0,0,0-1.188-.468.862.862,0,0,0-.2-.024c-.168,0-.252.06-.252.132,0,.048.048.1.132.132a1.311,1.311,0,0,1,.78.792,11.311,11.311,0,0,1-3.012,4.26c-.156.12-.24.2-.24.264s.024.072.1.072a.512.512,0,0,0,.252-.1,9.141,9.141,0,0,0,2.88-2.832l2.34,2.172a.41.41,0,0,0,.288.156c.132,0,.192-.084.192-.252a.457.457,0,0,0-.048-.2,2.464,2.464,0,0,0-.756-1.032,3.5,3.5,0,0,0-.456-.18,3.851,3.851,0,0,1-.672-.468l-.672-.552a10.248,10.248,0,0,0,.66-1.308A.728.728,0,0,0-17.532,68.512Zm4-1.512a4.846,4.846,0,0,0-1.5-.24c-.252,0-.372.06-.372.192,0,.06.06.1.168.12a2.283,2.283,0,0,1,1.224.636v4.944c0,.516.084.78.252.78s.276-.264.348-.78a8.634,8.634,0,0,0,.084-1.344V68.032c0-.048,0-.192.012-.444A.881.881,0,0,1-13.3,67.3.32.32,0,0,0-13.536,67Zm7.68,4.752A2.235,2.235,0,0,0-6.6,70a2.58,2.58,0,0,0-1.38-.636.911.911,0,0,0,.18-.348.272.272,0,0,0-.132-.228,1.255,1.255,0,0,0-.684-.192c-.132,0-.192.036-.192.1s.024.084.084.12a.373.373,0,0,1,.216.312.358.358,0,0,1-.1.2,2.72,2.72,0,0,0-1.74.648,2.249,2.249,0,0,0-.768,1.776,2.262,2.262,0,0,0,.756,1.752,2.716,2.716,0,0,0,1.86.66,2.777,2.777,0,0,0,1.872-.672A2.226,2.226,0,0,0-5.856,71.752Zm-.7-.024A1.757,1.757,0,0,1-7.1,73.06a1.845,1.845,0,0,1-1.368.528A1.882,1.882,0,0,1-9.84,73.06a1.757,1.757,0,0,1-.552-1.332,1.713,1.713,0,0,1,.552-1.32,1.892,1.892,0,0,1,1.368-.54A1.826,1.826,0,0,1-7.1,70.4,1.7,1.7,0,0,1-6.552,71.728Zm3.612-4.416A.29.29,0,0,0-3.168,67a4.979,4.979,0,0,0-1.512-.24c-.252,0-.372.06-.372.192,0,.06.06.1.168.12a2.283,2.283,0,0,1,1.224.636V77.14c0,.588.072.876.2.876.156,0,.264-.276.348-.852a22.484,22.484,0,0,0,.132-2.784V68.032C-2.976,67.888-2.94,67.468-2.94,67.312ZM8.184,72.04a.253.253,0,0,0-.264-.288,4.068,4.068,0,0,0-.936,0,1.027,1.027,0,0,0-.372.12,2.74,2.74,0,0,1-1.008.2c-.516.024-1.056.048-1.6.036-.312-.012-.384-.156-.384-.456V69.628a3.521,3.521,0,0,1,.012-.408c1.368-.048,2.712-.084,4.032-.12.264-.012.408-.132.408-.336,0-.168-.108-.264-.3-.276a4.039,4.039,0,0,0-.936,0,2.478,2.478,0,0,0-.372.156,2.667,2.667,0,0,1-.876.132c-.888.036-1.5.048-1.872.036q-.252-.09-.324-.108a6.8,6.8,0,0,0-1.224-.084c-.144,0-.384.108-.384.2,0,.072.048.12.156.132a1.571,1.571,0,0,1,.984.408v2.1c0,.744.324,1.08,1.284,1.032l.828-.036v2.16c-.564.048-1.188.1-1.86.12a6.453,6.453,0,0,1-1.44-.084c-.132-.024-.2,0-.2.084a.257.257,0,0,0,.144.216,3.815,3.815,0,0,0,1.2.528,1.029,1.029,0,0,0,.2.036.493.493,0,0,0,.276-.084,1.049,1.049,0,0,1,.432-.156C5.088,75.136,6,75,6.552,74.9s1.092-.2,1.644-.3c.708-.132,1.212-.24,1.5-.324V77.14c0,.588.06.876.2.876s.264-.276.336-.852a22.484,22.484,0,0,0,.132-2.784V68.032c0-.144.048-.564.048-.72a.3.3,0,0,0-.24-.312,4.962,4.962,0,0,0-1.5-.24c-.252,0-.372.06-.372.192,0,.06.048.1.156.12a2.323,2.323,0,0,1,1.236.636V73.96c-1.32.216-2.4.372-3.252.492-.228.036-.468.06-.708.1V72.436c.744-.024,1.4-.048,1.98-.06C8.028,72.364,8.184,72.256,8.184,72.04Zm12.384-1.4a.271.271,0,0,0-.288-.288,8.308,8.308,0,0,0-1.068-.024.673.673,0,0,0-.36.12,2.443,2.443,0,0,1-1,.2c-.66.024-1.56.036-2.664.036-.24,0-.36-.132-.36-.384V68.692a3.9,3.9,0,0,1,.024-.492c.024-.2-.036-.324-.2-.36a6.573,6.573,0,0,0-1.3-.108c-.156,0-.372.132-.372.228a.072.072,0,0,0,.012.048,2.014,2.014,0,0,0,.54.168.911.911,0,0,1,.6.336v1.512c0,.768.324,1.056,1.272,1.056,1.14,0,2.724-.036,4.7-.1C20.4,70.972,20.568,70.876,20.568,70.636Zm1.692,1.92c0-.132-.084-.228-.276-.276a4.392,4.392,0,0,0-1.092-.132.876.876,0,0,0-.372.084,3.951,3.951,0,0,1-1.272.2c-1.8.072-3.648.108-5.508.108a11.161,11.161,0,0,1-1.8-.132c-.12-.012-.18,0-.18.06a.29.29,0,0,0,.144.216,3.753,3.753,0,0,0,1.14.516,1.8,1.8,0,0,0,.216.036.509.509,0,0,0,.144-.06,3.549,3.549,0,0,1,1.128-.2c1.392-.108,3.336-.168,5.76-.168.528,0,1.008.024,1.4.06S22.26,72.808,22.26,72.556ZM20.484,76.84c0-.132-.084-.2-.276-.24a5.009,5.009,0,0,0-1.02-.048.709.709,0,0,0-.372.12,2.952,2.952,0,0,1-1.188.192c-.768.024-1.524.024-2.232.012-.252-.012-.372-.144-.372-.408v-1.26a3.473,3.473,0,0,1,.024-.492c.036-.2-.024-.336-.18-.372a7.778,7.778,0,0,0-1.392-.1c-.156,0-.372.108-.372.2a.178.178,0,0,0,.012.084,2.22,2.22,0,0,0,.576.168c.36.084.588.18.648.312l.012,1.2c0,.744.264,1.008,1.236,1.008,1.14-.024,2.616-.036,4.44-.036C20.34,77.188,20.484,77.068,20.484,76.84Zm13.5-9.528A.29.29,0,0,0,33.756,67a4.962,4.962,0,0,0-1.5-.24c-.252,0-.372.06-.372.192,0,.06.048.1.156.12a2.37,2.37,0,0,1,1.236.636v2.868a16.187,16.187,0,0,1-1.74.1,8.189,8.189,0,0,1-1.056-.06q-.216-.036-.216.072c0,.048.036.084.132.156a2.568,2.568,0,0,0,.876.36,1,1,0,0,0,.12.024.47.47,0,0,0,.156-.036,1.452,1.452,0,0,1,.468-.132c.42-.048.84-.084,1.26-.1V73.6c0,.456.084.684.264.684s.288-.264.348-.78a10.507,10.507,0,0,0,.06-1.188V68.032C33.948,67.876,33.984,67.468,33.984,67.312Zm-2.2,6.4a.3.3,0,0,0-.192-.288,4.333,4.333,0,0,0-1.152-.408,2.115,2.115,0,0,0-.228-.024c-.156,0-.24.036-.24.12,0,.048.048.1.144.156.5.24.66.408.756.648a9.232,9.232,0,0,1-1.632,1.956,10.684,10.684,0,0,1-2.016,1.56c-.12.072-.18.144-.18.2s.024.1.072.1a.59.59,0,0,0,.216-.048A11.41,11.41,0,0,0,29.7,76.192a9.515,9.515,0,0,0,1.4-1.368l3.12,2.616a.351.351,0,0,0,.264.132c.12,0,.192-.084.2-.24a.335.335,0,0,0-.072-.216,3.86,3.86,0,0,0-.96-1.092,1.115,1.115,0,0,0-.432-.2,3.132,3.132,0,0,1-.864-.54l-.984-.8c.12-.168.228-.336.336-.5A.547.547,0,0,0,31.788,73.708Zm-.66-5.256c0-.1-.06-.144-.192-.18a2.284,2.284,0,0,0-.528-.06.463.463,0,0,0-.24.072c-.132.036-.24.06-.312.072a23.111,23.111,0,0,1-2.676.072,6.573,6.573,0,0,1-1.1-.084c-.108-.024-.156.012-.156.108,0,.06.048.108.144.156a5.076,5.076,0,0,0,.888.408.726.726,0,0,0,.18.024.367.367,0,0,0,.18-.084,1.451,1.451,0,0,1,.612-.132c.72-.048,1.428-.084,2.148-.108a10.6,10.6,0,0,1-1.98,2.952,16.478,16.478,0,0,1-2.484,2.22c-.084.06-.144.12-.144.156a.1.1,0,0,0,.108.108.35.35,0,0,0,.108-.024,11.632,11.632,0,0,0,5.16-5.244A1.354,1.354,0,0,1,31,68.656.311.311,0,0,0,31.128,68.452ZM46.968,77c0-.156-.084-.24-.264-.276a3.769,3.769,0,0,0-1.032-.036.96.96,0,0,0-.372.12A3.445,3.445,0,0,1,44.148,77c-.66.024-1.308.024-1.956.012-.228-.012-.348-.156-.348-.42v-1.02c2.1-.048,3.528-.072,4.32-.084.276,0,.408-.108.408-.312,0-.168-.108-.264-.324-.3a3.642,3.642,0,0,0-.948-.024,2.468,2.468,0,0,0-.384.144,3.472,3.472,0,0,1-.828.156c-.576.048-1.332.06-2.244.048v-.828c0-.132.012-.264.024-.384,1.488-.06,3-.084,4.464-.084.264,0,.408-.12.408-.336,0-.144-.1-.24-.312-.264a5.122,5.122,0,0,0-1.056,0,1.425,1.425,0,0,0-.4.132,2.441,2.441,0,0,1-.852.132c-.636.036-1.368.036-2.172.024a2.276,2.276,0,0,0-.348-.1,8.267,8.267,0,0,0-1.152-.1c-.144,0-.384.108-.384.2,0,.06.048.108.144.12a1.606,1.606,0,0,1,.936.42v2.2c0,.72.312,1.032,1.272,1.02,1.092-.024,2.472-.036,4.092-.024C46.824,77.332,46.968,77.224,46.968,77Zm-3.012-8.7c0-.108-.252-.228-.744-.228a1.247,1.247,0,0,0-.228.072,1.465,1.465,0,0,1-.312.072c-.8.072-1.716.1-2.7.084a7.35,7.35,0,0,1-1.08-.072c-.108-.012-.156.012-.156.1,0,.06.048.108.132.168a3.089,3.089,0,0,0,.876.4.561.561,0,0,0,.2.036.447.447,0,0,0,.18-.072,1.2,1.2,0,0,1,.612-.144c1.08-.084,1.788-.12,2.148-.132a9.476,9.476,0,0,1-2.04,2.772A14.347,14.347,0,0,1,38.364,73.4c-.084.06-.132.12-.132.156a.088.088,0,0,0,.1.1.355.355,0,0,0,.12-.024A13.906,13.906,0,0,0,41.4,71.656a9,9,0,0,0,2.268-2.916c.084-.132.132-.216.144-.228A.311.311,0,0,0,43.956,68.3Zm2.6-1a.307.307,0,0,0-.228-.312,4.927,4.927,0,0,0-1.488-.228c-.252,0-.372.06-.372.192,0,.048.048.084.156.108a2.512,2.512,0,0,1,1.224.636v4.44c0,.492.084.756.252.756s.264-.264.348-.78c.036-.336.06-.732.072-1.2.708-.012,1.32-.036,1.848-.048.324,0,.48-.12.48-.336a.271.271,0,0,0-.24-.276,2.119,2.119,0,0,0-1.128.012,2,2,0,0,0-.228.144,1.117,1.117,0,0,1-.732.18V68.032C46.524,67.876,46.56,67.48,46.56,67.3Zm7.632,4.452A2.275,2.275,0,0,0,53.448,70a2.58,2.58,0,0,0-1.38-.636.834.834,0,0,0,.192-.348.26.26,0,0,0-.144-.228,1.248,1.248,0,0,0-.7-.2c-.132,0-.192.048-.192.108s.024.084.084.12c.156.1.24.2.24.312a.378.378,0,0,1-.108.2,2.646,2.646,0,0,0-1.74.648,2.423,2.423,0,0,0-.012,3.528,2.684,2.684,0,0,0,1.872.66,2.746,2.746,0,0,0,1.86-.672A2.266,2.266,0,0,0,54.192,71.752Zm-.7-.024a1.845,1.845,0,0,1-1.908,1.86A1.939,1.939,0,0,1,50.2,73.06a1.8,1.8,0,0,1-.552-1.332,1.755,1.755,0,0,1,.552-1.32,1.949,1.949,0,0,1,1.392-.54,1.817,1.817,0,0,1,1.356.528A1.745,1.745,0,0,1,53.5,71.728Zm3.444-4.416A.29.29,0,0,0,56.712,67a4.945,4.945,0,0,0-1.488-.24c-.264,0-.384.06-.384.192,0,.06.06.1.168.12a2.283,2.283,0,0,1,1.224.636V77.14c0,.588.06.876.2.876s.252-.276.336-.852A22.484,22.484,0,0,0,56.9,74.38v-2.2c.672-.012,1.3-.036,1.86-.048.312,0,.468-.12.468-.348A.277.277,0,0,0,59,71.512a1.943,1.943,0,0,0-1.14.012,2,2,0,0,0-.228.144,1.06,1.06,0,0,1-.732.192V68.032C56.9,67.888,56.94,67.468,56.94,67.312Zm9.9,3.312a2.1,2.1,0,0,0-.852-1.728,3,3,0,0,0-1.416-.588,1.056,1.056,0,0,0,.2-.384c0-.084-.048-.144-.144-.216a1.228,1.228,0,0,0-.672-.2c-.132,0-.192.036-.192.1s.024.084.084.12a.4.4,0,0,1,.216.324.341.341,0,0,1-.108.228,3.217,3.217,0,0,0-1.836.624,2.172,2.172,0,0,0-.024,3.468,3.34,3.34,0,0,0,3.888,0A2.11,2.11,0,0,0,66.84,70.624Zm-.672.048a1.729,1.729,0,0,1-.54,1.284,2.176,2.176,0,0,1-1.56.552,2.1,2.1,0,0,1-1.5-.528,1.675,1.675,0,0,1-.588-1.308,1.9,1.9,0,0,1,2.088-1.86,2.261,2.261,0,0,1,1.548.552A1.786,1.786,0,0,1,66.168,70.672ZM63,73.66c.012-.108-.036-.144-.168-.18a5.354,5.354,0,0,0-1.212-.192c-.228,0-.36.048-.36.156,0,.048.06.1.168.132.48.12.768.288.852.492l.144,1.74H60.9a9.847,9.847,0,0,1-1.8-.144q-.18-.036-.18.072c0,.06.048.132.144.2a3.433,3.433,0,0,0,1.14.516.928.928,0,0,0,.216.024.3.3,0,0,0,.144-.036,3.74,3.74,0,0,1,1.128-.228c1.26-.108,3.18-.156,5.76-.156.552,0,1.008.024,1.4.06s.564-.06.564-.312c0-.144-.084-.228-.276-.276a3.88,3.88,0,0,0-1.092-.144.9.9,0,0,0-.372.1,4.236,4.236,0,0,1-1.272.216,2.312,2.312,0,0,1-.288.012l.372-1.788c.036-.18.06-.312.072-.408.024-.072-.036-.144-.168-.192a5.015,5.015,0,0,0-1.1-.264c-.228-.036-.36,0-.372.108-.012.072.048.144.156.18a1.066,1.066,0,0,1,.732.528l-.216,1.86c-.852.024-1.728.048-2.592.06l-.036-1.728A2.344,2.344,0,0,1,63,73.66Z" transform="translate(180 1266)" fill="#2b2b2b"/>
    <path id="패스_7720" data-name="패스 7720" d="M-6.665-17.773a1.01,1.01,0,0,1,.562.012,1.231,1.231,0,0,1,.476.281,1.633,1.633,0,0,1,.342.464,1.292,1.292,0,0,1,.134.586,1.316,1.316,0,0,1-.439,1.013,1.532,1.532,0,0,1-1.074.4,1.42,1.42,0,0,1-1.27-.623,2.829,2.829,0,0,1-.415-1.6,4.238,4.238,0,0,1,.623-2.307,3.722,3.722,0,0,1,1.941-1.477l.342.464a3.439,3.439,0,0,0-1.416,1.1,2.488,2.488,0,0,0-.464,1.465q0,.269.11.317a.347.347,0,0,0,.256,0Zm3.906,0a1.114,1.114,0,0,1,1.025.293,1.348,1.348,0,0,1,.464,1.05A1.334,1.334,0,0,1-1.7-15.417a1.488,1.488,0,0,1-1.062.4,1.451,1.451,0,0,1-1.282-.623,2.768,2.768,0,0,1-.427-1.6,4.177,4.177,0,0,1,.635-2.307A3.787,3.787,0,0,1-1.88-21.021l.342.464a3.538,3.538,0,0,0-1.428,1.1,2.444,2.444,0,0,0-.476,1.465q0,.269.11.317a.411.411,0,0,0,.281,0Z" transform="translate(185 1249)" fill="#2b2b2b"/>
    <g id="그룹_1597" data-name="그룹 1597" transform="translate(154.242 1257.17)">
      <rect id="사각형_3434" data-name="사각형 3434" width="1.862" height="6.53" transform="translate(21.72 2.695)" fill="#e72c4e"/>
      <path id="패스_7659" data-name="패스 7659" d="M1.482,0,.1,1.373l1.86,1.911L3.327,1.911Z" transform="translate(-0.085)" fill="#e72c4e"/>
      <g id="그룹_1559" data-name="그룹 1559" transform="translate(0 0)">
        <g id="그룹_1558" data-name="그룹 1558" clip-path="url(#clip-path)">
          <path id="패스_7660" data-name="패스 7660" d="M328.482,9.734h1.593V5.775a1.758,1.758,0,0,1,3.517,0V9.734h1.585V5.781a3.35,3.35,0,0,0-3.343-3.388h0a3.372,3.372,0,0,0-1.765.5V.119h-1.586Z" transform="translate(-296.649 -0.107)" fill="#071039"/>
          <path id="패스_7661" data-name="패스 7661" d="M170.133,23.667a3.666,3.666,0,1,0,3.669,3.666,3.668,3.668,0,0,0-3.669-3.666m0,5.749a2.082,2.082,0,1,1,2.084-2.082,2.083,2.083,0,0,1-2.084,2.082" transform="translate(-150.332 -21.373)" fill="#071039"/>
          <path id="패스_7662" data-name="패스 7662" d="M6.53,18.389a3.879,3.879,0,0,0-2.972-1.671v1.6H3.329A3.3,3.3,0,0,0,.007,21.26a3.037,3.037,0,0,0,0,.442v5.323H1.594v-2.8a3.407,3.407,0,0,0,.862.365,4.249,4.249,0,0,0,1.1.147A3.742,3.742,0,0,0,7.177,22.16a4.226,4.226,0,0,0-.647-3.77m-.833,3.1c-.014.059-.03.118-.049.176a2.08,2.08,0,0,1-1.4,1.368,2.209,2.209,0,0,1-2.312-.6,1.507,1.507,0,0,1-.326-1.051,1.711,1.711,0,0,1,1.759-1.451v0h.188v-1.6a2.312,2.312,0,0,1,1.671,1.007,2.792,2.792,0,0,1,.5,1.162,2.221,2.221,0,0,1-.028.99" transform="translate(0 -15.098)" fill="#071039"/>
          <path id="패스_7663" data-name="패스 7663" d="M256.191,28.7a2.082,2.082,0,1,1,.007-2.731l1.112-1.13a3.666,3.666,0,1,0-.007,4.991Z" transform="translate(-226.634 -21.374)" fill="#071039"/>
          <path id="패스_7664" data-name="패스 7664" d="M90.159,28.554a2.44,2.44,0,0,1-1.9.9,1.95,1.95,0,0,1-2.03-1.384l-.048-.17h5.487l.007-.106c.014-.208.027-.4.027-.577a3.415,3.415,0,0,0-3.5-3.634,3.508,3.508,0,0,0-3.6,3.648,3.529,3.529,0,0,0,3.6,3.692,3.615,3.615,0,0,0,2.981-1.447l-.965-.992ZM86.227,26.44a1.86,1.86,0,0,1,1.953-1.385,1.814,1.814,0,0,1,1.889,1.389l.041.166H86.179Z" transform="translate(-76.396 -21.3)" fill="#071039"/>
        </g>
      </g>
    </g>
  </g>
</svg>
