<svg xmlns="http://www.w3.org/2000/svg" xmlns:xlink="http://www.w3.org/1999/xlink" width="148.492" height="34.176" viewBox="0 0 148.492 34.176">
  <defs>
    <clipPath id="clip-path">
      <rect id="사각형_181" data-name="사각형 181" width="148.492" height="34.176" fill="none"/>
    </clipPath>
  </defs>
  <g id="그룹_419" data-name="그룹 419" clip-path="url(#clip-path)">
    <path id="패스_618" data-name="패스 618" d="M39.277,14.164c-3.89-1.56-7.57-3.014-7.78-7.114V7.032a5.1,5.1,0,0,1,3.172-5.012c2.716-1.332,6.081-1.069,7.991.631L46.181,8.8h.981L46.286.689,43.78,1.3a11.411,11.411,0,0,0-11.2.35,7.942,7.942,0,0,0-4.048,7.342c-.035,5.345,4.451,7.185,8.8,8.954,4.171,1.7,8.1,3.294,7.675,7.9a7.121,7.121,0,0,1-7.114,7.22c-4.363.21-9.392-2.488-10.216-7.973l-.053-.315H26.59l.841,7.588.175.088a18.6,18.6,0,0,0,7.921,1.717,15.863,15.863,0,0,0,8.306-2.12,8.981,8.981,0,0,0,4.346-8.043c.333-6.168-4.363-8.043-8.9-9.848" transform="translate(20.004 -0.001)" fill="#e5d9d7"/>
    <path id="패스_619" data-name="패스 619" d="M28.458,32.12c-.3.018-.561.035-.7.053l-.193.018-.508,1.016,13.756.088L40.3,32.278l-.193-.035c-.438-.07-1.016-.123-1.647-.175a13.855,13.855,0,0,1-2.4-.333L35.712,2.1a13.5,13.5,0,0,1,3.522-.508c.368-.035.666-.053.841-.07l.193-.018L40.777.491,32.033.438,20.87,27.319l-10.6-27L.964.263,1.472,1.3l.21.018a18.288,18.288,0,0,1,4.276.631L5.134,31.262a10.627,10.627,0,0,1-4.381.754H.526L0,33.049l12.985.07-.508-1.051h-.228c-2.383,0-5.1-.631-5.467-1.051L7.412,3.838c.07.14.123.28.193.456L18.873,33.172h.806L31.629,4.661l.386,26.933a13.343,13.343,0,0,1-3.557.526" transform="translate(0 0.197)" fill="#e5d9d7"/>
    <path id="패스_620" data-name="패스 620" d="M89.9,32.12c-.3.018-.561.035-.7.053l-.193.018L88.5,33.207l13.756.088-.491-1.016-.193-.035c-.438-.07-1.016-.123-1.647-.175a13.855,13.855,0,0,1-2.4-.333L97.172,2.1a13.5,13.5,0,0,1,3.522-.508,6.9,6.9,0,0,0,.841-.07l.193-.018.508-1.016L93.493.438,82.313,27.319l-10.6-27-9.3-.053L62.914,1.3l.21.018a19.11,19.11,0,0,1,4.276.631l-.806,29.316a10.627,10.627,0,0,1-4.381.754h-.228l-.526,1.034,12.985.07-.508-1.051h-.228c-2.383,0-5.1-.631-5.467-1.051l.613-27.179c.07.14.123.3.193.456L80.315,33.172h.806L93.072,4.661l.386,26.933a13.343,13.343,0,0,1-3.557.526" transform="translate(46.238 0.197)" fill="#e5d9d7"/>
    <path id="패스_621" data-name="패스 621" d="M68.958.8V.766L68.941.661,44.5.5,41.92,8.967h1.086l.105-.21C45.617,3.2,49.21.941,54.4,1.66l-.175,30.035a13.208,13.208,0,0,1-4.03.561c-.28.018-.526.035-.666.053l-.21.018-.508,1.016,14.842.088L63.141,32.4l-2.208-.175A19.012,19.012,0,0,1,58.3,31.9l.175-30.193c5.047-.3,8.586.158,11.145,7.185l.088.245h1.016Z" transform="translate(31.538 0.378)" fill="#e5d9d7"/>
  </g>
</svg>
