<svg xmlns="http://www.w3.org/2000/svg" width="133.2" height="30.604" viewBox="0 0 133.2 30.604">
  <g id="그룹_15" data-name="그룹 15" transform="translate(-784 -3990)">
    <g id="그룹_12" data-name="그룹 12" transform="translate(784 3990)">
      <path id="패스_13" data-name="패스 13" d="M244.237,314.556a11.493,11.493,0,0,1-.768,4.233,9.872,9.872,0,0,1-5.6,5.651,11.644,11.644,0,0,1-4.418.814,12,12,0,0,1-4.488-.791,9.308,9.308,0,0,1-5.442-5.581,12.405,12.405,0,0,1-.721-4.326V300.744h6.14v14a7.44,7.44,0,0,0,.139,1.279,4.28,4.28,0,0,0,.6,1.51,3.784,3.784,0,0,0,1.35,1.257,4.84,4.84,0,0,0,2.418.511,4.573,4.573,0,0,0,3.348-1.279,4.4,4.4,0,0,0,1.3-3.279v-14h6.139Z" transform="translate(-222.796 -294.65)" fill="#ffc600"/>
      <path id="패스_14" data-name="패스 14" d="M248.426,327.32a11.781,11.781,0,0,1-4.65-.326,7.848,7.848,0,0,1-3.35-1.952,8.719,8.719,0,0,1-2.046-3.327,13.29,13.29,0,0,1-.7-4.441V297.322h6.14v6.094h4.326v5.44h-4.326v8.464a3.767,3.767,0,0,0,4.6,4.418l0,0Z" transform="translate(-211.172 -297.322)" fill="#ffc600"/>
      <path id="패스_15" data-name="패스 15" d="M257.431,300.4a11.614,11.614,0,0,1,4.7.955,12,12,0,0,1,3.838,2.65,12.576,12.576,0,0,1,2.6,4,12.938,12.938,0,0,1,.955,5,12.761,12.761,0,0,1-.955,4.977,12.366,12.366,0,0,1-2.6,3.953,12.14,12.14,0,0,1-3.838,2.627,12.034,12.034,0,0,1-9.394,0,11.844,11.844,0,0,1-3.815-2.627,12.548,12.548,0,0,1-2.58-3.953,12.76,12.76,0,0,1-.953-4.977,12.936,12.936,0,0,1,.953-5,12.764,12.764,0,0,1,2.58-4,11.684,11.684,0,0,1,8.511-3.6Zm.023,19.488a5.457,5.457,0,0,0,2.288-.49,5.7,5.7,0,0,0,1.891-1.394,6.647,6.647,0,0,0,1.284-2.162,7.991,7.991,0,0,0,.467-2.791,8.375,8.375,0,0,0-.467-2.837,6.829,6.829,0,0,0-1.284-2.233,5.869,5.869,0,0,0-1.891-1.442,5.264,5.264,0,0,0-2.288-.511,5.424,5.424,0,0,0-2.312.511,5.556,5.556,0,0,0-1.889,1.442,7.049,7.049,0,0,0-1.261,2.233,8.332,8.332,0,0,0-.467,2.837,7.951,7.951,0,0,0,.467,2.791,6.859,6.859,0,0,0,1.261,2.162,5.4,5.4,0,0,0,1.889,1.394A5.624,5.624,0,0,0,257.454,319.892Z" transform="translate(-205.156 -294.915)" fill="#ffc600"/>
      <path id="패스_16" data-name="패스 16" d="M297.881,324.96h-6.139v-14a7.467,7.467,0,0,0-.141-1.28,4.28,4.28,0,0,0-.6-1.51,3.784,3.784,0,0,0-1.35-1.257,4.837,4.837,0,0,0-2.417-.511,4.624,4.624,0,0,0-3.35,1.255,4.375,4.375,0,0,0-1.3,3.3v14h-6.139v-14a7.466,7.466,0,0,0-.141-1.28,4.54,4.54,0,0,0-.581-1.51,3.593,3.593,0,0,0-1.327-1.257,4.839,4.839,0,0,0-2.418-.511,4.606,4.606,0,0,0-3.371,1.255,4.419,4.419,0,0,0-1.279,3.3v14h-6.139V311.1a11.456,11.456,0,0,1,.768-4.233,10.176,10.176,0,0,1,2.162-3.394,9.779,9.779,0,0,1,3.394-2.256,11.768,11.768,0,0,1,4.465-.814,10.227,10.227,0,0,1,4.4.906,9.18,9.18,0,0,1,3.232,2.49,9.591,9.591,0,0,1,3.3-2.49,10.154,10.154,0,0,1,4.326-.906,12.015,12.015,0,0,1,4.488.791,9.311,9.311,0,0,1,5.44,5.581,12.405,12.405,0,0,1,.721,4.326Z" transform="translate(-192.819 -294.915)" fill="#ffc600"/>
      <path id="패스_17" data-name="패스 17" d="M296.084,300.4a11.612,11.612,0,0,1,4.7.955,11.984,11.984,0,0,1,3.838,2.65,12.576,12.576,0,0,1,2.6,4,12.937,12.937,0,0,1,.955,5,12.76,12.76,0,0,1-.955,4.977,12.366,12.366,0,0,1-2.6,3.953,12.12,12.12,0,0,1-3.838,2.627,12.033,12.033,0,0,1-9.394,0,11.844,11.844,0,0,1-3.815-2.627,12.547,12.547,0,0,1-2.581-3.953,12.76,12.76,0,0,1-.953-4.977,12.937,12.937,0,0,1,.953-5,12.763,12.763,0,0,1,2.581-4,11.684,11.684,0,0,1,8.512-3.6Zm.023,19.488a5.449,5.449,0,0,0,2.287-.49,5.7,5.7,0,0,0,1.891-1.394,6.647,6.647,0,0,0,1.284-2.162,7.949,7.949,0,0,0,.467-2.791,8.33,8.33,0,0,0-.467-2.837,6.829,6.829,0,0,0-1.284-2.233,5.869,5.869,0,0,0-1.891-1.442,5.256,5.256,0,0,0-2.287-.511,5.412,5.412,0,0,0-2.312.511,5.545,5.545,0,0,0-1.891,1.442,7.047,7.047,0,0,0-1.261,2.233,8.33,8.33,0,0,0-.467,2.837,7.949,7.949,0,0,0,.467,2.791,6.858,6.858,0,0,0,1.261,2.162A5.391,5.391,0,0,0,293.8,319.4,5.612,5.612,0,0,0,296.107,319.892Z" transform="translate(-174.976 -294.915)" fill="#ffc600"/>
    </g>
  </g>
</svg>
