<svg version="1.1" id="control-pt" class="control-pt-svg" xmlns="https://www.w3.org/2000/svg" xmlns:xlink="https://www.w3.org/1999/xlink" x="0px" y="0px" width="35.353px" height="61.625px" viewBox="0 0 35.353 61.625" enable-background="new 0 0 35.353 61.625" xml:space="preserve">
          <g class="box">
             <path class="svg-line" d="M17.674,0C7.912,0,0.001,7.912,0,17.675v26.276c0.001,9.762,7.913,17.674,17.676,17.674
                 c9.761,0,17.675-7.912,17.677-17.674V17.675C35.347,7.912,27.437,0,17.674,0z M32.685,26.975l-0.002,7.678v9.296
                 c0,4.152-1.679,7.896-4.396,10.619c-2.72,2.717-6.47,4.393-10.614,4.395c-4.15-0.002-7.897-1.678-10.617-4.395
                 c-2.714-2.727-4.39-6.467-4.392-10.619v-9.298v-7.679v-9.299C2.666,13.525,4.342,9.781,7.06,7.061
                 c2.721-2.719,6.464-4.397,10.614-4.397c4.146,0,7.894,1.678,10.613,4.396c2.72,2.721,4.396,6.465,4.397,10.613V26.975L32.685,26.975
                 z M19.007,13.713v4.608c0,0.734-0.596,1.333-1.332,1.333c-0.74,0-1.332-0.599-1.332-1.333v-4.608c0-0.735,0.592-1.332,1.332-1.332
                 C18.412,12.381,19.007,12.978,19.007,13.713z"></path>
         </g>
     </svg>